<?xml version="1.0" standalone="no"?>
<!DOCTYPE svg
  PUBLIC '-//W3C//DTD SVG 1.1//EN'
  'http://www.w3.org/Graphics/SVG/1.1/DTD/svg11.dtd'><svg version="1.1" xmlns="http://www.w3.org/2000/svg"><defs><font horiz-adv-x="0" id="font"><font-face ascent="780" bbox="-67 -232 1121 989" cap-height="720" descent="-220" font-family="MAIF" font-stretch="normal" font-style="normal" font-weight="720" units-per-em="1000" x-height="498" /><missing-glyph d="M653 720 565 0H67L155 720ZM225 641 156 79H496L565 641Z" horiz-adv-x="693" /><glyph d="" glyph-name=".null" horiz-adv-x="0" unicode="" /><glyph d="" glyph-name="CR" horiz-adv-x="0" unicode="" /><glyph d="" glyph-name="space" horiz-adv-x="270" unicode=" " /><glyph d="" glyph-name="uni00A0" horiz-adv-x="270" unicode=" " /><glyph d="M5 0 350 720H418L587 0H505L464 179H174L89 0ZM371 599 210 255H447Z" glyph-name="A" horiz-adv-x="652" unicode="A" /><glyph d="M557 224Q557 123 497 61.5Q437 0 329 0H67L155 720H388Q474 720 521 675Q568 630 568 550Q568 491 542.5 444.5Q517 398 470 374Q513 355 535 317Q557 279 557 224ZM484 549Q484 598 459.5 621Q435 644 385 644H223L194 406H356Q418 406 451 443.5Q484 481 484 549ZM475 224Q475 281 448 306.5Q421 332 363 332H185L153 76H332Q401 76 438 115Q475 154 475 224Z" glyph-name="B" horiz-adv-x="621" unicode="B" /><glyph d="M320 69Q368 69 413.5 82Q459 95 501 120L529 50Q484 21 429 5.5Q374 -10 315 -10Q196 -10 135.5 64Q75 138 75 283Q75 488 159.5 609Q244 730 398 730Q451 730 498.5 714.5Q546 699 586 669L549 603Q515 627 476 639Q437 651 394 651Q279 651 218.5 555Q158 459 158 283Q158 169 196.5 119Q235 69 320 69Z" glyph-name="C" horiz-adv-x="589" unicode="C" /><glyph d="M635 428Q635 240 547 120Q459 0 306 0H67L155 720H389Q509 720 572 645Q635 570 635 428ZM155 77 312 77Q426 77 489.5 172.5Q553 268 553 428Q553 540 512 591.5Q471 643 383 643H225Z" glyph-name="D" horiz-adv-x="679" unicode="D" /><glyph d="M500 0 67 0L155 720H562L553 643H225L196 410H473L464 333H187L155 77H500Z" glyph-name="E" horiz-adv-x="568" unicode="E" /><glyph d="M183 303 146 0H67L155 720H562L544 643H225L193 380H470L460 303Z" glyph-name="F" horiz-adv-x="540" unicode="F" /><glyph d="M579 349 542 52Q494 22 438 6Q382 -10 323 -10Q199 -10 136 64Q73 138 73 283Q73 488 160 609Q247 730 406 730Q461 730 511 713.5Q561 697 602 666L565 600Q528 626 487.5 638.5Q447 651 402 651Q282 651 219 555Q156 459 156 283Q156 169 197 118.5Q238 68 328 68Q365 68 399.5 75Q434 82 467 96L498 338Z" glyph-name="G" horiz-adv-x="632" unicode="G" /><glyph d="M146 0 67 0L155 720H234L196 410H536L574 718L655 729L565 0H486L527 333H187Z" glyph-name="H" horiz-adv-x="693" unicode="H" /><glyph d="M236 729 146 0H67L155 718Z" glyph-name="I" horiz-adv-x="273" unicode="I" /><glyph d="M156 718 237 729L153 46Q143 -31 123 -77.5Q103 -124 52 -190L29 -220L-30 -169L-4 -134Q37 -78 52 -43.5Q67 -9 73 42Z" glyph-name="J" horiz-adv-x="274" unicode="J" /><glyph d="M187 333 146 0H67L155 718L236 729L196 410H291L549 720H647L360 376L581 0H486L293 333Z" glyph-name="K" horiz-adv-x="643" unicode="K" /><glyph d="M468 0 67 0L155 718L236 729L155 77H468Z" glyph-name="L" horiz-adv-x="531" unicode="L" /><glyph d="M430 180 373 180L213 581L142 0H67L155 720H235L411 279L700 720H780L692 0H617L687 571Z" glyph-name="M" horiz-adv-x="819" unicode="M" /><glyph d="M215 589 143 0H67L155 720H236L504 131L576 717L653 728L564 0H483Z" glyph-name="N" horiz-adv-x="692" unicode="N" /><glyph d="M74 292Q74 484 162 607Q250 730 403 730Q523 730 586 652.5Q649 575 649 428Q649 236 561 113Q473 -10 320 -10Q200 -10 137 67.5Q74 145 74 292ZM156 292Q156 175 197 121Q238 67 326 67Q440 67 503.5 165Q567 263 567 428Q567 545 526 599Q485 653 397 653Q283 653 219.5 555Q156 457 156 292Z" glyph-name="O" horiz-adv-x="694" unicode="O" /><glyph d="M176 243 146 0H67L155 720H381Q481 720 533 666Q585 612 585 511Q585 387 519.5 315Q454 243 333 243ZM501 510Q501 579 471 611Q441 643 377 643H225L185 320H338Q417 320 459 370Q501 420 501 510Z" glyph-name="P" horiz-adv-x="606" unicode="P" /><glyph d="M445 15 485 -185L410 -207L369 -7Q357 -9 345 -9.5Q333 -10 320 -10Q200 -10 137 67.5Q74 145 74 292Q74 484 162 607Q250 730 403 730Q523 730 586 652.5Q649 575 649 428Q649 283 595 170.5Q541 58 445 15ZM156 292Q156 175 197 121Q238 67 326 67Q440 67 503.5 165Q567 263 567 428Q567 545 526 599Q485 653 397 653Q283 653 219.5 555Q156 457 156 292Z" glyph-name="Q" horiz-adv-x="694" unicode="Q" /><glyph d="M182 293 146 0H67L155 720H396Q490 720 539.5 671Q589 622 589 530Q589 437 544.5 376Q500 315 416 299L553 0H463L331 293ZM505 530Q505 589 477.5 616Q450 643 391 643H225L191 369H358Q430 369 467.5 411Q505 453 505 530Z" glyph-name="R" horiz-adv-x="628" unicode="R" /><glyph d="M517 197Q517 100 452.5 45Q388 -10 271 -10Q207 -10 150.5 7Q94 24 34 62L72 134Q129 98 176 83.5Q223 69 276 69Q355 69 396 101Q437 133 437 195Q437 242 413 269Q389 296 330 313L257 334Q174 358 134.5 405Q95 452 95 528Q95 624 157 677Q219 730 334 730Q396 730 449 713.5Q502 697 553 661L515 589Q472 621 427 636Q382 651 329 651Q253 651 214.5 621Q176 591 176 532Q176 486 202.5 458.5Q229 431 291 414L364 394Q442 373 479.5 324.5Q517 276 517 197Z" glyph-name="S" horiz-adv-x="576" unicode="S" /><glyph d="M386 643 307 0H228L307 643H83L92 720H620L602 643Z" glyph-name="T" horiz-adv-x="594" unicode="T" /><glyph d="M647 729 591 277Q573 131 504 60.5Q435 -10 310 -10Q187 -10 130.5 68Q74 146 91 288L143 720H223L170 282Q156 169 191 118Q226 67 314 67Q403 67 450.5 118Q498 169 512 282L565 718Z" glyph-name="U" horiz-adv-x="673" unicode="U" /><glyph d="M660 720 320 0H252L89 720H172L301 131L576 720Z" glyph-name="V" horiz-adv-x="633" unicode="V" /><glyph d="M681 0 615 0L513 584L266 0H199L94 720H173L250 145L495 720H561L661 145L882 720H963Z" glyph-name="W" horiz-adv-x="941" unicode="W" /><glyph d="M282 369 103 720H194L337 437L548 720H641L377 369L564 0H473L321 301L97 0H4Z" glyph-name="X" horiz-adv-x="628" unicode="X" /><glyph d="M344 264 312 0H232L264 264L84 720H170L312 350L547 720H636Z" glyph-name="Y" horiz-adv-x="605" unicode="Y" /><glyph d="M489 0 15 0L23 60L444 643H107L116 720H558L551 660L129 77H489Z" glyph-name="Z" horiz-adv-x="560" unicode="Z" /><glyph d="M855 0 422 0L444 178H202L88 0H1L469 720H917L908 643H580L551 410H828L819 333H542L510 77H855ZM500 641 252 255H453Z" glyph-name="AE" horiz-adv-x="924" unicode="Æ" /><glyph d="M72 292Q72 480 160 600Q248 720 401 720H968L959 643H631L602 410H879L870 333H593L561 77H906V0H318Q198 0 135 75Q72 150 72 292ZM552 643 395 643Q281 643 217.5 547.5Q154 452 154 292Q154 180 195 128.5Q236 77 324 77H482Z" glyph-name="OE" horiz-adv-x="974" unicode="Œ" /><glyph d="M403 69Q470 69 506 112.5Q542 156 542 233Q542 290 515.5 316Q489 342 432 342H336L344 404L498 630Q473 641 445.5 646Q418 651 387 651Q298 651 250 600Q202 549 189 438L135 0H56L111 444Q129 589 198.5 659.5Q268 730 392 730Q446 730 495 714.5Q544 699 584 670L577 618L440 421Q530 420 578.5 370.5Q627 321 627 233Q627 122 568 56Q509 -10 401 -10Q350 -10 306 4.5Q262 19 222 50L259 118Q292 93 327.5 81Q363 69 403 69Z" glyph-name="uni1E9E" horiz-adv-x="680" unicode="ẞ" /><glyph d="M489 498 442 112Q439 88 445 80.5Q451 73 472 73H504V0H468Q425 0 401.5 14Q378 28 371 58Q332 23 292.5 6.5Q253 -10 210 -10Q131 -10 90 44.5Q49 99 49 203Q49 339 107 423.5Q165 508 267 508Q310 508 344 492Q378 476 408 442L415 498ZM270 432Q202 432 164.5 370.5Q127 309 127 204Q127 132 150.5 99Q174 66 225 66Q260 66 296 80.5Q332 95 370 125L400 373Q370 402 337.5 417Q305 432 270 432Z" glyph-name="a" horiz-adv-x="554" unicode="a" /><glyph d="M122 0 49 0L141 750L216 760L178 450Q215 480 252 494Q289 508 330 508Q410 508 452 453.5Q494 399 494 295Q494 159 435 74.5Q376 -10 273 -10Q230 -10 195 6Q160 22 129 56ZM270 66Q340 66 378 128Q416 190 416 294Q416 366 391.5 399Q367 432 315 432Q279 432 242.5 417.5Q206 403 169 374L138 124Q170 95 202.5 80.5Q235 66 270 66Z" glyph-name="b" horiz-adv-x="543" unicode="b" /><glyph d="M279 434Q204 434 165 374.5Q126 315 126 204Q126 130 151.5 97Q177 64 234 64Q270 64 305 74Q340 84 372 103L397 38Q363 14 320.5 2Q278 -10 229 -10Q139 -10 93.5 44.5Q48 99 48 204Q48 346 109 427Q170 508 284 508Q329 508 367 495.5Q405 483 433 460L398 397Q373 415 343 424.5Q313 434 279 434Z" glyph-name="c" horiz-adv-x="448" unicode="c" /><glyph d="M527 760 434 0H362L369 52Q331 20 293 5Q255 -10 213 -10Q133 -10 91 44.5Q49 99 49 203Q49 339 108 423.5Q167 508 270 508Q313 508 348 492Q383 476 414 442L452 750ZM273 432Q203 432 165 370Q127 308 127 204Q127 132 151.5 99Q176 66 228 66Q264 66 301 81Q338 96 375 125L406 373Q375 403 341.5 417.5Q308 432 273 432Z" glyph-name="d" horiz-adv-x="543" unicode="d" /><glyph d="M453 249Q452 244 451 238Q450 232 449 221H125V205Q125 130 154.5 97Q184 64 250 64Q292 64 330.5 75.5Q369 87 404 109L432 44Q394 18 345 4Q296 -10 242 -10Q145 -10 96 44.5Q47 99 47 205Q47 339 109 423.5Q171 508 280 508Q367 508 411.5 457Q456 406 456 309Q456 295 455.5 280Q455 265 453 249ZM383 308Q383 373 356.5 404Q330 435 275 435Q218 435 181.5 397Q145 359 132 287H382Q383 291 383 295Q383 299 383 308Z" glyph-name="e" horiz-adv-x="503" unicode="e" /><glyph d="M125 426 41 426L50 498H134L147 604Q156 677 187 706.5Q218 736 302 747L387 758L378 683L302 673Q258 667 241.5 652.5Q225 638 221 601L208 498H355L346 426H199L147 0H73Z" glyph-name="f" horiz-adv-x="346" unicode="f" /><glyph d="M261 -148Q305 -148 326.5 -122.5Q348 -97 355 -38L366 49Q329 19 292 4.5Q255 -10 213 -10Q133 -10 91 44.5Q49 99 49 203Q49 339 108 423.5Q167 508 270 508Q314 508 349.5 491.5Q385 475 416 440L423 498H495L429 -43Q418 -134 376.5 -177Q335 -220 258 -220Q238 -220 217 -218.5Q196 -217 176 -215L43 -199L54 -128L183 -144Q200 -146 219 -147Q238 -148 261 -148ZM273 432Q204 432 165.5 370Q127 308 127 204Q127 132 151.5 99Q176 66 228 66Q264 66 301 81Q338 96 375 125L406 372Q374 402 341 417Q308 432 273 432Z" glyph-name="g" horiz-adv-x="543" unicode="g" /><glyph d="M330 508Q410 508 449 453.5Q488 399 476 302L439 0H366L404 308Q412 370 389.5 401Q367 432 315 432Q280 432 243 417Q206 402 169 373L123 0H49L141 750L216 760L178 447Q216 478 253 493Q290 508 330 508Z" glyph-name="h" horiz-adv-x="544" unicode="h" /><glyph d="M204 641 120 604L134 720H213ZM49 0 111 507L184 497L123 0Z" glyph-name="i" horiz-adv-x="232" unicode="i" /><glyph d="M204 641 120 604L134 720H213ZM111 507 184 497L127 35Q117 -43 101.5 -82.5Q86 -122 38 -187L13 -220L-44 -176L-14 -134Q21 -85 33 -56Q45 -27 53 35Z" glyph-name="j" horiz-adv-x="232" unicode="j" /><glyph d="M49 0 141 750L216 760L160 305H227L391 498H484L292 274L453 0H364L228 232H151L123 0Z" glyph-name="k" horiz-adv-x="499" unicode="k" /><glyph d="M213 760 134 112Q131 88 137 80.5Q143 73 164 73H209V0H160Q100 0 77 28.5Q54 57 61 120L138 750Z" glyph-name="l" horiz-adv-x="259" unicode="l" /><glyph d="M49 0 110 498H183L176 446Q215 478 251 493Q287 508 325 508Q373 508 406 487.5Q439 467 456 428Q499 469 542 488.5Q585 508 631 508Q709 508 747 454.5Q785 401 773 307L735 0H662L701 313Q709 372 687.5 402Q666 432 616 432Q582 432 545 416Q508 400 469 368Q470 351 469.5 336Q469 321 467 307L429 0H356L395 313Q403 372 381.5 402Q360 432 310 432Q277 432 242 417.5Q207 403 169 373L123 0Z" glyph-name="m" horiz-adv-x="842" unicode="m" /><glyph d="M49 0 110 498H183L177 446Q214 478 251.5 493Q289 508 330 508Q410 508 449 453.5Q488 399 476 302L439 0H366L404 308Q412 370 389.5 401Q367 432 315 432Q280 432 243 417Q206 402 169 373L123 0Z" glyph-name="n" horiz-adv-x="544" unicode="n" /><glyph d="M476 291Q476 158 412 74Q348 -10 235 -10Q143 -10 95 45.5Q47 101 47 207Q47 340 111 424Q175 508 288 508Q380 508 428 452.5Q476 397 476 291ZM125 208Q125 133 152.5 98.5Q180 64 239 64Q315 64 356.5 124.5Q398 185 398 290Q398 365 370.5 399.5Q343 434 284 434Q208 434 166.5 373.5Q125 313 125 208Z" glyph-name="o" horiz-adv-x="522" unicode="o" /><glyph d="M23 -210 110 498H183L177 449Q214 479 251 493.5Q288 508 330 508Q410 508 452 453.5Q494 399 494 295Q494 159 435 74.5Q376 -10 273 -10Q230 -10 195 6Q160 22 130 55L97 -210ZM270 66Q340 66 378 128Q416 190 416 294Q416 366 391.5 399Q367 432 315 432Q279 432 242.5 417.5Q206 403 169 374L138 124Q170 95 202.5 80.5Q235 66 270 66Z" glyph-name="p" horiz-adv-x="543" unicode="p" /><glyph d="M423 498 495 498L408 -210H334L366 49Q329 19 292 4.5Q255 -10 213 -10Q133 -10 91 44.5Q49 99 49 203Q49 339 108 423.5Q167 508 270 508Q314 508 349.5 491.5Q385 475 416 440ZM273 432Q203 432 165 370Q127 308 127 204Q127 132 151.5 99Q176 66 228 66Q264 66 301 81Q338 96 375 125L406 373Q375 403 341.5 417.5Q308 432 273 432Z" glyph-name="q" horiz-adv-x="543" unicode="q" /><glyph d="M122 428 41 428L50 498H202L193 420Q240 466 283.5 487Q327 508 372 508Q378 508 384.5 507.5Q391 507 397 506L378 424Q328 424 279 403.5Q230 383 184 343L142 0H69Z" glyph-name="r" horiz-adv-x="385" unicode="r" /><glyph d="M394 141Q394 68 345 29Q296 -10 203 -10Q152 -10 106 3.5Q60 17 22 43L54 109Q88 86 127 75Q166 64 209 64Q264 64 291.5 82.5Q319 101 319 138Q319 165 302 181Q285 197 245 208L194 221Q130 237 99 270.5Q68 304 68 359Q68 430 115 469Q162 508 249 508Q297 508 339 495.5Q381 483 417 457L385 390Q351 413 318 423.5Q285 434 246 434Q194 434 168.5 416.5Q143 399 143 364Q143 337 160.5 321.5Q178 306 221 295L272 282Q333 267 363.5 232Q394 197 394 141Z" glyph-name="s" horiz-adv-x="454" unicode="s" /><glyph d="M199 426 165 149Q160 101 169 86.5Q178 72 212 72H303V0H208Q137 0 109.5 35.5Q82 71 92 152L125 426H41L50 498H134L149 616L224 626L208 498H355L346 426Z" glyph-name="t" horiz-adv-x="365" unicode="t" /><glyph d="M209 -10Q131 -10 93 43.5Q55 97 67 191L105 498H178L139 185Q132 125 153 95.5Q174 66 224 66Q256 66 291.5 80.5Q327 95 365 124L411 498H485L424 0H351L358 52Q319 20 283 5Q247 -10 209 -10Z" glyph-name="u" horiz-adv-x="534" unicode="u" /><glyph d="M404 498 484 498L234 0H177L49 498H126L219 124Z" glyph-name="v" horiz-adv-x="470" unicode="v" /><glyph d="M351 498 407 498L482 131L631 498H709L500 0H443L366 376L196 0H140L52 498H127L187 132Z" glyph-name="w" horiz-adv-x="701" unicode="w" /><glyph d="M191 256 60 498H145L242 315L381 498H468L277 254L414 0H330L226 195L77 0H-10Z" glyph-name="x" horiz-adv-x="465" unicode="x" /><glyph d="M406 498 484 498L127 -214L62 -182L170 27L49 498H124L219 123Z" glyph-name="y" horiz-adv-x="470" unicode="y" /><glyph d="M365 0 5 0L12 55L301 424H63L72 498H411L404 443L115 74H365Z" glyph-name="z" horiz-adv-x="425" unicode="z" /><glyph d="M346 286 348 302Q357 373 335 403.5Q313 434 256 434Q220 434 182 424Q144 414 105 394L82 458Q129 483 173.5 495.5Q218 508 260 508Q316 508 352.5 487Q389 466 405 424Q434 465 475 486.5Q516 508 568 508Q655 508 699.5 457Q744 406 744 309Q744 295 743.5 280Q743 265 741 249Q740 244 739 238Q738 232 737 221H413V205Q413 130 442.5 97Q472 64 538 64Q580 64 618.5 75.5Q657 87 692 109L720 44Q682 18 633 4Q584 -10 530 -10Q470 -10 427.5 11.5Q385 33 362 76Q313 31 268.5 10.5Q224 -10 173 -10Q105 -10 68 26.5Q31 63 31 128Q31 202 75 244Q119 286 201 286ZM671 308Q671 373 644.5 404Q618 435 563 435Q506 435 469.5 397Q433 359 420 287H670Q671 291 671 295Q671 299 671 308ZM335 220 199 220Q154 220 131 197Q108 174 108 130Q108 94 126 76.5Q144 59 180 59Q218 59 258.5 77.5Q299 96 342 133Q338 149 336.5 166.5Q335 184 335 205Z" glyph-name="ae" horiz-adv-x="790" unicode="æ" /><glyph d="M419 96Q388 44 341.5 17Q295 -10 235 -10Q143 -10 95 45.5Q47 101 47 207Q47 340 111 424Q175 508 288 508Q348 508 388.5 481.5Q429 455 448 403Q478 455 522.5 481.5Q567 508 625 508Q712 508 756.5 457Q801 406 801 309Q801 295 800.5 280Q800 265 798 249Q797 244 796 238Q795 232 794 221H470V205Q470 130 499.5 97Q529 64 595 64Q637 64 675.5 75.5Q714 87 749 109L777 44Q739 18 690 4Q641 -10 587 -10Q524 -10 481.5 16.5Q439 43 419 96ZM728 308Q728 373 701.5 404Q675 435 620 435Q563 435 526.5 397Q490 359 477 287H727Q728 291 728 295Q728 299 728 308ZM125 208Q125 133 152.5 98.5Q180 64 239 64Q315 64 356.5 124.5Q398 185 398 290Q398 365 370.5 399.5Q343 434 284 434Q208 434 166.5 373.5Q125 313 125 208Z" glyph-name="oe" horiz-adv-x="846" unicode="œ" /><glyph d="M126 426 41 426L50 498H134L143 567Q156 669 200.5 714.5Q245 760 334 760Q410 760 451.5 723Q493 686 493 621Q493 585 478.5 547Q464 509 420 448Q395 413 388 398Q381 383 381 372Q381 361 387 353.5Q393 346 408 337L468 303Q515 276 538 238Q561 200 561 149Q561 74 514.5 32Q468 -10 382 -10Q338 -10 298.5 2Q259 14 224 37L258 104Q288 84 319 74Q350 64 384 64Q435 64 460.5 85.5Q486 107 486 150Q486 180 471 200Q456 220 415 244L355 278Q330 292 317 311.5Q304 331 304 355Q304 378 315 404Q326 430 361 483Q397 536 408.5 564Q420 592 420 616Q420 651 398 668.5Q376 686 332 686Q278 686 251.5 658Q225 630 216 561L147 0H73Z" glyph-name="germandbls" horiz-adv-x="608" unicode="ß" /><glyph d="M49 0 111 507L184 497L123 0Z" glyph-name="dotlessi" horiz-adv-x="232" unicode="ı" /><glyph d="M5 0 350 720H418L587 0H505L464 179H174L89 0ZM371 599 210 255H447ZM412 816 337 816L490 989L541 933Z" glyph-name="Aacute" horiz-adv-x="652" unicode="Á" /><glyph d="M5 0 350 720H418L587 0H505L464 179H174L89 0ZM371 599 210 255H447ZM385 970 449 970L556 816H484L411 896L318 816H240Z" glyph-name="Acircumflex" horiz-adv-x="652" unicode="Â" /><glyph d="M5 0 350 720H418L587 0H505L464 179H174L89 0ZM371 599 210 255H447ZM364 936 352 841H273L285 936ZM451 841 463 936H542L530 841Z" glyph-name="Adieresis" horiz-adv-x="652" unicode="Ä" /><glyph d="M5 0 350 720H418L587 0H505L464 179H174L89 0ZM371 599 210 255H447ZM348 989 460 816H389L289 933Z" glyph-name="Agrave" horiz-adv-x="652" unicode="À" /><glyph d="M237 -105 235 -54L260 -6Q168 11 121.5 83Q75 155 75 283Q75 488 159.5 609Q244 730 398 730Q451 730 498.5 714.5Q546 699 586 669L549 603Q515 627 476 639Q437 651 394 651Q279 651 218.5 555Q158 459 158 283Q158 169 196.5 119Q235 69 320 69Q368 69 413.5 82Q459 95 501 120L529 50Q484 21 429 5.5Q374 -10 315 -10L295 -48Q335 -51 355.5 -71Q376 -91 376 -127Q376 -171 347.5 -195.5Q319 -220 265 -220Q237 -220 213.5 -212.5Q190 -205 170 -190L194 -139Q210 -150 228.5 -155.5Q247 -161 267 -161Q290 -161 301.5 -153Q313 -145 313 -129Q313 -114 303 -107.5Q293 -101 271 -101Q263 -101 253.5 -102Q244 -103 237 -105Z" glyph-name="Ccedilla" horiz-adv-x="589" unicode="Ç" /><glyph d="M320 69Q368 69 413.5 82Q459 95 501 120L529 50Q484 21 429 5.5Q374 -10 315 -10Q196 -10 135.5 64Q75 138 75 283Q75 488 159.5 609Q244 730 398 730Q451 730 498.5 714.5Q546 699 586 669L549 603Q515 627 476 639Q437 651 394 651Q279 651 218.5 555Q158 459 158 283Q158 169 196.5 119Q235 69 320 69ZM426 816 351 816L504 989L555 933Z" glyph-name="Cacute" horiz-adv-x="589" unicode="Ć" /><glyph d="M500 0 67 0L155 720H562L553 643H225L196 410H473L464 333H187L155 77H500ZM386 816 311 816L464 989L515 933Z" glyph-name="Eacute" horiz-adv-x="568" unicode="É" /><glyph d="M500 0 67 0L155 720H562L553 643H225L196 410H473L464 333H187L155 77H500ZM359 970 423 970L530 816H458L385 896L292 816H214Z" glyph-name="Ecircumflex" horiz-adv-x="568" unicode="Ê" /><glyph d="M500 0 67 0L155 720H562L553 643H225L196 410H473L464 333H187L155 77H500ZM338 936 326 841H247L259 936ZM425 841 437 936H516L504 841Z" glyph-name="Edieresis" horiz-adv-x="568" unicode="Ë" /><glyph d="M500 0 67 0L155 720H562L553 643H225L196 410H473L464 333H187L155 77H500ZM322 989 434 816H363L263 933Z" glyph-name="Egrave" horiz-adv-x="568" unicode="È" /><glyph d="M236 729 146 0H67L155 718ZM223 816 148 816L301 989L352 933Z" glyph-name="Iacute" horiz-adv-x="273" unicode="Í" /><glyph d="M236 729 146 0H67L155 718ZM196 970 260 970L367 816H295L222 896L129 816H51Z" glyph-name="Icircumflex" horiz-adv-x="273" unicode="Î" /><glyph d="M236 729 146 0H67L155 718ZM176 936 164 841H85L97 936ZM263 841 275 936H354L342 841Z" glyph-name="Idieresis" horiz-adv-x="273" unicode="Ï" /><glyph d="M236 729 146 0H67L155 718ZM159 989 271 816H200L100 933Z" glyph-name="Igrave" horiz-adv-x="273" unicode="Ì" /><glyph d="M236 729 146 0H67L155 718ZM171 826 185 942H264L255 863Z" glyph-name="Idotaccent" horiz-adv-x="273" unicode="İ" /><glyph d="M215 589 143 0H67L155 720H236L504 131L576 717L653 728L564 0H483ZM443 917Q462 902 471 897.5Q480 893 488 893Q499 893 505.5 906Q512 919 516 948L582 939Q575 881 552 852Q529 823 490 823Q473 823 456 830.5Q439 838 411 860Q392 875 383 879.5Q374 884 366 884Q354 884 347.5 871.5Q341 859 338 833H271Q278 894 301 924Q324 954 364 954Q381 954 398 946.5Q415 939 443 917Z" glyph-name="Ntilde" horiz-adv-x="692" unicode="Ñ" /><glyph d="M74 292Q74 484 162 607Q250 730 403 730Q523 730 586 652.5Q649 575 649 428Q649 236 561 113Q473 -10 320 -10Q200 -10 137 67.5Q74 145 74 292ZM156 292Q156 175 197 121Q238 67 326 67Q440 67 503.5 165Q567 263 567 428Q567 545 526 599Q485 653 397 653Q283 653 219.5 555Q156 457 156 292ZM433 816 358 816L511 989L562 933Z" glyph-name="Oacute" horiz-adv-x="694" unicode="Ó" /><glyph d="M74 292Q74 484 162 607Q250 730 403 730Q523 730 586 652.5Q649 575 649 428Q649 236 561 113Q473 -10 320 -10Q200 -10 137 67.5Q74 145 74 292ZM156 292Q156 175 197 121Q238 67 326 67Q440 67 503.5 165Q567 263 567 428Q567 545 526 599Q485 653 397 653Q283 653 219.5 555Q156 457 156 292ZM406 970 470 970L577 816H505L432 896L339 816H261Z" glyph-name="Ocircumflex" horiz-adv-x="694" unicode="Ô" /><glyph d="M74 292Q74 484 162 607Q250 730 403 730Q523 730 586 652.5Q649 575 649 428Q649 236 561 113Q473 -10 320 -10Q200 -10 137 67.5Q74 145 74 292ZM156 292Q156 175 197 121Q238 67 326 67Q440 67 503.5 165Q567 263 567 428Q567 545 526 599Q485 653 397 653Q283 653 219.5 555Q156 457 156 292ZM385 936 373 841H294L306 936ZM472 841 484 936H563L551 841Z" glyph-name="Odieresis" horiz-adv-x="694" unicode="Ö" /><glyph d="M74 292Q74 484 162 607Q250 730 403 730Q523 730 586 652.5Q649 575 649 428Q649 236 561 113Q473 -10 320 -10Q200 -10 137 67.5Q74 145 74 292ZM156 292Q156 175 197 121Q238 67 326 67Q440 67 503.5 165Q567 263 567 428Q567 545 526 599Q485 653 397 653Q283 653 219.5 555Q156 457 156 292ZM369 989 481 816H410L310 933Z" glyph-name="Ograve" horiz-adv-x="694" unicode="Ò" /><glyph d="M647 729 591 277Q573 131 504 60.5Q435 -10 310 -10Q187 -10 130.5 68Q74 146 91 288L143 720H223L170 282Q156 169 191 118Q226 67 314 67Q403 67 450.5 118Q498 169 512 282L565 718ZM422 816 347 816L500 989L551 933Z" glyph-name="Uacute" horiz-adv-x="673" unicode="Ú" /><glyph d="M647 729 591 277Q573 131 504 60.5Q435 -10 310 -10Q187 -10 130.5 68Q74 146 91 288L143 720H223L170 282Q156 169 191 118Q226 67 314 67Q403 67 450.5 118Q498 169 512 282L565 718ZM395 970 459 970L566 816H494L421 896L328 816H250Z" glyph-name="Ucircumflex" horiz-adv-x="673" unicode="Û" /><glyph d="M647 729 591 277Q573 131 504 60.5Q435 -10 310 -10Q187 -10 130.5 68Q74 146 91 288L143 720H223L170 282Q156 169 191 118Q226 67 314 67Q403 67 450.5 118Q498 169 512 282L565 718ZM374 936 362 841H283L295 936ZM461 841 473 936H552L540 841Z" glyph-name="Udieresis" horiz-adv-x="673" unicode="Ü" /><glyph d="M647 729 591 277Q573 131 504 60.5Q435 -10 310 -10Q187 -10 130.5 68Q74 146 91 288L143 720H223L170 282Q156 169 191 118Q226 67 314 67Q403 67 450.5 118Q498 169 512 282L565 718ZM358 989 470 816H399L299 933Z" glyph-name="Ugrave" horiz-adv-x="673" unicode="Ù" /><glyph d="M647 729 591 277Q573 131 504 60.5Q435 -10 310 -10Q187 -10 130.5 68Q74 146 91 288L143 720H223L170 282Q156 169 191 118Q226 67 314 67Q403 67 450.5 118Q498 169 512 282L565 718ZM339 816 263 816L388 989L445 940ZM499 816 423 816L548 989L606 940Z" glyph-name="Uhungarumlaut" horiz-adv-x="673" unicode="Ű" /><glyph d="M489 498 442 112Q439 88 445 80.5Q451 73 472 73H504V0H468Q425 0 401.5 14Q378 28 371 58Q332 23 292.5 6.5Q253 -10 210 -10Q131 -10 90 44.5Q49 99 49 203Q49 339 107 423.5Q165 508 267 508Q310 508 344 492Q378 476 408 442L415 498ZM270 432Q202 432 164.5 370.5Q127 309 127 204Q127 132 150.5 99Q174 66 225 66Q260 66 296 80.5Q332 95 370 125L400 373Q370 402 337.5 417Q305 432 270 432ZM315 594 240 594L393 767L444 711Z" glyph-name="aacute" horiz-adv-x="554" unicode="á" /><glyph d="M489 498 442 112Q439 88 445 80.5Q451 73 472 73H504V0H468Q425 0 401.5 14Q378 28 371 58Q332 23 292.5 6.5Q253 -10 210 -10Q131 -10 90 44.5Q49 99 49 203Q49 339 107 423.5Q165 508 267 508Q310 508 344 492Q378 476 408 442L415 498ZM270 432Q202 432 164.5 370.5Q127 309 127 204Q127 132 150.5 99Q174 66 225 66Q260 66 296 80.5Q332 95 370 125L400 373Q370 402 337.5 417Q305 432 270 432ZM288 748 352 748L459 594H387L314 674L221 594H143Z" glyph-name="acircumflex" horiz-adv-x="554" unicode="â" /><glyph d="M489 498 442 112Q439 88 445 80.5Q451 73 472 73H504V0H468Q425 0 401.5 14Q378 28 371 58Q332 23 292.5 6.5Q253 -10 210 -10Q131 -10 90 44.5Q49 99 49 203Q49 339 107 423.5Q165 508 267 508Q310 508 344 492Q378 476 408 442L415 498ZM270 432Q202 432 164.5 370.5Q127 309 127 204Q127 132 150.5 99Q174 66 225 66Q260 66 296 80.5Q332 95 370 125L400 373Q370 402 337.5 417Q305 432 270 432ZM267 714 255 619H176L188 714ZM354 619 366 714H445L433 619Z" glyph-name="adieresis" horiz-adv-x="554" unicode="ä" /><glyph d="M489 498 442 112Q439 88 445 80.5Q451 73 472 73H504V0H468Q425 0 401.5 14Q378 28 371 58Q332 23 292.5 6.5Q253 -10 210 -10Q131 -10 90 44.5Q49 99 49 203Q49 339 107 423.5Q165 508 267 508Q310 508 344 492Q378 476 408 442L415 498ZM270 432Q202 432 164.5 370.5Q127 309 127 204Q127 132 150.5 99Q174 66 225 66Q260 66 296 80.5Q332 95 370 125L400 373Q370 402 337.5 417Q305 432 270 432ZM251 767 363 594H292L192 711Z" glyph-name="agrave" horiz-adv-x="554" unicode="à" /><glyph d="M158 -105 156 -54L181 -6Q115 8 81.5 61Q48 114 48 204Q48 346 109 427Q170 508 284 508Q329 508 367 495.5Q405 483 433 460L398 397Q373 415 343 424.5Q313 434 279 434Q204 434 165 374.5Q126 315 126 204Q126 130 151.5 97Q177 64 234 64Q270 64 305 74Q340 84 372 103L397 38Q365 15 324 3Q283 -9 236 -10L216 -48Q256 -51 276.5 -71Q297 -91 297 -127Q297 -171 268.5 -195.5Q240 -220 186 -220Q158 -220 134.5 -212.5Q111 -205 91 -190L115 -139Q131 -150 149.5 -155.5Q168 -161 188 -161Q211 -161 222.5 -153Q234 -145 234 -129Q234 -114 224 -107.5Q214 -101 192 -101Q184 -101 174.5 -102Q165 -103 158 -105Z" glyph-name="ccedilla" horiz-adv-x="448" unicode="ç" /><glyph d="M279 434Q204 434 165 374.5Q126 315 126 204Q126 130 151.5 97Q177 64 234 64Q270 64 305 74Q340 84 372 103L397 38Q363 14 320.5 2Q278 -10 229 -10Q139 -10 93.5 44.5Q48 99 48 204Q48 346 109 427Q170 508 284 508Q329 508 367 495.5Q405 483 433 460L398 397Q373 415 343 424.5Q313 434 279 434ZM302 594 227 594L380 767L431 711Z" glyph-name="cacute" horiz-adv-x="448" unicode="ć" /><glyph d="M453 249Q452 244 451 238Q450 232 449 221H125V205Q125 130 154.5 97Q184 64 250 64Q292 64 330.5 75.5Q369 87 404 109L432 44Q394 18 345 4Q296 -10 242 -10Q145 -10 96 44.5Q47 99 47 205Q47 339 109 423.5Q171 508 280 508Q367 508 411.5 457Q456 406 456 309Q456 295 455.5 280Q455 265 453 249ZM383 308Q383 373 356.5 404Q330 435 275 435Q218 435 181.5 397Q145 359 132 287H382Q383 291 383 295Q383 299 383 308ZM309 594 234 594L387 767L438 711Z" glyph-name="eacute" horiz-adv-x="503" unicode="é" /><glyph d="M453 249Q452 244 451 238Q450 232 449 221H125V205Q125 130 154.5 97Q184 64 250 64Q292 64 330.5 75.5Q369 87 404 109L432 44Q394 18 345 4Q296 -10 242 -10Q145 -10 96 44.5Q47 99 47 205Q47 339 109 423.5Q171 508 280 508Q367 508 411.5 457Q456 406 456 309Q456 295 455.5 280Q455 265 453 249ZM383 308Q383 373 356.5 404Q330 435 275 435Q218 435 181.5 397Q145 359 132 287H382Q383 291 383 295Q383 299 383 308ZM282 748 346 748L453 594H381L308 674L215 594H137Z" glyph-name="ecircumflex" horiz-adv-x="503" unicode="ê" /><glyph d="M453 249Q452 244 451 238Q450 232 449 221H125V205Q125 130 154.5 97Q184 64 250 64Q292 64 330.5 75.5Q369 87 404 109L432 44Q394 18 345 4Q296 -10 242 -10Q145 -10 96 44.5Q47 99 47 205Q47 339 109 423.5Q171 508 280 508Q367 508 411.5 457Q456 406 456 309Q456 295 455.5 280Q455 265 453 249ZM383 308Q383 373 356.5 404Q330 435 275 435Q218 435 181.5 397Q145 359 132 287H382Q383 291 383 295Q383 299 383 308ZM261 714 249 619H170L182 714ZM348 619 360 714H439L427 619Z" glyph-name="edieresis" horiz-adv-x="503" unicode="ë" /><glyph d="M453 249Q452 244 451 238Q450 232 449 221H125V205Q125 130 154.5 97Q184 64 250 64Q292 64 330.5 75.5Q369 87 404 109L432 44Q394 18 345 4Q296 -10 242 -10Q145 -10 96 44.5Q47 99 47 205Q47 339 109 423.5Q171 508 280 508Q367 508 411.5 457Q456 406 456 309Q456 295 455.5 280Q455 265 453 249ZM383 308Q383 373 356.5 404Q330 435 275 435Q218 435 181.5 397Q145 359 132 287H382Q383 291 383 295Q383 299 383 308ZM245 767 357 594H286L186 711Z" glyph-name="egrave" horiz-adv-x="503" unicode="è" /><glyph d="M49 0 111 507L184 497L123 0ZM173 594 98 594L251 767L302 711Z" glyph-name="iacute" horiz-adv-x="232" unicode="í" /><glyph d="M49 0 111 507L184 497L123 0ZM146 748 210 748L317 594H245L172 674L79 594H1Z" glyph-name="icircumflex" horiz-adv-x="232" unicode="î" /><glyph d="M49 0 111 507L184 497L123 0ZM125 714 113 619H34L46 714ZM212 619 224 714H303L291 619Z" glyph-name="idieresis" horiz-adv-x="232" unicode="ï" /><glyph d="M49 0 111 507L184 497L123 0ZM109 767 221 594H150L50 711Z" glyph-name="igrave" horiz-adv-x="232" unicode="ì" /><glyph d="M204 641 120 604L134 720H213ZM49 0 111 507L184 497L123 0Z" glyph-name="i.dot" horiz-adv-x="232" unicode="" /><glyph d="M49 0 110 498H183L177 446Q214 478 251.5 493Q289 508 330 508Q410 508 449 453.5Q488 399 476 302L439 0H366L404 308Q412 370 389.5 401Q367 432 315 432Q280 432 243 417Q206 402 169 373L123 0ZM336 695Q355 680 364 675.5Q373 671 381 671Q392 671 398.5 684Q405 697 409 726L475 717Q468 659 445 630Q422 601 383 601Q366 601 349 608.5Q332 616 304 638Q285 653 276 657.5Q267 662 259 662Q247 662 240.5 649.5Q234 637 231 611H164Q171 672 194 702Q217 732 257 732Q274 732 291 724.5Q308 717 336 695Z" glyph-name="ntilde" horiz-adv-x="544" unicode="ñ" /><glyph d="M476 291Q476 158 412 74Q348 -10 235 -10Q143 -10 95 45.5Q47 101 47 207Q47 340 111 424Q175 508 288 508Q380 508 428 452.5Q476 397 476 291ZM125 208Q125 133 152.5 98.5Q180 64 239 64Q315 64 356.5 124.5Q398 185 398 290Q398 365 370.5 399.5Q343 434 284 434Q208 434 166.5 373.5Q125 313 125 208ZM317 594 242 594L395 767L446 711Z" glyph-name="oacute" horiz-adv-x="522" unicode="ó" /><glyph d="M476 291Q476 158 412 74Q348 -10 235 -10Q143 -10 95 45.5Q47 101 47 207Q47 340 111 424Q175 508 288 508Q380 508 428 452.5Q476 397 476 291ZM125 208Q125 133 152.5 98.5Q180 64 239 64Q315 64 356.5 124.5Q398 185 398 290Q398 365 370.5 399.5Q343 434 284 434Q208 434 166.5 373.5Q125 313 125 208ZM290 748 354 748L461 594H389L316 674L223 594H145Z" glyph-name="ocircumflex" horiz-adv-x="522" unicode="ô" /><glyph d="M476 291Q476 158 412 74Q348 -10 235 -10Q143 -10 95 45.5Q47 101 47 207Q47 340 111 424Q175 508 288 508Q380 508 428 452.5Q476 397 476 291ZM125 208Q125 133 152.5 98.5Q180 64 239 64Q315 64 356.5 124.5Q398 185 398 290Q398 365 370.5 399.5Q343 434 284 434Q208 434 166.5 373.5Q125 313 125 208ZM269 714 257 619H178L190 714ZM356 619 368 714H447L435 619Z" glyph-name="odieresis" horiz-adv-x="522" unicode="ö" /><glyph d="M476 291Q476 158 412 74Q348 -10 235 -10Q143 -10 95 45.5Q47 101 47 207Q47 340 111 424Q175 508 288 508Q380 508 428 452.5Q476 397 476 291ZM125 208Q125 133 152.5 98.5Q180 64 239 64Q315 64 356.5 124.5Q398 185 398 290Q398 365 370.5 399.5Q343 434 284 434Q208 434 166.5 373.5Q125 313 125 208ZM253 767 365 594H294L194 711Z" glyph-name="ograve" horiz-adv-x="522" unicode="ò" /><glyph d="M209 -10Q131 -10 93 43.5Q55 97 67 191L105 498H178L139 185Q132 125 153 95.5Q174 66 224 66Q256 66 291.5 80.5Q327 95 365 124L411 498H485L424 0H351L358 52Q319 20 283 5Q247 -10 209 -10ZM319 594 244 594L397 767L448 711Z" glyph-name="uacute" horiz-adv-x="534" unicode="ú" /><glyph d="M209 -10Q131 -10 93 43.5Q55 97 67 191L105 498H178L139 185Q132 125 153 95.5Q174 66 224 66Q256 66 291.5 80.5Q327 95 365 124L411 498H485L424 0H351L358 52Q319 20 283 5Q247 -10 209 -10ZM292 748 356 748L463 594H391L318 674L225 594H147Z" glyph-name="ucircumflex" horiz-adv-x="534" unicode="û" /><glyph d="M209 -10Q131 -10 93 43.5Q55 97 67 191L105 498H178L139 185Q132 125 153 95.5Q174 66 224 66Q256 66 291.5 80.5Q327 95 365 124L411 498H485L424 0H351L358 52Q319 20 283 5Q247 -10 209 -10ZM271 714 259 619H180L192 714ZM358 619 370 714H449L437 619Z" glyph-name="udieresis" horiz-adv-x="534" unicode="ü" /><glyph d="M209 -10Q131 -10 93 43.5Q55 97 67 191L105 498H178L139 185Q132 125 153 95.5Q174 66 224 66Q256 66 291.5 80.5Q327 95 365 124L411 498H485L424 0H351L358 52Q319 20 283 5Q247 -10 209 -10ZM255 767 367 594H296L196 711Z" glyph-name="ugrave" horiz-adv-x="534" unicode="ù" /><glyph d="M209 -10Q131 -10 93 43.5Q55 97 67 191L105 498H178L139 185Q132 125 153 95.5Q174 66 224 66Q256 66 291.5 80.5Q327 95 365 124L411 498H485L424 0H351L358 52Q319 20 283 5Q247 -10 209 -10ZM236 594 160 594L285 767L342 718ZM396 594 320 594L445 767L503 718Z" glyph-name="uhungarumlaut" horiz-adv-x="534" unicode="ű" /><glyph d="M319 594 244 594L397 767L448 711Z" glyph-name="acute" horiz-adv-x="450" unicode="´" /><glyph d="M255 767 367 594H296L196 711Z" glyph-name="grave" horiz-adv-x="450" unicode="`" /><glyph d="M292 748 356 748L463 594H391L318 674L225 594H147Z" glyph-name="circumflex" horiz-adv-x="450" unicode="ˆ" /><glyph d="M271 714 259 619H180L192 714ZM358 619 370 714H449L437 619Z" glyph-name="dieresis" horiz-adv-x="450" unicode="¨" /><glyph d="M139 -105 137 -54L171 11H228L197 -48Q237 -51 257.5 -71Q278 -91 278 -127Q278 -171 249.5 -195.5Q221 -220 167 -220Q139 -220 115.5 -212.5Q92 -205 72 -190L96 -139Q112 -150 130.5 -155.5Q149 -161 169 -161Q192 -161 203.5 -153Q215 -145 215 -129Q215 -114 205 -107.5Q195 -101 173 -101Q165 -101 155.5 -102Q146 -103 139 -105Z" glyph-name="cedilla" horiz-adv-x="450" unicode="¸" /><glyph d="M236 594 160 594L285 767L342 718ZM396 594 320 594L445 767L503 718Z" glyph-name="hungarumlaut" horiz-adv-x="450" unicode="˝" /><glyph d="M171 826 185 942H264L255 863Z" glyph-name="dotaccent" horiz-adv-x="450" unicode="˙" /><glyph d="M336 695Q355 680 364 675.5Q373 671 381 671Q392 671 398.5 684Q405 697 409 726L475 717Q468 659 445 630Q422 601 383 601Q366 601 349 608.5Q332 616 304 638Q285 653 276 657.5Q267 662 259 662Q247 662 240.5 649.5Q234 637 231 611H164Q171 672 194 702Q217 732 257 732Q274 732 291 724.5Q308 717 336 695Z" glyph-name="tilde" horiz-adv-x="450" unicode="˜" /><glyph d="M44 0 55 93L140 103L127 0Z" glyph-name="period" horiz-adv-x="232" unicode="." /><glyph d="M-12 -171 29 -82Q37 -64 42 -48Q47 -32 49 -18L61 85H131L120 -8Q116 -37 110 -56.5Q104 -76 83 -124L47 -205Z" glyph-name="comma" horiz-adv-x="232" unicode="," /><glyph d="M173 379 92 389L103 483H186ZM44 0 55 93L140 103L127 0Z" glyph-name="colon" horiz-adv-x="232" unicode=":" /><glyph d="M173 379 92 389L103 483H186ZM-12 -171 29 -82Q37 -64 42 -48Q47 -32 49 -18L61 85H131L120 -8Q116 -37 110 -56.5Q104 -76 83 -124L47 -205Z" glyph-name="semicolon" horiz-adv-x="232" unicode=";" /><glyph d="M542 0 553 93L638 103L625 0ZM542 0 553 93L638 103L625 0ZM542 0 553 93L638 103L625 0Z" glyph-name="ellipsis" horiz-adv-x="730" unicode="…" /><glyph d="M257 303 236 197H182L191 369Q292 369 342.5 411Q393 453 393 539Q393 598 364 625.5Q335 653 274 653Q232 653 189.5 640.5Q147 628 103 603L73 669Q121 699 173.5 714.5Q226 730 279 730Q375 730 424 682.5Q473 635 473 543Q473 442 417 379Q361 316 257 303ZM143 0 154 93L239 103L226 0Z" glyph-name="question" horiz-adv-x="483" unicode="?" /><glyph d="M147 197 93 197L141 719L228 730ZM55 0 66 93L151 103L138 0Z" glyph-name="exclam" horiz-adv-x="253" unicode="!" /><glyph d="M340 498 329 405L244 395L257 498ZM226 195 247 301H301L292 129Q191 129 140.5 87Q90 45 90 -41Q90 -100 119 -127.5Q148 -155 209 -155Q251 -155 293.5 -142.5Q336 -130 380 -105L410 -171Q362 -201 309.5 -216.5Q257 -232 204 -232Q108 -232 59 -184.5Q10 -137 10 -45Q10 56 66 119Q122 182 226 195Z" glyph-name="questiondown" horiz-adv-x="483" unicode="¿" /><glyph d="M199 498 188 405L103 395L116 498ZM106 301 161 301L113 -221L27 -232Z" glyph-name="exclamdown" horiz-adv-x="253" unicode="¡" /><glyph d="M76 224Q76 376 131.5 511Q187 646 296 758L345 697Q250 593 204.5 477.5Q159 362 159 224Q159 132 179.5 58.5Q200 -15 246 -87L186 -138Q131 -63 103.5 27.5Q76 118 76 224Z" glyph-name="parenleft" horiz-adv-x="321" unicode="(" /><glyph d="M261 396Q261 244 205.5 109Q150 -26 41 -138L-8 -77Q87 27 132.5 142.5Q178 258 178 396Q178 488 157.5 561.5Q137 635 91 707L151 758Q206 683 233.5 592.5Q261 502 261 396Z" glyph-name="parenright" horiz-adv-x="321" unicode=")" /><glyph d="M45 272 55 350H94Q128 350 143 370Q158 390 158 437V553Q158 653 193 695.5Q228 738 323 750L369 756L359 677L313 671Q268 664 252 641Q236 618 236 553V437Q236 387 220.5 354.5Q205 322 174 307Q201 293 208.5 262.5Q216 232 205 186L177 70Q160 -2 170.5 -22Q181 -42 225 -48L269 -54L260 -133L215 -127Q128 -116 101 -69.5Q74 -23 97 70L126 186Q137 233 127 252.5Q117 272 84 272Z" glyph-name="braceleft" horiz-adv-x="341" unicode="{" /><glyph d="M313 351 303 273H264Q230 273 215 253Q200 233 200 186V70Q200 -30 165 -72.5Q130 -115 35 -127L-11 -133L-1 -54L45 -48Q90 -41 106 -18Q122 5 122 70V186Q122 236 137.5 268.5Q153 301 184 316Q157 330 149.5 360.5Q142 391 153 437L181 553Q198 625 187.5 645Q177 665 133 671L89 677L98 756L143 750Q230 739 257 692.5Q284 646 261 553L232 437Q221 390 231 370.5Q241 351 274 351Z" glyph-name="braceright" horiz-adv-x="341" unicode="}" /><glyph d="M267 -128 55 -128L163 750H363L353 673H233L144 -51H267Z" glyph-name="bracketleft" horiz-adv-x="336" unicode="[" /><glyph d="M85 750 296 750L188 -128H-11L-1 -51H119L208 673H85Z" glyph-name="bracketright" horiz-adv-x="336" unicode="]" /><glyph d="M17 -128 -67 -128L369 750H454Z" glyph-name="slash" horiz-adv-x="407" unicode="/" /><glyph d="M156 750 383 -128H304L77 750Z" glyph-name="backslash" horiz-adv-x="407" unicode="\" /><glyph d="M-14 -146 -5 -73H400V-146Z" glyph-name="underscore" horiz-adv-x="482" unicode="_" /><glyph d="M66 283 75 356H299V283Z" glyph-name="hyphen" horiz-adv-x="355" unicode="-" /><glyph d="" glyph-name="uni00AD" horiz-adv-x="0" unicode="­" /><glyph d="M66 283 75 356H393V283Z" glyph-name="endash" horiz-adv-x="450" unicode="–" /><glyph d="M66 283 75 356H843V283Z" glyph-name="emdash" horiz-adv-x="900" unicode="—" /><glyph d="M230 759 185 392H106L150 748ZM121 -128 42 -128L88 241H167Z" glyph-name="brokenbar" horiz-adv-x="255" unicode="¦" /><glyph d="M130 -128 51 -128L159 748L239 759Z" glyph-name="bar" horiz-adv-x="273" unicode="|" /><glyph d="M122 270 269 133L258 44L47 243L54 305L305 497L314 416ZM397 270 544 133L533 44L322 243L329 305L580 497L589 416Z" glyph-name="guillemotleft" horiz-adv-x="617" unicode="«" /><glyph d="M576 297 569 235L318 43L309 124L501 270L354 407L365 496ZM301 297 294 235L43 43L34 124L226 270L79 407L90 496Z" glyph-name="guillemotright" horiz-adv-x="617" unicode="»" /><glyph d="M122 270 269 133L258 44L47 243L54 305L305 497L314 416Z" glyph-name="guilsinglleft" horiz-adv-x="342" unicode="‹" /><glyph d="M301 298 294 236L43 44L34 125L226 271L79 408L90 497Z" glyph-name="guilsinglright" horiz-adv-x="342" unicode="›" /><glyph d="M59 -172 -5 -159L67 85H140Z" glyph-name="quotesinglbase" horiz-adv-x="240" unicode="‚" /><glyph d="M59 -172 -5 -159L67 85H140ZM230 -172 166 -159L237 85H310Z" glyph-name="quotedblbase" horiz-adv-x="410" unicode="„" /><glyph d="M171 730 234 717L163 472H91Z" glyph-name="quoteleft" horiz-adv-x="240" unicode="‘" /><glyph d="M342 730 406 717L334 472H262ZM171 730 234 717L163 472H91Z" glyph-name="quotedblleft" horiz-adv-x="411" unicode="“" /><glyph d="M155 462 91 475L162 720H234Z" glyph-name="quoteright" horiz-adv-x="240" unicode="’" /><glyph d="M155 462 91 475L162 720H234ZM326 462 262 475L333 720H406Z" glyph-name="quotedblright" horiz-adv-x="411" unicode="”" /><glyph d="M140 720 222 720L184 472H119Z" glyph-name="quotesingle" horiz-adv-x="249" unicode="'" /><glyph d="M140 720 222 720L184 472H119ZM314 720 396 720L358 472H292Z" glyph-name="quotedbl" horiz-adv-x="423" unicode="&quot;" /><glyph d="M272 341Q272 293 249 269.5Q226 246 179 246Q132 246 108.5 269.5Q85 293 85 341Q85 389 108 413Q131 437 179 437Q226 437 249 413Q272 389 272 341Z" glyph-name="bullet" horiz-adv-x="334" unicode="•" /><glyph d="M340 648Q284 648 255 621Q226 594 226 543Q226 512 237.5 485Q249 458 274 430L470 213Q487 244 503.5 282Q520 320 539 371L551 404L630 395L616 355Q594 291 571 241Q548 191 524 153L619 48L562 -10L475 86Q430 37 375.5 13.5Q321 -10 253 -10Q154 -10 98 38.5Q42 87 42 174Q42 242 78.5 298Q115 354 191 401Q164 437 150.5 472.5Q137 508 137 547Q137 631 190 680.5Q243 730 339 730Q388 730 431.5 715.5Q475 701 518 670L477 601Q444 625 410.5 636.5Q377 648 340 648ZM130 178Q130 123 162.5 95Q195 67 258 67Q308 67 348.5 86Q389 105 422 144L240 345Q184 311 157 269.5Q130 228 130 178Z" glyph-name="ampersand" horiz-adv-x="677" unicode="&amp;" /><glyph d="M433 473 65 473L75 550H219L239 718L321 729L299 550H443ZM202 -128 147 -128L197 378L279 389Z" glyph-name="dagger" horiz-adv-x="442" unicode="†" /><glyph d="M447 473 80 473L90 550H234L254 718L335 729L313 550H457ZM426 302 59 302L69 379H436ZM216 -128 162 -128L191 203L271 214Z" glyph-name="daggerdbl" horiz-adv-x="471" unicode="‡" /><glyph d="M113 376 141 407Q166 432 174 439Q182 446 191 453L247 500L178 521Q165 525 151.5 530Q138 535 115 546L76 564L106 630L147 612Q148 611 169.5 600Q191 589 205 579L267 540L266 613Q266 633 267 649Q268 665 270 680L275 723L347 714L342 671Q341 657 338 641.5Q335 626 330 605L312 535L380 558Q403 566 417.5 569.5Q432 573 445 575L487 583L501 511L460 503Q447 500 432.5 498Q418 496 392 494L320 490L363 432Q372 420 380.5 407Q389 394 400 375L419 338L356 303L336 340Q324 360 317.5 373.5Q311 387 306 401L280 469L237 409Q227 395 217 382.5Q207 370 196 358L167 326Z" glyph-name="asterisk" horiz-adv-x="505" unicode="*" /><glyph d="M247 656 210 360H148L185 656H84L91 720H355L340 656ZM594 450 545 450L482 612L451 360H390L434 720H497L575 520L702 720H765L721 360H660L690 602Z" glyph-name="trademark" horiz-adv-x="771" unicode="™" /><glyph d="M766 540Q766 378 677.5 289Q589 200 433 200Q276 200 187.5 289.5Q99 379 99 540Q99 701 187.5 789.5Q276 878 433 878Q590 878 678 789.5Q766 701 766 540ZM153 540Q153 401 226 326.5Q299 252 433 252Q566 252 639 326.5Q712 401 712 540Q712 678 639 752Q566 826 433 826Q300 826 226.5 752Q153 678 153 540ZM373 491 373 360H305V720H442Q505 720 538.5 690Q572 660 572 605Q572 564 553 537Q534 510 497 498L586 360H508L426 491ZM502 605Q502 634 487.5 647Q473 660 442 660H373V550H442Q473 550 487.5 563Q502 576 502 605Z" glyph-name="registered" horiz-adv-x="794" unicode="®" /><glyph d="M877 360Q877 169 772.5 64.5Q668 -40 482 -40Q295 -40 190 65Q85 170 85 360Q85 549 190.5 654Q296 759 482 759Q668 759 772.5 654.5Q877 550 877 360ZM149 360Q149 195 236.5 106Q324 17 482 17Q640 17 726.5 106Q813 195 813 360Q813 525 726.5 613.5Q640 702 482 702Q323 702 236 613.5Q149 525 149 360ZM484 524Q414 524 382 485.5Q350 447 350 360Q350 271 382 233Q414 195 484 195Q519 195 552.5 204Q586 213 617 231L650 165Q615 142 571 130Q527 118 481 118Q375 118 320.5 179.5Q266 241 266 360Q266 479 320.5 540Q375 601 481 601Q525 601 566.5 589.5Q608 578 641 557L608 489Q579 506 548 515Q517 524 484 524Z" glyph-name="copyright" horiz-adv-x="932" unicode="©" /><glyph d="M929 327Q929 176 871 88Q813 0 713 0Q672 0 644 19.5Q616 39 604 75Q562 36 521.5 18Q481 0 434 0Q360 0 320.5 52Q281 104 281 200Q281 327 336.5 408.5Q392 490 488 490Q532 490 567 472.5Q602 455 633 417L641 480H713L671 142Q666 106 680 87.5Q694 69 726 69Q788 69 825.5 136.5Q863 204 863 326Q863 493 780 579.5Q697 666 537 666Q347 666 237 541.5Q127 417 127 202Q127 24 210 -66Q293 -156 455 -156Q501 -156 548 -148.5Q595 -141 642 -126L655 -189Q608 -204 557 -212Q506 -220 453 -220Q263 -220 161 -112Q59 -4 59 200Q59 437 191 583.5Q323 730 540 730Q726 730 827.5 625.5Q929 521 929 327ZM498 415Q432 415 395.5 358Q359 301 359 202Q359 138 383.5 106.5Q408 75 457 75Q490 75 525 90Q560 105 598 136Q598 138 598.5 140Q599 142 599 143L624 353Q593 384 562 399.5Q531 415 498 415Z" glyph-name="at" horiz-adv-x="981" unicode="@" /><glyph d="M380 168Q407 147 420 116Q433 85 433 45Q433 -39 378.5 -83.5Q324 -128 219 -128Q164 -128 117 -115Q70 -102 27 -75L58 -9Q97 -32 137 -43Q177 -54 224 -54Q293 -54 325.5 -31Q358 -8 358 42Q358 81 337 103Q316 125 269 136L217 148Q139 166 103.5 202Q68 238 68 300Q68 350 92.5 384.5Q117 419 164 437Q137 458 123 489Q109 520 109 559Q109 640 162 685Q215 730 313 730Q365 730 410.5 717Q456 704 494 679L463 612Q427 634 389.5 645Q352 656 308 656Q245 656 214 633.5Q183 611 183 564Q183 526 205 504Q227 482 277 470L327 458Q401 440 437.5 401Q474 362 474 301Q474 255 450 221Q426 187 380 168ZM142 305Q142 271 165 251.5Q188 232 245 219L292 208Q345 213 372 236Q399 259 399 298Q399 333 376 354Q353 375 301 387L263 396Q202 394 172 371.5Q142 349 142 305Z" glyph-name="section" horiz-adv-x="528" unicode="§" /><glyph d="M146 0 64 0L139 199H34L44 277H168L237 460H127L137 538H266L334 720H416L348 538H545L613 720H695L627 538H730L720 460H598L529 277H637L627 199H500L425 0H343L418 199H221ZM319 460 250 277H447L516 460Z" glyph-name="numbersign" horiz-adv-x="734" unicode="#" /><glyph d="M222 589 150 0H74L162 720H243L511 131L583 717L660 728L571 0H490ZM1121 544Q1121 460 1068 409.5Q1015 359 930 359Q846 359 793 409.5Q740 460 740 544Q740 629 792.5 679.5Q845 730 930 730Q1016 730 1068.5 680Q1121 630 1121 544ZM816 544Q816 490 846.5 460Q877 430 930 430Q984 430 1014.5 459.5Q1045 489 1045 544Q1045 600 1015 629.5Q985 659 930 659Q876 659 846 629Q816 599 816 544Z" glyph-name="uni2116" horiz-adv-x="1081" unicode="№" /><glyph d="M228 308 472 308L453 229H230Q239 145 277.5 107Q316 69 390 69Q438 69 483.5 82Q529 95 571 120L599 50Q554 21 499 5.5Q444 -10 385 -10Q278 -10 218 50.5Q158 111 147 229H50L60 308H145Q146 333 148.5 359.5Q151 386 156 414H73L83 493H174Q211 609 285.5 669.5Q360 730 468 730Q521 730 568.5 714.5Q616 699 656 669L619 603Q585 627 546 639Q507 651 464 651Q390 651 338.5 611Q287 571 259 493H515L497 414H239Q234 387 231.5 360.5Q229 334 228 308Z" glyph-name="Euro" horiz-adv-x="661" unicode="€" /><glyph d="M298 -9 284 -128H205L220 -7Q171 -1 126.5 15.5Q82 32 34 62L72 134Q129 98 176 83.5Q223 69 276 69Q355 69 396 101Q437 133 437 195Q437 242 413 269Q389 296 330 313L257 334Q174 358 134.5 405Q95 452 95 528Q95 619 151 671.5Q207 724 310 729L324 842L405 853L389 726Q434 720 474 704.5Q514 689 553 661L515 589Q472 621 427 636Q382 651 329 651Q253 651 214.5 621Q176 591 176 532Q176 486 202.5 458.5Q229 431 291 414L364 394Q442 373 479.5 324.5Q517 276 517 197Q517 106 460 51.5Q403 -3 298 -9Z" glyph-name="dollar" horiz-adv-x="576" unicode="$" /><glyph d="M340 163 320 0H240L260 163H73L83 242H269L272 265L246 332H94L103 411H214L92 720H178L320 350L555 720H644L447 411H557L548 332H396L352 262L349 242H537L527 163Z" glyph-name="yen" horiz-adv-x="621" unicode="¥" /><glyph d="M496 0 26 0L36 79H132Q155 118 166.5 157Q178 196 178 236Q178 251 176.5 265.5Q175 280 172 294H62L72 373H153Q141 415 136.5 443.5Q132 472 132 499Q132 606 192 668Q252 730 361 730Q416 730 464.5 713.5Q513 697 555 664L518 597Q483 624 443.5 637.5Q404 651 360 651Q287 651 249 612.5Q211 574 211 501Q211 481 214 458.5Q217 436 232 373H446L436 294H249Q251 273 252 260.5Q253 248 253 238Q253 194 242 155.5Q231 117 207 79H496Z" glyph-name="sterling" horiz-adv-x="565" unicode="£" /><glyph d="M277 101 262 -16H184L199 104Q132 117 98 170Q64 223 64 314Q64 443 115.5 522.5Q167 602 262 615L276 729L355 740L340 615Q373 611 400.5 599.5Q428 588 449 570L414 507Q389 525 359 534.5Q329 544 295 544Q220 544 181 484.5Q142 425 142 314Q142 240 167.5 207Q193 174 250 174Q286 174 321 184Q356 194 388 213L413 148Q386 129 352 117Q318 105 277 101Z" glyph-name="cent" horiz-adv-x="462" unicode="¢" /><glyph d="M208 188 119 98L64 153L153 242Q137 266 128.5 296Q120 326 120 360Q120 394 128 424Q136 454 152 478L64 567L119 622L207 533Q233 549 264 557.5Q295 566 330 566Q365 566 396.5 557.5Q428 549 454 533L543 622L598 567L509 478Q525 454 533 424Q541 394 541 360Q541 326 533 296.5Q525 267 509 242L598 153L543 98L453 188Q428 172 396.5 163.5Q365 155 330 155Q296 155 265 163.5Q234 172 208 188ZM200 360Q200 297 234.5 262Q269 227 330 227Q391 227 426 262Q461 297 461 360Q461 424 426.5 458Q392 492 330 492Q269 492 234.5 457.5Q200 423 200 360Z" glyph-name="currency" horiz-adv-x="633" unicode="¤" /><glyph d="M593 443Q593 238 514 114Q435 -10 294 -10Q186 -10 130.5 63Q75 136 75 277Q75 482 154 606Q233 730 374 730Q482 730 537.5 657Q593 584 593 443ZM157 277Q157 166 190.5 116Q224 66 298 66Q398 66 454.5 169.5Q511 273 511 443Q511 554 477.5 604Q444 654 370 654Q270 654 213.5 550.5Q157 447 157 277Z" glyph-name="zero" horiz-adv-x="641" unicode="0" /><glyph d="M386 0 31 0L41 77H183L251 624L112 565L92 640L282 721H342L262 77H396Z" glyph-name="one" horiz-adv-x="451" unicode="1" /><glyph d="M447 0 19 0L27 60L276 313Q347 385 378.5 438.5Q410 492 410 545Q410 598 383 624.5Q356 651 301 651Q259 651 212.5 635.5Q166 620 119 591L89 658Q144 694 197.5 712Q251 730 304 730Q392 730 441 681.5Q490 633 490 548Q490 478 451.5 410.5Q413 343 321 252L144 77H447Z" glyph-name="two" horiz-adv-x="525" unicode="2" /><glyph d="M114 720 517 720L510 660L272 435Q374 434 425.5 385.5Q477 337 477 241Q477 125 410 57.5Q343 -10 225 -10Q168 -10 118.5 7Q69 24 23 59L60 128Q102 97 144 82Q186 67 229 67Q308 67 353 114.5Q398 162 398 241Q398 302 363.5 332Q329 362 260 362Q235 362 212.5 360Q190 358 166 353L154 413L396 643H105Z" glyph-name="three" horiz-adv-x="536" unicode="3" /><glyph d="M379 161 31 161L38 221L325 720H411L134 238H388L413 440H492L438 0H359Z" glyph-name="four" horiz-adv-x="540" unicode="4" /><glyph d="M124 338 91 375L157 720H517L508 643H211L170 427Q196 436 225 440Q254 444 285 444Q390 444 442.5 393.5Q495 343 495 242Q495 122 430 56Q365 -10 245 -10Q186 -10 135 6.5Q84 23 38 57L75 126Q116 97 159.5 82Q203 67 248 67Q329 67 373 112.5Q417 158 417 241Q417 305 381 336Q345 367 271 367Q234 367 196 359.5Q158 352 124 338Z" glyph-name="five" horiz-adv-x="552" unicode="5" /><glyph d="M535 249Q535 132 469 61Q403 -10 289 -10Q182 -10 127 63Q72 136 72 275Q72 483 156 606.5Q240 730 393 730Q438 730 480 719.5Q522 709 558 689L526 619Q495 636 459.5 644.5Q424 653 388 653Q294 653 235.5 582.5Q177 512 159 378Q202 414 248 432Q294 450 345 450Q435 450 485 396.5Q535 343 535 249ZM153 301 153 275Q153 168 187 117.5Q221 67 294 67Q368 67 410.5 115.5Q453 164 453 245Q453 308 423 340.5Q393 373 334 373Q289 373 243 354.5Q197 336 153 301Z" glyph-name="six" horiz-adv-x="592" unicode="6" /><glyph d="M249 69 241 0H162L170 69Q182 164 205 227Q228 290 297 409L433 643H83L92 720H536L529 660L349 351Q297 262 278 206Q259 150 249 69Z" glyph-name="seven" horiz-adv-x="516" unicode="7" /><glyph d="M534 223Q534 121 463.5 55.5Q393 -10 274 -10Q168 -10 111.5 39Q55 88 55 178Q55 246 92.5 299.5Q130 353 196 377Q159 398 139.5 433Q120 468 120 513Q120 610 183 670Q246 730 355 730Q446 730 498 682Q550 634 550 551Q550 491 520.5 444Q491 397 438 373Q485 351 509.5 313Q534 275 534 223ZM200 513Q200 460 230 434Q260 408 320 408Q393 408 431.5 445.5Q470 483 470 551Q470 604 440 630Q410 656 350 656Q277 656 238.5 618.5Q200 581 200 513ZM135 178Q135 121 170.5 92.5Q206 64 278 64Q362 64 408 106Q454 148 454 223Q454 280 418.5 308.5Q383 337 311 337Q227 337 181 295Q135 253 135 178Z" glyph-name="eight" horiz-adv-x="601" unicode="8" /><glyph d="M84 471Q84 588 150 659Q216 730 330 730Q437 730 492 657Q547 584 547 445Q547 237 463 113.5Q379 -10 226 -10Q181 -10 139 0.5Q97 11 61 31L93 101Q124 84 159.5 75.5Q195 67 231 67Q325 67 383.5 137.5Q442 208 460 342Q417 306 371 288Q325 270 274 270Q184 270 134 323.5Q84 377 84 471ZM325 653Q251 653 208.5 604.5Q166 556 166 475Q166 412 196 379.5Q226 347 285 347Q330 347 376 365.5Q422 384 466 419V445Q466 552 432 602.5Q398 653 325 653Z" glyph-name="nine" horiz-adv-x="592" unicode="9" /><glyph d="M1121 544Q1121 460 1068 409.5Q1015 359 930 359Q846 359 793 409.5Q740 460 740 544Q740 629 792.5 679.5Q845 730 930 730Q1016 730 1068.5 680Q1121 630 1121 544ZM816 544Q816 490 846.5 460Q877 430 930 430Q984 430 1014.5 459.5Q1045 489 1045 544Q1045 600 1015 629.5Q985 659 930 659Q876 659 846 629Q816 599 816 544Z" glyph-name="degree" horiz-adv-x="487" unicode="°" /><glyph d="M93 538Q93 620 141 674.5Q189 729 268 729Q335 729 372.5 688Q410 647 410 577Q410 494 362.5 439.5Q315 385 235 385Q168 385 130.5 426Q93 467 93 538ZM240 0 162 0L634 720H712ZM159 538Q159 495 179 472.5Q199 450 238 450Q287 450 315 485Q343 520 343 576Q343 620 323 642.5Q303 665 264 665Q215 665 187 630Q159 595 159 538ZM458 142Q458 224 506 278.5Q554 333 633 333Q700 333 737.5 292Q775 251 775 181Q775 98 727.5 44Q680 -10 600 -10Q533 -10 495.5 31Q458 72 458 142ZM524 142Q524 99 544 76.5Q564 54 603 54Q652 54 680.5 89Q709 124 709 180Q709 223 689 246Q669 269 630 269Q581 269 552.5 234Q524 199 524 142Z" glyph-name="percent" horiz-adv-x="840" unicode="%" /><glyph d="M48 0 -30 0L442 720H520Z" glyph-name="fraction" horiz-adv-x="462" unicode="⁄" /><glyph d="M83 507Q83 603 126.5 666Q170 729 245 729Q307 729 338 692Q369 655 369 581Q369 485 325.5 422Q282 359 207 359Q145 359 114 396Q83 433 83 507ZM151 505Q151 461 165.5 441.5Q180 422 211 422Q253 422 277 467Q301 512 301 583Q301 627 286.5 646.5Q272 666 241 666Q199 666 175 621Q151 576 151 505Z" glyph-name="zero.numerator" horiz-adv-x="378" unicode="" /><glyph d="M265 364 69 364L77 429H145L171 647L115 622L96 682L192 725H246L210 429H273Z" glyph-name="one.numerator" horiz-adv-x="290" unicode="" /><glyph d="M285 364 62 364L68 418L178 524Q210 555 225 579Q240 603 240 626Q240 646 229 655.5Q218 665 195 665Q177 665 158 658.5Q139 652 117 638L94 693Q121 711 148.5 720Q176 729 204 729Q253 729 280 702.5Q307 676 307 629Q307 591 287.5 557.5Q268 524 223 483L162 427H286Z" glyph-name="two.numerator" horiz-adv-x="321" unicode="" /><glyph d="M112 724 323 724L316 668L221 584Q262 577 283.5 552Q305 527 305 486Q305 428 270 393.5Q235 359 172 359Q142 359 114.5 367.5Q87 376 64 393L90 449Q110 435 131 428.5Q152 422 173 422Q206 422 223.5 438Q241 454 241 485Q241 508 226.5 518.5Q212 529 182 529Q172 529 162 528Q152 527 141 524L130 572L229 660H104Z" glyph-name="three.numerator" horiz-adv-x="324" unicode="" /><glyph d="M228 435 64 435L71 490L204 721H274L144 498H236L246 579H307L281 364H220Z" glyph-name="four.numerator" horiz-adv-x="320" unicode="" /><glyph d="M265 364 69 364L77 429H145L171 647L115 622L96 682L192 725H246L210 429H273ZM198 0 120 0L592 720H670ZM725 0 502 0L508 54L618 160Q650 191 665 215Q680 239 680 262Q680 282 669 291.5Q658 301 635 301Q617 301 598 294.5Q579 288 557 274L534 329Q561 347 588.5 356Q616 365 644 365Q693 365 720 338.5Q747 312 747 265Q747 227 727.5 193.5Q708 160 663 119L602 63H726Z" glyph-name="onehalf" horiz-adv-x="802" unicode="½" /><glyph d="M265 364 69 364L77 429H145L171 647L115 622L96 682L192 725H246L210 429H273ZM198 0 120 0L592 720H670ZM550 360 761 360L754 304L659 220Q700 213 721.5 188Q743 163 743 122Q743 64 708 29.5Q673 -5 610 -5Q580 -5 552.5 3.5Q525 12 502 29L528 85Q548 71 569 64.5Q590 58 611 58Q644 58 661.5 74Q679 90 679 121Q679 144 664.5 154.5Q650 165 620 165Q610 165 600 164Q590 163 579 160L568 208L667 296H542Z" glyph-name="onethird" horiz-adv-x="804" unicode="⅓" /><glyph d="M265 364 69 364L77 429H145L171 647L115 622L96 682L192 725H246L210 429H273ZM198 0 120 0L592 720H670ZM655 71 491 71L498 126L631 357H701L571 134H663L673 215H734L708 0H647Z" glyph-name="onequarter" horiz-adv-x="790" unicode="¼" /><glyph d="M298 105 233 105L256 292H88L97 365H265L288 551H353L330 365H491V292H321Z" glyph-name="plus" horiz-adv-x="567" unicode="+" /><glyph d="M89 292 98 365H491V292Z" glyph-name="minus" horiz-adv-x="567" unicode="−" /><glyph d="M144 134 101 187L246 330L136 470L186 519L297 380L441 522L485 470L339 326L450 187L399 137L289 277Z" glyph-name="multiply" horiz-adv-x="567" unicode="×" /><glyph d="M270 460 282 554L363 564L350 460ZM89 292 98 365H491V292ZM318 198 307 104L226 94L238 198Z" glyph-name="divide" horiz-adv-x="567" unicode="÷" /><glyph d="M103 416 112 490H505V416ZM73 167 81 240H483L475 167Z" glyph-name="equal" horiz-adv-x="567" unicode="=" /><glyph d="M78 292 87 365H489L457 105H391L414 292Z" glyph-name="logicalnot" horiz-adv-x="567" unicode="¬" /><glyph d="M388 259Q365 259 341.5 267Q318 275 278 300Q247 320 231.5 326Q216 332 202 332Q179 332 165.5 316Q152 300 148 269H80Q87 336 117.5 370Q148 404 201 404Q224 404 247 396Q270 388 310 363Q342 343 358.5 337Q375 331 389 331Q412 331 424.5 347.5Q437 364 441 398L508 389Q502 326 471 292.5Q440 259 388 259Z" glyph-name="asciitilde" horiz-adv-x="567" unicode="~" /><glyph d="M175 326 466 175L457 98L80 298L87 360L508 557L507 480Z" glyph-name="less" horiz-adv-x="567" unicode="&lt;" /><glyph d="M506 359 499 297L78 100L79 177L411 331L120 482L129 559Z" glyph-name="greater" horiz-adv-x="567" unicode="&gt;" /><glyph d="M303 137 238 137L261 324H93L102 397H270L293 583H358L335 397H495V324H326ZM53 0 62 73H454V0Z" glyph-name="plusminus" horiz-adv-x="567" unicode="±" /><glyph d="M495 283 426 283L332 627L153 283H80L314 729H370Z" glyph-name="asciicircum" horiz-adv-x="567" unicode="^" /><glyph d="M171 39 95 39L166 167H74L82 240H207L305 416H104L113 490H347L418 618H494L423 490H506V416H381L283 240H484L476 167H242Z" glyph-name="notequal" horiz-adv-x="567" unicode="≠" /><glyph d="M403 384Q380 384 356.5 392Q333 400 293 425Q262 445 246.5 451Q231 457 217 457Q194 457 180.5 441Q167 425 163 394H95Q102 461 132.5 495Q163 529 216 529Q239 529 262 521Q285 513 325 488Q357 468 373.5 462Q390 456 404 456Q427 456 439.5 472.5Q452 489 456 523L523 514Q517 451 486 417.5Q455 384 403 384ZM372 135Q349 135 325.5 143Q302 151 262 176Q231 196 215.5 202Q200 208 186 208Q163 208 149.5 192Q136 176 132 145H64Q71 212 101.5 246Q132 280 185 280Q208 280 231 272Q254 264 294 239Q326 219 342.5 213Q359 207 373 207Q396 207 408.5 223.5Q421 240 425 274L492 265Q486 202 455 168.5Q424 135 372 135Z" glyph-name="approxequal" horiz-adv-x="567" unicode="≈" /><glyph d="M198 435 486 301L476 220L83 408L90 464L524 658L525 577ZM57 188 67 264L460 76L450 0Z" glyph-name="lessequal" horiz-adv-x="567" unicode="≤" /><glyph d="M531 464 524 408L85 220L95 307L416 441L129 581L139 659ZM68 83 507 271L497 188L58 0Z" glyph-name="greaterequal" horiz-adv-x="567" unicode="≥" /><glyph d="M672 279 672 272H176Q174 272 173 271Q172 270 172 269V110Q172 105 173.5 100Q175 95 179 91Q216 50 264 28Q312 6 365 6Q422 6 473 30.5Q524 55 562 101H606Q563 48 499 18.5Q435 -11 363 -11Q236 -11 147.5 73.5Q59 158 60 279Q61 401 151.5 487Q242 573 369 573Q495 573 583.5 487.5Q672 402 672 279ZM560 292 560 452Q560 460 558.5 464.5Q557 469 554 472Q517 512 469.5 533.5Q422 555 369 555Q317 555 268.5 532.5Q220 510 182 469Q176 461 174 457Q172 453 172 449V292Q172 291 173.5 289.5Q175 288 176 288H557Q558 288 559 289Q560 290 560 292Z" glyph-name="estimated" horiz-adv-x="722" unicode="℮" /><glyph d="M49 0 110 498H182L172 420Q220 466 263.5 487Q307 508 352 508Q358 508 364.5 507.5Q371 507 377 506L358 424Q308 424 259 403.5Q210 383 164 343L122 0Z" glyph-name="r.alt" horiz-adv-x="365" unicode="" /></font>
</defs>
</svg>
