<?xml version="1.0" standalone="no"?>
<!DOCTYPE svg
  PUBLIC '-//W3C//DTD SVG 1.1//EN'
  'http://www.w3.org/Graphics/SVG/1.1/DTD/svg11.dtd'><svg version="1.1" xmlns="http://www.w3.org/2000/svg"><defs><font horiz-adv-x="0" id="font"><font-face ascent="780" bbox="-30 -240 1120 987" cap-height="720" descent="-220" font-family="MAIF Light" font-stretch="normal" font-style="normal" font-weight="720" units-per-em="1000" x-height="490" /><missing-glyph d="M629 720 629 0H117V720ZM169 672 169 48H577V672Z" horiz-adv-x="746" /><glyph d="" glyph-name=".null" horiz-adv-x="0" unicode="" /><glyph d="" glyph-name="CR" horiz-adv-x="0" unicode="" /><glyph d="" glyph-name="space" horiz-adv-x="284" unicode=" " /><glyph d="" glyph-name="uni00A0" horiz-adv-x="284" unicode=" " /><glyph d="M48 0 328 720H371L652 0H597L522 195H175L101 0ZM349 648 194 243H504Z" glyph-name="A" horiz-adv-x="700" unicode="A" /><glyph d="M592 201Q592 104 537.5 52Q483 0 380 0H117V720H362Q457 720 508 670Q559 620 559 529Q559 472 538 433.5Q517 395 476 375Q534 358 563 314Q592 270 592 201ZM507 529Q507 602 471 637.5Q435 673 362 673H168V392H362Q436 392 471.5 425Q507 458 507 529ZM540 201Q540 277 501 312Q462 347 380 347H168V47H380Q461 47 500.5 85Q540 123 540 201Z" glyph-name="B" horiz-adv-x="669" unicode="B" /><glyph d="M369 38Q418 38 464 51.5Q510 65 558 94L580 51Q532 21 478.5 5.5Q425 -10 369 -10Q226 -10 154.5 82.5Q83 175 83 360Q83 545 154.5 637.5Q226 730 369 730Q424 730 474.5 716Q525 702 569 674L547 631Q504 657 460.5 669.5Q417 682 369 682Q249 682 193 606.5Q137 531 137 360Q137 189 193 113.5Q249 38 369 38Z" glyph-name="C" horiz-adv-x="632" unicode="C" /><glyph d="M648 360Q648 186 573 93Q498 0 354 0H117V720H354Q498 720 573 627Q648 534 648 360ZM594 360Q594 520 535 596Q476 672 354 672H169V48H354Q476 48 535 124Q594 200 594 360Z" glyph-name="D" horiz-adv-x="729" unicode="D" /><glyph d="M560 0 117 0V720H534V672H169V395H478V347H169V48H554Z" glyph-name="E" horiz-adv-x="610" unicode="E" /><glyph d="M169 316 169 0H117V720H534L528 672H169V364H478V316Z" glyph-name="F" horiz-adv-x="579" unicode="F" /><glyph d="M598 347 598 57Q546 23 490 6.5Q434 -10 374 -10Q229 -10 155.5 83Q82 176 82 360Q82 544 156 637Q230 730 377 730Q436 730 489 715Q542 700 588 671L566 628Q521 655 474.5 668.5Q428 682 377 682Q252 682 194 606.5Q136 531 136 360Q136 190 193.5 114Q251 38 374 38Q420 38 462 49Q504 60 546 83V341Z" glyph-name="G" horiz-adv-x="682" unicode="G" /><glyph d="M169 0 117 0V720H169V395H577V720L629 727V0H577V347H169Z" glyph-name="H" horiz-adv-x="746" unicode="H" /><glyph d="M169 727 169 0H117V720Z" glyph-name="I" horiz-adv-x="286" unicode="I" /><glyph d="M117 720 169 727V76Q169 -25 153.5 -76.5Q138 -128 95 -188L73 -220L34 -189L59 -151Q94 -98 105.5 -57.5Q117 -17 117 76Z" glyph-name="J" horiz-adv-x="286" unicode="J" /><glyph d="M169 347 169 0H117V720L169 727V395H287L554 720H616L331 374L637 0H572L290 347Z" glyph-name="K" horiz-adv-x="682" unicode="K" /><glyph d="M526 0 117 0V720L169 727V48H520Z" glyph-name="L" horiz-adv-x="571" unicode="L" /><glyph d="M461 180 424 180L169 628V0H117V720H174L442 247L710 720H767V0H715V630Z" glyph-name="M" horiz-adv-x="885" unicode="M" /><glyph d="M168 632 168 0H117V720H173L576 88V713L627 720V0H571Z" glyph-name="N" horiz-adv-x="744" unicode="N" /><glyph d="M668 360Q668 180 593.5 85Q519 -10 375 -10Q231 -10 156.5 85Q82 180 82 360Q82 540 156.5 635Q231 730 375 730Q519 730 593.5 635Q668 540 668 360ZM136 360Q136 196 195 117Q254 38 375 38Q497 38 555.5 116Q614 194 614 360Q614 526 555.5 604Q497 682 375 682Q254 682 195 603Q136 524 136 360Z" glyph-name="O" horiz-adv-x="750" unicode="O" /><glyph d="M169 267 169 0H117V720H353Q465 720 524.5 661Q584 602 584 494Q584 385 524.5 326Q465 267 353 267ZM530 494Q530 585 486.5 628.5Q443 672 353 672H169V315H353Q443 315 486.5 358.5Q530 402 530 494Z" glyph-name="P" horiz-adv-x="651" unicode="P" /><glyph d="M375 -10Q231 -10 156.5 85Q82 180 82 360Q82 540 156.5 635Q231 730 375 730Q519 730 593.5 635Q668 540 668 360Q668 224 625 136Q582 48 499 13L567 -183L518 -200L449 -3Q430 -7 411.5 -8.5Q393 -10 375 -10ZM136 360Q136 196 195 117Q254 38 375 38Q497 38 555.5 116Q614 194 614 360Q614 526 555.5 604Q497 682 375 682Q254 682 195 603Q136 524 136 360Z" glyph-name="Q" horiz-adv-x="750" unicode="Q" /><glyph d="M169 313 169 0H117V720H364Q472 720 529 667Q586 614 586 516Q586 431 541.5 379Q497 327 413 316L612 0H551L356 313ZM532 516Q532 596 491 634Q450 672 364 672H169V361H364Q449 361 490.5 399Q532 437 532 516Z" glyph-name="R" horiz-adv-x="673" unicode="R" /><glyph d="M553 184Q553 86 495.5 38Q438 -10 321 -10Q244 -10 182 8Q120 26 65 64L89 107Q139 70 193.5 54Q248 38 321 38Q413 38 457 74Q501 110 501 184Q501 246 467.5 278.5Q434 311 354 328L273 345Q172 366 125 413Q78 460 78 540Q78 633 135.5 681.5Q193 730 304 730Q373 730 431 712.5Q489 695 540 659L516 616Q468 651 417.5 666.5Q367 682 304 682Q217 682 173.5 647Q130 612 130 542Q130 481 167 446.5Q204 412 285 395L366 378Q466 357 509.5 312Q553 267 553 184Z" glyph-name="S" horiz-adv-x="623" unicode="S" /><glyph d="M346 672 346 0H294V672H43V720H596L590 672Z" glyph-name="T" horiz-adv-x="638" unicode="T" /><glyph d="M620 726 620 282Q620 137 555 63.5Q490 -10 362 -10Q234 -10 169 63.5Q104 137 104 282V720H156V282Q156 155 206 96.5Q256 38 362 38Q468 38 518 96.5Q568 155 568 282V720Z" glyph-name="U" horiz-adv-x="725" unicode="U" /><glyph d="M634 720 361 0H318L44 720H99L340 79L581 720Z" glyph-name="V" horiz-adv-x="679" unicode="V" /><glyph d="M751 0 712 0L508 629L298 0H260L49 720H101L281 100L489 720H527L731 103L910 720H961Z" glyph-name="W" horiz-adv-x="1011" unicode="W" /><glyph d="M306 370 59 720H121L340 408L558 720H616L369 368L628 0H566L336 330L105 0H47Z" glyph-name="X" horiz-adv-x="676" unicode="X" /><glyph d="M348 262 348 0H296V262L38 720H98L323 316L550 720H606Z" glyph-name="Y" horiz-adv-x="645" unicode="Y" /><glyph d="M546 0 53 0V31L456 672H68V720H526V689L123 48H540Z" glyph-name="Z" horiz-adv-x="598" unicode="Z" /><glyph d="M936 0 493 0V195H214L100 0H44L469 720H910V672H545V395H854V347H545V48H930ZM493 669 242 243H493Z" glyph-name="AE" horiz-adv-x="987" unicode="Æ" /><glyph d="M81 360Q81 535 155.5 627.5Q230 720 374 720H977V672H612V395H921V347H612V48H997L1003 0H374Q230 0 155.5 92.5Q81 185 81 360ZM560 48 560 672H374Q253 672 194 596Q135 520 135 360Q135 200 194 124Q253 48 374 48Z" glyph-name="OE" horiz-adv-x="1053" unicode="Œ" /><glyph d="M465 38Q544 38 581.5 77Q619 116 619 200Q619 285 579.5 325Q540 365 457 365H353V396L512 647Q477 665 440 673.5Q403 682 363 682Q257 682 207 623.5Q157 565 157 438V0H105V438Q105 583 170 656.5Q235 730 363 730Q419 730 469.5 716Q520 702 563 674V644L418 413H457Q562 413 617.5 358Q673 303 673 200Q673 98 620 44Q567 -10 465 -10Q409 -10 357.5 6Q306 22 256 56L279 99Q325 67 369.5 52.5Q414 38 465 38Z" glyph-name="uni1E9E" horiz-adv-x="739" unicode="ẞ" /><glyph d="M391 273 391 305Q391 384 359 419Q327 454 257 454Q219 454 180.5 443Q142 432 99 409L80 451Q121 475 167 487.5Q213 500 257 500Q350 500 395.5 452Q441 404 441 305V0H391V62Q351 26 307.5 8Q264 -10 215 -10Q142 -10 102 29Q62 68 62 137Q62 204 103.5 238.5Q145 273 225 273ZM114 137Q114 87 140 61.5Q166 36 218 36Q262 36 305.5 55Q349 74 391 111V228H227Q168 228 141 207Q114 186 114 137Z" glyph-name="a" horiz-adv-x="536" unicode="a" /><glyph d="M153 0 103 0V754L153 760V428Q193 465 236.5 482.5Q280 500 330 500Q427 500 477.5 434Q528 368 528 245Q528 122 477.5 56Q427 -10 330 -10Q280 -10 236.5 7.5Q193 25 153 62ZM325 36Q401 36 438.5 87.5Q476 139 476 245Q476 351 438.5 402.5Q401 454 325 454Q279 454 236.5 435.5Q194 417 153 380V110Q194 73 236.5 54.5Q279 36 325 36Z" glyph-name="b" horiz-adv-x="603" unicode="b" /><glyph d="M285 454Q203 454 165 405Q127 356 127 245Q127 134 165 85Q203 36 285 36Q324 36 361 47Q398 58 433 79L453 38Q418 15 374.5 2.5Q331 -10 285 -10Q181 -10 128 55Q75 120 75 245Q75 370 128 435Q181 500 285 500Q329 500 370.5 488.5Q412 477 445 456L424 415Q392 434 357.5 444Q323 454 285 454Z" glyph-name="c" horiz-adv-x="494" unicode="c" /><glyph d="M500 760 500 0H450V62Q410 25 366.5 7.5Q323 -10 273 -10Q176 -10 125.5 56Q75 122 75 245Q75 368 125.5 434Q176 500 273 500Q323 500 366.5 482.5Q410 465 450 428V754ZM278 454Q202 454 164.5 402.5Q127 351 127 245Q127 139 164.5 87.5Q202 36 278 36Q322 36 365 54.5Q408 73 450 110V380Q408 417 365 435.5Q322 454 278 454Z" glyph-name="d" horiz-adv-x="603" unicode="d" /><glyph d="M487 247 487 227H126Q129 127 170 81.5Q211 36 295 36Q338 36 379 48.5Q420 61 459 86L480 45Q442 19 393.5 4.5Q345 -10 295 -10Q186 -10 130 55Q74 120 74 245Q74 368 127 434Q180 500 281 500Q383 500 435 435.5Q487 371 487 247ZM281 454Q207 454 169 409.5Q131 365 127 271H435Q431 366 393.5 410Q356 454 281 454Z" glyph-name="e" horiz-adv-x="555" unicode="e" /><glyph d="M122 444 27 444V490H122V604Q122 673 150.5 703.5Q179 734 257 744L335 754V707L257 697Q207 690 189.5 671.5Q172 653 172 604V490H335V444H172V0H122Z" glyph-name="f" horiz-adv-x="362" unicode="f" /><glyph d="M465 340Q465 263 414 221.5Q363 180 267 180Q246 180 229 181.5Q212 183 198 187L150 87L355 66Q431 58 468.5 24.5Q506 -9 506 -68Q506 -144 448.5 -182Q391 -220 278 -220Q171 -220 117 -185Q63 -150 63 -81Q63 -44 80.5 -12.5Q98 19 132 43Q117 46 110 55Q103 64 103 79Q103 88 106 97Q109 106 117 121L159 198Q115 217 92 253Q69 289 69 340Q69 416 120 458Q171 500 267 500Q306 500 338.5 492.5Q371 485 396 471L474 544L504 511L430 442Q448 422 456.5 396.5Q465 371 465 340ZM116 340Q116 279 153 251Q190 223 267 223Q344 223 381 251Q418 279 418 340Q418 401 381 429Q344 457 267 457Q190 457 153 429Q116 401 116 340ZM110 -76Q110 -128 150.5 -152Q191 -176 278 -176Q373 -176 416 -151Q459 -126 459 -72Q459 -30 432.5 -8Q406 14 348 20L192 36Q150 12 130 -15Q110 -42 110 -76Z" glyph-name="g" horiz-adv-x="540" unicode="g" /><glyph d="M331 500Q417 500 461.5 453Q506 406 506 316V0H456V316Q456 383 423 418.5Q390 454 327 454Q282 454 238 435.5Q194 417 153 382V0H103V754L153 760V431Q193 466 237 483Q281 500 331 500Z" glyph-name="h" horiz-adv-x="602" unicode="h" /><glyph d="M156 660 100 636V720H156ZM103 0 103 496L153 490V0Z" glyph-name="i" horiz-adv-x="256" unicode="i" /><glyph d="M156 660 100 636V720H156ZM103 496 153 490V61Q153 -18 139.5 -66.5Q126 -115 80 -188L59 -220L19 -190L45 -150Q80 -94 91.5 -52.5Q103 -11 103 61Z" glyph-name="j" horiz-adv-x="256" unicode="j" /><glyph d="M103 0 103 754L153 760V289H233L422 490H484L277 270L516 0H452L239 243H153V0Z" glyph-name="k" horiz-adv-x="543" unicode="k" /><glyph d="M150 760 150 104Q150 67 160.5 56.5Q171 46 204 46H249L256 0H204Q145 0 122.5 22Q100 44 100 104V754Z" glyph-name="l" horiz-adv-x="283" unicode="l" /><glyph d="M103 0 103 490H153V431Q193 466 235.5 483Q278 500 326 500Q381 500 419.5 479Q458 458 477 418Q518 459 566.5 479.5Q615 500 669 500Q752 500 795 454.5Q838 409 838 321V0H788V321Q788 386 756.5 420Q725 454 666 454Q622 454 578 434.5Q534 415 491 377Q493 363 494.5 349Q496 335 496 321V0H446V321Q446 386 414.5 420Q383 454 323 454Q281 454 238 436Q195 418 153 382V0Z" glyph-name="m" horiz-adv-x="934" unicode="m" /><glyph d="M103 0 103 490H153V431Q193 466 237 483Q281 500 331 500Q417 500 461.5 453Q506 406 506 316V0H456V316Q456 383 423 418.5Q390 454 327 454Q282 454 238 435.5Q194 417 153 382V0Z" glyph-name="n" horiz-adv-x="602" unicode="n" /><glyph d="M510 245Q510 123 454 56.5Q398 -10 292 -10Q186 -10 129.5 56.5Q73 123 73 245Q73 368 129 434Q185 500 292 500Q398 500 454 433.5Q510 367 510 245ZM125 245Q125 138 166 87Q207 36 292 36Q376 36 417 87Q458 138 458 245Q458 352 417 403Q376 454 292 454Q207 454 166 403Q125 352 125 245Z" glyph-name="o" horiz-adv-x="583" unicode="o" /><glyph d="M103 -210 103 490H153V428Q193 465 236.5 482.5Q280 500 330 500Q427 500 477.5 434Q528 368 528 245Q528 122 477.5 56Q427 -10 330 -10Q280 -10 236.5 7.5Q193 25 153 62V-210ZM325 36Q401 36 438.5 87.5Q476 139 476 245Q476 351 438.5 402.5Q401 454 325 454Q280 454 237 435.5Q194 417 153 380V110Q194 73 237 54.5Q280 36 325 36Z" glyph-name="p" horiz-adv-x="603" unicode="p" /><glyph d="M450 490 500 490V-210H450V62Q410 25 366.5 7.5Q323 -10 273 -10Q176 -10 125.5 56Q75 122 75 245Q75 368 125.5 434Q176 500 273 500Q323 500 366.5 482.5Q410 465 450 428ZM278 454Q202 454 164.5 402.5Q127 351 127 245Q127 139 164.5 87.5Q202 36 278 36Q322 36 365 54.5Q408 73 450 110V380Q408 417 365 435.5Q322 454 278 454Z" glyph-name="q" horiz-adv-x="603" unicode="q" /><glyph d="M116 446 29 446V490H166V405Q217 454 264.5 477Q312 500 363 500Q369 500 375.5 499.5Q382 499 386 498L380 452Q319 452 268.5 428.5Q218 405 166 353V0H116Z" glyph-name="r" horiz-adv-x="409" unicode="r" /><glyph d="M427 126Q427 59 381 24.5Q335 -10 247 -10Q194 -10 147.5 3.5Q101 17 58 45L80 87Q119 60 158.5 48Q198 36 248 36Q315 36 346 57Q377 78 377 124Q377 166 352 188Q327 210 269 220L211 230Q138 243 103 276.5Q68 310 68 366Q68 431 112.5 465.5Q157 500 242 500Q290 500 332.5 488.5Q375 477 414 453L392 411Q357 433 320.5 443.5Q284 454 241 454Q179 454 148.5 433Q118 412 118 368Q118 329 143 308.5Q168 288 226 278L284 268Q357 255 392 220Q427 185 427 126Z" glyph-name="s" horiz-adv-x="487" unicode="s" /><glyph d="M172 444 172 126Q172 76 186.5 61Q201 46 249 46H340L347 0H249Q175 0 148.5 26Q122 52 122 126V444H27V490H122V618L172 624V490H335V444Z" glyph-name="t" horiz-adv-x="385" unicode="t" /><glyph d="M265 -10Q182 -10 138.5 36Q95 82 95 169V490H145V169Q145 104 176.5 70Q208 36 268 36Q310 36 353 54Q396 72 438 108V490H488V0H438V59Q398 24 355.5 7Q313 -10 265 -10Z" glyph-name="u" horiz-adv-x="591" unicode="u" /><glyph d="M424 490 476 490L269 0H237L30 490H84L254 82Z" glyph-name="v" horiz-adv-x="506" unicode="v" /><glyph d="M365 490 396 490L542 94L672 490H721L560 0H528L380 402L229 0H198L37 490H88L218 95Z" glyph-name="w" horiz-adv-x="757" unicode="w" /><glyph d="M218 253 43 490H103L249 288L395 490H452L278 250L460 0H400L245 215L90 0H34Z" glyph-name="x" horiz-adv-x="494" unicode="x" /><glyph d="M424 490 476 490L182 -214L136 -191L228 22L30 490H84L254 82Z" glyph-name="y" horiz-adv-x="506" unicode="y" /><glyph d="M412 0 44 0V27L327 444H50V490H397V463L114 46H406Z" glyph-name="z" horiz-adv-x="451" unicode="z" /><glyph d="M395 273 395 305Q395 384 362 419Q329 454 257 454Q219 454 180.5 443Q142 432 99 409L80 451Q121 475 167 487.5Q213 500 257 500Q322 500 364 476Q406 452 425 404Q450 452 493 476Q536 500 596 500Q698 500 750 435.5Q802 371 802 247V227H441Q444 127 485 81.5Q526 36 610 36Q653 36 694 48.5Q735 61 774 86L795 45Q757 19 708.5 4.5Q660 -10 610 -10Q544 -10 498 14Q452 38 426 86Q378 38 325 14Q272 -10 215 -10Q142 -10 102 29Q62 68 62 137Q62 204 103.5 238.5Q145 273 225 273ZM596 454Q522 454 484 409.5Q446 365 442 271H750Q746 366 708.5 410Q671 454 596 454ZM114 137Q114 87 140 61.5Q166 36 218 36Q267 36 315 59Q363 82 409 127Q402 149 398 174Q394 199 393 228H227Q168 228 141 207Q114 186 114 137Z" glyph-name="ae" horiz-adv-x="870" unicode="æ" /><glyph d="M484 116Q460 54 411.5 22Q363 -10 292 -10Q186 -10 129.5 56.5Q73 123 73 245Q73 368 129 434Q185 500 292 500Q363 500 411.5 468.5Q460 437 484 375Q506 437 552 468.5Q598 500 666 500Q768 500 820 435.5Q872 371 872 247V227H511Q514 127 555 81.5Q596 36 680 36Q723 36 764 48.5Q805 61 844 86L865 45Q827 19 778.5 4.5Q730 -10 680 -10Q605 -10 556 21.5Q507 53 484 116ZM125 245Q125 138 166 87Q207 36 292 36Q377 36 418 87Q459 138 459 245Q459 352 418 403Q377 454 292 454Q207 454 166 403Q125 352 125 245ZM666 454Q592 454 554 409.5Q516 365 512 271H820Q816 366 778.5 410Q741 454 666 454Z" glyph-name="oe" horiz-adv-x="940" unicode="œ" /><glyph d="M122 444 27 444V490H122V574Q122 670 164 715Q206 760 297 760Q382 760 427 722Q472 684 472 613Q472 577 459.5 541.5Q447 506 409 448Q386 412 379 396Q372 380 372 367Q372 353 380 344Q388 335 408 326L485 294Q553 265 581 229Q609 193 609 137Q609 65 565.5 27.5Q522 -10 438 -10Q388 -10 344 3Q300 16 260 42L281 84Q317 59 355 47.5Q393 36 439 36Q502 36 530.5 59.5Q559 83 559 135Q559 177 538 202Q517 227 461 250L384 282Q354 295 338 316Q322 337 322 364Q322 383 330.5 404.5Q339 426 367 469Q400 522 411 552Q422 582 422 611Q422 662 390.5 688Q359 714 297 714Q230 714 201 682Q172 650 172 574V0H122Z" glyph-name="germandbls" horiz-adv-x="661" unicode="ß" /><glyph d="M103 0 103 496L153 490V0Z" glyph-name="dotlessi" horiz-adv-x="256" unicode="ı" /><glyph d="M48 0 328 720H371L652 0H597L522 195H175L101 0ZM349 648 194 243H504ZM355 824 305 824L447 987L488 950Z" glyph-name="Aacute" horiz-adv-x="700" unicode="Á" /><glyph d="M48 0 328 720H371L652 0H597L522 195H175L101 0ZM349 648 194 243H504ZM325 977 374 977L508 824H458L350 927L241 824H191Z" glyph-name="Acircumflex" horiz-adv-x="700" unicode="Â" /><glyph d="M48 0 328 720H371L652 0H597L522 195H175L101 0ZM349 648 194 243H504ZM284 920 284 860H228V920ZM415 860 415 920H471V860Z" glyph-name="Adieresis" horiz-adv-x="700" unicode="Ä" /><glyph d="M48 0 328 720H371L652 0H597L522 195H175L101 0ZM349 648 194 243H504ZM252 987 394 824H344L211 950Z" glyph-name="Agrave" horiz-adv-x="700" unicode="À" /><glyph d="M307 -98 300 -63L321 -7Q202 8 142.5 99.5Q83 191 83 360Q83 545 154.5 637.5Q226 730 369 730Q424 730 474.5 716Q525 702 569 674L547 631Q504 657 460.5 669.5Q417 682 369 682Q249 682 193 606.5Q137 531 137 360Q137 189 193 113.5Q249 38 369 38Q418 38 464 51.5Q510 65 558 94L580 51Q532 21 478.5 5.5Q425 -10 369 -10H364L347 -57H350Q401 -57 427 -78Q453 -99 453 -139Q453 -178 427.5 -199Q402 -220 352 -220Q323 -220 298 -213Q273 -206 253 -192L269 -156Q290 -168 310 -173.5Q330 -179 352 -179Q383 -179 397 -169.5Q411 -160 411 -139Q411 -117 395.5 -106Q380 -95 348 -95Q341 -95 333.5 -95.5Q326 -96 307 -98Z" glyph-name="Ccedilla" horiz-adv-x="632" unicode="Ç" /><glyph d="M369 38Q418 38 464 51.5Q510 65 558 94L580 51Q532 21 478.5 5.5Q425 -10 369 -10Q226 -10 154.5 82.5Q83 175 83 360Q83 545 154.5 637.5Q226 730 369 730Q424 730 474.5 716Q525 702 569 674L547 631Q504 657 460.5 669.5Q417 682 369 682Q249 682 193 606.5Q137 531 137 360Q137 189 193 113.5Q249 38 369 38ZM372 824 322 824L464 987L505 950Z" glyph-name="Cacute" horiz-adv-x="632" unicode="Ć" /><glyph d="M560 0 117 0V720H534V672H169V395H478V347H169V48H554ZM330 824 280 824L422 987L463 950Z" glyph-name="Eacute" horiz-adv-x="610" unicode="É" /><glyph d="M560 0 117 0V720H534V672H169V395H478V347H169V48H554ZM300 977 349 977L483 824H433L325 927L216 824H166Z" glyph-name="Ecircumflex" horiz-adv-x="610" unicode="Ê" /><glyph d="M560 0 117 0V720H534V672H169V395H478V347H169V48H554ZM259 920 259 860H203V920ZM390 860 390 920H446V860Z" glyph-name="Edieresis" horiz-adv-x="610" unicode="Ë" /><glyph d="M560 0 117 0V720H534V672H169V395H478V347H169V48H554ZM227 987 369 824H319L186 950Z" glyph-name="Egrave" horiz-adv-x="610" unicode="È" /><glyph d="M169 727 169 0H117V720ZM149 824 99 824L241 987L282 950Z" glyph-name="Iacute" horiz-adv-x="286" unicode="Í" /><glyph d="M169 727 169 0H117V720ZM119 977 168 977L302 824H252L144 927L35 824H-15Z" glyph-name="Icircumflex" horiz-adv-x="286" unicode="Î" /><glyph d="M169 727 169 0H117V720ZM78 920 78 860H22V920ZM209 860 209 920H265V860Z" glyph-name="Idieresis" horiz-adv-x="286" unicode="Ï" /><glyph d="M169 727 169 0H117V720ZM46 987 188 824H138L5 950Z" glyph-name="Igrave" horiz-adv-x="286" unicode="Ì" /><glyph d="M169 727 169 0H117V720ZM116 866 116 950H171V890Z" glyph-name="Idotaccent" horiz-adv-x="286" unicode="İ" /><glyph d="M168 632 168 0H117V720H173L576 88V713L627 720V0H571ZM386 908Q406 889 416 883.5Q426 878 436 878Q455 878 463 894Q471 910 471 945L515 939Q515 886 496 860Q477 834 438 834Q420 834 402.5 842.5Q385 851 358 876Q337 896 327 901.5Q317 907 307 907Q289 907 280.5 892Q272 877 272 844H228Q228 897 247.5 924Q267 951 305 951Q324 951 341 942.5Q358 934 386 908Z" glyph-name="Ntilde" horiz-adv-x="744" unicode="Ñ" /><glyph d="M668 360Q668 180 593.5 85Q519 -10 375 -10Q231 -10 156.5 85Q82 180 82 360Q82 540 156.5 635Q231 730 375 730Q519 730 593.5 635Q668 540 668 360ZM136 360Q136 196 195 117Q254 38 375 38Q497 38 555.5 116Q614 194 614 360Q614 526 555.5 604Q497 682 375 682Q254 682 195 603Q136 524 136 360ZM380 824 330 824L472 987L513 950Z" glyph-name="Oacute" horiz-adv-x="750" unicode="Ó" /><glyph d="M668 360Q668 180 593.5 85Q519 -10 375 -10Q231 -10 156.5 85Q82 180 82 360Q82 540 156.5 635Q231 730 375 730Q519 730 593.5 635Q668 540 668 360ZM136 360Q136 196 195 117Q254 38 375 38Q497 38 555.5 116Q614 194 614 360Q614 526 555.5 604Q497 682 375 682Q254 682 195 603Q136 524 136 360ZM350 977 399 977L533 824H483L375 927L266 824H216Z" glyph-name="Ocircumflex" horiz-adv-x="750" unicode="Ô" /><glyph d="M668 360Q668 180 593.5 85Q519 -10 375 -10Q231 -10 156.5 85Q82 180 82 360Q82 540 156.5 635Q231 730 375 730Q519 730 593.5 635Q668 540 668 360ZM136 360Q136 196 195 117Q254 38 375 38Q497 38 555.5 116Q614 194 614 360Q614 526 555.5 604Q497 682 375 682Q254 682 195 603Q136 524 136 360ZM309 920 309 860H253V920ZM440 860 440 920H496V860Z" glyph-name="Odieresis" horiz-adv-x="750" unicode="Ö" /><glyph d="M668 360Q668 180 593.5 85Q519 -10 375 -10Q231 -10 156.5 85Q82 180 82 360Q82 540 156.5 635Q231 730 375 730Q519 730 593.5 635Q668 540 668 360ZM136 360Q136 196 195 117Q254 38 375 38Q497 38 555.5 116Q614 194 614 360Q614 526 555.5 604Q497 682 375 682Q254 682 195 603Q136 524 136 360ZM277 987 419 824H369L236 950Z" glyph-name="Ograve" horiz-adv-x="750" unicode="Ò" /><glyph d="M620 726 620 282Q620 137 555 63.5Q490 -10 362 -10Q234 -10 169 63.5Q104 137 104 282V720H156V282Q156 155 206 96.5Q256 38 362 38Q468 38 518 96.5Q568 155 568 282V720ZM367 824 317 824L459 987L500 950Z" glyph-name="Uacute" horiz-adv-x="725" unicode="Ú" /><glyph d="M620 726 620 282Q620 137 555 63.5Q490 -10 362 -10Q234 -10 169 63.5Q104 137 104 282V720H156V282Q156 155 206 96.5Q256 38 362 38Q468 38 518 96.5Q568 155 568 282V720ZM337 977 386 977L520 824H470L362 927L253 824H203Z" glyph-name="Ucircumflex" horiz-adv-x="725" unicode="Û" /><glyph d="M620 726 620 282Q620 137 555 63.5Q490 -10 362 -10Q234 -10 169 63.5Q104 137 104 282V720H156V282Q156 155 206 96.5Q256 38 362 38Q468 38 518 96.5Q568 155 568 282V720ZM296 920 296 860H240V920ZM427 860 427 920H483V860Z" glyph-name="Udieresis" horiz-adv-x="725" unicode="Ü" /><glyph d="M620 726 620 282Q620 137 555 63.5Q490 -10 362 -10Q234 -10 169 63.5Q104 137 104 282V720H156V282Q156 155 206 96.5Q256 38 362 38Q468 38 518 96.5Q568 155 568 282V720ZM264 987 406 824H356L223 950Z" glyph-name="Ugrave" horiz-adv-x="725" unicode="Ù" /><glyph d="M620 726 620 282Q620 137 555 63.5Q490 -10 362 -10Q234 -10 169 63.5Q104 137 104 282V720H156V282Q156 155 206 96.5Q256 38 362 38Q468 38 518 96.5Q568 155 568 282V720ZM248 824 200 824L311 987L353 955ZM444 824 396 824L507 987L549 955Z" glyph-name="Uhungarumlaut" horiz-adv-x="725" unicode="Ű" /><glyph d="M391 273 391 305Q391 384 359 419Q327 454 257 454Q219 454 180.5 443Q142 432 99 409L80 451Q121 475 167 487.5Q213 500 257 500Q350 500 395.5 452Q441 404 441 305V0H391V62Q351 26 307.5 8Q264 -10 215 -10Q142 -10 102 29Q62 68 62 137Q62 204 103.5 238.5Q145 273 225 273ZM114 137Q114 87 140 61.5Q166 36 218 36Q262 36 305.5 55Q349 74 391 111V228H227Q168 228 141 207Q114 186 114 137ZM255 594 205 594L347 757L388 720Z" glyph-name="aacute" horiz-adv-x="536" unicode="á" /><glyph d="M391 273 391 305Q391 384 359 419Q327 454 257 454Q219 454 180.5 443Q142 432 99 409L80 451Q121 475 167 487.5Q213 500 257 500Q350 500 395.5 452Q441 404 441 305V0H391V62Q351 26 307.5 8Q264 -10 215 -10Q142 -10 102 29Q62 68 62 137Q62 204 103.5 238.5Q145 273 225 273ZM114 137Q114 87 140 61.5Q166 36 218 36Q262 36 305.5 55Q349 74 391 111V228H227Q168 228 141 207Q114 186 114 137ZM225 747 274 747L408 594H358L250 697L141 594H91Z" glyph-name="acircumflex" horiz-adv-x="536" unicode="â" /><glyph d="M391 273 391 305Q391 384 359 419Q327 454 257 454Q219 454 180.5 443Q142 432 99 409L80 451Q121 475 167 487.5Q213 500 257 500Q350 500 395.5 452Q441 404 441 305V0H391V62Q351 26 307.5 8Q264 -10 215 -10Q142 -10 102 29Q62 68 62 137Q62 204 103.5 238.5Q145 273 225 273ZM114 137Q114 87 140 61.5Q166 36 218 36Q262 36 305.5 55Q349 74 391 111V228H227Q168 228 141 207Q114 186 114 137ZM184 690 184 630H128V690ZM315 630 315 690H371V630Z" glyph-name="adieresis" horiz-adv-x="536" unicode="ä" /><glyph d="M391 273 391 305Q391 384 359 419Q327 454 257 454Q219 454 180.5 443Q142 432 99 409L80 451Q121 475 167 487.5Q213 500 257 500Q350 500 395.5 452Q441 404 441 305V0H391V62Q351 26 307.5 8Q264 -10 215 -10Q142 -10 102 29Q62 68 62 137Q62 204 103.5 238.5Q145 273 225 273ZM114 137Q114 87 140 61.5Q166 36 218 36Q262 36 305.5 55Q349 74 391 111V228H227Q168 228 141 207Q114 186 114 137ZM152 757 294 594H244L111 720Z" glyph-name="agrave" horiz-adv-x="536" unicode="à" /><glyph d="M231 -98 224 -63L245 -7Q161 5 118 69Q75 133 75 245Q75 370 128 435Q181 500 285 500Q329 500 370.5 488.5Q412 477 445 456L424 415Q392 434 357.5 444Q323 454 285 454Q203 454 165 405Q127 356 127 245Q127 134 165 85Q203 36 285 36Q324 36 361 47Q398 58 433 79L453 38Q418 15 375 2.5Q332 -10 288 -10L271 -57H274Q325 -57 351 -78Q377 -99 377 -139Q377 -178 351.5 -199Q326 -220 276 -220Q247 -220 222 -213Q197 -206 177 -192L193 -156Q214 -168 234 -173.5Q254 -179 276 -179Q307 -179 321 -169.5Q335 -160 335 -139Q335 -117 319.5 -106Q304 -95 272 -95Q265 -95 257.5 -95.5Q250 -96 231 -98Z" glyph-name="ccedilla" horiz-adv-x="494" unicode="ç" /><glyph d="M285 454Q203 454 165 405Q127 356 127 245Q127 134 165 85Q203 36 285 36Q324 36 361 47Q398 58 433 79L453 38Q418 15 374.5 2.5Q331 -10 285 -10Q181 -10 128 55Q75 120 75 245Q75 370 128 435Q181 500 285 500Q329 500 370.5 488.5Q412 477 445 456L424 415Q392 434 357.5 444Q323 454 285 454ZM281 594 231 594L373 757L414 720Z" glyph-name="cacute" horiz-adv-x="494" unicode="ć" /><glyph d="M487 247 487 227H126Q129 127 170 81.5Q211 36 295 36Q338 36 379 48.5Q420 61 459 86L480 45Q442 19 393.5 4.5Q345 -10 295 -10Q186 -10 130 55Q74 120 74 245Q74 368 127 434Q180 500 281 500Q383 500 435 435.5Q487 371 487 247ZM281 454Q207 454 169 409.5Q131 365 127 271H435Q431 366 393.5 410Q356 454 281 454ZM284 594 234 594L376 757L417 720Z" glyph-name="eacute" horiz-adv-x="555" unicode="é" /><glyph d="M487 247 487 227H126Q129 127 170 81.5Q211 36 295 36Q338 36 379 48.5Q420 61 459 86L480 45Q442 19 393.5 4.5Q345 -10 295 -10Q186 -10 130 55Q74 120 74 245Q74 368 127 434Q180 500 281 500Q383 500 435 435.5Q487 371 487 247ZM281 454Q207 454 169 409.5Q131 365 127 271H435Q431 366 393.5 410Q356 454 281 454ZM254 747 303 747L437 594H387L279 697L170 594H120Z" glyph-name="ecircumflex" horiz-adv-x="555" unicode="ê" /><glyph d="M487 247 487 227H126Q129 127 170 81.5Q211 36 295 36Q338 36 379 48.5Q420 61 459 86L480 45Q442 19 393.5 4.5Q345 -10 295 -10Q186 -10 130 55Q74 120 74 245Q74 368 127 434Q180 500 281 500Q383 500 435 435.5Q487 371 487 247ZM281 454Q207 454 169 409.5Q131 365 127 271H435Q431 366 393.5 410Q356 454 281 454ZM213 690 213 630H157V690ZM344 630 344 690H400V630Z" glyph-name="edieresis" horiz-adv-x="555" unicode="ë" /><glyph d="M487 247 487 227H126Q129 127 170 81.5Q211 36 295 36Q338 36 379 48.5Q420 61 459 86L480 45Q442 19 393.5 4.5Q345 -10 295 -10Q186 -10 130 55Q74 120 74 245Q74 368 127 434Q180 500 281 500Q383 500 435 435.5Q487 371 487 247ZM281 454Q207 454 169 409.5Q131 365 127 271H435Q431 366 393.5 410Q356 454 281 454ZM181 757 323 594H273L140 720Z" glyph-name="egrave" horiz-adv-x="555" unicode="è" /><glyph d="M103 0 103 496L153 490V0ZM134 594 84 594L226 757L267 720Z" glyph-name="iacute" horiz-adv-x="256" unicode="í" /><glyph d="M103 0 103 496L153 490V0ZM104 747 153 747L287 594H237L129 697L20 594H-30Z" glyph-name="icircumflex" horiz-adv-x="256" unicode="î" /><glyph d="M103 0 103 496L153 490V0ZM63 690 63 630H7V690ZM194 630 194 690H250V630Z" glyph-name="idieresis" horiz-adv-x="256" unicode="ï" /><glyph d="M103 0 103 496L153 490V0ZM31 757 173 594H123L-10 720Z" glyph-name="igrave" horiz-adv-x="256" unicode="ì" /><glyph d="M156 660 100 636V720H156ZM103 0 103 496L153 490V0Z" glyph-name="i.dot" horiz-adv-x="256" unicode="" /><glyph d="M103 0 103 490H153V431Q193 466 237 483Q281 500 331 500Q417 500 461.5 453Q506 406 506 316V0H456V316Q456 383 423 418.5Q390 454 327 454Q282 454 238 435.5Q194 417 153 382V0ZM315 678Q335 659 345 653.5Q355 648 365 648Q384 648 392 664Q400 680 400 715L444 709Q444 656 425 630Q406 604 367 604Q349 604 331.5 612.5Q314 621 287 646Q266 666 256 671.5Q246 677 236 677Q218 677 209.5 662Q201 647 201 614H157Q157 667 176.5 694Q196 721 234 721Q253 721 270 712.5Q287 704 315 678Z" glyph-name="ntilde" horiz-adv-x="602" unicode="ñ" /><glyph d="M510 245Q510 123 454 56.5Q398 -10 292 -10Q186 -10 129.5 56.5Q73 123 73 245Q73 368 129 434Q185 500 292 500Q398 500 454 433.5Q510 367 510 245ZM125 245Q125 138 166 87Q207 36 292 36Q376 36 417 87Q458 138 458 245Q458 352 417 403Q376 454 292 454Q207 454 166 403Q125 352 125 245ZM297 594 247 594L389 757L430 720Z" glyph-name="oacute" horiz-adv-x="583" unicode="ó" /><glyph d="M510 245Q510 123 454 56.5Q398 -10 292 -10Q186 -10 129.5 56.5Q73 123 73 245Q73 368 129 434Q185 500 292 500Q398 500 454 433.5Q510 367 510 245ZM125 245Q125 138 166 87Q207 36 292 36Q376 36 417 87Q458 138 458 245Q458 352 417 403Q376 454 292 454Q207 454 166 403Q125 352 125 245ZM267 747 316 747L450 594H400L292 697L183 594H133Z" glyph-name="ocircumflex" horiz-adv-x="583" unicode="ô" /><glyph d="M510 245Q510 123 454 56.5Q398 -10 292 -10Q186 -10 129.5 56.5Q73 123 73 245Q73 368 129 434Q185 500 292 500Q398 500 454 433.5Q510 367 510 245ZM125 245Q125 138 166 87Q207 36 292 36Q376 36 417 87Q458 138 458 245Q458 352 417 403Q376 454 292 454Q207 454 166 403Q125 352 125 245ZM226 690 226 630H170V690ZM357 630 357 690H413V630Z" glyph-name="odieresis" horiz-adv-x="583" unicode="ö" /><glyph d="M510 245Q510 123 454 56.5Q398 -10 292 -10Q186 -10 129.5 56.5Q73 123 73 245Q73 368 129 434Q185 500 292 500Q398 500 454 433.5Q510 367 510 245ZM125 245Q125 138 166 87Q207 36 292 36Q376 36 417 87Q458 138 458 245Q458 352 417 403Q376 454 292 454Q207 454 166 403Q125 352 125 245ZM194 757 336 594H286L153 720Z" glyph-name="ograve" horiz-adv-x="583" unicode="ò" /><glyph d="M265 -10Q182 -10 138.5 36Q95 82 95 169V490H145V169Q145 104 176.5 70Q208 36 268 36Q310 36 353 54Q396 72 438 108V490H488V0H438V59Q398 24 355.5 7Q313 -10 265 -10ZM297 594 247 594L389 757L430 720Z" glyph-name="uacute" horiz-adv-x="591" unicode="ú" /><glyph d="M265 -10Q182 -10 138.5 36Q95 82 95 169V490H145V169Q145 104 176.5 70Q208 36 268 36Q310 36 353 54Q396 72 438 108V490H488V0H438V59Q398 24 355.5 7Q313 -10 265 -10ZM267 747 316 747L450 594H400L292 697L183 594H133Z" glyph-name="ucircumflex" horiz-adv-x="591" unicode="û" /><glyph d="M265 -10Q182 -10 138.5 36Q95 82 95 169V490H145V169Q145 104 176.5 70Q208 36 268 36Q310 36 353 54Q396 72 438 108V490H488V0H438V59Q398 24 355.5 7Q313 -10 265 -10ZM226 690 226 630H170V690ZM357 630 357 690H413V630Z" glyph-name="udieresis" horiz-adv-x="591" unicode="ü" /><glyph d="M265 -10Q182 -10 138.5 36Q95 82 95 169V490H145V169Q145 104 176.5 70Q208 36 268 36Q310 36 353 54Q396 72 438 108V490H488V0H438V59Q398 24 355.5 7Q313 -10 265 -10ZM194 757 336 594H286L153 720Z" glyph-name="ugrave" horiz-adv-x="591" unicode="ù" /><glyph d="M265 -10Q182 -10 138.5 36Q95 82 95 169V490H145V169Q145 104 176.5 70Q208 36 268 36Q310 36 353 54Q396 72 438 108V490H488V0H438V59Q398 24 355.5 7Q313 -10 265 -10ZM178 594 130 594L241 757L283 725ZM374 594 326 594L437 757L479 725Z" glyph-name="uhungarumlaut" horiz-adv-x="591" unicode="ű" /><glyph d="M297 594 247 594L389 757L430 720Z" glyph-name="acute" horiz-adv-x="490" unicode="´" /><glyph d="M194 757 336 594H286L153 720Z" glyph-name="grave" horiz-adv-x="490" unicode="`" /><glyph d="M267 747 316 747L450 594H400L292 697L183 594H133Z" glyph-name="circumflex" horiz-adv-x="490" unicode="ˆ" /><glyph d="M226 690 226 630H170V690ZM357 630 357 690H413V630Z" glyph-name="dieresis" horiz-adv-x="490" unicode="¨" /><glyph d="M207 -98 200 -63L227 10H271L247 -57H250Q301 -57 327 -78Q353 -99 353 -139Q353 -178 327.5 -199Q302 -220 252 -220Q223 -220 198 -213Q173 -206 153 -192L169 -156Q190 -168 210 -173.5Q230 -179 252 -179Q283 -179 297 -169.5Q311 -160 311 -139Q311 -117 295.5 -106Q280 -95 248 -95Q241 -95 233.5 -95.5Q226 -96 207 -98Z" glyph-name="cedilla" horiz-adv-x="490" unicode="¸" /><glyph d="M178 594 130 594L241 757L283 725ZM374 594 326 594L437 757L479 725Z" glyph-name="hungarumlaut" horiz-adv-x="490" unicode="˝" /><glyph d="M116 866 116 950H171V890Z" glyph-name="dotaccent" horiz-adv-x="490" unicode="˙" /><glyph d="M315 678Q335 659 345 653.5Q355 648 365 648Q384 648 392 664Q400 680 400 715L444 709Q444 656 425 630Q406 604 367 604Q349 604 331.5 612.5Q314 621 287 646Q266 666 256 671.5Q246 677 236 677Q218 677 209.5 662Q201 647 201 614H157Q157 667 176.5 694Q196 721 234 721Q253 721 270 712.5Q287 704 315 678Z" glyph-name="tilde" horiz-adv-x="490" unicode="˜" /><glyph d="M93 0 93 60L153 67V0Z" glyph-name="period" horiz-adv-x="247" unicode="." /><glyph d="M53 -187 86 -98Q94 -73 97.5 -54.5Q101 -36 101 -20V60H148V-8Q148 -38 144 -58Q140 -78 124 -124L95 -205Z" glyph-name="comma" horiz-adv-x="247" unicode="," /><glyph d="M153 403 93 410V470H153ZM93 0 93 60L153 67V0Z" glyph-name="colon" horiz-adv-x="247" unicode=":" /><glyph d="M153 403 93 410V470H153ZM53 -187 86 -98Q94 -73 97.5 -54.5Q101 -36 101 -20V60H148V-8Q148 -38 144 -58Q140 -78 124 -124L95 -205Z" glyph-name="semicolon" horiz-adv-x="247" unicode=";" /><glyph d="M574 0 574 60L634 67V0ZM574 0 574 60L634 67V0ZM574 0 574 60L634 67V0Z" glyph-name="ellipsis" horiz-adv-x="728" unicode="…" /><glyph d="M243 302 237 197H203L194 345Q300 345 348 384.5Q396 424 396 517Q396 603 356 642.5Q316 682 231 682Q182 682 137.5 669.5Q93 657 52 631L30 671Q74 700 125 715Q176 730 231 730Q337 730 392.5 675Q448 620 448 517Q448 419 396 364.5Q344 310 243 302ZM190 0 190 60L250 67V0Z" glyph-name="question" horiz-adv-x="500" unicode="?" /><glyph d="M146 197 112 197L100 723L157 730ZM98 0 98 60L158 67V0Z" glyph-name="exclam" horiz-adv-x="257" unicode="!" /><glyph d="M309 490 309 430L249 423V490ZM256 188 262 293H296L305 145Q199 145 151 105.5Q103 66 103 -27Q103 -113 143 -152.5Q183 -192 268 -192Q317 -192 362 -179.5Q407 -167 447 -141L469 -181Q426 -210 374.5 -225Q323 -240 268 -240Q162 -240 106.5 -185Q51 -130 51 -27Q51 71 103 125.5Q155 180 256 188Z" glyph-name="questiondown" horiz-adv-x="500" unicode="¿" /><glyph d="M158 490 158 430L98 423V490ZM110 293 144 293L156 -233L99 -240Z" glyph-name="exclamdown" horiz-adv-x="257" unicode="¡" /><glyph d="M91 310Q91 442 134 553Q177 664 265 758L300 724Q220 636 182.5 536Q145 436 145 310Q145 184 182.5 84Q220 -16 300 -104L265 -138Q177 -44 134 67Q91 178 91 310Z" glyph-name="parenleft" horiz-adv-x="335" unicode="(" /><glyph d="M243 310Q243 178 200 67Q157 -44 70 -138L35 -104Q115 -16 152 84Q189 184 189 310Q189 436 152 536Q115 636 35 724L70 758Q157 664 200 553Q243 442 243 310Z" glyph-name="parenright" horiz-adv-x="335" unicode=")" /><glyph d="M53 289 53 334H89Q135 334 151 358Q167 382 160 437L144 553Q131 651 159 695.5Q187 740 269 750L317 756V709L269 703Q216 696 200 666Q184 636 196 553L212 437Q218 384 202.5 353Q187 322 150 312Q187 301 202.5 269.5Q218 238 212 186L196 70Q184 -13 200 -43Q216 -73 269 -80L317 -86V-133L269 -127Q187 -117 159 -72.5Q131 -28 144 70L160 186Q167 241 151 265Q135 289 89 289Z" glyph-name="braceleft" horiz-adv-x="363" unicode="{" /><glyph d="M309 334 309 289H274Q228 289 212 265Q196 241 203 186L218 70Q232 -28 204 -72.5Q176 -117 94 -127L45 -133V-86L93 -80Q146 -73 162 -43.5Q178 -14 167 70L151 186Q144 238 159.5 269.5Q175 301 212 311Q175 322 159.5 353.5Q144 385 151 437L167 553Q178 637 162 666.5Q146 696 93 703L45 709V756L94 750Q176 740 204 695.5Q232 651 218 553L203 437Q196 382 212 358Q228 334 274 334Z" glyph-name="braceright" horiz-adv-x="363" unicode="}" /><glyph d="M316 -128 122 -128V750H305V702H174V-80H310Z" glyph-name="bracketleft" horiz-adv-x="351" unicode="[" /><glyph d="M34 750 228 750V-128H45V-80H176V702H40Z" glyph-name="bracketright" horiz-adv-x="351" unicode="]" /><glyph d="M44 -128 -10 -128L352 750H407Z" glyph-name="slash" horiz-adv-x="437" unicode="/" /><glyph d="M85 750 447 -128H392L30 750Z" glyph-name="backslash" horiz-adv-x="437" unicode="\" /><glyph d="M37 -134 37 -88H465L472 -134Z" glyph-name="underscore" horiz-adv-x="509" unicode="_" /><glyph d="M66 296 66 342H297L304 296Z" glyph-name="hyphen" horiz-adv-x="370" unicode="-" /><glyph d="" glyph-name="uni00AD" horiz-adv-x="0" unicode="­" /><glyph d="M66 296 66 342H416L423 296Z" glyph-name="endash" horiz-adv-x="490" unicode="–" /><glyph d="M66 296 66 342H906L913 296Z" glyph-name="emdash" horiz-adv-x="980" unicode="—" /><glyph d="M161 757 161 393H109V750ZM161 -128 109 -128V241H161Z" glyph-name="brokenbar" horiz-adv-x="270" unicode="¦" /><glyph d="M169 -128 117 -128V750L169 757Z" glyph-name="bar" horiz-adv-x="286" unicode="|" /><glyph d="M108 276 294 125V64L52 261V288L288 480L301 433ZM398 276 584 125V64L343 261V288L578 480L591 433Z" glyph-name="guillemotleft" horiz-adv-x="653" unicode="«" /><glyph d="M600 283 600 256L364 64L351 111L544 268L358 419V480ZM309 283 309 256L74 64L61 111L254 268L68 419V480Z" glyph-name="guillemotright" horiz-adv-x="653" unicode="»" /><glyph d="M108 276 294 125V64L52 261V288L288 480L301 433Z" glyph-name="guilsinglleft" horiz-adv-x="362" unicode="‹" /><glyph d="M309 283 309 256L74 64L61 111L254 268L68 419V480Z" glyph-name="guilsinglright" horiz-adv-x="362" unicode="›" /><glyph d="M99 -183 55 -173L101 60H148Z" glyph-name="quotesinglbase" horiz-adv-x="247" unicode="‚" /><glyph d="M99 -183 55 -173L101 60H148ZM272 -183 228 -173L274 60H321Z" glyph-name="quotedblbase" horiz-adv-x="420" unicode="„" /><glyph d="M126 730 170 720L124 487H77Z" glyph-name="quoteleft" horiz-adv-x="247" unicode="‘" /><glyph d="M299 730 342 720L296 487H250ZM126 730 170 720L124 487H77Z" glyph-name="quotedblleft" horiz-adv-x="420" unicode="“" /><glyph d="M121 477 77 487L123 720H170Z" glyph-name="quoteright" horiz-adv-x="247" unicode="’" /><glyph d="M121 477 77 487L123 720H170ZM293 477 250 487L296 720H342Z" glyph-name="quotedblright" horiz-adv-x="420" unicode="”" /><glyph d="M98 720 152 720L148 487H102Z" glyph-name="quotesingle" horiz-adv-x="250" unicode="'" /><glyph d="M98 720 152 720L148 487H102ZM281 720 335 720L331 487H285Z" glyph-name="quotedbl" horiz-adv-x="433" unicode="&quot;" /><glyph d="M240 341Q240 300 221 280.5Q202 261 163 261Q124 261 105 280.5Q86 300 86 341Q86 382 105 401.5Q124 421 163 421Q202 421 221 401.5Q240 382 240 341Z" glyph-name="bullet" horiz-adv-x="327" unicode="•" /><glyph d="M312 682Q245 682 211 654Q177 626 177 571Q177 533 192.5 501.5Q208 470 244 438L531 175Q552 211 569 259Q586 307 600 369L607 402L658 396L648 356Q632 290 612 236.5Q592 183 567 142L693 27L661 -10L539 101Q495 45 436 17.5Q377 -10 301 -10Q194 -10 131 43Q68 96 68 187Q68 259 103.5 312.5Q139 366 210 402Q165 443 144.5 483.5Q124 524 124 571Q124 647 172.5 688.5Q221 730 312 730Q365 730 412 716Q459 702 504 673L480 631Q438 657 397 669.5Q356 682 312 682ZM121 187Q121 115 168 76.5Q215 38 301 38Q366 38 416.5 61.5Q467 85 504 133L247 368Q184 336 152.5 291Q121 246 121 187Z" glyph-name="ampersand" horiz-adv-x="741" unicode="&amp;" /><glyph d="M414 486 48 486V534H205V721L257 727V534H414ZM248 -128 214 -128L205 398L257 404Z" glyph-name="dagger" horiz-adv-x="463" unicode="†" /><glyph d="M426 486 60 486V534H217V721L269 727V534H426ZM426 323 60 323V371H426ZM260 -128 226 -128L217 208L269 214Z" glyph-name="daggerdbl" horiz-adv-x="486" unicode="‡" /><glyph d="M107 363 128 393Q135 403 141.5 411.5Q148 420 157 430L221 507L125 530Q110 533 95 537.5Q80 542 80 542L45 554L60 601L96 590Q98 589 100 588.5Q102 588 106 586Q117 583 124 580Q131 577 139 573L229 534L221 636Q220 649 219.5 659Q219 669 219 683V720H268V683Q268 669 267.5 659Q267 649 266 636L258 536L350 575Q356 578 367 582Q378 586 393 592L427 603L442 556L408 544Q390 539 379 535.5Q368 532 364 531L267 508L333 431Q343 419 352.5 406.5Q362 394 362 394L384 364L343 335L321 365Q319 367 317.5 370Q316 373 311 380Q306 388 302.5 393.5Q299 399 296 404L245 490L194 403Q188 392 182.5 383.5Q177 375 168 364L148 334Z" glyph-name="asterisk" horiz-adv-x="489" unicode="*" /><glyph d="M204 677 204 360H158V677H43V720H318L312 677ZM606 450 568 450L460 641V360H415V720H462L587 501L712 720H759V360H714V642Z" glyph-name="trademark" horiz-adv-x="839" unicode="™" /><glyph d="M715 540Q715 382 630 294.5Q545 207 394 207Q244 207 158.5 294.5Q73 382 73 540Q73 698 158 785Q243 872 394 872Q545 872 630 785Q715 698 715 540ZM117 540Q117 400 189.5 324.5Q262 249 394 249Q526 249 598.5 324.5Q671 400 671 540Q671 680 598.5 755Q526 830 394 830Q262 830 189.5 755Q117 680 117 540ZM324 503 324 360H278V720H405Q461 720 491 691.5Q521 663 521 611Q521 569 501 542Q481 515 442 507L534 360H480L392 503ZM474 611Q474 646 457 662Q440 678 405 678H324V545H405Q440 545 457 561Q474 577 474 611Z" glyph-name="registered" horiz-adv-x="788" unicode="®" /><glyph d="M839 360Q839 173 738.5 70Q638 -33 459 -33Q280 -33 179.5 70Q79 173 79 360Q79 547 179.5 649.5Q280 752 459 752Q638 752 738.5 649.5Q839 547 839 360ZM130 360Q130 193 216.5 103Q303 13 459 13Q615 13 701 103Q787 193 787 360Q787 527 701.5 616.5Q616 706 459 706Q302 706 216 616.5Q130 527 130 360ZM454 549Q377 549 341.5 504.5Q306 460 306 360Q306 260 341.5 215.5Q377 171 454 171Q490 171 524.5 181Q559 191 592 211L613 170Q581 149 539 137Q497 125 454 125Q355 125 304.5 184.5Q254 244 254 360Q254 476 304.5 535.5Q355 595 454 595Q495 595 534.5 584Q574 573 604 554L584 513Q554 531 521.5 540Q489 549 454 549Z" glyph-name="copyright" horiz-adv-x="918" unicode="©" /><glyph d="M1000 277Q1000 145 951 72.5Q902 0 813 0Q767 0 738.5 19.5Q710 39 699 77Q658 37 615 18.5Q572 0 521 0Q427 0 377.5 63Q328 126 328 245Q328 364 377.5 427Q427 490 521 490Q570 490 612 472.5Q654 455 694 418V480H743V120Q743 84 762 65Q781 46 816 46Q880 46 914.5 105Q949 164 949 277Q949 470 841 577Q733 684 542 684Q348 684 241.5 573Q135 462 135 256Q135 49 241.5 -62.5Q348 -174 544 -174Q597 -174 651 -165.5Q705 -157 758 -141L770 -187Q719 -203 661 -211.5Q603 -220 544 -220Q326 -220 204.5 -95.5Q83 29 83 256Q83 481 205 605.5Q327 730 542 730Q755 730 877.5 610Q1000 490 1000 277ZM527 444Q454 444 417 393.5Q380 343 380 245Q380 147 417 96.5Q454 46 527 46Q569 46 611 64.5Q653 83 694 120V370Q653 407 611 425.5Q569 444 527 444Z" glyph-name="at" horiz-adv-x="1079" unicode="@" /><glyph d="M387 166Q426 146 445.5 111.5Q465 77 465 28Q465 -49 417 -88.5Q369 -128 275 -128Q220 -128 171.5 -113.5Q123 -99 77 -69L99 -27Q140 -56 182 -69Q224 -82 276 -82Q349 -82 382.5 -56Q416 -30 416 26Q416 78 388 104.5Q360 131 297 142L240 152Q157 166 117 204.5Q77 243 77 308Q77 358 99.5 391.5Q122 425 167 442Q127 461 106.5 494.5Q86 528 86 576Q86 651 133 690.5Q180 730 270 730Q321 730 366.5 717.5Q412 705 452 679L430 637Q392 662 354 673Q316 684 269 684Q201 684 168.5 658Q136 632 136 578Q136 530 164 504.5Q192 479 254 468L312 458Q395 444 435 404Q475 364 475 296Q475 249 452.5 216Q430 183 387 166ZM127 310Q127 263 156.5 237.5Q186 212 254 200L302 192Q366 196 395.5 220.5Q425 245 425 294Q425 345 395.5 371.5Q366 398 297 410L263 416Q194 415 160.5 389Q127 363 127 310Z" glyph-name="section" horiz-adv-x="552" unicode="§" /><glyph d="M165 0 113 0L174 217H50V265H187L246 477H117V525H260L314 720H366L312 525H563L617 720H669L615 525H738V477H601L542 265H671V217H529L468 0H416L477 217H226ZM298 477 239 265H490L549 477Z" glyph-name="numbersign" horiz-adv-x="788" unicode="#" /><glyph d="M177 632 177 0H126V720H182L585 88V713L636 720V0H580ZM1120 552Q1120 471 1070.5 423Q1021 375 941 375Q861 375 811.5 423Q762 471 762 552Q762 634 811 682Q860 730 941 730Q1022 730 1071 682Q1120 634 1120 552ZM811 552Q811 489 845.5 454Q880 419 941 419Q1002 419 1036.5 453.5Q1071 488 1071 552Q1071 617 1037 651.5Q1003 686 941 686Q879 686 845 651.5Q811 617 811 552Z" glyph-name="uni2116" horiz-adv-x="1182" unicode="№" /><glyph d="M218 301 511 301L505 253H222Q238 142 293 90Q348 38 448 38Q497 38 543 51.5Q589 65 637 94L659 51Q611 21 557.5 5.5Q504 -10 448 -10Q328 -10 258 56Q188 122 169 253H61V301H164Q163 323 162.5 336Q162 349 162 360Q162 372 162.5 385.5Q163 399 164 423H61V471H170Q189 600 258.5 665Q328 730 448 730Q503 730 553.5 716Q604 702 648 674L626 631Q583 657 539.5 669.5Q496 682 448 682Q349 682 294 631Q239 580 223 471H531L525 423H218Q217 399 216.5 385.5Q216 372 216 360Q216 349 216.5 336Q217 323 218 301Z" glyph-name="Euro" horiz-adv-x="710" unicode="€" /><glyph d="M335 -10 335 -128H283V-9Q219 -5 166.5 12.5Q114 30 65 64L89 107Q139 70 193.5 54Q248 38 321 38Q413 38 457 74Q501 110 501 184Q501 246 467.5 278.5Q434 311 354 328L273 345Q172 366 125 413Q78 460 78 540Q78 629 130 677Q182 725 283 730V846L335 853V729Q394 725 444.5 708Q495 691 540 659L516 616Q468 651 417.5 666.5Q367 682 304 682Q217 682 173.5 647Q130 612 130 542Q130 481 167 446.5Q204 412 285 395L366 378Q466 357 509.5 312Q553 267 553 184Q553 89 499 41Q445 -7 335 -10Z" glyph-name="dollar" horiz-adv-x="623" unicode="$" /><glyph d="M358 177 358 0H306V177H90V225H306V262L258 347H90V395H231L48 720H108L333 316L560 720H616L433 395H574V347H406L358 262V225H574V177Z" glyph-name="yen" horiz-adv-x="666" unicode="¥" /><glyph d="M560 0 66 0V48H174Q191 84 199.5 117.5Q208 151 208 185Q208 214 202 243.5Q196 273 181 310H66V358H160Q132 421 123 458.5Q114 496 114 534Q114 629 169.5 679.5Q225 730 331 730Q389 730 442 714.5Q495 699 543 668L521 625Q474 654 428 668Q382 682 333 682Q252 682 209.5 644.5Q167 607 167 536Q167 507 174 476.5Q181 446 217 358H457V310H235Q247 277 253 246Q259 215 259 185Q259 151 250.5 117.5Q242 84 225 48H554Z" glyph-name="sterling" horiz-adv-x="612" unicode="£" /><glyph d="M299 106 299 -13H247V106Q157 115 111.5 179.5Q66 244 66 360Q66 476 111.5 540.5Q157 605 247 614V731L299 738V614Q336 612 371.5 600.5Q407 589 436 571L415 530Q383 549 348.5 559Q314 569 276 569Q194 569 156 520Q118 471 118 360Q118 249 156 200Q194 151 276 151Q315 151 352 162Q389 173 424 194L444 153Q414 133 376.5 121Q339 109 299 106Z" glyph-name="cent" horiz-adv-x="473" unicode="¢" /><glyph d="M182 202 95 113L61 147L148 236Q129 260 119.5 291.5Q110 323 110 360Q110 397 119.5 429Q129 461 148 486L61 574L95 608L182 519Q207 538 239 548Q271 558 308 558Q345 558 377.5 548Q410 538 436 519L523 608L557 574L469 485Q488 461 497.5 429.5Q507 398 507 360Q507 323 497.5 291.5Q488 260 469 236L557 147L523 113L436 202Q410 183 377.5 173Q345 163 308 163Q272 163 240 173Q208 183 182 202ZM159 360Q159 287 199 247Q239 207 308 207Q379 207 419 247Q459 287 459 360Q459 434 419.5 474Q380 514 308 514Q237 514 198 474Q159 434 159 360Z" glyph-name="currency" horiz-adv-x="618" unicode="¤" /><glyph d="M610 360Q610 176 544 83Q478 -10 347 -10Q216 -10 150 83Q84 176 84 360Q84 544 150 637Q216 730 347 730Q478 730 544 637Q610 544 610 360ZM138 360Q138 191 188.5 114.5Q239 38 347 38Q456 38 506 114Q556 190 556 360Q556 530 506 606Q456 682 347 682Q239 682 188.5 605.5Q138 529 138 360Z" glyph-name="zero" horiz-adv-x="695" unicode="0" /><glyph d="M424 0 71 0V48H227V667L67 601L51 644L243 725H279V48H424Z" glyph-name="one" horiz-adv-x="469" unicode="1" /><glyph d="M505 0 59 0V31L302 297Q371 372 399 423Q427 474 427 530Q427 604 388 643Q349 682 276 682Q227 682 179 666Q131 650 74 615L52 658Q110 695 165 712.5Q220 730 278 730Q376 730 428.5 678.5Q481 627 481 530Q481 466 453 411Q425 356 342 267L141 48H499Z" glyph-name="two" horiz-adv-x="567" unicode="2" /><glyph d="M68 720 485 720V689L235 431Q242 432 251 432.5Q260 433 276 433Q391 433 449.5 377.5Q508 322 508 212Q508 103 449.5 46.5Q391 -10 278 -10Q218 -10 162.5 7Q107 24 51 60L73 103Q128 69 177 53.5Q226 38 278 38Q366 38 410 82Q454 126 454 212Q454 301 409.5 343Q365 385 272 385Q247 385 220 382Q193 379 164 373L151 409L403 672H68Z" glyph-name="three" horiz-adv-x="579" unicode="3" /><glyph d="M431 177 52 177V208L306 720H362L116 225H431V440H483V0H431Z" glyph-name="four" horiz-adv-x="573" unicode="4" /><glyph d="M115 357 92 377L118 720H482V672H162L143 416Q174 429 211 435.5Q248 442 293 442Q409 442 467.5 385.5Q526 329 526 216Q526 105 467.5 47.5Q409 -10 296 -10Q236 -10 180 7Q124 24 70 60L92 103Q146 70 195.5 54Q245 38 296 38Q383 38 427.5 83Q472 128 472 216Q472 306 426 350Q380 394 286 394Q239 394 197 385Q155 376 115 357Z" glyph-name="five" horiz-adv-x="597" unicode="5" /><glyph d="M563 215Q563 111 503.5 50.5Q444 -10 340 -10Q214 -10 149 81Q84 172 84 347Q84 533 155.5 631.5Q227 730 366 730Q409 730 452.5 721Q496 712 533 695L514 651Q478 666 441 674Q404 682 366 682Q250 682 194 604.5Q138 527 137 355Q180 396 232.5 417Q285 438 345 438Q447 438 505 378.5Q563 319 563 215ZM510 215Q510 299 467.5 344.5Q425 390 345 390Q289 390 236.5 368.5Q184 347 138 305Q144 168 193 103Q242 38 340 38Q423 38 466.5 83.5Q510 129 510 215Z" glyph-name="six" horiz-adv-x="634" unicode="6" /><glyph d="M263 72 263 0H211V72Q211 169 225 219.5Q239 270 280 352L441 672H43V720H505V689L323 325Q288 254 275.5 207.5Q263 161 263 72Z" glyph-name="seven" horiz-adv-x="553" unicode="7" /><glyph d="M570 193Q570 96 506 43Q442 -10 324 -10Q206 -10 142 43Q78 96 78 193Q78 262 112 308Q146 354 212 374Q158 394 131 435.5Q104 477 104 539Q104 630 161.5 680Q219 730 324 730Q429 730 486.5 680Q544 630 544 539Q544 477 517 435.5Q490 394 436 374Q502 354 536 308Q570 262 570 193ZM158 539Q158 468 199.5 432Q241 396 324 396Q407 396 448.5 432Q490 468 490 539Q490 610 448.5 646Q407 682 324 682Q241 682 199.5 646Q158 610 158 539ZM132 194Q132 116 180 77Q228 38 324 38Q420 38 468 77Q516 116 516 194Q516 272 468 311Q420 350 324 350Q228 350 180 311Q132 272 132 194Z" glyph-name="eight" horiz-adv-x="648" unicode="8" /><glyph d="M70 505Q70 609 129.5 669.5Q189 730 293 730Q419 730 484 639Q549 548 549 373Q549 187 477.5 88.5Q406 -10 267 -10Q224 -10 180.5 -1Q137 8 100 25L119 69Q155 54 192 46Q229 38 267 38Q383 38 439 115.5Q495 193 496 365Q453 324 400.5 303Q348 282 288 282Q186 282 128 341.5Q70 401 70 505ZM293 682Q210 682 166.5 636.5Q123 591 123 505Q123 421 165.5 375.5Q208 330 288 330Q344 330 396.5 351.5Q449 373 495 415Q489 552 440 617Q391 682 293 682Z" glyph-name="nine" horiz-adv-x="634" unicode="9" /><glyph d="M1120 552Q1120 471 1070.5 423Q1021 375 941 375Q861 375 811.5 423Q762 471 762 552Q762 634 811 682Q860 730 941 730Q1022 730 1071 682Q1120 634 1120 552ZM811 552Q811 489 845.5 454Q880 419 941 419Q1002 419 1036.5 453.5Q1071 488 1071 552Q1071 617 1037 651.5Q1003 686 941 686Q879 686 845 651.5Q811 617 811 552Z" glyph-name="degree" horiz-adv-x="481" unicode="°" /><glyph d="M396 561Q396 485 352.5 439Q309 393 234 393Q158 393 114.5 439Q71 485 71 561Q71 636 115 682.5Q159 729 234 729Q309 729 352.5 682.5Q396 636 396 561ZM264 0 211 0L632 720H686ZM118 561Q118 503 148 470.5Q178 438 234 438Q289 438 319 470.5Q349 503 349 561Q349 619 319 651.5Q289 684 234 684Q178 684 148 651.5Q118 619 118 561ZM826 158Q826 82 782.5 36Q739 -10 663 -10Q587 -10 543.5 36Q500 82 500 158Q500 233 544 279.5Q588 326 663 326Q738 326 782 279.5Q826 233 826 158ZM547 158Q547 100 577 67.5Q607 35 663 35Q719 35 749 67.5Q779 100 779 158Q779 216 749 248.5Q719 281 663 281Q607 281 577 248.5Q547 216 547 158Z" glyph-name="percent" horiz-adv-x="897" unicode="%" /><glyph d="M53 0 0 0L421 720H475Z" glyph-name="fraction" horiz-adv-x="475" unicode="⁄" /><glyph d="M353 544Q353 452 317.5 405.5Q282 359 212 359Q142 359 106.5 405.5Q71 452 71 544Q71 635 106.5 682Q142 729 212 729Q282 729 317.5 682.5Q353 636 353 544ZM117 544Q117 471 140 437.5Q163 404 212 404Q261 404 284 437.5Q307 471 307 544Q307 617 284 650.5Q261 684 212 684Q163 684 140 650.5Q117 617 117 544Z" glyph-name="zero.numerator" horiz-adv-x="424" unicode="" /><glyph d="M267 364 70 364V409H148V675L73 642L57 682L156 726H196V409H267Z" glyph-name="one.numerator" horiz-adv-x="323" unicode="" /><glyph d="M296 364 63 364V400L173 512Q206 546 221 573Q236 600 236 626Q236 656 220.5 670Q205 684 172 684Q149 684 126.5 677Q104 670 79 654L60 693Q86 711 114 720Q142 729 173 729Q227 729 256 702.5Q285 676 285 626Q285 591 268 560Q251 529 209 487L130 409H290Z" glyph-name="two.numerator" horiz-adv-x="364" unicode="" /><glyph d="M70 724 289 724V687L177 584Q238 583 269 555Q300 527 300 473Q300 417 268 388Q236 359 175 359Q142 359 113 368Q84 377 57 395L78 435Q104 419 127.5 411.5Q151 404 175 404Q214 404 234 421.5Q254 439 254 473Q254 508 234 525Q214 542 172 542Q158 542 145.5 540.5Q133 539 121 536L107 571L222 679H70Z" glyph-name="three.numerator" horiz-adv-x="368" unicode="" /><glyph d="M240 443 57 443V478L176 720H225L111 486H240V579H287V364H240Z" glyph-name="four.numerator" horiz-adv-x="359" unicode="" /><glyph d="M267 364 70 364V409H148V675L73 642L57 682L156 726H196V409H267ZM229 0 176 0L597 720H651ZM809 0 576 0V36L686 148Q719 182 734 209Q749 236 749 262Q749 292 733.5 306Q718 320 685 320Q662 320 639.5 313Q617 306 592 290L573 329Q599 347 627 356Q655 365 686 365Q740 365 769 338.5Q798 312 798 262Q798 227 781 196Q764 165 722 123L643 45H803Z" glyph-name="onehalf" horiz-adv-x="877" unicode="½" /><glyph d="M267 364 70 364V409H148V675L73 642L57 682L156 726H196V409H267ZM229 0 176 0L597 720H651ZM584 360 803 360V323L691 220Q752 219 783 191Q814 163 814 109Q814 53 782 24Q750 -5 689 -5Q656 -5 627 4Q598 13 571 31L592 71Q618 55 641.5 47.5Q665 40 689 40Q728 40 748 57.5Q768 75 768 109Q768 144 748 161Q728 178 686 178Q672 178 659.5 176.5Q647 175 635 172L621 207L736 315H584Z" glyph-name="onethird" horiz-adv-x="882" unicode="⅓" /><glyph d="M267 364 70 364V409H148V675L73 642L57 682L156 726H196V409H267ZM229 0 176 0L597 720H651ZM742 79 559 79V114L678 356H727L613 122H742V215H789V0H742Z" glyph-name="onequarter" horiz-adv-x="862" unicode="¼" /><glyph d="M313 117 265 117V300H86V348H265V531H313V348H485L492 300H313Z" glyph-name="plus" horiz-adv-x="578" unicode="+" /><glyph d="M86 300 86 348H485L492 300Z" glyph-name="minus" horiz-adv-x="578" unicode="−" /><glyph d="M153 150 119 184L255 324L119 463L153 497L289 358L425 497L459 463L323 324L459 184L425 150L289 289Z" glyph-name="multiply" horiz-adv-x="578" unicode="×" /><glyph d="M261 443 261 503L317 510V443ZM86 300 86 348H485L492 300ZM317 206 317 146L261 139V206Z" glyph-name="divide" horiz-adv-x="578" unicode="÷" /><glyph d="M86 412 86 460H485L492 412ZM86 188 86 236H492V188Z" glyph-name="equal" horiz-adv-x="578" unicode="=" /><glyph d="M75 300 75 348H481V117H434V300Z" glyph-name="logicalnot" horiz-adv-x="578" unicode="¬" /><glyph d="M394 261Q369 261 344.5 269Q320 277 277 303Q240 325 221.5 331.5Q203 338 186 338Q157 338 141 320.5Q125 303 125 271H78Q78 326 106 356Q134 386 184 386Q208 386 232 378Q256 370 299 345Q336 322 355 315.5Q374 309 392 309Q422 309 437 327Q452 345 452 380L500 374Q500 320 472 290.5Q444 261 394 261Z" glyph-name="asciitilde" horiz-adv-x="578" unicode="~" /><glyph d="M155 325 484 167V113L78 310V337L480 532L487 484Z" glyph-name="less" horiz-adv-x="578" unicode="&lt;" /><glyph d="M500 337 500 310L93 113V164L423 322L93 480V534Z" glyph-name="greater" horiz-adv-x="578" unicode="&gt;" /><glyph d="M313 117 265 117V300H86V348H265V531H313V348H485L492 300H313ZM86 0 86 48H485L492 0Z" glyph-name="plusminus" horiz-adv-x="578" unicode="±" /><glyph d="M496 313 443 313L288 648L133 313H82L276 727H303Z" glyph-name="asciicircum" horiz-adv-x="578" unicode="^" /><glyph d="M186 55 133 55L197 188H86V236H220L305 412H86V460H328L392 593H444L380 460H485L492 412H357L273 236H492V188H250Z" glyph-name="notequal" horiz-adv-x="578" unicode="≠" /><glyph d="M394 373Q369 373 344.5 381Q320 389 277 415Q240 437 221.5 443.5Q203 450 186 450Q157 450 141 432.5Q125 415 125 383H78Q78 438 106 468Q134 498 184 498Q208 498 232 490Q256 482 299 457Q336 434 355 427.5Q374 421 392 421Q422 421 437 439Q452 457 452 492L500 486Q500 432 472 402.5Q444 373 394 373ZM394 149Q369 149 344.5 157Q320 165 277 191Q240 213 221.5 219.5Q203 226 186 226Q157 226 141 208.5Q125 191 125 159H78Q78 214 106 244Q134 274 184 274Q208 274 232 266Q256 258 299 233Q336 210 355 203.5Q374 197 392 197Q422 197 437 215Q452 233 452 268L500 262Q500 208 472 178.5Q444 149 394 149Z" glyph-name="approxequal" horiz-adv-x="578" unicode="≈" /><glyph d="M155 425 484 267V213L78 410V437L480 632L487 584ZM79 197 79 245L485 48V0Z" glyph-name="lessequal" horiz-adv-x="578" unicode="≤" /><glyph d="M500 437 500 410L93 213V267L423 425L93 583V634ZM92 48 499 245V197L92 0Z" glyph-name="greaterequal" horiz-adv-x="578" unicode="≥" /><glyph d="M660 279 660 272H174Q172 272 171 271Q170 270 170 269V110Q170 105 171.5 100Q173 95 177 91Q213 50 260.5 28Q308 6 359 6Q415 6 465 30.5Q515 55 552 101H595Q553 48 490.5 18.5Q428 -11 357 -11Q233 -11 146 74Q59 159 60 279Q61 401 149.5 487Q238 573 363 573Q487 573 573.5 487.5Q660 402 660 279ZM550 292 550 452Q550 460 548.5 464.5Q547 469 544 472Q508 512 461.5 533.5Q415 555 363 555Q312 555 264.5 532.5Q217 510 180 469Q174 461 172 457Q170 453 170 449V292Q170 291 171.5 289.5Q173 288 174 288H547Q548 288 549 289Q550 290 550 292Z" glyph-name="estimated" horiz-adv-x="707" unicode="℮" /><glyph d="M466 340Q466 263 415 221.5Q364 180 268 180Q247 180 230 181.5Q213 183 199 187L151 87L345 66Q421 58 458.5 24.5Q496 -9 496 -68Q496 -143 438.5 -181.5Q381 -220 267 -220Q164 -220 112 -184.5Q60 -149 60 -79Q60 -40 77.5 -8.5Q95 23 129 44Q116 48 110 56.5Q104 65 104 79Q104 88 107 97Q110 106 118 121L160 198Q116 217 93 253Q70 289 70 340Q70 416 121 458Q172 500 268 500Q290 500 310.5 497.5Q331 495 351 490H524V448H419Q442 431 454 403.5Q466 376 466 340ZM117 340Q117 279 154 251Q191 223 268 223Q345 223 382 251Q419 279 419 340Q419 401 382 429Q345 457 268 457Q191 457 154 429Q117 401 117 340ZM108 -74Q108 -128 146 -152Q184 -176 267 -176Q362 -176 405 -151Q448 -126 448 -72Q448 -30 421.5 -8Q395 14 337 20L190 36Q147 14 127.5 -12Q108 -38 108 -74Z" glyph-name="g.alt" horiz-adv-x="561" unicode="" /><glyph d="M103 0 103 490H153V405Q204 454 251.5 477Q299 500 350 500Q356 500 362.5 499.5Q369 499 373 498L367 452Q306 452 255.5 428.5Q205 405 153 353V0Z" glyph-name="r.alt" horiz-adv-x="396" unicode="" /></font>
</defs>
</svg>
