<?xml version="1.0" standalone="no"?>
<!DOCTYPE svg
  PUBLIC '-//W3C//DTD SVG 1.1//EN'
  'http://www.w3.org/Graphics/SVG/1.1/DTD/svg11.dtd'><svg version="1.1" xmlns="http://www.w3.org/2000/svg"><defs><font horiz-adv-x="0" id="font"><font-face ascent="780" bbox="-75 -226 1139 991" cap-height="720" descent="-220" font-family="MAIF Medium" font-stretch="normal" font-style="normal" font-weight="720" units-per-em="1000" x-height="503" /><missing-glyph d="M672 720 583 0H56L145 720ZM249 610 187 109H479L541 610Z" horiz-adv-x="702" /><glyph d="" glyph-name=".null" horiz-adv-x="0" unicode="" /><glyph d="" glyph-name="CR" horiz-adv-x="0" unicode="" /><glyph d="" glyph-name="space" horiz-adv-x="257" unicode=" " /><glyph d="" glyph-name="uni00A0" horiz-adv-x="257" unicode=" " /><glyph d="M-8 0 328 720H436L597 0H476L443 162H186L113 0ZM366 571 232 264H424Z" glyph-name="A" horiz-adv-x="650" unicode="A" /><glyph d="M571 223Q571 122 506.5 61Q442 0 325 0H56L144 720H384Q478 720 529.5 673.5Q581 627 581 546Q581 488 556 443.5Q531 399 484 374Q527 354 549 315.5Q571 277 571 223ZM460 538Q460 578 440.5 597Q421 616 380 616H246L222 419H356Q406 419 433 450.5Q460 482 460 538ZM452 228Q452 275 430 296.5Q408 318 360 318H210L184 103H334Q391 103 421.5 136Q452 169 452 228Z" glyph-name="B" horiz-adv-x="624" unicode="B" /><glyph d="M326 99Q368 99 409.5 111Q451 123 492 147L532 50Q485 20 430 5Q375 -10 315 -10Q190 -10 126.5 65.5Q63 141 63 288Q63 491 149.5 610.5Q236 730 394 730Q450 730 499.5 714Q549 698 589 668L535 575Q503 597 467 608.5Q431 620 393 620Q291 620 238 534Q185 448 185 288Q185 188 218.5 143.5Q252 99 326 99Z" glyph-name="C" horiz-adv-x="582" unicode="C" /><glyph d="M650 422Q650 234 560 117Q470 0 311 0H56L145 720H391Q517 720 583.5 643Q650 566 650 422ZM187 108 319 108Q418 108 473.5 194Q529 280 529 422Q529 520 493.5 565.5Q458 611 383 611H250Z" glyph-name="D" horiz-adv-x="683" unicode="D" /><glyph d="M508 0 56 0L145 720H572L559 613H248L224 421H484L471 315H212L186 106H508Z" glyph-name="E" horiz-adv-x="572" unicode="E" /><glyph d="M208 279 174 0H56L145 720H572L545 611H250L222 388H480L466 279Z" glyph-name="F" horiz-adv-x="541" unicode="F" /><glyph d="M590 355 552 55Q502 23 444 6.5Q386 -10 324 -10Q193 -10 127 65.5Q61 141 61 288Q61 492 150 611Q239 730 403 730Q462 730 514.5 713Q567 696 610 664L556 571Q521 595 482.5 607.5Q444 620 402 620Q295 620 239 533.5Q183 447 183 288Q183 187 219 142Q255 97 335 97Q363 97 389.5 101.5Q416 106 442 115L470 340Z" glyph-name="G" horiz-adv-x="632" unicode="G" /><glyph d="M174 0 56 0L145 720H263L227 427H518L553 714L673 729L583 0H466L505 318H213Z" glyph-name="H" horiz-adv-x="702" unicode="H" /><glyph d="M264 729 174 0H56L144 714Z" glyph-name="I" horiz-adv-x="292" unicode="I" /><glyph d="M145 714 264 729L182 55Q171 -26 149 -75.5Q127 -125 76 -188L50 -220L-32 -147L-6 -111Q28 -64 42.5 -31Q57 2 63 52Z" glyph-name="J" horiz-adv-x="292" unicode="J" /><glyph d="M213 316 174 0H56L144 714L264 729L226 425H293L532 720H676L394 375L608 0H465L289 316Z" glyph-name="K" horiz-adv-x="657" unicode="K" /><glyph d="M187 108 476 108V0H56L144 714L264 729Z" glyph-name="L" horiz-adv-x="530" unicode="L" /><glyph d="M447 180 360 180L234 525L170 0H56L145 720H263L416 308L677 720H795L706 0H593L657 515Z" glyph-name="M" horiz-adv-x="824" unicode="M" /><glyph d="M234 530 169 0H56L145 720H263L489 187L553 714L668 729L579 0H461Z" glyph-name="N" horiz-adv-x="697" unicode="N" /><glyph d="M62 297Q62 490 152 610Q242 730 401 730Q528 730 594.5 650.5Q661 571 661 422Q661 229 571 109.5Q481 -10 321 -10Q195 -10 128.5 69.5Q62 149 62 297ZM184 297Q184 194 219.5 146Q255 98 330 98Q428 98 483.5 187Q539 276 539 422Q539 525 503.5 573Q468 621 393 621Q294 621 239 532.5Q184 444 184 297Z" glyph-name="O" horiz-adv-x="695" unicode="O" /><glyph d="M202 225 174 0H56L144 720H380Q486 720 542 663.5Q598 607 598 501Q598 374 528 299.5Q458 225 330 225ZM474 499Q474 558 449.5 584.5Q425 611 372 611H249L215 334H339Q404 334 439 377.5Q474 421 474 499Z" glyph-name="P" horiz-adv-x="609" unicode="P" /><glyph d="M460 19 501 -180L390 -208L348 -9Q344 -10 338.5 -10Q333 -10 321 -10Q195 -10 128.5 69.5Q62 149 62 297Q62 490 152 610Q242 730 401 730Q528 730 594.5 650.5Q661 571 661 422Q661 279 608.5 171Q556 63 460 19ZM184 297Q184 194 219.5 146Q255 98 330 98Q428 98 483.5 187Q539 276 539 422Q539 525 503.5 573Q468 621 393 621Q294 621 239 532.5Q184 444 184 297Z" glyph-name="Q" horiz-adv-x="695" unicode="Q" /><glyph d="M207 273 174 0H56L144 720H396Q497 720 549.5 668Q602 616 602 518Q602 427 561 366.5Q520 306 442 284L569 0H440L322 273ZM480 517Q480 566 458 588.5Q436 611 389 611H249L220 376H360Q418 376 449 413Q480 450 480 517Z" glyph-name="R" horiz-adv-x="633" unicode="R" /><glyph d="M528 206Q528 104 461 47Q394 -10 270 -10Q199 -10 139.5 8Q80 26 23 64L76 161Q129 128 177 113Q225 98 277 98Q344 98 377.5 123.5Q411 149 411 200Q411 238 391.5 260Q372 282 326 296L253 317Q167 343 126.5 391Q86 439 86 517Q86 618 151 674Q216 730 336 730Q400 730 455.5 712.5Q511 695 563 658L510 562Q471 591 425 606Q379 621 329 621Q266 621 234.5 596.5Q203 572 203 524Q203 487 224.5 465.5Q246 444 295 430L368 409Q450 386 489 336.5Q528 287 528 206Z" glyph-name="S" horiz-adv-x="577" unicode="S" /><glyph d="M400 611 324 0H207L282 611H69L82 720H627L601 611Z" glyph-name="T" horiz-adv-x="590" unicode="T" /><glyph d="M661 729 605 274Q587 130 515 60Q443 -10 313 -10Q183 -10 122.5 68.5Q62 147 79 288L132 720H250L197 281Q185 185 215 141.5Q245 98 320 98Q395 98 435.5 141.5Q476 185 488 281L541 714Z" glyph-name="U" horiz-adv-x="677" unicode="U" /><glyph d="M672 720 337 0H232L76 720H197L306 181L548 720Z" glyph-name="V" horiz-adv-x="633" unicode="V" /><glyph d="M696 0 592 0L507 547L287 0H182L81 720H198L262 191L476 720H577L658 191L855 720H976Z" glyph-name="W" horiz-adv-x="941" unicode="W" /><glyph d="M262 370 91 720H224L342 471L519 720H653L397 370L577 0H443L316 269L124 0H-8Z" glyph-name="X" horiz-adv-x="628" unicode="X" /><glyph d="M362 263 330 0H211L244 264L71 720H195L316 390L520 720H648Z" glyph-name="Y" horiz-adv-x="603" unicode="Y" /><glyph d="M502 0 9 0L21 91L405 611H98L111 720H571L560 628L175 108H502Z" glyph-name="Z" horiz-adv-x="567" unicode="Z" /><glyph d="M871 0 419 0L439 163H215L113 0H-12L445 720H934L921 613H611L587 421H846L833 315H575L549 106H871ZM494 610 279 266H452Z" glyph-name="AE" horiz-adv-x="935" unicode="Æ" /><glyph d="M60 297Q60 486 150 603Q240 720 399 720H963L950 613H639L615 421H875L862 315H603L577 106H900V0H319Q192 0 126 76.5Q60 153 60 297ZM523 613 391 613Q292 613 236.5 526.5Q181 440 181 297Q181 198 216.5 152Q252 106 327 106H461Z" glyph-name="OE" horiz-adv-x="963" unicode="Œ" /><glyph d="M404 97Q459 97 488.5 132.5Q518 168 518 233Q518 280 496 300.5Q474 321 427 321H334L344 407L482 608Q461 615 438.5 618Q416 621 392 621Q313 621 270.5 577.5Q228 534 216 438L162 0H44L99 446Q116 588 190.5 659Q265 730 397 730Q454 730 506.5 714.5Q559 699 600 669L590 594L472 423Q555 415 598.5 365.5Q642 316 642 233Q642 122 580.5 56Q519 -10 406 -10Q354 -10 311 3.5Q268 17 230 44L283 137Q310 117 340.5 107Q371 97 404 97Z" glyph-name="uni1E9E" horiz-adv-x="682" unicode="ẞ" /><glyph d="M500 503 456 134Q453 115 457.5 108.5Q462 102 480 102H508V0H462Q417 0 390 14Q363 28 353 58Q315 22 279 6Q243 -10 201 -10Q123 -10 81.5 46Q40 102 40 207Q40 343 97.5 428Q155 513 256 513Q295 513 327 498.5Q359 484 387 453L393 503ZM271 410Q213 410 181 356Q149 302 149 211Q149 150 169 121.5Q189 93 232 93Q259 93 288 104Q317 115 348 138L349 143L376 365Q349 388 323 399Q297 410 271 410Z" glyph-name="a" horiz-adv-x="554" unicode="a" /><glyph d="M143 0 39 0L131 746L240 760L203 460Q236 488 269.5 500.5Q303 513 341 513Q421 513 463 456.5Q505 400 505 295Q505 159 446.5 74.5Q388 -10 285 -10Q244 -10 211.5 5Q179 20 150 52ZM271 94Q330 94 362 147.5Q394 201 394 292Q394 353 373.5 381Q353 409 310 409Q282 409 253 398Q224 387 192 365L164 138Q189 116 215.5 105Q242 94 271 94Z" glyph-name="b" horiz-adv-x="545" unicode="b" /><glyph d="M280 411Q216 411 182.5 359Q149 307 149 210Q149 147 171 119.5Q193 92 241 92Q274 92 304.5 101Q335 110 364 127L399 38Q364 14 321 2Q278 -10 228 -10Q135 -10 87 46Q39 102 39 210Q39 353 101.5 433Q164 513 282 513Q327 513 366.5 500.5Q406 488 435 464L387 377Q363 394 336.5 402.5Q310 411 280 411Z" glyph-name="c" horiz-adv-x="443" unicode="c" /><glyph d="M538 760 445 0H341L347 48Q313 18 278.5 4Q244 -10 204 -10Q124 -10 82 46Q40 102 40 207Q40 343 98.5 428Q157 513 259 513Q300 513 332.5 498.5Q365 484 393 453L429 745ZM274 409Q215 409 182.5 355Q150 301 150 211Q150 150 170.5 122Q191 94 235 94Q263 94 293 105Q323 116 354 139L382 364Q356 386 329 397.5Q302 409 274 409Z" glyph-name="d" horiz-adv-x="545" unicode="d" /><glyph d="M464 240Q462 230 461.5 225Q461 220 461 215H146V213Q146 145 172.5 115.5Q199 86 259 86Q297 86 335.5 96.5Q374 107 409 128L444 44Q403 18 352 4Q301 -10 246 -10Q143 -10 90.5 46.5Q38 103 38 213Q38 347 102.5 430Q167 513 281 513Q373 513 420.5 461Q468 409 468 309Q468 295 467 280.5Q466 266 465 251Q465 249 464.5 246.5Q464 244 464 240ZM275 421Q229 421 198.5 391Q168 361 155 303H364V310Q364 367 342.5 394Q321 421 275 421Z" glyph-name="e" horiz-adv-x="507" unicode="e" /><glyph d="M116 404 35 404L47 503H128L139 594Q149 673 181 704Q213 735 308 747L402 758L390 656L308 645Q274 640 262 628.5Q250 617 246 586L236 503H371L358 404H223L173 0H66Z" glyph-name="f" horiz-adv-x="359" unicode="f" /><glyph d="M256 -124Q293 -124 310 -102.5Q327 -81 334 -29L344 48Q310 20 276.5 7Q243 -6 204 -6Q124 -6 82 49.5Q40 105 40 209Q40 344 98.5 428.5Q157 513 259 513Q300 513 333.5 497.5Q367 482 396 449L403 503H506L440 -38Q429 -134 385.5 -177Q342 -220 256 -220Q246 -220 235 -219.5Q224 -219 176 -215L36 -198L50 -103L190 -120Q204 -122 220.5 -123Q237 -124 256 -124ZM274 410Q214 410 181.5 356.5Q149 303 149 212Q149 152 170 124Q191 96 235 96Q263 96 293 107Q323 118 355 141L382 365Q356 387 329 398.5Q302 410 274 410Z" glyph-name="g" horiz-adv-x="545" unicode="g" /><glyph d="M344 513Q424 513 462.5 456Q501 399 488 299L452 0H345L382 302Q389 355 371 381Q353 407 310 407Q281 407 251.5 396Q222 385 192 364L146 0H39L130 746L240 760L203 456Q238 485 272.5 499Q307 513 344 513Z" glyph-name="h" horiz-adv-x="547" unicode="h" /><glyph d="M227 639 109 590L126 732H238ZM39 0 102 512L208 499L146 0Z" glyph-name="i" horiz-adv-x="247" unicode="i" /><glyph d="M227 639 109 590L126 732H239ZM102 512 208 499L151 36Q141 -44 124 -83Q107 -122 61 -184L35 -220L-44 -158L-15 -114Q15 -71 25.5 -44Q36 -17 44 39Z" glyph-name="j" horiz-adv-x="247" unicode="j" /><glyph d="M39 0 130 745L240 760L186 322H236L379 503H509L326 276L478 0H353L233 220H173L146 0Z" glyph-name="k" horiz-adv-x="517" unicode="k" /><glyph d="M236 760 159 134Q157 115 162 108.5Q167 102 184 102H224V0H165Q96 0 69.5 33.5Q43 67 53 143L126 746Z" glyph-name="l" horiz-adv-x="270" unicode="l" /><glyph d="M39 0 101 503H205L199 453Q233 484 267 498.5Q301 513 338 513Q382 513 414 493.5Q446 474 463 437Q505 476 545 494.5Q585 513 629 513Q707 513 745 457.5Q783 402 771 305L733 0H626L665 308Q671 358 654 382.5Q637 407 597 407Q570 407 540.5 395.5Q511 384 480 361Q481 348 480 334Q479 320 477 305L440 0H333L372 308Q378 358 361 382.5Q344 407 304 407Q278 407 250 396.5Q222 386 191 365L146 0Z" glyph-name="m" horiz-adv-x="830" unicode="m" /><glyph d="M39 0 101 503H205L199 452Q236 484 271 498.5Q306 513 344 513Q424 513 462.5 456Q501 399 488 299L452 0H345L382 302Q389 355 371 381Q353 407 310 407Q282 407 252.5 396.5Q223 386 191 364L146 0Z" glyph-name="n" horiz-adv-x="547" unicode="n" /><glyph d="M486 289Q486 157 419.5 73.5Q353 -10 238 -10Q142 -10 90 48Q38 106 38 213Q38 345 104.5 429Q171 513 286 513Q382 513 434 454.5Q486 396 486 289ZM147 214Q147 150 170.5 119.5Q194 89 242 89Q306 89 341.5 142.5Q377 196 377 289Q377 352 354 382.5Q331 413 282 413Q218 413 182.5 360Q147 307 147 214Z" glyph-name="o" horiz-adv-x="524" unicode="o" /><glyph d="M13 -210 101 503H205L199 457Q234 486 268.5 499.5Q303 513 341 513Q421 513 463 456.5Q505 400 505 295Q505 159 446.5 74.5Q388 -10 285 -10Q245 -10 213 4.5Q181 19 153 49L121 -210ZM271 94Q330 94 362 147.5Q394 201 394 292Q394 353 373.5 381Q353 409 310 409Q282 409 252.5 398Q223 387 191 365L163 138Q189 116 216 105Q243 94 271 94Z" glyph-name="p" horiz-adv-x="545" unicode="p" /><glyph d="M403 503 507 503L419 -210H311L343 44Q309 16 275.5 3Q242 -10 204 -10Q124 -10 82 46Q40 102 40 207Q40 343 98.5 428Q157 513 259 513Q300 513 333.5 497.5Q367 482 396 449ZM274 409Q215 409 182.5 355Q150 301 150 211Q150 150 170.5 122Q191 94 235 94Q263 94 293 105Q323 116 354 139L382 364Q356 386 329 397.5Q302 409 274 409Z" glyph-name="q" horiz-adv-x="545" unicode="q" /><glyph d="M109 405 35 405L48 503H222L212 425Q253 470 295.5 491.5Q338 513 385 513Q391 513 397.5 512.5Q404 512 408 511L381 393Q335 393 291 379.5Q247 366 208 340L166 0H59Z" glyph-name="r" horiz-adv-x="393" unicode="r" /><glyph d="M409 146Q409 69 358 29.5Q307 -10 208 -10Q153 -10 104.5 3.5Q56 17 15 44L60 128Q94 106 131.5 95Q169 84 210 84Q257 84 280 98.5Q303 113 303 143Q303 164 289.5 176.5Q276 189 245 197L194 210Q125 227 92.5 263Q60 299 60 358Q60 432 109 472.5Q158 513 250 513Q302 513 347 499.5Q392 486 431 459L387 376Q352 398 318 408.5Q284 419 249 419Q207 419 186.5 405.5Q166 392 166 364Q166 343 179.5 331Q193 319 227 311L278 298Q344 281 376.5 243.5Q409 206 409 146Z" glyph-name="s" horiz-adv-x="461" unicode="s" /><glyph d="M226 404 196 160Q191 123 198.5 111Q206 99 233 99H321V0H218Q139 0 109 39Q79 78 90 168L119 404H38L50 503H131L145 621L254 635L238 503H373L360 404Z" glyph-name="t" horiz-adv-x="381" unicode="t" /><glyph d="M199 -10Q121 -10 83 45.5Q45 101 58 199L95 503H202L164 196Q158 145 175 120Q192 95 233 95Q260 95 288 106Q316 117 346 139L391 503H499L437 0H333L339 50Q304 19 270 4.5Q236 -10 199 -10Z" glyph-name="u" horiz-adv-x="538" unicode="u" /><glyph d="M391 503 505 503L253 0H169L42 503H152L229 161Z" glyph-name="v" horiz-adv-x="483" unicode="v" /><glyph d="M340 503 425 503L480 164L614 503H725L515 0H426L367 358L220 0H132L45 503H151L203 164Z" glyph-name="w" horiz-adv-x="709" unicode="w" /><glyph d="M180 259 53 503H172L252 343L368 503H488L300 256L433 0H314L228 173L102 0H-17Z" glyph-name="x" horiz-adv-x="477" unicode="x" /><glyph d="M392 503 505 503L144 -216L49 -173L159 39L42 503H150L229 160Z" glyph-name="y" horiz-adv-x="483" unicode="y" /><glyph d="M378 0 4 0L14 81L276 402H59L72 503H425L415 421L152 100H378Z" glyph-name="z" horiz-adv-x="437" unicode="z" /><glyph d="M329 294 330 305Q337 363 318 388Q299 413 250 413Q217 413 179.5 403.5Q142 394 103 375L72 461Q121 487 169 500Q217 513 261 513Q313 513 348.5 494.5Q384 476 402 439Q431 476 471.5 494.5Q512 513 563 513Q654 513 701.5 460.5Q749 408 749 309Q749 295 748 280.5Q747 266 746 251Q745 244 743 231Q741 218 741 215H426V213Q426 145 452.5 115.5Q479 86 539 86Q578 86 616.5 96.5Q655 107 690 128L725 44Q684 17 634 3.5Q584 -10 527 -10Q466 -10 422.5 9.5Q379 29 354 68Q308 28 263 9Q218 -10 169 -10Q99 -10 60.5 27.5Q22 65 22 130Q22 206 67.5 250Q113 294 197 294ZM556 421Q510 421 479.5 391Q449 361 435 303H645V310Q645 367 623.5 394Q602 421 556 421ZM319 208 206 208Q169 208 149.5 189.5Q130 171 130 137Q130 110 145.5 96Q161 82 191 82Q222 82 256 96.5Q290 111 326 140Q323 156 321 173.5Q319 191 319 208Z" glyph-name="ae" horiz-adv-x="787" unicode="æ" /><glyph d="M415 84Q383 38 338 14.5Q293 -9 236 -9Q141 -9 90 49Q39 107 39 214Q39 346 105.5 429.5Q172 513 286 513Q342 513 382 490.5Q422 468 445 423Q474 467 518 490Q562 513 618 513Q710 513 758 460.5Q806 408 806 309Q806 295 805 280.5Q804 266 803 251Q802 244 800 231Q798 218 798 215H483V213Q483 145 509.5 115.5Q536 86 596 86Q635 86 673.5 96.5Q712 107 746 128L782 44Q742 18 691 4Q640 -10 584 -10Q522 -10 479.5 13.5Q437 37 415 84ZM612 421Q567 421 536.5 391Q506 361 492 303H701V310Q701 368 679.5 394.5Q658 421 612 421ZM148 214Q148 150 171 120Q194 90 242 90Q306 90 341.5 143Q377 196 377 289Q377 353 354 383.5Q331 414 282 414Q218 414 183 360.5Q148 307 148 214Z" glyph-name="oe" horiz-adv-x="843" unicode="œ" /><glyph d="M118 402 35 402L47 503H131L138 563Q151 668 198.5 714Q246 760 342 760Q426 760 471.5 722Q517 684 517 616Q517 583 504 548Q491 513 452 454Q430 420 423.5 406Q417 392 417 382Q417 372 422.5 364Q428 356 441 348L494 314Q540 285 562 246Q584 207 584 155Q584 77 535.5 33.5Q487 -10 398 -10Q352 -10 312 2Q272 14 239 37L284 124Q313 106 340.5 97Q368 88 396 88Q435 88 455 105Q475 122 475 155Q475 180 462 198.5Q449 217 415 239L361 273Q335 290 321 311.5Q307 333 307 358Q307 380 317 406Q327 432 359 483Q391 534 400.5 558.5Q410 583 410 604Q410 632 392.5 646.5Q375 661 341 661Q296 661 273.5 636.5Q251 612 244 554L176 0H69Z" glyph-name="germandbls" horiz-adv-x="623" unicode="ß" /><glyph d="M39 0 102 512L208 499L146 0Z" glyph-name="dotlessi" horiz-adv-x="247" unicode="ı" /><glyph d="M-8 0 328 720H436L597 0H476L443 162H186L113 0ZM366 571 232 264H424ZM449 810 343 810L502 991L570 920Z" glyph-name="Aacute" horiz-adv-x="650" unicode="Á" /><glyph d="M-8 0 328 720H436L597 0H476L443 162H186L113 0ZM366 571 232 264H424ZM369 965 459 965L566 810H466L407 882L332 810H224Z" glyph-name="Acircumflex" horiz-adv-x="650" unicode="Â" /><glyph d="M-8 0 328 720H436L597 0H476L443 162H186L113 0ZM366 571 232 264H424ZM369 942 355 828H251L265 942ZM440 828 454 942H558L544 828Z" glyph-name="Adieresis" horiz-adv-x="650" unicode="Ä" /><glyph d="M-8 0 328 720H436L597 0H476L443 162H186L113 0ZM366 571 232 264H424ZM331 991 446 810H346L253 920Z" glyph-name="Agrave" horiz-adv-x="650" unicode="À" /><glyph d="M231 -103 227 -49L252 -4Q158 13 110.5 87Q63 161 63 288Q63 491 149.5 610.5Q236 730 394 730Q450 730 499.5 714Q549 698 589 668L535 575Q503 597 467 608.5Q431 620 393 620Q291 620 238 534Q185 448 185 288Q185 188 218.5 143.5Q252 99 326 99Q368 99 409.5 111Q451 123 492 147L532 50Q485 20 430 5Q375 -10 315 -10L296 -43Q337 -46 357.5 -66.5Q378 -87 378 -124Q378 -169 347.5 -194.5Q317 -220 259 -220Q229 -220 205 -212.5Q181 -205 161 -189L188 -133Q204 -144 221.5 -149.5Q239 -155 258 -155Q278 -155 288 -147.5Q298 -140 298 -125Q298 -112 290 -106Q282 -100 264 -100Q258 -100 251 -100.5Q244 -101 231 -103Z" glyph-name="Ccedilla" horiz-adv-x="582" unicode="Ç" /><glyph d="M326 99Q368 99 409.5 111Q451 123 492 147L532 50Q485 20 430 5Q375 -10 315 -10Q190 -10 126.5 65.5Q63 141 63 288Q63 491 149.5 610.5Q236 730 394 730Q450 730 499.5 714Q549 698 589 668L535 575Q503 597 467 608.5Q431 620 393 620Q291 620 238 534Q185 448 185 288Q185 188 218.5 143.5Q252 99 326 99ZM460 810 354 810L513 991L581 920Z" glyph-name="Cacute" horiz-adv-x="582" unicode="Ć" /><glyph d="M508 0 56 0L145 720H572L559 613H248L224 421H484L471 315H212L186 106H508ZM424 810 318 810L477 991L545 920Z" glyph-name="Eacute" horiz-adv-x="572" unicode="É" /><glyph d="M508 0 56 0L145 720H572L559 613H248L224 421H484L471 315H212L186 106H508ZM344 965 434 965L541 810H441L382 882L307 810H199Z" glyph-name="Ecircumflex" horiz-adv-x="572" unicode="Ê" /><glyph d="M508 0 56 0L145 720H572L559 613H248L224 421H484L471 315H212L186 106H508ZM344 942 330 828H226L240 942ZM415 828 429 942H533L519 828Z" glyph-name="Edieresis" horiz-adv-x="572" unicode="Ë" /><glyph d="M508 0 56 0L145 720H572L559 613H248L224 421H484L471 315H212L186 106H508ZM306 991 421 810H321L228 920Z" glyph-name="Egrave" horiz-adv-x="572" unicode="È" /><glyph d="M264 729 174 0H56L144 714ZM271 810 165 810L324 991L392 920Z" glyph-name="Iacute" horiz-adv-x="292" unicode="Í" /><glyph d="M264 729 174 0H56L144 714ZM191 965 281 965L388 810H288L229 882L154 810H46Z" glyph-name="Icircumflex" horiz-adv-x="292" unicode="Î" /><glyph d="M264 729 174 0H56L144 714ZM192 942 178 828H74L88 942ZM263 828 277 942H381L367 828Z" glyph-name="Idieresis" horiz-adv-x="292" unicode="Ï" /><glyph d="M264 729 174 0H56L144 714ZM153 991 268 810H168L75 920Z" glyph-name="Igrave" horiz-adv-x="292" unicode="Ì" /><glyph d="M264 729 174 0H56L144 714ZM161 806 178 948H291L279 855Z" glyph-name="Idotaccent" horiz-adv-x="292" unicode="İ" /><glyph d="M234 530 169 0H56L145 720H263L489 187L553 714L668 729L579 0H461ZM449 920Q468 907 476.5 903Q485 899 492 899Q502 899 508 910.5Q514 922 518 950L600 939Q592 876 567 845Q542 814 499 814Q481 814 463 821Q445 828 415 849Q396 862 387.5 866Q379 870 372 870Q361 870 355 859Q349 848 346 824H263Q270 890 295.5 922.5Q321 955 365 955Q383 955 401 948Q419 941 449 920Z" glyph-name="Ntilde" horiz-adv-x="697" unicode="Ñ" /><glyph d="M62 297Q62 490 152 610Q242 730 401 730Q528 730 594.5 650.5Q661 571 661 422Q661 229 571 109.5Q481 -10 321 -10Q195 -10 128.5 69.5Q62 149 62 297ZM184 297Q184 194 219.5 146Q255 98 330 98Q428 98 483.5 187Q539 276 539 422Q539 525 503.5 573Q468 621 393 621Q294 621 239 532.5Q184 444 184 297ZM472 810 366 810L525 991L593 920Z" glyph-name="Oacute" horiz-adv-x="695" unicode="Ó" /><glyph d="M62 297Q62 490 152 610Q242 730 401 730Q528 730 594.5 650.5Q661 571 661 422Q661 229 571 109.5Q481 -10 321 -10Q195 -10 128.5 69.5Q62 149 62 297ZM184 297Q184 194 219.5 146Q255 98 330 98Q428 98 483.5 187Q539 276 539 422Q539 525 503.5 573Q468 621 393 621Q294 621 239 532.5Q184 444 184 297ZM392 965 482 965L589 810H489L430 882L355 810H247Z" glyph-name="Ocircumflex" horiz-adv-x="695" unicode="Ô" /><glyph d="M62 297Q62 490 152 610Q242 730 401 730Q528 730 594.5 650.5Q661 571 661 422Q661 229 571 109.5Q481 -10 321 -10Q195 -10 128.5 69.5Q62 149 62 297ZM184 297Q184 194 219.5 146Q255 98 330 98Q428 98 483.5 187Q539 276 539 422Q539 525 503.5 573Q468 621 393 621Q294 621 239 532.5Q184 444 184 297ZM392 942 378 828H274L288 942ZM463 828 477 942H581L567 828Z" glyph-name="Odieresis" horiz-adv-x="695" unicode="Ö" /><glyph d="M62 297Q62 490 152 610Q242 730 401 730Q528 730 594.5 650.5Q661 571 661 422Q661 229 571 109.5Q481 -10 321 -10Q195 -10 128.5 69.5Q62 149 62 297ZM184 297Q184 194 219.5 146Q255 98 330 98Q428 98 483.5 187Q539 276 539 422Q539 525 503.5 573Q468 621 393 621Q294 621 239 532.5Q184 444 184 297ZM354 991 469 810H369L276 920Z" glyph-name="Ograve" horiz-adv-x="695" unicode="Ò" /><glyph d="M661 729 605 274Q587 130 515 60Q443 -10 313 -10Q183 -10 122.5 68.5Q62 147 79 288L132 720H250L197 281Q185 185 215 141.5Q245 98 320 98Q395 98 435.5 141.5Q476 185 488 281L541 714ZM462 810 356 810L515 991L583 920Z" glyph-name="Uacute" horiz-adv-x="677" unicode="Ú" /><glyph d="M661 729 605 274Q587 130 515 60Q443 -10 313 -10Q183 -10 122.5 68.5Q62 147 79 288L132 720H250L197 281Q185 185 215 141.5Q245 98 320 98Q395 98 435.5 141.5Q476 185 488 281L541 714ZM382 965 472 965L579 810H479L420 882L345 810H237Z" glyph-name="Ucircumflex" horiz-adv-x="677" unicode="Û" /><glyph d="M661 729 605 274Q587 130 515 60Q443 -10 313 -10Q183 -10 122.5 68.5Q62 147 79 288L132 720H250L197 281Q185 185 215 141.5Q245 98 320 98Q395 98 435.5 141.5Q476 185 488 281L541 714ZM382 942 368 828H264L278 942ZM453 828 467 942H571L557 828Z" glyph-name="Udieresis" horiz-adv-x="677" unicode="Ü" /><glyph d="M661 729 605 274Q587 130 515 60Q443 -10 313 -10Q183 -10 122.5 68.5Q62 147 79 288L132 720H250L197 281Q185 185 215 141.5Q245 98 320 98Q395 98 435.5 141.5Q476 185 488 281L541 714ZM344 991 459 810H359L266 920Z" glyph-name="Ugrave" horiz-adv-x="677" unicode="Ù" /><glyph d="M661 729 605 274Q587 130 515 60Q443 -10 313 -10Q183 -10 122.5 68.5Q62 147 79 288L132 720H250L197 281Q185 185 215 141.5Q245 98 320 98Q395 98 435.5 141.5Q476 185 488 281L541 714ZM374 810 276 810L408 991L479 933ZM543 810 445 810L577 991L648 933Z" glyph-name="Uhungarumlaut" horiz-adv-x="677" unicode="Ű" /><glyph d="M500 503 456 134Q453 115 457.5 108.5Q462 102 480 102H508V0H462Q417 0 390 14Q363 28 353 58Q315 22 279 6Q243 -10 201 -10Q123 -10 81.5 46Q40 102 40 207Q40 343 97.5 428Q155 513 256 513Q295 513 327 498.5Q359 484 387 453L393 503ZM271 410Q213 410 181 356Q149 302 149 211Q149 150 169 121.5Q189 93 232 93Q259 93 288 104Q317 115 348 138L349 143L376 365Q349 388 323 399Q297 410 271 410ZM356 594 250 594L409 775L477 704Z" glyph-name="aacute" horiz-adv-x="554" unicode="á" /><glyph d="M500 503 456 134Q453 115 457.5 108.5Q462 102 480 102H508V0H462Q417 0 390 14Q363 28 353 58Q315 22 279 6Q243 -10 201 -10Q123 -10 81.5 46Q40 102 40 207Q40 343 97.5 428Q155 513 256 513Q295 513 327 498.5Q359 484 387 453L393 503ZM271 410Q213 410 181 356Q149 302 149 211Q149 150 169 121.5Q189 93 232 93Q259 93 288 104Q317 115 348 138L349 143L376 365Q349 388 323 399Q297 410 271 410ZM276 749 366 749L473 594H373L314 666L239 594H131Z" glyph-name="acircumflex" horiz-adv-x="554" unicode="â" /><glyph d="M500 503 456 134Q453 115 457.5 108.5Q462 102 480 102H508V0H462Q417 0 390 14Q363 28 353 58Q315 22 279 6Q243 -10 201 -10Q123 -10 81.5 46Q40 102 40 207Q40 343 97.5 428Q155 513 256 513Q295 513 327 498.5Q359 484 387 453L393 503ZM271 410Q213 410 181 356Q149 302 149 211Q149 150 169 121.5Q189 93 232 93Q259 93 288 104Q317 115 348 138L349 143L376 365Q349 388 323 399Q297 410 271 410ZM276 726 262 612H158L172 726ZM347 612 361 726H465L451 612Z" glyph-name="adieresis" horiz-adv-x="554" unicode="ä" /><glyph d="M500 503 456 134Q453 115 457.5 108.5Q462 102 480 102H508V0H462Q417 0 390 14Q363 28 353 58Q315 22 279 6Q243 -10 201 -10Q123 -10 81.5 46Q40 102 40 207Q40 343 97.5 428Q155 513 256 513Q295 513 327 498.5Q359 484 387 453L393 503ZM271 410Q213 410 181 356Q149 302 149 211Q149 150 169 121.5Q189 93 232 93Q259 93 288 104Q317 115 348 138L349 143L376 365Q349 388 323 399Q297 410 271 410ZM238 775 353 594H253L160 704Z" glyph-name="agrave" horiz-adv-x="554" unicode="à" /><glyph d="M151 -103 147 -49L172 -4Q106 11 72.5 65.5Q39 120 39 210Q39 353 101.5 433Q164 513 282 513Q327 513 366.5 500.5Q406 488 435 464L387 377Q363 394 336.5 402.5Q310 411 280 411Q216 411 182.5 359Q149 307 149 210Q149 147 171 119.5Q193 92 241 92Q274 92 304.5 101Q335 110 364 127L399 38Q366 15 324.5 3Q283 -9 235 -10L216 -43Q257 -46 277.5 -66.5Q298 -87 298 -124Q298 -169 267.5 -194.5Q237 -220 179 -220Q149 -220 125 -212.5Q101 -205 81 -189L108 -133Q124 -144 141.5 -149.5Q159 -155 178 -155Q198 -155 208 -147.5Q218 -140 218 -125Q218 -112 210 -106Q202 -100 184 -100Q178 -100 171 -100.5Q164 -101 151 -103Z" glyph-name="ccedilla" horiz-adv-x="444" unicode="ç" /><glyph d="M280 411Q216 411 182.5 359Q149 307 149 210Q149 147 171 119.5Q193 92 241 92Q274 92 304.5 101Q335 110 364 127L399 38Q364 14 321 2Q278 -10 228 -10Q135 -10 87 46Q39 102 39 210Q39 353 101.5 433Q164 513 282 513Q327 513 366.5 500.5Q406 488 435 464L387 377Q363 394 336.5 402.5Q310 411 280 411ZM338 594 232 594L391 775L459 704Z" glyph-name="cacute" horiz-adv-x="444" unicode="ć" /><glyph d="M464 240Q462 230 461.5 225Q461 220 461 215H146V213Q146 145 172.5 115.5Q199 86 259 86Q297 86 335.5 96.5Q374 107 409 128L444 44Q403 18 352 4Q301 -10 246 -10Q143 -10 90.5 46.5Q38 103 38 213Q38 347 102.5 430Q167 513 281 513Q373 513 420.5 461Q468 409 468 309Q468 295 467 280.5Q466 266 465 251Q465 249 464.5 246.5Q464 244 464 240ZM275 421Q229 421 198.5 391Q168 361 155 303H364V310Q364 367 342.5 394Q321 421 275 421ZM349 594 243 594L402 775L470 704Z" glyph-name="eacute" horiz-adv-x="507" unicode="é" /><glyph d="M464 240Q462 230 461.5 225Q461 220 461 215H146V213Q146 145 172.5 115.5Q199 86 259 86Q297 86 335.5 96.5Q374 107 409 128L444 44Q403 18 352 4Q301 -10 246 -10Q143 -10 90.5 46.5Q38 103 38 213Q38 347 102.5 430Q167 513 281 513Q373 513 420.5 461Q468 409 468 309Q468 295 467 280.5Q466 266 465 251Q465 249 464.5 246.5Q464 244 464 240ZM275 421Q229 421 198.5 391Q168 361 155 303H364V310Q364 367 342.5 394Q321 421 275 421ZM269 749 359 749L466 594H366L307 666L232 594H124Z" glyph-name="ecircumflex" horiz-adv-x="507" unicode="ê" /><glyph d="M464 240Q462 230 461.5 225Q461 220 461 215H146V213Q146 145 172.5 115.5Q199 86 259 86Q297 86 335.5 96.5Q374 107 409 128L444 44Q403 18 352 4Q301 -10 246 -10Q143 -10 90.5 46.5Q38 103 38 213Q38 347 102.5 430Q167 513 281 513Q373 513 420.5 461Q468 409 468 309Q468 295 467 280.5Q466 266 465 251Q465 249 464.5 246.5Q464 244 464 240ZM275 421Q229 421 198.5 391Q168 361 155 303H364V310Q364 367 342.5 394Q321 421 275 421ZM269 726 255 612H151L165 726ZM340 612 354 726H458L444 612Z" glyph-name="edieresis" horiz-adv-x="507" unicode="ë" /><glyph d="M464 240Q462 230 461.5 225Q461 220 461 215H146V213Q146 145 172.5 115.5Q199 86 259 86Q297 86 335.5 96.5Q374 107 409 128L444 44Q403 18 352 4Q301 -10 246 -10Q143 -10 90.5 46.5Q38 103 38 213Q38 347 102.5 430Q167 513 281 513Q373 513 420.5 461Q468 409 468 309Q468 295 467 280.5Q466 266 465 251Q465 249 464.5 246.5Q464 244 464 240ZM275 421Q229 421 198.5 391Q168 361 155 303H364V310Q364 367 342.5 394Q321 421 275 421ZM231 775 346 594H246L153 704Z" glyph-name="egrave" horiz-adv-x="507" unicode="è" /><glyph d="M39 0 102 512L208 499L146 0ZM220 594 114 594L273 775L341 704Z" glyph-name="iacute" horiz-adv-x="247" unicode="í" /><glyph d="M39 0 102 512L208 499L146 0ZM140 749 230 749L337 594H237L178 666L103 594H-5Z" glyph-name="icircumflex" horiz-adv-x="247" unicode="î" /><glyph d="M39 0 102 512L208 499L146 0ZM140 726 126 612H22L36 726ZM211 612 225 726H329L315 612Z" glyph-name="idieresis" horiz-adv-x="247" unicode="ï" /><glyph d="M39 0 102 512L208 499L146 0ZM102 775 217 594H117L24 704Z" glyph-name="igrave" horiz-adv-x="247" unicode="ì" /><glyph d="M227 639 109 590L126 732H238ZM39 0 102 512L208 499L146 0Z" glyph-name="i.dot" horiz-adv-x="247" unicode="" /><glyph d="M39 0 101 503H205L199 452Q236 484 271 498.5Q306 513 344 513Q424 513 462.5 456Q501 399 488 299L452 0H345L382 302Q389 355 371 381Q353 407 310 407Q282 407 252.5 396.5Q223 386 191 364L146 0ZM341 704Q360 691 368.5 687Q377 683 384 683Q394 683 400 694.5Q406 706 410 734L492 723Q484 660 459 629Q434 598 391 598Q373 598 355 605Q337 612 307 633Q288 646 279.5 650Q271 654 264 654Q253 654 247 643Q241 632 238 608H155Q162 674 187.5 706.5Q213 739 257 739Q275 739 293 732Q311 725 341 704Z" glyph-name="ntilde" horiz-adv-x="547" unicode="ñ" /><glyph d="M486 289Q486 157 419.5 73.5Q353 -10 238 -10Q142 -10 90 48Q38 106 38 213Q38 345 104.5 429Q171 513 286 513Q382 513 434 454.5Q486 396 486 289ZM147 214Q147 150 170.5 119.5Q194 89 242 89Q306 89 341.5 142.5Q377 196 377 289Q377 352 354 382.5Q331 413 282 413Q218 413 182.5 360Q147 307 147 214ZM356 594 250 594L409 775L477 704Z" glyph-name="oacute" horiz-adv-x="524" unicode="ó" /><glyph d="M486 289Q486 157 419.5 73.5Q353 -10 238 -10Q142 -10 90 48Q38 106 38 213Q38 345 104.5 429Q171 513 286 513Q382 513 434 454.5Q486 396 486 289ZM147 214Q147 150 170.5 119.5Q194 89 242 89Q306 89 341.5 142.5Q377 196 377 289Q377 352 354 382.5Q331 413 282 413Q218 413 182.5 360Q147 307 147 214ZM276 749 366 749L473 594H373L314 666L239 594H131Z" glyph-name="ocircumflex" horiz-adv-x="524" unicode="ô" /><glyph d="M486 289Q486 157 419.5 73.5Q353 -10 238 -10Q142 -10 90 48Q38 106 38 213Q38 345 104.5 429Q171 513 286 513Q382 513 434 454.5Q486 396 486 289ZM147 214Q147 150 170.5 119.5Q194 89 242 89Q306 89 341.5 142.5Q377 196 377 289Q377 352 354 382.5Q331 413 282 413Q218 413 182.5 360Q147 307 147 214ZM276 726 262 612H158L172 726ZM347 612 361 726H465L451 612Z" glyph-name="odieresis" horiz-adv-x="524" unicode="ö" /><glyph d="M486 289Q486 157 419.5 73.5Q353 -10 238 -10Q142 -10 90 48Q38 106 38 213Q38 345 104.5 429Q171 513 286 513Q382 513 434 454.5Q486 396 486 289ZM147 214Q147 150 170.5 119.5Q194 89 242 89Q306 89 341.5 142.5Q377 196 377 289Q377 352 354 382.5Q331 413 282 413Q218 413 182.5 360Q147 307 147 214ZM238 775 353 594H253L160 704Z" glyph-name="ograve" horiz-adv-x="524" unicode="ò" /><glyph d="M199 -10Q121 -10 83 45.5Q45 101 58 199L95 503H202L164 196Q158 145 175 120Q192 95 233 95Q260 95 288 106Q316 117 346 139L391 503H499L437 0H333L339 50Q304 19 270 4.5Q236 -10 199 -10ZM361 594 255 594L414 775L482 704Z" glyph-name="uacute" horiz-adv-x="538" unicode="ú" /><glyph d="M199 -10Q121 -10 83 45.5Q45 101 58 199L95 503H202L164 196Q158 145 175 120Q192 95 233 95Q260 95 288 106Q316 117 346 139L391 503H499L437 0H333L339 50Q304 19 270 4.5Q236 -10 199 -10ZM281 749 371 749L478 594H378L319 666L244 594H136Z" glyph-name="ucircumflex" horiz-adv-x="538" unicode="û" /><glyph d="M199 -10Q121 -10 83 45.5Q45 101 58 199L95 503H202L164 196Q158 145 175 120Q192 95 233 95Q260 95 288 106Q316 117 346 139L391 503H499L437 0H333L339 50Q304 19 270 4.5Q236 -10 199 -10ZM281 726 267 612H163L177 726ZM352 612 366 726H470L456 612Z" glyph-name="udieresis" horiz-adv-x="538" unicode="ü" /><glyph d="M199 -10Q121 -10 83 45.5Q45 101 58 199L95 503H202L164 196Q158 145 175 120Q192 95 233 95Q260 95 288 106Q316 117 346 139L391 503H499L437 0H333L339 50Q304 19 270 4.5Q236 -10 199 -10ZM243 775 358 594H258L165 704Z" glyph-name="ugrave" horiz-adv-x="538" unicode="ù" /><glyph d="M199 -10Q121 -10 83 45.5Q45 101 58 199L95 503H202L164 196Q158 145 175 120Q192 95 233 95Q260 95 288 106Q316 117 346 139L391 503H499L437 0H333L339 50Q304 19 270 4.5Q236 -10 199 -10ZM273 594 175 594L307 775L378 717ZM442 594 344 594L476 775L547 717Z" glyph-name="uhungarumlaut" horiz-adv-x="538" unicode="ű" /><glyph d="M361 594 255 594L414 775L482 704Z" glyph-name="acute" horiz-adv-x="450" unicode="´" /><glyph d="M243 775 358 594H258L165 704Z" glyph-name="grave" horiz-adv-x="450" unicode="`" /><glyph d="M281 749 371 749L478 594H378L319 666L244 594H136Z" glyph-name="circumflex" horiz-adv-x="450" unicode="ˆ" /><glyph d="M281 726 267 612H163L177 726ZM352 612 366 726H470L456 612Z" glyph-name="dieresis" horiz-adv-x="450" unicode="¨" /><glyph d="M139 -103 135 -49L169 12H235L204 -43Q245 -46 265.5 -66.5Q286 -87 286 -124Q286 -169 255.5 -194.5Q225 -220 167 -220Q137 -220 113 -212.5Q89 -205 69 -189L96 -133Q112 -144 129.5 -149.5Q147 -155 166 -155Q186 -155 196 -147.5Q206 -140 206 -125Q206 -112 198 -106Q190 -100 172 -100Q166 -100 159 -100.5Q152 -101 139 -103Z" glyph-name="cedilla" horiz-adv-x="450" unicode="¸" /><glyph d="M273 594 175 594L307 775L378 717ZM442 594 344 594L476 775L547 717Z" glyph-name="hungarumlaut" horiz-adv-x="450" unicode="˝" /><glyph d="M161 806 178 948H291L279 855Z" glyph-name="dotaccent" horiz-adv-x="450" unicode="˙" /><glyph d="M341 704Q360 691 368.5 687Q377 683 384 683Q394 683 400 694.5Q406 706 410 734L492 723Q484 660 459 629Q434 598 391 598Q373 598 355 605Q337 612 307 633Q288 646 279.5 650Q271 654 264 654Q253 654 247 643Q241 632 238 608H155Q162 674 187.5 706.5Q213 739 257 739Q275 739 293 732Q311 725 341 704Z" glyph-name="tilde" horiz-adv-x="450" unicode="˜" /><glyph d="M38 0 52 117L168 131L151 0Z" glyph-name="period" horiz-adv-x="251" unicode="." /><glyph d="M-12 -154 27 -67Q34 -51 38 -36Q42 -21 44 -6L58 108H157L146 10Q142 -21 135.5 -42.5Q129 -64 107 -113L67 -201Z" glyph-name="comma" horiz-adv-x="251" unicode="," /><glyph d="M197 371 86 385L100 503H213ZM38 0 52 117L168 131L151 0Z" glyph-name="colon" horiz-adv-x="251" unicode=":" /><glyph d="M197 371 86 385L100 503H213ZM-12 -154 27 -67Q35 -48 39 -34Q43 -20 45 -6L58 108H157L146 10Q142 -21 135.5 -42.5Q129 -64 107 -113L67 -201Z" glyph-name="semicolon" horiz-adv-x="251" unicode=";" /><glyph d="M569 0 583 117L699 131L682 0ZM569 0 583 117L699 131L682 0ZM569 0 583 117L699 131L682 0Z" glyph-name="ellipsis" horiz-adv-x="782" unicode="…" /><glyph d="M276 300 257 213H180L188 386Q282 386 328 420Q374 454 374 526Q374 575 349 598Q324 621 271 621Q231 621 190.5 609Q150 597 107 572L67 666Q117 697 172 713.5Q227 730 283 730Q384 730 436 680.5Q488 631 488 535Q488 438 433.5 376.5Q379 315 276 300ZM135 0 150 120L269 134L252 0Z" glyph-name="question" horiz-adv-x="492" unicode="?" /><glyph d="M164 213 86 213L126 714L248 730ZM41 0 56 120L175 134L158 0Z" glyph-name="exclam" horiz-adv-x="260" unicode="!" /><glyph d="M357 503 342 382L223 369L240 503ZM216 202 235 290H312L304 116Q211 116 164.5 82Q118 48 118 -23Q118 -72 143 -94.5Q168 -117 221 -117Q261 -117 301 -105Q341 -93 384 -68L425 -162Q374 -194 319 -210Q264 -226 208 -226Q107 -226 55 -176.5Q3 -127 3 -32Q3 65 58 126.5Q113 188 216 202Z" glyph-name="questiondown" horiz-adv-x="492" unicode="¿" /><glyph d="M220 503 206 382L86 369L103 503ZM96 290 175 290L135 -211L13 -226Z" glyph-name="exclamdown" horiz-adv-x="260" unicode="¡" /><glyph d="M64 234Q64 385 121 515.5Q178 646 293 758L362 677Q267 573 224 468Q181 363 181 234Q181 146 201.5 75.5Q222 5 269 -69L183 -138Q123 -58 93.5 35Q64 128 64 234Z" glyph-name="parenleft" horiz-adv-x="332" unicode="(" /><glyph d="M284 385Q284 235 227 104.5Q170 -26 55 -138L-14 -57Q80 46 123 151Q166 256 166 385Q166 473 145.5 543.5Q125 614 78 689L165 758Q224 678 254 584.5Q284 491 284 385Z" glyph-name="parenright" horiz-adv-x="332" unicode=")" /><glyph d="M36 258 48 363H92Q120 363 131.5 380Q143 397 143 437V547Q143 650 180.5 692.5Q218 735 319 749L377 757L364 647L318 641Q281 636 267.5 616.5Q254 597 254 546V437Q254 389 238 355.5Q222 322 191 306Q219 291 226.5 261Q234 231 223 185L197 76Q184 21 192.5 3.5Q201 -14 237 -19L281 -25L268 -134L216 -127Q122 -115 91.5 -67Q61 -19 85 77L111 185Q121 225 113.5 241.5Q106 258 79 258Z" glyph-name="braceleft" horiz-adv-x="341" unicode="{" /><glyph d="M323 364 310 259H267Q239 259 227 242Q215 225 215 185V74Q215 -29 178 -71Q141 -113 39 -127L-17 -134L-4 -25L41 -19Q78 -13 91.5 6Q105 25 105 76V185Q105 233 121 266Q137 299 168 316Q141 331 132.5 361Q124 391 135 437L162 546Q175 601 166.5 618.5Q158 636 122 641L78 647L91 757L142 750Q236 738 267 689.5Q298 641 274 545L247 437Q238 397 245.5 380.5Q253 364 280 364Z" glyph-name="braceright" horiz-adv-x="341" unicode="}" /><glyph d="M278 -128 43 -128L151 750H374L360 641H253L171 -19H278Z" glyph-name="bracketleft" horiz-adv-x="340" unicode="[" /><glyph d="M77 750 311 750L203 -128H-18L-5 -19H101L183 641H77Z" glyph-name="bracketright" horiz-adv-x="340" unicode="]" /><glyph d="M47 -128 -75 -128L360 750H484Z" glyph-name="slash" horiz-adv-x="430" unicode="/" /><glyph d="M185 750 413 -128H296L69 750Z" glyph-name="backslash" horiz-adv-x="430" unicode="\" /><glyph d="M-13 -151 -2 -56H402V-151Z" glyph-name="underscore" horiz-adv-x="485" unicode="_" /><glyph d="M57 271 69 367H302V271Z" glyph-name="hyphen" horiz-adv-x="351" unicode="-" /><glyph d="" glyph-name="uni00AD" horiz-adv-x="0" unicode="­" /><glyph d="M54 271 65 367H404V271Z" glyph-name="endash" horiz-adv-x="450" unicode="–" /><glyph d="M54 271 65 367H854V271Z" glyph-name="emdash" horiz-adv-x="900" unicode="—" /><glyph d="M258 759 213 391H95L139 744ZM149 -128 31 -128L77 241H195Z" glyph-name="brokenbar" horiz-adv-x="273" unicode="¦" /><glyph d="M158 -128 40 -128L148 744L267 759Z" glyph-name="bar" horiz-adv-x="292" unicode="|" /><glyph d="M146 270 283 151L269 31L41 231L51 316L315 507L324 396ZM429 270 566 151L552 31L324 231L334 316L598 507L607 396Z" glyph-name="guillemotleft" horiz-adv-x="633" unicode="«" /><glyph d="M597 311 587 226L323 35L313 146L492 272L354 391L369 510ZM314 311 304 226L40 35L31 146L209 272L72 391L86 510Z" glyph-name="guillemotright" horiz-adv-x="633" unicode="»" /><glyph d="M146 270 283 151L269 31L41 231L51 316L315 507L324 396Z" glyph-name="guilsinglleft" horiz-adv-x="350" unicode="‹" /><glyph d="M314 311 304 226L40 35L31 146L209 273L72 391L87 511Z" glyph-name="guilsinglright" horiz-adv-x="350" unicode="›" /><glyph d="M81 -162 -7 -146L64 108H166Z" glyph-name="quotesinglbase" horiz-adv-x="255" unicode="‚" /><glyph d="M81 -162 -7 -146L64 108H166ZM262 -162 173 -146L245 108H346Z" glyph-name="quotedblbase" horiz-adv-x="436" unicode="„" /><glyph d="M167 730 255 714L183 458H82Z" glyph-name="quoteleft" horiz-adv-x="255" unicode="‘" /><glyph d="M348 730 437 714L364 458H263ZM167 730 255 714L183 458H82Z" glyph-name="quotedblleft" horiz-adv-x="436" unicode="“" /><glyph d="M172 448 83 464L155 720H256Z" glyph-name="quoteright" horiz-adv-x="255" unicode="’" /><glyph d="M172 448 83 464L155 720H256ZM353 448 264 464L336 720H437Z" glyph-name="quotedblright" horiz-adv-x="436" unicode="”" /><glyph d="M133 720 245 720L202 458H114Z" glyph-name="quotesingle" horiz-adv-x="268" unicode="'" /><glyph d="M133 720 245 720L202 458H114ZM315 720 427 720L384 458H296Z" glyph-name="quotedbl" horiz-adv-x="450" unicode="&quot;" /><glyph d="M297 341Q297 284 269.5 256Q242 228 186 228Q130 228 102.5 256Q75 284 75 341Q75 398 102.5 426Q130 454 186 454Q242 454 269.5 426Q297 398 297 341Z" glyph-name="bullet" horiz-adv-x="350" unicode="•" /><glyph d="M341 618Q295 618 270.5 595.5Q246 573 246 532Q246 507 256 484.5Q266 462 287 437L463 248Q477 274 490 305.5Q503 337 516 372L529 406L635 394L621 354Q601 296 580.5 250Q560 204 538 167L628 70L551 -10L470 77Q425 33 371.5 11.5Q318 -10 253 -10Q150 -10 91 39.5Q32 89 32 177Q32 243 66.5 297.5Q101 352 173 398Q149 431 137 466Q125 501 125 539Q125 626 181 678Q237 730 337 730Q387 730 431.5 715.5Q476 701 522 669L468 574Q436 596 404.5 607Q373 618 341 618ZM154 186Q154 140 181 117Q208 94 261 94Q302 94 336 109Q370 124 399 154L239 325Q195 295 174.5 261Q154 227 154 186Z" glyph-name="ampersand" horiz-adv-x="672" unicode="&amp;" /><glyph d="M460 464 53 464L66 565H210L228 714L348 729L329 565H472ZM222 -128 144 -128L186 375L307 390Z" glyph-name="dagger" horiz-adv-x="460" unicode="†" /><glyph d="M477 464 72 464L84 565H229L247 714L366 729L346 565H490ZM455 280 49 280L62 381H467ZM240 -128 163 -128L182 191L302 206Z" glyph-name="daggerdbl" horiz-adv-x="496" unicode="‡" /><glyph d="M98 387 127 419Q139 433 152.5 444Q166 455 187 468L234 501L178 513Q159 517 141.5 522.5Q124 528 105 537L64 556L104 640L145 622Q163 613 178 602.5Q193 592 209 579L255 545L249 602Q247 633 247 648.5Q247 664 249 679L254 724L347 712L342 668Q340 653 336.5 639Q333 625 323 593L304 540L356 562Q376 571 393 577Q410 583 429 587L472 594L490 503L448 495Q428 491 409.5 489.5Q391 488 369 489L312 491L350 448Q366 431 376.5 416.5Q387 402 397 386L417 347L336 303L315 341Q305 359 298 375.5Q291 392 285 413L269 468L239 418Q228 398 218 384Q208 370 196 357L166 324Z" glyph-name="asterisk" horiz-adv-x="485" unicode="*" /><glyph d="M250 638 215 360H131L165 638H69L79 720H356L336 638ZM594 450 538 450L489 584L462 360H379L424 720H508L574 539L687 720H772L727 360H645L671 574Z" glyph-name="trademark" horiz-adv-x="765" unicode="™" /><glyph d="M767 540Q767 375 677.5 284.5Q588 194 428 194Q268 194 178 284.5Q88 375 88 540Q88 704 178 794Q268 884 428 884Q588 884 677.5 794Q767 704 767 540ZM151 540Q151 402 223.5 328Q296 254 428 254Q560 254 632 328Q704 402 704 540Q704 676 632 749.5Q560 823 428 823Q296 823 223.5 749.5Q151 676 151 540ZM379 481 379 360H290V720H437Q504 720 540 688Q576 656 576 599Q576 559 558.5 532Q541 505 508 493L591 360H491L418 481ZM486 599Q486 623 474 634Q462 645 437 645H379V553H437Q462 553 474 564Q486 575 486 599Z" glyph-name="registered" horiz-adv-x="785" unicode="®" /><glyph d="M882 360Q882 166 775.5 59.5Q669 -47 479 -47Q289 -47 181.5 59.5Q74 166 74 360Q74 553 181.5 659.5Q289 766 479 766Q668 766 775 659.5Q882 553 882 360ZM149 360Q149 196 235.5 107.5Q322 19 479 19Q635 19 721 107.5Q807 196 807 360Q807 524 721.5 611.5Q636 699 479 699Q322 699 235.5 611Q149 523 149 360ZM488 502Q427 502 399 469Q371 436 371 360Q371 282 399 249Q427 216 489 216Q521 216 552.5 224.5Q584 233 613 250L657 162Q621 138 576 125.5Q531 113 482 113Q370 113 313 175.5Q256 238 256 360Q256 481 313.5 543.5Q371 606 482 606Q528 606 570.5 594Q613 582 648 559L604 469Q577 485 547.5 493.5Q518 502 488 502Z" glyph-name="copyright" horiz-adv-x="928" unicode="©" /><glyph d="M929 329Q929 177 868.5 88.5Q808 0 702 0Q658 0 626 18Q594 36 579 70Q538 33 499 16.5Q460 0 415 0Q341 0 301.5 52.5Q262 105 262 203Q262 329 317 409.5Q372 490 467 490Q508 490 541 474Q574 458 606 422L613 480H716L676 163Q672 126 684.5 108Q697 90 726 90Q780 90 813 152.5Q846 215 846 326Q846 485 765 567Q684 649 530 649Q345 649 239 529Q133 409 133 201Q133 33 213 -53Q293 -139 449 -139Q493 -139 539.5 -131.5Q586 -124 635 -109L650 -188Q602 -204 549.5 -212Q497 -220 445 -220Q254 -220 151 -111.5Q48 -3 48 200Q48 438 181.5 584Q315 730 535 730Q722 730 825.5 625.5Q929 521 929 329ZM489 384Q433 384 403 338Q373 292 373 210Q373 156 393 130.5Q413 105 455 105Q481 105 509.5 115.5Q538 126 569 148V151L592 340Q567 362 541 373Q515 384 489 384Z" glyph-name="at" horiz-adv-x="971" unicode="@" /><glyph d="M389 175Q415 153 428 122Q441 91 441 52Q441 -33 383 -80.5Q325 -128 216 -128Q160 -128 111 -114.5Q62 -101 18 -73L62 13Q100 -8 138.5 -18.5Q177 -29 222 -29Q281 -29 308.5 -10.5Q336 8 336 49Q336 80 319 98Q302 116 264 125L212 137Q132 157 95 194.5Q58 232 58 293Q58 341 82 375.5Q106 410 153 429Q126 450 112 481.5Q98 513 98 552Q98 635 154.5 682.5Q211 730 313 730Q367 730 414 716.5Q461 703 501 676L457 588Q423 610 386.5 620.5Q350 631 309 631Q256 631 229.5 612.5Q203 594 203 556Q203 526 221.5 508Q240 490 281 480L331 467Q407 449 444 409.5Q481 370 481 308Q481 262 457.5 228Q434 194 389 175ZM162 305Q162 276 181.5 259Q201 242 247 231L289 221Q333 226 355.5 246Q378 266 378 298Q378 328 359.5 345.5Q341 363 298 373L261 382Q212 379 187 360Q162 341 162 305Z" glyph-name="section" horiz-adv-x="527" unicode="§" /><glyph d="M165 0 51 0L121 185H25L37 287H160L220 446H118L131 547H258L324 720H438L372 547H530L595 720H709L644 547H741L728 446H605L545 287H647L635 185H507L437 0H323L393 185H235ZM334 446 274 287H431L491 446Z" glyph-name="numbersign" horiz-adv-x="736" unicode="#" /><glyph d="M239 530 174 0H61L150 720H268L494 187L558 714L673 729L584 0H466ZM1139 536Q1139 448 1084.5 395.5Q1030 343 941 343Q853 343 798 395.5Q743 448 743 536Q743 625 797.5 677.5Q852 730 941 730Q1030 730 1084.5 677.5Q1139 625 1139 536ZM840 536Q840 488 867 461.5Q894 435 941 435Q989 435 1015.5 461Q1042 487 1042 536Q1042 585 1015.5 611Q989 637 941 637Q893 637 866.5 611Q840 585 840 536Z" glyph-name="uni2116" horiz-adv-x="1091" unicode="№" /><glyph d="M246 317 477 317L454 223H250Q259 157 293.5 126Q328 95 391 95Q434 95 475.5 107Q517 119 556 142L597 50Q550 20 495 5Q440 -10 380 -10Q270 -10 207 48.5Q144 107 131 223H39L51 317H129Q130 342 131.5 363Q133 384 136 404H61L73 497H158Q195 611 271.5 670.5Q348 730 459 730Q515 730 564.5 714Q614 698 654 668L600 580Q568 602 532 613Q496 624 458 624Q395 624 350.5 592Q306 560 280 497H520L498 404H255Q251 383 249 361.5Q247 340 246 317Z" glyph-name="Euro" horiz-adv-x="648" unicode="€" /><glyph d="M315 -8 301 -128H188L203 -6Q155 0 110.5 17.5Q66 35 23 64L76 159Q129 126 177 111Q225 96 277 96Q343 96 377 122Q411 148 411 199Q411 238 391.5 260Q372 282 326 296L253 317Q167 343 126.5 391Q86 439 86 517Q86 608 139.5 663Q193 718 293 728L306 837L422 852L406 724Q448 717 487 700.5Q526 684 563 658L510 563Q471 592 425 607Q379 622 329 622Q266 622 234.5 597.5Q203 573 203 525Q203 488 224.5 465.5Q246 443 295 430L368 409Q450 386 489 336.5Q528 287 528 206Q528 114 473 58Q418 2 315 -8Z" glyph-name="dollar" horiz-adv-x="577" unicode="$" /><glyph d="M362 153 344 0H225L244 153H61L73 250H256L258 264L234 326H82L94 423H197L84 720H209L330 390L534 720H661L476 423H579L568 326H415L375 262L374 250H558L546 153Z" glyph-name="yen" horiz-adv-x="631" unicode="¥" /><glyph d="M509 0 21 0L35 109H127Q149 142 159.5 177Q170 212 170 249Q170 259 169 268.5Q168 278 167 287H56L69 388H145Q136 425 132 452Q128 479 128 504Q128 611 188 670.5Q248 730 360 730Q419 730 469.5 713Q520 696 566 661L512 569Q479 594 441.5 607Q404 620 365 620Q305 620 273.5 588Q242 556 242 495Q242 478 244.5 457.5Q247 437 258 388H460L448 287H277Q278 273 278.5 266.5Q279 260 279 254Q279 213 268 177.5Q257 142 234 109H509Z" glyph-name="sterling" horiz-adv-x="570" unicode="£" /><glyph d="M287 100 272 -18H160L175 106Q115 124 84 177.5Q53 231 53 317Q53 441 100.5 518.5Q148 596 238 614L252 728L366 742L350 615Q379 610 404 599Q429 588 449 571L400 487Q377 504 350.5 512.5Q324 521 294 521Q230 521 196.5 468.5Q163 416 163 317Q163 252 185 224Q207 196 255 196Q286 196 317 205Q348 214 378 231L413 146Q387 127 355 115.5Q323 104 287 100Z" glyph-name="cent" horiz-adv-x="451" unicode="¢" /><glyph d="M216 174 126 84L51 159L141 248Q128 273 121 301Q114 329 114 360Q114 391 120.5 419Q127 447 140 471L51 561L126 635L215 546Q240 559 269.5 566Q299 573 331 573Q364 573 393.5 566Q423 559 448 546L538 635L613 561L524 472Q537 447 543.5 419Q550 391 550 360Q550 328 543 299.5Q536 271 523 248L613 159L538 84L447 174Q423 161 393.5 154Q364 147 331 147Q299 147 270 154Q241 161 216 174ZM216 360Q216 304 246.5 273Q277 242 331 242Q385 242 416 273Q447 304 447 360Q447 416 416.5 446Q386 476 331 476Q277 476 246.5 446Q216 416 216 360Z" glyph-name="currency" horiz-adv-x="637" unicode="¤" /><glyph d="M607 437Q607 234 525.5 112Q444 -10 297 -10Q183 -10 124 64.5Q65 139 65 282Q65 485 146.5 607.5Q228 730 375 730Q489 730 548 655Q607 580 607 437ZM186 280Q186 183 213.5 140Q241 97 303 97Q389 97 437.5 192Q486 287 486 439Q486 536 458.5 579Q431 622 369 622Q283 622 234.5 527Q186 432 186 280Z" glyph-name="zero" horiz-adv-x="646" unicode="0" /><glyph d="M409 0 24 0L37 108H178L236 585L115 533L87 638L278 720H371L295 108H423Z" glyph-name="one" horiz-adv-x="469" unicode="1" /><glyph d="M463 0 14 0L25 91L259 323Q324 387 353.5 436.5Q383 486 383 533Q383 577 360.5 598.5Q338 620 293 620Q255 620 212 605.5Q169 591 126 564L84 657Q140 694 195 712Q250 730 307 730Q400 730 452 680Q504 630 504 541Q504 470 465 402.5Q426 335 335 248L190 108H463Z" glyph-name="two" horiz-adv-x="536" unicode="2" /><glyph d="M109 720 534 720L523 628L308 439Q400 432 447.5 381.5Q495 331 495 241Q495 125 425 57.5Q355 -10 229 -10Q167 -10 115 7.5Q63 25 18 60L72 155Q109 127 150 112.5Q191 98 233 98Q301 98 338.5 136Q376 174 376 239Q376 290 346.5 315Q317 340 256 340Q236 340 216.5 338Q197 336 175 332L156 418L368 611H96Z" glyph-name="three" horiz-adv-x="548" unicode="3" /><glyph d="M364 145 23 145L34 236L309 720H437L171 253H377L401 443H517L462 0H346Z" glyph-name="four" horiz-adv-x="556" unicode="4" /><glyph d="M130 315 84 374L149 720H533L520 611H235L203 438Q223 443 246 446Q269 449 293 449Q400 449 454.5 396.5Q509 344 509 242Q509 122 440.5 56Q372 -10 246 -10Q183 -10 129.5 6.5Q76 23 29 57L83 153Q120 126 162.5 112Q205 98 248 98Q317 98 353.5 134Q390 170 390 237Q390 290 359.5 315Q329 340 266 340Q232 340 196 333.5Q160 327 130 315Z" glyph-name="five" horiz-adv-x="560" unicode="5" /><glyph d="M550 249Q550 131 482 60.5Q414 -10 295 -10Q182 -10 123 64.5Q64 139 64 281Q64 488 151 609Q238 730 398 730Q445 730 487.5 719.5Q530 709 569 687L523 588Q493 604 460 612.5Q427 621 394 621Q311 621 259.5 563Q208 505 190 395Q226 425 266.5 439.5Q307 454 354 454Q446 454 498 399Q550 344 550 249ZM181 290 181 277Q181 184 210 140.5Q239 97 300 97Q361 97 396 136.5Q431 176 431 243Q431 296 406 322.5Q381 349 331 349Q293 349 254.5 334Q216 319 181 290Z" glyph-name="six" horiz-adv-x="598" unicode="6" /><glyph d="M272 73 263 0H146L155 73Q166 166 186.5 224.5Q207 283 264 380L398 611H73L87 720H546L535 628L351 308Q313 241 297 194Q281 147 272 73Z" glyph-name="seven" horiz-adv-x="521" unicode="7" /><glyph d="M548 221Q548 117 476 53.5Q404 -10 277 -10Q166 -10 106 39.5Q46 89 46 180Q46 247 80.5 299Q115 351 178 378Q144 400 126.5 434Q109 468 109 512Q109 612 175 671Q241 730 357 730Q455 730 510.5 681.5Q566 633 566 547Q566 489 539 443Q512 397 461 371Q504 349 526 310.5Q548 272 548 221ZM226 508Q226 464 250 442.5Q274 421 324 421Q384 421 415.5 452Q447 483 447 540Q447 583 423 604.5Q399 626 349 626Q289 626 257.5 595.5Q226 565 226 508ZM165 189Q165 141 195 116.5Q225 92 284 92Q354 92 392.5 127.5Q431 163 431 226Q431 275 401.5 299Q372 323 312 323Q242 323 203.5 287.5Q165 252 165 189Z" glyph-name="eight" horiz-adv-x="607" unicode="8" /><glyph d="M74 470Q74 588 142 659Q210 730 329 730Q442 730 501 655Q560 580 560 438Q560 231 473 110.5Q386 -10 226 -10Q178 -10 135.5 0.5Q93 11 55 32L101 131Q131 115 164 106.5Q197 98 230 98Q313 98 364.5 156Q416 214 434 324Q398 294 357.5 279.5Q317 265 270 265Q178 265 126 320Q74 375 74 470ZM324 622Q263 622 228 582.5Q193 543 193 476Q193 423 218 396.5Q243 370 293 370Q331 370 369.5 385Q408 400 443 429V442Q443 535 414 578.5Q385 622 324 622Z" glyph-name="nine" horiz-adv-x="598" unicode="9" /><glyph d="M1139 536Q1139 448 1084.5 395.5Q1030 343 941 343Q853 343 798 395.5Q743 448 743 536Q743 625 797.5 677.5Q852 730 941 730Q1030 730 1084.5 677.5Q1139 625 1139 536ZM840 536Q840 488 867 461.5Q894 435 941 435Q989 435 1015.5 461Q1042 487 1042 536Q1042 585 1015.5 611Q989 637 941 637Q893 637 866.5 611Q840 585 840 536Z" glyph-name="degree" horiz-adv-x="480" unicode="°" /><glyph d="M75 536Q75 619 125 674Q175 729 256 729Q325 729 365 686.5Q405 644 405 572Q405 489 355.5 434Q306 379 224 379Q155 379 115 421.5Q75 464 75 536ZM248 0 141 0L616 720H723ZM161 537Q161 500 178 480.5Q195 461 228 461Q270 461 294 491.5Q318 522 318 571Q318 609 301 628.5Q284 648 251 648Q209 648 185 617Q161 586 161 537ZM456 146Q456 230 505.5 284.5Q555 339 637 339Q706 339 745.5 296.5Q785 254 785 182Q785 99 735.5 44.5Q686 -10 604 -10Q535 -10 495.5 32Q456 74 456 146ZM541 147Q541 110 558.5 90.5Q576 71 609 71Q651 71 675.5 102Q700 133 700 181Q700 219 683 238.5Q666 258 632 258Q590 258 565.5 227Q541 196 541 147Z" glyph-name="percent" horiz-adv-x="833" unicode="%" /><glyph d="M76 0 -30 0L444 720H552Z" glyph-name="fraction" horiz-adv-x="494" unicode="⁄" /><glyph d="M68 505Q68 603 113 666Q158 729 237 729Q303 729 336 690.5Q369 652 369 576Q369 478 324 415Q279 352 200 352Q134 352 101 390.5Q68 429 68 505ZM154 503Q154 464 166 447Q178 430 205 430Q241 430 262 471.5Q283 513 283 578Q283 616 271 633.5Q259 651 232 651Q195 651 174.5 610Q154 569 154 503Z" glyph-name="zero.numerator" horiz-adv-x="364" unicode="" /><glyph d="M269 357 56 357L66 436H133L157 631L105 608L82 682L181 724H252L217 436H279Z" glyph-name="one.numerator" horiz-adv-x="284" unicode="" /><glyph d="M282 357 48 357L56 425L164 529Q192 556 204.5 577Q217 598 217 617Q217 634 208 642Q199 650 180 650Q164 650 146 643.5Q128 637 108 625L81 692Q112 711 140 720Q168 729 196 729Q247 729 275.5 702Q304 675 304 626Q304 588 284.5 555Q265 522 221 481L170 434H284Z" glyph-name="two.numerator" horiz-adv-x="305" unicode="" /><glyph d="M98 724 322 724L313 654L221 581Q261 573 282 548Q303 523 303 481Q303 421 266.5 386.5Q230 352 164 352Q132 352 104 360.5Q76 369 50 387L83 454Q101 442 121 435.5Q141 429 161 429Q189 429 204 442.5Q219 456 219 481Q219 500 206.5 509.5Q194 519 169 519Q160 519 151 518Q142 517 133 514L119 570L211 646H88Z" glyph-name="three.numerator" horiz-adv-x="309" unicode="" /><glyph d="M213 421 49 421L57 491L185 722H275L149 499H222L231 572H309L283 357H205Z" glyph-name="four.numerator" horiz-adv-x="309" unicode="" /><glyph d="M269 357 56 357L66 436H133L157 631L105 608L82 682L181 724H252L217 436H279ZM213 0 107 0L581 720H689ZM734 0 500 0L508 68L616 172Q644 199 656.5 220Q669 241 669 260Q669 277 660 285Q651 293 632 293Q616 293 598 286.5Q580 280 560 268L533 335Q564 354 592 363Q620 372 648 372Q699 372 727.5 345Q756 318 756 269Q756 231 736.5 198Q717 165 673 124L622 77H736Z" glyph-name="onehalf" horiz-adv-x="798" unicode="½" /><glyph d="M269 357 56 357L66 436H133L157 631L105 608L82 682L181 724H252L217 436H279ZM213 0 107 0L581 720H689ZM545 367 769 367L760 297L668 224Q708 216 729 191Q750 166 750 124Q750 64 713.5 29.5Q677 -5 611 -5Q579 -5 551 3.5Q523 12 497 30L530 97Q548 85 568 78.5Q588 72 608 72Q636 72 651 85.5Q666 99 666 124Q666 143 653.5 152.5Q641 162 616 162Q607 162 598 161Q589 160 580 157L566 213L658 289H535Z" glyph-name="onethird" horiz-adv-x="798" unicode="⅓" /><glyph d="M269 357 56 357L66 436H133L157 631L105 608L82 682L181 724H252L217 436H279ZM213 0 107 0L581 720H689ZM650 64 486 64L494 134L622 365H712L586 142H659L668 215H746L720 0H642Z" glyph-name="onequarter" horiz-adv-x="789" unicode="¼" /><glyph d="M322 87 225 87L248 278H73L86 380H261L284 570H381L358 380H520V278H345Z" glyph-name="plus" horiz-adv-x="585" unicode="+" /><glyph d="M76 278 89 380H518V278Z" glyph-name="minus" horiz-adv-x="585" unicode="−" /><glyph d="M147 110 83 184L236 333L122 474L196 545L309 405L453 545L518 471L371 328L486 186L411 115L297 256Z" glyph-name="multiply" horiz-adv-x="585" unicode="×" /><glyph d="M267 465 282 590L397 604L380 465ZM76 278 89 380H518V278ZM347 194 331 69L217 55L234 194Z" glyph-name="divide" horiz-adv-x="585" unicode="÷" /><glyph d="M92 404 104 508H533V404ZM60 150 73 253H514L502 150Z" glyph-name="equal" horiz-adv-x="585" unicode="=" /><glyph d="M65 278 78 380H519L483 87H385L408 278Z" glyph-name="logicalnot" horiz-adv-x="585" unicode="¬" /><glyph d="M403 245Q379 245 354 253Q329 261 285 286Q253 304 238 309.5Q223 315 210 315Q189 315 177 300Q165 285 161 255H65Q74 336 108.5 377Q143 418 203 418Q227 418 251.5 410Q276 402 319 378Q352 360 367.5 354.5Q383 349 396 349Q418 349 430 364.5Q442 380 446 414L540 402Q532 325 497 285Q462 245 403 245Z" glyph-name="asciitilde" horiz-adv-x="585" unicode="~" /><glyph d="M205 327 493 181L480 71L65 287L75 372L535 584L534 475Z" glyph-name="less" horiz-adv-x="585" unicode="&lt;" /><glyph d="M538 371 528 286L69 74V183L399 332L111 477L124 587Z" glyph-name="greater" horiz-adv-x="585" unicode="&gt;" /><glyph d="M331 138 233 138L255 320H80L92 422H268L290 604H387L365 422H526V320H353ZM43 0 55 102H484V0Z" glyph-name="plusminus" horiz-adv-x="585" unicode="±" /><glyph d="M527 246 424 246L335 578L164 246H56L309 729H391Z" glyph-name="asciicircum" horiz-adv-x="585" unicode="^" /><glyph d="M180 20 71 20L145 150H60L73 253H204L291 404H92L104 508H351L425 638H535L460 508H532V404H401L314 253H514L501 150H255Z" glyph-name="notequal" horiz-adv-x="585" unicode="≠" /><glyph d="M420 378Q396 378 371 386Q346 394 302 418Q270 436 255 441.5Q240 447 227 447Q206 447 193.5 432Q181 417 177 388H82Q91 468 125.5 509Q160 550 219 550Q243 550 268 542Q293 534 336 510Q369 492 384.5 486.5Q400 481 413 481Q434 481 446.5 497Q459 513 462 546L557 534Q548 457 513.5 417.5Q479 378 420 378ZM387 114Q363 114 338 122Q313 130 269 154Q237 172 222 177.5Q207 183 194 183Q173 183 160.5 168Q148 153 144 124H49Q58 205 92.5 246Q127 287 186 287Q210 287 235 279Q260 271 303 247Q336 228 351.5 222.5Q367 217 380 217Q401 217 413.5 233.5Q426 250 429 283L524 270Q515 193 480 153.5Q445 114 387 114Z" glyph-name="approxequal" horiz-adv-x="585" unicode="≈" /><glyph d="M235 447 518 334L504 226L76 407L86 488L552 681L554 573ZM49 181 62 284L490 103L477 0Z" glyph-name="lessequal" horiz-adv-x="585" unicode="≤" /><glyph d="M558 488 548 407L76 226L89 339L401 451L119 575L132 682ZM62 109 534 290L521 181L48 0Z" glyph-name="greaterequal" horiz-adv-x="585" unicode="≥" /><glyph d="M671 279 671 272H175Q173 272 172 271Q171 270 171 269V110Q171 105 172.5 100Q174 95 178 91Q215 50 263 28Q311 6 364 6Q421 6 472 30.5Q523 55 561 101H605Q562 48 498 18.5Q434 -11 362 -11Q235 -11 146.5 73.5Q58 158 59 279Q60 401 150.5 487Q241 573 368 573Q494 573 582.5 487.5Q671 402 671 279ZM559 292 559 452Q559 460 557.5 464.5Q556 469 553 472Q516 512 468.5 533.5Q421 555 368 555Q316 555 267.5 532.5Q219 510 181 469Q175 461 173 457Q171 453 171 449V292Q171 291 172.5 289.5Q174 288 175 288H556Q557 288 558 289Q559 290 559 292Z" glyph-name="estimated" horiz-adv-x="722" unicode="℮" /><glyph d="M39 0 101 503H202L192 425Q233 470 275.5 491.5Q318 513 365 513Q371 513 377.5 512.5Q384 512 388 511L361 393Q315 393 271 379.5Q227 366 188 340L146 0Z" glyph-name="r.alt" horiz-adv-x="373" unicode="" /></font>
</defs>
</svg>
