<?xml version="1.0" standalone="no"?>
<!DOCTYPE svg
  PUBLIC '-//W3C//DTD SVG 1.1//EN'
  'http://www.w3.org/Graphics/SVG/1.1/DTD/svg11.dtd'><svg version="1.1" xmlns="http://www.w3.org/2000/svg"><defs><font horiz-adv-x="0" id="font"><font-face ascent="780" bbox="-51 -220 1173 993" cap-height="720" descent="-220" font-family="MAIF" font-stretch="normal" font-style="normal" font-weight="720" units-per-em="1000" x-height="509" /><missing-glyph d="M684 720 684 0H87V720ZM246 580 246 140H525V580Z" horiz-adv-x="771" /><glyph d="" glyph-name=".null" horiz-adv-x="0" unicode="" /><glyph d="" glyph-name="CR" horiz-adv-x="0" unicode="" /><glyph d="" glyph-name="space" horiz-adv-x="265" unicode=" " /><glyph d="" glyph-name="uni00A0" horiz-adv-x="265" unicode=" " /><glyph d="M12 0 277 720H425L692 0H524L477 146H221L173 0ZM350 543 263 276H435Z" glyph-name="A" horiz-adv-x="705" unicode="A" /><glyph d="M639 206Q639 107 572 53.5Q505 0 378 0H87V720H360Q479 720 542.5 668.5Q606 617 606 523Q606 472 586.5 435.5Q567 399 528 377Q583 355 611 312Q639 269 639 206ZM445 512Q445 551 425 569.5Q405 588 364 588H243V433H364Q405 433 425 452.5Q445 472 445 512ZM478 217Q478 262 454.5 283.5Q431 305 382 305H243V132H382Q431 132 454.5 153Q478 174 478 217Z" glyph-name="B" horiz-adv-x="682" unicode="B" /><glyph d="M378 130Q419 130 460.5 141.5Q502 153 541 175L605 52Q557 22 497 6Q437 -10 370 -10Q210 -10 129 83.5Q48 177 48 360Q48 542 129.5 636Q211 730 370 730Q434 730 491 714.5Q548 699 594 670L530 549Q494 569 456 579.5Q418 590 378 590Q293 590 254 536.5Q215 483 215 360Q215 237 254 183.5Q293 130 378 130Z" glyph-name="C" horiz-adv-x="628" unicode="C" /><glyph d="M701 360Q701 187 615 93.5Q529 0 366 0H87V720H366Q529 720 615 626Q701 532 701 360ZM534 360Q534 472 492.5 526Q451 580 366 580H246V140H366Q451 140 492.5 194Q534 248 534 360Z" glyph-name="D" horiz-adv-x="747" unicode="D" /><glyph d="M593 0 87 0V720H567V583H244V433H511V297H244V137H575Z" glyph-name="E" horiz-adv-x="626" unicode="E" /><glyph d="M246 256 246 0H87V720H567L549 580H246V396H511V256Z" glyph-name="F" horiz-adv-x="591" unicode="F" /><glyph d="M636 362 636 60Q582 26 515 8Q448 -10 375 -10Q212 -10 129.5 83.5Q47 177 47 360Q47 541 131.5 635.5Q216 730 381 730Q448 730 509 713Q570 696 621 664L556 542Q518 566 475.5 578Q433 590 389 590Q297 590 255.5 536.5Q214 483 214 360Q214 235 254 180.5Q294 126 382 126Q406 126 430 129.5Q454 133 477 140V343Z" glyph-name="G" horiz-adv-x="690" unicode="G" /><glyph d="M246 0 87 0V720H246V444H525V710L684 729V0H525V304H246Z" glyph-name="H" horiz-adv-x="771" unicode="H" /><glyph d="M246 729 246 0H87V710Z" glyph-name="I" horiz-adv-x="333" unicode="I" /><glyph d="M88 710 247 729V64Q247 -19 228 -72Q209 -125 161 -187L135 -220L15 -128L39 -92Q67 -50 77.5 -18.5Q88 13 88 63Z" glyph-name="J" horiz-adv-x="334" unicode="J" /><glyph d="M246 300 246 0H87V710L246 729V440H303L511 720H696L441 377L717 0H517L304 300Z" glyph-name="K" horiz-adv-x="726" unicode="K" /><glyph d="M246 140 541 140L559 0H87V710L246 729Z" glyph-name="L" horiz-adv-x="576" unicode="L" /><glyph d="M510 180 392 180L242 465V0H87V720H247L451 339L654 720H814V0H659V466Z" glyph-name="M" horiz-adv-x="902" unicode="M" /><glyph d="M240 466 240 0H87V720H245L522 253V711L675 730V0H517Z" glyph-name="N" horiz-adv-x="762" unicode="N" /><glyph d="M710 360Q710 182 625 86Q540 -10 379 -10Q217 -10 131.5 86Q46 182 46 360Q46 537 132 633.5Q218 730 379 730Q540 730 625 633.5Q710 537 710 360ZM213 360Q213 243 254 186.5Q295 130 379 130Q462 130 502.5 186Q543 242 543 360Q543 478 502.5 534Q462 590 379 590Q295 590 254 533.5Q213 477 213 360Z" glyph-name="O" horiz-adv-x="757" unicode="O" /><glyph d="M246 208 246 0H87V720H356Q489 720 560 653Q631 586 631 464Q631 342 560 275Q489 208 356 208ZM464 464Q464 524 437.5 552Q411 580 356 580H246V348H356Q411 348 437.5 376.5Q464 405 464 464Z" glyph-name="P" horiz-adv-x="665" unicode="P" /><glyph d="M398 -10 379 -10Q217 -10 131.5 86Q46 182 46 360Q46 537 132 633.5Q218 730 379 730Q540 730 625 633.5Q710 537 710 360Q710 238 668.5 152.5Q627 67 548 26L613 -158L469 -210ZM213 360Q213 243 254 186.5Q295 130 379 130Q462 130 502.5 186Q543 242 543 360Q543 478 502.5 534Q462 590 379 590Q295 590 254 533.5Q213 477 213 360Z" glyph-name="Q" horiz-adv-x="757" unicode="Q" /><glyph d="M246 254 246 0H87V720H374Q501 720 568 658.5Q635 597 635 484Q635 403 599.5 349Q564 295 495 272L667 0H480L323 254ZM468 480Q468 532 445 556Q422 580 374 580H246V385H374Q422 385 445 408Q468 431 468 480Z" glyph-name="R" horiz-adv-x="693" unicode="R" /><glyph d="M589 213Q589 100 522 45Q455 -10 318 -10Q234 -10 166 8.5Q98 27 35 68L98 190Q151 159 206 143.5Q261 128 320 128Q380 128 406.5 145Q433 162 433 200Q433 232 414.5 248.5Q396 265 348 275L267 292Q154 316 103.5 367.5Q53 419 53 512Q53 621 118 675.5Q183 730 312 730Q385 730 449.5 711.5Q514 693 574 655L511 535Q465 562 414 577Q363 592 313 592Q260 592 234.5 574Q209 556 209 520Q209 489 229.5 472Q250 455 298 445L379 428Q490 405 539.5 354Q589 303 589 213Z" glyph-name="S" horiz-adv-x="631" unicode="S" /><glyph d="M400 580 400 0H241V580H18V720H625L608 580Z" glyph-name="T" horiz-adv-x="639" unicode="T" /><glyph d="M668 730 668 280Q668 139 592 64.5Q516 -10 370 -10Q224 -10 148 64.5Q72 139 72 280V720H231V280Q231 202 265 166Q299 130 370 130Q441 130 475 166Q509 202 509 280V710Z" glyph-name="U" horiz-adv-x="741" unicode="U" /><glyph d="M677 720 415 0H271L9 720H177L345 228L514 720Z" glyph-name="V" horiz-adv-x="688" unicode="V" /><glyph d="M805 0 658 0L511 501L364 0H218L14 720H178L303 242L443 720H585L724 245L849 720H1008Z" glyph-name="W" horiz-adv-x="1024" unicode="W" /><glyph d="M250 369 26 720H210L347 499L482 720H657L434 374L672 0H488L337 245L187 0H12Z" glyph-name="X" horiz-adv-x="685" unicode="X" /><glyph d="M406 263 406 0H247V263L2 720H174L329 419L486 720H652Z" glyph-name="Y" horiz-adv-x="654" unicode="Y" /><glyph d="M590 0 39 0V123L370 580H54V720H570V597L239 140H572Z" glyph-name="Z" horiz-adv-x="624" unicode="Z" /><glyph d="M994 0 488 0V148H255L175 0H7L408 720H968V583H645V433H912V297H645V137H976ZM488 586 325 278H488Z" glyph-name="AE" horiz-adv-x="1028" unicode="Æ" /><glyph d="M46 360Q46 532 131.5 626Q217 720 379 720H981V583H658V433H925V297H658V137H989L1007 0H379Q217 0 131.5 93.5Q46 187 46 360ZM213 360Q213 246 254 191.5Q295 137 379 137H501V583H379Q295 583 254 528Q213 473 213 360Z" glyph-name="OE" horiz-adv-x="1040" unicode="Œ" /><glyph d="M463 126Q506 126 527 147Q548 168 548 213Q548 259 527 280Q506 301 461 301H353V410L467 583Q446 588 425.5 590Q405 592 385 592Q306 592 269 555.5Q232 519 232 439V0H73V439Q73 581 151 655.5Q229 730 379 730Q446 730 505 715Q564 700 610 670V570L516 426Q613 414 664 359.5Q715 305 715 215Q715 108 652 49Q589 -10 471 -10Q418 -10 372.5 2Q327 14 284 40L340 160Q373 143 404 134.5Q435 126 463 126Z" glyph-name="uni1E9E" horiz-adv-x="745" unicode="ẞ" /><glyph d="M344 299 344 309Q344 353 323.5 372Q303 391 258 391Q222 391 182 381Q142 371 102 352L56 462Q108 490 163 504.5Q218 519 271 519Q377 519 430.5 466.5Q484 414 484 309V0H350V47Q315 18 278 4Q241 -10 199 -10Q123 -10 81 30Q39 70 39 141Q39 218 85.5 258.5Q132 299 221 299ZM182 152Q182 126 195.5 114Q209 102 237 102Q261 102 287.5 111Q314 120 344 138V200H238Q209 200 195.5 188.5Q182 177 182 152Z" glyph-name="a" horiz-adv-x="548" unicode="a" /><glyph d="M211 0 73 0V742L217 760V465Q249 493 282.5 506Q316 519 356 519Q454 519 506.5 449Q559 379 559 254Q559 128 506.5 59Q454 -10 356 -10Q314 -10 279 4Q244 18 211 48ZM320 124Q368 124 391 155Q414 186 414 254Q414 322 391 353.5Q368 385 320 385Q295 385 269.5 376.5Q244 368 217 351V157Q243 141 269 132.5Q295 124 320 124Z" glyph-name="b" horiz-adv-x="606" unicode="b" /><glyph d="M295 387Q240 387 215.5 356.5Q191 326 191 254Q191 182 215.5 151.5Q240 121 295 121Q324 121 353.5 129.5Q383 138 412 156L467 42Q431 16 385.5 3Q340 -10 285 -10Q167 -10 106.5 57Q46 124 46 254Q46 384 106.5 451.5Q167 519 284 519Q335 519 379 506Q423 493 460 468L405 356Q379 371 351 379Q323 387 295 387Z" glyph-name="c" horiz-adv-x="495" unicode="c" /><glyph d="M533 760 533 0H395V49Q363 18 328 4Q293 -10 250 -10Q152 -10 99.5 59Q47 128 47 254Q47 379 99.5 449Q152 519 250 519Q290 519 324 506Q358 493 389 465V741ZM286 385Q238 385 215 353.5Q192 322 192 254Q192 186 215 155Q238 124 286 124Q311 124 336.5 132Q362 140 389 157V351Q361 368 335.5 376.5Q310 385 286 385Z" glyph-name="d" horiz-adv-x="606" unicode="d" /><glyph d="M524 254 524 214H185Q192 159 222.5 134.5Q253 110 311 110Q352 110 392.5 120.5Q433 131 470 152L522 47Q477 19 421.5 4.5Q366 -10 307 -10Q177 -10 111 56.5Q45 123 45 254Q45 382 106.5 450.5Q168 519 285 519Q403 519 463.5 451.5Q524 384 524 254ZM285 407Q243 407 219 384Q195 361 187 313H382Q375 362 351.5 384.5Q328 407 285 407Z" glyph-name="e" horiz-adv-x="569" unicode="e" /><glyph d="M108 381 27 381V509H108V578Q108 661 145.5 698Q183 735 289 748L389 759V629L296 618Q270 615 261 605.5Q252 596 252 572V509H389V381H252V0H108Z" glyph-name="f" horiz-adv-x="417" unicode="f" /><glyph d="M492 349Q492 268 434 224Q376 180 266 180Q256 180 251 180Q246 180 242 181L212 120L371 106Q456 98 499 60.5Q542 23 542 -44Q542 -132 476.5 -176Q411 -220 281 -220Q163 -220 103.5 -185Q44 -150 44 -80Q44 -50 56 -24Q68 2 91 22Q82 29 77.5 40Q73 51 73 65Q73 81 79 99Q85 117 98 140L134 203Q88 224 64 261Q40 298 40 349Q40 431 98 475Q156 519 266 519Q302 519 333 514Q364 509 389 500L475 580L552 499L475 427Q484 410 488 390.5Q492 371 492 349ZM176 349Q176 314 198 298Q220 282 267 282Q314 282 336.5 298.5Q359 315 359 349Q359 384 336 400.5Q313 417 267 417Q220 417 198 400.5Q176 384 176 349ZM177 -51Q177 -82 203 -95.5Q229 -109 287 -109Q352 -109 381 -96Q410 -83 410 -55Q410 -36 398.5 -25.5Q387 -15 363 -13L205 1Q191 -10 184 -23Q177 -36 177 -51Z" glyph-name="g" horiz-adv-x="569" unicode="g" /><glyph d="M362 519Q448 519 495 463Q542 407 542 305V0H398V297Q398 340 378.5 361Q359 382 319 382Q294 382 268.5 374Q243 366 217 350V0H73V742L217 760V462Q251 492 286 505.5Q321 519 362 519Z" glyph-name="h" horiz-adv-x="606" unicode="h" /><glyph d="M220 638 70 576V744H220ZM73 0 73 518L217 501V0Z" glyph-name="i" horiz-adv-x="290" unicode="i" /><glyph d="M220 638 70 576V744H220ZM73 518 217 501V38Q217 -36 202 -76Q187 -116 145 -181L119 -220L8 -140L35 -96Q57 -58 65 -33Q73 -8 73 44Z" glyph-name="j" horiz-adv-x="290" unicode="j" /><glyph d="M73 0 73 741L217 760V339H262L380 509H545L383 283L579 0H407L266 208H217V0Z" glyph-name="k" horiz-adv-x="596" unicode="k" /><glyph d="M212 760 212 156Q212 138 217 132.5Q222 127 237 127H277L295 0H214Q129 0 98.5 31.5Q68 63 68 152V742Z" glyph-name="l" horiz-adv-x="319" unicode="l" /><glyph d="M73 0 73 509H211V458Q245 490 280 504.5Q315 519 356 519Q402 519 437 501Q472 483 494 448Q531 485 571 502Q611 519 659 519Q744 519 790.5 464.5Q837 410 837 309V0H693V300Q693 341 675.5 361.5Q658 382 622 382Q598 382 574 374Q550 366 525 350Q526 335 526.5 326Q527 317 527 309V0H383V300Q383 342 365.5 362Q348 382 312 382Q289 382 265.5 374.5Q242 367 217 352V0Z" glyph-name="m" horiz-adv-x="901" unicode="m" /><glyph d="M73 0 73 509H211V457Q247 490 283 504.5Q319 519 362 519Q448 519 495 463Q542 407 542 305V0H398V297Q398 340 378.5 361Q359 382 319 382Q294 382 268.5 374Q243 366 217 350V0Z" glyph-name="n" horiz-adv-x="606" unicode="n" /><glyph d="M541 254Q541 127 476.5 58.5Q412 -10 293 -10Q173 -10 108.5 58.5Q44 127 44 254Q44 380 109 449.5Q174 519 293 519Q412 519 476.5 450Q541 381 541 254ZM189 254Q189 182 214.5 148.5Q240 115 293 115Q346 115 371 149Q396 183 396 254Q396 325 371 359Q346 393 293 393Q240 393 214.5 359Q189 325 189 254Z" glyph-name="o" horiz-adv-x="586" unicode="o" /><glyph d="M73 -210 73 509H211V459Q244 490 279 504.5Q314 519 356 519Q454 519 506.5 449Q559 379 559 254Q559 128 506.5 59Q454 -10 356 -10Q316 -10 282.5 2.5Q249 15 217 43V-210ZM320 124Q368 124 391 155Q414 186 414 254Q414 322 391 353.5Q368 385 320 385Q295 385 269.5 376.5Q244 368 217 351V157Q243 141 269 132.5Q295 124 320 124Z" glyph-name="p" horiz-adv-x="606" unicode="p" /><glyph d="M395 509 533 509V-210H389V43Q358 16 324.5 3Q291 -10 250 -10Q152 -10 99.5 59Q47 128 47 254Q47 379 99.5 449Q152 519 250 519Q292 519 327 504.5Q362 490 395 459ZM286 385Q238 385 215 353.5Q192 322 192 254Q192 186 215 155Q238 124 286 124Q311 124 336.5 132Q362 140 389 157V351Q361 368 335.5 376.5Q310 385 286 385Z" glyph-name="q" horiz-adv-x="606" unicode="q" /><glyph d="M96 382 27 382V509H229V422Q267 471 310 495Q353 519 404 519Q410 519 416.5 518.5Q423 518 427 517L411 362Q363 362 320 353.5Q277 345 240 328V0H96Z" glyph-name="r" horiz-adv-x="451" unicode="r" /><glyph d="M473 154Q473 72 418 31Q363 -10 254 -10Q192 -10 137.5 4Q83 18 37 45L89 148Q129 125 170 114Q211 103 257 103Q299 103 316.5 112Q334 121 334 142Q334 160 322.5 169Q311 178 281 183L225 193Q132 210 90 248Q48 286 48 357Q48 437 100 478Q152 519 254 519Q311 519 363 505Q415 491 462 464L410 362Q372 384 333 394.5Q294 405 254 405Q219 405 202.5 396Q186 387 186 367Q186 349 199 339.5Q212 330 246 324L302 314Q389 299 431 260Q473 221 473 154Z" glyph-name="s" horiz-adv-x="513" unicode="s" /><glyph d="M251 381 251 171Q251 145 259 136Q267 127 290 127H381L399 0H274Q181 0 144 38Q107 76 107 171V381H27V509H107V627L251 644V509H387V381Z" glyph-name="t" horiz-adv-x="438" unicode="t" /><glyph d="M238 -10Q155 -10 109.5 44.5Q64 99 64 199V509H208V207Q208 166 226 146Q244 126 281 126Q306 126 330.5 133.5Q355 141 380 157V509H523V0H385V51Q351 19 315.5 4.5Q280 -10 238 -10Z" glyph-name="u" horiz-adv-x="597" unicode="u" /><glyph d="M396 509 543 509L337 0H224L17 509H173L284 211Z" glyph-name="v" horiz-adv-x="561" unicode="v" /><glyph d="M340 509 461 509L546 210L634 509H778L616 0H494L399 337L303 0H181L20 509H167L255 211Z" glyph-name="w" horiz-adv-x="799" unicode="w" /><glyph d="M197 261 30 509H196L281 376L366 509H525L357 261L533 0H366L272 147L178 0H20Z" glyph-name="x" horiz-adv-x="554" unicode="x" /><glyph d="M396 509 543 509L245 -218L115 -165L206 45L17 509H172L283 211Z" glyph-name="y" horiz-adv-x="561" unicode="y" /><glyph d="M460 0 44 0V108L264 381H50V509H446V400L226 127H444Z" glyph-name="z" horiz-adv-x="498" unicode="z" /><glyph d="M344 299 344 309Q344 353 323.5 372Q303 391 258 391Q222 391 182 381Q142 371 102 352L56 462Q108 490 162.5 504.5Q217 519 268 519Q322 519 361 502.5Q400 486 424 453Q452 486 493.5 502.5Q535 519 588 519Q702 519 761.5 451Q821 383 821 254V214H483Q490 159 520 134.5Q550 110 609 110Q649 110 689.5 120.5Q730 131 768 152L819 47Q774 19 719 4.5Q664 -10 604 -10Q536 -10 485 8.5Q434 27 401 64Q356 26 309.5 8Q263 -10 209 -10Q127 -10 83 29.5Q39 69 39 141Q39 218 85.5 258.5Q132 299 221 299ZM582 407Q540 407 516 384Q492 361 485 313H679Q673 362 649 384.5Q625 407 582 407ZM182 152Q182 126 195.5 114Q209 102 237 102Q264 102 294 113Q324 124 357 147Q353 160 350 173.5Q347 187 346 200H238Q209 200 195.5 188.5Q182 177 182 152Z" glyph-name="ae" horiz-adv-x="866" unicode="æ" /><glyph d="M474 69Q444 30 398.5 10Q353 -10 293 -10Q173 -10 108.5 58.5Q44 127 44 254Q44 380 109 449.5Q174 519 293 519Q352 519 397 499Q442 479 471 440Q500 479 544.5 499Q589 519 649 519Q762 519 821.5 450.5Q881 382 881 254V214H542Q549 159 579.5 134.5Q610 110 668 110Q709 110 749.5 120.5Q790 131 827 152L878 47Q834 19 779.5 4.5Q725 -10 668 -10Q601 -10 552.5 10Q504 30 474 69ZM642 407Q599 407 575 384Q551 361 544 313H738Q732 361 708.5 384Q685 407 642 407ZM189 254Q189 182 214.5 148.5Q240 115 293 115Q346 115 371.5 148.5Q397 182 397 254Q397 325 371.5 359Q346 393 293 393Q240 393 214.5 359Q189 325 189 254Z" glyph-name="oe" horiz-adv-x="926" unicode="œ" /><glyph d="M117 377 27 377V509H117V548Q117 658 169.5 709Q222 760 336 760Q439 760 493.5 718.5Q548 677 548 601Q548 571 539 540.5Q530 510 504 461Q488 432 483.5 420Q479 408 479 398Q479 388 484 381Q489 374 503 366L560 334Q622 300 650 258Q678 216 678 158Q678 78 627.5 34Q577 -10 485 -10Q435 -10 390 2Q345 14 306 38L358 146Q392 129 421.5 120.5Q451 112 477 112Q505 112 518.5 122.5Q532 133 532 155Q532 178 516.5 194.5Q501 211 461 233L404 265Q367 285 349.5 309.5Q332 334 332 364Q332 385 339.5 409.5Q347 434 371 481Q392 524 398.5 544.5Q405 565 405 582Q405 609 388 622.5Q371 636 337 636Q296 636 278 615.5Q260 595 260 548V0H117Z" glyph-name="germandbls" horiz-adv-x="712" unicode="ß" /><glyph d="M73 0 73 518L217 501V0Z" glyph-name="dotlessi" horiz-adv-x="290" unicode="ı" /><glyph d="M12 0 277 720H425L692 0H524L477 146H221L173 0ZM350 543 263 276H435ZM391 804 255 804L407 993L501 908Z" glyph-name="Aacute" horiz-adv-x="705" unicode="Á" /><glyph d="M12 0 277 720H425L692 0H524L477 146H221L173 0ZM350 543 263 276H435ZM291 961 410 961L547 804H411L351 867L290 804H154Z" glyph-name="Acircumflex" horiz-adv-x="705" unicode="Â" /><glyph d="M12 0 277 720H425L692 0H524L477 146H221L173 0ZM350 543 263 276H435ZM310 948 310 816H177V948ZM391 816 391 948H524V816Z" glyph-name="Adieresis" horiz-adv-x="705" unicode="Ä" /><glyph d="M12 0 277 720H425L692 0H524L477 146H221L173 0ZM350 543 263 276H435ZM294 993 446 804H310L200 908Z" glyph-name="Agrave" horiz-adv-x="705" unicode="À" /><glyph d="M292 -102 280 -44L301 -5Q175 14 111.5 106.5Q48 199 48 360Q48 542 129.5 636Q211 730 370 730Q434 730 491 714.5Q548 699 594 670L530 549Q494 569 456 579.5Q418 590 378 590Q293 590 254 536.5Q215 483 215 360Q215 237 254 183.5Q293 130 378 130Q419 130 460.5 141.5Q502 153 541 175L605 52Q559 22 500.5 6.5Q442 -9 376 -10L362 -39Q412 -42 438 -65Q464 -88 464 -129Q464 -175 432 -197.5Q400 -220 336 -220Q303 -220 275.5 -212.5Q248 -205 223 -188L251 -127Q268 -138 287.5 -143.5Q307 -149 327 -149Q346 -149 354.5 -143Q363 -137 363 -124Q363 -111 354 -105Q345 -99 327 -99Q321 -99 314.5 -99.5Q308 -100 292 -102Z" glyph-name="Ccedilla" horiz-adv-x="628" unicode="Ç" /><glyph d="M378 130Q419 130 460.5 141.5Q502 153 541 175L605 52Q557 22 497 6Q437 -10 370 -10Q210 -10 129 83.5Q48 177 48 360Q48 542 129.5 636Q211 730 370 730Q434 730 491 714.5Q548 699 594 670L530 549Q494 569 456 579.5Q418 590 378 590Q293 590 254 536.5Q215 483 215 360Q215 237 254 183.5Q293 130 378 130ZM400 804 264 804L416 993L510 908Z" glyph-name="Cacute" horiz-adv-x="628" unicode="Ć" /><glyph d="M593 0 87 0V720H567V583H244V433H511V297H244V137H575ZM366 804 230 804L382 993L476 908Z" glyph-name="Eacute" horiz-adv-x="626" unicode="É" /><glyph d="M593 0 87 0V720H567V583H244V433H511V297H244V137H575ZM266 961 385 961L522 804H386L326 867L265 804H129Z" glyph-name="Ecircumflex" horiz-adv-x="626" unicode="Ê" /><glyph d="M593 0 87 0V720H567V583H244V433H511V297H244V137H575ZM285 948 285 816H152V948ZM366 816 366 948H499V816Z" glyph-name="Edieresis" horiz-adv-x="626" unicode="Ë" /><glyph d="M593 0 87 0V720H567V583H244V433H511V297H244V137H575ZM269 993 421 804H285L175 908Z" glyph-name="Egrave" horiz-adv-x="626" unicode="È" /><glyph d="M246 729 246 0H87V710ZM207 804 71 804L223 993L317 908Z" glyph-name="Iacute" horiz-adv-x="333" unicode="Í" /><glyph d="M246 729 246 0H87V710ZM107 961 226 961L363 804H227L167 867L106 804H-30Z" glyph-name="Icircumflex" horiz-adv-x="333" unicode="Î" /><glyph d="M246 729 246 0H87V710ZM127 948 127 816H-6V948ZM208 816 208 948H341V816Z" glyph-name="Idieresis" horiz-adv-x="333" unicode="Ï" /><glyph d="M246 729 246 0H87V710ZM110 993 262 804H126L16 908Z" glyph-name="Igrave" horiz-adv-x="333" unicode="Ì" /><glyph d="M246 729 246 0H87V710ZM92 786 92 954H241V848Z" glyph-name="Idotaccent" horiz-adv-x="333" unicode="İ" /><glyph d="M240 466 240 0H87V720H245L522 253V711L675 730V0H517ZM404 925Q425 913 433.5 910Q442 907 449 907Q460 907 465 917.5Q470 928 470 952L573 940Q573 874 546 840Q519 806 469 806Q449 806 427.5 812.5Q406 819 371 837Q350 849 341 852Q332 855 325 855Q315 855 310 845Q305 835 305 815H202Q202 884 228.5 920Q255 956 306 956Q326 956 347.5 949.5Q369 943 404 925Z" glyph-name="Ntilde" horiz-adv-x="762" unicode="Ñ" /><glyph d="M710 360Q710 182 625 86Q540 -10 379 -10Q217 -10 131.5 86Q46 182 46 360Q46 537 132 633.5Q218 730 379 730Q540 730 625 633.5Q710 537 710 360ZM213 360Q213 243 254 186.5Q295 130 379 130Q462 130 502.5 186Q543 242 543 360Q543 478 502.5 534Q462 590 379 590Q295 590 254 533.5Q213 477 213 360ZM418 804 282 804L434 993L528 908Z" glyph-name="Oacute" horiz-adv-x="757" unicode="Ó" /><glyph d="M710 360Q710 182 625 86Q540 -10 379 -10Q217 -10 131.5 86Q46 182 46 360Q46 537 132 633.5Q218 730 379 730Q540 730 625 633.5Q710 537 710 360ZM213 360Q213 243 254 186.5Q295 130 379 130Q462 130 502.5 186Q543 242 543 360Q543 478 502.5 534Q462 590 379 590Q295 590 254 533.5Q213 477 213 360ZM318 961 437 961L574 804H438L378 867L317 804H181Z" glyph-name="Ocircumflex" horiz-adv-x="757" unicode="Ô" /><glyph d="M710 360Q710 182 625 86Q540 -10 379 -10Q217 -10 131.5 86Q46 182 46 360Q46 537 132 633.5Q218 730 379 730Q540 730 625 633.5Q710 537 710 360ZM213 360Q213 243 254 186.5Q295 130 379 130Q462 130 502.5 186Q543 242 543 360Q543 478 502.5 534Q462 590 379 590Q295 590 254 533.5Q213 477 213 360ZM337 948 337 816H204V948ZM418 816 418 948H551V816Z" glyph-name="Odieresis" horiz-adv-x="757" unicode="Ö" /><glyph d="M710 360Q710 182 625 86Q540 -10 379 -10Q217 -10 131.5 86Q46 182 46 360Q46 537 132 633.5Q218 730 379 730Q540 730 625 633.5Q710 537 710 360ZM213 360Q213 243 254 186.5Q295 130 379 130Q462 130 502.5 186Q543 242 543 360Q543 478 502.5 534Q462 590 379 590Q295 590 254 533.5Q213 477 213 360ZM321 993 473 804H337L227 908Z" glyph-name="Ograve" horiz-adv-x="757" unicode="Ò" /><glyph d="M668 730 668 280Q668 139 592 64.5Q516 -10 370 -10Q224 -10 148 64.5Q72 139 72 280V720H231V280Q231 202 265 166Q299 130 370 130Q441 130 475 166Q509 202 509 280V710ZM409 804 273 804L425 993L519 908Z" glyph-name="Uacute" horiz-adv-x="741" unicode="Ú" /><glyph d="M668 730 668 280Q668 139 592 64.5Q516 -10 370 -10Q224 -10 148 64.5Q72 139 72 280V720H231V280Q231 202 265 166Q299 130 370 130Q441 130 475 166Q509 202 509 280V710ZM309 961 428 961L565 804H429L369 867L308 804H172Z" glyph-name="Ucircumflex" horiz-adv-x="741" unicode="Û" /><glyph d="M668 730 668 280Q668 139 592 64.5Q516 -10 370 -10Q224 -10 148 64.5Q72 139 72 280V720H231V280Q231 202 265 166Q299 130 370 130Q441 130 475 166Q509 202 509 280V710ZM328 948 328 816H195V948ZM409 816 409 948H542V816Z" glyph-name="Udieresis" horiz-adv-x="741" unicode="Ü" /><glyph d="M668 730 668 280Q668 139 592 64.5Q516 -10 370 -10Q224 -10 148 64.5Q72 139 72 280V720H231V280Q231 202 265 166Q299 130 370 130Q441 130 475 166Q509 202 509 280V710ZM312 993 464 804H328L218 908Z" glyph-name="Ugrave" horiz-adv-x="741" unicode="Ù" /><glyph d="M668 730 668 280Q668 139 592 64.5Q516 -10 370 -10Q224 -10 148 64.5Q72 139 72 280V720H231V280Q231 202 265 166Q299 130 370 130Q441 130 475 166Q509 202 509 280V710ZM308 804 190 804L315 993L406 926ZM497 804 379 804L504 993L595 926Z" glyph-name="Uhungarumlaut" horiz-adv-x="741" unicode="Ű" /><glyph d="M344 299 344 309Q344 353 323.5 372Q303 391 258 391Q222 391 182 381Q142 371 102 352L56 462Q108 490 163 504.5Q218 519 271 519Q377 519 430.5 466.5Q484 414 484 309V0H350V47Q315 18 278 4Q241 -10 199 -10Q123 -10 81 30Q39 70 39 141Q39 218 85.5 258.5Q132 299 221 299ZM182 152Q182 126 195.5 114Q209 102 237 102Q261 102 287.5 111Q314 120 344 138V200H238Q209 200 195.5 188.5Q182 177 182 152ZM306 594 170 594L322 783L416 698Z" glyph-name="aacute" horiz-adv-x="540" unicode="á" /><glyph d="M344 299 344 309Q344 353 323.5 372Q303 391 258 391Q222 391 182 381Q142 371 102 352L56 462Q108 490 163 504.5Q218 519 271 519Q377 519 430.5 466.5Q484 414 484 309V0H350V47Q315 18 278 4Q241 -10 199 -10Q123 -10 81 30Q39 70 39 141Q39 218 85.5 258.5Q132 299 221 299ZM182 152Q182 126 195.5 114Q209 102 237 102Q261 102 287.5 111Q314 120 344 138V200H238Q209 200 195.5 188.5Q182 177 182 152ZM206 751 325 751L462 594H326L266 657L205 594H69Z" glyph-name="acircumflex" horiz-adv-x="548" unicode="â" /><glyph d="M344 299 344 309Q344 353 323.5 372Q303 391 258 391Q222 391 182 381Q142 371 102 352L56 462Q108 490 163 504.5Q218 519 271 519Q377 519 430.5 466.5Q484 414 484 309V0H350V47Q315 18 278 4Q241 -10 199 -10Q123 -10 81 30Q39 70 39 141Q39 218 85.5 258.5Q132 299 221 299ZM182 152Q182 126 195.5 114Q209 102 237 102Q261 102 287.5 111Q314 120 344 138V200H238Q209 200 195.5 188.5Q182 177 182 152ZM225 738 225 606H92V738ZM306 606 306 738H439V606Z" glyph-name="adieresis" horiz-adv-x="548" unicode="ä" /><glyph d="M344 299 344 309Q344 353 323.5 372Q303 391 258 391Q222 391 182 381Q142 371 102 352L56 462Q108 490 163 504.5Q218 519 271 519Q377 519 430.5 466.5Q484 414 484 309V0H350V47Q315 18 278 4Q241 -10 199 -10Q123 -10 81 30Q39 70 39 141Q39 218 85.5 258.5Q132 299 221 299ZM182 152Q182 126 195.5 114Q209 102 237 102Q261 102 287.5 111Q314 120 344 138V200H238Q209 200 195.5 188.5Q182 177 182 152ZM209 783 361 594H225L115 698Z" glyph-name="agrave" horiz-adv-x="548" unicode="à" /><glyph d="M214 -102 202 -44L223 -5Q135 12 90.5 77Q46 142 46 254Q46 384 106.5 451.5Q167 519 284 519Q335 519 379 506Q423 493 460 468L405 356Q379 371 351 379Q323 387 295 387Q240 387 215.5 356.5Q191 326 191 254Q191 182 215.5 151.5Q240 121 295 121Q324 121 353.5 129.5Q383 138 412 156L467 42Q433 18 390.5 5Q348 -8 298 -10L284 -39Q334 -42 360 -65Q386 -88 386 -129Q386 -175 354 -197.5Q322 -220 258 -220Q225 -220 197.5 -212.5Q170 -205 145 -188L173 -127Q190 -138 209.5 -143.5Q229 -149 249 -149Q268 -149 276.5 -143Q285 -137 285 -124Q285 -111 276 -105Q267 -99 249 -99Q243 -99 236.5 -99.5Q230 -100 214 -102Z" glyph-name="ccedilla" horiz-adv-x="495" unicode="ç" /><glyph d="M295 387Q240 387 215.5 356.5Q191 326 191 254Q191 182 215.5 151.5Q240 121 295 121Q324 121 353.5 129.5Q383 138 412 156L467 42Q431 16 385.5 3Q340 -10 285 -10Q167 -10 106.5 57Q46 124 46 254Q46 384 106.5 451.5Q167 519 284 519Q335 519 379 506Q423 493 460 468L405 356Q379 371 351 379Q323 387 295 387ZM308 594 172 594L324 783L418 698Z" glyph-name="cacute" horiz-adv-x="495" unicode="ć" /><glyph d="M524 254 524 214H185Q192 159 222.5 134.5Q253 110 311 110Q352 110 392.5 120.5Q433 131 470 152L522 47Q477 19 421.5 4.5Q366 -10 307 -10Q177 -10 111 56.5Q45 123 45 254Q45 382 106.5 450.5Q168 519 285 519Q403 519 463.5 451.5Q524 384 524 254ZM285 407Q243 407 219 384Q195 361 187 313H382Q375 362 351.5 384.5Q328 407 285 407ZM325 594 189 594L341 783L435 698Z" glyph-name="eacute" horiz-adv-x="569" unicode="é" /><glyph d="M524 254 524 214H185Q192 159 222.5 134.5Q253 110 311 110Q352 110 392.5 120.5Q433 131 470 152L522 47Q477 19 421.5 4.5Q366 -10 307 -10Q177 -10 111 56.5Q45 123 45 254Q45 382 106.5 450.5Q168 519 285 519Q403 519 463.5 451.5Q524 384 524 254ZM285 407Q243 407 219 384Q195 361 187 313H382Q375 362 351.5 384.5Q328 407 285 407ZM225 751 344 751L481 594H345L285 657L224 594H88Z" glyph-name="ecircumflex" horiz-adv-x="569" unicode="ê" /><glyph d="M524 254 524 214H185Q192 159 222.5 134.5Q253 110 311 110Q352 110 392.5 120.5Q433 131 470 152L522 47Q477 19 421.5 4.5Q366 -10 307 -10Q177 -10 111 56.5Q45 123 45 254Q45 382 106.5 450.5Q168 519 285 519Q403 519 463.5 451.5Q524 384 524 254ZM285 407Q243 407 219 384Q195 361 187 313H382Q375 362 351.5 384.5Q328 407 285 407ZM244 738 244 606H111V738ZM325 606 325 738H458V606Z" glyph-name="edieresis" horiz-adv-x="569" unicode="ë" /><glyph d="M524 254 524 214H185Q192 159 222.5 134.5Q253 110 311 110Q352 110 392.5 120.5Q433 131 470 152L522 47Q477 19 421.5 4.5Q366 -10 307 -10Q177 -10 111 56.5Q45 123 45 254Q45 382 106.5 450.5Q168 519 285 519Q403 519 463.5 451.5Q524 384 524 254ZM285 407Q243 407 219 384Q195 361 187 313H382Q375 362 351.5 384.5Q328 407 285 407ZM228 783 380 594H244L134 698Z" glyph-name="egrave" horiz-adv-x="569" unicode="è" /><glyph d="M73 0 73 518L217 501V0ZM186 594 50 594L202 783L296 698Z" glyph-name="iacute" horiz-adv-x="290" unicode="í" /><glyph d="M73 0 73 518L217 501V0ZM86 751 205 751L342 594H206L146 657L85 594H-51Z" glyph-name="icircumflex" horiz-adv-x="290" unicode="î" /><glyph d="M73 0 73 518L217 501V0ZM105 738 105 606H-28V738ZM186 606 186 738H319V606Z" glyph-name="idieresis" horiz-adv-x="290" unicode="ï" /><glyph d="M73 0 73 518L217 501V0ZM89 783 241 594H105L-5 698Z" glyph-name="igrave" horiz-adv-x="290" unicode="ì" /><glyph d="M220 638 70 576V744H220ZM73 0 73 518L217 501V0Z" glyph-name="i.dot" horiz-adv-x="290" unicode="" /><glyph d="M73 0 73 509H211V457Q247 490 283 504.5Q319 519 362 519Q448 519 495 463Q542 407 542 305V0H398V297Q398 340 378.5 361Q359 382 319 382Q294 382 268.5 374Q243 366 217 350V0ZM322 715Q343 703 351.5 700Q360 697 367 697Q378 697 383 707.5Q388 718 388 742L491 730Q491 664 464 630Q437 596 387 596Q367 596 345.5 602.5Q324 609 289 627Q268 639 259 642Q250 645 243 645Q233 645 228 635Q223 625 223 605H120Q120 674 146.5 710Q173 746 224 746Q244 746 265.5 739.5Q287 733 322 715Z" glyph-name="ntilde" horiz-adv-x="606" unicode="ñ" /><glyph d="M541 254Q541 127 476.5 58.5Q412 -10 293 -10Q173 -10 108.5 58.5Q44 127 44 254Q44 380 109 449.5Q174 519 293 519Q412 519 476.5 450Q541 381 541 254ZM189 254Q189 182 214.5 148.5Q240 115 293 115Q346 115 371 149Q396 183 396 254Q396 325 371 359Q346 393 293 393Q240 393 214.5 359Q189 325 189 254ZM332 594 196 594L348 783L442 698Z" glyph-name="oacute" horiz-adv-x="586" unicode="ó" /><glyph d="M541 254Q541 127 476.5 58.5Q412 -10 293 -10Q173 -10 108.5 58.5Q44 127 44 254Q44 380 109 449.5Q174 519 293 519Q412 519 476.5 450Q541 381 541 254ZM189 254Q189 182 214.5 148.5Q240 115 293 115Q346 115 371 149Q396 183 396 254Q396 325 371 359Q346 393 293 393Q240 393 214.5 359Q189 325 189 254ZM232 751 351 751L488 594H352L292 657L231 594H95Z" glyph-name="ocircumflex" horiz-adv-x="586" unicode="ô" /><glyph d="M541 254Q541 127 476.5 58.5Q412 -10 293 -10Q173 -10 108.5 58.5Q44 127 44 254Q44 380 109 449.5Q174 519 293 519Q412 519 476.5 450Q541 381 541 254ZM189 254Q189 182 214.5 148.5Q240 115 293 115Q346 115 371 149Q396 183 396 254Q396 325 371 359Q346 393 293 393Q240 393 214.5 359Q189 325 189 254ZM251 738 251 606H118V738ZM332 606 332 738H465V606Z" glyph-name="odieresis" horiz-adv-x="586" unicode="ö" /><glyph d="M541 254Q541 127 476.5 58.5Q412 -10 293 -10Q173 -10 108.5 58.5Q44 127 44 254Q44 380 109 449.5Q174 519 293 519Q412 519 476.5 450Q541 381 541 254ZM189 254Q189 182 214.5 148.5Q240 115 293 115Q346 115 371 149Q396 183 396 254Q396 325 371 359Q346 393 293 393Q240 393 214.5 359Q189 325 189 254ZM235 783 387 594H251L141 698Z" glyph-name="ograve" horiz-adv-x="586" unicode="ò" /><glyph d="M238 -10Q155 -10 109.5 44.5Q64 99 64 199V509H208V207Q208 166 226 146Q244 126 281 126Q306 126 330.5 133.5Q355 141 380 157V509H523V0H385V51Q351 19 315.5 4.5Q280 -10 238 -10ZM332 594 196 594L348 783L442 698Z" glyph-name="uacute" horiz-adv-x="597" unicode="ú" /><glyph d="M238 -10Q155 -10 109.5 44.5Q64 99 64 199V509H208V207Q208 166 226 146Q244 126 281 126Q306 126 330.5 133.5Q355 141 380 157V509H523V0H385V51Q351 19 315.5 4.5Q280 -10 238 -10ZM232 751 351 751L488 594H352L292 657L231 594H95Z" glyph-name="ucircumflex" horiz-adv-x="597" unicode="û" /><glyph d="M238 -10Q155 -10 109.5 44.5Q64 99 64 199V509H208V207Q208 166 226 146Q244 126 281 126Q306 126 330.5 133.5Q355 141 380 157V509H523V0H385V51Q351 19 315.5 4.5Q280 -10 238 -10ZM251 738 251 606H118V738ZM332 606 332 738H465V606Z" glyph-name="udieresis" horiz-adv-x="597" unicode="ü" /><glyph d="M238 -10Q155 -10 109.5 44.5Q64 99 64 199V509H208V207Q208 166 226 146Q244 126 281 126Q306 126 330.5 133.5Q355 141 380 157V509H523V0H385V51Q351 19 315.5 4.5Q280 -10 238 -10ZM235 783 387 594H251L141 698Z" glyph-name="ugrave" horiz-adv-x="597" unicode="ù" /><glyph d="M238 -10Q155 -10 109.5 44.5Q64 99 64 199V509H208V207Q208 166 226 146Q244 126 281 126Q306 126 330.5 133.5Q355 141 380 157V509H523V0H385V51Q351 19 315.5 4.5Q280 -10 238 -10ZM231 594 113 594L238 783L329 716ZM420 594 302 594L427 783L518 716Z" glyph-name="uhungarumlaut" horiz-adv-x="597" unicode="ű" /><glyph d="M332 594 196 594L348 783L442 698Z" glyph-name="acute" horiz-adv-x="490" unicode="´" /><glyph d="M235 783 387 594H251L141 698Z" glyph-name="grave" horiz-adv-x="490" unicode="`" /><glyph d="M232 751 351 751L488 594H352L292 657L231 594H95Z" glyph-name="circumflex" horiz-adv-x="490" unicode="ˆ" /><glyph d="M251 738 251 606H118V738ZM332 606 332 738H465V606Z" glyph-name="dieresis" horiz-adv-x="490" unicode="¨" /><glyph d="M198 -102 186 -44L216 13H293L268 -39Q318 -42 344 -65Q370 -88 370 -129Q370 -175 338 -197.5Q306 -220 242 -220Q209 -220 181.5 -212.5Q154 -205 129 -188L157 -127Q174 -138 193.5 -143.5Q213 -149 233 -149Q252 -149 260.5 -143Q269 -137 269 -124Q269 -111 260 -105Q251 -99 233 -99Q227 -99 220.5 -99.5Q214 -100 198 -102Z" glyph-name="cedilla" horiz-adv-x="490" unicode="¸" /><glyph d="M231 594 113 594L238 783L329 716ZM420 594 302 594L427 783L518 716Z" glyph-name="hungarumlaut" horiz-adv-x="490" unicode="˝" /><glyph d="M92 786 92 954H241V848Z" glyph-name="dotaccent" horiz-adv-x="490" unicode="˙" /><glyph d="M322 715Q343 703 351.5 700Q360 697 367 697Q378 697 383 707.5Q388 718 388 742L491 730Q491 664 464 630Q437 596 387 596Q367 596 345.5 602.5Q324 609 289 627Q268 639 259 642Q250 645 243 645Q233 645 228 635Q223 625 223 605H120Q120 674 146.5 710Q173 746 224 746Q244 746 265.5 739.5Q287 733 322 715Z" glyph-name="tilde" horiz-adv-x="490" unicode="˜" /><glyph d="M68 0 68 142L217 159V0Z" glyph-name="period" horiz-adv-x="287" unicode="." /><glyph d="M36 -148 68 -62Q73 -46 75 -30.5Q77 -15 77 4V131H209V28Q209 -6 204.5 -28.5Q200 -51 182 -103L149 -197Z" glyph-name="comma" horiz-adv-x="287" unicode="," /><glyph d="M217 344 68 361V504H217ZM68 0 68 142L217 159V0Z" glyph-name="colon" horiz-adv-x="287" unicode=":" /><glyph d="M217 344 68 361V504H217ZM36 -148 68 -62Q73 -46 75 -30.5Q77 -15 77 4V131H209V28Q209 -6 204.5 -28.5Q200 -51 182 -103L149 -197Z" glyph-name="semicolon" horiz-adv-x="287" unicode=";" /><glyph d="M672 0 672 142L821 159V0ZM672 0 672 142L821 159V0ZM672 0 672 142L821 159V0Z" glyph-name="ellipsis" horiz-adv-x="891" unicode="…" /><glyph d="M309 296 300 230H197L181 405Q275 405 316 425.5Q357 446 357 499Q357 547 329 568Q301 589 240 589Q200 589 159.5 576.5Q119 564 77 539L14 663Q66 696 125.5 713Q185 730 249 730Q377 730 442.5 674Q508 618 508 508Q508 418 458 364.5Q408 311 309 296ZM174 0 174 148L329 166V0Z" glyph-name="question" horiz-adv-x="542" unicode="?" /><glyph d="M195 230 91 230L64 710L223 730ZM66 0 66 148L221 166V0Z" glyph-name="exclam" horiz-adv-x="290" unicode="!" /><glyph d="M367 509 367 360L212 343V509ZM232 211 241 279H344L360 103Q266 103 225 82.5Q184 62 184 9Q184 -38 212 -58.5Q240 -79 301 -79Q342 -79 382.5 -66.5Q423 -54 464 -29L527 -154Q477 -186 417 -203Q357 -220 292 -220Q164 -220 98.5 -164.5Q33 -109 33 0Q33 91 83 144Q133 197 232 211Z" glyph-name="questiondown" horiz-adv-x="542" unicode="¿" /><glyph d="M222 509 222 360L67 343V509ZM94 279 197 279L225 -201L66 -220Z" glyph-name="exclamdown" horiz-adv-x="290" unicode="¡" /><glyph d="M55 310Q55 437 102 546.5Q149 656 249 759L352 664Q273 572 243.5 495.5Q214 419 214 310Q214 199 243.5 122.5Q273 46 352 -44L249 -139Q149 -36 102 73Q55 182 55 310Z" glyph-name="parenleft" horiz-adv-x="371" unicode="(" /><glyph d="M315 310Q315 183 268 74Q221 -35 122 -139L18 -44Q97 48 126.5 124.5Q156 201 156 310Q156 419 126.5 495.5Q97 572 18 664L122 759Q221 655 268 546Q315 437 315 310Z" glyph-name="parenright" horiz-adv-x="371" unicode=")" /><glyph d="M31 244 31 377H83Q108 377 116 391Q124 405 119 437L104 542Q90 643 130 688.5Q170 734 283 750L348 759V618L300 612Q267 607 257.5 592Q248 577 253 539L267 437Q273 390 260 358.5Q247 327 215 311Q247 294 260 262Q273 230 267 184L253 82Q248 44 257.5 29Q267 14 300 9L348 3V-136L283 -128Q170 -114 130 -68Q90 -22 104 79L119 185Q123 217 115 230.5Q107 244 83 244Z" glyph-name="braceleft" horiz-adv-x="371" unicode="{" /><glyph d="M338 377 338 245H287Q263 245 255 231.5Q247 218 251 185L265 79Q280 -22 240 -68Q200 -114 87 -128L21 -136V3L69 9Q102 14 111.5 29Q121 44 117 82L103 184Q96 230 109 262Q122 294 154 311Q122 328 109 359.5Q96 391 103 437L117 539Q121 577 111.5 592Q102 607 69 612L21 618V759L87 750Q201 734 240 688.5Q279 643 265 542L251 437Q246 405 254 391Q262 377 287 377Z" glyph-name="braceright" horiz-adv-x="371" unicode="}" /><glyph d="M361 -128 88 -128V750H349V609H243V12H344Z" glyph-name="bracketleft" horiz-adv-x="373" unicode="[" /><glyph d="M11 750 283 750V-128H23V12H128V609H28Z" glyph-name="bracketright" horiz-adv-x="373" unicode="]" /><glyph d="M123 -128 -37 -128L323 750H485Z" glyph-name="slash" horiz-adv-x="487" unicode="/" /><glyph d="M164 750 525 -128H363L2 750Z" glyph-name="backslash" horiz-adv-x="487" unicode="\" /><glyph d="M38 -156 38 -39H477L493 -156Z" glyph-name="underscore" horiz-adv-x="530" unicode="_" /><glyph d="M53 260 53 378H314L330 260Z" glyph-name="hyphen" horiz-adv-x="379" unicode="-" /><glyph d="" glyph-name="uni00AD" horiz-adv-x="0" unicode="­" /><glyph d="M46 260 46 378H432L448 260Z" glyph-name="endash" horiz-adv-x="490" unicode="–" /><glyph d="M46 260 46 378H922L938 260Z" glyph-name="emdash" horiz-adv-x="980" unicode="—" /><glyph d="M236 759 236 391H77V740ZM236 -128 77 -128V241H236Z" glyph-name="brokenbar" horiz-adv-x="313" unicode="¦" /><glyph d="M246 -128 87 -128V740L246 759Z" glyph-name="bar" horiz-adv-x="333" unicode="|" /><glyph d="M184 276 332 177V19L43 219V328L316 518L344 384ZM494 277 643 177V19L354 219V328L627 518L654 384Z" glyph-name="guillemotleft" horiz-adv-x="698" unicode="«" /><glyph d="M654 325 654 217L380 27L353 161L513 268L364 368V526ZM342 325 342 217L70 27L43 161L202 268L54 368V526Z" glyph-name="guillemotright" horiz-adv-x="698" unicode="»" /><glyph d="M184 276 332 177V19L43 219V328L316 518L344 384Z" glyph-name="guilsinglleft" horiz-adv-x="387" unicode="‹" /><glyph d="M342 325 342 217L70 27L43 161L202 268L54 368V526Z" glyph-name="guilsinglright" horiz-adv-x="387" unicode="›" /><glyph d="M159 -152 42 -134L85 131H218Z" glyph-name="quotesinglbase" horiz-adv-x="292" unicode="‚" /><glyph d="M159 -152 42 -134L85 131H218ZM363 -152 245 -134L289 131H422Z" glyph-name="quotedblbase" horiz-adv-x="496" unicode="„" /><glyph d="M116 730 233 711L190 445H58Z" glyph-name="quoteleft" horiz-adv-x="292" unicode="‘" /><glyph d="M319 730 437 711L393 445H261ZM116 730 233 711L190 445H58Z" glyph-name="quotedblleft" horiz-adv-x="496" unicode="“" /><glyph d="M175 435 58 453L101 720H233Z" glyph-name="quoteright" horiz-adv-x="292" unicode="’" /><glyph d="M175 435 58 453L101 720H233ZM378 435 261 453L305 720H437Z" glyph-name="quotedblright" horiz-adv-x="496" unicode="”" /><glyph d="M76 720 222 720L206 445H94Z" glyph-name="quotesingle" horiz-adv-x="298" unicode="'" /><glyph d="M76 720 222 720L206 445H94ZM282 720 426 720L411 445H299Z" glyph-name="quotedbl" horiz-adv-x="503" unicode="&quot;" /><glyph d="M306 341Q306 274 275 242Q244 210 179 210Q115 210 83.5 242.5Q52 275 52 341Q52 406 83.5 438.5Q115 471 179 471Q243 471 274.5 439Q306 407 306 341Z" glyph-name="bullet" horiz-adv-x="360" unicode="•" /><glyph d="M322 590Q284 590 264.5 575Q245 560 245 531Q245 511 253.5 495Q262 479 281 463L502 276Q511 298 518.5 322.5Q526 347 532 374L540 409L675 393L665 353Q654 306 639.5 264Q625 222 608 187L712 99L628 -10L529 74Q484 32 427.5 11Q371 -10 300 -10Q178 -10 107.5 44.5Q37 99 37 196Q37 258 65.5 307.5Q94 357 153 396Q121 429 105 466.5Q89 504 89 548Q89 634 148.5 682Q208 730 316 730Q373 730 424.5 715.5Q476 701 525 671L464 549Q426 569 390.5 579.5Q355 590 322 590ZM193 210Q193 168 221.5 146.5Q250 125 304 125Q339 125 369 134.5Q399 144 424 163L249 311Q220 289 206.5 264.5Q193 240 193 210Z" glyph-name="ampersand" horiz-adv-x="729" unicode="&amp;" /><glyph d="M495 455 21 455V580H178V710L338 729V580H495ZM309 -128 206 -128L178 372L338 392Z" glyph-name="dagger" horiz-adv-x="517" unicode="†" /><glyph d="M517 455 44 455V580H201V710L360 729V580H517ZM517 258 44 258V384H517ZM332 -128 228 -128L201 179L360 198Z" glyph-name="daggerdbl" horiz-adv-x="561" unicode="‡" /><glyph d="M62 377 87 414Q97 428 108.5 440Q120 452 150 474L181 496H145Q117 496 98.5 499Q80 502 60 508L15 522L51 629L95 616Q110 612 123 605Q136 598 169 574L198 552L186 588Q176 617 173 635.5Q170 654 170 673V720H284V673Q284 652 280.5 632.5Q277 613 269 588L257 553L284 574Q309 594 325 602.5Q341 611 359 616L403 629L438 521L396 508Q373 501 353 498Q333 495 309 495H273L302 474Q332 452 344 439.5Q356 427 366 413L392 377L300 311L274 348Q262 366 253 383Q244 400 236 425L227 458L217 425Q208 399 199.5 382Q191 365 179 348L153 311Z" glyph-name="asterisk" horiz-adv-x="454" unicode="*" /><glyph d="M224 620 224 360H114V620H12V720H325L313 620ZM619 450 553 450L497 556V360H390V720H499L586 557L673 720H782V360H675V555Z" glyph-name="trademark" horiz-adv-x="829" unicode="™" /><glyph d="M718 540Q718 372 628.5 280Q539 188 379 188Q219 188 129 280.5Q39 373 39 540Q39 706 129 798Q219 890 379 890Q539 890 628.5 798.5Q718 707 718 540ZM111 540Q111 404 181 330.5Q251 257 379 257Q506 257 576 330.5Q646 404 646 540Q646 675 576 747.5Q506 820 379 820Q251 820 181 747.5Q111 675 111 540ZM343 471 343 360H234V720H387Q458 720 496 687Q534 654 534 594Q534 556 519 529.5Q504 503 474 488L551 360H429L364 471ZM424 594Q424 613 415 622Q406 631 387 631H343V556H387Q406 556 415 565Q424 574 424 594Z" glyph-name="registered" horiz-adv-x="759" unicode="®" /><glyph d="M857 360Q857 162 750 53.5Q643 -55 453 -55Q263 -55 155.5 53.5Q48 162 48 360Q48 557 155.5 665.5Q263 774 453 774Q643 774 750 665.5Q857 557 857 360ZM133 360Q133 198 217 110Q301 22 453 22Q604 22 687.5 109.5Q771 197 771 360Q771 522 688 609Q605 696 453 696Q300 696 216.5 609Q133 522 133 360ZM469 480Q418 480 395 452.5Q372 425 372 360Q372 294 395 266Q418 238 470 238Q499 238 527.5 246Q556 254 583 270L638 159Q602 134 556.5 121Q511 108 460 108Q345 108 286 172Q227 236 227 360Q227 483 286 547Q345 611 459 611Q507 611 550.5 598.5Q594 586 630 562L574 450Q550 465 522.5 472.5Q495 480 469 480Z" glyph-name="copyright" horiz-adv-x="906" unicode="©" /><glyph d="M1004 277Q1004 142 947 71Q890 0 783 0Q730 0 691.5 17Q653 34 632 66Q592 31 552.5 15.5Q513 0 464 0Q373 0 324 64Q275 128 275 245Q275 361 324 425.5Q373 490 464 490Q508 490 543.5 475Q579 460 614 427V480H751V185Q751 147 765 129.5Q779 112 809 112Q855 112 878 153.5Q901 195 901 277Q901 446 802.5 539Q704 632 528 632Q350 632 252 534.5Q154 437 154 256Q154 74 251 -24Q348 -122 527 -122Q579 -122 630.5 -114.5Q682 -107 732 -92L756 -187Q705 -203 646.5 -211.5Q588 -220 527 -220Q302 -220 176 -95.5Q50 29 50 256Q50 481 176.5 605.5Q303 730 528 730Q749 730 876.5 610Q1004 490 1004 277ZM511 353Q464 353 442 327.5Q420 302 420 245Q420 187 442 161.5Q464 136 511 136Q535 136 559 144Q583 152 608 168V321Q583 337 559 345Q535 353 511 353Z" glyph-name="at" horiz-adv-x="1050" unicode="@" /><glyph d="M447 188Q479 166 495 133.5Q511 101 511 56Q511 -36 453 -82Q395 -128 279 -128Q210 -128 153 -114Q96 -100 50 -72L100 38Q140 16 184 5.5Q228 -5 282 -5Q331 -5 351 7Q371 19 371 49Q371 75 356.5 88.5Q342 102 307 108L250 118Q146 136 98 176.5Q50 217 50 287Q50 331 68.5 363Q87 395 124 414Q91 436 75 469.5Q59 503 59 549Q59 639 114.5 684.5Q170 730 279 730Q342 730 397.5 716Q453 702 500 675L449 564Q411 586 369 596.5Q327 607 279 607Q237 607 218.5 594.5Q200 582 200 553Q200 529 216 516Q232 503 271 496L327 486Q425 468 473 425Q521 382 521 312Q521 269 502.5 238Q484 207 447 188ZM191 308Q191 281 209.5 266Q228 251 271 243L319 234Q351 239 365.5 253.5Q380 268 380 295Q380 322 363 337.5Q346 353 307 360L264 368Q227 365 209 350.5Q191 336 191 308Z" glyph-name="section" horiz-adv-x="571" unicode="§" /><glyph d="M233 0 80 0L128 172H30V297H164L202 432H97V557H237L283 720H436L390 557H522L568 720H721L675 557H775V432H640L602 297H708V172H566L518 0H366L414 172H281ZM355 432 317 297H449L487 432Z" glyph-name="numbersign" horiz-adv-x="805" unicode="#" /><glyph d="M244 466 244 0H91V720H249L526 253V711L679 730V0H521ZM1173 528Q1173 436 1117 381.5Q1061 327 970 327Q881 327 824.5 382Q768 437 768 528Q768 621 823.5 675.5Q879 730 970 730Q1062 730 1117.5 675.5Q1173 621 1173 528ZM886 528Q886 486 908.5 463.5Q931 441 970 441Q1010 441 1032.5 463.5Q1055 486 1055 528Q1055 570 1032.5 593Q1010 616 970 616Q930 616 908 593Q886 570 886 528Z" glyph-name="uni2116" horiz-adv-x="1198" unicode="№" /><glyph d="M275 325 514 325L500 217H294Q312 168 349.5 145Q387 122 447 122Q489 122 531 133.5Q573 145 611 168L674 52Q626 22 566 6Q506 -10 439 -10Q314 -10 237.5 47Q161 104 133 217H38V325H118Q117 331 117 338Q117 345 117 360Q117 374 117 381Q117 388 118 394H38V502H133Q161 615 238 672.5Q315 730 439 730Q503 730 560 714.5Q617 699 663 670L600 555Q565 576 526 586.5Q487 597 447 597Q388 597 350 573.5Q312 550 294 502H537L524 394H275Q274 388 274 381Q274 374 274 360Q274 345 274 338Q274 331 275 325Z" glyph-name="Euro" horiz-adv-x="695" unicode="€" /><glyph d="M392 -5 392 -128H241V-6Q184 1 134 19Q84 37 35 68L98 186Q150 155 205 139.5Q260 124 317 124Q379 124 406 141Q433 158 433 197Q433 231 415 248Q397 265 348 275L267 292Q154 316 103.5 367.5Q53 419 53 512Q53 604 100 657.5Q147 711 241 725V832L392 851V724Q440 717 484.5 700Q529 683 574 655L511 537Q466 565 415 580Q364 595 313 595Q260 595 234.5 578Q209 561 209 525Q209 492 230 473.5Q251 455 298 445L379 428Q490 405 539.5 354Q589 303 589 213Q589 116 540 62Q491 8 392 -5Z" glyph-name="dollar" horiz-adv-x="631" unicode="$" /><glyph d="M427 143 427 0H268V143H70V258H268V263L237 320H70V436H175L23 720H195L350 419L507 720H673L520 436H625V320H458L427 263V258H625V143Z" glyph-name="yen" horiz-adv-x="696" unicode="¥" /><glyph d="M598 0 53 0V140H152Q166 162 172.5 185Q179 208 179 234Q179 245 178 256Q177 267 174 280H53V403H128Q113 440 106 471.5Q99 503 99 534Q99 628 162 679Q225 730 342 730Q408 730 466.5 712.5Q525 695 577 660L514 541Q474 564 431 577Q388 590 349 590Q303 590 279.5 569.5Q256 549 256 509Q256 491 261.5 469.5Q267 448 285 403H494V280H325Q326 268 326.5 261.5Q327 255 327 249Q327 219 318.5 192.5Q310 166 292 140H581Z" glyph-name="sterling" horiz-adv-x="624" unicode="£" /><glyph d="M347 99 347 -21H197V105Q121 127 82.5 191Q44 255 44 359Q44 463 82.5 527Q121 591 197 612V727L347 745V617Q378 612 405.5 601Q433 590 457 573L402 466Q376 481 348 489Q320 497 292 497Q238 497 213.5 465.5Q189 434 189 359Q189 284 213.5 252.5Q238 221 293 221Q322 221 351 229.5Q380 238 409 255L465 147Q441 130 411 118Q381 106 347 99Z" glyph-name="cent" horiz-adv-x="484" unicode="¢" /><glyph d="M208 161 119 70L24 165L113 255Q102 277 96.5 304Q91 331 91 360Q91 388 96.5 414.5Q102 441 112 465L24 555L119 649L207 559Q230 570 257 575.5Q284 581 313 581Q343 581 370 575.5Q397 570 420 559L509 649L604 555L514 464Q524 441 529.5 414.5Q535 388 535 360Q535 331 529.5 304.5Q524 278 513 255L604 165L509 70L419 161Q396 150 369.5 144.5Q343 139 313 139Q286 139 259.5 144.5Q233 150 208 161ZM217 360Q217 311 242.5 284.5Q268 258 313 258Q359 258 385 284.5Q411 311 411 360Q411 408 385.5 434Q360 460 313 460Q267 460 242 434Q217 408 217 360Z" glyph-name="currency" horiz-adv-x="628" unicode="¤" /><glyph d="M652 360Q652 178 576.5 84Q501 -10 353 -10Q205 -10 129 84.5Q53 179 53 360Q53 541 129 635.5Q205 730 353 730Q501 730 576.5 636Q652 542 652 360ZM218 360Q218 238 250.5 184Q283 130 353 130Q423 130 455 184Q487 238 487 360Q487 482 455 536Q423 590 353 590Q283 590 250.5 536Q218 482 218 360Z" glyph-name="zero" horiz-adv-x="707" unicode="0" /><glyph d="M498 0 54 0V140H206V551L87 502L38 636L237 719H365V140H498Z" glyph-name="one" horiz-adv-x="526" unicode="1" /><glyph d="M550 0 44 0V123L257 334Q312 389 336 427Q360 465 360 504Q360 547 338 568.5Q316 590 271 590Q234 590 190 575.5Q146 561 99 534L36 654Q97 693 158.5 711.5Q220 730 285 730Q401 730 462.5 675Q524 620 524 515Q524 444 491 385Q458 326 372 245L262 140H534Z" glyph-name="two" horiz-adv-x="593" unicode="2" /><glyph d="M53 720 533 720V597L346 442Q451 430 504 374.5Q557 319 557 220Q557 107 487 48.5Q417 -10 283 -10Q209 -10 148 7Q87 24 35 60L98 183Q139 157 185.5 143.5Q232 130 278 130Q337 130 365.5 153Q394 176 394 223Q394 271 362.5 294Q331 317 266 317Q246 317 227 315.5Q208 314 190 311L149 423L335 580H53Z" glyph-name="three" horiz-adv-x="607" unicode="3" /><glyph d="M400 129 35 129V252L261 720H436L214 269H400V446H556V0H400Z" glyph-name="four" horiz-adv-x="618" unicode="4" /><glyph d="M139 293 69 374L95 720H531V580H230L221 446Q242 450 264 452Q286 454 309 454Q437 454 503 395Q569 336 569 222Q569 107 499.5 48.5Q430 -10 294 -10Q219 -10 157 7.5Q95 25 44 60L107 182Q145 157 192 143.5Q239 130 288 130Q347 130 376 152Q405 174 405 219Q405 267 374 290Q343 313 278 313Q242 313 205.5 307.5Q169 302 139 293Z" glyph-name="five" horiz-adv-x="618" unicode="5" /><glyph d="M613 228Q613 117 543.5 53.5Q474 -10 351 -10Q205 -10 129 81.5Q53 173 53 345Q53 533 137 631.5Q221 730 384 730Q438 730 485.5 719.5Q533 709 577 687L524 557Q491 573 456.5 581Q422 589 388 589Q310 589 268 545.5Q226 502 216 410Q248 435 286.5 447Q325 459 372 459Q484 459 548.5 397Q613 335 613 228ZM453 226Q453 275 427.5 300Q402 325 351 325Q314 325 280.5 313Q247 301 217 278Q226 201 259 164.5Q292 128 351 128Q400 128 426.5 153.5Q453 179 453 226Z" glyph-name="six" horiz-adv-x="657" unicode="6" /><glyph d="M338 77 338 0H179V77Q179 161 192 214Q205 267 247 351L362 580H27V720H539V597L378 265Q354 216 346 178Q338 140 338 77Z" glyph-name="seven" horiz-adv-x="571" unicode="7" /><glyph d="M615 200Q615 98 542 44Q469 -10 332 -10Q195 -10 122.5 44Q50 98 50 200Q50 260 77 304.5Q104 349 156 375Q116 400 95.5 439Q75 478 75 530Q75 626 142 678Q209 730 332 730Q456 730 523.5 678Q591 626 591 530Q591 478 570.5 439Q550 400 509 375Q561 349 588 304.5Q615 260 615 200ZM236 515Q236 475 260 454.5Q284 434 332 434Q380 434 405 454.5Q430 475 430 515Q430 555 405.5 575.5Q381 596 332 596Q284 596 260 576Q236 556 236 515ZM211 217Q211 171 241.5 147.5Q272 124 332 124Q393 124 423.5 147Q454 170 454 217Q454 264 424 287Q394 310 332 310Q271 310 241 287Q211 264 211 217Z" glyph-name="eight" horiz-adv-x="666" unicode="8" /><glyph d="M43 492Q43 603 112.5 666.5Q182 730 305 730Q451 730 527 638.5Q603 547 603 375Q603 187 519 88.5Q435 -10 272 -10Q218 -10 170.5 0.5Q123 11 79 33L132 163Q165 147 199.5 139Q234 131 268 131Q346 131 388 174.5Q430 218 440 310Q408 285 369.5 273Q331 261 284 261Q172 261 107.5 323Q43 385 43 492ZM305 592Q256 592 229.5 566.5Q203 541 203 494Q203 445 228.5 420Q254 395 305 395Q342 395 375.5 407Q409 419 439 442Q430 519 397 555.5Q364 592 305 592Z" glyph-name="nine" horiz-adv-x="657" unicode="9" /><glyph d="M1173 528Q1173 436 1117 381.5Q1061 327 970 327Q881 327 824.5 382Q768 437 768 528Q768 621 823.5 675.5Q879 730 970 730Q1062 730 1117.5 675.5Q1173 621 1173 528ZM886 528Q886 486 908.5 463.5Q931 441 970 441Q1010 441 1032.5 463.5Q1055 486 1055 528Q1055 570 1032.5 593Q1010 616 970 616Q930 616 908 593Q886 570 886 528Z" glyph-name="degree" horiz-adv-x="463" unicode="°" /><glyph d="M390 551Q390 470 340.5 421.5Q291 373 208 373Q125 373 76 421.5Q27 470 27 551Q27 632 76 681Q125 730 208 730Q291 730 340.5 681Q390 632 390 551ZM300 0 164 0L592 720H730ZM134 551Q134 513 153 492.5Q172 472 208 472Q245 472 264.5 492.5Q284 513 284 551Q284 589 264.5 609.5Q245 630 208 630Q172 630 153 610Q134 590 134 551ZM866 168Q866 87 817 38.5Q768 -10 684 -10Q600 -10 550.5 38.5Q501 87 501 168Q501 248 551 297Q601 346 684 346Q767 346 816.5 297.5Q866 249 866 168ZM610 168Q610 130 629 109.5Q648 89 684 89Q721 89 740 109.5Q759 130 759 168Q759 206 740 226.5Q721 247 684 247Q648 247 629 226.5Q610 206 610 168Z" glyph-name="percent" horiz-adv-x="893" unicode="%" /><glyph d="M136 0 0 0L427 720H565Z" glyph-name="fraction" horiz-adv-x="565" unicode="⁄" /><glyph d="M358 538Q358 443 316.5 394.5Q275 346 193 346Q110 346 68.5 394.5Q27 443 27 538Q27 632 69 680.5Q111 729 193 729Q275 729 316.5 680.5Q358 632 358 538ZM133 538Q133 485 147 462.5Q161 440 193 440Q224 440 238 462.5Q252 485 252 538Q252 591 238 613.5Q224 636 193 636Q161 636 147 613.5Q133 591 133 538Z" glyph-name="zero.numerator" horiz-adv-x="386" unicode="" /><glyph d="M283 351 38 351V443H110V619L54 595L21 682L125 724H217V443H283Z" glyph-name="one.numerator" horiz-adv-x="304" unicode="" /><glyph d="M292 351 29 351V433L131 534Q152 555 161.5 571Q171 587 171 603Q171 620 162.5 627.5Q154 635 135 635Q118 635 99.5 629Q81 623 61 610L20 691Q53 711 84.5 720Q116 729 150 729Q213 729 246 700Q279 671 279 617Q279 581 262 551Q245 521 203 481L163 442H283Z" glyph-name="two.numerator" horiz-adv-x="321" unicode="" /><glyph d="M32 724 286 724V640L201 580Q250 571 274 543Q298 515 298 468Q298 409 260.5 377.5Q223 346 153 346Q115 346 82.5 355Q50 364 20 382L57 460Q76 448 98.5 442Q121 436 144 436Q167 436 178.5 445Q190 454 190 473Q190 491 177.5 500Q165 509 140 509Q130 509 121 508Q112 507 104 505L79 568L163 632H32Z" glyph-name="three.numerator" horiz-adv-x="325" unicode="" /><glyph d="M198 407 19 407V493L124 724H240L136 501H198V566H296V351H198Z" glyph-name="four.numerator" horiz-adv-x="328" unicode="" /><glyph d="M283 351 38 351V443H110V619L54 595L21 682L125 724H217V443H283ZM275 0 139 0L566 720H704ZM837 0 574 0V82L676 183Q697 204 706.5 220Q716 236 716 252Q716 269 707.5 276.5Q699 284 680 284Q663 284 644.5 278Q626 272 606 259L565 340Q598 360 629.5 369Q661 378 695 378Q758 378 791 349Q824 320 824 266Q824 230 807 200Q790 170 748 130L708 91H828Z" glyph-name="onehalf" horiz-adv-x="867" unicode="½" /><glyph d="M283 351 38 351V443H110V619L54 595L21 682L125 724H217V443H283ZM275 0 139 0L566 720H704ZM569 373 823 373V289L738 229Q787 220 811 192Q835 164 835 117Q835 58 797.5 26.5Q760 -5 690 -5Q652 -5 619.5 4Q587 13 557 31L594 109Q613 97 635.5 91Q658 85 681 85Q704 85 715.5 94Q727 103 727 122Q727 140 714.5 149Q702 158 677 158Q667 158 658 157Q649 156 641 154L616 217L700 281H569Z" glyph-name="onethird" horiz-adv-x="863" unicode="⅓" /><glyph d="M283 351 38 351V443H110V619L54 595L21 682L125 724H217V443H283ZM275 0 139 0L566 720H704ZM726 56 547 56V142L652 373H768L664 150H726V215H824V0H726Z" glyph-name="onequarter" horiz-adv-x="858" unicode="¼" /><glyph d="M394 70 261 70V264H66V396H261V589H394V396H569L587 264H394Z" glyph-name="plus" horiz-adv-x="651" unicode="+" /><glyph d="M71 264 71 396H564L582 264Z" glyph-name="minus" horiz-adv-x="651" unicode="−" /><glyph d="M179 86 86 181L235 333L91 479L185 573L328 428L466 568L561 473L422 332L566 186L472 92L329 238Z" glyph-name="multiply" horiz-adv-x="651" unicode="×" /><glyph d="M258 470 258 627L408 644V470ZM71 264 71 396H564L582 264ZM408 190 408 34L258 17V190Z" glyph-name="divide" horiz-adv-x="651" unicode="÷" /><glyph d="M71 393 71 526H564L582 393ZM71 134 71 267H582V134Z" glyph-name="equal" horiz-adv-x="651" unicode="=" /><glyph d="M59 264 59 396H571V70H438V264Z" glyph-name="logicalnot" horiz-adv-x="651" unicode="¬" /><glyph d="M445 232Q419 232 389.5 239.5Q360 247 307 271Q270 287 254 292Q238 297 226 297Q205 297 194.5 283Q184 269 184 242H59Q59 335 97 384Q135 433 205 433Q230 433 258.5 425.5Q287 418 338 395Q377 377 394 372Q411 367 425 367Q445 367 455.5 383Q466 399 466 431L592 415Q592 326 553.5 279Q515 232 445 232Z" glyph-name="asciitilde" horiz-adv-x="651" unicode="~" /><glyph d="M246 333 566 194V45L55 276V385L556 612L574 476Z" glyph-name="less" horiz-adv-x="651" unicode="&lt;" /><glyph d="M594 385 594 276L82 45V189L401 328L82 467V616Z" glyph-name="greater" horiz-adv-x="651" unicode="&gt;" /><glyph d="M72 0 72 132H263V316H67V448H263V625H396V448H571L589 316H396V132H565L584 0Z" glyph-name="plusminus" horiz-adv-x="651" unicode="±" /><glyph d="M603 210 458 210L322 538L185 210H45L270 729H378Z" glyph-name="asciicircum" horiz-adv-x="651" unicode="^" /><glyph d="M230 1 89 1L156 134H70V267H223L286 393H70V526H353L420 659H562L495 526H563L581 393H428L364 267H581V134H297Z" glyph-name="notequal" horiz-adv-x="651" unicode="≠" /><glyph d="M446 372Q419 372 389.5 380Q360 388 307 411Q270 427 254 432Q238 437 226 437Q206 437 195 423Q184 409 184 382H60Q60 475 97.5 523.5Q135 572 206 572Q232 572 260 564.5Q288 557 340 534Q378 517 395 512Q412 507 425 507Q446 507 456 522.5Q466 538 466 570L592 555Q592 466 554 419Q516 372 446 372ZM446 93Q419 93 389.5 101Q360 109 307 133Q270 149 254 154Q238 159 226 159Q205 159 194.5 144.5Q184 130 184 103H60Q60 196 98 245Q136 294 206 294Q232 294 260 286.5Q288 279 340 256Q378 239 395 234Q412 229 425 229Q446 229 456 244.5Q466 260 466 292L592 276Q592 187 554 140Q516 93 446 93Z" glyph-name="approxequal" horiz-adv-x="651" unicode="≈" /><glyph d="M271 465 568 374V232L55 406V513L558 705L577 575ZM55 174 55 309L569 135V0Z" glyph-name="lessequal" horiz-adv-x="651" unicode="≤" /><glyph d="M595 513 595 406L81 232V368L379 459L81 566V706ZM81 135 595 309V174L81 0Z" glyph-name="greaterequal" horiz-adv-x="651" unicode="≥" /><glyph d="M660 279 660 272H174Q172 272 171 271Q170 270 170 269V110Q170 105 171.5 100Q173 95 177 91Q213 50 260.5 28Q308 6 359 6Q415 6 465 30.5Q515 55 552 101H595Q553 48 490.5 18.5Q428 -11 357 -11Q233 -11 146 74Q59 159 60 279Q61 401 149.5 487Q238 573 363 573Q487 573 573.5 487.5Q660 402 660 279ZM550 292 550 452Q550 460 548.5 464.5Q547 469 544 472Q508 512 461.5 533.5Q415 555 363 555Q312 555 264.5 532.5Q217 510 180 469Q174 461 172 457Q170 453 170 449V292Q170 291 171.5 289.5Q173 288 174 288H547Q548 288 549 289Q550 290 550 292Z" glyph-name="estimated" horiz-adv-x="707" unicode="℮" /><glyph d="M481 340Q481 265 425 222.5Q369 180 265 180Q256 180 251 180Q246 180 242 181L212 119L356 106Q442 97 484 59.5Q526 22 526 -44Q526 -132 461 -176Q396 -220 268 -220Q152 -220 94 -184.5Q36 -149 36 -79Q36 -47 49 -20.5Q62 6 87 26Q81 33 77.5 43Q74 53 74 65Q74 81 80 99Q86 117 99 140L134 203Q88 223 64 260.5Q40 298 40 349Q40 431 97.5 475Q155 519 265 519Q290 519 313 516.5Q336 514 358 509H533V404H466Q474 391 477.5 375Q481 359 481 340ZM175 349Q175 314 197 298Q219 282 266 282Q313 282 336 298.5Q359 315 359 349Q359 384 336 400.5Q313 417 266 417Q219 417 197 400.5Q175 384 175 349ZM169 -50Q169 -81 194 -95Q219 -109 275 -109Q337 -109 365.5 -96Q394 -83 394 -55Q394 -36 382.5 -25.5Q371 -15 348 -13L196 2Q182 -10 175.5 -22.5Q169 -35 169 -50Z" glyph-name="g.alt" horiz-adv-x="565" unicode="" /><glyph d="M73 0 73 509H206V422Q244 471 287 495Q330 519 381 519Q387 519 393.5 518.5Q400 518 404 517L388 362Q341 362 297.5 353Q254 344 217 327V0Z" glyph-name="r.alt" horiz-adv-x="428" unicode="" /></font>
</defs>
</svg>
