<?xml version="1.0" encoding="utf-8"?>
<!-- Generator: Adobe Illustrator 22.1.0, SVG Export Plug-In . SVG Version: 6.00 Build 0)  -->
<svg version="1.1" id="Calque_1" xmlns="http://www.w3.org/2000/svg" xmlns:xlink="http://www.w3.org/1999/xlink" x="0px" y="0px"
	 viewBox="0 0 448.1 438.6" style="enable-background:new 0 0 448.1 438.6;" xml:space="preserve">
<style type="text/css">
	.st0{fill:#FFFFFF;}
	.st1{fill:#2D3233;}
	.st2{fill:#80BB69;}
</style>
<title>Fichier 1</title>
<g>
	<g>
		<path class="st0" d="M223.4,437.5c-43.4,0-84.3-11.6-109.6-31.2c-10,2-28.6,5.1-46.2,5.1c-11.2,0-20.2-1.3-26.9-3.8
			C21.3,400.2,7.6,388.3,4,375.6c-2.5-8.9-0.4-18,6.5-27c3.1-4.1,6.3-7.6,9.6-10.7v-29.3c0-7.7,6.9-14,15.3-14h21.2
			c-13.3-20.2-21.8-35.6-25.8-47c-8.7-24.5-0.8-65.2,16.8-87.1c17.1-21.3,58.6-36.3,80.7-37.7c1.7-0.1,3.5-0.2,5.4-0.2
			c20.2,0,43.6,6.2,44.2,6.4c2.5-2.4,5-4.7,7.7-6.9c0.3-0.2,0.6-0.5,0.9-0.7c-5-5.9-12-15.7-11.1-22.8c1.3-10.1,12.6-25.8,18-30.1
			c3.7-2.9,5.4-6,5-7.3c-0.3-0.8-1.8-1.3-4.1-1.4c-7.9-0.2-23-5.1-29.9-12.6c-2.6-2.9-3.9-5.9-3.7-9c0.2-2.9,0.2-5.7,0.3-8.4
			c0.2-8.4,0.4-14.5,2.6-17.6c0.8-1.1,0.6-2.8,0.4-4.3c-0.2-1.6-0.4-3.2,0.6-4.4c0.6-0.7,1.6-1.1,2.8-1.1c3.4,0,14.3,2.4,15.5,5.9
			c0.4,1,0,2.1-1,2.9c-2.5,1.9-5.3,13.3-5.7,19.1c-0.1,1.9,1.1,4.6,3.2,7c3.2,3.6,7.7,5.9,12.2,6.1c10.3,0.6,22.9,6.4,22.9,12.3
			c0,1.4-0.7,3.6-1.6,5.9c2.5-1.6,16.9-10.7,25.6-10.7c0.3,0,0.5,0,0.8,0c8,0.5,24.5,5.8,26.4,10c1.4,3.1,10.8,22.4,10.9,22.6
			c0,0,0,0.1,0.1,0.1l5.8,15.9c4.5-8.1,1.5-17.5-1.8-27.5c-0.5-1.5-1-3-1.4-4.4c-1.5-4.7-1.5-8.3,0-10.9c2-3.6,6.2-4.8,10.6-6
			c0.9-0.2,1.7-0.5,2.6-0.7c7.2-2.2,18-14.5,21.6-24.3c0.2-0.6,0.8-1,1.4-1c0.1,0,0.2,0,0.3,0l13.4,2.7c0.6,0.1,1.1,0.6,1.2,1.2
			c0.1,0.5,2.1,11.3-3.3,15.7c-4.8,3.9-20.1,14.5-30,20.1c-4.6,2.6-3.8,4.7-1,10.5c1.6,3.3,3.7,7.4,4.3,12.5
			c1.6,13.1-6,29.1-13.9,36.4c-1.9,1.8-4.4,3.3-7.3,4.7c1.5,1.8,2.8,3.7,4.2,5.9c6.9-5.8,19.8-15.2,36.4-20.2c9.9-3,19-4.4,27.8-4.4
			c15.5,0,30.7,4.4,49.2,14.1c25.8,13.6,39.5,35.6,43.3,69.1c2.8,24.3-2.6,74.6-17.3,98.2c-1.5,2.5-3.2,5-4.9,7.7
			c5.9,4.1,9.3,10.4,9.3,17.2v19.4c4.3,3.6,8.3,7.8,12.2,12.9c6.8,9,9,18.1,6.5,27c-3.6,12.6-17.3,24.6-36.7,31.9
			c-6.7,2.5-15.7,3.8-26.9,3.8c0,0,0,0,0,0c-19.3,0-39.9-3.8-48.6-5.6C308.3,425.7,267.2,437.5,223.4,437.5z M350,388.6
			c4.7,2.1,11.3,4.2,18.7,4.2c1.1,0,2.2,0,3.3-0.1c9-0.8,15-6.3,17.3-11.6h-35C353.1,383.6,351.6,386.1,350,388.6z M60.5,381
			c2.3,5.3,8.3,10.8,17.3,11.6c1.1,0.1,2.2,0.1,3.3,0.1c6.3,0,12.1-1.6,16.3-3.2c-1.9-2.8-3.6-5.6-4.9-8.5H60.5z M390.5,294.6
			c2.7-4.1,4.7-7.9,6-11.3c4-11.2,6.8-30,7.2-49.2c0.5-20.7-1.8-37.2-6.3-45.4c-10-18.2-26.6-28.3-46.8-28.3
			c-4.5,0-9.3,0.5-14.1,1.5c-26.3,5.6-41.5,18.5-43.8,20.6c-0.3,1.3-0.6,2.6-1,3.8c-2,6.6-1.9,13.7-1.4,21.6
			c0.3,0.1,0.5,0.2,0.8,0.3c1.9,0.7,3.3,2.2,4.1,4.1c1.6,3.9,0.7,9.5-1,13.3c-0.8,1.8-2.1,4.1-3.5,6.6c-1.9,3.4-5,9-4.8,10.3l0,0
			c1.2,2.9,4.8,11.6-0.7,14.9c-1.1,0.6-2.3,1-3.6,1c-0.6,0-1.2-0.1-1.8-0.2c-0.1,0.8-0.2,1.7-0.4,2.7c0,0.2-0.1,0.5-0.1,0.7
			c9,1.4,17.1,3.9,24.1,7.6c8,4.2,15.5,12.7,22.4,25.3H390.5z M155.9,167.3c-3.2,0.3-6.6,0.7-10.1,1.3c-1.4,0.2-2.8,0.4-4.1,0.6
			c-18.9,2.9-31.4,4.8-54.3,32.4c-11.9,14.3-14.9,36-8.8,62.7c0.9,3.9,3.2,9.7,6.8,17.2c7.8-3.2,13.7-4.5,15.8-4.8
			c1.6-2.8,8.2-12.7,28.7-21.1c9.8-4,17-5.1,21.1-5.3c-1.4-1.6-2.6-3.4-3.3-5.3c-2.7-6.4,0.9-16.6,2.2-19c0.1-0.2,0.2-0.4,0.2-0.7
			v-0.2c-0.1-0.4-0.3-1.3-0.6-2.6l-0.2-0.7c-0.8-2.6-1.9-6.5-2.9-12.9c-0.3-1.9-0.5-3.6-0.6-5.3l0-0.1c0-0.1,0-0.2,0-0.3l0-0.1
			c-0.5-6.7,0.4-10.2,1.4-14.2c0.3-1.1,0.6-2.3,0.9-3.7c1.4-6.1,4.9-8.3,6.8-9C154.8,174.7,155,171.9,155.9,167.3z"/>
		<path class="st0" d="M167.7,4c4.5,0,16.8,3.6,13.6,6.1c-3.3,2.5-6,15-6.3,20.2c-0.3,5.3,7,14.1,16.8,14.7
			c9.8,0.6,21.4,6.1,21.4,10.8c0,2.5-2.6,8.4-6,14.5c3.6-4.1,6.3-7,6.3-7s16.1-10.7,25.1-10.7c0.2,0,0.5,0,0.7,0
			c8.9,0.6,23.7,6,25.2,9.2c1.5,3.2,10.9,22.7,10.9,22.7l6.8,18.7c0,0,0.1-0.1,0.1-0.1c8-10.3,2.5-22.7-1.5-35.6
			c-4-12.9,4.3-13.4,12.2-15.8c7.9-2.4,19-15.4,22.5-25.3l13.4,2.7c0,0,2,10.4-2.8,14.3c-4.7,3.9-20,14.4-29.8,19.9
			c-9.7,5.6,1,11.8,2.5,24.5c1.5,12.7-5.8,28.1-13.5,35.1c-2.5,2.3-5.6,4-8.8,5.2c2.2,2.4,4.3,5.3,6.2,8.8
			c6.3-5.5,19.6-15.8,37.2-21.1c9.5-2.9,18.5-4.4,27.4-4.4c15.2,0,30.4,4.4,48.5,14c24.1,12.7,38.6,33.6,42.5,67.9
			c2.8,24.6-3,74.6-17.1,97.3c-1.7,2.8-3.6,5.8-5.7,8.9c6,3.6,9.9,9.8,9.9,16.7v20.1c4.3,3.5,8.4,7.8,12.5,13.1
			c19.4,25.6-3.9,46.9-29.5,56.6c-7.2,2.8-16.6,3.7-26.4,3.7c-19.7,0-41-4-49-5.7c-24.1,19.2-64.3,31.8-109.9,31.8
			c-45.1,0-85-12.4-109.2-31.3c-9.3,1.9-28.6,5.2-46.6,5.2c-9.8,0-19.2-1-26.4-3.7c-25.7-9.8-49-31-29.5-56.6
			c3.2-4.3,6.5-7.9,9.9-10.9v-30c0-6.9,6.2-12.5,13.8-12.5h24c-10.4-15.6-22-34.4-27.2-49c-8.6-24.2-0.5-64.4,16.6-85.7
			c17.1-21.3,58.3-35.8,79.7-37.2c1.7-0.1,3.5-0.2,5.3-0.2c20.4,0,43.9,6.4,43.9,6.4v1c2.7-2.7,5.8-5.5,9.1-8.2
			c0.7-0.6,1.4-1.1,2.1-1.6c-4.4-5.1-12.7-15.7-11.8-22.9c1.2-9.7,12.3-25,17.5-29.1c5.2-4.2,9.5-11.1,0-11.4
			c-9.5-0.3-32.8-8.3-32.2-20c0.6-11.6,0-21.6,2.6-25.2C167.6,9.5,163.2,4,167.7,4 M281.7,257c-1.1,0-2.1-0.3-3.1-0.7
			c-0.1,1.2-0.2,2.7-0.6,4.4c-0.1,0.7-0.3,1.5-0.5,2.2c7.6,1,16.8,3.2,25.2,7.6c9.4,5,16.9,15.7,22.2,25.5h66.4
			c2.8-4.1,5.1-8.3,6.6-12.3c8.3-23.1,10.9-77.4,0.8-95.9c-9.5-17.4-26.1-29-48.1-29c-4.6,0-9.4,0.5-14.4,1.6
			c-29.2,6.2-44.8,21.3-44.8,21.3l0,0c-0.3,1.4-0.7,2.8-1.1,4.2c-2.2,7.3-1.9,15.3-1.4,23.2c0.5,0.1,1.1,0.2,1.7,0.5
			c5.3,2.1,4.5,10.3,2.3,15.4c-2.3,5.1-9.3,15.8-8.3,18.1c0.9,2.3,4.4,10.5-0.1,13.1C283.6,256.8,282.6,257,281.7,257 M84.6,283.6
			c10.1-4.4,17.5-5.4,17.5-5.4s4.9-11.5,28.2-21.1c10.9-4.5,18.4-5.2,22.1-5.2c1.1,0,1.9,0.1,2.3,0.1c-2.3-1.8-4.5-4.4-5.8-7.5
			c-2.4-5.6,0.7-15.1,2.1-17.6c0.2-0.5,0.4-0.9,0.4-1.4c0-0.1,0-0.2,0-0.2c0-0.1,0-0.1,0-0.2c-0.1-0.2-0.3-1.3-0.6-2.8
			c-0.8-2.6-2.1-6.5-3.1-13.5c-0.3-1.9-0.5-3.6-0.6-5.2c0-0.1,0-0.1,0-0.2c0-0.1,0-0.3,0-0.4c-0.6-8.2,0.9-11.2,2.3-17.5
			c1.7-7.5,6.9-8.2,6.9-8.2s-0.4-3.1,1.5-11.7c-3.5,0.3-7.6,0.8-12.3,1.5c-21.1,3.4-34.4,3.5-59.4,33.6c-17.1,20.5-12.3,50-9.1,64
			C78.1,269.6,81.1,276.5,84.6,283.6 M368.7,394.3c1.1,0,2.3,0,3.4-0.2c10.9-1,17.6-8.3,19.3-14.6h-38.1c-1.4,3.3-3.3,6.5-5.5,9.7
			C352.3,391.4,360,394.3,368.7,394.3 M81.2,394.3c7.4,0,14-2.1,18.6-4c-2.6-3.4-4.7-7-6.3-10.7H58.4c1.7,6.3,8.4,13.6,19.3,14.6
			C78.9,394.2,80,394.3,81.2,394.3 M167.7,1c-1.7,0-3,0.5-4,1.6c-1.5,1.7-1.2,3.8-1,5.6c0.2,1.3,0.3,2.6-0.2,3.3
			c-2.5,3.4-2.6,9.7-2.9,18.4c-0.1,2.7-0.2,5.5-0.3,8.4c-0.2,3.5,1.2,6.9,4.1,10.1c7.1,7.7,22.8,12.8,31,13.1c1.7,0,2.4,0.3,2.7,0.5
			c-0.1,0.9-1.6,3.2-4.5,5.6c-5.7,4.6-17.2,20.5-18.6,31.1c-0.9,6.9,4.8,15.8,10.4,22.8c-2.4,2-4.7,4-6.9,6.1
			c-4.4-1.2-25.2-6.3-43.8-6.3c-1.9,0-3.8,0.1-5.5,0.2c-11.5,0.7-27.8,5.1-42.4,11.3c-12.3,5.3-29.2,14.2-39.4,26.9
			c-17.9,22.3-25.9,63.7-17.1,88.6c3.9,11.1,11.9,25.9,24.4,45H35.4c-9.3,0-16.8,6.9-16.8,15.5v28.7c-3.3,3.1-6.3,6.5-9.3,10.4
			c-7.1,9.4-9.4,19-6.7,28.3c3.7,13.1,17.8,25.4,37.6,32.9c6.9,2.6,16.1,3.9,27.5,3.9c17.3,0,35.6-3,45.8-5
			C139,427.4,180,439,223.4,439c43.8,0,85-11.8,110.6-31.6c9.1,1.9,29.3,5.5,48.2,5.5c11.4,0,20.6-1.3,27.5-3.9
			c19.8-7.5,33.8-19.9,37.6-32.9c2.7-9.4,0.4-18.9-6.7-28.3c-3.8-5-7.7-9.2-11.9-12.7v-18.7c0-6.8-3.2-13.2-8.8-17.6
			c1.5-2.3,2.8-4.4,4.1-6.5c14.8-23.9,20.3-74.7,17.5-99.2c-2-17.4-6.6-31.6-14.2-43.4c-7.2-11.3-17-20.1-30-26.9
			c-18.8-9.9-34.1-14.3-49.9-14.3c-8.9,0-18.1,1.5-28.2,4.5c-15.8,4.8-28.3,13.4-35.6,19.4c-0.7-1.1-1.4-2.1-2.2-3.1
			c2.3-1.2,4.3-2.6,6-4.1c8.4-7.7,16.1-23.9,14.4-37.7c-0.6-5.3-2.7-9.6-4.4-13c-2.9-6-2.9-6.7,0.4-8.5c9.9-5.6,25.3-16.3,30.2-20.2
			c6-4.9,4-15.9,3.8-17.2c-0.2-1.2-1.2-2.1-2.4-2.4l-13.4-2.7c-0.2,0-0.4-0.1-0.6-0.1c-1.2,0-2.4,0.8-2.8,2
			c-3.3,9.3-13.9,21.4-20.6,23.4c-0.8,0.3-1.7,0.5-2.6,0.7c-4.5,1.2-9.2,2.5-11.5,6.7c-1.6,3-1.7,7-0.1,12.1c0.5,1.5,0.9,3,1.4,4.5
			c2.8,8.6,5.3,16.3,3.3,23l-4.5-12.4c0-0.1-0.1-0.2-0.1-0.3c-0.1-0.2-9.5-19.5-10.9-22.6c-0.4-0.9-1.6-3.5-11.5-7.1
			c-5.7-2.1-11.8-3.5-16.2-3.8c-0.3,0-0.6,0-0.9,0c-7.1,0-17.2,5.4-22.8,8.7c0.2-0.9,0.4-1.8,0.4-2.5c0-4.4-4.7-7.7-8.7-9.7
			c-4.7-2.3-10.5-3.9-15.6-4.2c-5.8-0.3-9.7-4-11.1-5.6c-2.1-2.3-2.9-4.6-2.9-5.9c0.4-6.4,3.3-16.7,5.1-18c1.5-1.1,2.1-2.9,1.5-4.5
			C183,3.2,170.7,1,167.7,1L167.7,1z M294.1,183.3c5.8-5.2,21.2-15.4,42.7-19.9c4.7-1,9.4-1.5,13.8-1.5c0,0,0,0,0,0
			c19.6,0,35.8,9.8,45.5,27.5c9.3,17,7.3,70.2-1,93.4c-1.1,3.2-2.9,6.6-5.4,10.3h-63c-6.9-12.4-14.5-20.9-22.5-25.1
			c-6.7-3.5-14.4-6.1-23-7.5c0-0.2,0.1-0.3,0.1-0.5c0.2,0,0.3,0,0.5,0c1.6,0,3-0.4,4.3-1.2c4.3-2.6,4.8-8.1,1.5-16.4
			c0.3-1.7,3-6.5,4.6-9.4c1.4-2.5,2.7-4.9,3.5-6.8c1.7-3.8,2.9-9.8,1-14.5c-1-2.3-2.6-4-4.9-4.9c-0.4-7.4-0.4-14,1.4-20.1
			C293.6,185.7,293.9,184.5,294.1,183.3L294.1,183.3z M86.1,279.7c-3.2-6.8-5.3-12-6.1-15.6c-6-26.3-3.1-47.6,8.5-61.4
			c22.6-27.1,34.8-29,53.4-31.9c1.3-0.2,2.7-0.4,4.1-0.6c2.8-0.4,5.5-0.8,8.1-1.1c-0.5,2.8-0.7,4.8-0.8,6.2
			c-2.3,1.1-5.5,3.8-6.8,9.6c-0.3,1.3-0.6,2.5-0.9,3.7c-1.1,4.2-2,7.8-1.5,14.7l0,0.1c0,0.2,0,0.3,0,0.5l0,0.1
			c0.1,1.7,0.3,3.4,0.6,5.3c1,6.5,2.1,10.5,2.9,13.1l0.2,0.7c0.2,1.1,0.4,2,0.5,2.4c0,0,0,0,0,0c-1.6,2.8-5.2,13.4-2.3,20.3
			c0.5,1.2,1.1,2.3,1.9,3.5c-4.4,0.5-10.7,1.8-18.8,5.1c-19.5,8-26.8,17.5-29,21.2C97.8,275.9,92.6,277.1,86.1,279.7L86.1,279.7z
			 M355.2,382.5h31.6c-2.6,4.2-7.8,8-15,8.6c-1,0.1-2.1,0.1-3.2,0.1c-6.3,0-12.1-1.6-16.4-3.4C353.3,386.1,354.3,384.3,355.2,382.5
			L355.2,382.5z M63,382.5h28.6c1,2.1,2.2,4.2,3.5,6.3c-3.8,1.3-8.7,2.5-14,2.5c-1.1,0-2.1,0-3.2-0.1
			C70.8,390.5,65.7,386.7,63,382.5L63,382.5z"/>
	</g>
	<g>
		<ellipse class="st1" cx="222.9" cy="362.3" rx="133.6" ry="73.7"/>
		<path class="st1" d="M278.5,140.6c0,0,16.4-17.4,41.2-24.8c25.8-7.8,47.2-5.6,75.9,9.6c24.1,12.7,38.6,33.6,42.5,67.9
			c2.8,24.6-3,74.6-17.1,97.3c-14.1,22.7-39.8,59.4-53.4,68.6c-13.6,9.1-17.2-3-17.2-3l2.6-22c0,0,36.1-27.3,44.5-50.4
			s10.9-77.4,0.8-95.9c-11.5-21-33.3-33.7-62.5-27.5c-29.2,6.2-44.8,21.3-44.8,21.3l-31.5,28.4v-49.7L278.5,140.6z"/>
		<path class="st0" d="M282,149.8c0,0,30.3-15.8,52.5-20c25.2-4.8,44.5,1.6,61.9,16.1c17.4,14.5,23,26.3,24.3,47.2
			c1.1,18.5,0.4,32.6-0.9,38.9c-4.6,21.1-12.2,35-12.2,35l0.3-20c0,0,7.3-18.1,8.3-47.1c0.9-26.6-8.5-41.7-14.4-47.4
			c-5.9-5.8-28.4-23.7-57.2-18.4c-28.9,5.4-62.6,23-62.6,23V149.8z"/>
		<path class="st0" d="M283.7,163.9c0,0,29-17.4,51.6-19.1c25.1-1.9,43.7,4.9,56.4,16.2c16.3,14.5,17.7,33.1,18.4,38.8
			c0.7,5.8-0.7,31.2-0.7,31.2s1-29.5-4.5-40.3c-5.6-10.8-8.8-20-25.1-32c-14.5-10.7-38.9-11.1-54.6-8.7
			c-15.1,2.3-40.3,16.7-40.3,16.7L283.7,163.9z"/>
		<path class="st1" d="M177.2,130.5c0,0-27.8-7.6-49.2-6.2c-21.4,1.3-62.6,15.9-79.7,37.2s-25.1,61.5-16.6,85.7s34.8,59.8,43.8,73.5
			s23.3-10,23.3-10s-19.1-31.8-22.4-45.9c-3.2-14-8-43.5,9.1-64c25-30,38.3-30.2,59.4-33.6c23.5-3.8,32.1-0.7,32.1-0.7V130.5z"/>
		<path class="st1" d="M154.6,252c0,0-8.7-1.5-24.7,5c-23.3,9.6-28.2,21.1-28.2,21.1s-18.1,2.5-36.2,16.5
			c-18.1,14-32.4,40.3-35.2,47.1s-2,35.4-2,35.4l0,0l364.1,2.2c0,0,5.4-11.8-1-23.8c-6.4-12.1-20.2-29.3-36.8-34.4
			c-16.6-5.2-21.4-5.2-21.4-5.2s-11.3-34.9-30.8-45.3c-19.5-10.3-42.6-8.3-42.6-8.3L154.6,252z"/>
		<path class="st1" d="M252.8,116c-28.3-4.7-50.6-5.6-66.6,7.3s-25.2,26.8-28,38.4s-2.4,15.6-2.4,15.6s-5.2,0.6-6.9,8.2
			c-1.7,7.5-3.6,10.3-1.7,23.2c1.9,12.9,4.8,15.5,3.3,18.1c-1.4,2.6-4.5,12.1-2.1,17.6c2.4,5.6,7.8,9.9,10.9,9.7
			c3.1-0.2,13.1,18.9,28,29.9c15,11,20.4,12.9,34.2,12.9c13.8,0,19.7,2.6,26.9,0.9c7.1-1.7,24-16.8,27.1-28.8
			c3.1-12.1,0.7-11.6,4.5-20.7c3.8-9,9-18.3,8.8-29.3s-2.1-22.8,1-33.1c3.1-10.3,3.6-23.7-2.1-37.9c-5.7-14.2-11.2-21.1-18.8-26.3
			S252.8,116,252.8,116z"/>
		<path class="st0" d="M223.2,215.1c-2.2-0.8,1.7-0.6-2.2-0.8c-3.9-0.2-18.3-1.1-21.5-4.6s-13.4-2.9-15.2-8
			c-1.8-5.2,0-13.2,5.9-13.7c5.9-0.5,14.4,0.9,11.6-1.1c-2.9-2-13-7.3-13.9-11.9c-0.9-4.5,5.9-12.7,3.4-10.3
			c-2.5,2.4-18.4,18.6-19.1,20.8c-0.7,2.3-6.6,7.2-5.2,9.8c1.4,2.6-2.2,5.7-4,10.4c-1.8,4.7,4.6,25.1,12,22
			c4.1-1.8-10.2-9.5-8.7-14.4c1.4-4.8,4.3-11.6,2.7-10.7c-1.6,1-6.8,0.5-7.5,4.5c-0.7,4,0.4,6,1.2,8.1c0.9,2.1,1.2,10.7,3.4,14.5
			s2.9,3.6,5.3,4.5c2.5,1,7.7,4,5.9,8.6c-1.8,4.5-8.9,7.6-9.4,9.8s0.3,10.3,5.7,18.1c5.4,7.9,11.5,11.9,16.5,15.3
			c5,3.4,6.4-0.8,4-5.2c-2.3-4.4-5.5-27.8-7.3-34.1s-1.8-16.5-2.3-17.8c-0.5-1.3,1.8,3.9,5.7,5.3c3.9,1.5,9.6,1.8,14.3,0.2
			c4.6-1.6,13.3-6,15.4-6.6c2.1-0.6-3.4,5.3-8.6,7.6c-5.2,2.3-13,15-15,19.2c-2.1,4.2-1,20.2,1.1,25c2.1,4.8,4.6,6.6,10.2,10
			s13.2-0.2,20.9,0.1c7.7,0.3,11.9,1.4,12.9,3.1s4.6,2.4,8.3,1.5c3.7-1,18.4-11.7,20.1-14.1c1.7-2.5,2.9-4.3,2.9-4.3s3.7-8.2,5-15.1
			c2.4-12.7-3.2-9.6-5.6-11.7c-2.4-2.1-6.9-7.6-7.8-6.5s1.4,11.7,1.2,17.6c-0.2,5.8-0.4,13.1-2.5,16.2c-2.1,3.1-1.2,6.6-4.5,5.2
			s-6.2-11.1-10-13.1c-3.7-1.9,4.8,0.7-7.7-0.5c-9.5-0.9-19,0-21.5,2.1s-7.2,5.5-10,6.3c-2.9,0.8-5.2-0.2-5.2-0.2s3.6,0.6,6.8-1.8
			c3.2-2.4,3.9-3.9,3.9-3.9s-3.6,2.4-7.5,2.1c-3.9-0.3-6.1-3.1-6.1-4.5c0-1.5,0.4,0.6,2.9,1.5c2.5,0.8,6.4,0.6,10-1.9
			c3.6-2.6,8.6-5.9,11.8-5.9s-2.3-1.1-2.7-2.4c-0.4-1.3-2.8-1.3-5.1-2.9c-2.3-1.6-11.6-1.3-11.6-1.3s-2.9-4.4,0.7-6
			c3.6-1.6,8.2-5.8,12-9.7c3.8-3.9,6.9-8.7,6.9-8.7s-5.3-6.1-2.9-9.5s-2.7,0.7,0,0S223.2,215.1,223.2,215.1z"/>
		<path class="st0" d="M248.4,265.8C248.4,265.8,246.1,264.4,248.4,265.8c2.3,1.5,1.7,1.1,3.8,4.3c2.1,3.2,3.7,7.7,5.3,8.6
			c1.6,0.8,4.5-1,5.3,0s1.9-8.6,2-9.8c0.1-1.2-5.3-6.6-5.3-6.6s-5.1,0.9-6.5,1.1c-3.5,0.5,2,0.8,0,0S248.4,265.8,248.4,265.8z"/>
		<path class="st0" d="M206.3,252.3c0,0-0.7-2.4,3.6-3.6c4.3-1.1,8.4-0.6,13.4-2.4c5-1.8,7-3.6,12.1-3.9c5.2-0.3,5.7,2.3,8.7,2.7
			c3,0.5,3-1.6,7.1-0.8c4.1,0.8,7.1,3.6,9.3,7.1s2.3,7.4,3.2,7.4s1.8,2.6,0,2.6c-1.8,0-4.5-4.7-7.3-7.4c-2.8-2.7-8.7-4.2-10.3-3.9
			c-1.6,0.3-6.3-0.5-8-1.3s-7.7-1-12.5,0.2s-16,3.9-16,3.9s0.1,1-1.8,1c-1.9-0.1-2.3-2-2.3-2L206.3,252.3z"/>
		<path class="st0" d="M223.2,251.9c0,0,9.4-1.1,11.8-1.1s5.5,1.6,8.7,1.9s4.8,0,7.3,1.3c2.5,1.3,5.6,3.1,5.3,3.6
			c-0.3,0.5,0.7,2.4-5.7,1.3s-9.4-1.8-12.6-2.3s-6.3,0.2-10-1.6C224.3,253.2,223.2,251.9,223.2,251.9z"/>
		<path class="st0" d="M230.9,232.9c0,0-5.7-3.4-3.2-7.4c2.5-4,5.7-4.4,7.4-4.4s4.7,2.3,5.6,3.4c0.9,1.1,3.9,3.6,3.4,2.5
			c-0.5-1-1.5-2.7,0.1-4.3s4.2-4,4.9-4.2c0.7-0.2,4.8,0.2,5.9,2.7c1.1,2.6,1.6,5.2,0,7.3s-3.7,4.4-3.7,4.4s5.6-1.7,6.2-3.5
			c0.5-1.8,0.4-4.6,0.4-4.6s0.3,1.8,2,3c1.6,1.1,3.6,0.6,3,2.9c-0.5,2.3,0,4.8-3.8,5.8c-3.7,1-5.9-0.8-9.3,0s-7.5,1-10-1
			c-2.5-1.9-3.1-1.9-4.7-2.3S230.9,232.9,230.9,232.9z"/>
		<path class="st0" d="M165.6,235.9c0-1.1-5.2-4-6.5-4.4s-3.2-3-4.1-1.1c-0.9,1.9-5.5,9.8-5.5,9.8s6.3,6.8,7.5,4.5
			c1.2-2.3,0.5-2.6,3-2.5C162.6,242.6,163.8,239.4,165.6,235.9c4.5-8.5-10.5-5.4-14.8-29.5c-1-5.3-3-13-2.1-11.1s4.1,9.2,4.1,9.2
			s-0.5-3.3-0.5-9.2s-0.5-8.7,1.8-10.4s6.5-2.9,7.3-0.5s3.1,10.2,1.8,13.2c-1.2,3.1-2.1,2.4-1.8-1.5s0.8-8.6-1.7-8.1
			c-2.5,0.5-5,1.6-5,4.5s-0.4,13.4,0.2,14.4s0.6,14.8,2.3,17.9c1.8,3.1,4.2-10.6,4.2-10.6l-5.5-10.1c0,0,3.6,2.7,7.6,0
			c4-2.7,6.7-6.3,6.3-10.3c-0.4-4-5.3-14.7-8.4-15c-3.2-0.3-8.5,2.4-9.9,5.3c-1.4,2.9-5.4,13.8-4.7,19.1c0.6,5.3,4.3,21.6,4.3,21.6
			s0.1,5-1.1,10.9c-1.2,6,0.6,11.9,8.3,10.5c7.5-1.3,7.5-9.4,7.5-9.4"/>
		<path class="st1" d="M191,124.6c0,0-15.6-16.1-14.4-25.8s12.3-25,17.5-29.1s9.5-11.1,0-11.4c-9.5-0.3-32.8-8.3-32.2-20
			c0.6-11.6,0-21.6,2.6-25.2S162.7,4,167.2,4s16.8,3.6,13.6,6.1s-6,15-6.3,20.2s7,14.1,16.8,14.7c9.8,0.6,21.4,6.1,21.4,10.8
			S203.2,78,197.2,85c-5.9,6.9-11.7,10.5-3.2,19.4c8.6,8.9,10.7,15.3,10.7,15.3L191,124.6z"/>
		<path class="st1" d="M315.1,26.4c-3.5,9.8-14.7,22.9-22.5,25.3c-7.9,2.4-16.1,2.9-12.2,15.8s9.5,25.2,1.5,35.6
			s-22.4,18.7-22.4,18.7l3.9,9.6c0,0,14-1.5,21.6-8.5c7.6-7,15-22.4,13.5-35.1c-1.5-12.7-12.3-18.9-2.5-24.5
			c9.7-5.6,25-16.1,29.8-19.9s2.8-14.3,2.8-14.3L315.1,26.4z"/>
		<path class="st1" d="M199.1,121.3c0,0,13-14.7,25.5-22.5s26.4-12.3,30.3-12.3c4,0,8.3,7.2,11.5,15.5c3.2,8.3,4.9,16,4.5,22.7
			c-0.4,6.7,0,10,0,10s-10.3-4.8-18.4-6.8c-8.1-2-34.2-6.6-37.4-6.3C212,121.7,199.1,121.3,199.1,121.3z"/>
		<path class="st1" d="M213.1,63.3c0,0,16.9-11.3,25.8-10.7s23.7,6,25.2,9.2c1.5,3.2,10.9,22.7,10.9,22.7l7.4,20.4l-4.3,15.5
			l-3.1,7.5l-8.6-1.7l-8.9-13.5l-32.9-2l-28.8,9.2c0,0-4.4-7.2-7-14.9c-2.5-7.7-0.6-13.6,7-22.1S213.1,63.3,213.1,63.3z"/>
		<path class="st0" d="M202,90.2c0,0,9.9,17.3,14.2,16.4c4.2-1,6.3-9.6,6.3-9.6L217,86.5L202,90.2z"/>
		<path class="st0" d="M212.3,77.5c0,0,5,5.7,7.3,9c2.3,3.3,2.9,11.3,5.7,10.1c2.7-1.3,12.3-9,12.3-9.5s-3-7.3-3-7.3
			s-14.3-2.7-17.3-3.3C214.3,75.9,212.3,77.5,212.3,77.5z"/>
		<path class="st0" d="M231.4,68.5l9.1,18.9c0,0,8.5-0.8,10.6-2.9s4-2.5,6.1-1c2.1,1.5,5.5,5,5.9,3.8c0.4-1.1-5.7-12.4-5.7-12.4
			s-5.7,0-12.5-2.1c-6.8-2.1-8.4-2.3-10.4-4.4c-2.1-2.1-5.2-4.6-5.2-4.6L231.4,68.5z"/>
		<path class="st0" d="M265.4,84.7c0,0,0,7.2,1.7,11.9c1.7,4.7,1.5,12.3,2.7,9.9s1.1-15,1.1-15L265.4,84.7z"/>
		<path class="st0" d="M157.9,138.7c0,0-8-5.5-36.7-1.7c-25.7,3.4-40.4,12.7-52.9,25.7C55.8,175.6,48.7,189,48.7,189
			s19.6-28.4,38.9-36.4s29.9-9.2,46.7-9.5s23.8,2.4,23.8,2.4L157.9,138.7z"/>
		<path class="st0" d="M159.6,155.3c0,0-34.3,0-58.9,8.4c-22,7.5-37,26.7-42,40s-4.7,21.5-0.4,31.8s7.2,15.6,7.2,15.6
			s-14.2-24.1-3.9-41.3s21.2-37,47.1-42.7c25.9-5.7,52.6-5.5,52.6-5.5L159.6,155.3z"/>
		<path class="st1" d="M284.1,212.4c0,0,0.8-4.8,6.1-2.7s4.5,10.3,2.3,15.4s-9.3,15.8-8.3,18.1s4.4,10.5-0.1,13.1
			c-4.4,2.7-10.2-2.7-10.2-2.7L284.1,212.4z"/>
		<path class="st1" d="M416.4,379.5H30c-4.9,0-8.9-4-8.9-8.9V305c0-4.9,4-8.9,8.9-8.9h380.9c7.9,0,14.3,6.5,14.3,14.3v60.2
			C425.2,375.6,421.2,379.5,416.4,379.5z"/>
		<g>
			<path class="st2" d="M178.9,354.2v-34.7h5.6c1.2,0,2,0.5,2.4,1.5l0.6,2.7c0.8-0.7,1.6-1.4,2.4-2c0.9-0.6,1.8-1.1,2.7-1.5
				c1-0.4,2-0.8,3.1-1c1.1-0.2,2.3-0.3,3.6-0.3c2.1,0,3.9,0.3,5.6,1c1.6,0.6,3,1.5,4,2.7c1.1,1.2,1.9,2.5,2.5,4.2
				c0.6,1.6,0.8,3.4,0.8,5.3v22.1H203v-22.1c0-2.1-0.5-3.8-1.6-4.9c-1.1-1.2-2.7-1.7-4.9-1.7c-1.6,0-3.1,0.3-4.5,1
				c-1.4,0.7-2.7,1.5-4,2.7v25.1H178.9z"/>
			<path class="st2" d="M230.8,309.5c0,0.7-0.2,1.4-0.5,2c-0.3,0.6-0.8,1.2-1.3,1.7c-0.5,0.5-1.2,0.8-1.9,1.1
				c-0.7,0.3-1.5,0.4-2.3,0.4c-0.8,0-1.5-0.1-2.3-0.4c-0.7-0.3-1.3-0.7-1.8-1.1c-0.5-0.5-0.9-1-1.3-1.7c-0.3-0.6-0.5-1.3-0.5-2
				c0-0.7,0.2-1.4,0.5-2.1c0.3-0.7,0.7-1.2,1.3-1.7c0.5-0.5,1.1-0.8,1.8-1.1c0.7-0.3,1.5-0.4,2.3-0.4c0.8,0,1.6,0.1,2.3,0.4
				c0.7,0.3,1.4,0.7,1.9,1.1c0.5,0.5,1,1,1.3,1.7C230.7,308,230.8,308.7,230.8,309.5z M229.5,319.6v34.7h-9.2v-34.7H229.5z"/>
			<path class="st2" d="M271,337.6c0,12.1-9.3,17.4-18,17.4c-9.8,0-17.3-6.5-17.3-16.8c0-10.9,7.9-17.4,17.9-17.4
				C264,320.8,271,327.6,271,337.6z M242.4,338c0,7.2,4.6,12.6,11,12.6c6.3,0,11-5.3,11-12.7c0-5.5-3.1-12.6-10.8-12.6
				S242.4,331.7,242.4,338z M261.8,310.8v3.8H245v-3.8H261.8z"/>
		</g>
		<path class="st1" d="M84.8,321.7c-32.4,0-54.2,2.3-73.6,27.9s3.9,46.9,29.5,56.6s78.7-2.7,78.7-2.7L106,386.8
			c0,0-13.2,8.8-28.8,7.4c-15.5-1.4-22.6-15.8-18.7-21.5c3.1-4.5,7.3-11.5,26.2-12.9C103.7,358.3,84.8,321.7,84.8,321.7z"/>
		<path class="st1" d="M364.1,321.7c32.4,0,54.2,2.3,73.6,27.9c19.4,25.6-3.9,46.9-29.5,56.6c-25.7,9.8-78.7-2.7-78.7-2.7l13.4-16.7
			c0,0,13.2,8.8,28.8,7.4c15.5-1.4,22.6-15.8,18.7-21.5c-3.1-4.5-7.3-11.5-26.2-12.9C345.2,358.3,364.1,321.7,364.1,321.7z"/>
		<path class="st0" d="M198.9,368.3c0.5-0.1,0.8-0.3,1-0.7l0.6-0.9l-5.2-1.6L195,366c-2.3,6.2-6.1,12.3-10,16l-0.5,0.5l0.5,0.6
			c0.4,0.5,1,1.6,1.3,2.1l0.6,1.1l0.9-0.9c1.2-1.2,2.4-2.5,3.5-3.9V400h4.5v-23.5c0.5-0.3,0.7-0.6,0.7-0.9l0.1-0.7l-0.8-0.2
			C196.9,372.6,198,370.5,198.9,368.3z"/>
		<rect x="199.3" y="371" class="st0" width="23.1" height="4.1"/>
		<rect x="197.3" y="393.2" class="st0" width="26.7" height="4.1"/>
		<polygon class="st0" points="246.2,394.4 246.2,384.7 259.4,384.7 259.4,380.6 246.2,380.6 246.2,371.8 260.7,371.8 260.7,367.8 
			227.3,367.8 227.3,371.8 241.5,371.8 241.5,380.6 229,380.6 229,384.7 241.5,384.7 241.5,394.4 225.2,394.4 225.2,398.5 
			262.8,398.5 262.8,394.4 		"/>
		<path class="st0" d="M172.2,185.5l19.8-7.8c0,0,22.4,8.5,26.4,10.4c4,1.9,23.6,7.3,25.2,10.4c1.5,3.1,11,4.7,15.5,1.3
			s7.5-5.8,7.5-5.8s-21.8-3.5-19.1-8.9c5.5-11,2.1-38-9.9-52.6c-9.6-11.7,42.4,4.6,33.4-7.9c-6.7-9.2-38.4-13-53.9-10.3
			c-9.2,1.6-49.9,10.3-49.9,53.2C167,175.3,172.2,185.5,172.2,185.5z"/>
		<path class="st1" d="M239.9,243.2c0,0,2.3,1.9,2.3,3.6c0,1.7-2.3,4-2.3,4s4.6,1.9,3.4,4.2s-5.4,4.2-5.4,4.2s-2.1,6.9-1.2,11.4
			c0.9,4.5,3.5,11.2-0.2,14.6s-24.4,8-24.4,8s30.3,7.1,36.4,4.7c6.1-2.4,25.7-10.3,26.4-26.6c0.7-17.4,5-28.9,5-28.9l-9.2-17.5
			c0,0,0,15.9-9.9,16.2c-9.9,0.3-19.8-1.3-19.8-1.3L239.9,243.2z"/>
		<path class="st1" d="M162.8,215.2c0,0,6,9.7,9.4-5.4c1-4.5,10.2,16.6,12.3,19.3s5,18.9,5,18.9s2.8,23.2,5.3,27.5
			s7.1,10.7,19.4,13.4c12.3,2.6,17.8,2.7,17.8,2.7s-9,3.6-17.8,3.3c-8.8-0.3-34.1-2.7-39.4-7.7c-5.3-5-11.1-20.4-10.8-26.9
			c0.2-6.5-4.7-8.7,0-11.4C168.7,246.2,162.8,215.2,162.8,215.2z"/>
	</g>
</g>
</svg>
