<?xml version="1.0" encoding="utf-8"?>
<!-- Generator: Adobe Illustrator 23.0.1, SVG Export Plug-In . SVG Version: 6.00 Build 0)  -->
<svg version="1.1" id="Calque_1" xmlns="http://www.w3.org/2000/svg" xmlns:xlink="http://www.w3.org/1999/xlink" x="0px" y="0px"
	 viewBox="0 0 235 235" style="enable-background:new 0 0 235 235;" xml:space="preserve">
<style type="text/css">
	.st0{fill:#343736;}
	.st1{fill:#FFFFFF;}
	.st2{fill:#FFFFFF;stroke:#FFFFFF;stroke-width:0.56;stroke-miterlimit:10;}
</style>
<polyline class="st0" points="-40,238.8 -40,-1.6 285.4,-1.6 285.4,238.8 "/>
<g>
	<g id="a9d2e4ac-fbd0-46a5-be0e-969401ebc884">
		<path class="st1" d="M8,146c-3.1-5.1-5.2-10.8-6-16.7C-0.2,113.6,6,99,17,93.7c0.1,0,0.1-0.1,0.2-0.1c1.2-0.5,2.4-1,3.8-1.3
			c3.8-1.1,7.6-2.1,11.4-2.8c0.1-0.1,0.2-0.2,0.3-0.2c0.2-1.6,0.1-3.3-0.2-4.9c-0.6-3.7-1.6-7.4-4.9-9.8c-1.9-1-3.4-3.7-3.9-6.8
			c-0.6-4.5,1-8.2,3.8-8.7c-0.1-0.3-0.1-0.5-0.1-0.8c-0.3-1.8-0.1-3.8,0.5-5.6c0.7-1.8,1.9-2.9,3.4-3.1c0.2,0,0.3,0,0.5,0
			c0.2,0,0.3,0,0.5,0c0.3-0.1,0.5-0.2,0.8-0.3c1.9-0.4,3.9-0.7,5.8-0.8c0.1,0,0.3,0,0.4,0c2.6,0,5.1,3,5.7,7.3
			c0,0.3,0.1,0.5,0.1,0.8l0,0c0.2,0,0.3,0,0.5,0c2.6,0,5.1,3,5.7,7.3c0.5,3.1-0.2,6.1-1.7,7.6c-2.5,3.1-2.4,7-2,10.7
			c0.1,1.6,0.5,3.3,1.1,4.8c0.1,0,0.2,0,0.2,0.1c3.4-0.3,6.5-0.5,9.2-0.5c1.7,0,3.3,0.1,4.6,0.2h0.3c-1.5-12.3,0.4-24.7,5.5-36
			C85.2,14.1,119,13,122.9,13l0,0c1.7-0.1,3.6-0.2,5.3-0.2c32,0,48.9,23.6,51.9,28.2c4.1,6.3,10.8,18.8,10.2,32.2
			c-0.2,6.3-0.9,12.5-2.4,18.6c2-0.6,4.1-0.9,6.1-0.8c4.6,0.1,9,0.9,13.4,2.3c13.5,4.1,22,14.8,24.4,21c0.8,2.1,0.9,3.7,0.3,4.7
			c-0.4,0.7-0.9,1.2-1.5,1.7c1.7,3.3,2.4,7,1.8,10.6c-0.2,1.5-0.4,3.1-0.6,4.7l-0.1,1c1.7,2.8,3.1,5.8,4.6,8.7h23.1
			c5.9,0,10.7,4.8,10.7,10.7"/>
		<path class="st1" d="M10.3,147.1c-3.8-5.4-6.2-11.6-7.1-18.1C1,113.6,7.3,99.5,17.6,94.7l0,0h0.1c1.1-0.5,2.3-0.9,3.6-1.2
			c4-1.2,8-2.2,12.2-3c-0.2-0.1-0.2-0.2-0.1-0.2c0.8-0.1,0.8-2.8,0.3-6.2c-0.5-3.4-1.5-7.8-5.5-10.6l0,0c-1.5-0.8-2.8-3.1-3.3-6
			c-0.5-3.8,0.7-7,2.8-7.3H28c0.2,0,0.5,0,0.7,0.1c0.1-0.1,0.2-0.1,0.3-0.2c-0.2-0.7-0.4-1.4-0.5-2.1c-0.5-3.8,0.7-7,2.7-7.3h0.3
			c0.2,0,0.5,0,0.7,0.1c0.3-0.2,0.6-0.3,0.9-0.4c1.8-0.4,3.8-0.7,5.7-0.8h0.3c1.9,0,3.9,2.7,4.4,6.3c0.1,0.9,0.2,1.7,0.1,2.6
			c0.4-0.4,0.9-0.7,1.5-0.8h0.3c1.9,0,3.9,2.7,4.4,6.3c0.4,2.8-0.2,5.5-1.5,6.6l0,0c-3,3.8-2.7,8.3-2.3,11.7
			c0.4,3.4,1.2,5.8,1.9,5.8H48c0.1,0,0.1,0.1,0,0.2c3.6-0.3,6.9-0.5,9.9-0.5c1.6,0,3.1,0.1,4.5,0.2h0.3c0.5,0.1,1.1,0.1,1.6,0.2
			c-1.8-12.6,0-25.4,5.2-36.9c14.8-31.9,43.1-36.9,53.4-36.9h-0.2c1.9-0.2,3.8-0.2,5.5-0.2 M128.2,14.1c32.4,0,49,24.8,50.8,27.6
			c2.2,3.4,10.7,16.9,10.1,31.4c-0.4,10.1-1.7,16.3-2.5,19.2l-0.1,0.6c-0.1,0.3-0.2,0.6-0.4,0.8c-0.1,0.2-0.1,0.4-0.2,0.5
			c0.7-0.5,2.9-2,8.2-2c4.5,0.1,8.8,0.9,13,2.2c16.9,5.1,25.7,21,24,23.9c-0.6,0.8-1.3,1.5-2.1,2.1c0.2,0.2,0.3,0.4,0.4,0.7
			c1.7,3,2.3,6.6,1.8,10.1c-0.3,2-0.6,4.2-0.8,6.2c1.9,3.1,3.6,6.4,5.1,9.8h23.9c5.2,0,9.3,4.2,9.3,9.3 M4.4,147.8L4.4,147.8
			 M271.2,156.3c0-6.6-5.4-11.9-11.9-11.9h-22.1c-1.2-2.6-2.5-5.3-4.1-7.7l0.1-0.6c0.2-1.5,0.4-3.1,0.6-4.7c0.5-3.6,0-7.2-1.5-10.5
			c0.4-0.4,0.8-0.9,1.1-1.3c0.8-1.3,0.8-3.3-0.2-5.8C230.8,107.4,222,96.2,208,92c-4.5-1.5-9.1-2.3-13.8-2.4c-1.5,0-2.9,0.1-4.5,0.4
			c1.1-5.5,1.7-11.2,1.9-16.8c0.6-13.8-6.3-26.5-10.5-32.9c-3.1-4.7-20.3-28.6-53-28.6c-1.7,0-3.6,0.1-5.4,0.2
			c-9.1,0.2-18.1,2.5-26.2,6.8C83.7,25.3,73.8,36,67.2,50.4c-5,11-7,23.1-5.8,35c-1-0.1-2.2-0.1-3.5-0.1c-2.6,0-5.5,0.1-8.6,0.4
			c-0.4-1.2-0.6-2.4-0.7-3.7c-0.3-3.5-0.4-6.9,1.7-9.8c1.8-1.8,2.5-5.1,2-8.6c-0.6-4.6-3.3-8-6.3-8.4c-0.8-4.8-3.7-8.1-6.9-8.1
			c-0.2,0-0.4,0-0.5,0c-2,0.1-4,0.4-6,0.8c-0.3,0-0.6,0.1-0.8,0.2h-0.3c-0.2,0-0.4,0-0.6,0.1c-3.6,0.5-5.6,4.8-5,10
			c-2.7,1.3-4.3,5.2-3.6,9.8c0.5,3.6,2.1,6.5,4.4,7.7c2.9,2.1,3.9,5.5,4.4,8.8c0.2,1.2,0.3,2.5,0.3,3.8c-4,0.8-7.6,1.7-10.9,2.7
			c-1.3,0.3-2.6,0.7-3.9,1.3l0,0c-0.1,0-0.3,0.1-0.4,0.2c-11.5,5.5-17.9,20.6-15.6,37c0.7,5.3,2.4,10.5,5,15.1"/>
		<path class="st0" d="M48.2,96.4l-14.5-3.9"/>
		<path class="st0" d="M146.4,206.4c3.4,1,3.7-1.3,4.9-3c1.5-2.1,2.6-4.5,2.1-6.8c-0.5-1.8-1.7-3.3-3.4-4.2
			c-5.3-2.1-10.9-3.7-16.3-5.5c-0.5-0.1-1-0.4-1.5-0.7c1.2,0.1,2.5,0.2,3.8,0.4c2.9,0.4,5.6,1.8,8.7,1.5c1.7-0.2,3.6,1.3,5.4,1.9
			c1.8,0.6,3.9,1,5.7-0.4c0.5-0.5,0.9-1.1,1-1.8c0.4-1.7-0.5-3.8,1.2-5.3c0.3-0.4,0.4-1,0.3-1.5c-1.2-3.6,4.3-7,4.5-10.5
			c0-1,1.4-2,1.7-3.1c0.7-2,1.2-4.2,1.5-6.3c0.9-7.9,2.9-15.5,5-23.3c1-3.6,1.4-7.3,2-11c0.3-1.5,0.6-2.9,1-4.9
			c-0.4,0.5-0.7,0.6-0.8,0.8c-1.4,4.1-5.1,6.3-7.3,9.7c-0.4,0.4-0.9,0.8-1.4,1c0.6-1,1.1-2,1.8-3c2.5-3.5,5.9-6.4,6.9-10.9
			c0.6-2.7-0.7-5.1-3.4-5.7c-3.1-0.7-7,2.4-7,6c0,1.6-0.9,2.2-2,2.9c-1.3,0.8-2.7,1.7-4.2,2.5c-1.8,1.1-3.7,2.3-5.5,3.4
			c-0.9,0.4-1.7,0.9-2.5,1.4c-1.4,1.2-2.7,2.6-4.2,4c-1.4,1.3-2.8,2.3-4.4,3.7c-0.8,0-1.6,0.2-2.3,0.4c-0.7,0.3-1.2,0.9-1.4,1.6
			c-0.1,0.7,0.2,1.5,0.8,2c1.4,0.7,3,1.6,4.5,1.4c3.4-0.4,6.8-0.8,9.9-2.2c3.9-1.7,7.4-4.5,11.1-6.7c0.7-0.4,1.4-0.7,2.1-1
			c-5,3.5-9.3,7.9-15.1,10.2c-1.3,0.5-2.7,0.8-4.2,1.4c-1.9,0.7-3.9,1.5-5.3,2.1l-4.4-0.9l-5.8,34.1h-0.3c-0.1-0.6-0.2-1.2-0.2-1.8
			c0.4-8.2,4.8-16.6,5.1-24.8c0.1-2.2,0.1-4.6,0.2-6.8c0-3.3-2.2-5-5.4-4c-2.5,0.8-5.1,2-7.6,2.7c-1.3,0.4-2.6,0.5-4,0.1
			c-3.1-0.9-3.6-0.8-4.2,2.3c-0.6-1.3-1.3-2.5-2.1-3.7c-0.7-0.7-1.6-1-2.5-0.9c-6.1,1.1-11.6-0.3-17-2.9c-1.2-0.6-2.6-1-3.9-1.5
			c-1.5-0.4-2.3-2-1.9-3.6c1.1,0.6,1.9,1,2.8,1.5c5,2.8,10.1,5.3,15.9,5.2c2.4,0.1,4.9-0.9,6.4-2.8c-0.8-0.1-1.5-0.4-2.2-0.6
			c-1.3-0.7-2.6-1.4-4-2.2c-0.5-0.3-0.9-1.1-1.3-1.1c-3.5,0.1-6.1-2.5-9.4-2.9c-2.5-0.3-5.2-0.8-7.6-1.4c-1.1-0.4-2-1.2-2.5-2.2
			c-2.5-4.9-5.2-9.4-9.3-13.1c-3.4-2.9-7-3.5-11.3-4.9c-2.8-0.9-4.1,1-3.1-1.8c1-3.1,2.8-5.9,5.3-8.1c1.4-1.1,2.9-2.5,2.4-4.2
			c-3.3-11.7-3.1-24.2,0.5-35.8c4.3-14.1,11.9-26,24-34.8c0.8-0.6,1.9-0.6,2.8-1c0.7-0.2,1.4-0.6,2-1.1c1.6-1.9,3.8-1.8,6-2
			c0.9-0.1,1.8-0.3,2.6-0.6c2.8-1,5.6-2.1,8.4-3.1c0.2-0.1,0.4,0.1,1.3,0.2c-0.8,0.7-1.6,1.4-2.5,2c-1.8,0.9-3.7,1.7-5.5,2.5
			c-0.3,0.2-0.6,0.5-0.6,0.9c-0.1,1.9-0.1,4-0.1,6c0,0.5,0,1-0.1,1.5l-1.5-0.3c0.3,1,0.3,1,3.6,1.1l-6,2v0.5l5.3-0.2l0.4,0.3
			c-1.9,1.3-2.1,2.8-1.2,4.8c0.5,1.3,1.8,2.1,3.3,1.8c8.9-1,17.9-0.7,26.7,0.7c10.7,1.7,20.4,5.6,27.7,13.9c3.3,3.8,5.6,8.2,6.8,13
			c0.1,0.7,0.2,1.4,0.3,2.1l-0.5,0.2c-0.5-1.2-1-2.5-1.4-3.9c-0.4-1.9-1.5-3.7-3.1-4.9c-0.6-0.4-0.7-1.6-1-2.4
			c-0.1-0.2-0.1-0.5-0.3-0.7c-3.1-3-6.2-6.5-9.7-9.1c-6.7-5.1-14.6-6.9-22.9-7.6c-7.7-0.7-15.4-0.4-23.2,0.8c-0.5,0.1-1,0.2-1.5,0.4
			c-0.3,0.1-0.6,0.3-0.8,0.5c1.3,1.1,1,1.9-0.1,3c-1.6,1.7-0.9,3.6,1.3,4.1c2.2,0.5,4.7,0.6,6.9,0.9c0.6,0.1,1.2,0.2,1.8,0.3
			l-0.1,0.6c-2.1-0.3-4.4-0.4-6.5-0.8c-4.8-0.9-9.8-0.7-14.4,0.6c-1,0.3-1.9,0.8-2.7,1.5c-0.6,0.4-0.9,1.2-0.5,1.8
			c0.1,0.1,0.2,0.2,0.3,0.3c0.6,0.7,0.4,2.1,0.6,3.6l1.4-1l0.9,1.1l1.1-2.5c0.7,0,1.7,1.7,1.9-0.3c1.4,1.4,10.9,1.1,12.4-0.2
			c2.7,1.7,3,1.7,4.5,0.2c1,1.4,2.1,2.6,3.3,4c0.8,0.6,1.7,0.9,2.6,1c1.3,0.2,2.7,0.5,3.9,0.1c1.1-0.4,2-1.7,2.7-2.7
			c0.6-1.1,1.2-2.2,1.6-3.4l0.6,0.8c1.2-0.1,2.3,0,3.6,0.1c2.7,0.5,5.6,0.7,8.1,1.7c3.4,1.4,6.6,3,9.8,4.9c0.7,0.4,1,1.5,1.3,2.4
			c0.6,1.8,1,3.7,1.6,5.4c0.4,1.1,0.9,2.2,1.5,3.6c-1.4,1-2.5,0-3.7-1c-2.9-2.6-6-5.3-9.1-7.6c-2.1-1.6-4.7-1.7-7.4-0.5l1.1,0.7
			l-0.9,1.3c6.9,0.2,10.8,6.1,16.8,7.9l-0.2,0.5l-7.8-2.4c0.9,2.7,3.6,1.4,5.5,2.7c-4.1-0.4-7.6-0.6-11.1,2
			c-0.7-0.1-1.9-0.3-3.1-0.5c-3.3-0.4-6.1-1.2-8.5-3.9c-2.4-2.6-7.2-3.8-9.3,0.2c-0.3,0.4-0.5,0.9-0.6,1.4c-0.2,2.8-0.1,5.6,1.4,8.2
			c1.4,2.4,4.1,2.6,6.2,3.6c1.8,0.8,3.7,1.4,5.6,1.8c0.6,0,1.3-0.3,1.6-0.8c0.7-2.2-0.3-4.7-2.3-5.9c-0.6-0.4-1.3-0.7-2-1.1l0.3-0.7
			c1.7,0.7,3.4,1.5,4.9,2.5c1.4,1,2.4,2.4,3.7,3.7c1.7,1.7,3.6,2.8,6.2,2.9c2.4,0.2,4.9,0.7,7.1,1.7c1.8,0.7,2.4,2.9,1.7,5.4
			c-0.6,2.1-1.5,4.3-2,6.4c-0.5,2.2-0.7,4.3-1.1,6.4c-2.1-1.6-3.5-4.2-3.6-6.9c-0.1-2.1-0.7-3.6-3-4c-1-0.2-1.7-1.5-2.7-1.7
			c-2.7-0.5-4.1-2.5-5.6-4.6c-0.7-1-1.5-1.6-2.8-0.8c-1.6,0.9-3.4,1.8-5.1,2.5c-1.1,0.4-2.3,0.6-3.5,0.8c-0.4,2.2,0.9,4.2,3.8,4.3
			c3,0.1,6.1-0.2,9.1-0.2c5.3,0.1,7.2,2.3,6.6,7.7c-0.3,2.7,2.5,7,5.1,7.5c0.6,0.1,1.2,0.1,1.7,0c1.7-0.2,3.4-0.6,5-1
			c5.2-1.7,10.1-4,12.5-9.4c0.4-1,1.1-1.9,1.8-3.4c0,2,1.2,1.9,2.4,2c1.3,0.1,2.6,0.6,3.7,1.4c1.5,1.6,2.7,1.2,4.1,0.2
			c0.7-0.5,1.3-1.1,1.9-1.7c1.1,0.9,1.2,2.5,0.4,3.8c-0.7,1.2-1.1,2.5-1.7,3.9c-0.7,1.1-0.4,2.5,0.7,3.3c0.1,0.1,0.2,0.1,0.2,0.1
			l-2.5,4.2l2.5,0.8c-0.8,1.7-1.6,3.3-2.2,4.9c-0.6,1.4-1,2.9-1.3,4.6c-0.1,0.4,0.5,1,0.8,1.7c-0.4,1.8-0.7,4-1.2,6
			c-0.4,1.8-0.9,3.7-1.3,5.4c-0.2,0.8-0.4,1.6-0.5,2.4c-0.2,3.1-1,6.4-0.5,9.4c0.6,4.2-0.7,7.9-1.3,11.7c-0.7,4.3-4.9,8.6-4.8,13
			c0,0.6-0.2,1.3-0.4,1.9c1.6,1.7,1.9,4.3,0.6,6.3c-0.3,0.3-0.2,0.9-0.5,1.1c-0.6,0.4-1.3,0.7-2,0.8c-0.3,0-0.9-0.8-0.9-1.2
			c0-2,0.2-4.2,0.2-6.2c0-0.6,0-1.3-0.1-1.9h-0.8c-0.1,2.5-0.6,5-0.4,7.5c0.2,1.9-0.5,2.5-2.1,2.8c-1.5,0.3-3,0.8-4.5,1.5
			c3.7-0.6,5.9,1.4,8.1,3.6c0.5,0.5,1.5,0.5,2.1,1c0.7,0.6,1.4,1.2,2,1.9c-0.7,0.4-1.5,0.8-2.3,1.1c-1.2,0.2-2.4,0.5-3.6,0.8
			c2.2,1.7,2,5.1,4.9,6.4 M111.5,108.9c2.9,2.7,6.7,2.4,10.3,2.7c3.6,0.3,7.4,0.5,10.9,0.7c-2.8,2.6-2.8,2.4-5.2,2.7
			c-4.3,0.4-8.4,1-12.6,1.6c-0.4,0.1-0.7,0.4-1.3,0.8l5.7,3l1-1.1l1.2,2.3l0.1-2.2l0.5-0.2c0.5,1.1,1,2.2,1.7,3.7l0.5-4.3h0.7
			c0.2,0.9,0.5,1.8,0.8,2.7c0.4,0.7,1,1.4,1.6,2l0.4-0.3l-0.1-3.1c0.6,1.3,3.8-1.1,2.2,1.9c0.8,0.3,1.7,0.6,2.5,0.9
			c0.4,0.1,1,0.4,1.2,0.3c2.9-1.8,6-3.4,8.1-6.2c0.3-0.4,0.4-1,0.2-1.5c-1.2-1.7-2.6-3.3-4.3-4.7c-1.2-1-2.8-1.5-1.7-4
			C127.8,109.8,119.6,109,111.5,108.9z M99.3,77.9c-1.8,0.3-3.7,0.6-5.5,1.1c-0.8,0.3-1.8,1.4-1.7,2c0.3,2.5,0.9,5.1,1.7,7.5
			c0.2,0.6,1.7,1.1,2.6,1.1c2.6,0,5.3-0.7,7.9-0.4c1.6,0.2,2.1-0.4,2.8-1.4c1.6-2.3,3.3-4.6,4.9-6.9c0.3-0.6,0.6-1.2,0.8-1.9
			c-0.6-0.1-1.3-0.2-2-0.3c-1.3,0-2.7,0.1-4.1,0C104.1,78.6,101.4,78.3,99.3,77.9z M103.5,111.2c-0.6-0.1-1.2,0-1.7,0.1
			c-2.1,0.8-2.5,0.6-3.4-1.5c-0.8-2.4-0.8-5.4-3.5-6.9c-0.2-0.1-0.2-0.5-0.4-0.7c-0.6-0.5-1.2-0.9-1.8-1.4c-0.5,0.9-1.5,1.9-1.3,2.7
			c0.4,2.2,1.2,4.4,2.4,6.3c1.4,2,3.6,3.8,5.4,5.5c0.6,0.6,1.8,1.2,2.3,1c0.9-0.6,1.6-1.5,2-2.5C103.9,113,103.6,112.1,103.5,111.2
			L103.5,111.2z M103,68.6c1.1,0.2,2.2,0.5,3.4,0.8c1.1,0.4,2.1,1,3.3,1.4c0.4,0.1,0.8,0,1.1-0.2c0.2-0.4,0.3-0.9,0.1-1.3
			c-0.8-1.5-1.8-2.9-3.9-3.1C105.2,66,103.7,66.3,103,68.6L103,68.6z M71.5,107.7c-0.3,2.1,0.7,2.4,2,2.4c1.5,0,2.4-0.6,2.4-2.2
			c0-1.1-1.8-3.4-2.7-3.3C71.1,105.1,71.7,106.9,71.5,107.7L71.5,107.7z M113.1,98.7l0.3,0.5l3.7-0.1l-1.9-2.4L113.1,98.7z
			 M112.6,83.6l0.2,1.2c0.8-0.2,1.6-0.5,2.4-0.8c0.1,0,0-0.6-0.1-0.8L112.6,83.6z"/>
		<path class="st0" d="M104.4,206.7 M13.2,137.1c0.9-5.6,3.4-10.8,6.9-15.1c0.9-1.1,1.9-2,3.7-1.4c0.4,0.1,1-0.3,1.6-0.5
			c0.6,1.3,0.2,3.4,2.3,3.7l-1.5-2.4l0.5-0.4l1.1,0.5l0,0c1.1,1.2,2,1.1,2.8-0.3c0.5-0.8,1-1.5,1.5-2.3l0.9,0.6l-0.9,2.7
			c0.7,0.3,1.5,0.7,2.3,1c2.1,0.7,2.4,1.5,1.7,3.7c-1,3.4-2.3,6.6-2.7,10c-0.8,7.1,0.5,14.2,3.8,20.5c3.4,6.6,8.3,11.3,15.3,13.4
			c9.2,2.7,17.3,0.2,23.9-6.7c1.7-1.8,3-4.3,4.4-6.4c0.9-1.4,1.8-2.9,2.5-4.3c0.7,1.5,0.3,3.5-1.1,4.5c-0.5,0.5-0.8,1.1-0.9,1.8
			c-0.6,1.7-1.2,3.4-1.7,5.1c-0.3,0.8-0.3,1.6-0.1,2.4c1,3.4-1.9,6.8-0.6,10.2c0.3,0.8,0.8,1.5,1.4,2.1c0.8,0.8,1.8,1.6,2.5,2.5
			c0.6,0.8,2.1,1.4,0.5,2.9c-0.8,0.7,0.6,3,1.9,3.1c2.2,0.2,4.5,0.2,6.6,0c3.9-0.4,7.6-1,11.6-1.3c-4.3,1.1-8.5,2.2-12.7,3.4
			c-1.5,0.3-3.1,0.8-4.6,1.3c-2.7,1.1-2.5,2-0.7,3.7c-1.6,1.2-2.3,2.6-1.2,4.8c0.8,1.4,1,3.1,1.4,4.8l0.6-0.1l-0.6,1.7l4.5-0.2
			l0.8,1.1 M21.4,176.6c0.2-1.8,0.7-3.6,0.8-5.3 M56.8,189L56.8,189c-2.6,0.3-5.3,0.5-7.9,0.8c-1.2,0.1-2.4,0.4-2.5,2 M52.8,184v0.8
			c1.8,0.3,3.6,0.6,5.4,0.7c0.6,0,1.3-0.6,1.9-1c-0.7-0.6-1.4-1.7-2-1.7C56.3,183.1,54.5,183.5,52.8,184z M71.1,186.2l0.7-0.3
			c0.1-1.8-0.1-3.7-1.5-5.1c-0.3-0.3-1-0.4-1.5-0.5c-0.1,0.5-0.5,1.1-0.3,1.4C69.2,183.3,70.2,184.7,71.1,186.2L71.1,186.2z
			 M32.9,128l0.5-0.5l-3.4-3.4l-0.5,0.5L32.9,128z M22,126.8l0.5,0.1l0.3-4.3h-0.5L22,126.8z"/>
		<path class="st0" d="M191.8,188.4l1.2,0.6c-1.5,0-3.1-0.1-4.7-0.2c-0.5-0.1-1.2-0.8-1.2-1.3c0-1.2,0.3-2.5,0.7-3.7
			c4.6-10.8,9.2-21.4,13.9-32.1c1-2.2,2.1-4.4,3.4-6.6c0.3-0.4,0.7-0.9,1.1-1.2l0.6,0.4c-0.8,2.3-1.8,4.6-2.9,6.7
			c-0.9,1.5-1,2.5,1,3.4l1.5-2.2l-0.4,0.1c0.2,1.8,0.3,3.7,0.3,5.5c-0.1,1.7-0.9,3.6-0.7,5.3c0.4,2.1,0.9,4.3,1.7,6.4
			c0.1,0.3,0.6,0.4,0.9,0.6l1-1.8c1.1,0.7,1.4,1.6,0.5,2.6c-1,1.1-0.3,1.9,0.5,1.8c1.9-0.1,2.5,1.2,3.6,2.5l-1.2,0.9
			c0.3,0.5,0.5,1,0.9,1.7l-4.9,3.4l0.2,0.4c1.7-0.7,3.4-1.3,5-2c3.1-1.3,4.9-0.9,7.3,1.7l-1.6,2.1c-0.4-0.5-0.7-0.8-1.5-1.7
			c-0.2,1.1-0.3,1.8-0.4,3.3c-1.8,0.2-4,0.6-6.2,0.8c-3.1,0.2-6.2,0.1-9.3,0.3c-2.3,0.1-4.6-0.9-5.1-2.7
			C195.5,185.2,194.8,188.1,191.8,188.4z"/>
		<path class="st0" d="M168.7,40.4c0.8,0.5,1.3,0.6,1.5,0.9c3,5,7.1,9,10.2,14c3,5,4.3,10.5,6.4,15.6c1.1,2.8,1.2,6.3,1.1,9.4
			c-0.2,4.5-1,8.8-1.6,13.3c-0.2,0.5-0.4,1.1-0.7,1.5c-0.6-0.3-1.1-0.6-1.6-1c-3.1-3.1-4-7-4.1-11.3c-0.1-3.4-0.5-6.8-1.1-10.2
			c-0.4-2.4-1.4-3.3-3.9-3.5c-1.4-0.1-1.5-1.1-1.6-2.1c-0.3-2.7-0.2-5.6-0.7-8.3c-1-5.4-2.3-10.8-3.6-16.2
			C169,42.1,168.9,41.6,168.7,40.4z"/>
		<path class="st0" d="M216.3,125.9l3.6-4.3c1.4-1.7,3.7-2.7,5.9-2.5c1.3,0.1,2.8,1.5,3.6,2.7c1.7,3,2.3,6.6,1.8,10.1
			c-0.3,2.3-0.6,4.7-0.9,7l-0.6,0.1c-0.5-0.5-1-1.1-1.5-1.7c-2-2.5-4-5.2-6.3-7.5C220.5,128.4,218.6,127.4,216.3,125.9z"/>
		<path class="st0" d="M174.6,77.5c0.4-1.4,0.9-2.9,1.4-4.3c0.6-1.2,1.8-1.2,2.1,0.1c0.4,2,0.6,4.2,0.6,6.2c0,0.3-1,0.9-1.5,0.9
			s-0.9-0.7-1.2-1.2c-0.3-0.5-0.6-1.1-0.8-1.7L174.6,77.5z"/>
		<path class="st0" d="M67.9,117.6c-6-2.7-11.9-1.9-18-0.6C56,114.8,62,114.4,67.9,117.6z"/>
		<path class="st0" d="M111.5,31.9c-0.2-0.1-1.3-0.1-1.4-0.4c-0.7-2.1-2-4.2-1.6-6.4l0.7-0.2L111.5,31.9z"/>
		<path class="st0" d="M172.1,76.5c2.2,1.8,2,3.7-0.5,5.4C170.7,80.1,171.1,78.5,172.1,76.5z"/>
		<path class="st0" d="M107.4,181.3c0.6,4.6,0.5,4.5,5.1,4c2-0.1,4,0,6,0.3c-3.3,0.1-6.5,0.2-9.8,0.4c-1.1,0.1-1.6-0.4-1.5-1.5
			C107.3,183.4,107.4,182.4,107.4,181.3z"/>
		<path class="st0" d="M37.6,121.2c-0.9-3-4.1-3.4-6.3-4.9C35.4,116.9,37,117.3,37.6,121.2z"/>
		<path class="st0" d="M165.8,69.3l3.6,2.9v0.5c-0.6,0-1.4,0.1-1.7-0.2c-0.9-0.8-1.6-1.7-2.4-2.7L165.8,69.3z"/>
		<path class="st0" d="M115.6,25.9c0.1,3.5,2.5,3.4,4.8,3.5l-0.2,0.7c-1.3-0.2-2.7-0.2-3.8-0.8c-0.8-0.5-1.1-1.7-1.6-2.6L115.6,25.9
			z"/>
		<path class="st0" d="M27.6,117.1l-4.3,1.7l-0.2-0.5c1.1-1.3,2.4-2.2,4.3-1.9L27.6,117.1z"/>
		<path class="st0" d="M93,198.4l-3.7-2.8l0.5-0.7l3.7,2.8L93,198.4z"/>
		<path class="st0" d="M108.8,47.3l7.8,0.7v0.3l-7.8-0.3V47.3z"/>
		<path class="st0" d="M97.9,203.4l-3.8-4.2l0.5-0.5l3.7,4.3L97.9,203.4z"/>
		<path class="st0" d="M124.7,21.4c2.2,1,3.6,2.6,3.6,4.4C127.2,24.4,125.9,22.8,124.7,21.4z"/>
		<path class="st0" d="M27.7,121.2c0-0.3-0.1-0.6,0-0.8c0.4-0.4,0.9-0.7,1.4-1l0.6,0.8c-0.4,0.3-0.8,0.6-1.3,0.9
			C28.2,121.3,27.9,121.2,27.7,121.2L27.7,121.2z"/>
		<path class="st0" d="M166,73.5l3.3,2.6C167.4,76.2,166.8,75,166,73.5z"/>
		<path class="st0" d="M167.6,69.2l-2.5-3.4l0.3-0.2l2.9,3L167.6,69.2z"/>
		<path class="st0" d="M122.9,15c-10.4,0-38.6,5-53.2,37.1s2.6,61.4,2.6,61.4l32.1,21.2c0,0,11.2,5.4,11.4,2.2
			c0.2-3.3-4.8-10.1-9.9-11.6c-5-1.6-20.4-2.2-24.9-13.4s-4.6-18.6-2.6-23.1c2-4.5-1.6-10.1-1.6-13.6c0-3.6,0.2-16.9,3-25.4
			c2.8-8.6,6.5-17.6,13.5-23.5c7-5.9,11.1-7.4,17-8.9C114.4,16.3,118.6,15.5,122.9,15z"/>
		<path class="st0" d="M77.9,66.5c0,0,3.8-17.9,19.4-22.1c12.3-3.3,25.1-4.1,37.7-2.6c9.7,1.1,18.8,4.9,26.3,10.9
			c8.5,6.6,10.8,17.8,10.8,17.8v1.2c0,0-2.9-10.5-9.9-16.4s-16.5-11-26-12c-9.7-1.1-23.8-1-30.5,0.7c-6.7,1.7-14.4,3.7-19,9.2
			c-4.6,5.6-9.4,17.1-9.4,17.1L77.9,66.5z"/>
		<path class="st0" d="M109.3,185.5l-2.8-0.2l7.1-43.4c-1.8,1.6-4.5,2.6-8.7,3.3c-7.3,0.9-20.1-6.5-20.6-6.8l1.4-2.4
			c0.1,0.1,12.5,7.3,18.9,6.4c6.7-0.8,8.2-3,9.7-5.8l3.1-6.6L109.3,185.5z"/>
		<path class="st0" d="M141.3,145.3h-1c-7.9-0.3-11.2-7.5-11.8-11.3l2.7-0.5c0.1,0.4,1.5,8.6,9,8.9c7.7,0.3,15.7-3.4,24.7-11.1
			c7.8-6.8,9.7-18.3,9.7-18.4l2.7,0.4c-0.1,0.5-2,12.6-10.7,20.1C157.7,141.4,149.4,145.3,141.3,145.3z"/>
		<polygon class="st0" points="128,185.4 134.3,142.6 137.1,142.7 130.8,185.5 		"/>
		<path class="st0" d="M76.1,193.8c9.1-4.5,23.6-9.8,40.3-9.8h0.7c32.5,0.3,47.8,13.1,48.5,13.7l-1.8,2.1
			c-0.2-0.1-15.3-12.7-46.6-13"/>
		<path class="st0" d="M103.7,36.1c0,0,21.1-5.1,36.6,0s24.3,14.5,27.9,20.2s3.9,15.3,3.9,15.3s-3.4-18-22.2-24.3S126.3,40,103.7,43
			C81.1,45.9,103.7,36.1,103.7,36.1z"/>
		<path class="st0" d="M73.7,175.1c-2-4.3,3.6-51.6,3.6-51.6l-1.3,49.1c0,0,2.8,21.8,8.3,20.2c5.5-1.5,15.5-5.4,15.5-5.4
			s-7.5,7.9-2.9,13.6c4.6,5.7,14.4,4.9,14.4,4.9"/>
		<path class="st0" d="M83.5,153.2c0,0,14.8-2.5,16.8,6.3c1.9,8.8,5.8,18.7,5.8,18.7l0.6,7.1c0,0-22,8.4-25.5,6.2
			c-3.5-2.1-5-19-5-19l-4.2-14.8L83.5,153.2z"/>
		<path class="st0" d="M56.4,166.7c6.4,2,12.5,0.4,18.5-1.6C68.9,168,62.8,169.3,56.4,166.7z"/>
		<path class="st0" d="M169.2,99.2c0,0,2.6,2.7,7.5,1.5c4.8-1.2,9-5.5,9-5.5s1,3.3,5.1,12.2s-8.9,16.2-7.6,20.6
			c1.3,4.5-1.6,6.3-4.4,31.2c-2,18-2,26.3-2,26.3s-10.4,2.1-14.8,3.6c-4.5,1.4-4.9,2.3-10.1,1c-5.2-1.3-22.4,7.1-10.8-6.9
			s21.1-25.2,24-32.4s3.8-19.1,3.8-19.1s-16.6,11.8-11.5,7.2c5.1-4.5,16.5-10.9,8.7-14.6c-7.7-3.7-5.1-7.8-1-11.4
			C169.3,109.3,169.2,99.2,169.2,99.2z"/>
		<path class="st0" d="M193.9,191.6l3.3-1.3c0,0,8.2-3.8,14.4-4.5c6.2-0.8,26.2,7.2,26.2,7.2l-19.7-11.2c4.3-1.5,8.8-1.9,13.3-1.4
			c7.4,1,5.8-5.5-1.6-5.5c-7.4,0-23.1,5.5-23.1,5.5s7-13.4,13.1-12.2c6.1,1.2,12.1-4.1,7.3-4.1s-23,8.5-23,8.5s11.7-6.4,11-11.3
			c-0.7-4.9-7.1-11.5-8.6-9.2s5.5-5.7,6.7-9.8c1.2-4-8.9,4.6-8.9,4.6l6.8-17.7l0,0v-12.7c0,0,1,23.1,9.9,18.3
			c8.8-4.8-8-29.2-2.8-24.2c5.2,5,6.4-2,0-6s-13.6-8.1-20.8-8c-7.4-0.1-11.6-1.5-11.6-1.5s4.7-5.1,21.4,0s25.7,21,24,23.9
			s-8.4,5.6-10.3,7.1c-1.8,1.5,9.1,2.4,19.5,35.2"/>
		<path class="st0" d="M12,189.8c0-32.3,90.1-40.7,77.4-63.2c-7.6-13.6,150,30.8,150,63.2"/>
		<path class="st0" d="M259.2,147.8c5.2,0,9.3,4.2,9.3,9.3l0,0"/>
		<path class="st0" d="M49.9,64.6c-0.5-3.7-2.6-6.5-4.7-6.2c-0.6,0.1-1.1,0.4-1.5,0.8c0.1-0.9,0.1-1.8-0.1-2.6
			c-0.5-3.8-2.6-6.5-4.7-6.2c-1.9,0.1-3.9,0.4-5.7,0.8c-2,0.3-3.4,3.6-2.7,7.3c0.1,0.8,0.3,1.6,0.6,2.4c-0.4-0.2-0.9-0.3-1.4-0.3
			c-2,0.3-3.4,3.6-2.8,7.3c0.4,2.8,1.7,5.2,3.3,6l0,0c4,2.7,5,7.2,5.5,10.6c0.5,3.4,0.5,6.1-0.3,6.2c-0.8,0.1,4,1.8,4,1.8
			s1.6-1.2,2.6-2c1.2,0.5,3,1.2,3,1.2s4.1-3,3.3-2.8c-0.8,0.1-1.6-2.5-2-5.8c-0.4-3.4-0.7-7.9,2.3-11.7l0,0
			C49.7,70.1,50.3,67.6,49.9,64.6z"/>
		<path class="st0" d="M62.7,88.7h-0.2c-5.4-0.5-13.5,0-21.8,1.2c0,0,0,0-0.1,0c-0.8,0.1-1.6-2.4-2-5.8c-0.4-3.4-0.7-7.9,2.3-11.7
			l0,0c1.2-1.2,1.8-3.8,1.5-6.6c-0.5-3.8-2.6-6.5-4.7-6.2c-0.6,0.1-1.1,0.4-1.5,0.8c0.1-0.9,0.1-1.8-0.1-2.7
			c-0.5-3.8-2.6-6.5-4.7-6.2c-2,0.3-3.4,3.6-2.7,7.3c0.1,0.8,0.3,1.6,0.6,2.4c-0.4-0.2-0.9-0.3-1.4-0.3c-2,0.3-3.4,3.6-2.7,7.3
			c0.4,2.8,1.7,5.2,3.3,6l0,0c4,2.7,5,7.2,5.5,10.6s0.5,6.1-0.3,6.2c-0.2,0-0.1,0.1,0.1,0.2c-4.1,0.8-8.1,1.8-12.2,3
			c-1.2,0.3-2.4,0.7-3.6,1.2h-0.1l0,0c-10.6,4.7-19,19.3-14.6,34.2C8,146,15.3,157,26.6,158.7l0,0H27c1,0.1,2.1,0.2,3.1,0.1
			c13.6,0.4,32.4-2.6,41.6-6.2c0.2-0.1,0.5-0.2,0.7-0.3c10.8-4.5,17.4-18.8,15-34.6C85.1,101.8,74.5,89.7,62.7,88.7z"/>
		
			<ellipse transform="matrix(0.9901 -0.1407 0.1407 0.9901 -16.3169 10.658)" class="st1" cx="67.2" cy="120.7" rx="22.6" ry="30.3"/>
		<path class="st0" d="M51.8,131.2c-0.3-1.3-0.5-2.6-0.6-4.1c-1-12.3,5.6-22.8,14.7-23.5c9.1-0.7,17.4,8.6,18.3,20.8
			c0.1,1.3,0.1,2.7,0.1,4.1c0.9-3.5,1.2-7,0.9-10.6c-1.1-13.3-10.1-23.5-20-22.7s-17.1,12.2-15.9,25.6
			C49.4,124.5,50.3,127.9,51.8,131.2z"/>
		<path class="st0" d="M60.6,129.4c-0.2-0.7-0.3-1.3-0.3-2c-0.5-6.2,2.8-11.5,7.4-11.9c4.6-0.4,8.7,4.4,9.2,10.5c0,0.7,0,1.4,0,2
			c0.5-1.7,0.6-3.6,0.5-5.4c-0.5-6.7-5.1-11.9-10.1-11.5c-5,0.4-8.6,6.2-8.1,12.9C59.4,125.9,59.9,127.7,60.6,129.4z"/>
		<path class="st0" d="M204.2,168.2"/>
		<path class="st0" d="M174.3,153.2c0,0,8.1,1.4,11.4-7.9c3.3-9.3,8.9-24.1,8.9-24.1l-8.9,33.7c0,0,1.6-4.8,5.8-5.1
			c4.2-0.3,4.7-3.5,5.5-9.7c0.8-6.2,2.1-14.1,2.1-14.1s2.9-0.7,1.8,3.9c-1.1,4.7-6.1,19.1-4.8,20.1c1.3,1.1,5.6,3,8-3.3
			c2.4-6.3,5.2-7.9,5.2-7.9l-7.8,18.7L174.3,153.2z"/>
		<path class="st2" d="M101.2,188.3H88.8c2,7.5,6.1,13.3,12.8,15.7c-0.6,0.6-1.1,1.2-1.5,1.9c-6.6-2.7-10.6-8.2-12.9-15.8
			c-1.3,7.1-6.2,13.1-13,15.8c-0.4-0.7-0.9-1.2-1.5-1.8c8.3-3.4,11.4-9.7,12.6-16.1h-12v-2.1h12.5c0.3-3,0.4-6.1,0.4-9.2l2.9,0.1
			c0,0.3-0.3,0.4-0.7,0.5c0,2.8-0.1,5.7-0.4,8.5h13.2L101.2,188.3z"/>
		<path class="st2" d="M110,200.4c-0.7,2.2-2.1,4.3-4,5.8l-1.8-0.9c1.7-1.4,3-3.3,3.8-5.4L110,200.4z M132.7,196.9v1.8h-28.3v-1.8
			h13v-2.8h-10.3v-1.7h10.3v-2.4h-9.5v-11.8h21.4v11.8h-9.8v2.4h10.9v1.7h-10.9v2.8H132.7z M109.9,179.7v3.4h7.5v-3.4H109.9z
			 M109.9,188.1h7.5v-3.4h-7.5V188.1z M114.2,205.9c-0.1-1.7-0.3-3.5-0.6-5.2l1.9-0.2c0.4,1.6,0.6,3.4,0.7,5.1L114.2,205.9z
			 M127.2,183v-3.4h-7.7v3.4H127.2z M127.2,188.1v-3.4h-7.7v3.4H127.2z M121.8,205.7c-0.4-1.7-1-3.5-1.7-5.1l1.9-0.4
			c0.7,1.6,1.3,3.4,1.8,5.1L121.8,205.7z M130.8,206.1c-1.2-1.9-2.6-3.8-4.2-5.5l1.9-0.7c1.6,1.6,3,3.5,4.3,5.4L130.8,206.1z"/>
		<path class="st2" d="M163.1,191.5h-11.6c2,6.5,6.2,11,13.1,12.6c-0.5,0.6-1,1.3-1.4,2c-6.6-1.9-10.7-6.1-13.1-12.3
			c-1.2,4.7-4.7,9.2-13.4,12.3c-0.3-0.7-0.7-1.3-1.2-1.8c9.2-3.3,12.1-8,12.9-12.8H137v-2.1h11.6c0-0.7,0-1.3,0-1.9v-5.8H136v-2.1
			h27.9v2.1h-13.1v5.8c0,0.6,0,1.2-0.1,1.9H163L163.1,191.5z"/>
	</g>
</g>
</svg>
