<svg id="Calque_1" data-name="Calque 1" xmlns="http://www.w3.org/2000/svg" viewBox="0 0 600 600"><defs><style>.cls-1{fill:#343736;}.cls-2{fill:#fff;}</style></defs><rect class="cls-1" x="-6.67" y="-8" width="614" height="614"/><path class="cls-2" d="M243.24,333.52a21.37,21.37,0,0,1-.86-6.5l.1-21.32,6.89,20.18a16.43,16.43,0,0,1,.88,6.91l-1.65,18.15Z"/><path class="cls-2" d="M246,327a12.82,12.82,0,0,1,.7,5.42A18.06,18.06,0,0,1,246,327m-7-42.67L238.78,327a25.24,25.24,0,0,0,1,7.58l10.72,34.84,3.31-36.31a19.86,19.86,0,0,0-1.06-8.4L239,284.37Z"/><path class="cls-1" d="M305.35,231.93c-4.28,0-5.68,2.1-8.68,4.53a21.64,21.64,0,0,1-9.67,4.32c4,2.69,6.47,5.42,12.23,4.33C304,244.2,307.47,242,308,237,308.28,234.63,307.86,232.87,305.35,231.93Z"/><path class="cls-2" d="M452.56,253.76c4.38,0,7.72-.9,11.72-1.91s8.22-1.84,12.22-2.94c9.06-2.51,10.22-3.35,14.12-5.66,3.41-2,3-4,5.87-5.93s6.1-.82,8.44,1.59a6.2,6.2,0,0,1,1.93,3.88c.27,2.57-.42,1.88-3.47,2.19a69.81,69.81,0,0,0-21.61,5.59,51.68,51.68,0,0,1-15.52,4.53C462.33,255.49,455.6,256,452.56,253.76Z"/><path class="cls-2" d="M796.16,676.17c-4.13-11.78-11.3-37.62-16.95-49C774,616.83,757,599.91,750.9,590.14c-13.39-21.52-24.39-31.81-49.84-34.49-24.13-2.55-29.19-4.71-38.61-5.65-5.44-.55-25.87-10.58-30.12-13.6-4-2.81-6.63-1.23-10.36-4.68-6.51-6-20.68-9.47-35.1-11.43,8.43-6.68,16.37-14.34,24.74-17.93,27.29-11.68,46.87-14.4,65.62-7.09,26,10.15,42.26,19.5,54.48,30.24C724,514,711.46,504,700.4,496.21c-23.69-16.71-63.63-35.46-103.68-22-51.11,17.21-71.26,7.21-57.38,5,35.38-5.71,39-28.81,74.87-35.37,20.39-3.74,38.25,10.15,58.68,13,22,3.09,38.59,8.36,60.77,8.28,11,0,26.34-5.53,37.3-6.36,9.12-.69,18.17-4.84,27.36-4.28-29.25,0-60-2.71-87.82-11.42-30.69-9.62-63.63-29-96.29-29.05-30.6-.08-54.36,13.4-80.08,22.87,1.32-8.88,1.6-17.2-.72-24.23-12.26-.58-18.21,2-24.94,6.85C522.78,402.84,533.35,383.05,541,363c8.28,3.28,20.94,2.72,26-6.26,5.31-9.38,2.34-22.13,7.7-31.76,2.41-4.34,6.2-7.09,8.49-11.46,2.95-5.61,1.71-10.57,3.1-16.22,2.24-9.09,9.37-19.57,13.53-28,2.22-4.53,6.44-9,8.28-13.4,2.51-6.08-1.48-10.91-1-15.56,7.35,3.78,5-8.92,5.17-12.76.34-7.19,1.77-14.75,1.43-22.4-.65-14.79-5.41-27.44-10.59-40.94-4.74-12.33-1.36-27.48-4.1-40.47-2.57-12.13-1.74-24.11-6.3-36-10.71-27.92-38.61-50-63-66.31-27.18-18.19-56.58-37.69-89.9-43-21.07-3.34-42.19-3.69-63.72-3.69-19.91,0-29.28,4.95-56.11,9.89-7.43,4.91-18.12,5.62-26.11,10.77C284.16,1.62,279.67,6.24,266.35,19c-9.9,9.48-19.76,23-28.2,34.56a211.77,211.77,0,0,0-18.87,32C209.23,106,207,119.22,207,142.43c0,21.32,7.06,40.65,9.17,61.81a167.3,167.3,0,0,1-.15,33.87c-1.19,12.34-.87,20.15,10,26.95-5,11.12-.69,27.73,4.32,37.67,4.27,8.45,12.41,14.35,17.15,22.32a19.94,19.94,0,0,0-9.17-5.17c-4.85-7.8-11.48-15.14-16.23-20.87.06,5.47,6.17,11.34,8.51,16.36a56.54,56.54,0,0,1,4.82,16.93c.77,7.63-2.23,14.77-7.09,20.4-3.69,4.26-9.29,6.55-12.69,11.14-5.68,7.65-3.94,16.05-3.26,24.64,1.19,15-12.35,18.89-23.85,22.35-14.95,4.51-23.81,9.56-31.1,22.88-2.7,4.93-9.94,17-16.88,21.41a33.57,33.57,0,0,1-5.36,1.46c-.35,0-.68,0-1,0a4.63,4.63,0,0,0,.52.07c-29.22,5.21-62.48-27.39-88.92-23.74C17.13,436.88-1,458-23.62,469.52c-12.92,6.6-23.76.86-35.84-4.56,17.5,12.19,37.23,16.3,56.23,3.94,12.8-8.33,24.31-14.78,40-12.76,13.38,1.72,25.71,9.82,37.8,15.59,26.83,12.81,48.27,13.88,73.81,10.9,12-1.4,28.39-16.12,38.5-22.46,10.27-6.44,19.67-12.95,32.07-13.27,36.25-.94,53.88,9.35,53.88,9.35-6.49,2-13.09,4-20,4.3-12.81.54-30.76,3.94-40.41,13.26-8.55,8.25-24.72,25.07-33.22,33.35-16,15.58-31.35,18.36-60.91,13.1-14.76-2.62-46.19-10.53-66.95-21.58,18.66,9.93,33.9,24.48,59.32,32.49,25.86,8.14,54.57,13.8,75.19-2.81,18.6-15,27.36-24.19,38.35-32.2,10-7.26,27-8.12,39.22-5.86,11.53,2.14,21.44,7.31,32.67,4.5-8.1,6.29-24.82,5.68-34.78,6.71-7.67.79-26.3,7.81-33,12.71-17,12.36-14.28,23.07-51.7,35.69,42.37,2.21,60.81-30.26,84.38-30.75,9.27-.19,18.7,1.21,28.2,2.73C279.2,531,273,532,257.89,534.68c-51.84,9-95.29,31.75-132.67,68.41-10.94,10.73-23,20.43-34.4,30.87C79,635.75,65.18,657.91,62.7,663.64,51,690.83,805.89,725.68,798.48,703,791.49,681.64,803.55,697.27,796.16,676.17ZM259.82,339.81c.79.68,1.53,1.4,2.24,2.14-.29,3.14-.05,6.64,1.18,8.44,6,1.14,10.82,6.44,14.25,13.32-5.44-4.62-11.73-8.3-16.57-12.95a41.23,41.23,0,0,0-3-8.93,81.41,81.41,0,0,0-7.18-12.91c0-1.24,0-2.49,0-3.74C253.9,332.93,253.4,334.37,259.82,339.81Zm4.06,60.88c-2.79,5.91-10.15,8.76-15.75,10.66a68.2,68.2,0,0,1-12.4,2.79c-.76,0-1.52,0-2.27,0h0c9.45-7.1,2.05-11.51,3.45-21,1.66-11.32,12.33-8.53,18.63-14.9a20,20,0,0,0,3.89-5.68c1,2.66,1.85,4.77,2.1,5.75C263.37,385.27,267.17,393.72,263.88,400.69ZM252.52,345.2c.19.78.35,1.54.49,2.3a17.09,17.09,0,0,0,.35,6.24,18.53,18.53,0,0,1-3.65,9.71,28.41,28.41,0,0,1-6.54,6.18c.05-.1.11-.21.15-.31,1.76-4.73-2.21-8.33-1.06-12.8,1.45-5.64,6-8.37,4.4-15.46a16,16,0,0,0-2.17-5.07,31.77,31.77,0,0,0-3.19-10.61C246.53,331.29,251.14,339.69,252.52,345.2Zm-41.36,70.15c-.93-.05-1.86-.09-2.78-.1a22.08,22.08,0,0,0,3.82-3.9c8-10.66,7.2-19,7.16-32.47,0-11.45,11-19,18.77-26.75,0,.19-.1.36-.13.54-1.23,6.1,3.17,12.86,2.81,18.62-5,3.3-10.41,6.2-14.06,11.09-3.32,4.45-6.51,9.74-5.29,15.56.91,4.35,5.61,7.54,6.45,11.51a7.4,7.4,0,0,1-.57,4.91C221.91,414.57,216.52,414.89,211.16,415.35Zm60.68-.15a47.52,47.52,0,0,0,5.2-3.36c-.35,1.28-.68,2.53-1,3.72C274.65,415.42,273.24,415.31,271.84,415.2Z"/><path class="cls-2" d="M548.1,394.56c-9.63,3.75-9.69,4.41-9.3,5.61-1.8,7.36-1.41,16.55-.84,24.47,7.43-7.6,20.94-12.19,30.84-16.21,12.44-5.06,24.79-9.32,38.1-9.32,15,0,23.86,5.18,37.34,8.54,8.53,2.13,23.28,2.83,31.92-.24,10.35-3.67,23.32-19.08,23.32-20.89-6.66,10-21.46,14.05-32.87,14.72-26,1.52-47-13.81-73.1-13.85C577.75,387.37,562.6,388.91,548.1,394.56Z"/><path class="cls-1" d="M278.59,241.31l.9,53.45c.32-4.93.58-9.77.58-14.39C280.07,267.43,279.17,254.28,278.59,241.31Z"/><path class="cls-1" d="M548.85,222.89c1.11,3.24,2.16,6.76,3.33,10.64A19,19,0,0,0,548.85,222.89Z"/><path class="cls-1" d="M280.1,213.76c2-4.89,4.61-5.59,4.77-12.26-3.87,4.75-7.68,13.19-10.44,17-1.11-10.13,5.62-16.81,7.61-26.11-8.23,9.07-12.93,18.75-18,28.88-1.08-2.09-.79-5.37.17-8.92-4.3,7.71-9.54,13.86-13.16,7.09-2.69-5,3.84-18.84,7.46-26.57C254.73,199.52,247,206.67,240,206c-2.54-.25-4.19-1-5.19-2.09-2.51,18.63-22.75,32.58-12.08,54.62-2.4-13.84,16.66-39.13,23.72-49.65,2.63,5.43-3.72,19.24-4,26.42-.48,11.58,2,21.71,4,32.81,2-5.65.92-14.72,2.62-21.41a85.1,85.1,0,0,1,9.67-22.78c4.34,12.33-7.1,28.29,1.52,41.89-2.22-8.31,0-41.34,10.33-42.73,1.66,10.05-3.12,21.76-2.61,32.39.37,7.54,1.36,15.92,4.68,22.77-.25-16.65,2.45-31.47,4.68-47.73.36-2.66.59-5.28.88-7.8,0,6.13.17,12.34.44,18.61l-.33-19.69A30.27,30.27,0,0,1,280.1,213.76Z"/><path class="cls-1" d="M258.54,192.85a21.9,21.9,0,0,0,1.83-4C260,189.78,259.32,191.18,258.54,192.85Z"/><path class="cls-1" d="M264.24,212.33a139.5,139.5,0,0,0,7.21-15.69A59.2,59.2,0,0,0,264.24,212.33Z"/><path class="cls-1" d="M227.32,211.84c.26-3.33,3.13-9.05,6.25-12.58.22-2.95,1.55-6.75,3.19-11.16C232.35,192.84,227.38,205,227.32,211.84Z"/><path class="cls-1" d="M235,197.85a15.43,15.43,0,0,0-1.38,1.41,6,6,0,0,0,1.22,4.64A27,27,0,0,0,235,197.85Z"/><path class="cls-1" d="M331.43,262.22c7.4-1.72,13.56-3.63,15.42-4.23C341.4,257.9,336.39,259.88,331.43,262.22Z"/><path class="cls-1" d="M440.06,344.1c-5.73,2.14-13.34.67-19.26-.23a40.59,40.59,0,0,1-5.82-1.95c-1.43-.62-3-1.2-4.64-1.75a23.93,23.93,0,0,0-4.07-1.29h0c-2-.61-7-2.52-8.91-1.4-1,.62-1.9,2.39-2.93,3.21a13.87,13.87,0,0,1-4,2.34c-2.65.79-4.73-.77-6.78-2.4-.84-.67-1.65-2.1-2.56-2.3a24.19,24.19,0,0,0-3.48.71c-2.51.42-4.26,2.28-6.43,3.46-2.73,1.48-5.51,2.56-8.3,4s-5.42,2.85-8.22,4.14c-2.65,1.22-5.19,1.71-7.95,2.84,2.59.17,4.36,1.3,6.79,1.16,3.72,1,5.47,4.2,9.33,6.1a9.74,9.74,0,0,0-1.29-4.91c4.82-1.55,10-6.47,14.52-7.19,3.47-.55,3.55,1.65,6,2.51a18.91,18.91,0,0,0,7.24.71c7.37-.32,12-4.14,18.87-4.14,3.59,0,15.43-1.78,13.67,4.17C429.59,352.27,439,353.56,440.06,344.1Z"/><path class="cls-1" d="M399.63,366.09c-6.87.56-30.38,9.44-32.93-2.39-1,6.1,3.86,8.65,7.09,10.2,9.65,4.63,20.33,5.68,29.65,1.1,6.11-3,12.89-.48,18.79-3,2.28-1,3.06-2.81,5.18-4.18,2.74-1.76,6-1.42,8.85-2.6C424.27,364.3,411.55,365.14,399.63,366.09Z"/><path class="cls-1" d="M277.29,344.92a25.11,25.11,0,0,0,2.24,10.63A18.88,18.88,0,0,0,277.29,344.92Z"/><path class="cls-1" d="M226.88,271c0,3.69-.89,7.65-.4,11.27a32,32,0,0,0,2.87,8.41c-.38-1.37-.74-2.75-1-4.15C227.4,282.41,228.39,276.42,226.88,271Z"/><path class="cls-1" d="M246,327a18.06,18.06,0,0,0,.7,5.42A12.82,12.82,0,0,0,246,327Z"/><path class="cls-1" d="M557.77,361.52c-1.59.73-3.26,1.6-4.93,2.57C555,363.69,556.81,362.91,557.77,361.52Z"/><path class="cls-1" d="M293.7,173.18c-4,3.85-7.21,10.43-6.57,16.19-.43-16.25,19-12.12,30.22-12.56,14.17-.57,28.41-1.91,37.14-13.82,3.83-5.22,4.55-8.35,8-16.82-1.63,1.7-3.94,5.8-5.62,7.73-3.86,4.44-6.76,4.71-11.73,7.67-9.93,5.91-16.65,7.25-28.38,7.23C308.55,168.78,300,167.1,293.7,173.18Z"/><path class="cls-1" d="M323.75,156.73c3.37-1.44,5.81-3.73,6.27-7.36A13.39,13.39,0,0,1,323.75,156.73Z"/><path class="cls-1" d="M296.08,156.09c-7.79-.37-26.06,1.73-23.54,13.65l-.94,7.53C274,175.8,273,169.9,274.41,167c1.58-3.33,4.31-5.06,7.57-6.48,5.48-2.39,11.54-1.57,17.47-1.57,3.86,0,11.53.54,18.24-.55C310.58,159,302.23,156.38,296.08,156.09Z"/><path class="cls-1" d="M323.75,156.73a26.24,26.24,0,0,1-6.06,1.63A16,16,0,0,0,323.75,156.73Z"/><path class="cls-1" d="M309.79,139.57c-7-1-11.58-6.94-18.34-8-8.56-1.32-10.29,5.83-14.23,11.8-2.84,4.31-6,7.61-3.27,12.22,1.41-12.38,22.37-16.14,32-13.68,10.18,2.59,17.06,2.85,24-6.06C323,138,317.44,140.66,309.79,139.57Z"/><path class="cls-1" d="M284.34,116.77c-5.48,2.4-10.88,9.55-13.68,14.37,4.77-3.5,12.28-10.1,18.58-10.38,5.61-.26,8.11,4.94,12.89,6.58C303.49,117.6,291.55,113.62,284.34,116.77Z"/><path class="cls-1" d="M472.55,136.41c-10.63-4-24.38-2.25-35.27-.58-7.71,1.19-17.07,4.68-21.62,4.72,3.32.38,6,2.11,9.5,2.38a87.8,87.8,0,0,0,16.37-.54c9.65-1.12,23.88-6.37,33-1.34,4.4,2.42,8.4,7.72,12,11,4.07,3.66,8.31,7.77,12.42,11.59s8.23,9.72,13.79,12.11c-6.65-3.15-12.77-13.41-17.1-18.61C490.11,150.44,480.79,139.54,472.55,136.41Z"/><path class="cls-1" d="M418.52,129.73c11-.1,21.56-2.06,32.34-3.68,5.8-.87,11.69-1.07,17.54-1.5,3.93-.29,9.26-1.58,13,.12,4.75,2.15,7.57,8.2,11.87,11-.41-9.46-8.48-18.53-17.73-19.16-13.59-.93-27.78,4.54-41,7-14.48,2.71-32.61,6.28-45.76,0C398.29,128.51,406.92,129.84,418.52,129.73Z"/><path class="cls-1" d="M464.66,86.25c.82.47,1.7,1,2.75,1.51A5.19,5.19,0,0,0,464.66,86.25Z"/><path class="cls-1" d="M401.06,93.48c6,5,15.28,3.39,22.56,3.66,8.74.31,15.41.41,23.08-3.76,3.87-2.1,12.41-8.37,18-7.13-2.86-1.66-4.8-2.82-9.45-2.66-6.62.23-12,3.06-18.17,5.16C424.43,93,413.21,93,401.06,93.48Z"/><path class="cls-1" d="M523.74,184.19c-.41-1.05-.81-2.07-1.22-3.15A17,17,0,0,0,523.74,184.19Z"/><path class="cls-1" d="M216.29,206.73c1.68-8.92,4.07-17.54,5.68-26.39.17-.9.34-1.91.51-2.9,5,5.88,14.18,6.69,21.25,5,10.36-2.48,9.92-11.28,9.47-20.45-.12-2.31-.67-17.6-5.83-15.8-3.15,1.1-1,8.4-.7,10.13.51,3.58.49,9.28-3.56,7.07-2.57-1.4-1-5.54-4.94-4.3-5.41,1.73,2.84,7.53.72,12.08-3,6.54-10.48,2.26-12.72-2.9-4-9.3,5.05-16.24,6.86-24.51,1.36-6.21-.32-19.89-7.57-21.57,1.46,8,2.27,16.52-2.06,24.72a34.43,34.43,0,0,0-2,5,68.59,68.59,0,0,0-4.37-7.1c3.07-6.28.71-21.88.71-28.38.09,9.59-4.8,15.43-6.38,24.14a58,58,0,0,0,.92,24C215.71,178.26,216.27,192.22,216.29,206.73Z"/><path class="cls-1" d="M482.51,89.24a23.49,23.49,0,0,1,11,3.68C491,90,487.57,88.33,482.51,89.24Z"/><path class="cls-1" d="M519.06,138.14a39.05,39.05,0,0,0,3.3,6.13c5.55,8.13,22.19,13.75,29.86,5.77,11.28-11.71-16.1-8.35-21.63-10.15-5.27-1.72-8.75-5.82-11.73-10.25a94.53,94.53,0,0,0-4.59-15.86c-2.91-7.23-4.38-16.92-9.91-22.55-8.11-8.26-26.73-14.31-37.6-17.11-7.41-1.91-25.62-5.84-29.45.76,23.65,0,52.34.17,65,23.3a40.69,40.69,0,0,1,3.46,9.63c-2.83-5.46-6.55-11.23-12.21-14.89,5.13,5.94,6.39,17.09,9.2,22.69C506.1,122.33,512,131.79,519.06,138.14Z"/><path class="cls-1" d="M502.28,86.41a35.1,35.1,0,0,1,15.05,7.31C513.36,88.38,508.59,85.09,502.28,86.41Z"/><path class="cls-1" d="M576.1,182.54c2.32,1.23,4.71,2.36,7.06,3.58a34.52,34.52,0,0,1,7.45,5.48C586.8,186.17,581.73,182.18,576.1,182.54Z"/><path class="cls-1" d="M816.86,671.8c-3.89-14.89-17.84-29.68-24.1-44.29-8.89-20.75-25.55-38.52-41.53-54.84-28.92-29.54-77.66-19.24-114.31-35-7-3-11.54-8-17.89-11.53-7.14-3.93-17.47-4.09-25.68-5.65-18-3.42-36-8.11-54.43-8.4a31.05,31.05,0,0,1-4.6-5.36c-.76-1.15-1.41-2.29-2.05-3.42a48.12,48.12,0,0,1-2.69-15.78c0-11.43-1.13-23.72.49-34.95,1.57-10.93,3.25-21.93,4.72-33,1.35-10.16,1.87-20.37,3.27-30.48.73-5.32.32-11.6,3.74-16a38.58,38.58,0,0,1,11-9,24,24,0,0,1-9.61-.39c-4.15-1.13-5.2-3.72-7.13-6.73,2-11.28,3.8-22.85,4.83-34.23.62-6.83,2.19-14,3.52-21.24a1.52,1.52,0,0,0,.2.06c3.32-2.94,5.72.19,7.42,3.51a9.75,9.75,0,0,0-1.3,4.49,91.5,91.5,0,0,1-2.65,22.16c3.64-.75,5.57,2.91,7.35,5.2,6-4.93,6.75-9.46,7.54-16.51.57-5.09,2.23-7.86,5.71-11.55,2-2.1,3.94-4.12,5.85-6.15-2.18,7.74-7.8,14.32-9.09,22.53-1,6.23-2.87,12.62-6.92,17.66,3.61-2.13,4.27-6.73,5.76-10.34a36.4,36.4,0,0,1,6.81-11.41c2.62-2.88,5-4.9,6.79-8.29,1.64-3.1,2.57-6.37,3.9-9.53,4-9.52,8.54-19.15,13-28.59,2.25-4.79,6.46-8.35,9.17-12.82a48.63,48.63,0,0,0,6.73-16.85,82.51,82.51,0,0,0,1.77-17c0-7,1.75-14.62,1.75-21.49a69.24,69.24,0,0,0-2.48-18.48,98.9,98.9,0,0,0-4-11.75c-1.24-2.8-5.08-16-6.08-19-.23-1.49-.45-3-.56-4.37a140.2,140.2,0,0,1,0-17.87c.72-13.94-1.77-25.73-4.08-39.16-4.27-24.89-28-41.79-45.76-58.81-15.19-14.54-34.7-23.27-52.37-34.21a181.21,181.21,0,0,0-42.71-19.62c-24.92-7.55-50.56-12-77.14-10.43-17.69,1-36.56,3.89-53.35,9.13-8,2.5-17,3.76-24.6,7.73C295-7.11,290.1-1.57,283.5.78c24.6-5.91,47.57-16.29,73.31-19.11,25.4-2.79,38.17-2.3,54.37-2.3,14.13,2.12,20.48,3.16,29.11,5.28,11.78,2.89,22.8,8.71,33.9,13.59,10.44,4.59,22,8.4,31.45,14.62,3.69,2.43,7.09,5.37,10.67,8.07h0A58.88,58.88,0,0,0,501,15.67c3.15,1.56,6.21,3.3,9.23,5.12-9.86-2.45-24.34-13.07-29.33-15.34C470.93.91,461.78-4.5,451-7.31c-9-2.35-18.49-2-27.31-4.24C435.33-6.73,448.49-5.13,459.88.24c11.13,5.25,22.61,9,33.65,14.4,6.65,3.23,13.37,5.62,20,8.2,10.5,6.67,20.44,14.5,30.51,21.47,7.16,4.95,15,9.61,20.87,15.76a22.69,22.69,0,0,1,1.74,2.07c-1.28-.55-2.55-1.09-3.86-1.69C550.45,50.38,534.15,43.9,521,35,467.76-1.07,404.84-15.89,340.79,0c-28.07,7-51.13,16.87-72.1,36.7-9.36,8.85-16.37,19.93-25.51,29-6.22,6.17-16.31,16.67-17.72,25.38C229.75,78.9,239.85,71.87,247.08,64c7.08-7.77,14.43-15.26,21.82-22.65,18.25-18.24,43.76-23.54,68.26-30.67,32.44-9.45,68.28-7.94,101.38-.55,22.17,4.95,42.26,13.48,62.37,23,5.42,4.14,9.7,9.43,8.83,15.14-3.64-.41-8.69-6.45-12.63-8.39a144.87,144.87,0,0,0-26.33-10.27c-8.9-2.41-18.11-4.64-27.3-6.16.18,4.68-5.58,11.45-7.07,16.12-2.08,6.52-3.91,6.7-11.32,6.34-.16-7.65-1.47-17.6,1.26-24.78-9.07-3.8-19.65-3.76-29.25-4.76-3.16-.33-8.28-1.55-11.13-.07-8.18,4.25-6.41,26.14-7.37,34.32,3.79.49,7.56-1,11.27-1.47,4.26-.57,8.38-.17,12.59,0,8,.37,15.91.57,23.92.57,8.61,0,16,2.78,24.4,4,9.48,1.39,18.92,2.8,28.24,4.94,10.83,2.48,23.67,5.69,32.65,12.3a61,61,0,0,1,5,4.13,97.32,97.32,0,0,0-10.74-5.24c-8.17-3.3-17.32-4.76-25.79-7.06-10-2.73-19.78-5.67-30-8-19.93-4.56-38.46-5.62-58.66-2.65-37.53,5.5-74.79,10.77-107.14,32.11-10.48,6.92-17.92,14-24.39,24.67-5.29,8.77-14.13,14.48-14.36,25.51,1.94-4.35,6.41-8.58,9.54-12.2,5.77-6.69,10.68-14.15,16.71-20.73,13.07-14.26,33.49-29.63,52.7-34.11C364,58.2,407,51.4,447.34,59.46a257.67,257.67,0,0,1,51.75,16.21C514.56,82.46,529,89.5,542.62,99.52a14.56,14.56,0,0,0-2.11-.4,11.51,11.51,0,0,1,2.16.44c.51.37,1,.72,1.53,1.1A161.45,161.45,0,0,1,558.09,112c3.28,4.35,5.69,9,6.23,12.7.65,4.33,1,8.5,1.41,12.61-.12-.25-.22-.51-.35-.76-5.51-10.72-14.16-10.15-23.56-15.28-8.78-4.79-11.74-14.81-18.14-21.65a58,58,0,0,0-6.35-5.9c8.45,11.34,13.34,32,21.92,37.7,6.77,4.5,14,6.78,17.9,14.52,3.18,6.29,3.19,13.49,3.46,20.51-.77,1.26-1.56,2.5-2.39,3.68-4.24,6.07-17.92,3.58-24.34.81a28.8,28.8,0,0,1-9.56-7.48c-1.29-2.89-2.37-5.89-3.68-8.2-4.27-7.5-12.12-12.55-20.24-15.18,1.71,5.08,6.47,8.39,9.49,15.45,2.85,6.64,8.64,17.42,17.15,18.78,5.09,4.11,11.58,7.52,17.82,6.74,4.32-.53,8-.85,11.63-2.83,5-2.7,6.89-4.73,12.77-4.25,10.08.82,12.93,9.43,21.28,13.29-6-10.74-22.16-16.54-13.89-31.67,4.37-8,9.44,1.83,13,10.42-1.49-2.32-3-4.45-6.08-4.67-.3,12.27,11.37,22.54,11.23,34.2-1.38-1.31-2.75-2.65-4.16-3.94a39.86,39.86,0,0,1,3.31,5.71c-6.1-2.34-9.79-8.62-15.21-12.15-2.2-2.38-4.62-4.09-7.19-4a21.19,21.19,0,0,1,5,2.88c-.34-.16-.66-.36-1-.49,3.31,7,15.51,17,13.75,25.49l-2.11-.6a15.85,15.85,0,0,0-5.42-2.66,26.8,26.8,0,0,0-3.19-.42c-.72-.35-1.45-.69-2.11-1.09-5.4-3.28-8.51-10.17-15.81-9,1.41,5.26,3.83,10.2,5,15.57a21.31,21.31,0,0,0-4.44-7.54c-2.19-2.3-6.66-3.74-7.66-6.43-2.18-5.85,4.15-6.61,8.06-6.41,7.48.38,10.42,3,15.41,8.33-1.07-3.15-3.76-9.12-6.87-10.72-4.56-2.33-14.47.26-19.61.88-9.59,1.14-21.92,5.14-26.84-4.73a117.77,117.77,0,0,0,5.77,13.12c-.54-.33-1.06-.66-1.63-1-7.63-8.11-18-11.19-27-18.88-1-.89-2-1.78-3-2.69-1-1.15-2-2.34-2.92-3.61-7.56-10-15.07-19.24-28.48-21.67-14.76-2.68-29.12,1.83-42.56,3.83-8.11,1.2-20.52,1.42-28.67,0-8.59-1.53,3.52,2.55,18.16,3.09a66,66,0,0,1-18.27-1.74c5.36.91,10.39,5.3,15.73,7,4.76,1.55,9.45,1.78,14.44,2.14,9.27.66,19.25,0,28.22,2.22,10.78,2.63,18.49,6.4,25.62,14.6,1.8,2.08,3.33,5.88,5,8.24-.88,1.78-3,3.21-6.78,4.05-26.86-4.93-68.43-1.69-78.68,25.14-4.54,11.85-4.09,28.31-4.73,41.56-.66,13.66,3.76,28.37,1.76,41.31-8.83.44-17.59,1.2-26.08,1.88-.62-12.24-.14-24.73-.14-37,0-23,.88-40.45-20-53-9.65-5.82-17.71-7.67-25.42-7.26-6.19,0-13.58,1.53-25.52,6.34-4.77,1.92-15.32,8.22-18,10.78,4.71-3.37,24.13-10.25,30.54-9.32,7.9,1.14,3.41,4.6-1.3,7.06-7.19,1.11-22.86,8.15-21.19,15.43,5.22-5.61,6.57-9,17-12.61a55.82,55.82,0,0,1,18.55-.39,41.23,41.23,0,0,1,18.41,9c-13.17-7.57-38.6-5.5-45.81,5.51a29.55,29.55,0,0,1-5.9,2.08l-.54.1c.49-1.09.24-2.25.92-3.39a6.69,6.69,0,0,0-7,4.63,8.51,8.51,0,0,1-2.26.53c.09,1.31,1.23,3.29,1.73,4.6.19.52.38,1,.58,1.44a21.19,21.19,0,0,0,3,6.24c1,1.49,3.52,1.14,4.75,2.52,1.05,1.18-.15,4.14,1.11,5.53,2,2.21,4.65,4.93,8,6.29,11.5,4.6,20.72-1.2,30.17-5.68-16.15,3.77-38.21,6.62-34.27-7.12,6.49,1.54,10,3,15.78,2.54a61.57,61.57,0,0,0,18.49-2.55c5.75-1.58,8.43-6,14.46-5,.68,3.29-5.74,3.29-2.21,5.55,2,1.27,7.83.18,10.23.38,6.38.55,8.85,5.11,10.9,10.58a78.92,78.92,0,0,1-4.47,34.28c-3.29,8.74-5.36,13.75,3.53,17.36,3.78,1.54,8.86.56,12.27,2.6,3.12,1.86,4.24,6.72,6.54,7.67,9.1,3.72,14.86-4.72,19.82-8.59,3.16-2.47,7.13-2.78,10.95-3.17a12.79,12.79,0,0,0,4.72-.21c5.51-1.28,8.2-5.55,8.3-11.14.13-7.09-6.43-22.66-14.69-24.77a10.9,10.9,0,0,0-1.12-.75c-3.71-4.4-8.21-3.55-9.22-10.68-.93-6.57.52-13.46,6.48-16.91,6.56-3.78,13-.3,19.35,1,7.37,1.49,14.5,1.15,21.59.48l2.36,0c12.1,0,20.46.25,31.79-4.57,7-3,16.66-7.38,23.78-3.89-9.42.93-20.36,7-29.23,9.48-14.74,4.2-27.43,6.83-42.87,3.65,9.43,3.66,17.45,2.26,25.24.63,12.45-2.6,33.86-5.16,45.91-.15,8.47,3.53,11.54,10.4,13.51,18,.11,1.67.21,3.36.31,5.05.21-.34.43-.66.66-1,.58,2.62,1.13,5.25,1.81,7.82-.17,14.47-2.16,28.7-9.33,35.66-1.18.82-2.42,1.61-3.74,2.39C501.9,331,493,333.21,492.87,340.6a19.17,19.17,0,0,0,.82,5.29c-1.12,8.5-4.09,17.83-5.82,25.53-2.2,9.75-4.07,20.5-9.16,29.35-11.37,19.77-38.94,37.81-59.62,43.72-6.38,1.83-10.16,3.34-14.2,4.38-8.18,0-16.35-.25-24.08-2.87-13.59-4.6-25.12-10.9-35.66-20.74-9.14-8.54-16.7-17.59-24.74-27.06-3.65-4.29-8.73-8.89-11.61-13.55-2.4-3.87-4.15-9.28-6.06-13.52-1.78-3.95-3.1-7.26-5.64-9.93a33.35,33.35,0,0,1,9.11,9c-1.6-5.52-7.6-9-11.65-12.75-2.18-2-6.65-9.71-9.76-12-.83-1.38-1.68-2.75-2.51-4.11-.65-3.83-1.36-7.8-2.22-12l-.58-34.57c-.89,13.81-2.2,28.31.62,40.69.33,1.45.74,2.86,1.19,4.26a52.2,52.2,0,0,1-4.41-8.94c-1.56,3.11-2.42,5.07-5.64,1.64-4.23-4.49-2.31-11.82-4-17.2-3.68.5-4.84,5.16-6.47,8.07-5.08-2.57-2.65-13.44-2.93-18.25-1.55,4.47-3.49,8.63-4.13,13.34-4.87-7.39-2.81-17.15-5.08-25-4.89,4.71-8.58,9.89-9.51,17-3.65-4.29-5.72-10-7.79-15.15-.57-1.43-1.29-3-2-4.55,1,3.69,2.33,7.32,3.74,10.91,1.92,4.89,3.28,10.43,6.3,14.89,2.32,3.43,5.24,6.67,6.58,10.6,0-4.83,1.37-9.82,1.14-14.54,1.51,3.5,3.64,10.49,6.62,12.66.4-.64,1.1-1.08,1.48-1.91,3.66,2.38,3.27,9.06,7.36,11.74,1.73-2.57,1.13-5.53,1.93-8,1.87,4.19,2.39,12.84,6.68,15.17.93-1.34,1-3.28,1.22-4.81a60.94,60.94,0,0,1,4.89,7.57c-.06-1.93,0-3.92-.07-6.06.66,2.82,3.46,8.29,6.68,12.35,3.86,24.23,7,43.31,29.13,76.11,9.07,13.47,22.27,25.73,37.14,35.53,0,.37,6.51,3.39,14,6.82a10.83,10.83,0,0,0,1.95,3.84.73.73,0,0,1,.13.67c-.17.8-.32,1.61-.44,2.43a17.22,17.22,0,0,0,.05,4.81c.07.6.15,1.19.23,1.83l-5.11,0a12,12,0,0,0-1.1-1.44,1.81,1.81,0,0,0-1.55-.41,3,3,0,0,0-1.48.83,1.88,1.88,0,0,0-1.72-.76,2.08,2.08,0,0,0-1.66.93,2.32,2.32,0,0,0-1.17-.78,3.29,3.29,0,0,0-1.29.08c-.48.06-.62.57-1,.76a2,2,0,0,0-2.19-.72,2.21,2.21,0,0,0-1.61,1.67l-.44,0c-1.67,0-3.34,0-5,0-.68,0-1.37.07-2.06.11a5.82,5.82,0,0,0-1.48-1.19,5.68,5.68,0,0,0-4.33-.46,5,5,0,0,0-2.62,1.67,5.46,5.46,0,0,0-.73,1.17,5.61,5.61,0,0,0-.34,1.34,5.43,5.43,0,0,0,1.71,5,4.8,4.8,0,0,0,4.2.95,14.74,14.74,0,0,0,1.93-.58.81.81,0,0,1,.4-.07,11,11,0,0,0,2.22.13c2.1,0,4.21,0,6.31,0a.47.47,0,0,1,.51.39.88.88,0,0,0,.24.47,2.34,2.34,0,0,0,1.51.61,2.86,2.86,0,0,0,1.77-.73,2.42,2.42,0,0,0,3.51-.24,1.39,1.39,0,0,0,.21.27,2.06,2.06,0,0,0,2.77,0l.4-.33a9.76,9.76,0,0,0,4.76,5,10.29,10.29,0,0,0,6.84,1.13c-.09.16-.19.27-.17.32a4.91,4.91,0,0,1,.25,2.08l-.12,11.69-.24,24.64c0,.26,0,.52,0,.77a4.84,4.84,0,0,1-.53.16,23.46,23.46,0,0,0-5.43,1.7,29.67,29.67,0,0,0-4.95,2.77c-.33.22-.67.41-1,.66s-.56.55-.84.82c-.51.48-1,1-1.53,1.44a15.11,15.11,0,0,0-1.4,1.48c-.71.93-1.4,1.86-2,2.83a15,15,0,0,0-1.27,2.53c-.06.14-.14.28-.23.46a6.12,6.12,0,0,1-.68-.42c-.46-.35-.9-.72-1.34-1.1s-.59-.53-.87-.82-.54-.59-.78-.9a12,12,0,0,1-.7-1c-.18-.33-.32-.68-.5-1a7,7,0,0,1-.55-1.33c-.19-.67-.31-1.36-.44-2.05a.56.56,0,0,1,.26-.65c1,.27,2,.58,3,.82a5.54,5.54,0,0,0,1.41.14c.42,0,.54-.24.44-.66,0-.12-.07-.23-.1-.35a29,29,0,0,1-.62-2.88c-.17-1.51-.27-3-.32-4.57a26.73,26.73,0,0,1,.52-6.91,2.56,2.56,0,0,1,.49-1.16.43.43,0,0,0,.05-.6,13.9,13.9,0,0,0-3.1,1.38c-1.76,1.07-3.55,2.08-5.27,3.19a52.67,52.67,0,0,0-6.15,4.57c-.74.64-1.49,1.27-2.19,2a5.18,5.18,0,0,0-.77,1.12c-.18.3-.13.48.17.65a1.34,1.34,0,0,0,.6.2c.4,0,.8,0,1.19,0s.82.18,1.24.19.66.3,1,.24a24.25,24.25,0,0,0-.5,3,22.42,22.42,0,0,0,.74,8.19c.19.6.39,1.19.62,1.76-10-9.86-41.84-39.63-57.65-30.15-2.43,1.46-37.4,13.26-55.56,17.61-14.5,3.46-44.47,17-58.57,22.89-19.16,8-49.63,20-68.14,29.81C83.71,599.83,74.37,610.86,62.3,619c-18.81,12.73.66,33-11.91,51.93C33.72,696,805.61,740.38,816.75,721.25,825.77,705.77,821.34,689,816.86,671.8ZM589.46,148.11c.55,1.09,1.12,2.13,1.7,3.08.13,1.35.24,2.71.33,4.09C590.88,152.83,590.19,150.42,589.46,148.11ZM565.14,291.67c1-1.13,2.83-4.71,4.57-5,2.81-.4,4.87,3.85,5.29,5.84,0,.17,0,.32.07.48-1.68,1.6-3.35,3.23-5,5-2.43,2.54-5.36,6.56-8.41,8.25.7-5,6.29-9,6.49-14.08-5.87,2.39-6.26,10.27-9.86,14.59-1.37,1.64-2.57,2.21-3.61,1.58C555.65,301.31,560.68,296.76,565.14,291.67Zm-21.86-84.6a14.92,14.92,0,0,1-3.46-3.29A35.83,35.83,0,0,0,543.28,207.07Zm5.57,15.82a55,55,0,0,0-6.64-14,67.24,67.24,0,0,1,7.11,3.39c.62.37,1.18.77,1.75,1.16,2.45,2.09,4.37,4,4.74,5.57-3.37-1.81-5.6-6.29-8.94-7.21,1.38,3.67,4.94,6.64,6.2,11.14,1.65,5.86,3.62,15.79.65,21.4-3.44-3-3.76-8.31-6.92-12-.27-1.07-.54-2.14-.8-3.22a11.71,11.71,0,0,0,.47,2.81,10.06,10.06,0,0,0-1.8-1.54c2.33,4.32,4.32,13.67,4.81,18.53.36,3.56-.12,9-2.68,7.13a90,90,0,0,0-1.65-11.73c-2.11-10-4-20.7-7.52-30.47A27.91,27.91,0,0,1,548.85,222.89ZM395,265.14a13.12,13.12,0,0,1,.66-4.06C395.39,262.43,395.16,263.79,395,265.14ZM365.57,493.71a5.94,5.94,0,0,1-3.08-1.28.91.91,0,0,1-.41-.89h1.86a9.13,9.13,0,0,0,1.48,0,2.06,2.06,0,0,1,1.44.32c.37.23.75.41.88.9.05.2.25.36.42.58A4.15,4.15,0,0,1,365.57,493.71Zm20.21-12.23a11,11,0,0,0,.29-1.76,119.7,119.7,0,0,0,14.85,3.79l-15.38-.1h-.45A17.22,17.22,0,0,0,385.78,481.48Zm-7-2.62a8,8,0,0,0,.06-1.62.7.7,0,0,1,.26-.61l2.08,1c.31.15.62.28.93.42a4.61,4.61,0,0,1-.12,2.6,5.37,5.37,0,0,1-1.47,2.37c-.38-.26-.74-.48-1.08-.75a1.42,1.42,0,0,1-.56-1A7.52,7.52,0,0,1,378.75,478.86Zm.36,42.75c.21-6,.14-11.91.28-17.86a1.92,1.92,0,0,1,0-.24c.05-.3.26-.41.51-.24.5.34,1,.68,1.46,1.05.81.64,1.62,1.28,2.4,1.95a30.68,30.68,0,0,1,2.59,2.38,18.84,18.84,0,0,1,2,2.36c.54.82,1.09,1.63,1.59,2.47a6.56,6.56,0,0,1,.71,2.54,12.08,12.08,0,0,1-.11,3.84,15,15,0,0,1-1.73,4.79,18,18,0,0,1-3.08,4c-.48.47-1.06.82-1.51,1.29-1.5,1.55-3.46,2.4-5.13,3.68l-.12-.07v-.66C379,529.11,379,525.36,379.11,521.61Zm-24.59,30.32c.34-.49.62-1,.94-1.53a16.9,16.9,0,0,1,3.33-3.68,15.41,15.41,0,0,1,1.65-1.27,8.45,8.45,0,0,1,2.42-1.34,17.63,17.63,0,0,1,3.24-1.5c.65-.29,1.33-.52,2-.79a5.64,5.64,0,0,1-.05,2.17c-.19.76-.38,1.51-.6,2.26a6.81,6.81,0,0,1-1,2.12c-.38.53-.62,1.16-1,1.68a8.65,8.65,0,0,1-2.64,2.4c-.89.5-1.84.89-2.77,1.32a2.91,2.91,0,0,1-.55.23,10.19,10.19,0,0,1-1.1.22,7.11,7.11,0,0,1-1.3.09c-.75,0-1.5-.1-2.25-.17-.4,0-.81-.13-1.32-.21A10.64,10.64,0,0,1,354.52,551.93Zm1.17,17.68c-.51-.76-1.05-1.5-1.52-2.28a14,14,0,0,1-1.32-3.23,6.33,6.33,0,0,1-.11-.9c.82.24,1.57.51,2.33.69a38.82,38.82,0,0,1,5.79,1.8,22.3,22.3,0,0,1,5.76,3.2,21.69,21.69,0,0,1,2.74,2.51,20.61,20.61,0,0,1,1.66,2.33c.59.9,1.07,1.88,1.59,2.82a.57.57,0,0,0,1,.07c.17-.23.29-.49.44-.72a9.47,9.47,0,0,0,.85-1.28,11.7,11.7,0,0,1,1.08-1.73c.1-.15.26-.27.34-.42a13.82,13.82,0,0,1,2.72-2.94,15.65,15.65,0,0,1,1.4-1,14.12,14.12,0,0,1,1.44-.87,21.72,21.72,0,0,1,2.52-1.23,25.37,25.37,0,0,1,4.23-1.43c1.41-.32,2.8-.75,4.2-1.1.85-.21,1.7-.35,2.55-.55,1.29-.3,2.58-.64,3.88-.93a19.66,19.66,0,0,0,6.55-2.64,15.27,15.27,0,0,0,3.52-3.29,12.32,12.32,0,0,0,1.69-2.75,17.55,17.55,0,0,0,1.36-5.12c.13-1.22.13-2.45.18-3.68a12.71,12.71,0,0,0-.35-3.42c-.14-.56,0-.72.54-.81a12.48,12.48,0,0,1,2.66-.24,1.62,1.62,0,0,0,.58-.07.48.48,0,0,0,.32-.75,4.71,4.71,0,0,0-.62-1,18.1,18.1,0,0,0-2.37-2.26A52.39,52.39,0,0,0,409,533c-.33-.22-.64-.47-.95-.72-.15-.12-.26-.3-.42-.41s-.51-.15-.51-.24c0-.4-.32-.12-.46-.23-.55-.42-1.14-.8-1.74-1.17-.89-.54-1.82-1-2.7-1.6a19.45,19.45,0,0,0-3.15-1.46c0,.24,0,.47.08.56a2.93,2.93,0,0,1,.56,1.61,13.13,13.13,0,0,1,.36,2.93c0,1.91-.09,3.83-.17,5.74,0,.66-.13,1.32-.2,2a17.27,17.27,0,0,1-1,4c.2.24.38.53.71.48.75-.12,1.49-.25,2.22-.43s1.52-.43,2.37-.67c-.06.47-.09.85-.17,1.22a8,8,0,0,1-.33,1.16,12.58,12.58,0,0,1-2.09,3.69,19.59,19.59,0,0,1-1.4,1.48c-.18.18-.47.25-.62.45a4,4,0,0,1-1.11.92,19.41,19.41,0,0,1-2.16,1.15,10,10,0,0,1-4.54,1l-.23,0c-.33,0-.67.08-1,.08-.53,0-1.06-.11-1.6-.09a3.9,3.9,0,0,1-1.62-.31l-.77-.31a11.77,11.77,0,0,1-3.83-2.37,11.06,11.06,0,0,1-1.06-1.21,14.32,14.32,0,0,1-1.26-2.09,10.66,10.66,0,0,1-1.3-4.41,47.05,47.05,0,0,1,.14-4.89c0-.34.15-.67.55-.68a1.94,1.94,0,0,0,1-.41c.5-.3,1-.58,1.49-.89a11.81,11.81,0,0,0,1.49-1c.42-.36.91-.6,1.33-1s1.1-.9,1.66-1.33a30.17,30.17,0,0,0,2.56-2.22,13.25,13.25,0,0,0,1.06-1.06c.48-.57.94-1.18,1.39-1.79a21.25,21.25,0,0,0,2.8-5.31,18,18,0,0,0,1.05-4.34,11.86,11.86,0,0,0-.33-4.71q-.15-.5-.27-1a15.66,15.66,0,0,0-1.36-3.28,12.52,12.52,0,0,0-1-1.54c-.39-.46-.6-1.06-1.17-1.38-.17-.09-.22-.37-.38-.52-.68-.66-1.37-1.32-2.08-2s-1.63-1.5-2.48-2.22-1.49-1.19-2.23-1.79a13.87,13.87,0,0,0-1.19-1c-.44-.27-.75-.69-1.18-1a19.18,19.18,0,0,1-2-1.61.83.83,0,0,1-.38-.88c.15-.66.19-1.36.36-2a3.25,3.25,0,0,1,2.2-2.34.58.58,0,0,1,.23,0c.43,0,.86.08,1.29.09,7.61,0,15.21.1,22.81.12,1.17,2.82,2.31,6,4,9.79,4,8.7,10.6,25.79,11.18,37.54,1.17,23.55-5.19,33.94-30.3,38.9-13,2.56-25.12-1.59-35.32-8.27Zm151.17-28.09c-9.09,12.51-33.14,24.77-46.32,32.75-14.8,9-39.43,17.57-71.08,13.57A42.89,42.89,0,0,1,368,579.28c12.79,5.29,30.2,5.4,40.22,5.56,19.21.33,41.77-12.69,57.83-21.87,6.91-4,15.55-8,21.23-13.47,20.37-13.57,33.69-35.8,40.11-44.22C527.66,514.5,512.07,534.36,506.86,541.52Z"/><path class="cls-2" d="M441.4,577.55c11.2.05,11.36-3.94,21.74-7.48,8-2.72,3.39,8.39,36.74-8.45,5.29-2.67,10.16-7.24,15.37-10.71,7-4.65,13.24-10.6,20.37-15.1,30-18.89,75.86-16.85,109.7,7.18-8.4-5.34-30.15-11-45.2-13.3a82.18,82.18,0,0,0-32.06,1.58c-17.52,4.65-29.56,22.1-43.69,32.63C504,579.12,464.94,594.23,441.4,577.55Z"/></svg>