<?xml version="1.0" encoding="utf-8"?>
<!-- Generator: Adobe Illustrator 23.0.1, SVG Export Plug-In . SVG Version: 6.00 Build 0)  -->
<svg version="1.1" id="Calque_1" xmlns="http://www.w3.org/2000/svg" xmlns:xlink="http://www.w3.org/1999/xlink" x="0px" y="0px"
	 viewBox="0 0 253 121" style="enable-background:new 0 0 253 121;" xml:space="preserve" width="220">
<style type="text/css">
	.st0{fill:none;stroke:#333333;stroke-width:1.5;stroke-miterlimit:10;}
	.st1{fill:#333333;}
	.st2{fill:none;stroke:#FFFFFF;stroke-width:18;stroke-miterlimit:10;}
	.st3{fill:none;stroke:#333333;stroke-width:1.5;stroke-linecap:round;stroke-miterlimit:10;}
	.st4{fill:none;stroke:#FFFFFF;stroke-width:10;stroke-miterlimit:10;}
	.st5{fill:none;stroke:#333333;stroke-miterlimit:10;}
	.st6{fill-rule:evenodd;clip-rule:evenodd;}
	.st7{fill:none;stroke:#333333;stroke-linecap:round;stroke-linejoin:round;stroke-miterlimit:1;}
</style>
<g>
	<line class="st0" x1="98.55" y1="59.8" x2="98.55" y2="70.16"/>
	<g>
		<path class="st1" d="M118.99,105.73c0.27-11.44,0.64-22.88,1.06-34.31l0.66,0.75l-43.34-3.23l0.87-0.73l-1.71,18.81l-0.86,9.4
			l-0.43,4.7c-0.14,1.57-0.3,3.13-0.63,4.68l-1.08-0.1c-0.05-1.58,0.07-3.15,0.21-4.72l0.41-4.7l0.82-9.41l1.64-18.81l0.07-0.8
			l0.8,0.06l43.33,3.41l0.7,0.05l-0.03,0.69c-0.52,11.43-1.08,22.86-1.75,34.28L118.99,105.73z"/>
	</g>
	<polyline class="st2" points="62.77,92.46 53.23,109.69 19.13,84.8 	"/>
	<polyline class="st0" points="76.93,67.8 54.51,116.58 20.21,88.58 	"/>
	<g id="mains-2">
		
			<animateTransform  accumulate="none" additive="replace" attributeName="transform" begin="1s" calcMode="spline" dur="18s" fill="freeze" keySplines=".63,0,.33,.99;     .63,0,.33,.99;     .63,0,.33,.99;     .63,0,.33,.99;     .63,0,.33,.99;     .63,0,.33,.99;     .63,0,.33,.99;     .63,0,.33,.99     " keyTimes="0; 0.225; 0.245; 0.455; 0.475; 0.675; 0.695; 0.965; 1" repeatCount="indefinite" restart="always" type="rotate" values="      0 20 88;     0 20 88;     -25 20 88;     -25 20 88;     0 20 88;     0 20 88;     -25 20 88;     -25 20 88;     0 20 88">
			</animateTransform>
		<path class="st3" d="M20.21,88.58c2.19-5.16,2.63-5.24,0.94-12.87"/>
		<path class="st3" d="M19.13,87.72C12.28,81.45,7.85,69.03,8.01,68.09"/>
		<path class="st3" d="M20.21,88.58C12.7,85.45,7.17,80.04,6.23,74.25"/>
	</g>
	<line class="st4" x1="167.39" y1="105.79" x2="230" y2="105.79"/>
	<g id="mains">
		
			<animateTransform  accumulate="none" additive="replace" attributeName="transform" begin="1s" calcMode="spline" dur="15s" fill="freeze" id="anime-tete-1" keySplines=".63,0,.33,.99;     .63,0,.33,.99;      .63,0,.33,.99;     .63,0,.33,.99;     .63,0,.33,.99;     .63,0,.33,.99     " keyTimes="0; 0.025; 0.255; 0.275; 0.475; 0.495; 1" repeatCount="indefinite" restart="always" type="rotate" values="0 189 103; -8 189 103; -8 189 103; 0 189 103; 0 189 103; -5 189 103; 0 189 103">
			</animateTransform>
		<g>
			<path class="st3" d="M188.77,103.8c2.74,1.1,10.56-1.19,15.98,6.08"/>
			<path class="st3" d="M189.29,104.16c10.39-1.98,17.34,0.6,20.47,4.49"/>
			<path class="st3" d="M188.77,103.8c0,0-4.17,3.25,0,4.85"/>
		</g>
	</g>
	<path class="st0" d="M120.77,71.45l27.24,26.31l40.77,6.04"/>
</g>
<g id="tete">
	
		<animateTransform  accumulate="none" additive="replace" attributeName="transform" begin="1s" calcMode="spline" dur="20s" fill="freeze" id="anime-tete-1" keySplines=".63,0,.33,.99;     .63,0,.33,.99;     .63,0,.33,.99;     .63,0,.33,.99;     .63,0,.33,.99;     .63,0,.33,.99     " keyTimes="0; 0.025; 0.255; 0.275; 0.475; 0.495; 1" repeatCount="indefinite" restart="always" type="rotate" values="0 98 60; -5 98 60; -5 98 60; 0 98 60; 0 98 60; -5 98 60; 0 98 60">
		</animateTransform>
	<g id="contour-tete">
		<path class="st0" d="M75.27,27.76c-2.01,16.71,5.36,30.93,20.08,32.5c14.72,1.58,26.33-9.42,28.34-26.13s-4.82-29.68-19.16-32.7
			C90.08-1.62,77.29,11.05,75.27,27.76z"/>
	</g>
	<g id="sourcils">
		<path id="sourcils-2" class="st5" d="M111.55,24.57c-0.84-2.9-2.9-4.84-5.73-5.69		">
<animate  accumulate="none" additive="replace" attributeName="d" begin="0.02s" calcMode="spline" dur="6s" fill="freeze" id="anime-yeux-1-1" keySplines=".63,0,.33,.99;     .63,0,.33,.99;     .63,0,.33,.99;     .63,0,.33,.99     " keyTimes="0; 0.025; 0.4; 0.45; 1" repeatCount="indefinite" restart="always" values="M111.55,24.57c-0.84-2.9-2.9-4.84-5.73-5.69;     M110.41,26.25c-0.84-2.9-2.9-4.84-5.73-5.69;     M110.41,26.25c-0.84-2.9-2.9-4.84-5.73-5.69;     M111.55,24.57c-0.84-2.9-2.9-4.84-5.73-5.69;     M111.55,24.57c-0.84-2.9-2.9-4.84-5.73-5.69">
				</animate>
		</path>
		<path id="sourcils-1" class="st5" d="M86.57,11.48c2.29-0.48,5.23-0.15,6.53,1.49		">
<animate  accumulate="none" additive="replace" attributeName="d" begin="0s" calcMode="spline" dur="6s" fill="freeze" id="anime-yeux-1-1" keySplines=".63,0,.33,.99;     .63,0,.33,.99;     .63,0,.33,.99;     .63,0,.33,.99     " keyTimes="0; 0.025; 0.4; 0.45; 1" repeatCount="indefinite" restart="always" values="M86.57,11.48c2.29-0.48,5.23-0.15,6.53,1.49;     M84.42,15.22c2.1-1.04,5.02-1.45,6.69-0.19;     M84.42,15.22c2.1-1.04,5.02-1.45,6.69-0.19;     M86.57,11.48c2.29-0.48,5.23-0.15,6.53,1.49;     M86.57,11.48c2.29-0.48,5.23-0.15,6.53,1.49">
				</animate>
		</path>
	</g>
	<g id="yeux">
		<path id="yeux-1" class="st6" d="M102.93,28.61c-0.39,1.22-0.37,2.31,0.04,2.44c0.41,0.13,1.05-0.76,1.43-1.98
			c0.14-0.45,0.23-0.89,0.26-1.26c0.06-0.63-0.05-1.1-0.3-1.18C103.96,26.51,103.31,27.39,102.93,28.61z		">
<animate  accumulate="none" additive="replace" attributeName="d" begin="0s" calcMode="linear" dur="5s" fill="remove" id="anime-yeux-1-1" keyTimes="0; 0.01; 0.05; 1" repeatCount="indefinite" restart="always" values="M102.93,28.61c-0.39,1.22-0.37,2.31,0.04,2.44c0.41,0.13,1.05-0.76,1.43-1.98c0.14-0.45,0.23-0.89,0.26-1.26    c0.06-0.63-0.05-1.1-0.3-1.18C103.96,26.51,103.31,27.39,102.93,28.61z;     M102.93,28.61c-0.09,0.36,0.15,0.4,0.56,0.53c0.41,0.13,0.73,0.38,0.91-0.07c0.06-0.15,0.08-0.14,0.11-0.28    c0.04-0.19-0.4-0.33-0.66-0.41C103.45,28.26,103.05,28.11,102.93,28.61z;    M102.93,28.61c-0.39,1.22-0.37,2.31,0.04,2.44c0.41,0.13,1.05-0.76,1.43-1.98c0.14-0.45,0.23-0.89,0.26-1.26    c0.06-0.63-0.05-1.1-0.3-1.18C103.96,26.51,103.31,27.39,102.93,28.61z;    M102.93,28.61c-0.39,1.22-0.37,2.31,0.04,2.44c0.41,0.13,1.05-0.76,1.43-1.98c0.14-0.45,0.23-0.89,0.26-1.26    c0.06-0.63-0.05-1.1-0.3-1.18C103.96,26.51,103.31,27.39,102.93,28.61z">
				</animate>
		</path>
		<path id="yeux-2" class="st6" d="M85.88,23.21c-0.32,1.36-0.21,2.54,0.24,2.65s1.08-0.91,1.4-2.26c0.08-0.34,0.13-0.67,0.16-0.97
			c0.08-0.91-0.06-1.6-0.4-1.68C86.83,20.84,86.2,21.85,85.88,23.21z		">
<animate  accumulate="none" additive="replace" attributeName="d" begin="0s" calcMode="linear" dur="5s" fill="remove" id="anime-yeux-1-1" keyTimes="0; 0.01; 0.05; 1" repeatCount="indefinite" restart="always" values="M85.88,23.21c-0.32,1.36-0.21,2.54,0.24,2.65s1.08-0.91,1.4-2.26c0.08-0.34,0.13-0.67,0.16-0.97    c0.08-0.91-0.06-1.6-0.4-1.68C86.83,20.84,86.2,21.85,85.88,23.21z;     M85.88,23.21c-0.05,0.5,0.2,0.61,0.65,0.71c0.45,0.11,0.85,0.14,0.99-0.33c0,0,0.03-0.09,0.05-0.19    c0.04-0.17-0.4-0.29-0.74-0.37C86.38,22.92,85.92,22.8,85.88,23.21z;    M85.88,23.21c-0.32,1.36-0.21,2.54,0.24,2.65s1.08-0.91,1.4-2.26c0.08-0.34,0.13-0.67,0.16-0.97    c0.08-0.91-0.06-1.6-0.4-1.68C86.83,20.84,86.2,21.85,85.88,23.21z;    M85.88,23.21c-0.32,1.36-0.21,2.54,0.24,2.65s1.08-0.91,1.4-2.26c0.08-0.34,0.13-0.67,0.16-0.97    c0.08-0.91-0.06-1.6-0.4-1.68C86.83,20.84,86.2,21.85,85.88,23.21z">
				</animate>
		</path>
	</g>
	<g id="bouche">
		<path id="bouche-1" class="st7" d="M100.22,48.66c0,0-10.4-1.11-14.22-4.68c0,0,1.69,5.86,4.7,7.23
			C93.38,52.44,98.82,50.93,100.22,48.66z		">
<animate  accumulate="none" additive="replace" attributeName="d" begin="0s" calcMode="spline" dur="8s" fill="freeze" id="anime-yeux-1-1" keySplines=".63,0,.33,.99;     .63,0,.33,.99;     .63,0,.33,.99;     .63,0,.33,.99     " keyTimes="0; 0.04; 0.54; 0.6; 1" repeatCount="indefinite" restart="always" values="M100.22,48.66c0,0-10.4-1.11-14.22-4.68c0,0,0.82,2.58,3.83,3.95C92.52,49.16,99.49,49.36,100.22,48.66z;     M100.22,48.66c0,0-10.4-1.11-14.22-4.68c0,0,1.69,5.86,4.7,7.23C93.38,52.44,98.82,50.93,100.22,48.66z;     M100.22,48.66c0,0-10.4-1.11-14.22-4.68c0,0,1.69,5.86,4.7,7.23C93.38,52.44,98.82,50.93,100.22,48.66z;     M100.22,48.66c0,0-10.4-1.11-14.22-4.68c0,0,1.24,3.16,4.24,4.53C92.93,49.74,99.49,49.36,100.22,48.66z;     M100.22,48.66c0,0-10.4-1.11-14.22-4.68c0,0,1.24,3.16,4.24,4.53C92.93,49.74,99.49,49.36,100.22,48.66z     ">
				</animate>
		</path>
	</g>
</g>
</svg>
