<?xml version="1.0" encoding="utf-8"?>
<!-- Generator: Adobe Illustrator 23.0.1, SVG Export Plug-In . SVG Version: 6.00 Build 0)  -->
<svg version="1.1" id="Calque_1" xmlns="http://www.w3.org/2000/svg" xmlns:xlink="http://www.w3.org/1999/xlink" x="0px" y="0px"
	 viewBox="0 0 1452 147.3" style="enable-background:new 0 0 1452 147.3;" xml:space="preserve">
<style type="text/css">
	.st0{fill:#2E404F;}
	.st1{opacity:0.5;}
	.st2{fill:none;stroke:#2E404F;stroke-miterlimit:10;}
	.st3{fill:#FC0D1A;}
	.st4{fill:#FFFFFF;}
</style>
<g id="fond">
</g>
<g>
	<title>Fichier 2</title>
	<g>
		<g id="Calque_1-2">
			<path class="st0" d="M764,15.7h7c0.8,0,1.7,0.1,2.5,0.3c0.8,0.2,1.5,0.6,2.2,1s1.3,0.9,1.8,1.5c0.6,0.6,1,1.2,1.4,1.9
				c0.4,0.7,0.7,1.5,0.9,2.3s0.3,1.7,0.3,2.5c0,0.9-0.1,1.7-0.3,2.5s-0.5,1.6-0.9,2.3c-0.8,1.4-1.9,2.6-3.2,3.4
				c-1.4,0.8-3,1.2-4.7,1.2h-7v-2.1h1.8V17.9H764V15.7z M768.2,17.8v14.6h3c0.9,0,1.7-0.2,2.5-0.6s1.4-0.9,2-1.6s1-1.5,1.3-2.3
				c0.3-0.9,0.5-1.9,0.5-2.9s-0.2-1.9-0.5-2.9c-0.3-0.8-0.8-1.6-1.4-2.3c-0.6-0.6-1.2-1.2-2-1.6s-1.6-0.6-2.5-0.6L768.2,17.8z"/>
			<path class="st0" d="M784.1,28.5c0,0.3,0,0.7,0.1,1s0.1,0.6,0.2,0.9c0.3,0.8,0.8,1.4,1.5,1.9c0.7,0.4,1.5,0.6,2.3,0.6
				c0.7,0,1.4-0.1,2-0.3c0.7-0.2,1.4-0.5,2-0.9l0.9,1.6c-0.8,0.5-1.7,1-2.6,1.3c-0.9,0.3-1.8,0.4-2.7,0.4c-0.8,0-1.7-0.1-2.4-0.4
				c-0.7-0.3-1.4-0.7-1.9-1.3c-0.6-0.6-1-1.4-1.3-2.1c-0.3-1-0.5-2-0.5-3c0-0.9,0.1-1.8,0.4-2.6c0.2-0.8,0.6-1.5,1.2-2.1
				c0.5-0.6,1.2-1.1,1.9-1.4c0.8-0.4,1.7-0.6,2.7-0.5c0.8,0,1.7,0.1,2.4,0.4c0.6,0.3,1.2,0.7,1.6,1.2c0.4,0.5,0.7,1.1,0.9,1.7
				s0.4,1.3,0.4,1.9c0,0.3,0.1,0.6,0.1,1s0,0.6,0,0.9L784.1,28.5z M787.8,23.3c-0.5,0-1,0.1-1.4,0.2c-0.4,0.2-0.7,0.4-1,0.7
				s-0.5,0.7-0.7,1.1c-0.2,0.5-0.3,0.9-0.4,1.4h6.7c0-0.5-0.1-0.9-0.2-1.3c-0.1-0.4-0.3-0.7-0.5-1.1c-0.3-0.3-0.6-0.6-1-0.7
				C788.8,23.4,788.3,23.3,787.8,23.3z"/>
			<path class="st0" d="M803.2,24.3c-0.2-0.2-0.4-0.5-0.6-0.6c-0.3-0.2-0.6-0.3-0.9-0.3c-0.3-0.1-0.6-0.1-0.9-0.1
				c-0.3,0-0.6,0-0.9,0.1c-0.3,0.1-0.5,0.2-0.7,0.3s-0.4,0.3-0.5,0.5s-0.2,0.4-0.2,0.7c0,0.4,0.1,0.7,0.4,1c0.4,0.3,0.8,0.6,1.3,0.7
				l2.5,0.9c0.9,0.2,1.7,0.8,2.3,1.5c0.5,0.6,0.8,1.4,0.7,2.2c0,0.5-0.1,1.1-0.3,1.6s-0.6,0.9-1,1.2c-0.5,0.4-1,0.6-1.5,0.8
				c-0.6,0.2-1.3,0.3-2,0.3c-0.8,0-1.7-0.1-2.5-0.5c-0.6-0.3-1.1-0.7-1.5-1.3h-1.3v-2.1h2.6c0,0.3,0.1,0.6,0.2,0.9
				c0.1,0.3,0.4,0.5,0.6,0.6c0.3,0.2,0.6,0.3,0.9,0.4c0.3,0.1,0.7,0.1,1,0.1s0.6,0,0.9-0.1c0.3-0.1,0.6-0.2,0.8-0.4
				c0.2-0.1,0.4-0.3,0.5-0.6c0.1-0.2,0.2-0.5,0.2-0.7c0-0.4-0.1-0.8-0.4-1.1c-0.4-0.4-0.9-0.6-1.4-0.8l-2.5-0.9
				c-0.9-0.3-1.6-0.7-2.2-1.4c-0.5-0.6-0.8-1.3-0.7-2.1c0-0.5,0.1-1,0.3-1.5s0.5-0.9,0.9-1.2c0.4-0.4,0.9-0.6,1.4-0.8
				c0.6-0.2,1.3-0.3,1.9-0.3c0.8,0,1.6,0.1,2.3,0.4s1.3,0.7,1.7,1.3h1.3v2.1h-2.6C803.4,24.8,803.3,24.5,803.2,24.3z"/>
			<path class="st0" d="M807.9,21.7h4.2v10.8h2v2.1H808v-2.1h1.8v-8.6H808L807.9,21.7z M809.4,17.1c0-0.2,0-0.4,0.1-0.6
				s0.2-0.4,0.3-0.5c0.1-0.2,0.3-0.3,0.5-0.3c0.4-0.2,0.9-0.2,1.3,0c0.2,0.1,0.4,0.2,0.5,0.3s0.3,0.3,0.3,0.5
				c0.1,0.2,0.1,0.4,0.1,0.6s0,0.4-0.1,0.6s-0.2,0.4-0.3,0.5s-0.3,0.3-0.5,0.4c-0.4,0.2-0.9,0.2-1.3,0c-0.2-0.1-0.4-0.2-0.5-0.4
				c-0.1-0.2-0.3-0.3-0.3-0.5C809.4,17.5,809.4,17.3,809.4,17.1z"/>
			<path class="st0" d="M825.1,33.5c-0.4,0.4-0.9,0.8-1.5,1.1s-1.3,0.4-1.9,0.4c-0.8,0-1.7-0.1-2.4-0.5c-0.8-0.3-1.4-0.7-2-1.3
				s-1-1.4-1.3-2.2c-0.3-0.9-0.5-1.9-0.5-2.9c0-0.9,0.1-1.9,0.5-2.7c0.3-0.8,0.7-1.5,1.3-2.1s1.2-1,2-1.4c0.8-0.3,1.7-0.5,2.6-0.5
				c0.6,0,1.2,0.1,1.8,0.2c0.5,0.2,1.1,0.4,1.5,0.8v-0.7h2.3v12.4c0.1,1.7-0.4,3.3-1.5,4.6c-1.2,1.1-2.9,1.7-4.5,1.6
				c-0.5,0-0.9,0-1.4-0.1s-1-0.2-1.5-0.3s-0.9-0.3-1.4-0.6c-0.5-0.2-0.9-0.5-1.3-0.8l1.2-1.9c0.3,0.2,0.6,0.4,0.9,0.6
				c0.3,0.2,0.7,0.3,1,0.5c0.4,0.1,0.8,0.2,1.1,0.3c0.4,0.1,0.8,0.1,1.2,0.1c0.6,0,1.1-0.1,1.7-0.2c0.4-0.1,0.9-0.4,1.2-0.7
				c0.3-0.4,0.6-0.9,0.7-1.4C825.1,35.1,825.1,34.3,825.1,33.5L825.1,33.5z M822,32.9c0.3,0,0.7,0,1-0.1c0.6-0.1,1.1-0.4,1.5-0.7
				c0.2-0.2,0.3-0.3,0.5-0.5v-7.1c-0.4-0.4-0.9-0.7-1.5-0.8c-0.6-0.2-1.1-0.2-1.7-0.2c-0.5,0-1.1,0.1-1.5,0.3
				c-0.5,0.2-0.9,0.5-1.3,0.9c-0.4,0.4-0.7,0.9-0.9,1.4c-0.2,0.6-0.3,1.3-0.3,2s0.1,1.4,0.3,2.1c0.2,0.6,0.5,1.1,0.8,1.5
				c0.3,0.4,0.8,0.7,1.3,0.9C820.8,32.8,821.4,32.9,822,32.9L822,32.9z"/>
			<path class="st0" d="M838.7,32.5h1.8v-5.9c0.1-0.8-0.2-1.6-0.8-2.3c-0.6-0.5-1.4-0.8-2.2-0.8c-0.6,0-1.1,0.1-1.6,0.4
				c-0.6,0.3-1.1,0.6-1.6,1v7.6h1.8v2.1h-6v-2.1h1.8v-8.6h-1.8v-2.1h4.1v1.5l0,0c0.3-0.2,0.6-0.5,0.9-0.7c0.3-0.2,0.7-0.4,1-0.6
				s0.7-0.3,1.1-0.4c0.4-0.1,0.8-0.1,1.2-0.1c0.6,0,1.3,0.1,1.9,0.3c0.5,0.2,1,0.5,1.4,0.9s0.7,0.9,0.9,1.5c0.2,0.7,0.3,1.4,0.3,2.2
				v6.2h1.8v2.1h-6L838.7,32.5z"/>
			<path class="st0" d="M846.8,21.7h4.2v10.8h2v2.1h-6.2v-2.1h1.8v-8.6h-1.9L846.8,21.7z M848.2,17.1c0-0.2,0-0.4,0.1-0.6
				s0.2-0.4,0.3-0.5c0.3-0.3,0.7-0.5,1.2-0.5c0.2,0,0.4,0,0.6,0.1c0.2,0.1,0.4,0.2,0.5,0.3c0.1,0.1,0.3,0.3,0.3,0.5
				c0.1,0.2,0.1,0.4,0.1,0.6s0,0.4-0.1,0.6s-0.2,0.4-0.3,0.5s-0.3,0.3-0.5,0.4s-0.4,0.1-0.6,0.1c-0.2,0-0.4,0-0.6-0.1
				c-0.2-0.1-0.4-0.2-0.5-0.4c-0.1-0.2-0.3-0.3-0.3-0.5C848.3,17.5,848.2,17.3,848.2,17.1z"/>
			<path class="st0" d="M863.4,32.5h1.8v-5.9c0.1-0.8-0.2-1.6-0.8-2.3c-0.6-0.5-1.4-0.8-2.2-0.8c-0.6,0-1.1,0.1-1.6,0.4
				c-0.6,0.3-1.1,0.6-1.6,1v7.6h1.8v2.1h-6v-2.1h1.8v-8.6h-1.8v-2.1h4.1v1.5l0,0c0.3-0.2,0.6-0.5,0.9-0.7c0.3-0.2,0.7-0.4,1-0.6
				c0.4-0.1,0.7-0.3,1.1-0.3c0.4-0.1,0.8-0.1,1.2-0.1c0.6,0,1.3,0.1,1.9,0.3c0.5,0.2,1,0.5,1.4,0.9s0.7,0.9,0.9,1.5
				c0.2,0.7,0.3,1.4,0.3,2.2v6.2h1.8v2.1h-6.1L863.4,32.5z"/>
			<path class="st0" d="M880.6,33.5c-0.4,0.4-0.9,0.8-1.5,1.1s-1.3,0.4-1.9,0.4c-0.8,0-1.7-0.1-2.4-0.5c-0.8-0.3-1.4-0.7-2-1.3
				s-1-1.4-1.3-2.2c-0.3-0.9-0.5-1.9-0.5-2.9c0-0.9,0.1-1.9,0.5-2.7c0.3-0.8,0.7-1.5,1.3-2.1s1.2-1,2-1.4c0.8-0.3,1.7-0.5,2.6-0.5
				c0.6,0,1.2,0.1,1.8,0.2c0.5,0.2,1.1,0.4,1.5,0.8v-0.7h2.3v12.4c0.1,1.7-0.4,3.3-1.5,4.6c-1.2,1.1-2.9,1.7-4.5,1.6
				c-0.5,0-0.9,0-1.4-0.1s-1-0.2-1.5-0.3s-0.9-0.3-1.4-0.6c-0.5-0.2-0.9-0.5-1.3-0.8l1.2-1.9c0.3,0.2,0.6,0.4,0.9,0.6
				c0.3,0.2,0.7,0.3,1,0.5c0.4,0.1,0.8,0.2,1.1,0.3c0.4,0.1,0.8,0.1,1.2,0.1c0.6,0,1.1-0.1,1.7-0.2c0.4-0.1,0.8-0.4,1.2-0.7
				c0.3-0.4,0.6-0.9,0.7-1.4C880.6,35.1,880.6,34.3,880.6,33.5L880.6,33.5z M877.5,32.9c0.3,0,0.7,0,1-0.1s0.6-0.2,0.9-0.3
				c0.2-0.1,0.5-0.3,0.7-0.4c0.2-0.1,0.4-0.3,0.5-0.5v-7.1c-0.4-0.4-0.9-0.7-1.5-0.8c-0.6-0.2-1.1-0.2-1.7-0.2
				c-0.5,0-1.1,0.1-1.5,0.3c-0.5,0.2-0.9,0.5-1.3,0.9c-0.4,0.4-0.7,0.9-0.9,1.4c-0.2,0.6-0.3,1.3-0.3,2s0.1,1.4,0.3,2.1
				c0.2,0.6,0.5,1.1,0.8,1.5c0.3,0.4,0.8,0.7,1.3,0.9C876.3,32.8,876.9,32.9,877.5,32.9L877.5,32.9z"/>
			<path class="st0" d="M777.5,69.3l-2.8-2.7c-0.3,0.4-0.7,0.8-1.1,1.1c-0.4,0.3-0.8,0.6-1.2,0.9s-0.9,0.4-1.4,0.6
				c-0.5,0.1-1,0.2-1.6,0.2c-0.7,0-1.5-0.1-2.2-0.4c-0.6-0.3-1.2-0.6-1.8-1.1c-0.5-0.5-0.9-1-1.2-1.6s-0.4-1.4-0.4-2.1
				c0-0.5,0.1-1,0.2-1.4c0.1-0.5,0.3-0.9,0.6-1.3c0.3-0.4,0.6-0.7,0.9-1.1c0.5-0.4,1-0.7,1.6-1l-0.8-0.8c-0.2-0.2-0.4-0.4-0.6-0.6
				c-0.2-0.3-0.4-0.5-0.5-0.8c-0.2-0.3-0.3-0.6-0.4-0.9c-0.1-0.3-0.1-0.6-0.1-0.9c0-0.6,0.1-1.2,0.4-1.8c0.2-0.5,0.6-1,1-1.4
				c0.9-0.8,2.1-1.3,3.3-1.3c0.7,0,1.3,0.1,1.9,0.4c0.6,0.2,1.1,0.6,1.5,1s0.8,0.9,1,1.4s0.4,1.1,0.4,1.7c0,0.4,0,0.8-0.1,1.2
				s-0.2,0.7-0.4,1s-0.4,0.5-0.6,0.8c-0.2,0.2-0.5,0.5-0.8,0.6c-0.3,0.2-0.5,0.4-0.8,0.5c-0.3,0.2-0.6,0.3-0.9,0.5l3.6,3.4
				c0.2-0.6,0.4-1.1,0.6-1.7c0.2-0.6,0.3-1.1,0.4-1.5h2.2c-0.1,0.8-0.3,1.6-0.6,2.3c-0.3,0.8-0.6,1.6-1.1,2.4l3.3,3L777.5,69.3z
				 M767.8,61.3c-0.3,0.1-0.5,0.3-0.7,0.4c-0.2,0.2-0.4,0.4-0.6,0.7c-0.3,0.5-0.5,1.1-0.5,1.7c0,0.4,0.1,0.9,0.3,1.3s0.4,0.7,0.7,1
				s0.7,0.5,1.1,0.7c0.4,0.2,0.9,0.3,1.4,0.2c0.4,0,0.8-0.1,1.2-0.2c0.3-0.1,0.7-0.2,1-0.4s0.6-0.4,0.9-0.7c0.3-0.3,0.5-0.5,0.7-0.8
				l-4.5-4.4L767.8,61.3z M771.5,57c0.2-0.2,0.4-0.5,0.5-0.8s0.2-0.6,0.2-0.9c0-0.3-0.1-0.7-0.2-1c-0.1-0.3-0.3-0.6-0.6-0.8
				s-0.5-0.4-0.9-0.6c-0.3-0.1-0.7-0.2-1-0.2c-0.4,0-0.7,0.1-1.1,0.2c-0.3,0.1-0.6,0.3-0.8,0.5s-0.4,0.5-0.5,0.8s-0.2,0.7-0.2,1
				s0.1,0.7,0.2,1c0.2,0.4,0.5,0.8,0.9,1.2l1.1,1c0.5-0.2,0.9-0.4,1.3-0.7C770.8,57.6,771.2,57.3,771.5,57L771.5,57z"/>
			<path class="st0" d="M786,50.7h4v7.2c0.5-0.4,1.1-0.7,1.7-1c0.6-0.2,1.3-0.4,1.9-0.4c0.8,0,1.5,0.2,2.2,0.5s1.3,0.7,1.7,1.3
				c0.5,0.6,0.9,1.3,1.1,2c0.6,1.7,0.6,3.5,0,5.2c-0.3,0.8-0.7,1.5-1.2,2.1s-1.2,1-1.9,1.3c-0.8,0.3-1.6,0.5-2.4,0.5
				c-0.6,0-1.2-0.1-1.7-0.3s-1-0.4-1.4-0.7v0.8h-2.2V52.8H786V50.7z M793,58.5c-0.6,0-1.1,0.1-1.7,0.4c-0.5,0.2-1,0.6-1.4,1v6.6
				c0.3,0.3,0.7,0.5,1.1,0.7c0.6,0.2,1.2,0.3,1.8,0.3c0.5,0,1-0.1,1.5-0.3s0.9-0.5,1.2-0.9c0.4-0.4,0.7-0.9,0.8-1.4
				c0.2-0.6,0.3-1.3,0.3-2c0-0.6-0.1-1.3-0.3-1.9c-0.2-0.5-0.5-1-0.8-1.4s-0.7-0.7-1.2-0.9C794,58.7,793.5,58.6,793,58.5z"/>
			<path class="st0" d="M808.7,56.9h4v10.3h1.3v2h-3.6v-1.1c-0.5,0.4-1.2,0.8-1.8,1c-0.7,0.2-1.4,0.4-2.1,0.4
				c-0.6,0-1.1-0.1-1.7-0.3c-0.5-0.2-0.9-0.4-1.3-0.8c-0.4-0.4-0.6-0.9-0.8-1.4c-0.2-0.7-0.3-1.4-0.3-2.1V59h-1.7v-2h4v7.7
				c-0.1,0.8,0.2,1.5,0.7,2.1c0.5,0.5,1.2,0.8,1.9,0.7c0.5,0,1-0.1,1.5-0.3s1-0.4,1.5-0.7V59h-1.7L808.7,56.9z"/>
			<path class="st0" d="M816.8,56.9h4v10.3h1.9v2h-5.8v-2h1.8V59h-1.8L816.8,56.9z M818.2,52.5c0-0.2,0-0.4,0.1-0.6
				c0.1-0.2,0.2-0.3,0.3-0.5c0.1-0.1,0.3-0.3,0.5-0.3c0.2-0.1,0.4-0.1,0.6-0.1c0.2,0,0.4,0,0.6,0.1c0.2,0.1,0.3,0.2,0.5,0.3
				c0.1,0.1,0.2,0.3,0.3,0.5s0.1,0.4,0.1,0.6c0,0.2,0,0.4-0.1,0.6c-0.1,0.2-0.2,0.4-0.3,0.5s-0.3,0.3-0.5,0.4
				c-0.2,0.1-0.4,0.1-0.6,0.1c-0.2,0-0.4,0-0.6-0.1c-0.2-0.1-0.4-0.2-0.5-0.4C818.3,53.3,818.1,52.9,818.2,52.5z"/>
			<path class="st0" d="M824.8,50.7h4v16.4h1.8v2h-5.8v-2h1.8V52.7h-1.8V50.7z"/>
			<path class="st0" d="M839.8,50.7h3.9v16.4h1.8v2h-4v-1c-0.4,0.4-0.9,0.7-1.4,0.9c-0.6,0.2-1.2,0.4-1.8,0.3
				c-0.8,0-1.6-0.1-2.3-0.4s-1.3-0.7-1.9-1.3c-0.5-0.6-1-1.3-1.2-2.1c-0.3-0.9-0.5-1.8-0.4-2.8c0-0.9,0.1-1.8,0.4-2.6
				c0.3-0.7,0.7-1.4,1.2-2s1.2-1,1.9-1.3c0.8-0.3,1.6-0.5,2.5-0.5c0.5,0,1.1,0.1,1.6,0.2c0.5,0.1,1,0.4,1.4,0.7v-4.7h-1.7V50.7z
				 M838.7,67.6c0.6,0,1.1-0.1,1.7-0.3c0.5-0.2,0.9-0.5,1.2-0.9v-6.9c-0.4-0.3-0.9-0.6-1.4-0.7c-0.5-0.2-1-0.2-1.6-0.2
				c-0.5,0-1,0.1-1.5,0.3s-0.9,0.5-1.2,0.9c-0.4,0.4-0.6,0.9-0.8,1.4c-0.2,0.6-0.3,1.2-0.3,1.9s0.1,1.4,0.3,2c0.2,0.5,0.4,1,0.8,1.4
				c0.3,0.4,0.7,0.7,1.2,0.9C837.6,67.5,838.1,67.6,838.7,67.6z"/>
			<path class="st0" d="M847.8,56.9h4v10.3h1.8v2h-5.8v-2h1.8V59h-1.8V56.9z M849.1,52.5c0-0.2,0-0.4,0.1-0.6
				c0.1-0.2,0.2-0.3,0.3-0.5c0.1-0.1,0.3-0.3,0.5-0.3c0.2-0.1,0.4-0.1,0.6-0.1c0.2,0,0.4,0,0.6,0.1c0.2,0.1,0.3,0.2,0.5,0.3
				c0.1,0.1,0.3,0.3,0.3,0.5c0.1,0.2,0.1,0.4,0.1,0.6c0,0.2,0,0.4-0.1,0.6c-0.1,0.2-0.2,0.4-0.3,0.5s-0.3,0.3-0.5,0.4
				c-0.2,0.1-0.4,0.1-0.6,0.1c-0.2,0-0.4,0-0.6-0.1c-0.4-0.2-0.7-0.5-0.8-0.9C849.2,52.9,849.1,52.7,849.1,52.5z"/>
			<path class="st0" d="M864,67.2h1.7v-5.6c0.1-0.8-0.2-1.6-0.7-2.1c-0.6-0.5-1.3-0.8-2.1-0.7c-0.5,0-1.1,0.1-1.6,0.4
				c-0.5,0.3-1,0.6-1.5,0.9v7.2h1.7v2h-5.8v-2h1.7v-8.2h-1.7v-2h3.9v1.4l0,0c0.3-0.2,0.5-0.5,0.8-0.6c0.3-0.2,0.6-0.4,0.9-0.5
				c0.3-0.2,0.7-0.3,1-0.4c0.4-0.1,0.7-0.1,1.1-0.1c0.6,0,1.2,0.1,1.8,0.3c0.5,0.2,1,0.5,1.4,0.8c0.4,0.4,0.7,0.9,0.9,1.4
				c0.2,0.7,0.3,1.4,0.3,2.1v5.9h1.7v2H864V67.2z"/>
			<path class="st0" d="M880.7,68.1c-0.4,0.4-0.9,0.8-1.4,1c-0.6,0.2-1.2,0.4-1.8,0.4c-0.8,0-1.6-0.1-2.3-0.4s-1.3-0.7-1.9-1.3
				c-0.5-0.6-1-1.3-1.2-2.1c-0.3-0.9-0.5-1.8-0.5-2.8c0-0.9,0.1-1.8,0.4-2.6c0.3-0.7,0.7-1.4,1.2-2s1.2-1,1.9-1.3
				c0.8-0.3,1.6-0.5,2.5-0.5c0.6,0,1.1,0.1,1.7,0.2c0.5,0.2,1,0.4,1.4,0.7v-0.6h2.2v11.8c0.1,1.6-0.4,3.2-1.4,4.4
				c-1.2,1.1-2.7,1.6-4.3,1.5c-0.4,0-0.9,0-1.3-0.1c-0.5-0.1-0.9-0.2-1.4-0.3s-0.9-0.3-1.3-0.5c-0.4-0.2-0.8-0.5-1.2-0.8l1.2-1.8
				c0.2,0.2,0.5,0.4,0.8,0.6s0.7,0.3,1,0.4c0.4,0.1,0.7,0.2,1.1,0.3c0.4,0.1,0.7,0.1,1.1,0.1c0.5,0,1.1-0.1,1.6-0.2
				c0.4-0.1,0.8-0.3,1.1-0.7s0.5-0.8,0.7-1.3C880.8,69.5,880.8,68.8,880.7,68.1L880.7,68.1z M877.8,67.5c0.6,0,1.2-0.1,1.8-0.4
				c0.2-0.1,0.4-0.2,0.7-0.4c0.2-0.1,0.3-0.3,0.5-0.5v-6.6c-0.4-0.4-0.9-0.6-1.4-0.8s-1.1-0.2-1.6-0.2s-1,0.1-1.5,0.3
				s-0.9,0.5-1.2,0.9c-0.4,0.4-0.6,0.9-0.8,1.4c-0.2,0.6-0.3,1.2-0.3,1.9s0.1,1.4,0.3,2c0.2,0.5,0.4,1,0.8,1.4
				c0.3,0.4,0.7,0.7,1.2,0.9C876.7,67.5,877.3,67.6,877.8,67.5L877.8,67.5z"/>
			<path class="st0" d="M772.4,91.9c-0.3-0.4-0.7-0.8-1.1-1c-0.5-0.2-1-0.3-1.5-0.3c-0.4,0-0.9,0-1.2,0.2c-0.4,0.2-0.7,0.4-1,0.7
				s-0.5,0.6-0.6,1c-0.2,0.4-0.2,0.9-0.2,1.3s0.1,0.8,0.2,1.2c0.1,0.4,0.4,0.7,0.7,1s0.6,0.5,1,0.7s0.8,0.3,1.2,0.3
				c0.3,0,0.7-0.1,1-0.2s0.6-0.3,0.8-0.5s0.4-0.4,0.6-0.6c0.2-0.2,0.3-0.4,0.4-0.7l3.3,0.9c-0.2,0.5-0.4,1-0.7,1.5s-0.8,1-1.3,1.4
				c-0.6,0.4-1.2,0.8-1.9,1c-0.8,0.3-1.6,0.4-2.5,0.4s-1.8-0.2-2.6-0.5s-1.4-0.8-2-1.4s-1-1.3-1.3-2.1s-0.5-1.7-0.5-2.6
				s0.2-1.7,0.5-2.5c0.3-0.7,0.8-1.4,1.4-2c0.6-0.6,1.3-1.1,2.1-1.4s1.7-0.5,2.6-0.4c0.7,0,1.3,0,1.9,0.2c0.6,0.2,1.2,0.5,1.8,0.8
				h2.4v3.6H772.4z"/>
			<path class="st0" d="M776.8,93.7c0-0.9,0.2-1.7,0.5-2.5c0.3-0.7,0.8-1.4,1.4-2c0.6-0.6,1.3-1.1,2.1-1.4c1.7-0.7,3.6-0.7,5.3,0
				c0.8,0.3,1.5,0.8,2.1,1.4c1.2,1.2,1.8,2.9,1.8,4.6c0,0.9-0.2,1.7-0.5,2.5s-0.8,1.5-1.3,2.1c-0.6,0.6-1.3,1.1-2.1,1.4
				c-1.7,0.7-3.6,0.7-5.4,0c-1.6-0.6-2.8-1.9-3.4-3.4C776.9,95.5,776.8,94.6,776.8,93.7z M780.3,93.7c0,0.4,0.1,0.9,0.2,1.3
				c0.2,0.4,0.4,0.7,0.7,1s0.6,0.5,1,0.7s0.8,0.2,1.2,0.2s0.8-0.1,1.2-0.2c0.4-0.2,0.7-0.4,0.9-0.7c0.3-0.3,0.5-0.6,0.6-1
				c0.2-0.4,0.2-0.9,0.2-1.3c0-0.5-0.1-0.9-0.2-1.3c-0.1-0.4-0.4-0.7-0.6-1c-0.3-0.3-0.6-0.5-0.9-0.6c-0.8-0.3-1.6-0.3-2.3,0
				c-0.4,0.1-0.7,0.4-1,0.6c-0.3,0.3-0.5,0.6-0.7,1S780.3,93.3,780.3,93.7L780.3,93.7z"/>
			<path class="st0" d="M791.1,87.6h5.6v1.1c0.5-0.4,1.1-0.8,1.7-1c0.6-0.2,1.3-0.4,2-0.4c0.8,0,1.6,0.1,2.4,0.5
				c0.7,0.3,1.2,0.9,1.6,1.5c0.3-0.3,0.6-0.6,0.9-0.8c0.3-0.2,0.7-0.5,1-0.6c0.4-0.2,0.8-0.3,1.2-0.4s0.8-0.2,1.2-0.1
				c1.3-0.1,2.5,0.4,3.5,1.2c0.9,1,1.3,2.3,1.2,3.6v4.4h1.8v3.2h-5.6v-7c0-0.6-0.2-1.2-0.5-1.6c-0.4-0.4-0.9-0.6-1.5-0.6
				c-0.4,0-0.9,0.1-1.3,0.3c-0.5,0.3-0.9,0.6-1.2,1.1c0,0.1,0,0.2,0,0.3v4.4h1.8v3.2h-5.6v-7.1c0-0.3,0-0.6-0.2-0.9
				c-0.1-0.3-0.2-0.5-0.4-0.7s-0.4-0.3-0.7-0.4s-0.5-0.2-0.8-0.2c-0.4,0-0.8,0.1-1.2,0.3c-0.5,0.2-0.9,0.6-1.2,1v4.8h2v3.2h-7.7
				v-3.2h1.8v-5.8h-1.8V87.6z"/>
			<path class="st0" d="M816.5,87.6h5.6v1.1c0.5-0.4,1.1-0.8,1.7-1c0.6-0.2,1.3-0.4,2-0.4c0.8,0,1.7,0.1,2.4,0.5
				c0.7,0.3,1.2,0.9,1.6,1.5c0.3-0.3,0.6-0.6,0.9-0.8c0.3-0.2,0.7-0.5,1.1-0.6c0.4-0.2,0.8-0.3,1.2-0.4s0.8-0.2,1.3-0.1
				c1.3-0.1,2.5,0.4,3.5,1.2c0.9,1,1.3,2.3,1.2,3.6v4.4h1.7v3.2H835v-7c0-0.6-0.2-1.2-0.5-1.6c-0.4-0.4-0.9-0.6-1.5-0.6
				c-0.4,0-0.9,0.1-1.2,0.3c-0.5,0.3-0.9,0.6-1.2,1.1c0,0.1,0,0.2,0,0.3v4.4h1.8v3.2h-5.6v-7.1c0-0.3-0.1-0.6-0.2-0.9
				c-0.1-0.3-0.2-0.5-0.4-0.7s-0.4-0.3-0.6-0.4c-0.3-0.1-0.5-0.2-0.8-0.2c-0.4,0-0.8,0.1-1.2,0.3c-0.5,0.2-0.9,0.6-1.2,1v4.8h2v3.2
				h-7.7v-3.2h1.8v-5.8h-1.8L816.5,87.6z"/>
			<path class="st0" d="M841.4,93.7c0-0.9,0.2-1.7,0.5-2.5c0.3-0.7,0.8-1.4,1.4-2c0.6-0.6,1.3-1.1,2.1-1.4c1.7-0.7,3.6-0.7,5.3,0
				c0.8,0.3,1.5,0.8,2.1,1.4c1.2,1.2,1.9,2.9,1.8,4.6c0,0.9-0.2,1.7-0.5,2.5s-0.8,1.5-1.3,2.1c-0.6,0.6-1.3,1.1-2.1,1.4
				c-1.7,0.7-3.6,0.7-5.4,0c-1.6-0.6-2.8-1.9-3.4-3.4C841.5,95.5,841.4,94.6,841.4,93.7z M844.9,93.7c0,0.4,0.1,0.9,0.2,1.3
				c0.3,0.8,0.9,1.4,1.6,1.7c0.4,0.2,0.8,0.2,1.2,0.2s0.8-0.1,1.2-0.2c0.4-0.2,0.7-0.4,0.9-0.7c0.3-0.3,0.5-0.6,0.6-1
				c0.2-0.4,0.2-0.9,0.2-1.3c0-0.5-0.1-0.9-0.2-1.3c-0.1-0.4-0.3-0.7-0.6-1s-0.6-0.5-0.9-0.6c-0.8-0.3-1.6-0.3-2.3,0
				c-0.4,0.1-0.7,0.4-1,0.6c-0.3,0.3-0.5,0.6-0.6,1C845,92.8,844.9,93.3,844.9,93.7z"/>
			<path class="st0" d="M865.9,92.8c0-0.6-0.2-1.2-0.5-1.6c-0.4-0.4-0.9-0.6-1.5-0.6c-1,0-1.9,0.5-2.5,1.3v4.7h2v3.2h-7.7v-3.2h1.8
				v-5.8h-1.8v-3.2h5.6v1.1c0.5-0.4,1.1-0.8,1.7-1c0.6-0.2,1.3-0.3,2-0.4c1.3-0.1,2.5,0.4,3.4,1.2c0.9,1,1.3,2.3,1.2,3.6v4.4h1.7
				v3.2h-5.6L865.9,92.8z"/>
			<path class="st0" d="M880.6,90.8c-0.1-0.2-0.3-0.4-0.5-0.5c-0.3-0.1-0.6-0.3-0.9-0.3c-0.4-0.1-0.8-0.1-1.2-0.1
				c-0.2,0-0.4,0-0.5,0c-0.2,0-0.4,0.1-0.5,0.1c-0.2,0.1-0.3,0.2-0.4,0.3c-0.1,0.1-0.2,0.3-0.2,0.5c0,0.1,0,0.2,0,0.3
				s0.1,0.2,0.2,0.2c0.1,0.1,0.2,0.2,0.3,0.2c0.2,0.1,0.4,0.1,0.5,0.2l2.2,0.4c0.7,0.1,1.4,0.3,2,0.6c0.5,0.2,0.9,0.5,1.3,0.8
				c0.3,0.3,0.6,0.7,0.7,1.1c0.2,0.4,0.2,0.8,0.2,1.3c0,0.7-0.2,1.3-0.5,1.9c-0.3,0.5-0.8,1-1.3,1.3c-0.6,0.4-1.2,0.6-1.8,0.8
				c-0.7,0.2-1.3,0.3-2,0.3c-0.4,0-0.8,0-1.2-0.1c-0.3,0-0.7-0.1-1-0.2s-0.5-0.2-0.8-0.3c-0.2-0.1-0.4-0.3-0.6-0.4h-2.2v-3.3h3.4V96
				c0,0.2,0.1,0.4,0.2,0.6c0.1,0.2,0.3,0.3,0.5,0.4s0.5,0.2,0.7,0.3c0.3,0.1,0.6,0.1,0.9,0.1c0.5,0,1.1-0.1,1.6-0.3
				c0.3-0.1,0.5-0.4,0.5-0.7c0-0.2-0.1-0.4-0.2-0.6c-0.2-0.2-0.5-0.3-0.8-0.4l-2.3-0.5c-1.2-0.2-2.3-0.6-3.2-1.4
				c-1.1-1.1-1.4-2.7-0.7-4.1c0.3-0.5,0.7-0.9,1.1-1.2c0.5-0.4,1.1-0.6,1.7-0.8c0.6-0.2,1.3-0.3,2-0.3c0.4,0,0.9,0,1.3,0.1
				c0.3,0.1,0.7,0.1,1,0.2s0.6,0.2,0.8,0.3s0.4,0.3,0.6,0.4h2.1v3.3h-3.1C880.7,91.2,880.7,91,880.6,90.8z"/>
			<path class="st0" d="M770.3,123.4c-0.2-0.2-0.4-0.4-0.6-0.6c-0.3-0.2-0.5-0.3-0.8-0.3c-0.3-0.1-0.6-0.1-0.9-0.1
				c-0.3,0-0.6,0-0.9,0.1c-0.2,0.1-0.5,0.2-0.7,0.3s-0.3,0.3-0.4,0.5c-0.3,0.5-0.2,1.2,0.2,1.6c0.4,0.3,0.8,0.5,1.2,0.7l2.4,0.8
				c0.9,0.2,1.6,0.7,2.2,1.4c0.5,0.6,0.7,1.3,0.7,2.1c0,0.5-0.1,1-0.3,1.5s-0.5,0.8-0.9,1.2c-0.4,0.3-0.9,0.6-1.5,0.8
				s-1.2,0.3-1.9,0.3c-0.8,0-1.6-0.1-2.3-0.5c-0.6-0.3-1.1-0.7-1.4-1.2h-1.2v-2h2.5c0,0.3,0.1,0.6,0.2,0.9c0.1,0.2,0.3,0.4,0.6,0.6
				c0.3,0.2,0.5,0.3,0.8,0.3c0.3,0.1,0.6,0.1,0.9,0.1c0.3,0,0.6,0,0.9-0.1c0.3-0.1,0.5-0.2,0.8-0.3c0.2-0.1,0.4-0.3,0.5-0.5
				s0.2-0.5,0.2-0.7c0-0.4-0.1-0.7-0.4-1c-0.4-0.3-0.8-0.6-1.3-0.7l-2.3-0.9c-0.8-0.3-1.5-0.7-2.1-1.3c-0.5-0.6-0.7-1.3-0.7-2
				c0-0.5,0.1-1,0.3-1.4s0.5-0.8,0.8-1.1c0.4-0.3,0.9-0.6,1.3-0.8c0.6-0.2,1.2-0.3,1.8-0.3c0.8,0,1.5,0.1,2.2,0.4
				c0.6,0.3,1.2,0.7,1.6,1.3h1.2v2.1h-2.4C770.5,123.9,770.4,123.6,770.3,123.4z"/>
			<path class="st0" d="M774.4,120.9h4v10.3h1.8v2h-5.8v-2h1.8V123h-1.8V120.9z M775.8,116.5c0-0.2,0-0.4,0.1-0.6
				c0.2-0.4,0.5-0.7,0.8-0.8c0.2-0.1,0.4-0.1,0.6-0.1c0.2,0,0.4,0,0.6,0.1c0.4,0.2,0.7,0.5,0.8,0.8c0.1,0.2,0.1,0.4,0.1,0.6
				s0,0.4-0.1,0.6s-0.2,0.4-0.3,0.5s-0.3,0.3-0.5,0.3c-0.2,0.1-0.4,0.1-0.6,0.1c-0.4,0-0.8-0.2-1.1-0.5c-0.1-0.1-0.3-0.3-0.3-0.5
				C775.9,117,775.8,116.8,775.8,116.5L775.8,116.5z"/>
			<path class="st0" d="M789.9,131.2h1.7v-5.6c0.1-0.8-0.2-1.6-0.7-2.1c-0.6-0.5-1.3-0.8-2.1-0.7c-0.5,0-1.1,0.1-1.5,0.4
				c-0.5,0.2-1,0.6-1.5,0.9v7.2h1.7v2h-5.8v-2h1.7v-8.2h-1.7v-2h3.9v1.4l0,0c0.3-0.2,0.5-0.4,0.8-0.6s0.6-0.4,0.9-0.5
				c0.3-0.2,0.7-0.3,1-0.4c0.4-0.1,0.7-0.1,1.1-0.1c0.6,0,1.2,0.1,1.8,0.3c0.5,0.2,1,0.5,1.3,0.8c0.4,0.4,0.7,0.9,0.9,1.4
				c0.2,0.7,0.3,1.4,0.3,2.1v5.9h1.7v2h-5.8L789.9,131.2z"/>
			<path class="st0" d="M805.7,124.2c-0.3-0.5-0.7-1-1.3-1.3c-0.5-0.3-1.2-0.4-1.8-0.4c-0.5,0-1,0.1-1.5,0.3s-0.9,0.5-1.2,0.9
				c-0.4,0.4-0.6,0.9-0.8,1.4c-0.2,0.6-0.3,1.2-0.3,1.9c0,0.6,0.1,1.3,0.3,1.9c0.2,0.5,0.4,1,0.8,1.4c0.3,0.4,0.7,0.7,1.2,0.9
				s0.9,0.3,1.4,0.3c0.7,0,1.4-0.2,2-0.6c0.6-0.4,1.1-1,1.3-1.6l1.8,0.9c-0.2,0.5-0.5,1-0.9,1.4c-0.3,0.4-0.7,0.7-1.2,1
				c-0.4,0.3-0.9,0.5-1.5,0.7c-2.1,0.6-4.4,0-5.9-1.6c-0.5-0.6-1-1.3-1.2-2.1c-0.3-0.8-0.4-1.7-0.4-2.6s0.2-1.8,0.5-2.6
				s0.7-1.5,1.3-2.1c0.5-0.6,1.2-1,1.9-1.4c0.7-0.3,1.5-0.5,2.3-0.5s1.5,0.1,2.2,0.4s1.3,0.7,1.8,1.2h1.2v2L805.7,124.2z"/>
			<path class="st0" d="M811.4,127.3c0,0.3,0,0.7,0.1,1s0.1,0.6,0.2,0.8c0.2,0.7,0.7,1.4,1.4,1.8c0.7,0.4,1.4,0.6,2.2,0.6
				c0.6,0,1.3-0.1,1.9-0.3c0.7-0.2,1.3-0.5,1.9-0.8l0.9,1.5c-0.8,0.5-1.6,0.9-2.4,1.2c-0.8,0.3-1.7,0.4-2.5,0.4s-1.6-0.1-2.3-0.4
				c-0.7-0.3-1.3-0.7-1.8-1.2c-0.5-0.6-0.9-1.3-1.2-2c-0.3-0.9-0.4-1.9-0.4-2.9c0-0.8,0.1-1.7,0.4-2.5c0.2-0.7,0.6-1.4,1.1-2
				s1.1-1.1,1.8-1.4c0.8-0.4,1.6-0.6,2.5-0.6c0.8,0,1.6,0.1,2.3,0.4c0.6,0.3,1.1,0.6,1.5,1.1s0.7,1,0.9,1.6s0.3,1.2,0.4,1.8
				c0,0.3,0.1,0.6,0.1,0.9s0,0.6,0,0.9L811.4,127.3z M814.9,122.4c-0.5,0-0.9,0.1-1.3,0.2c-0.4,0.1-0.7,0.3-1,0.6s-0.5,0.6-0.6,1
				c-0.2,0.4-0.3,0.9-0.4,1.3h6.4c0-0.4-0.1-0.9-0.2-1.3c-0.1-0.4-0.3-0.7-0.5-1s-0.6-0.5-0.9-0.7
				C815.8,122.5,815.3,122.4,814.9,122.4L814.9,122.4z"/>
			<path class="st0" d="M828,129.6h2.1v-10.4L827,121v-4.6l5.5-3.2h1.9v16.4h2.1v3.6H828V129.6z"/>
			<path class="st0" d="M840.4,133.2l4-7.1c-0.2,0-0.5,0-0.7,0s-0.4-0.1-0.6-0.1c-0.7-0.1-1.4-0.4-2.1-0.8c-0.6-0.4-1.2-0.8-1.7-1.4
				c-0.5-0.5-0.9-1.2-1.1-1.9c-0.3-0.7-0.4-1.4-0.4-2.2c0-0.9,0.2-1.8,0.5-2.6c0.4-0.8,0.9-1.5,1.5-2.1s1.4-1.1,2.2-1.4
				c0.9-0.3,1.8-0.5,2.7-0.5s1.8,0.2,2.6,0.5s1.5,0.8,2.2,1.4c0.6,0.6,1.1,1.3,1.5,2.1s0.5,1.7,0.5,2.6c0,0.4,0,0.8-0.1,1.2
				s-0.2,0.8-0.4,1.2s-0.3,0.8-0.5,1.1s-0.4,0.7-0.6,1.1l-4.9,8.9L840.4,133.2L840.4,133.2z M844.8,122.4c0.5,0,1-0.1,1.4-0.3
				s0.8-0.4,1-0.8c0.1-0.2,0.2-0.5,0.3-0.8s0.1-0.6,0.1-0.9s-0.1-0.6-0.2-0.9c-0.1-0.3-0.3-0.6-0.5-0.9c-0.3-0.3-0.6-0.5-0.9-0.7
				c-0.4-0.2-0.9-0.3-1.3-0.2c-0.4,0-0.7,0.1-1.1,0.2c-0.4,0.1-0.7,0.3-1,0.5s-0.5,0.5-0.7,0.9s-0.3,0.7-0.3,1.1
				c0,0.8,0.3,1.5,0.9,2c0.3,0.2,0.6,0.4,1,0.6C844,122.4,844.4,122.4,844.8,122.4z"/>
			<path class="st0" d="M861.8,119c0-0.3-0.1-0.5-0.2-0.8c-0.1-0.3-0.3-0.5-0.5-0.7s-0.5-0.4-0.8-0.5s-0.7-0.2-1-0.2
				s-0.6,0.1-0.9,0.2c-0.3,0.1-0.5,0.3-0.8,0.4c-0.2,0.2-0.4,0.4-0.5,0.6c-0.2,0.4-0.2,0.8-0.2,1.2h-4.1c0-1.7,0.6-3.3,1.8-4.5
				c0.6-0.6,1.2-1.1,2-1.4s1.8-0.5,2.7-0.5c1.7,0,3.4,0.6,4.7,1.8c0.6,0.5,1.1,1.2,1.4,1.9c0.7,1.4,0.7,3.1,0,4.6
				c-0.3,0.7-0.8,1.3-1.4,1.7c0.3,0.2,0.6,0.4,0.9,0.7c0.3,0.3,0.5,0.6,0.7,1s0.4,0.8,0.5,1.2c0.1,0.5,0.2,0.9,0.2,1.4
				c0,0.8-0.2,1.7-0.5,2.4c-0.4,0.8-0.8,1.4-1.5,2c-1.3,1.2-3.1,1.9-4.9,1.9c-0.9,0-1.7-0.1-2.6-0.4c-0.8-0.3-1.5-0.7-2.1-1.2
				s-1.1-1.1-1.4-1.8c-0.3-0.5-0.5-1.1-0.7-1.7c-0.1-0.5-0.1-1-0.1-1.4h4.1c0.1,1.5,1.4,2.7,2.9,2.7c0.3,0,0.6-0.1,0.9-0.2
				c0.3-0.1,0.6-0.3,0.9-0.5c0.2-0.2,0.4-0.5,0.6-0.8c0.1-0.3,0.2-0.6,0.2-0.9s-0.1-0.7-0.2-1c-0.1-0.3-0.3-0.6-0.5-0.8
				c-0.3-0.2-0.6-0.4-0.9-0.5c-0.4-0.1-0.8-0.2-1.1-0.2h-1.8v-3.6h1.9c0.3,0,0.7-0.1,1-0.2s0.5-0.2,0.8-0.4c0.2-0.2,0.4-0.4,0.5-0.7
				C861.7,119.6,861.8,119.3,861.8,119z"/>
			<path class="st0" d="M867.3,124.4l7.1-11.1h4.4l-7,11.1h4.2v-3.8l4.1-0.1v3.9h2.8v3.3h-2.8v1.8h2.5v3.6h-8.5v-3.5h1.9v-1.8h-8.7
				V124.4z"/>
			<g class="st1">
				<path class="st2" d="M595-83.7"/>
				<path class="st2" d="M656.1,35.5"/>
			</g>
		</g>
	</g>
	<g id="Calque_3">
		<g>
			<polygon class="st3" points="701.5,129.5 658.7,11.7 551.2,108.4 			"/>
			<g>
				<rect x="649.6" y="70.6" class="st4" width="8.6" height="29.5"/>
				<path class="st4" d="M630.5,88.4l2.6-9.3l2.6,9.3H630.5z M628.4,70.6l-10.6,29.5h9.5l1.6-4.8h8.2l1.6,4.8h9.5l-10.5-29.5H628.4z
					"/>
				<polygon class="st4" points="583,100.1 591.3,100.1 591.3,83.5 597,95.6 602.5,95.6 608.1,83.5 608.1,100.1 616.5,100.1 
					616.5,70.6 606.5,70.6 599.9,85 593.2,70.6 583,70.6 				"/>
				<polygon class="st4" points="661.4,70.6 661.4,100.1 670,100.1 670,88.7 680.8,88.7 681.9,81.7 670,81.7 670,77.6 682.6,77.6 
					683.8,70.6 				"/>
			</g>
		</g>
	</g>
</g>
</svg>
