<svg xmlns="http://www.w3.org/2000/svg" xmlns:xlink="http://www.w3.org/1999/xlink" viewBox="0 0 269 266"><defs><style>.cls-1{fill:none;}.cls-2,.cls-6{fill:#2e3031;}.cls-3{clip-path:url(#clip-path);}.cls-4,.cls-5{fill:#fff;}.cls-5{stroke:#fff;stroke-miterlimit:10;stroke-width:1.36px;}.cls-6{font-size:14px;font-family:Arvo-Bold, Arvo;font-weight:700;}.cls-7{letter-spacing:0.01em;}.cls-8{letter-spacing:0.03em;}</style><clipPath id="clip-path"><rect class="cls-1" width="235" height="235"/></clipPath></defs><title>Fichier 1</title><g id="Calque_2" data-name="Calque 2"><g id="Calque_1-2" data-name="Calque 1"><rect class="cls-2" width="235" height="235"/><g class="cls-3"><path class="cls-4" d="M56.75,223.23c-17.84,0-28.33-3.19-32.08-9.76C22.1,209,22.92,203.08,27.12,196a1.46,1.46,0,0,1,1.26-.73c20.27,0,24.56-10.48,24.6-10.59a1.34,1.34,0,0,1,.12-.24,10.32,10.32,0,0,0,1-2.23c0-2.79-.22-5.72-.41-8.31l-.12-1.67a7.49,7.49,0,0,0-.36-1.84c-.06-.19-.15-.43-.24-.66-1.79-4.33-7.57-6.46-10.35-7.49a35,35,0,0,0-10.25-2.37,5.57,5.57,0,0,0-.89.06,7.3,7.3,0,0,1-1.07.13,1.54,1.54,0,0,1-1.52-1c-.37-1.1.34-1.64,1.63-2.62a109.29,109.29,0,0,0,8.92-7.57,106.85,106.85,0,0,1,18.91-13.58h0l-.58-.11c-1.45-.36-2.15-1.93-1.74-3.9a2.29,2.29,0,0,1,.6-1.12c-.36,0-.68-.09-.92-.14A2.57,2.57,0,0,1,54,128.72a3.82,3.82,0,0,1-.38-2.84,2.86,2.86,0,0,1,1-1.44,1.61,1.61,0,0,0,.49-.63c.08-.17.16-.34.23-.51h0c-.63-.16-1.5-.39-2.56-.72a10.66,10.66,0,0,1-4.29-2,2.91,2.91,0,0,1-.53-.64c-.5,1.33-.42,2.18.45,2.83s1.74,1.3,1.37,2.41a1.51,1.51,0,0,1-1.42,1c-1.22,0-3.17-2.07-3.87-3a6.66,6.66,0,0,1-1.32-6c.51-1.7,1.23-3.47,1.92-5.19.32-.79.64-1.58,1-2.38a25.18,25.18,0,0,1-2.89,1.09c-1.51.5-2.37.81-2.9,1.48a6.61,6.61,0,0,0,2.12.94,1.47,1.47,0,0,1,.28,2.74,5.51,5.51,0,0,1-2.23.5c-1.14,0-3.85-.47-4.39-4.81-.59-4.74,4.28-6.55,7.51-7.74l0,0c-.31-1.28,1-8.33,3.73-12.85H47c-1,0-3,4.22-3.85,8.51a1.46,1.46,0,0,1-1.43,1.17h-.14a1.45,1.45,0,0,1-1.33-1.42,22.16,22.16,0,0,1,1.1-7.39c.11-.28.23-.55.35-.81a12.05,12.05,0,0,1,6.43-6,20.14,20.14,0,0,0,3.44-2.25c.06-.16.11-.33.17-.49a20.74,20.74,0,0,0-3.78,1.92c-4.24,2.77-7.7,4.11-10.57,4.11a8.45,8.45,0,0,1-4.09-1c-2.76-1.47-4-3.33-4-6.21s3.3-3.75,4-3.75a1.48,1.48,0,0,1,.23,3,1.35,1.35,0,0,0,0,1c.34.93,1.52,1.58,3.31,1.82l.32,0h0c1.85,0,4-2.14,5.85-4,.51-.52,1-1,1.51-1.49l.16-.14a5.73,5.73,0,0,1-3.81-1.85c-2-2.39,1.11-5.78,1.77-6.44A1.46,1.46,0,0,1,44.93,71a3.7,3.7,0,0,0-.5,1.22,2.23,2.23,0,0,0,.47,0,8.71,8.71,0,0,0,2-.31c6.4-1.6,13.75-6.64,17.7-10.8S82.5,45.88,97.85,45.88c13.69,0,19.4,3.68,20.44,4.44a62.31,62.31,0,0,1,7.46,4.49,22.69,22.69,0,0,1,4.06,3.79,46.91,46.91,0,0,1,15.38,17.2,20.91,20.91,0,0,1,1.4,3.75,21.06,21.06,0,0,1,4.33,8.69c.32,1.39.61,2.89.86,4.46l.56.28c4.47,2.23,10.46,5.22,11.09,10.44,6.33.44,10.21,1.92,11.56,4.41a4,4,0,0,1-.16,4c-1.65,2.78-7.83,9.65-14.79,13.26a58.58,58.58,0,0,0-3,6.58c.45.31.9.6,1.34.88a16,16,0,0,1,2.58,1.92,4,4,0,0,0,2.49-2.5,2.47,2.47,0,0,0-.25-2.47c-.77-.81-1.38-1.46-1-2.41a1.49,1.49,0,0,1,1.35-.89c.82,0,2,1.06,3.42,3.15,1.74,2.51,2.29,4.68,1.63,6.45a6.45,6.45,0,0,1-2.86,3.13c.83,1.52.93,3.5.34,6.14-.48,2.18-1,4.09-1.51,5.77a24.21,24.21,0,0,0-1.12,5c.35,0,.67,0,1,.06,2.89.31,4.59,1.45,5.46,3.68a15.7,15.7,0,0,1,2.51,3.4,2.18,2.18,0,0,1,1-1c-1.81-2-1.94-3-1.75-3.85a2.11,2.11,0,0,1,1.59-1.55,7.45,7.45,0,0,1,2-.37,3.89,3.89,0,0,1,1.07.15,2.15,2.15,0,0,1,1.33-1.08,2.86,2.86,0,0,1,.52-1.87c.15-.21.29-.44.43-.66.65-1,1.44-2.3,2.74-2.68a3.18,3.18,0,0,1-.08-2.15,2,2,0,0,1,.4-.68,3.28,3.28,0,0,1,.46-.89c.16-.2.3-.42.45-.63.81-1.16,1.81-2.61,3.49-2.61a3.24,3.24,0,0,1,1.9.67,3.82,3.82,0,0,1,1.93-1.28l-6.44-15.89a1.47,1.47,0,0,1,1.16-2,6.4,6.4,0,0,0,5.88-5.44C193.52,106,175.44,73,139.2,49.4,125.07,40.19,92.42,24.73,32.53,24.73c-9,0-14.72.41-14.77.42h-.11a1.47,1.47,0,0,1-.7-2.76c.7-.37,17.3-9.11,47.45-12.52h.17a1.47,1.47,0,0,1,.59,2.81,24.74,24.74,0,0,0-3.67,1.92,16.71,16.71,0,0,0,2.29.13,87.71,87.71,0,0,0,10.47-.92L81.5,8.9a1.44,1.44,0,0,1,.78-.25c2-.05,3.93-.08,5.9-.08a240.51,240.51,0,0,1,28,1.68,1.47,1.47,0,0,1,.16,2.89c-10,2.31-14,4.2-15.07,5.11.92.47,4.24,1.54,15.48,1.54,2.2,0,4-.05,4.64-.07l12.39-6.42a1.45,1.45,0,0,1,.68-.16l.28,0a203.89,203.89,0,0,1,37.59,11,1.47,1.47,0,0,1,.89,1.6A1.45,1.45,0,0,1,171.82,27c-13.38.78-18.34,2.4-19.27,3.25,1.27,1.63,11.74,4.29,23.35,5.84l12.27-4a1.76,1.76,0,0,1,.45-.07,1.43,1.43,0,0,1,.7.18A154.79,154.79,0,0,1,225.2,59.05a1.46,1.46,0,0,1-1,2.5,1.29,1.29,0,0,1-.43-.07c-3.59-1.1-15.76-4.71-21.7-4.71a4.93,4.93,0,0,0-2.13.3c.36,2.18,10.68,9.23,22.87,15.58l14.24.52a1.46,1.46,0,0,1,1.11.56,183.91,183.91,0,0,1,11.2,16.15c7.56,12.19,12.92,31.18,15.94,56.45a326.27,326.27,0,0,1,2.27,34.31,1.47,1.47,0,0,1-1.19,1.44l-.27,0a1.47,1.47,0,0,1-1.37-.94l-15.8-41-42,39a1.43,1.43,0,0,1-1,.4,1.12,1.12,0,0,1-.32,0,1.45,1.45,0,0,1-1-.88L199,165h0a3,3,0,0,1-.71,1.83c-.15.18-.29.37-.44.56a2.66,2.66,0,0,1,.09,1.68,2,2,0,0,1-.3.61,3.12,3.12,0,0,1-.37.92l-.39.67c-.74,1.33-1.67,3-3.61,3a3.74,3.74,0,0,1-1.65-.42,3.77,3.77,0,0,1-2,1.62l-.34.6c-.77,1.36-1.73,3.06-3.57,3.06a4.2,4.2,0,0,1-3-1.56c-.24-.24-.48-.51-.75-.8l-.88,1.22c1.15,2,2.33,4.22,3.52,6.56L190,195.38a1.56,1.56,0,0,1,.6,1.19c0,1.29,0,1.72-15,5.92-5.9,1.65-18.21,5-34.35,8.61C116.74,216.63,82.22,223.23,56.75,223.23Zm92.54-118.74.52-.13a3.78,3.78,0,0,0-.63-1.91Zm4.55-.87.45-.06-.51-.2ZM47.69,99.94a11.64,11.64,0,0,0-.93,2.12,12.71,12.71,0,0,0,1-1.23S47.69,100.14,47.69,99.94Z"/><path class="cls-4" d="M88.18,10A235.77,235.77,0,0,1,116,11.71C110.56,13,98.8,16,99.56,18.6c.69,2.29,10.83,2.65,17.15,2.65,2.92,0,5-.07,5-.07l12.69-6.58a202.18,202.18,0,0,1,37.32,11c-6.23.36-21.11,1.57-20.72,4.77.5,4.05,25,7.27,25,7.27l12.59-4a152.45,152.45,0,0,1,35.54,26.52c-3.86-1.19-16-4.78-22.13-4.78-2,0-3.35.38-3.57,1.35-1,4.52,23.92,17.45,23.92,17.45l14.58.53a184.89,184.89,0,0,1,11.11,16c18,29,18,90,18,90l-16.58-43-43.55,40.51L199.1,161.3c-.27-.29-.58-.62-.92-1,1,1.58,1.62,3.09.46,3.24a9.16,9.16,0,0,1-1.15.11l-.37,0a1.81,1.81,0,0,1,0,2.24c-.35.42-.68.88-1,1.29.47.84.62,1.54.08,1.81a1.36,1.36,0,0,1-.22.84c-.81,1.36-1.44,2.95-2.74,2.95a3.49,3.49,0,0,1-2.12-1c-.66,1.19-1.28,2.36-2.39,2.36h-.11a2.06,2.06,0,0,1-.21.5c-.84,1.4-1.53,3-2.71,3a2.86,2.86,0,0,1-1.91-1.11c-.58-.6-1.25-1.34-1.93-2.11-.83,1.16-1.67,2.31-2.5,3.45,1.46,2.51,2.81,5.06,4,7.32l5.58,11.35c5.14,0-82.91,25.24-132.16,25.24-24.54,0-39.44-6.27-28.37-25.06,21.51,0,26-11.53,26-11.53a12.28,12.28,0,0,0,1.26-2.77c0-3.54-.33-7.29-.54-10.32a8.88,8.88,0,0,0-.42-2.17l-.27-.75c-2-4.75-7.6-7-11.21-8.34s-8.06-2.46-10.76-2.46a7.59,7.59,0,0,0-1.13.08,6.63,6.63,0,0,1-.83.12c-.82,0,2.24-1.43,10-8.68a105.21,105.21,0,0,1,19.14-13.67,1.21,1.21,0,0,1,.32-.56c1.47-1.7-1-1.77-1.82-2s-.81-1.42-.65-2.17,1.31-.89,1.31-.89h0c.47-.34,1.16-.48,1.37-1.28a.39.39,0,0,0-.21-.51h0c-.1,0-3-.12-3.92-.32s-1.15-1.5-1-2.25.81-.67,1.36-1.83c.31-.67.66-1.46.89-2a39.19,39.19,0,0,0-4.14-1.24h0a9.34,9.34,0,0,1-3.72-1.71c-1-.89.27-2.37,1.22-3.28a10.59,10.59,0,0,0,1.54-2.61c0-.14.09-.28.13-.42a11.07,11.07,0,0,0,.35-3.15c-2.12,2.17-3.67,4-3.91,4.82-.64,2.11-4.65,6.56-1.27,9.09.72.55.93.79.83.79-.36,0-5-3.3-3.79-7.13,1.11-3.64,3.16-7.63,4.12-11.36a19,19,0,0,1-3.12,2c-3,1.41-5.39,1.41-6.66,3.32s3.09,3,3.09,3a4,4,0,0,1-1.58.35c-1.15,0-2.57-.62-2.94-3.52-.63-5.08,7.46-5.87,9.68-7.62a10.79,10.79,0,0,0,2-2.44c-.08-3.64-.33-5,2.34-8.66.51-.7.68-1,.61-1-.35,0-6.26,6.88-7,10.73a3.72,3.72,0,0,1-.23,1c-.18,0,1.29-10.22,5.31-13.88a3.75,3.75,0,0,0,.64-.81,14.4,14.4,0,0,1-3.92.81c-3.28,0-5.29,9.67-5.29,9.67a21,21,0,0,1,1-6.82,7.8,7.8,0,0,1,.31-.72,10.67,10.67,0,0,1,5.72-5.26,23,23,0,0,0,4.07-2.69,31.2,31.2,0,0,1,1.48-3.69,22.36,22.36,0,0,0-7.14,3c-4.49,2.93-7.54,3.88-9.77,3.88A7,7,0,0,1,34,86C31.42,84.59,30.8,83.09,30.8,81c0-1.65,2.34-2.28,2.54-2.28,0,0,0,0-.32.11-1.43.37-2.22,4.87,3.65,5.66a4.55,4.55,0,0,0,.52,0c3,0,5.81-3.51,8.36-5.91a28,28,0,0,1,4.72-3,25.73,25.73,0,0,1-4,.37c-2.23,0-3.51-.51-4.3-1.43-1.27-1.48,1.69-4.44,1.69-4.44s-2.3,3.53,1.2,3.53a10.23,10.23,0,0,0,2.4-.36c6.77-1.69,14.38-7,18.4-11.21s17.55-14.8,32.15-14.8,19.67,4.23,19.67,4.23a58.12,58.12,0,0,1,7.4,4.44,21.61,21.61,0,0,1,3.91,3.69,45.24,45.24,0,0,1,15,16.76,19.89,19.89,0,0,1,1.38,3.78,19.75,19.75,0,0,1,4.23,8.31c.4,1.73.71,3.46,1,5.11,4.86,2.47,12,5.49,11.55,11.14,10.77.47,13.12,3.73,11.57,6.32A42.69,42.69,0,0,1,159,124a60.1,60.1,0,0,0-3.72,8.2c2.05,1.61,4.08,2.45,5.16,3.91,4.14-.59,5.86-5.47,3.83-7.61-.55-.57-.73-.82-.69-.82.21,0,4.79,4.64,3.67,7.62a6.22,6.22,0,0,1-3.79,3.13c1.37,1.13,2,2.8,1.22,6.34-1.41,6.4-3.47,10.62-2.33,12.56l.79,0a10.52,10.52,0,0,1,1.15.06c2.53.27,3.73,1.17,4.36,3a16.87,16.87,0,0,1,4.35,8.08l.51.6c.57-.68,1.19-1.4,1.84-2.16-1.25-1.41-2.44-3.14-1.17-3.62a4.7,4.7,0,0,1,1.59-.42,2.11,2.11,0,0,1,.92.23c-1.81-1.6-4.84-4.58-3-5.08a6.38,6.38,0,0,1,1.63-.31c.92,0,1.79.47,3.76,2-1.23-1.35-2.06-2.69-.88-3a6.78,6.78,0,0,1,1.56-.31c-.63-.8-.77-1.43-.3-2.13.86-1.28,1.55-2.8,2.75-2.8a3,3,0,0,1,2,1.08c-1.1-1.9-2.1-4.09-1.11-4.45a1.53,1.53,0,0,1,.31-.84c.89-1.2,1.64-2.64,2.76-2.64.57,0,1.25.39,2.09,1.41.73-1,1.41-2.09,2.35-2.09a1.17,1.17,0,0,1,.32,0,2.13,2.13,0,0,1,.26-.49c.17-.22.33-.46.5-.69l-6.77-16.7c19.18-2.57.32-48.51-44.85-78C106.39,26.25,57,23.26,32.53,23.26c-9.2,0-14.88.42-14.88.42s16.7-8.93,46.92-12.35c-3,1.32-5.66,2.84-5.22,3.87.32.74,2.14,1,4.43,1a90.13,90.13,0,0,0,11-1l7.53-5.09c1.91,0,3.87-.07,5.86-.07m62.23,83.61a13.16,13.16,0,0,0-3.61-4.27c.08.71.15,1.44.21,2.18a7.83,7.83,0,0,0,1,.78c.67.43,1.48.86,2.36,1.31m.68,5.12c-.06-.66-.14-1.37-.23-2.1-.65-.17-1.28-.32-1.87-.44a5,5,0,0,1-1.69-.82l.09,1.32c.44.38.87.78,1.29,1.18l2.41.86m9.25,5.41a3.7,3.7,0,0,0-1.05-3,17.07,17.07,0,0,0-7.67-4.28,16.63,16.63,0,0,1,.36,2.21c3.24,1.2,6.61,2.69,8.36,5.09m-12.42,2.24a30.16,30.16,0,0,1,3.3-.88,5.47,5.47,0,0,0-1.09-4.27c-.1-.13-.21-.25-.32-.38-.77-.11-1.51-.19-2.19-.24l.3,5.77m4.66-1.13a36.89,36.89,0,0,1,6.18-.53h.15a3.87,3.87,0,0,0-.5-.49,15.71,15.71,0,0,0-6.37-3c0,.42,0,.81-.08,1.18a8.16,8.16,0,0,1,.62,2.79M152.4,145a21.66,21.66,0,0,0,1.91-6.38A19.65,19.65,0,0,1,153,141c-.22,1.32-.41,2.65-.56,4m1.74,4.05.3-.46c2.41-3.49,4.37-6.93,4.47-9.31a12.12,12.12,0,0,1-2.93-.36c0,.41-.08.86-.16,1.34-.62,3.89-1.5,6.73-1.68,8.79M157,150.9c1.48-.09,2.56-.23,3.14-.31,2.5-5.06,3.91-9.66,1-10.85a13.09,13.09,0,0,1-.64,2.42c-1.31,3.69-2.75,6.57-3.51,8.74m1.38,3.72a12.41,12.41,0,0,1,1.08-2.69c.2-.37.38-.74.57-1.1-.69.34-1.91.92-3.45,1.52-.05.27-.09.53-.11.76a5.87,5.87,0,0,1,1.91,1.51M155,158.49l1.09-.22a13.28,13.28,0,0,1-1-1c-.95-1.11-2.16-2.07-2.41-3.61l-.84.21c0,.4,0,.8,0,1.2h0a8.89,8.89,0,0,1,3.15,3.43M88.18,7.1c-2,0-4,0-5.94.08a3,3,0,0,0-1.56.5l-7,4.71c-1.22.18-4,.55-6.82.74A2.93,2.93,0,0,0,64.57,8.4a1.83,1.83,0,0,0-.33,0C33.81,11.86,17,20.72,16.26,21.1a2.93,2.93,0,0,0,1.39,5.52h.21c.06,0,5.71-.42,14.67-.42C92,26.19,124.41,41.5,138.4,50.63c35.19,22.94,53.53,55.78,50.7,68.3a5,5,0,0,1-4.64,4.31,2.92,2.92,0,0,0-2.33,4l5.92,14.61a2.92,2.92,0,0,0-.28.21,4.48,4.48,0,0,0-1.67-.33c-2.45,0-3.8,1.94-4.69,3.23-.14.2-.28.41-.43.6a5.09,5.09,0,0,0-.58,1,3.53,3.53,0,0,0-.48.9,4,4,0,0,0-.2,1.85,8.89,8.89,0,0,0-2.33,2.7l-.39.63a4.55,4.55,0,0,0-.72,1.73,3.87,3.87,0,0,0-.55.43h-.44a8.93,8.93,0,0,0-2.4.41,3.65,3.65,0,0,0-2.52,2.22,7.47,7.47,0,0,0-5.26-2.9c.21-1,.56-2.19.87-3.27.49-1.7,1-3.62,1.54-5.85a11.72,11.72,0,0,0,0-5.92,7.26,7.26,0,0,0,2.42-3.16c.84-2.24.23-4.86-1.8-7.79-2.62-3.78-4-3.78-4.61-3.78h0c6-3.92,11-9.56,12.54-12.16a5.46,5.46,0,0,0,.19-5.49c-1.53-2.83-5.34-4.51-11.61-5.09-1.32-5.18-7.11-8.1-11.56-10.33-.23-1.33-.49-2.61-.76-3.81a22.34,22.34,0,0,0-4.43-9,20.52,20.52,0,0,0-1.43-3.73,48.28,48.28,0,0,0-15.71-17.65,23,23,0,0,0-4.21-3.89,64.84,64.84,0,0,0-7.52-4.54c-1.51-1.08-7.52-4.64-21.2-4.64C82,44.42,67.73,55.76,63.57,60.13,59.87,64,52.69,69,46.63,70.51a2.93,2.93,0,0,0-5-2.39c-2.36,2.36-4.08,5.81-1.85,8.42a6.19,6.19,0,0,0,2.11,1.6c-1.49,1.51-3.49,3.48-4.7,3.48h-.13A4.13,4.13,0,0,1,35.2,81a3,3,0,0,0,1.06-2.64,3,3,0,0,0-2.92-2.57c-1.56,0-5.47,1.56-5.47,5.22,0,3.45,1.46,5.76,4.72,7.51a9.94,9.94,0,0,0,4.78,1.2A13.14,13.14,0,0,0,41,89.2a12,12,0,0,0-.6,1.12l-.39.91a23.58,23.58,0,0,0-1.2,8A3,3,0,0,0,41.43,102h.27a3,3,0,0,0,.42,0c0,.25,0,.5-.06.73-3.31,1.28-8.17,3.6-7.51,8.94.71,5.65,4.66,6.09,5.85,6.09a6.52,6.52,0,0,0,1.12-.09A8.42,8.42,0,0,0,43.3,124c.11.15,2.69,3.6,5,3.6a3,3,0,0,0,2.81-2,2.73,2.73,0,0,0,0-2,12.49,12.49,0,0,0,1.27.38l.51.16a4,4,0,0,0-.64,1.34,5.26,5.26,0,0,0,.53,4,4.08,4.08,0,0,0,1.79,1.61,5.1,5.1,0,0,0,.86,4.17,104.34,104.34,0,0,0-16.94,12.47,110.09,110.09,0,0,1-8.81,7.48c-1.26,1-2.83,2.16-2.13,4.25a3,3,0,0,0,2.91,2,7.31,7.31,0,0,0,1.32-.16,3.81,3.81,0,0,1,.64,0,33.89,33.89,0,0,1,9.75,2.28c2.57,1,7.92,2.94,9.49,6.69.08.19.15.38.22.58a6.87,6.87,0,0,1,.28,1.45c0,.53.07,1.09.12,1.67.18,2.49.39,5.3.4,8a8.42,8.42,0,0,1-.82,1.71,3.58,3.58,0,0,0-.24.48c-.15.36-4.27,9.66-23.23,9.66a2.93,2.93,0,0,0-2.52,1.44c-4.49,7.61-5.32,14-2.47,19,4,7.06,15,10.5,33.36,10.5,25.61,0,60.24-6.62,84.78-12.17,16.17-3.65,28.51-7,34.43-8.63,4.19-1.17,7.77-2.23,10.34-3.07,3.83-1.24,5.76-1.87,5.76-4.26a3,3,0,0,0-.89-2.11L186,183.88c-.64-1.26-1.27-2.48-1.9-3.64a4.52,4.52,0,0,0,1.65.32c2.69,0,4-2.29,4.85-3.81l.08-.14a5.12,5.12,0,0,0,1.43-1.06,4.77,4.77,0,0,0,1.18.15c2.8,0,4.11-2.34,4.89-3.74l.36-.64a4.14,4.14,0,0,0,.47-1.06,3.6,3.6,0,0,0,.32-.69l3.93,9.67A2.89,2.89,0,0,0,205.3,181a2.73,2.73,0,0,0,.64.07,2.9,2.9,0,0,0,2-.78l40.39-37.56,15,39a2.93,2.93,0,0,0,2.74,1.88,2.59,2.59,0,0,0,.54,0,2.94,2.94,0,0,0,2.39-2.88c0-2.53-.25-62.21-18.44-91.54a184.54,184.54,0,0,0-11.29-16.27,2.93,2.93,0,0,0-2.2-1.13l-13.92-.51c-8.13-4.26-17-9.76-20.45-12.94,4.76.21,13.65,2.49,20.6,4.63a2.8,2.8,0,0,0,.86.13,2.93,2.93,0,0,0,2.08-5A156.43,156.43,0,0,0,190,31a3,3,0,0,0-1.4-.35,2.82,2.82,0,0,0-.9.14l-11.95,3.84c-7.32-1-15.53-2.68-19.67-4.17,2.71-.69,7.66-1.48,15.81-2a2.94,2.94,0,0,0,.93-5.65A205.59,205.59,0,0,0,135,11.72a3.64,3.64,0,0,0-.56-.05,2.9,2.9,0,0,0-1.35.33L121,18.26c-.82,0-2.37.06-4.26.06a89.4,89.4,0,0,1-11.23-.55,89.78,89.78,0,0,1,11.15-3.2,2.93,2.93,0,0,0-.31-5.77A239.27,239.27,0,0,0,88.18,7.1Zm70.64,124.06c.58-1.41,1.2-2.78,1.86-4.08-.39,1.57.69,2.7,1.43,3.48a1.67,1.67,0,0,1-.16,1.2,2.83,2.83,0,0,1-.8,1,22.61,22.61,0,0,0-2-1.4l-.32-.21Z"/><path class="cls-4" d="M56.7,127.78c2,1,5,.12,3.67,2.75s.9,2.93,1.47,4.4-5.68,7.2-4.39,9.72,6.36,19.7,6.36,19.7l-4.66,20.2-2.45,7.82,38.86,2.77,16-50.49-2.11-47.91-10-10.83-21.67-1.3-12,2.77L55.4,99.84s-.52,8.52-1.44,10.82-3.09,5.52-3.31,6.69-1.92,2.44,2.51,3.83,5,.73,4.11,3.1A6.26,6.26,0,0,0,56.7,127.78Z"/><path class="cls-2" d="M43.68,70.19s-3.17,4.87,3.6,3.17,14.38-7,18.4-11.21,17.55-14.8,32.15-14.8,19.67,4.23,19.67,4.23A58.12,58.12,0,0,1,124.9,56c4.65,3.17,11.85,13.75,13.12,21.15s4,35.11,0,38.71-23.27,31.72-23.27,31.72-2.75-3.38-5.29-11.84,2.12-20.31,2.12-20.31-5.5,12.91-6.14,17.35.43-8.67,1.48-14.39-3.8,1.27-4,6.77-1.69-7-2.11-10.36,1.53-8.46,1.53-8.46-.64,5.92-4.23,6.77-4.82-.43-4.82-.43,5,0,6.09-3,0-14.38-.38-15-4.23-1.49-5.08,1-3.9,9.31-6.22,15.87-4.52,16.66-10,16.66c-5.23,0,1.42.52,3.67-3.76,3-5.61,4.87-18.61,4.87-18.61l-7,13.74,4-12.05s-4,5.92-6.55,7.19a71.51,71.51,0,0,1-8.25,3s8.88-3.38,11.84-9.09,5.08-12.91,6.14-16.08S91.53,81.4,91.53,81.4s-10,3.17-11.89,3.81S69.7,95.78,64.2,99.8s-14.81,12.9-15.44,15-4.65,6.56-1.27,9.09-4.44-1.48-3-6.34,4.65-10.37,4.65-15-.63-5.92,2.33-9.94-5.5,5.08-6.35,9.73.37-8.62,5.08-12.9c2.6-2.37,1.9-10.37,9.52-16.29s-2.54,1.27-8.25,2.33-8.25.63-9.52-.85S43.68,70.19,43.68,70.19Z"/><path class="cls-2" d="M57,104.76s-1.26,7.45-3.33,9.51-2.06,4,.8,4.92a15.74,15.74,0,0,0,4.44,1s2.08-.06,0,3.81c-.69,1.29-1.85,2.54.42,3.33s2.12,2.38,1.48,3.49.48,2.38,1.91,3,.79,6.5,0,7.61.35,2.51,3.54,2.45,6.45.09,10.89-3.24S93.44,132.1,96.45,124a109.81,109.81,0,0,0,4.34-14.55s5,2,.11,13.66c-2.2,5.22-7.94,11-11.11,13.71s-9,7-15.54,8.41-12.38,1.9-14,0,1.42-5.87,1.42-8.25-2.85-3-3.33-4.92,1.37-1.3,1.75-2.7-3.81.16-3.49-2.22,1.27-4.6,1-5.39-3.17-1.11-4.76-1.9-2.92-1-.67-5.08a44.21,44.21,0,0,0,3.53-10Z"/><path class="cls-2" d="M61.18,135.34a107,107,0,0,0-20.72,14.54c-9.2,8.56-11.81,9-9.2,8.56,2.45-.41,7.61.8,11.89,2.38s11.42,4.44,11.9,11.26,1.59,17.3-2.06,20.79-4.13,7-9.68,6.82-14.27-3-14.43,1.42-1.59,20.31-1.59,20.31,4.31,4.24,3.67,18.2,5.08-4,5.08-4,.77-4.08,4.73-13.91,10.95-19.83,13.33-23.16,22.21-32.65,22.21-32.65,2-1.78-.2-8.76-3.45-7.08-4.56-9.57-5.55-2.32-7.3-3-4.92-1.09-2.38-5.39S61.18,135.34,61.18,135.34Z"/><path class="cls-2" d="M139.69,111.13s5.52-6.28,19.05-6.37,16.5,3.53,14.81,6.37-9.94,12.16-18.61,14.48-19.67,7.19-25.39,12.69-18.19,26.43-19,30,0,5.5,0,5.5-8-3.6-12.9,2.75-8.46,16.71-8.46,16.71,3.8.63,14.38,0,18-2,18.4.28-9.31,23.2-13.11,36.52-9-7.42-9.65,4.64,6.13,22.42-1.91,20.94-20.94-13.12-21.15-30.88,4.79-19.87,7.75-29.39A195.07,195.07,0,0,1,98,162c6.56-12.27,19.46-29,26.33-36.38A195.87,195.87,0,0,1,139.69,111.13Z"/><path class="cls-2" d="M84.64,148.37a2.14,2.14,0,1,1-2.15,2.14,2.14,2.14,0,0,1,2.15-2.14m0-1.91a4,4,0,1,0,4,4,4,4,0,0,0-4-4Z"/><path class="cls-2" d="M86.85,159.31a2.14,2.14,0,1,1-2.14,2.14,2.14,2.14,0,0,1,2.14-2.14m0-1.9a4,4,0,1,0,4.05,4,4,4,0,0,0-4.05-4Z"/><rect class="cls-2" x="69.79" y="146.07" width="13.04" height="1.27" transform="translate(-84.42 107.82) rotate(-48.92)"/><rect class="cls-2" x="71.8" y="152.51" width="10.29" height="1.27" transform="translate(-41.76 29.52) rotate(-17.16)"/><rect class="cls-2" x="78.13" y="154.65" width="1.27" height="10.12" transform="translate(-91.32 212.47) rotate(-80.98)"/><polygon class="cls-2" points="76.11 164.63 88.68 183.56 86.3 191.49 76.31 169.71 76.11 164.63"/><path class="cls-2" d="M78.22,163a35.86,35.86,0,0,0-22,27c-.35,1.85-5,11.14-9,14s-22.52,5.84-22.52,5.84l3.72,13.82s23.4,15,29.75,9.43S81,209.31,81,209.31l1-11.84L69.17,210.79l-13,21.42S69.64,214,72.82,210.63s10-9.52,10-9.52a4.93,4.93,0,0,0,2.54-4.91C84.84,192.87,78.22,163,78.22,163Z"/><path class="cls-2" d="M52.9,200.28l1,10.48L50,219l3.15,16.5s-5.55-12.38-6-16.5-1.59-10.63-1.59-10.63Z"/><polygon class="cls-2" points="58.7 189.85 63.46 200.28 61.08 187.47 58.7 189.85"/><polygon class="cls-2" points="60.06 226.97 53.85 237.12 56.96 247.91 66 241.41 60.06 226.97"/><polygon class="cls-2" points="55.22 234 78.05 232.21 83.86 201.75 65.22 209 55.22 234"/><polygon class="cls-2" points="35.22 229.51 48.7 249.5 39.19 221.42 35.22 229.51"/><polygon class="cls-2" points="50.97 249.5 77.35 235.46 78.77 228.46 50.97 249.5"/><path class="cls-2" d="M63.46,69.29s-15.23,6.82-17.93,9.36S39.89,85,36.65,84.52c-5.87-.79-5.08-5.29-3.65-5.66S30.78,79,30.78,81,31.4,84.59,34,86c2.38,1.27,5.87,1.74,13.17-3,3.57-2.32,7.61-3.29,9-3.23s-4.44,5.22-7.45,6.61A10.63,10.63,0,0,0,43,91.57a7.8,7.8,0,0,0-.31.72,21,21,0,0,0-1,6.82s2-9.67,5.29-9.67,10.15-3.33,10.15-3.33Z"/><path class="cls-2" d="M71.55,91.13s11-7.17,13.86-5.08a7.76,7.76,0,0,1,1.44,11.43c-3.65,4.54.38,1.75-2.86,5.23,0,0-7.69,8.93-.13,2.05S90.43,90.71,93,86.69s5.29-7.62,1.91-8.46-10.37-3.39-15.23,0S71.55,91.13,71.55,91.13Z"/><path class="cls-2" d="M88.68,137s6.4-2.33,9.15,0,7.19,9.52,1.69,10.57-8.79-2.32-8.62-4.23-2.35,8.56,4.51,7.14.73,3.53-1.39,4.75-4.33,7.36-5.34,15.4,1.75-7.74,4.71-11,5.9-.9,3,1.43,10.13-2.84,10.13-2.84l9.6-23-4.59-19.88-6.14-7.28s-4,7.49-6.55,13-9.31,14.17-9.31,14.17Z"/><path class="cls-2" d="M52.2,95.78s-2.86,6.19-5.08,7.93-10.31,2.54-9.68,7.62S42,114.5,42,114.5s-4.36-1.11-3.09-3,3.7-1.91,6.66-3.32a33.36,33.36,0,0,0,6.67-4.93Z"/><path class="cls-2" d="M147.22,123.09s-7.9.38-11.57,10.65-8.19,27.4-5,29.3,26.69-2.22,26.69,5.08-4.44,20.1-11.42,25.75-18.09,8.74-18.72,18.94-2.86-14.55-2.86-14.55l-2.43-4.69-43.17,2.18L128,130.53Z"/><path class="cls-2" d="M130.68,127.51s-11.38,38.93-6.31,41.67,35.54,5.28,35.54,5.28l.69-15.6s-19.73,5.12-23.22,2.27-1-13.93,2.22-16.49,6.66-13.95,9.84-19,4.76-7.94,0-8.25S130.68,127.51,130.68,127.51Z"/><path class="cls-2" d="M200.23,148.31S172.41,188.76,164.4,197,147,222.21,141.75,228.61s-15.35,13.72-20.38,20S102,266,102,266l-5.14-6.34s5.27-14.83,9.91-20,27.77-27.34,33.26-32.68,25.36-28.26,32.4-36.73,23.34-26.51,23.34-26.51Z"/><path class="cls-2" d="M201,151.15s4.48,5.68,2.25,6.2-2.22.52-6.53-5-7-6.89-5.62-8.79,2.56-4.35,4.63-1.27S201,151.15,201,151.15Z"/><path class="cls-2" d="M199.85,155.93s5.7,6.62,3.22,6.94-2.48.32-8-6.14-8.72-8.2-7.32-10.1,2.46-4.42,5.14-.87S199.85,155.93,199.85,155.93Z"/><path class="cls-2" d="M195.4,156.6s5.71,6.62,3.22,6.94-2.48.32-8-6.14-8.72-8.2-7.32-10.1,2.47-4.42,5.14-.87S195.4,156.6,195.4,156.6Z"/><path class="cls-2" d="M185.94,155.42s-5.14-7.22-2.69-7.34,2.44-.13,7.39,6.91,8,9.06,6.48,10.88-2.69,4.31-5.07.48S185.94,155.42,185.94,155.42Z"/><path class="cls-2" d="M177.23,168.88s-5.33-4.7-3.1-5.54,2.23-.83,7.38,3.78,8.1,5.45,6.89,7.47-2.1,4.52-4.62,1.92S177.23,168.88,177.23,168.88Z"/><path class="cls-2" d="M177.83,164.16s-6.72-5.41-4.2-6.09,2.53-.68,9,4.61,10,6.44,8.81,8.45-2,4.58-5.21,1.62S177.83,164.16,177.83,164.16Z"/><path class="cls-2" d="M182.34,162.84s-6.72-5.41-4.19-6.09,2.52-.69,9,4.61,10,6.44,8.81,8.45-2,4.58-5.2,1.62S182.34,162.84,182.34,162.84Z"/><path class="cls-2" d="M192.26,162.51s6.2,6.06,3.69,6.56-2.51.49-8.49-5.43-9.36-7.37-8.05-9.33,2.25-4.51,5.18-1.23S192.26,162.51,192.26,162.51Z"/><path class="cls-2" d="M141.53,89.27a8,8,0,0,0,4.62,7.63c5,2.39,16.75,4.23,15.26,12.37s-11.63,17.64-6.54,23.54,11.68,3.31,9.76,12-5,13.36.28,13.77,9.89,10.8,7.92,15.51a55.39,55.39,0,0,0-2.91,9.71l-7.22-3.58s7.19-4.25,5.72-10.36-5.38-7.64-7.31-9.41-4.61-2.92-1.69-8.52,4.87-11,1.64-12.21-8.77-3.06-9.23-6.26-1.57-6.44,2.66-13.87,7.25-12.61,3.9-15.32-7.67-3.37-10.83-3.62-10.14-7.37-10.14-7.37Z"/><path class="cls-2" d="M144.39,84.2A8.05,8.05,0,0,0,148,92.34c4.71,3,16.1,6.26,13.62,14.16s-13.71,16.07-9.39,22.55,11.18,4.73,8.21,13.11-6.66,12.64-1.42,13.7,8.48,11.94,5.95,16.38a54.48,54.48,0,0,0-4.08,9.27l-6.73-4.45s7.65-3.32,6.95-9.57-4.39-8.25-6.09-10.24-4.21-3.47-.63-8.66,6.18-10.28,3.13-11.92-8.32-4.11-8.38-7.35-.77-6.58,4.34-13.44,8.75-11.61,5.76-14.72-7.2-4.29-10.3-4.93-9.16-8.56-9.16-8.56Z"/><path class="cls-2" d="M137.14,83.45a11.22,11.22,0,0,0,3.64,8.15c3.83,3.38,12.62,7.81,11.72,15s-8.24,13.62-4.29,20.28,8.8,5.79,7.59,13.38-3.43,11.2.56,12.81,7.66,12.32,6.31,16.22a47.79,47.79,0,0,0-1.93,8.31l-5.48-5a7.25,7.25,0,0,0,4-8.26c-1.25-6-4.21-8.33-5.69-10.41s-3.51-3.79-1.48-8.29,3.36-9,.92-10.92-6.63-4.87-7-8-1.34-6.33,1.63-12.23,5.09-10,2.52-13.27a19.24,19.24,0,0,0-8.18-5.88c-2.36-1-7.76-9.19-7.76-9.19Z"/><polygon class="cls-2" points="175.17 180.73 175.31 187.76 171.91 184.28 175.17 180.73"/><polygon class="cls-2" points="162.31 188.49 152.84 186.31 158.87 192.65 162.31 188.49"/><polygon class="cls-2" points="163.59 160.26 166.5 163.74 162.46 162.03 163.59 160.26"/><polygon class="cls-2" points="169.48 165.58 163.1 165.03 169.48 169.63 169.48 165.58"/><polygon class="cls-2" points="173.14 189.78 178.69 192.03 171.97 192.03 173.14 189.78"/><path class="cls-2" d="M52.2,164.63s7.8,12.8,1.65,21.26-15.56,10.71-25.53,11a42.73,42.73,0,0,1-18.14-3.74S5,200.4,11.53,228.46s23.69,15.8,23.69,15.8-2.75-16.5,0-22.84,4.92-13.33,11.9-18.08,16-14.07,16.34-23S65,163.13,59.92,159.7,52.2,164.63,52.2,164.63Z"/><path class="cls-2" d="M148,227c9.73-2.59,21.94-4.49,30-4.38S194.06,227,194.06,227l8.47,17.29s-21.53,7.93-34,5.24-22.66-4-22.66-4,10.07-5.31,14.76-9.21S148,227,148,227Z"/><polygon class="cls-2" points="73.71 171.83 82.85 232.41 73.67 246.93 168.47 242.17 190.7 244.39 197.51 214.24 187.08 192.86 180.68 180.97 73.71 171.83"/><path class="cls-2" d="M133,66.53l-5.54-7.65a44.52,44.52,0,0,1,16.41,17.59c6.15,12,1.43,51.19,10,57.5s13.29-2.37,10.39-5.43,4.35,3.13,3,6.8-10,5.79-14.92,1.79-14.51-17.36-15.33-24.5-1-27.89-2.4-33.09S133,66.53,133,66.53Z"/><path class="cls-2" d="M147.22,123.09s9.67,6.83,7.93,13.3-10.16,12.77-9.31,16.75,8.88,9.06,8.88,9.06-4,.56-6.24-.75-7.37-8.53-4.33-13.24,12-7.62,7.61-13.88a31.12,31.12,0,0,0-9.92-9.16Z"/><path class="cls-2" d="M137.5,130.53s.4,18.86,8.81,20a49.68,49.68,0,0,0,14.29,0s-12.19,6.69-18.76,2.63-8.42-12.6-8.42-12.6Z"/><path class="cls-2" d="M71.55,92.34s3.51-1.13,5.8,3.06,9.48,8.88,3.24,9.92-6.92-2.61-6.92-2.61a5.55,5.55,0,0,0,5.1,4.53,12.49,12.49,0,0,0,8.08-2.56l6.11-18-4.28-7L76.94,82.46Z"/><path class="cls-2" d="M76.75,119.68s3.13,3.12,6.06,1c4.37-3.15,5.87-5.84,5.87-5.84l4.59-2.15s3.44,1.54,9.78-3,3.42,11.57,2.88,13.39-28.58,18.28-28.58,18.28,11.28-10.92,11.12-14.93-.6-5.76-4.61-4.46S76.75,119.68,76.75,119.68Z"/><path class="cls-2" d="M52.32,107.28a12.78,12.78,0,0,1,0,5.87c-.79,2.86-2.89,5-.71,6s0-1.15,0-1.15a5.91,5.91,0,0,1,2-4.79c2.27-1.74,2.72-10.54,2.72-10.54Z"/><path class="cls-2" d="M57.59,121.73s-.64,1.54-1.18,2.7-1.16,1.09-1.36,1.83,0,2,1,2.25,3.92.32,3.92.32a11.79,11.79,0,0,1-2.47-1.34c-.16-.34-1-2.55,0-2.79s1.81-2.75,1.41-3a14.84,14.84,0,0,1-1.41-1Z"/><path class="cls-2" d="M58.76,130.61s-1.15.14-1.31.89-.17,2,.65,2.17,3.29.28,1.82,2,2.33,1.63,2.33,1.63l.41-2.38L59.92,132Z"/><path class="cls-2" d="M53.05,111.56s-1.45,3.72-2.4,4.62-2.22,2.39-1.22,3.28a10.61,10.61,0,0,0,5.07,2,41,41,0,0,0,4.36.29A6.76,6.76,0,0,0,55.59,120c-2.44-.73-4.23-1.11-4.41-2s2.06-3.3,2.51-4.71S53.05,111.56,53.05,111.56Z"/><path class="cls-2" d="M140.47,75.93s7.12,4.35,9,12.63a90.66,90.66,0,0,1,2,16.56s3.21-10.72-5.83-16.56-5.18-14-5.18-14Z"/><path class="cls-2" d="M144.6,92.34s5.36,31.33,3.67,44.94-2.71,43.45-2.71,43.45-4.69-71.19-4.9-73.45S144.6,92.34,144.6,92.34Z"/><path class="cls-2" d="M145.51,137.17A234.27,234.27,0,0,0,157.37,168l-21.89-1.4-8.19-32L140,121.33Z"/><path class="cls-2" d="M71.84,162.32s5-17.34,15-25-7.37,5.86-15,7.37S67.06,151,67.06,151Z"/><path class="cls-2" d="M169.48,111.56s-8.72,5.25-14.43,21.16-2.21,40.06-2.21,40.06a51.55,51.55,0,0,1-12.72-18.33c-4.35-11.12-8.93-33.09.89-37.81S169.48,111.56,169.48,111.56Z"/><polygon class="cls-2" points="94.66 127.05 71.55 147.6 69.64 160.26 83.86 180.28 86.85 187.47 105.9 172.78 107.07 143.79 105.45 130.53 94.66 127.05"/><path class="cls-2" d="M132,192l54.89.62S175.24,166.56,168.22,163s-19.45,3.47-22.21,6.61S132,192,132,192Z"/><path class="cls-5" d="M67.14,189.17a9.57,9.57,0,0,1,1.15,1.51,77.83,77.83,0,0,0,10.42-6.1v14.06h2V184a.69.69,0,0,0,.6-.36c-.11-.05-.43-.22-.65-.3a66.06,66.06,0,0,0,7.79-6.53,1.42,1.42,0,0,0,.28,0,.62.62,0,0,0,.52-.22L87.19,175C82.79,179.87,74.61,185.73,67.14,189.17Z"/><path class="cls-5" d="M108.65,175.58a.7.7,0,0,0,.66-.52l-2.6-.16v6.31H98V176a.71.71,0,0,0,.68-.57l-2.62-.17v6H90.71v1.86h5.36v6.76H98v-6.76h8.7v1.86c0,4.49-1.29,9.36-8.24,12.37a10.69,10.69,0,0,1,1.4,1.37c7.16-3.23,8.78-8.54,8.78-13.76v-1.84h5.85v-1.86h-5.85Z"/><path class="cls-5" d="M113,173.58l-.93.77a21.73,21.73,0,0,1,3.25,3.88l1-.74A18.47,18.47,0,0,0,113,173.58Z"/><path class="cls-5" d="M112.56,180.48l1-.74a19.19,19.19,0,0,0-3.25-3.89l-.93.77A20.4,20.4,0,0,1,112.56,180.48Z"/><path class="cls-5" d="M130.76,175.42c.38-.06.63-.22.66-.5l-2.69-.16c0,2.76,0,5.22-.11,7.36H117.57V184h11c-.52,6.49-2.19,10.23-7.85,13.38a10.33,10.33,0,0,1,1.56,1.34c6-3.42,7.74-7.69,8.26-14.72h9.91v-1.88h-9.8C130.73,180.12,130.73,177.9,130.76,175.42Z"/><path class="cls-5" d="M160.57,178.45a72.22,72.22,0,0,0-14.39-2.93l-.63,1.84a65.78,65.78,0,0,1,14.22,3Z"/><path class="cls-5" d="M159.28,186.49A77.4,77.4,0,0,0,146.07,184l-.58,1.86a66.86,66.86,0,0,1,13.16,2.57Z"/><path class="cls-5" d="M143.88,192.35l-.66,1.8a75.75,75.75,0,0,1,17.18,4l.82-1.91A76.46,76.46,0,0,0,143.88,192.35Z"/><path class="cls-2" d="M240.11,138.92l-27.43,19.2-1.83-10.06s19.2-21-5.49-58.52-65.82-55.77-85.94-61.25-70.4-8.23-77.71-11a5.19,5.19,0,0,1-2.26-1.4c-14.22,3.7-21.82,7.76-21.82,7.76S93.73,18,140,48.17c45.17,29.46,64,75.4,44.85,78l21.09,52,19.86-18.47Z"/></g><text class="cls-6" transform="translate(197.03 29.67)"><tspan class="cls-7">O</tspan><tspan class="cls-8" x="11.15" y="0">S</tspan><tspan x="20.09" y="0">S</tspan></text></g></g></svg>