<?xml version="1.0" encoding="utf-8"?>
<!-- Generator: Adobe Illustrator 23.0.1, SVG Export Plug-In . SVG Version: 6.00 Build 0)  -->
<svg version="1.1" xmlns="http://www.w3.org/2000/svg" xmlns:xlink="http://www.w3.org/1999/xlink" x="0px" y="0px"
	 viewBox="0 0 784 177" style="enable-background:new 0 0 784 177;" xml:space="preserve">
<style type="text/css">
	.st0{fill:#2E3031;}
	.st1{fill-opacity:0;}
	.st2{opacity:0.5;}
	.st3{fill:none;stroke:#FFFFFF;stroke-miterlimit:10;}
	.st4{fill:#FFFFFF;}
	.st5{fill:#FC0D1A;}
</style>
<g id="Calque_1">
	<g>
		<polyline class="st0" points="784,0 784,177 0,177 0,0 		"/>
	</g>
	<g>
		<title>Fichier 2</title>
		<g id="Calque_2_1_">
			<g id="Calque_1-2">
				<polyline class="st1" points="916,-91.2 916,235.8 -536,235.8 -536,-91.2 				"/>
				<g class="st2">
					<polyline class="st3" points="73.3,71.8 -41.5,-68.7 -263,161.8 -474.5,-76.7 					"/>
					<polyline class="st3" points="-246.5,-68.7 -63.5,30.3 39,235.8 158.5,146.6 227.5,212.3 346.5,212.3 423.5,150.3 423.5,77.3 
						508.5,1.3 					"/>
					<polyline class="st3" points="112.5,-16.7 -63.5,30.3 -41.5,-68.7 					"/>
					<line class="st3" x1="-263.5" y1="161.3" x2="-247" y2="-69.2"/>
					<line class="st3" x1="86.8" y1="135.7" x2="-166.5" y2="212.3"/>
					<polyline class="st3" points="227.5,-39.7 122.3,29.8 112.5,-16.7 91.5,-91.7 					"/>
					<path class="st3" d="M91.5-91.7"/>
					<polyline class="st3" points="588.5,49.3 423.5,77.3 609.5,192.3 					"/>
					<polygon class="st3" points="423.5,150.3 491.5,192.3 467,235.8 					"/>
					<polygon class="st3" points="-166.5,212.3 -63.5,30.3 -263.5,161.3 -315,235.8 -493,174.8 -263.5,161.3 					"/>
					<circle class="st4" cx="508" cy="2.8" r="4"/>
					<circle class="st4" cx="589" cy="49.8" r="4"/>
					<circle class="st4" cx="609" cy="192.8" r="4"/>
					<circle class="st4" cx="228" cy="-40.2" r="4"/>
					<circle class="st4" cx="-64" cy="29.8" r="4"/>
					<circle class="st4" cx="-167" cy="211.8" r="4"/>
				</g>
			</g>
		</g>
	</g>
</g>
<g id="Calque_2">
	<g>
		<polygon class="st5" points="173,148.6 127.3,23.2 13,126.1 		"/>
		<g>
			<rect x="117.7" y="85.9" class="st4" width="9.1" height="31.4"/>
			<path class="st4" d="M97.3,104.8l2.7-9.9l2.8,9.9H97.3z M95.1,85.9l-11.3,31.4H94l1.7-5.2h8.8l1.7,5.2h10.2L105,85.9
				C105,85.9,95.1,85.9,95.1,85.9z"/>
			<polygon class="st4" points="46.8,117.3 55.7,117.3 55.7,99.6 61.7,112.5 67.5,112.5 73.6,99.6 73.6,117.3 82.4,117.3 82.4,85.9 
				71.8,85.9 64.8,101.2 57.7,85.9 46.8,85.9 			"/>
			<polygon class="st4" points="130.3,85.9 130.3,117.3 139.4,117.3 139.4,105.2 150.9,105.2 152.1,97.8 139.4,97.8 139.4,93.3 
				152.9,93.3 154.1,85.9 			"/>
		</g>
	</g>
</g>
</svg>
