<?xml version="1.0" encoding="utf-8"?>
<!-- Generator: Adobe Illustrator 22.0.1, SVG Export Plug-In . SVG Version: 6.00 Build 0)  -->
<svg version="1.1" xmlns="http://www.w3.org/2000/svg" xmlns:xlink="http://www.w3.org/1999/xlink" x="0px" y="0px"
	 viewBox="0 0 784 177" style="enable-background:new 0 0 784 177;" xml:space="preserve">
<style type="text/css">
	.st0{fill:#2E3031;}
	.st1{fill-opacity:0;}
	.st2{fill:#FFFFFF;}
	.st3{opacity:0.5;}
	.st4{fill:none;stroke:#FFFFFF;stroke-miterlimit:10;}
</style>
<g id="Calque_2">
	<polyline class="st0" points="784,0 784,177 0,177 0,0 	"/>
</g>
<g id="Calque_1">
	<title>Fichier 2</title>
	<g id="Calque_2_1_">
		<g id="Calque_1-2">
			<polyline class="st1" points="916,-91.2 916,235.8 -536,235.8 -536,-91.2 			"/>
			<path class="st2" d="M98.8,43.5l45.2,82.6H53.7L98.8,43.5 M98.9,40.9l-47.4,86.5h94.6L98.9,40.9L98.9,40.9z"/>
			<path class="st2" d="M158,30.6V149H39.6V30.6H158 M159,29.6H38.6V150H159V29.6z"/>
			<path class="st2" d="M81.1,106.6c0-5.7,0-11.4,0-17.2c0-0.4,0.1-0.7,0.1-1.1l0.2-1.9H71c-0.1,0.3-0.2,0.6-0.2,0.9
				c-0.6,1.7-1.3,3.4-2.1,5c-0.6,1.2-1.1,2.5-1.7,3.7l-2.6,5.6c-0.4-0.8-0.7-1.5-1.1-2.3c-1.2-2.7-2.5-5.4-3.7-8.1
				c-0.8-1.5-1.4-3.1-1.9-4.8H46.8c0.2,0.7,0.3,1.5,0.3,2.2c0.1,2,0.1,4,0.2,6.1c0,1.2,0,2.5,0,3.7s0,2.4,0,3.6s-0.1,2.5,0,3.7
				c0,0.8,0,1.6-0.1,2.4c0,0.5-0.1,1-0.2,1.4c0,0.2,0,0.4,0,0.6h5.5c0-0.3,0-0.6-0.1-0.9c-0.1-0.8-0.2-1.5-0.3-2.3
				c0-4.6,0-9.3,0-13.9c0-0.2,0-0.3,0-0.5c0.1,0.1,0.2,0.1,0.3,0.2c0.5,1.1,1.1,2.3,1.6,3.4c1.5,3.2,2.9,6.3,4.4,9.5
				c0.7,1.3,1.3,2.8,1.6,4.3c0,0.1,0,0.2,0,0.3h5.7c0.2-0.7,0.4-1.5,0.7-2.2c1.2-2.7,2.3-5.4,3.5-8.1c1-2.3,2-4.5,3.1-6.8
				c0.1-0.3,0.3-0.5,0.5-0.9c0.1,0.2,0.2,0.4,0.2,0.6c0,0.4,0,0.8,0,1.2c-0.1,3,0.1,6-0.1,9c-0.1,1.3,0,2.6,0,3.8
				c0.1,0.9,0,1.9-0.2,2.8c0,0.1,0,0.3,0,0.4h8.2l-0.1-0.7C81.3,108.5,81.2,107.5,81.1,106.6z"/>
			<path class="st2" d="M93.2,86.4c-0.1,0.2-0.2,0.4-0.3,0.7c-0.2,0.6-0.3,1.2-0.6,1.9s-0.6,1.4-0.9,2.1c-1.5,3.5-3.1,7-4.7,10.4
				c-1.2,2.6-2.4,5.2-3.5,7.7c-0.2,0.3-0.3,0.7-0.3,1.1h5.3c0.5-1.8,1.2-3.5,2-5.1h11.4c0.8,1.7,1.4,3.4,2,5.1h8.7
				c-3.6-8-7.5-15.8-11-23.9L93.2,86.4z M92,101.3c1.3-2.9,2.5-5.8,3.7-8.8c1.5,2.8,2.8,5.7,3.9,8.7C97.2,101.4,94.6,101.5,92,101.3
				z"/>
			<path class="st2" d="M121.2,99.8c0.1-4.3-0.3-8.7,0.3-13c0-0.1-0.1-0.2-0.1-0.3h-0.2h-7.5l-0.8,0.1c0,0.1,0,0.2,0,0.4
				c0.3,1.6,0.5,3.1,0.5,4.7c0,4.4,0,8.8,0,13.1c0.1,1.8,0,3.6-0.4,5.3c0,0.1,0,0.1,0,0.2h8.6c-0.3-1.4-0.5-2.7-0.5-4.1
				C121.2,104.1,121.2,101.9,121.2,99.8z"/>
			<path class="st2" d="M150.4,97.1c-1.4,0.3-2.8,0.5-4.2,0.4h-10.7c-0.3,0-0.5,0-0.8,0c-0.1-2.1-0.1-4.1,0.1-6.2c0.3,0,0.7,0,1,0
				h10.8c1.1,0,2.3,0.1,3.4,0.4c0.2,0,0.5,0,0.7,0v-4.8c0-0.2-0.1-0.3-0.2-0.4h-24.1c0,0.1,0,0.2,0,0.3c0.4,1.3,0.6,2.7,0.5,4.1
				c0,5,0,10.1,0,15.1c0.1,1.5-0.1,3-0.4,4.4h8.3c-0.2-1.2-0.3-2.4-0.4-3.6c-0.2-1.3-0.1-2.7,0.3-4c0.2,0,0.3-0.1,0.3-0.1
				c4,0,8,0,12.1,0c0.5,0,1,0.1,1.5,0.1c0.6,0.1,1.2,0.2,1.9,0.3c0.1-2,0.1-3.9-0.1-5.9C150.6,97.1,150.5,97.1,150.4,97.1z"/>
			<g class="st3">
				<polyline class="st4" points="39,29.8 -41.5,-68.7 -263,161.8 -474.5,-76.7 				"/>
				<polyline class="st4" points="-246.5,-68.7 -63.5,30.3 39,235.8 158.5,150.3 227.5,212.3 346.5,212.3 423.5,150.3 423.5,77.3 
					508.5,1.3 				"/>
				<polyline class="st4" points="112.5,-16.7 -63.5,30.3 -41.5,-68.7 				"/>
				<line class="st4" x1="-263.5" y1="161.3" x2="-247" y2="-69.2"/>
				<line class="st4" x1="38.5" y1="150.3" x2="-166.5" y2="212.3"/>
				<polyline class="st4" points="227.5,-39.7 158.5,29.3 112.5,-16.7 91.5,-91.7 				"/>
				<line class="st4" x1="158.5" y1="29.3" x2="91.5" y2="-91.7"/>
				<polyline class="st4" points="588.5,49.3 423.5,77.3 609.5,192.3 				"/>
				<polygon class="st4" points="423.5,150.3 491.5,192.3 467,235.8 				"/>
				<polygon class="st4" points="-166.5,212.3 -63.5,30.3 -263.5,161.3 -315,235.8 -493,174.8 -263.5,161.3 				"/>
				<circle class="st2" cx="508" cy="2.8" r="4"/>
				<circle class="st2" cx="589" cy="49.8" r="4"/>
				<circle class="st2" cx="609" cy="192.8" r="4"/>
				<circle class="st2" cx="228" cy="-40.2" r="4"/>
				<circle class="st2" cx="-64" cy="29.8" r="4"/>
				<circle class="st2" cx="-167" cy="211.8" r="4"/>
			</g>
		</g>
	</g>
</g>
</svg>
