<?xml version="1.0" encoding="utf-8"?>
<!-- Generator: Adobe Illustrator 22.0.1, SVG Export Plug-In . SVG Version: 6.00 Build 0)  -->
<svg version="1.1" xmlns="http://www.w3.org/2000/svg" xmlns:xlink="http://www.w3.org/1999/xlink" x="0px" y="0px"
	 viewBox="0 0 784 177" style="enable-background:new 0 0 784 177;" xml:space="preserve">
<style type="text/css">
	.st0{fill:#2E3031;}
	.st1{display:none;}
	.st2{display:inline;fill:#F8F9F7;}
	.st3{fill:#FBFCFA;}
	.st4{fill-opacity:0;}
	.st5{fill:#FFFFFF;}
	.st6{opacity:0.5;}
	.st7{fill:none;stroke:#FFFFFF;stroke-miterlimit:10;}
</style>
<g id="Calque_2">
	<polyline class="st0" points="784,0 784,177 0,177 0,0 	"/>
</g>
<g id="Calque_3" class="st1">
	<path class="st2" d="M99,61.8c7.6,0,13.8,6.2,13.8,13.8c0,7.6-6.2,13.8-13.8,13.8s-13.8-6.2-13.8-13.8C85.2,68,91.4,61.8,99,61.8z
		 M113.9,90.3l-5.2-1.3c-6.5,4.6-14.3,3.6-19.3,0l-5.2,1.3c-4.2,1.1-7.2,4.8-7.2,9.2v8c0,2.6,2.1,4.7,4.7,4.7h34.6
		c2.6,0,4.7-2.1,4.7-4.7v-8C121.1,95.2,118.1,91.4,113.9,90.3z M126.3,92.8c5.1,0,9.2-4.1,9.2-9.2s-4.1-9.2-9.2-9.2
		c-5.1,0-9.2,4.1-9.2,9.2S121.2,92.8,126.3,92.8z M71.7,92.8c5.1,0,9.2-4.1,9.2-9.2s-4.1-9.2-9.2-9.2c-5.1,0-9.2,4.1-9.2,9.2
		S66.6,92.8,71.7,92.8z M74.8,107.5v-8c0-2.2,0.6-4.2,1.7-6c-3.9,1.9-8.3,1.1-11.2-1l-3.5,0.9C59,94.1,57,96.6,57,99.5v5.3
		c0,1.7,1.4,3.2,3.2,3.2h14.7C74.9,107.8,74.9,107.7,74.8,107.5z M136.2,93.4l-3.5-0.9c-3.7,2.6-8,2.5-11.3,0.9
		c1.1,1.8,1.7,3.8,1.7,6v8c0,0.2,0,0.4,0,0.5h14.7c1.7,0,3.1-1.4,3.1-3.2v-5.3C141,96.6,139,94.1,136.2,93.4L136.2,93.4z"/>
</g>
<g id="Calque_4">
	<path class="st3" d="M99,56c12.1,0,21.9,9.8,21.9,21.9S111.1,99.8,99,99.8S77.1,90,77.1,77.9S86.9,56,99,56z M124.1,101.6l-9.7-2.4
		c-10.2,7.4-22.7,5.7-30.6,0l-9.7,2.4c-5.8,1.5-9.9,6.7-9.9,12.7v5.1c0,3.6,2.9,6.6,6.6,6.6h56.9c3.6,0,6.6-2.9,6.6-6.6v-5.1
		C134,108.4,129.9,103.1,124.1,101.6L124.1,101.6z"/>
</g>
<g id="Calque_1">
	<title>Fichier 2</title>
	<g id="Calque_2_1_">
		<g id="Calque_1-2">
			<polyline class="st4" points="916,-91.2 916,235.8 -536,235.8 -536,-91.2 			"/>
			<path class="st5" d="M158,30.6V149H39.6V30.6H158 M159,29.6H38.6V150H159V29.6z"/>
			<g class="st6">
				<polyline class="st7" points="39,29.8 -41.5,-68.7 -263,161.8 -474.5,-76.7 				"/>
				<polyline class="st7" points="-246.5,-68.7 -63.5,30.3 39,235.8 158.5,150.3 227.5,212.3 346.5,212.3 423.5,150.3 423.5,77.3 
					508.5,1.3 				"/>
				<polyline class="st7" points="112.5,-16.7 -63.5,30.3 -41.5,-68.7 				"/>
				<line class="st7" x1="-263.5" y1="161.3" x2="-247" y2="-69.2"/>
				<line class="st7" x1="38.5" y1="150.3" x2="-166.5" y2="212.3"/>
				<polyline class="st7" points="227.5,-39.7 158.5,29.3 112.5,-16.7 91.5,-91.7 				"/>
				<line class="st7" x1="158.5" y1="29.3" x2="91.5" y2="-91.7"/>
				<polyline class="st7" points="588.5,49.3 423.5,77.3 609.5,192.3 				"/>
				<polygon class="st7" points="423.5,150.3 491.5,192.3 467,235.8 				"/>
				<polygon class="st7" points="-166.5,212.3 -63.5,30.3 -263.5,161.3 -315,235.8 -493,174.8 -263.5,161.3 				"/>
				<circle class="st5" cx="508" cy="2.8" r="4"/>
				<circle class="st5" cx="589" cy="49.8" r="4"/>
				<circle class="st5" cx="609" cy="192.8" r="4"/>
				<circle class="st5" cx="228" cy="-40.2" r="4"/>
				<circle class="st5" cx="-64" cy="29.8" r="4"/>
				<circle class="st5" cx="-167" cy="211.8" r="4"/>
			</g>
		</g>
	</g>
</g>
</svg>
