<?xml version="1.0" encoding="utf-8"?>
<!-- Generator: Adobe Illustrator 22.1.0, SVG Export Plug-In . SVG Version: 6.00 Build 0)  -->
<svg version="1.1" id="cd82e87a-b339-48cb-908f-98a0b8271f7b"
	 xmlns="http://www.w3.org/2000/svg" xmlns:xlink="http://www.w3.org/1999/xlink" x="0px" y="0px" viewBox="0 0 235 235"
	 style="enable-background:new 0 0 235 235;" xml:space="preserve">
<style type="text/css">
	.st0{fill:#2E3031;}
	.st1{fill:#2D3233;}
	.st2{fill:#FFFFFF;}
	.st3{clip-path:url(#SVGID_2_);fill:#FFFFFF;}
</style>
<title>cards</title>
<rect class="st0" width="235" height="235"/>
<g>
	<circle class="st1" cx="117.8" cy="117.7" r="114.2"/>
	<path class="st2" d="M117.8,5.5c62,0,112.2,50.2,112.2,112.2s-50.2,112.2-112.2,112.2S5.5,179.7,5.5,117.7S55.8,5.5,117.8,5.5
		 M117.8,1.5c-31,0-60.2,12.1-82.2,34c-22,22-34,51.1-34,82.2s12.1,60.2,34,82.2c22,22,51.1,34,82.2,34s60.2-12.1,82.2-34
		c22-22,34-51.1,34-82.2s-12.1-60.2-34-82.2C178,13.6,148.8,1.5,117.8,1.5L117.8,1.5z"/>
</g>
<g>
	<g>
		<path class="st2" d="M55.8,187.5c-1.6-22-3.3-44-4.9-66c-0.4-5-0.5-10.1-1-15.1c-0.2-2.1,0.6-3.2,2.4-3.7c2.6-0.8,5.2-1.5,7.9-2.1
			c2.5-0.6,2.8-0.9,2.6-3.4c-0.6-7.5-1.4-15-2-22.6C59.3,53,64.9,33.9,81.7,19.3c12.5-10.9,27.2-16.2,44-12.9
			c10.4,2,19,7.3,25.5,15.7c4.3,5.5,6.8,12,7.8,18.7c1.4,9.3,1.9,18.8,2.7,28.2c0.1,1.3,0.2,2.5,0.2,3.8c0.1,1.7,0.2,3.9,2.1,4.2
			c24.6,3.1,4.7,4.7,6.9,7.2c0.3,0.4,6.4-0.8,0,1.8c-0.6,0.3-1,1.1-1.6,1.4c-8.7,4.7-17.9,6.4-27.7,4.3c-2.5-0.6-2.6-0.7-1.8-3.1
			c0.5-1.5-0.5-1.3-1.3-1.4c-5-0.6-9.9-1.1-14.9-1.6c-0.3,0-0.6-0.1-0.9-0.2c0.3-0.2,0.6-0.4,1-0.5c5.5-1.4,10.9-3,16.5-4.2
			c2-0.5,2.9-1.3,2.7-3.4c-1-11-1.6-22-3-32.9c-1.4-10.5-10.2-17.9-20.7-18.2c-15-0.5-26.1,6-33.3,19.1c-5.2,9.3-7,19.3-5.7,29.8
			c1,7.9,2.1,15.8,3.2,23.7c0.1,0.7,0.3,1.4,0.5,2.1c0.9,2.6,0.6,3.5-1.7,4.9c-0.9,0.5-1.9,1-2.9,1.1c-6.4,1-12.9,1.6-19.2-0.8
			c-1.8-0.6-3.7-0.9-5.5-1.2c-0.5-0.1-1,0.1-1.5,0.2c0.1,0.6,0.1,1.2,0.4,1.6c1.5,2.3,3.7,4,6.3,5c1.8,0.7,2.4,1.7,2.5,3.7
			c0.4,8.5,1,17,1.7,25.4c0.9,11.8,1.9,23.6,2.7,35.5c1,14.1,1.9,28.3,2.9,42.4c0,0.4,0,0.8,0.1,1.3c0,1.3-0.6,1.9-1.7,0.9
			c-3.3-2.8-6.5-5.6-9.7-8.6c-0.6-0.6-0.8-1.7-0.9-2.6C56.8,202.4,56.3,195,55.8,187.5C55.7,187.5,55.7,187.5,55.8,187.5z
			 M114.7,9.6c-7.9,1-15.6,3.9-22,8.7c-5,3.8-9.8,7.9-14.6,12c-1.3,1.1-2.5,2.6-3.5,4.1c-1.7,2.7-3.6,5.6-3.6,8.9
			c0,1.3,0.9,2.5,1.5,3.8c0.6-0.8,1.3-1.6,1.8-2.5c3.8-5.9,7.5-11.9,12.6-16.8c2.1-2,4.4-3.8,7.6-4c1.4-0.1,1.9,0.4,1.1,1.6
			c-0.6,0.9-0.9,1.4,0,2.4c1.2,1.3,0.9,1.5-1,1.9c-1.4,0.3-3,0.5-4,1.3c-4.3,3.5-7.6,7.8-10.2,12.6c-2.4,4.4-4.7,8.8-7.3,13.1
			c-1.1,1.8-2.3,3.4-2.2,5.7c0.1,1.2-0.6,2.3-2,2.4c-1.3,0.1-1.7,0.8-1.8,2.1c-0.2,2.9-0.7,5.7-1,8.6c-0.1,1.1,0,2.3,0.1,3.4
			c0,0.2,0.3,0.4,0.4,0.6c0.1-0.2,0.3-0.3,0.3-0.5c0.2-0.4,0.2-0.8,0.4-1.2c0.2-0.3,0.6-0.5,0.9-0.8c0.2,0.3,0.4,0.7,0.5,1
			c0.4,2.9,0.6,5.8,1,8.7c0.6,4.7,1.2,9.3,1.8,14c0.1,0.5,0.8,1.4,0.9,1.4c2.5-1,2.7,1,3.4,2.5c0.2,0.4,0.7,1,1,1
			c0.5,0,1.2-0.4,1.5-0.8c0.3-0.3,0.4-1,0.4-1.5c0.2-6.9,0.6-13.8,0.6-20.8c0-6.5-0.9-12.9-0.2-19.5c1-8.5,3.3-16.3,8.6-23.2
			c5-6.5,8.4-8.6,15.3-12.7c0.1-0.1,0.2-0.1,0.3-0.2c1.1-2.1,3.5-1.7,5.2-2.6c0.8-0.4,1.6-0.8,2.4-1.1c0.4-0.2,0.9-0.3,1.4-0.3
			c1.5,0,3.1,0,4.6,0.1c3.8,0.1,7.6-0.9,11.4,0.2c1.3,0.4,3-1.2,2.4-2c-0.7-0.9-2.4-1.5,0-2.3c0,0,0-0.8-0.3-1.1
			c-1.5-1.7-2-0.4-2.6,0.9c-0.3,0.5-1,0.8-1.5,1.2c0-0.5,0.3-1.2,0.1-1.6c-0.3-0.7-0.9-1.7-1.5-1.8c-1.1-0.1-2,2.5-1.4,3.6
			c0.2,0.3,0.2,0.8,0.3,1.1c-0.6-0.1-1.6-0.2-1.6-0.4c-0.1-1.1-0.1-2.2,0.2-3.2c0.3-0.8-0.4-2.4,1.3-2.4c5.1,0.1,10.3,0.3,15,2.4
			c2.7,1.1,5.1,2.9,7.6,4.4c0.2,0.1,0.6,0.1,0.9,0.2c-0.1-0.3,0-0.6-0.2-0.8c-0.8-1.1-1.6-2.2-2.6-3.1
			C136.2,10.7,126.1,8.2,114.7,9.6z M153.7,80c1.6-0.3,2.6-0.5,3.5-0.8c2.3-0.7,2.5-1.2,2.3-3.6c-0.2-1.7-0.3-3.3-0.2-5
			c0.2-3.8,0.9-7.6,0.7-11.4c-0.2-5-0.9-10-1.5-14.9c-0.3-2.3-0.9-4.5-1.6-6.7c-0.4-1.1-0.9-2.4-1.8-3.1c-4.3-3.5-8.7-6.8-13.2-10.1
			c-1.5-1.1-3.3-1.8-4.9-2.7c-0.9-0.5-1.6-0.3-2.1,0.6c-0.3,0.5-0.7,1-1.2,1.5c-1,1-1,1.5,0.4,2.2c2.1,1,3.9,2.3,5.8,3.6
			c0.4,0.3,0.9,1.3,0.8,1.5c-1.3,1.6,0.1,2.7,0.6,4c1,2.6,2.1,5.3,3.1,7.9c0.9,2.4,1.9,4.8,2.8,7.2c0.1,0.3,0.1,0.9-0.1,1.1
			c-1.3,1.2-0.9,1.7,0.7,2c0.3,0.1,0.4,1.1,0.5,1.7c0.2,2.8,0.4,5.6,0.7,8.5c0.5,5,1,10,1.5,15c0.1,1.1,0.5,1.5,1.5,1.5
			C152.7,80,153.6,80,153.7,80z"/>
	</g>
	<g>
		<defs>
			<path id="SVGID_1_" d="M61.4,113.6l7.9,107.8c0,0,45.2-5.9,75.6-14.1c30.3-8.1,40.8-18,40.8-18s-5.4-75.4-6-87.6
				c-0.6-12.2-2.4-18.3-2.4-18.3s-18.1,9.5-51.1,16.7S61.4,113.6,61.4,113.6z"/>
		</defs>
		<clipPath id="SVGID_2_">
			<use xlink:href="#SVGID_1_"  style="overflow:visible;"/>
		</clipPath>
		<path class="st3" d="M158.5,145l139.3-48.8l-139.5,46.9l138.1-58.2L158,141.2l136.3-67.4l-136.7,65.6L291.4,63L157,137.6
			l130.9-84.9l-131.6,83.2l127.4-93.1l-128.1,91.5l123.2-101l-124.1,99.4L273.3,24.2l-119.6,107L267.1,15.8l-114.5,114L260.4,7.9
			L151.4,128.5L253,0.7L150.1,127.4L245.2-6l-96.4,132.3l88-138.3l-89.4,137.3L228-17.2l-82.1,141.8l72.8-146.4l-74.4,145.7
			l64.8-149.5l-66.4,148.9l56.4-152L141,122.9l47.7-153.9l-49.5,153.6l38.9-155.1l-40.7,154.9l29.9-155.6l-31.7,155.6l20.7-155.5
			l-22.6,155.6l11.5-154.8l-13.3,155l2.2-153.4l-4,153.7l-7.1-151.3l5.3,151.8L112-24.9l14.5,149.2L101-20.9l23.8,146L90.1-16.2
			L123,125.9L79.4-10.7l41.8,137.6L68.9-4.5L119.5,128L58.7,2.4l59.1,126.8L48.9,10l67.4,120.6L39.3,18.1L114.7,132L30.2,26.9
			l83,106.6L21.6,36.3l90.3,98.8l-98.5-89l97.2,90.7L5.7,56.5l103.6,82.1L-1.4,67.3l109.6,73.1L-7.9,78.5l115,63.8L-13.9,90
			l120,54.2l-125.3-42.4l124.5,44.4l-129.1-32.3l128.4,34.4L-27.7,126L104,150.2l-135-11.8l134.5,13.8l-137.1-1.4l136.7,3.5
			l-138.5,9l138.3-7l-139.4,19.4l139.3-17.3L-37,188.1l139.7-27.7l-139.4,39.8l139.4-37.9l-138.4,49.8l138.6-47.9L-34,224
			l137.3-57.7l-134.8,69.1l135.3-67.3l-132.2,78.4l132.7-76.6l-128.9,87.2l129.6-85.5l-125.2,95.7l126-94.1L-15.2,277.1l121.8-102.2
			L-9.5,286.2l117.1-109.9L-3.3,294.8l111.9-117.1L3.6,302.8l106.2-123.8L10.9,310.1l100.2-130L18.8,316.7l93.7-135.6L27.1,322.6
			l86.8-140.5l-78,145.7l79.5-144.9L45,332.2l71.9-148.6L54.5,335.8l64.1-151.7L64.3,338.6l55.9-154.1L74.3,340.6l47.6-155.8
			l-37.3,157l39-156.9L95.2,342.2L125.5,185l-19.7,156.8l21.5-156.9l-10.7,155.7l12.5-155.9l-1.7,153.9l3.6-154.3l7.3,151.5
			l-5.4-152L149,332.1l-14.4-149l25.1,144.7l-23.3-145.4l33.9,140.3l-32.1-141.2l42.6,135.4l-40.8-136.4l51.1,129.9l-49.4-131
			l59.3,123.9l-57.7-125.1l67.4,117.3l-65.8-118.6L220,287.1l-73.6-111.7L229,278.1l-81.1-104.3l89.7,94.9l-88.3-96.5l96.5,86.6
			l-95.1-88.3l102.8,77.9l-101.6-79.7l108.7,68.9l-107.6-70.8l114.2,59.7L154,165.1l119.2,50.2l-118.3-52.1l123.7,40.5l-122.9-42.5
			l127.7,30.7l-127-32.7l131.2,20.7l-130.5-22.8l134.1,10.7l-133.6-12.7l136.4,0.6l-136-2.7l138.2-9.4L158.3,151l139.4-19.4
			L158.5,149l139.9-29.4L158.5,147l139.9-39.2L158.5,145z M134.3,154.1l0.6,8.7l2.5-0.8c0.5-0.2,1,0.2,1,0.7l0.2,3.4
			c0,0.6-0.4,1.2-0.9,1.3l-2.5,0.8l0.2,3.4l0.6-0.2c0.5-0.2,1,0.2,1,0.7l0.1,1.4c0,0.6-0.4,1.2-0.9,1.3l-1.6,0.5L133,176l-3.8,1.2
			c-0.5,0.2-1-0.2-1-0.7l-1.5-20.1c-4.5-0.4-8-3.9-8.4-9.3c-0.5-6.9,4.3-14,10.6-16c6.4-2,11.9,2,12.4,8.8
			C141.7,145.4,138.8,151.1,134.3,154.1z"/>
	</g>
</g>
</svg>
