<?xml version="1.0" encoding="UTF-8" standalone="no"?>
<svg
   xmlns:dc="http://purl.org/dc/elements/1.1/"
   xmlns:cc="http://creativecommons.org/ns#"
   xmlns:rdf="http://www.w3.org/1999/02/22-rdf-syntax-ns#"
   xmlns:svg="http://www.w3.org/2000/svg"
   xmlns="http://www.w3.org/2000/svg"
   xmlns:sodipodi="http://sodipodi.sourceforge.net/DTD/sodipodi-0.dtd"
   xmlns:inkscape="http://www.inkscape.org/namespaces/inkscape"
   inkscape:version="1.0beta1 (76ce730, 2019-10-19)"
   sodipodi:docname="Logo Maif 2019.svg"
   viewBox="0 0 500 391.99999"
   height="392"
   width="500"
   xml:space="preserve"
   id="svg10"
   version="1.1"><metadata
     id="metadata16"><rdf:RDF><cc:Work
         rdf:about=""><dc:format>image/svg+xml</dc:format><dc:type
           rdf:resource="http://purl.org/dc/dcmitype/StillImage" /><dc:title></dc:title></cc:Work></rdf:RDF></metadata><defs
     id="defs14" /><sodipodi:namedview
     inkscape:current-layer="g18"
     inkscape:window-maximized="0"
     inkscape:window-y="23"
     inkscape:window-x="0"
     inkscape:cy="144.25118"
     inkscape:cx="165.66894"
     inkscape:zoom="1.4"
     showgrid="false"
     id="namedview12"
     inkscape:window-height="784"
     inkscape:window-width="1440"
     inkscape:pageshadow="2"
     inkscape:pageopacity="0"
     guidetolerance="10"
     gridtolerance="10"
     objecttolerance="10"
     borderopacity="1"
     inkscape:document-rotation="0"
     bordercolor="#666666"
     pagecolor="#ffffff" /><g
     transform="matrix(1.3333333,0,0,-1.3333333,-234.33106,706.77118)"
     inkscape:label="Logo Maif 2019"
     inkscape:groupmode="layer"
     id="g18"><path
       d="M 443.74003,530.0784 175.7483,288.78056 550.74831,236.07839 Z"
       style="opacity:1;fill:#ed2131;fill-opacity:1;fill-rule:nonzero;stroke:none;stroke-width:1.68524;stop-opacity:1"
       id="path122"
       inkscape:connector-curvature="0" /><g
       id="g180"><path
         d="m 421.13696,309.57899 h 21.36559 v 73.50126 h -21.36559 z"
         style="fill:#ffffff;fill-opacity:1;fill-rule:nonzero;stroke:none;stroke-width:1.68524"
         id="path124"
         inkscape:connector-curvature="0" /><path
         inkscape:connector-curvature="0"
         id="path128"
         style="opacity:1;fill:#ffffff;fill-opacity:1;fill-rule:nonzero;stroke:none;stroke-width:1.68524;stop-opacity:1"
         d="m 368.24069,383.07924 -26.42134,-73.50127 h 23.81426 l 3.88281,12.09994 h 20.56341 l 3.88113,-12.09994 h 23.81595 l -26.41966,73.50127 z m 5.13495,-44.34849 6.3753,23.3084 6.4663,-23.3084 z" /><path
         id="path168"
         style="opacity:1;fill:#ffffff;fill-opacity:1;fill-rule:nonzero;stroke:none;stroke-width:2.24699;stop-opacity:1"
         d="M 183.76367 195.99805 L 161.73242 243.81055 L 139.63867 196 L 105.69531 226.56445 L 105.69727 293.99805 L 133.35742 293.99805 L 133.35742 238.82617 L 152.30859 279.2168 L 170.33594 279.2168 L 189.28516 238.82617 L 189.28516 293.99805 L 216.94531 293.99805 L 216.94531 195.99805 L 183.76367 195.99805 z "
         transform="matrix(0.75000002,0,0,-0.75000002,175.7483,530.0784)" /><path
         id="path173"
         style="opacity:1;fill:#ffffff;fill-opacity:1;fill-rule:nonzero;stroke:none;stroke-width:2.24699;stop-opacity:1"
         d="M 366.47461 195.99805 L 366.47461 294 L 394.96289 294 L 394.96289 256.36523 L 430.85938 256.36523 L 434.69336 233.0918 L 394.96289 233.0918 L 394.96289 219.27539 L 437.13281 219.27539 L 428.66016 195.99805 L 366.47461 195.99805 z "
         transform="matrix(0.75000002,0,0,-0.75000002,175.7483,530.0784)" /></g></g></svg>
