<?xml version="1.0" encoding="utf-8"?>
<!-- Generator: Adobe Illustrator 23.0.1, SVG Export Plug-In . SVG Version: 6.00 Build 0)  -->
<svg version="1.1" id="Calque_2" xmlns="http://www.w3.org/2000/svg" xmlns:xlink="http://www.w3.org/1999/xlink" x="0px" y="0px"
	 viewBox="0 0 235 235" style="enable-background:new 0 0 235 235;" xml:space="preserve">
<style type="text/css">
	.st0{fill:#343736;}
	.st1{fill:#FFFFFF;}
</style>
<rect x="-41.9" y="-1.6" class="st0" width="320.3" height="236.6"/>
<g id="eaf30827-8731-4280-a887-16bde3e61460">
	<g id="bdd1a9ec-8a1b-4760-ab5a-16b2bf34bd11">
		<path class="st1" d="M66.8,103.8c0,0-17.4-6.7-30.5-16.1S12.9,60.5,12.9,60.5s-7,9.2-17.4,6.7c-10.4-2.5-14.6-6.6-14.6-6.6
			s6.2,10.3,9.5,16.1s-0.9,3.9-0.9,3.9s9.5,6,6.1,11.8c-3.3,5.9-1.3,3.8-4.8,14.1s0.5,15-0.8,19.9c-0.8,2.9-1.9,5.6-3.4,8.1
			c0,0,12.8-0.5,12,4c-0.8,4.5-7.5,16.2-7.5,16.2s5.1-2.1,7.6,2.6c1.5,2.8,3.9,5.1,6.8,6.5c0,0,5,4.8,11.8,0.1
			c6.8-4.7,29.9-39.9,34.7-42.7s15.1-11.8,15.1-11.8L66.8,103.8z"/>
		<path class="st0" d="M61.5,104.8c0,0-22.7-4.2-38.3-9.8s-33.9-14.6-33.9-14.6c7.5,6.1,15.9,10.9,24.9,14.3
			c15.2,5.8,40.1,14.9,40.1,14.9L40,110.5l1.3,4.5l-19.5,4l25.2-2.2l5.1-1.5l-3.7,4.7c0,0-16.7,2.8-31.6,6.6s-30.3,7.8-30.3,7.8
			s7,3.2,8.1,6.3s-3.7,14-3.7,14L38,131l-5.1,6.9l-21.8,12.9l23.3-9.9c0,0-7.4,6.2-9.8,10.9s-13.6,11.8-19.2,12
			c-5.7,0.2,9.4,3.2,9.4,3.2s7.9,3.6,19.2-16.5c7-12.2,16.7-22.7,28.2-30.7l10.2-12.6c0,0,0-1-13.1-6.8
			c-13.1-5.8-25.7-14.8-32.4-21.1c-6-5.7,1.6,7.6,13.2,14.6C47,98,54.1,101.7,61.5,104.8z"/>
		<path class="st0" d="M12.9,60.5c-3.9,4.3-9.9,10.3-15.9,10c-2.2-0.1-7.2-0.4-9.1-1.3c-2.5-1.2-2.8-4.4-4.5-6.8
			c-0.9,2.6,3.1,4.8,3.6,8.4c-2-3.3-4-6-6.2-10.3C-9.7,63.2-0.1,68.8,12.9,60.5z"/>
		<path class="st0" d="M-7.5,101.2c-0.2,3,0.8,6.3,0.6,9.5c-0.2,2.8-0.4,5.5-0.6,8.2c-0.2,2.8-0.8,5.5-1.1,8.3
			c-0.2,2.6,0.9,5.6,0,8.1c-1.3-0.3-3.8-0.3-4.9-0.8c0.6-2.5,3.2-5.6,3.4-8.1c0.2-2.3-0.7-4.6-0.7-6.9c0-2.6-0.3-6.2,0.5-8.8
			C-9.5,107.7-9.1,105.7-7.5,101.2z"/>
		<path class="st0" d="M27,86.5c0.9,0.1,1.8,1.2,2.6,1.8c1,0.8,2,1.5,3.1,2.2c2.7,1.9,5.3,4.2,8.2,5.7c1.2,0.6,2.5,1.2,3.8,1.8
			s1,0.5,1.2,1.7c0.3,2.2,0.1,3.6-1.6,5.1c1.2,1.6,3.6,1.5,3.5,4.1c-0.1,1.6-0.6,3-2.2,3.2c-1.9,0.2-3.8-0.1-5.5-1
			c-4.2-2-8.5-3.1-12.9-4.4c-3.9-1.2-8-2.7-12.1-3.4c-2.8-0.5-5.6-0.8-8.3-1.1c2.3,1.1,4.7,1.9,7.2,2.2c2.2,0.3,4.3,0.7,6.5,1.2
			c4.9,1,9.7,2.4,14.3,4.2c2.8,1.1,3.9,3.7,4.4,6.6c0.2,1.7,0.3,3.5,0.3,5.2c0,1.7-0.7,3-1,4.6c-0.7,3.2,2.7,6.3,0.2,9.4
			c1.7-0.6,3.1-2.8,4.2-4.3c1.9-2.5,5.3-4.4,8.1-5.7c3.4-1.5,6.5-4.1,9.4-6.4c2-1.6,3.4-3.7,4.1-6.1c0.7-1.9,2.1-3.9,1.2-5.9
			c-0.7-1.8-2.1-3.2-3.9-3.8c-2.6-1.1-5-2.6-7.6-3.7c-1.8-0.8-3.7-1.4-5.4-2.3c-2.1-1.1-3.9-2.6-6-3.6c-2-0.9-3.9-2-5.8-3.2
			c0.8,0.3,1.5,1.2,2.3,1.7c0.8,0.5,1.8,0.9,2.7,1.3c0.8,0.4,1.6,0.9,2.2,1.6c1.7,2.3-4.7,0.4-5.8-0.1c-2.2-1.1-4.3-2.4-6.3-3.9
			c-1-0.5-1.9-1.2-2.6-2C28.6,88.3,28,87.6,27,86.5z"/>
		<path class="st0" d="M44.3,93.4c1.4,1.7,2.6,3.1,2.7,5.4c0.1,0.8,0.1,1.6-0.1,2.4c-0.5,0.9-2.3,0.5-2.4,1
			c-0.7,1.9,1.6,2.5,1.3,4.8c-0.2,1.9-1.7,2.6-2.8,3.8c-2,2.1-1.3,1.4-1.2,3.9c0.1,2.3,0.5,3.1-1,5c-2.7,3.4-6.7,1.7-6.7,7
			c0,5.5,2.4,9.8-2.2,13.7c3.4,4.5-8.2,9.8-11.1,10.8c-5.2,1.6-14.3,4.1-16.8,9.5c4.9,1.8,12.1-1.1,16.4-3c2.8-1.2,6.9-2.4,9-4.8
			c2-2.3,3.2-5.7,4.5-8.4c3-6.6,4.2-12.8,10.2-17.4c5.1-3.8,11.8-8.9,13.7-15.3c1.4-4.7-1.1-7.7-3.9-11.3
			C51.8,97.8,49.9,93.7,44.3,93.4z"/>
		<path class="st1" d="M101.2,16.5c0,0-2.3-2.3-10.6,0s-22.4,9-30,23.9C54.3,52.9,51,68.9,52,81.8c1,12.9-3.5,33.8-11.8,37.7
			c-8.3,4-6.6,18.5-8.6,22.8s3.5,4.7-6.8,6.7c-9.2,1.9-11.6,6.2-16.9,18.1c-3.1,7-3.3,15.6,2.7,22.2s7.9,10.9,3.6,15.2
			c-4.3,4.3,0,10.3,0,10.3s0.3-8.6,5-10.9s5-11.3,3.3-13.9s-5.4-8-3.3-12.2c4.3-8.6,16.9-9.9,16.9-9.9l0.4,17.5c0,0-0.3-8.3,5-13.9
			c5.3-5.6,13.6-12.6,13.6-12.6S41,169.8,38,178.1c-3,8.3-16.2,24.2-16.9,34.8c-0.6,10.6,7.3,30.8,7.3,30.8h166
			c0,0,14.2-60.9,6.3-69.5c-8-8.6-11.3-18.5-13.9-30.1c-1.3-5.6-7.3-9-7.3-9c3.3,0,6.6,0.7,9.6,2c6.7,3.3,11.1,4.6,8.9,10.9
			c-2,6,0.7,14.9,0.7,14.9s4.4-14.2,2.3-21.6c-1.1-3.9-4.3-10.6-8.9-13.2c-4.6-2.6-14.2-3.3-17.6-7c-3.3-3.6-9.3-14.5-9-28.4
			s3.3-26.2-4-44.7c-7.3-18.5-14.2-26.3-30.1-32.5s-24.5-1.6-24.5-1.6L101.2,16.5z"/>
		<path class="st0" d="M96.8,17.4c-5.1,0.7-8.9,8.4-11.6,12.1c-0.5-1.3,1.8-3.5,2.5-4.5c-1.5-0.1-3.6,1.5-4.9,2.2
			c-1.6,0.9-3.1,1.9-4.5,3c-1.9,1.3-4.2,2.6-5.7,4.3c-1.1,1.3-2.2,2.7-3.4,3.9c1.2-1.7,2.6-3.3,4.3-4.6c1-0.8,1.9-1.6,2.8-2.5
			c2.1-2.2,4.4-4.2,6.9-5.9c2.2-1.5,4.7-2.5,6.7-4.2c2.3-1.9,4.1-3.6,7.2-4.1c1.1-0.2,2.3-0.2,3.4-0.2c2.7,0.3,1.5,1.3-0.3,1.9
			c-2.9,1.1-5.4,2.8-7.5,5.1c-2,2.6-3.1,5.7-3.3,8.9c-0.2,3.6,1.2,6.2,3,9.1c1.8,2.9,3.6,5.8,6.2,8.2c2.7,2.4,5.9,3.9,9,5.5
			c-1.6-0.1-4.5-1.3-6.3-2.1c-2.5-1.1-4.9-2.4-6.7-4.6c-2.9-3.7-6.1-8.1-6.8-12.8c-0.2-1.3-0.7-4.8-2.7-3.2c-0.6,0.5-0.9,2.3-1.2,3
			c-0.4,1.4-1.3,2.7-2.5,3.6c-3,2.2-6.2,4.1-9.2,6.2c-1,0.7-2.5,1.5-2.9,2.8c-0.3,1,0.1,2.5,0,3.6c-0.4,2.5-1.4,5-2.9,7.1
			c-1.5,2.4-3.4,3.9-3,7c0.2,4,1.3,14,1.1,15.2c-0.7,3.8-0.6,8.5-0.3,12.4c0.1,2,0.8,3.8,1,5.6c0.4,2.6,1.1,5.1,2.1,7.5
			c1.7,4.4,4.5,9.5,8.1,12.6c3.3,2.9,5.9,7.2,7.6,11.2c0.6,1.4,1.5,2.6,1.9,4c0.4,1.4,0.8,3.2,0.9,4.7c0.4,3.2-0.6,6.2-1.4,9.2
			c-0.4-2.8,0.1-5.9-0.1-8.8c-1.6,0.9-2.7,2.9-3.6,4.5c-1.2,2.1-3.9,2.4-5.3,4.4c-0.9,1.2-1.2,2.7-2.1,3.9c-1.4,2-3.1,2.8-5.3,3.7
			c0.3-1.3,0.7-2.5,1.2-3.8c0.5-0.8,0.9-1.6,1.2-2.4c0.2-0.8-0.1-1.5,0.1-2.2c0.3-1,1.2-1.7,1.5-2.8c0.2-0.9,0.1-1.8,0.3-2.7
			c0.3-1.6,0.9-3.1,1.2-4.7c-2.5,3.2-6.3,4.8-9.6,7c-1.4,0.9-2.4,2-3.8,2.9c4.6-1.7,6.6-5,7-9.8c0.3-4,0.3-7.9,0.2-11.9
			c-1.1,0.9-1.4,3-2.2,4.2c-1.6,2.4-3.8,3.9-5.9,5.7c-2.1,1.8-4.4,4-7.1,4.9c1.6-0.8,4-2,4.9-3.6c0.7-1.3,0.3-3.7,0.3-5.1
			c0-2.8,0.4-5.4,0.7-8.1c0.1-2.5,0.4-5,0.8-7.5c0.5-2.1,1.1-4.5,1.4-6.6c0.8-5.2,1.5-10.6,0.7-16c-0.4,1.2-0.6,2.4-0.8,3.6
			c-0.5,2.1-1.5,4.2-1.5,6.3c0.3-5.2,1.5-9.9,2.2-14.9c0.5-3.6,1.1-7.2,0.3-10.8c-1.3-6.6-0.3-14.1,1.9-20.1c1.3-3.5,2.8-6.8,4.7-10
			c-1.9,1.7-2.8,4.4-4.7,6.2c0.6-8.9,9-10.5,14.4-15.6c2.9-2.8,4.6-6.8,7.8-9.4"/>
		<path class="st0" d="M65.6,103c0.5,1.2,1.3,2.4,1.9,3.7c0.6,1.3,1.2,2.5,1.9,3.7c1.4,2.5,3.4,4.7,5,7.1c1.4,2.1,3.1,4.1,4.7,6.1
			c0.3,0.5,0.7,1,1.1,1.5c0.6,0.4,1.2,0.7,1.9,0.8c1.9,0.6,3.9,0.9,5.9,1.1c0.9,0.1,1.9,0,2.9,0c0.9,0,1.7-0.2,2.6-0.3
			c0.9-0.1,1.8-0.2,2.7-0.5c0.8-0.3,1.5-0.7,2.2-1c1.6-0.7,3.3-1.4,4.5-2.6c1.7-1.8,2.9-3.9,4.6-5.8c1-1.2,2.1-2.3,3.2-3.4
			c0.6-0.6,0.9-0.9,0.6-1.7c-0.4-1.2-0.8-2.4-1.2-3.6c-1.1-3.6-0.6-8,2.7-10.3c0.9-0.6,1.8-1.4,2.7-2.1c0.9-0.7,1.9-1.2,2.7-1.9
			c1.8-1.5,2.7-3.7,2.3-6c-0.1-1.9-1.4-3.6-3.3-4.1c-1.7-0.6-3.5-0.8-5.2-0.6c-0.7,0.1-1.5,0.7-2.3,0.5c0.1-0.4,1.3-0.7,1.8-0.8
			c0.4,0,0.8-0.1,1.3-0.2c0.3-0.2,0.6-0.3,0.9-0.4c2-0.5,4.5-0.2,6.6-0.2c1.5-0.1,3.1,0.1,4.5,0.7c1.2,0.9,2,2.1,2.4,3.6
			c1.4,5.5,0.2,11.4-0.5,16.9c-0.2,1.9-0.4,3.8-0.8,5.6c-0.3,1.4-0.8,2.8-1.3,4.1c-1.5,4-2.1,8.1-5.8,10.7c-1.8,1.1-3.7,2-5.8,2.6
			c-2,0.7-4,1.2-6,1.8c-2,0.6-4.2,1.2-6.2,1.9c-3.1,1-6.3,1.5-9.5,1.5c-1.4-0.1-2.7-0.4-4-0.9c-1.5-0.4-3-1-4.5-1.6
			c-2.2-0.9-4.1-2.3-5.6-4.1c-1.9-2.3-3.8-4.6-5.5-7c-2.4-3-4.4-6.4-5.8-10c-0.4-1.1-0.6-2.2-0.6-3.3C65,103.6,64.9,102.9,65.6,103z
			"/>
		<path class="st0" d="M109.3,56.3c1.4,0.3,3.8,3,4,4.3c0.5,3.1-3.8,1.1-4.8,2.5c-1.4,2,4.2,2.8,5.2,3.3c1.8,0.8,4.7,2.3,5.3,4.4
			c0.8,3.1-3,2.1-4.8,2.2c0,1.2-1.7,4.1-1.1,5.1c0.7,1.1,3.2,1,4.2,1.9c1.3,1.1,1.2,2.9,2.3,4.1s2.7,1.7,3.8,3c1,1.4,2,3.2,3.1,4.6
			c1.4,1.8,3.2,3,4.4,4.9c1.6,2.3,2.8,4.8,3.5,7.4c0.5,2.2-0.5,3.7-1,5.6c-0.7,2.6-1.8,5.1-3,7.5c-0.8,1.6-0.9,4.2-0.9,6
			c0-2.6,1.4-4,2.7-6.1c1.5-2.5,3.6-5.3,4.4-8.2c0.7-2.5,0.9-5.5-0.3-7.9c-1.2-2.4-2.6-4.6-4.1-6.8c-1.5-2-3.2-3.4-4.3-5.6
			c-1.2-2.4-2-5-2.5-7.7c-0.4-2.9-0.6-5.8-0.5-8.7c0.1-3-0.6-5.9-1.9-8.6c-1.2-2.4-3.4-3.6-5.6-5C114.9,57.1,112.1,56.3,109.3,56.3z
			"/>
		<path class="st0" d="M115.8,80.9c1.6,0.8,2.5,2.4,2.5,4.1c0,2.4-1.7,4-3.4,5.6c-1.4,1.4-3.1,2.8-3.8,4.7c-0.8,1.7-1.5,3.4-2.1,5.1
			c-0.7,2.9,0.4,6.9,2.1,9.3c0.8,1.2,1.6,2,3,1.4c2.1-0.9,3.8-3.3,4.9-5.3c1.5-2.2,2.7-4.6,3.8-7.1c0.7-1.9,0.6-3.7,0.9-5.6
			C124.5,87.1,122,80.2,115.8,80.9z"/>
		<path class="st0" d="M97.2,51c-0.1,1.3,1.6,3.5,2.4,4.6c1.3,1.9,3,3.6,4.4,5.3c2.1,2.6,4.3,4.9,5.6,8c1.3,3.4,2.3,6.8,3.1,10.4
			c1.2,5.1-2.1,8.7-4.1,13c-1.9,4.1-2.6,8.6-2.1,13.1c0.8,3.5,2.8,6.7,5.7,8.8c-0.9-0.3-1.8-1.7-2.3-2.4c-0.7-0.9-1.2-1.9-1.5-3
			c-0.8-2.2-1.2-4.5-1.3-6.9c-0.1-2.1,0.2-4.3,1.1-6.2c0.9-2,1.7-4,2.6-6c0.9-1.9,2.3-3.2,3.1-5.1c0.6-1.5,0.9-3.1,1-4.7
			c0.1-1.7-0.6-3.3-1.1-4.9c-1.6-5.6-4.2-11.5-8.4-15.7c-1.8-1.7-3.4-3.5-4.8-5.6c-1.2-2-3.7-3-4.9-4.9C95.9,49.7,96.4,50.5,97.2,51
			z"/>
		<path class="st0" d="M87.7,139c0-2.5,0.6-5,0.3-7.4c1.5,0.1,2.8,0.6,4.3,0.8c2.3,0.2,4.8,0.2,7.1,0.5c2.2,0.3,5.2,0.6,7,1.9
			c1.8,1.3,1.8,3.4,1.6,5.4c-0.1,1.1-0.5,2.1-1.1,3c-0.5,0.7-1.6,1.5-1.9,2.3c3.3,0.2,5.5-1.9,7.9-3.8c1.4-1,2.8-2.2,4-3.4
			c1.1-1.1,3.4-2.7,3.8-4.2c-0.3,2.4-2.2,4.4-3.5,6.3c-1.4,2.1-2.8,4.3-4.3,6.4c-1.1,1.6-2.3,3-3.5,4.5c-1.2,1.5-2.4,2.6-3.5,3.9
			c1.1,0.4,4.5-3.4,5.5-4.2c1.5-1.1,2.8-2.3,3.9-3.7c1.4-1.7,2.8-3.4,4.1-5.1c1.3-1.8,2.5-3.7,3.5-5.7c1.9-3.8,3.3-7.8,4-12
			c0.7-3.9,1.6-7.8,2.5-11.7c0.7-2.7,1.3-5.2,0.8-8.1c-0.2-1.2-0.9-2.8-0.8-4s0.8-0.9,1.1-2c4.4-0.7,2.8,12.1,2.3,14.5
			c2-0.6,2.6-3.7,2.8-5.4c0.3-2.1-0.4-3.6-0.8-5.6c-0.2-1.4-0.5-2.7-1.1-3.9c-1-1.6-2.2-3.2-3.5-4.6c-1.2-1.5-3.1-3.5-4.6-1.4
			c-1.4,1.8-2.4,3.7-3.2,5.8c-0.5,1.5-0.5,3-0.9,4.5c-0.8,2.1-1.4,4.3-1.9,6.4c-0.8,4-1.2,8-4.3,10.7c-3.7,3.2-8,4.6-12.6,6
			c-2.9,0.9-5.9,2.1-9,2.4c-1.7,0.2-3.4,0.1-5.1,0.1c-3,0-6.2-1.9-9.1-1.5c-0.1,2.8,1.3,5.4,2.7,7.7c1.1,1.8,3,3.6,1.6,5.6
			c-0.9,1-1.6,2.1-2.1,3.3c-0.6,1.5-0.8,3-1.3,4.4c-1,2.9-1.3,6-2.2,9c0.1-2.1,2.5-3.3,3.5-5c0.6-1.1,1.4-2.2,2.2-3.3
			c1.5-2.1,1.9-4.5,1.9-7.1c-0.1,1.9,0.6,3.8,1.7,5.3c0.9,1.2,2.7,3.8,4.4,4.1c-1.7-1.8-2.1-3.9-2.8-6.2
			C88.2,142.8,87.7,140.9,87.7,139z"/>
		<path class="st0" d="M83.2,34.7c0.6,3,3.6,6.4,5.3,8.9c1.7,2.5,3,5,4.7,7.4c3.3,4.8,7.9,7.7,12.3,11.4c-1.2-1.1-1.6-2.5-2.3-3.8
			c-0.6-1.1-1.5-2.1-2.1-3.2c-1.1-2-1.9-3.9-3-5.8c-2.4-4.3-6.3-7.5-8.3-12.1c-1-2.4-1.7-4.8-2.1-7.4C86.2,30.1,83.2,32.5,83.2,34.7
			z"/>
		<path class="st0" d="M93.8,36.1c0,7.5,8.1,11.5,13.9,14.6c3.9,2,7.9,3.8,12,5.2c4.1,1.5,5.5,4.7,6.6,8.6s0.6,7.8,0.8,11.8
			c1.5-2.8,1.3-5.9,0.9-9c-0.3-3.1-1.9-5.5-2.4-8.4c1.3-0.2,2.7,2.2,3.4,3.1c1.3,1.7,2.2,3.7,2.7,5.8c0.9,4,0.9,8.2-0.1,12.3
			c-0.7,2.4-1.2,4-0.3,6.4c0.8,1.7,1.7,3.3,2.7,4.9c2.7,4.8,4.3,10.1,4.6,15.6c0.1,2.8,0.2,5-1.3,7.5c-0.9,1.4-1.7,2.9-2.4,4.4
			c-1.6,3.6-2.9,7.3-4,11.1c-2,6.4-6.6,11.9-10.4,17.6c-1.1,1.7-2.4,3.1-3.6,4.8c-1.2,1.6-2.6,3.1-4,4.4c-2.6,3-4.3,6.8-5.5,10.4
			c2.2,0,4.1-0.6,6.2-0.8c3.7-0.3,7.7,0,11.3,0c2.4,0.1,4.8,0.3,7.2,0.7c3.3,0.4,6.8,0.1,10.2,0.1c2.4,0,6.8,0.8,9.2,0
			c0.8-0.2,1.4-0.6,1.7-1.3c1.1-2.2,0.9-5.9,1.3-8.2c0.5-3.4,0.4-6.9,0.6-10.3c0.2-3.9,0.1-7.3,0.7-11.2s0.6-7.6,1.2-11.3
			c0.5-3,0.5-6.2,0.9-9.3c0.5-3.9,0.5-8.3,0.6-12.2c0.2-3.1,0.9-6,0.9-9.2c0-2.3-0.1-3.7,0.7-5.8c0.9-2.4,1.3-5,2.2-7.3
			s2.3-4.3,2.9-6.8c0.6-2.7,0.8-5.5,0.5-8.3c-0.4-5-1.3-10-2.8-14.8c-1.2-3.4-2.5-6.7-4-10c-1.5-3.2-4.2-5.8-5.9-8.9
			c-1.6-2.7-3-5.1-5.6-6.9c-2.6-1.8-5.3-3.6-8-5.6c-5.5-3.9-11.9-6.5-18.6-7.4c-3.5-0.5-8.3-0.8-11.8-0.3c-1.2,0.3-2.4,0.8-3.4,1.5
			c-1.5,0.8-3.3,1.2-4.6,2.3c6-0.9,13.6-2,19.5-0.3c6.7,1.9,15.1,4.3,20.2,9.2c3.2,3.1,5.2,7.6,7.8,11.2c1,1.4,2.2,2.7,3.1,4.1
			c1,1.5,1.8,3.2,2.5,4.9c-2.9-4.8-6.2-9.2-10-13.3c-3-3.2-6.6-5.3-10.5-7.2c3.6,1.4,6.3,7.7,7.7,11c1.7,4.4,4,8.7,6.8,12.5
			c5.7,7.7,10.1,18.8,5.3,27.9c0-1.8,0.8-3.6,0.9-5.5c0-2.6,0.5-5.8-0.3-8.3c-0.8-2.4-3.1-4.9-4.9-6.8c-2.5-2.7-4.8-5.5-7-8.4
			c-3.5-4.7-3.8-10.3-7.2-15.1c-3.6-5-8.3-7-14.4-7.4c3.8,1.4,5.9,4.3,8.1,7.2c-2.3,0-5.4-1.2-7.7-1.6c2.6,1.9,2.9,4.4,4.2,7.1
			c-0.7-0.1-1.5-0.3-2.2-0.6c3.8,5,10.5,7.4,12.9,13.4c0.7,1.9,1.6,3.7,2.8,5.4c1.7,2.1,3.3,3.5,4.6,6c1.9,3.8,3.6,11.1,2.4,15.4
			c-1,3.6-2.4,7-2.3,10.8c0-4.7-1.5-9-1.5-13.8c0-2.9,0.1-5.3-0.9-8c-1.3-2.9-2.8-5.6-4.5-8.2c-1.9-3.2-3.7-5.4-6.9-7.5
			c-3.5-2.2-7.2-4.1-11-5.7c-6.2-2.8-10.7-6-13.8-12.3c1.5,3.6,3.3,7,5.3,10.3c2.5,4.1,6.6,6.1,10.7,8.2c2.6,1.3,7.2,4.1,8.2,7.1
			c-5.2-7.3-15.3-7-22-12.3C102.8,42.5,98.6,38,93.8,36.1z"/>
		<path class="st0" d="M163.6,53.1c0.4,1.7,1.2,3,1.3,5c0.1,2-0.2,3.8,0.5,5.5c1.6,3.8,1.5,8.6,1.5,12.8c0,1.8-0.1,3.5-0.2,5.3
			c-0.2,2.4-1.1,6.5-1.3,8.8c-0.5,4.7,0.8,7.4,1.4,11.8c0.2,2,0.5,3.9,1.1,5.9c0.6,1.7,1.4,3.2,2,4.8c1.4,3.5,3,7.7,6.3,9.9
			c3,2.1,6.9,2.1,10.3,3.1c5.1,1.4,9.1,3.8,11.7,8.6c2,3.5,3.1,7.5,3.2,11.6c-0.2,2.3-0.5,4.6-1,6.9c-0.4,2.7-0.5,5.4-0.8,8.1
			c-0.3,1.3-0.7,2.6-1.3,3.8c-0.2-2.6-0.8-5-0.9-7.5c0-2.5-0.9-4.4-0.7-6.9c0.3-2.4,1.9-5.4,0.2-7.7c-1.6-2.3-5.7-4.5-8-5.8
			c-3.2-1.8-6.3-0.6-9.8-1.5c1.2,0.2,2.4,0.9,3.2,1.8c1.1,1.5,1.9,2.1,3,3.6c2.3,3.2,3.2,9.2,4.6,12.8c1.4,3.4,2.5,6.8,3.8,10.1
			c1.1,2.9,4,5.6,5.2,8.4c-1.3,0-4.2-1.9-5.3-2.6c-2.1-1.4-4.3-2.6-6.6-3.6c-2.2-1-7.6-3.5-7.1-6.5c2.5,2.1,3.6,6.6,3.9,9.8
			c0.3,3.9-1.9,6.8-3,10.5c-1,3.5-3.3,6-5.5,8.8c-1.4,1.7-3.5,2.7-4.8,4.5c-0.5,0.7-0.5,1.4-1.4,2c1.5,0.2,3.2-1.6,4.5-2.4
			c3.3-1.9,3.2-2.7,3.7-6.5c0.7-5.1,1.1-10.3,1.2-15.5c-0.1,3.1-0.7,6.1-1.9,8.9c-1.6,3.6-4.3,5.5-7.3,7.8c-2,1.5-3.8,3.1-5.9,4.5
			c-1.1,0.7-2.5,1.2-3.4,2.3c0.7-1.4,1.3-2.9,1.8-4.4c0.8-2.8,3.2-5.6,3.3-8.6c-2.1,0.9-4.1,2.9-6.1,4.1c-2.4,1.3-4.8,2.5-7.3,3.6
			c2.6-2.1,3.9-5.3,3.5-8.5c-3.1,0.3-6.5,3.9-8.8,5.8c-1.8,1.4-3.1,3.6-4.4,5.5c-1.7,2.4-1.4,5-2.6,7.5c-0.4-1.3-0.3-3-0.6-4.4
			c-0.4-1.9-1.4-3.8-1.4-5.6c-0.1-2.7,0.9-5.4,2.7-7.4c-5.2-0.1-8.6,7.6-9.6,11.6c-0.2,0.8-1.4,4.8-2.3,5.2
			c-0.7,0.3-3.9-1.1-4.8-1.3c-4.1-0.7-8.3-1.1-12.5-1.1h-6.6c-1.9,0-3.1,0.5-4-1.2c-1.8-4-3.1-8.1-3.8-12.4
			c-0.9-5.1,0.6-9.3,3.2-13.5c2-3.3,3.4-7.1,5.6-10.4c0.2,1.5-0.9,2.7-1.5,4c-1.1,2.1-2,4.2-2.7,6.4c-1.6,5-1.5,10.4,0.2,15.4
			c0.6-2.1,0.4-4.4,0.9-6.6c0.5-2,1.1-4,1.9-6c0.9-2.9,3.1-5.2,5.9-6.3c1.3-0.6,2.6-1.1,3.9-1.7c3.2-1.4,5.9-2.3,8.7-4.6
			c3.6-2.8,7.7-4.9,11.3-8c4.3-3.7,6.9-8.6,8.7-13.9c1.3-3.8,2.3-7.2,3.9-10.9c1.8-4,3-8.2,3.7-12.4c0.9-6.6,2-13.1,2.8-19.7
			c1.2-9.4,6.8-17.7,6.8-27.3c0-3.8-0.5-7.9-0.2-11.7C160.1,54.1,163,49.9,163.6,53.1z"/>
		<path class="st0" d="M55.1,105.1c0,8-3.1,16.3-6.7,23.3c1.7-1.3,2.2-3.7,4.1-5c1.3-0.8,2.9-1.1,4.5-0.9c0.2,3.9-3.4,9.8-5.4,13
			c-2.4,3.9-8.2,6.8-9.9,11c1.6-0.3,2.8-1.5,4.4-2c0.1,1.4-0.3,2.8-1.1,3.9c3.9-1.7,10.3-3.5,12.9-6.9c-0.7,3.5-2.2,6.6-2.6,10.2
			c-0.3,3.2-0.2,7.2-1.6,10.1c1.9-6.8,7.2-8.4,12.4-12.3c0.8,4.9-2.7,11.3-4.9,15.3c-2,3.5-3,8.1-3.8,12c-0.4,2.6-1,5.2-1.9,7.8
			c-0.6,1.7-1.5,2.7-1.2,4.6c0.5-3.7,2.8-6.6,4.3-10c1.5-3.4,2.4-5.7,4.7-8.8c1.9-2.5,4-4.9,6.2-7.1c3.1-3.3,7.2-5.7,6.8-10.9
			c0.2,5.2-3.2,9.5-4.7,14.5c-1.3,4.6-2.1,9.3-2.6,14.1c-0.3,3.1-1.2,5.9-0.9,9.1c0.3,3.6,0.9,7.1,1.3,10.7c0-2.5-0.2-5.1,0-7.5
			c0.1-1.4,0.8-6.9,2-7.6c4.2,7.5,7.1,14.8,14.3,20c4.7,3.3,8.7,7.9,12.5,12.1c2.1,2.4,4.3,4.2,5.8,7.1c0.7,1.3,1.2,2.8,2,4.1
			c1.2-4.6-0.3-10.2-0.3-14.9c0-5-0.2-9.1-1.8-13.8c-1.2-3.7-2.5-7-5.2-9.9c-2.9-3.2-7.5-4.8-10.7-8c-6.1-6.1-7.6-15.2-7.2-23.8
			c0.2-4.2,1.4-8.1,2.2-12.2c0.5-3,1.6-8.6-0.1-11.3c-1.7-2.7-6.6-4.8-9.2-6.9c-1.9-1.7-3.5-3.7-4.9-5.8c-2.6-3.8-5.8-7.3-6.4-11.9
			c-2.6,4.5-4.5,7.4-9,9.9C52.6,116.9,53.8,111.8,55.1,105.1z"/>
		<path class="st0" d="M201.9,85.5c-4.1,0.1-7,2.5-11,2.3c-4.6-0.3-9.1-1.8-13.1-4.2c-7.6-4.8-2.3-14.1-7.5-20.6
			c-1.5-1.9-2.6-3.4-4.9-4.7s-5.4-1.7-7.2-3.3c1.9-0.6,4.4-1.1,6.3-2.3c1.7-1.1,3.5-2.9,5.1-4.1c3.4-2.4,8.3-4.2,12.8-3.6
			c4.3,0.7,8.3,2.4,11.7,5.1c4.3,3.7,4,4.9,6.1,8.6c0.1-2.4-1-4.7-1.4-7c-0.3-2.3-0.8-5,0.1-8.4c1.4-5,4.8-8,11-9.5
			c5.4-1.3,9.5-0.4,14.9-2.2c5.7-2,5.9-4.2,9.9-7.6c0.4,1.9,0.6,3.8,0.5,5.7c0,2.2,0.9,4.3,1.5,6.5c1.1,3.9,1.6,5.8,2.5,9.6
			c2,8.6,0,16.7-5,24c2.4-2.7,6.6-5.5,9.6-7.3c5-2.9,10.6-1.8,15.1,1.2c3.7,2.5,5.3,4.7,7.8,8.2c2.7,3.8,5.4,4.8,9.6,6.8
			c-4.7,0.4-9.8-1.4-13.4,3.2c-2.6,3.4-3.5,7.8-5.4,11.6c-4.4,8.7-17.6,17.4-26.6,8.8c-1.6-1.5-3.1-4.4-4.2-6.3
			c-1.3-2.2-2.7-3.5-4-5.6c-5.7,0.6-9.5,8.3-10.7,13.4c-1.4,6,1.4,12.6,2.9,18.6c1.7,7.3,5.9,14.2,8.8,21.2c1.7,4.1,3.2,8,5.2,12
			c2.5,5.2,4.7,10.5,6.4,15.9c2.1,7.1,3.3,14.4,3.6,21.9c0.3,12.2-2.2,19.1-3.6,27.4c-1.6,9.1-4.7,15.5-7.7,24.2
			c-1.6,4.6-5.6,7.5-8.1,11.7c-3.4,5.9-9,4.4-13.8,9c-9.5,9-23.4,13.1-36,16.3c-9.1,2.3-18.1,5.3-27.4,6.2c-11.3,1.1-21-3-32-5.2
			c-10.7-2.1-22.1-4.5-32.3-8.6c-14.3-5.9-29.9-10.5-42.7-19.1c-8.8-5.9-15.5-14.4-22.6-22c10.8-2.7,21.3-5.6,30.9-11.5
			c5.1-3.2,10.5-6.5,15.5-10c4-2.8-13.7,19.4-10.1,16.4c3.9-3.3,19.9,4.1,22.8,0c2-2.9,19.3,11.3,21.1,8.6
			c5.7,14.5,11.4-30.4,24.5-23.3c12,6.6,22.9,13.1,36.7,15.5c14,2.4,30.6,3.8,41-7.5c10.2-11.1-65.7,52.5,3.5-38.4
			c5.7-7.5,6.5-17.2,4.4-28.8c-1.4-7.7-6.5-23-7.8-30.9C193.1,110.3,195.4,97,201.9,85.5z"/>
		<path class="st0" d="M33.2,130.5c0.9,4.4-0.7,11.4-2.7,13.2c-2.7,2.4-5.6,4.2-8.1,6.4c-5,4.2-11.4,11.5-10.9,21.9
			c-0.5-4.2,3-9.1,4.7-11.1c2.4-2.5,5-4.7,7.8-6.8c2.8-2.2,6.1-3.5,8.7-6.3c2.9-3.1,3.4-5.3,3.7-10.8c0.1-4.7-0.2-9.5-1.1-14.2
			C35,124.2,33.5,127.4,33.2,130.5z"/>
		<path class="st0" d="M120.8,179.1c-3.6,0.2-9.1,5-11.9,7.2c-2.3,2-4.8,3.7-7.5,5.2c-5.8,3.2-8.6,5.5-14.1-0.9
			c-2.8-3.3-4.7-11.8-9.7-8.3c-3.9,2.8-4.3,9.2-4.2,13.7c0,6.4,1.9,12.4,2.5,18.6c-8.8-8.3-10.3-22.5-10.1-34.5
			c-0.7,3.8-1,7.1-1.9,10.7c-1.4,5.6-0.5,11.2-1.5,16.8c-2.6-3.3-0.9-12.4-0.9-16.5c0-2.8,0.3-5.6,0.8-8.4
			c-1.9,7.9-9,15.9-13.6,22.4c-1.1-12.5,3.2-23.7,6.9-35.4c0.3,3.2-1.8,8.8-4,10.9c1.8-4.9,3.2-9.8,4.1-14.9c0.5-2.7,0-5.4,0.7-8
			c-3.9,5.6-5.4,12.7-10.5,17.6c1.7-2.8,1.7-5.7,1.9-8.8c-2.6,6.6-6,13.6-10.3,19c-2.4,3-6,4.7-8,7.9c-3.2,5.3-8.6,11.6-8.9,17.6
			c-0.5,8.2,1.2,14.1,5.8,20.4s13.2,7.9,20.5,9.8c17.4,4.5,35.7,5.9,53.4,9c6.6,1.3,13.4,1.3,19.9-0.1c8.4-2,18.2-1.7,27.2-1.7
			c7.1,0,16.7,1.4,23.5-0.9c7.4-2.4,15.5-4.8,22.5-8s15.5-8.3,19.9-14.7c5.2-7.5,10.4-16.3,12-25.5c1.2-6.8-0.5-13.5-2.1-19.9
			c-1.4-5.6-5.4-5.9-10.4-6.3c-6.3-0.5-12.5-3.2-18.3-5.3c-5.8-2.2-8.1-2.7-12.7-6.6c-3.5-2.9-8.1-2.6-12.5-2.7
			c-7.7-0.2-13.1,1.2-20.5,3.7C138.8,166,130.6,174.4,120.8,179.1z"/>
		<path class="st0" d="M178.3,132.4c8-1.4,9.8,11.4,13.1,15.6c2.1,2.7,4.1,5.3,6.1,8c2,2.8,2.4,5.3,3,8.8c0.7,3.8,1.2,7.5,0.6,11.3
			c0-3.8,0.9-7.6-0.5-11.1c-1.6-3.8-3.8-7.3-6.6-10.4c-3.2-3.6-6.5-6.7-9.3-10.6c-1.6-2.2-2.9-4.6-4.7-6.7
			C178.6,135.8,176.8,135.1,178.3,132.4z"/>
		<path class="st0" d="M164.1,64.9c0.5,4.8,3,9,3.8,13.7c0.8,4.2,1.2,8.4,1.3,12.6c0,4.2-1.1,9.3,0.5,13.2c1.7,4.3,6.2,6.4,8.2,10.4
			c2.4,4.7,0.5,9.6-1.1,13.8c4-2.3,5.1-8.7,4.3-13c-1.1-5.7-6.1-9-8-14.1c-1.8-4.8-2.3-10.1-2.8-15.1c-0.2-2.4,0.3-4.9,0-7.3
			c-0.3-2.8-1.5-5.6-2.2-8.3c-0.7-2.9-1.2-6-2.2-9c-0.6-2-1.2-6.1-2.8-7.3C162,57.4,161.8,62.7,164.1,64.9z"/>
		<path class="st0" d="M89.8,90.7c0.2-1.3,0.7-2.4,0.9-4.1c0.2,0.9,0.4,1.7,0.7,2.6c0.1,0.3,0.3,0.6,0.4,0.9
			c0.1,0.4-0.1,0.9,0.2,1.1c0.3,0.3,1.1,0.1,1.4,0.3c0.4,0.2,0.7,0.6,0.9,0.9c0.6,0.7,1,1.5,1.3,2.3c0.7,1.4,0.5,3.1-0.4,4.3
			c-1.1,1.8-2.7,2.4-4.5,3.1c-0.4,0.2-0.8,0.2-1.2,0.4c-0.2,0.1-0.2,0.3-0.5,0.4c-0.2,0.1-0.4-0.1-0.6,0c-0.6,0.2-1.5,0.8-1.6,1.5
			c0.2-0.9-1.5-2.1-2.1-2.8c-0.9-1-1.9-0.5-3-0.9c-0.8-0.3-0.5-0.9-1-1.5c-0.5-0.6-1.3-0.3-1.7-0.7c-0.8-0.8-0.7-2.2-0.4-3.2
			c0.4,1.3,0.5,2.1,1.8,2.6c1.2,0.4,1.8,1.4,2.7,2c0.7,0.4,1,0,1.6-0.4c0.6-0.5,1.3-0.8,2.1-0.9c0.9-0.2,2.7,0.3,2.6-1.2
			c0.5-0.3,0.9-0.7,1.3-1.1c0.6-0.5,0.5-0.6,0.7-1.2s0.9-2.3,0.5-2.9C91.1,90.7,89.3,93.4,89.8,90.7z"/>
		<path class="st0" d="M91.8,107.5c-0.3-0.1-0.7-0.1-1.1-0.2C91.1,107.3,91.5,107.4,91.8,107.5z"/>
		<path class="st0" d="M102.7,109L102.7,109z"/>
		<path class="st0" d="M79.7,108c2.5,0.9,5.3,0.7,7.8,0.5c1.1,0,2.2,0.1,3.4,0.3c0.6,0.1,1.5,0.3,1.3-0.7c0-0.3-0.2-0.5-0.4-0.6
			c1.6,0.5,3.2,0.9,4.8,1c1,0,2-0.6,3-0.5c1,0.1,2.1,0.9,3.1,0.9c-1-0.1-2-0.1-3,0.1c-1.2,0.4-2.3,1-3.3,1.9
			c1.2-1.4-3.2-1.2-3.7-1.2c-1.4,0-2.7,0.6-4.1,0.6c-1.6-0.1-3.2-0.3-4.8-0.7c-1.4-0.3-2.8-0.2-4.1-0.9c-0.7-0.4-1.4-0.7-2.1-0.9
			c-0.8-0.2-1.6-0.5-2.4-0.9C76,105.7,78.9,107.7,79.7,108z"/>
		<path class="st0" d="M79.4,112.4c-0.6-0.4-1-0.9-1.4-1.5c0.8,0.4,1,1.1,1.6,1.6C79.6,112.5,79.5,112.4,79.4,112.4z"/>
		<path class="st0" d="M89.6,114.8c0.8,0,1.5-0.1,2.3-0.3c0.7-0.3,1.3-0.6,1.9-0.9c1.2-0.5,2.4-1.1,3.6-1.7c-1,0.8-2,1.7-2.7,2.8
			c-0.4,0.4-0.6,0.9-0.7,1.4c-0.2,1.1-0.1,0.9-1.1,0.6c-1.8-0.5-3.7-0.7-5.6-0.7c-1.1,0.1-2.1,0.1-3.2,0c-0.9-0.1-2,0-2.8-0.1
			c1.3-0.7,0.8-1.4,0-2.3l0.2,0.1C84,114.8,86.8,115.1,89.6,114.8z"/>
		<path class="st0" d="M81.2,113.6c-0.5-0.3-1-0.6-1.5-0.9h-0.1c0.5,0.2,0.9,0.5,1.3,0.8L81.2,113.6z"/>
		<path class="st0" d="M112.3,55.8c1.2,0.4,2.4,0.9,3.5,1.4c2,0.8,3.5,2.4,4.3,4.5c-0.4-0.5-1.3-1.5-1.9-1.4
			c-0.6,0.2-0.2,1.6-0.3,2.1c-0.1,0.6-0.2,1.3-0.5,1.9c-0.6,1-1.6-0.2-2.4-0.5c-3.4-1.4-7.5-0.7-10.7,0.9c-0.8,0.4-1.3,0.9-2.1,1.4
			c-0.9,0.4-1.8,0.8-2.7,1.1c-0.9,0.4-1.9,0.7-2.8,0.9c-0.8,0.2-2,0.2-2.4,1.1c-0.6,0.5-1.1,1.2-1.5,2c-0.8,1.2-1.5,2.5-2,3.8
			c-0.2,1.1-0.4,2.2-0.4,3.3c-0.2,1.1-0.1,2.3,0.3,3.4c0.7,1.8,1.6-0.5,2.1-1.2c1.1-1.4,2.3-1.1,3.9-0.6c1.8,0.6,3.6,1.1,5.4,1.4
			c2.9,0.4,6.4,0.7,9.2-0.1c1.9-0.5,5.4-4.6,6.8-1.7c0.8,1.8,1.1,3.7,0.8,5.6c-0.3,1.6-0.8,3.1-1.6,4.5c-0.7,1.5-1.3,3.2-2.1,4.7
			c-1.1,1.8-2.4,3.5-3.9,5c-0.5,0.7-0.7,1.6-0.5,2.4c0.2,1.3,0.3,2.6,0.2,4c-0.1,1.2-0.5,2.4-1,3.6c-1.4,2.8-3.5,5.2-5.1,7.9
			c-0.3,0.6-1.6,1.8-0.8,2.3c0.4,0.2,0.9,0.1,1.3-0.1c-1.1,1.3-2.8,2.2-4,3.5c-2.8,3-6.7,4.5-10.8,4.2c-2-0.1-4.5,0.1-6.3-0.9
			c1.3,1.2,3.6,0.9,5.2,1c1.8,0.1,3.5,0.1,5.3-0.2c3.8-0.8,7.2-2.6,10-5.3c1.5-1.6,3.1-3,4.9-4.3c2-1.2,3.9-2.7,5.7-4.2
			c1.6-1.7,3-3.7,4.1-5.7c0.6-1.1,1.2-2.3,1.8-3.4s1.5-2.4,2.2-3.6c2.8-5.4,3.1-11.8,3.9-17.8c0.4-2,0.6-4.1,0.5-6.2
			c-0.3-2.2-0.7-4.3-1.1-6.5c-0.6-3.3-1.8-6.5-3.5-9.4c-1-1.9-2.8-3.4-4.9-3.9C116.6,56.4,114.5,56.1,112.3,55.8z M112.2,69
			c-0.8,0.8-2.8-1-3.4,0.3c-0.2,0-0.8-0.5-0.9-0.5c-0.4,0.1-0.3,0.5-0.8,0.6c-0.5,0.1-0.9-0.2-1.3-0.1c-0.4,0.1-1,0.2-1.5,0.3
			c-0.5,0.1-4.4,0.9-4.3,0c2.3-1.3,4.8-2.2,7.4-2.7c1.2-0.1,2.5-0.1,3.7,0c0.6,0,0.9,0.1,1.2,0.7C112.3,67.9,112.5,68.6,112.2,69
			L112.2,69z"/>
		<path class="st0" d="M61.7,71.9L61.7,71.9L61.7,71.9L61.7,71.9z"/>
		<path class="st0" d="M79.7,71.7c-0.7-0.4-1.3-0.9-2-1.4c-0.9-0.2-0.9-1.3-1.5-1.8c-0.5-0.4-1-0.7-1.6-1c-1.2-0.6-2.4-1.2-3.5-1.9
			c-0.9-0.6-1.7-1.4-2.9-1.4h-0.1h-0.1c-0.4,0.2-0.8,0.2-1.2,0.4c-0.3,0.1-0.5,0.3-0.7,0.6l0.2-0.1c-0.3,0.3-0.7,0.7-0.9,1
			c-0.4,0.5-0.8,0.9-1.2,1.4c-0.4,0.3-1.1,0.8-0.9,1.3c1,0.2,1.9-1.3,2.7-1.7s2.8-0.5,2.8,0.8c-0.7,0.1-1.4,0.2-2,0.4
			c-0.6,0.3-1.1,0.8-1.6,1.1c-0.6,0.3-1.8,0.8-1.9,1.4c-0.1,0.7,0.8,1.6,1.3,1.9c-1.3,0.1-1.6-1.2-2.5-1.6L62,71.1
			c-0.2,0.9,1.1,2,1.8,2.4c-0.8,0.1-1.5-0.2-2.1-0.7c0,0.1-0.1,0.2-0.2,0c0,0.2,0,0.4,0.1,0.6c0.2,0.4,0.5,0.7,0.9,0.9
			c0.5,0.2,1,0.4,1.5,0.5c0.3,0,0.7,0.1,1,0.2c0.4,0.3,0.2,0.2,0.3,0.5c0.1,0.3-0.2,0.2,0.2,0.6c0.1,0.1,0.5,0.2,0.6,0.3
			c0.1,0.1,0.3,0.5,0.4,0.6c0.2,0.2,0.4,0.4,0.7,0.6c1.3,0.4,2.6,0.7,4,0.8c0.3,0,1.5-0.1,1.6,0.2c0.1,0.8-1.9,0.3-1.3,1.5
			c0.3,0.6,2.1,1.2,2.7,1.4c0.6,0.2,1.2,0.2,1.8,0c1.4-0.5,2.7-1.1,4-1.9c0.5-0.3,1-0.7,1.4-1.2c0.4-0.4,1.1-0.9,1.3-1.3
			c0.8-1.2-0.4-2.9-1.2-3.8C80.8,72.9,80.3,72.2,79.7,71.7z"/>
		<path class="st1" d="M179.3,46.3c5.1,0,11.9,2.5,15.4,6.2c1.5,1.6,4.3,4.4,2.9,6.7c-1.4,2.2-5.3,2-7.1,0.7c0.8,1.1,1.5,2.2,2,3.4
			c-1.9-0.3-4.1-4.2-5.3-5.6c-1.4-1.7-3.2-3.2-4.6-4.9s-2.5-4-4.5-4.5c-2.5-0.7-4.8,0.6-6.9,1.2c1.2-0.6,2.3-1.4,3.6-1.9
			C176.2,47.3,177.6,47.2,179.3,46.3z"/>
		<path class="st1" d="M214.8,35c-2.2-0.6-6.7,1.2-8.7,2.3c-2.8,1.5-3.7,3.1-4.7,5.9c2.7-3.4,5.8-4.8,10.4-4.7
			c0.4,3-0.4,4.7,1.9,6.9c2.3,2.3,3,3.9,4.2,6.7c1.2-0.7,2-1.6,3.2-2.3c1.4-0.9,3-0.8,4.7-0.9c3.2-0.2,5.6-0.4,8.6,1
			c1.1,0.5,3.2,2.4,3.9,0.6c0.3-0.9-0.5-2.7-0.9-3.5c-0.3-0.6-1.1-1-1.4-1.5c-0.5-0.8-0.9-1.6-1.2-2.4c-0.8-1.6-1.9-2.9-2.7-4.3
			c-0.9-1.4-1.6-2.4-1.5-4.2c0.1-1.5,1.3-2.8,1.1-4.4c-1.1,3.2-4.2,2.9-7.1,3.4C221.9,34.2,218.4,35.2,214.8,35z"/>
		<path class="st1" d="M251.9,62c-2,0.1-5,2.4-4.3,4.7c0.5,1.7,1.4,0.9,2.7,1.3c1.3,0.3,2.7,1.4,4.2,1.3c-0.1,1-1.1,0.8-1.9,1.4
			c-0.7,0.6-1.3,1.2-1.9,1.9c-2,1.8-4.5,2.9-7.1,3.2c4.3,0.8,8.6-0.3,10.2,4.9c0.6,2,0.7,4.4,1.3,6.4c0.6,2,1.1,4.2,2.6,1.2
			c1.7-3.3,2.3-7.4,4.7-10.2c1.4-1.7,3.1-2.2,2.8-4.7c-0.2-1.6-1.5-3.3-2.5-4.6C260.6,65.9,256,62.6,251.9,62z"/>
		<path class="st1" d="M235.1,53c-3.3,0-5.9-1.6-9.2-0.7c-2.9,0.8-6.8,2.5-7.4,6c-0.4,2.9-1.1,5.9-1.3,8.8c0,1.6-0.2,3.1-0.5,4.7
			c-0.4,1.7-1.2,3.3-1.5,5.1c1.9-3,3.6-3.8,7-4.1c3.1-0.2,6.1-1.2,8.7-3.1c2.3-2,4.1-4.6,5.1-7.5C236.7,60.4,237.2,54.8,235.1,53z"
			/>
		<path class="st1" d="M238.7,79.3c1.7,0,4.6-0.5,6.3,0c1.3,0.4,2.4,1.8,3.3,2.8c2.2,2.3,4.8,4.4,4.7,7.8c-0.1,3.5-3.3,7.5-6,9.7
			c-2.9,2.5-8,2.7-11.3,0.9c-2-1.1-3.2-2.8-4.3-4.7c-1.2-1.9-3.1-3.8-3.6-5.9c4.9-1.3,10.1,0.3,13.9,3.5c-1-1.9-1.1-3.8-3.1-5
			c-1.4-0.7-2.9-1.2-4.4-1.5c-2.9-0.8-5.9-1-8.8-0.7c0.4-1.3,2-1.1,3.1-1.5c1.5-0.6,2.6-1.7,4.1-2.2
			C234.4,81.7,237.2,81.2,238.7,79.3z"/>
		<path class="st1" d="M211.6,94.6c0.1,1.9,2.2,2.7,3.4,3.8c-1.4,1.2-2,1.3-2.2,3.3s0.3,3.2-1.1,4.7c-1.7,1.9-6.5,3.2-8.9,1.8
			c1.5,0,4,0.6,5-0.8c0.9-1.4-0.9-2.7-1.3-4.2C205.5,99.8,208,96.3,211.6,94.6z"/>
		<path class="st1" d="M212.5,108.5c-1.9,0.2-4.1,0.8-4,2.9c0.2,1.4,0.6,2.9,1.1,4.2c0.9,2.8,3.8,6.9,7,6.7"/>
		<path class="st1" d="M205.9,115.6c0.4,1.4,1.1,2.7,2,3.8c0.5,0.7,2.3,1.8,2.3,2.5c0.2,1.6-5.4,5.3-6.6,5.2c-0.2-2,1.2-3.4,1.6-5.1
			C205.6,120.2,205.5,118.3,205.9,115.6z"/>
		<path class="st1" d="M213.2,123c-0.4,2.1-2.5,2-3.5,3.3c-0.8,1.1,0.7,3.3,1.4,4.6c2.3,4.2,6,4.9,10.4,5.5c0-1.6-0.9-2.3-1.4-3.7
			c-0.5-1.3-0.4-2.6-0.8-3.9c-0.3-1.3-0.8-2.5-1.4-3.6C217.1,124.2,215.5,124.2,213.2,123z"/>
		<path class="st1" d="M209.9,134.3c0.7,1.1,2.8,0.9,3.6,2c0.6,0.7,0.6,2.8,0.7,3.8c0.2,1.8,0,3.7-0.5,5.4c-0.5,1.5-1.4,2.2-2.2,3.5
			c0.2-2.4,2.1-6.4,0-8c-0.7-0.5-1.5-0.7-2-1.3c-0.5-0.8-0.8-1.6-1-2.5c-0.4-1.3-1.5-3.1-1.5-4.4
			C208.2,133.4,208.6,134.7,209.9,134.3z"/>
		<path class="st1" d="M218.1,138.2c-0.1,1.9,0.6,3.8,0.5,5.7c-0.1,2.6-1.2,3.5-2.4,5.5c2,0.7,3.8,2.3,5.9,2.9c1.9,0.6,4,1.1,6,1.2
			c0.1-1.2-0.8-3.2-1.1-4.6c-0.4-2-1.9-3.4-2.7-5.2c-0.6-1.4-0.3-2.5-1.5-3.6S219.6,138.6,218.1,138.2z"/>
		<path class="st1" d="M222.7,154.9c-1.1,1.3-0.6,3.6-0.9,5.3c-0.4,2-1.2,3.8,0.6,5c3.4,2.5,8.4,2.4,12.4,2.3c0.2-1.4-1.1-3.6-1.4-5
			c-0.4-1.3-0.9-2.5-1.6-3.6C229.9,155.4,226.4,155.5,222.7,154.9z"/>
		<path class="st1" d="M230.3,171.1c-0.2,2.3,4.6,3.9,6.3,4.2c0.6-1.4-0.4-3.8-0.7-5.2C234.5,170,230.3,168.8,230.3,171.1z"/>
		<path class="st0" d="M214.2,34.6c0.7,1.1,0.1,5.4,0,7.2c-0.1,2.7-1.7,5.3-1.6,8c-0.2-3.4,2.8-11,4.6-13.4
			c1.9,6.1-2.8,11.8-1.9,17.4c0-1.5,0.3-2.9,0.9-4.2c0.7-1.6,1.2-3.2,1.6-4.8c0.9-3.1,2.4-6,4.4-8.5c0.5,6.8-0.6,13.7-3.1,20
			c0.2-3.7,2.5-7.3,3.8-10.7c1.2-3.3,1.7-7.2,3.8-10.3c0.3,4.9,1,11.6-0.3,16.3c-0.8,2.9-2.8,5.7-4,8.3c-1,2.4-1.9,5.6-4.5,6.8
			c2-2.3,3.2-5.1,5-7.6c1.7-2.5,3-5.2,4-8.1c1-2.9,1.8-5.9,2.4-8.9c0.7-2.5,0.3-6.8,2.1-8.8c3,5.2,0,14.8-1.6,20.1
			c-1.9,6.3-3.8,11.9-8.2,16.5c3.3-4.8,7.7-10.1,9.1-15.7c1.3-5.2,3.4-11,3.8-16.2c2.8,2.1-0.3,13.3-1,16.3c-1,4.5-2.9,11.3-6,14.8
			c2.6-2.4,4.6-7.9,5.5-11c1-3.4,2.9-6.4,3.8-9.8c0.7-3.4,0.4-6.9-1.1-10.1c-1.4-3-2.3-6.3-2.7-9.6c-1.5-0.1-2.2,1.8-3.6,2.4
			c-1.4,0.6-3.6,0.4-5,0.7C221.4,32.5,217.9,34.1,214.2,34.6z"/>
		<path class="st0" d="M176.9,46c6.6-0.1,9.6,2.9,14.6,6.8c3.5,2.7,7.9,7.5,8.6,12.2c-1.5-0.3-2.5-3.1-3.3-4.4
			c-1.1-2.1-2.8-3.8-4.9-5c-2.1-1.4-3.6-3.2-5.6-4.7c-2.3-1.7-5.2-1.9-7.5-3.2c8.7,0.2,14.5,15.1,17.2,21.7c0.2-2.5-2.2-4.1-3.4-5.9
			c-1.8-2.5-2.8-5.4-4.9-7.7C184.8,52.4,181.6,48,176.9,46z"/>
		<path class="st0" d="M267.1,74.9c0.2-2.3-8.2-6.7-10.3-7.6c-5.1-2-10.1-0.6-15.2,0.5c4.3-0.2,9.5-2,13.5-0.3
			c4,1.7,7.8,5.3,10.5,8.4c-3.9-2.1-6.8-4.3-11.3-4.6c-5-0.3-10.3-0.3-14.9,1.4c5.3,0.1,10.1-0.6,15.2,0.8c2.7,0.8,8.6,2.9,8.8,6.1
			c-3.3-1.8-6.9-3-10.6-3.6c-4-0.6-8.1-1-12.1-0.9c4.1-0.1,25.4,1.9,19.2,11.3c-1.3-0.2-1.7-1.4-2.5-2.4c-1.3-1.6-3.1-2.9-5.1-3.6
			c-3-1.2-6.6-1.6-9.5-3c4,2.5,9.3,3.3,12.6,6.8c3.3,3.5,2.4,9.4-1.6,12.2c-0.9-1.5-0.3-3.4-0.8-5c-0.6-2.4-2.5-3.7-4.2-5.3
			c-3.1-3-6.4-4.1-10.9-3.9c3.8-0.2,9.8,5.1,11.7,8c1.8,2.9,1.8,7.6,0.7,10.9c-0.9-1.3-0.9-4.5-1.5-6.2c-0.8-2.3-1.2-4.4-3.3-5.9
			c1.6-0.4,1.5,5.6,1.6,7.3c0.1,1.9,0.5,5.2-0.5,6.8c-1.5-2.1-0.2-6.3-2.7-8c-0.9,2-0.3,5.8-0.3,8.1c3,0.7,7.5-1.2,9.5-3.5
			s3-6.5,4.4-9.3c1.2-2.6,2.6-6,4.3-8.2c1-1.3,2.2-1.4,3.4-2.5C266.5,78.3,267.2,76.6,267.1,74.9z"/>
		<path class="st0" d="M162.3,53.3c8.3,1.8,7.4,15.9,7.9,22.2c0.6,7.3,0.8,14.9,0.8,22.2c0.3-3.2-0.6-6.9-0.8-10.1
			c-0.2-3.4-0.9-5.8-1.7-9c-0.4-1.9-0.4-3-1.2-4.8c-1.1-2.4-2.5-4.7-3.3-7.2C162.8,63.1,163.3,57.9,162.3,53.3z"/>
		<path class="st0" d="M168.2,74.1c-0.8,1.6-0.2,4.7-0.6,6.6c-0.5,2.3-0.7,4.6-1.1,7c-0.3,4.5-0.1,9,0.6,13.5
			c2.5,10.2,7.6,18,14.8,25.8c4.5,5,5.4,11.4,7.4,17.7c-0.3-3.8-4.4-9.3-7.5-11.3c-6.2-4-11.8-8.1-15.7-14.6c-2.1-3.5-3-5.6-3.2-9.5
			c-0.2-3.1-0.1-6.2-0.3-9.3c-0.4-6-0.8-11.7-0.8-17.8c0-2.6-0.7-6.5,0.5-8.9C163.3,71.4,167.4,69.2,168.2,74.1z"/>
		<path class="st0" d="M77.7,41.2c2.7,1.3,5.1,8.6,7.1,11.2c3.1,3.9,5.3,7.1,9.5,9.4c2.9,1.6,6.8,2.9,9.3,5.2
			c3.6,3.4,4.3,7.2,6.2,11.2c1.5,2.9,2.3,2.7,5,3.6c2.4,0.9,5.2,3.5,5.8-0.6c0.7-4.5-6.9-4.6-9.2-7.8c-0.9-1.4-1.4-4.6-2.2-6.3
			s-1.8-4.2-2.9-5.5c-3.1-3.5-6.8-4.6-9.6-9c-3-4.7-5.9-9.4-8.3-14.3c-1.3-2.6-2-6.5-5.5-4C81,35.8,81.4,38.6,77.7,41.2z"/>
		<path class="st0" d="M95.9,53c3-0.5,7.6,3.9,10,5.4c3.1,2.1,5.7,4.9,7.6,8.1c4.3,7,5.1,15.1,5.1,23.3c-0.1-9.2,4.9-19.8-1.2-27.9
			c-2.7-3.6-6.6-5.4-10.5-7c-3.5-1.5-8-1.9-11.1-3.9C95.9,51.2,96,51.4,95.9,53z"/>
		<path class="st0" d="M235.9,232.6c0,0-11,29.8-25.9,44.9c-14.9,15.1-56.3,22.1-79.5,17.7s-36-15.1-43-17c-7-2-26,5.6-40.1,5
			c-19-0.8-34.9-7-39.8-17.8c-4.9-10.9,3.2-22.3,3.2-22.3L235.9,232.6z"/>
		<path class="st1" d="M74.5,243.5l4.6,11.4l4.6-11.4h2.4v14.1h-1.9v-5.4l0.2-5.9l-4.6,11.3h-1.4l-4.6-11.3l0.2,5.9v5.4h-1.9v-14.1
			H74.5z"/>
		<path class="st1" d="M99.7,253.1c-0.1,1.3-0.7,2.5-1.6,3.4c-1,0.8-2.3,1.3-3.7,1.2c-1.5,0.1-3-0.6-4-1.8c-1.1-1.4-1.6-3-1.5-4.8
			v-1.3c0-1.2,0.2-2.4,0.7-3.4c0.4-0.9,1.1-1.7,2-2.3c0.9-0.5,1.9-0.8,3-0.8c1.3-0.1,2.6,0.4,3.6,1.2c0.9,0.9,1.5,2.1,1.6,3.4h-1.9
			c-0.1-0.9-0.4-1.8-1.1-2.4c-0.6-0.5-1.4-0.8-2.2-0.8c-1.1-0.1-2.1,0.4-2.8,1.3c-0.7,1.1-1.1,2.4-1,3.8v1.4
			c-0.1,1.3,0.3,2.5,0.9,3.6c0.6,0.9,1.6,1.4,2.7,1.4c0.8,0.1,1.7-0.2,2.4-0.7c0.6-0.7,1-1.5,1.1-2.4L99.7,253.1z"/>
		<path class="st1" d="M112.4,253.1c-0.1,1.3-0.7,2.5-1.6,3.4c-1,0.8-2.3,1.3-3.7,1.2c-1.5,0.1-3-0.6-4-1.8c-1.1-1.4-1.6-3-1.5-4.8
			v-1.3c0-1.2,0.2-2.4,0.7-3.4c0.4-0.9,1.1-1.7,2-2.3c0.9-0.5,1.9-0.8,3-0.8c1.3-0.1,2.6,0.4,3.6,1.2c0.9,0.9,1.5,2.1,1.6,3.4h-1.9
			c-0.1-0.9-0.4-1.8-1.1-2.4c-0.6-0.5-1.4-0.8-2.2-0.8c-1.1-0.1-2.1,0.4-2.8,1.3c-0.7,1.1-1.1,2.4-1,3.8v1.4
			c-0.1,1.3,0.3,2.5,0.9,3.6c0.6,0.9,1.6,1.4,2.7,1.4c0.8,0.1,1.7-0.2,2.4-0.7c0.6-0.7,1-1.5,1.1-2.4L112.4,253.1z"/>
		<path class="st1" d="M125.2,253.1c-0.1,1.3-0.7,2.5-1.6,3.4c-1,0.8-2.3,1.3-3.7,1.2c-1.5,0.1-3-0.6-4-1.8c-1.1-1.4-1.6-3-1.5-4.8
			v-1.3c0-1.2,0.2-2.4,0.7-3.4c0.4-0.9,1.1-1.7,2-2.3c0.9-0.5,1.9-0.8,3-0.8c1.3-0.1,2.6,0.4,3.6,1.2c0.9,0.9,1.5,2.1,1.6,3.4h-1.9
			c-0.1-0.9-0.4-1.8-1-2.4c-0.6-0.5-1.4-0.8-2.2-0.8c-1.1-0.1-2.2,0.4-2.8,1.3c-0.7,1.1-1.1,2.4-1,3.8v1.4c-0.1,1.3,0.3,2.5,0.9,3.6
			c0.6,0.9,1.6,1.4,2.7,1.4c0.8,0.1,1.7-0.2,2.4-0.7c0.6-0.7,1-1.5,1.1-2.4L125.2,253.1z"/>
		<path class="st1" d="M131.7,248.9l3.4-5.4h2.2l-4.4,6.9l4.5,7.1h-2.2l-3.4-5.5l-3.5,5.5h-2.2l4.5-7.1l-4.4-7h2.2L131.7,248.9z"/>
		<path class="st1" d="M149.1,253.1c-0.1,1.3-0.7,2.5-1.6,3.4c-1,0.8-2.3,1.3-3.7,1.2c-1.5,0.1-3-0.6-4-1.8c-1.1-1.4-1.6-3-1.5-4.8
			v-1.3c0-1.2,0.2-2.4,0.7-3.4c0.4-0.9,1.1-1.7,2-2.3c0.9-0.5,1.9-0.8,3-0.8c1.3-0.1,2.6,0.4,3.6,1.2c0.9,0.9,1.5,2.1,1.6,3.4h-1.9
			c-0.1-0.9-0.4-1.8-1.1-2.4c-0.6-0.5-1.4-0.8-2.2-0.8c-1.1-0.1-2.1,0.4-2.8,1.3c-0.7,1.1-1.1,2.4-1,3.8v1.4
			c-0.1,1.3,0.3,2.5,0.9,3.6c0.6,0.9,1.6,1.4,2.7,1.4c0.8,0.1,1.7-0.2,2.4-0.7c0.6-0.7,1-1.5,1.1-2.4L149.1,253.1z"/>
		<path class="st1" d="M153.5,257.6h-1.9v-14.1h1.9V257.6z"/>
		<path class="st1" d="M158.7,257.6h-1.9v-14.1h1.9V257.6z"/>
		<path class="st1" d="M163.9,257.6H162v-14.1h1.9V257.6z"/>
		<path class="st1" d="M113.4,11.9c2.5,0,5.1,0.2,7.6,0.5c4.8,0.7,9.5,2.2,13.8,4.5c10.3,4.6,16.5,10.3,21.8,20.3
			c1,1.3,1.8,2.6,2.5,4c1.5,3.3,2.8,6.6,4,10c0.2,0.6,0.4,1.2,0.6,1.9c0.3-0.1,0.6-0.3,0.8-0.5c1.7-1.1,3.5-2.9,5.1-4.1
			c3.2-2.3,7-3.6,10.9-3.8c0.6,0,1.3,0,1.9,0.1c4.3,0.7,8.3,2.4,11.7,5.1c4.3,3.7,4,4.9,6.1,8.6c0.1-2.4-1-4.7-1.4-7s-0.8-5,0.1-8.4
			c1.4-5,4.8-8,11-9.5c5.4-1.3,9.5-0.4,14.9-2.2c5.7-2,5.9-4.2,9.9-7.6c0.4,1.9,0.6,3.8,0.5,5.7c0,2.2,0.9,4.3,1.5,6.5
			c1.1,3.9,1.6,5.8,2.5,9.6c2,8.6,0,16.7-5,24c2.4-2.7,6.6-5.5,9.6-7.3c1.9-1.1,4.1-1.7,6.3-1.7c3.2,0.1,6.2,1.1,8.8,2.9
			c3.7,2.5,5.3,4.7,7.8,8.2c2.7,3.8,5.4,4.8,9.6,6.8c-0.5,0-1,0.1-1.5,0.1c-1.4,0-2.8-0.1-4.2-0.1c-2.8,0-5.6,0.5-7.7,3.2
			c-2.6,3.4-3.5,7.8-5.4,11.6c-1.2,2.2-2.7,4.2-4.5,6l-0.1,0.2c-0.6,0.7-1.2,1.2-2,1.7c-3.4,2.7-7.5,4.5-11.5,4.5
			c-3.2,0-6.3-1.2-8.6-3.5c-1.6-1.5-3.1-4.4-4.2-6.3c-1.3-2.2-2.7-3.5-4-5.6c-5.7,0.6-9.5,8.3-10.7,13.4c-1.4,6,1.4,12.6,2.9,18.6
			c1.7,7.3,5.9,14.2,8.8,21.2c1.7,4.1,3.2,8,5.3,12c2.1,4.3,3.9,8.8,5.6,13.3h28.7c5.7,0,10.3,4.6,10.3,10.3v46
			c0,5.7-4.6,10.3-10.3,10.3h-28.3c-0.2,0.4-0.5,0.8-0.8,1.2c-3.5,8.6-12.7,29.2-24.3,40.9c-12,12.1-41,19-63.9,19
			c-5.2,0-10.4-0.4-15.6-1.3c-23.2-4.4-36-15.1-43-17c-0.9-0.2-1.9-0.3-2.8-0.3c-8,0-23.3,5.4-35.5,5.4c-0.6,0-1.2,0-1.8,0
			c-19-0.9-35-7-39.8-17.9c-2.9-6.4-1.2-13,0.6-17.4c-4.3-3.6-8-7.8-11.1-12.5h-26.8c-5.7,0-10.3-4.6-10.3-10.3v-46
			c0-5.7,4.6-10.3,10.3-10.3H7.5c0.2-0.5,0.4-1.1,0.6-1.6l0.7-1.5c-3.5-0.8-6.6-1.8-3.5-1.9c-2.9-1.4-5.3-3.7-6.8-6.5
			c-0.9-1.9-2.9-3.1-5-3c-0.9,0-1.8,0.2-2.6,0.5c0,0,4.8-11,3.7-14s-8.1-6.3-8.1-6.3c0.4-1.7,1.7-3.6,2.6-5.5
			c0.3-0.8,0.6-1.7,0.8-2.6c0.2-2.3-0.7-4.6-0.7-6.9c0-2.6-0.3-6.2,0.5-8.8c0,0,0,0,0-0.1c0.3-1.4,0.6-2.8,1.1-4.2
			c3.5-10.4,1.4-8.3,4.8-14.1c2.1-3.6-0.7-7.2-3.2-9.5c-1.9-1.4-3-2.3-3-2.3c0.4,0.2,0.8,0.3,1.3,0.3c0.9,0,1.6-0.7-0.3-4.2
			c-0.9-1.7-2.1-3.8-3.3-5.8l0,0c-2-3.3-4-6-6.2-10.3l0,0c5.8,1.6,11.6,4.3,18.2,4.3c5,0,9.8-1.6,13.9-4.4c-0.5,0.6-1.1,1.2-1.7,1.8
			c0.6-0.6,1.2-1.2,1.7-1.8c4,6.6,8.7,12.8,13.9,18.6l0.1,0.1c6.2,5.6,12.9,10.5,20.1,14.7c1.1,0.4,2.1,1,3,1.7l1.4,0.8
			c0.8-4.8,1.1-9.7,0.8-14.5c-1-12.9,2.3-28.9,8.6-41.3c7.6-14.9,21.7-21.6,30-23.9c2.1-0.6,4.3-1,6.4-1c3.1,0,4.2,1,4.2,1l1.5-0.7
			l-1.7,0.2c1.3-1,3.2-1.4,4.6-2.3c1.1-0.7,2.2-1.3,3.5-1.6C110.6,12,112,11.9,113.4,11.9 M197.6,133.5c-1-3.8-1.9-7.4-2.4-10.1
			c-2.2-13,0.2-26.4,6.7-37.9c-3.9,0.1-6.8,2.3-10.5,2.3H191c-4.6-0.3-9.1-1.8-13.1-4.2c-7.6-4.8-2.3-14.1-7.5-20.6
			c-0.5-0.7-1-1.3-1.5-1.9c1.3,4.9,1.1,10.9,1.4,14.4c0.5,5.8,0.7,12,0.7,18c0.4,2.8,1,5.5,2,8.1c1.9,5.1,6.9,8.4,8,14.1
			c0.5,2.9,0.2,5.8-0.8,8.6c1.9,0.6,3.8,1.1,5.7,1.7l0.7,0.2c0.8,0.2,1.5,0.4,2.2,0.7c1.1,0.4,2.2,0.8,3.3,1.4
			c0.5,0.3,1,0.6,1.4,0.9C195.1,130.3,196.5,131.8,197.6,133.5 M178.5,123c0.8-2.7,0.5-5.7-0.7-8.2c-2-4-6.5-6.1-8.2-10.4
			c-1.6-3.9-0.5-8.9-0.5-13.2c-0.1-4.2-0.5-8.5-1.3-12.6c0-0.1,0-0.1,0-0.2c0,0.8,0,1.5-0.1,2.3c-0.5,2.3-0.7,4.6-1.1,7
			c-0.3,4.5-0.1,9,0.6,13.5C169.3,109.7,173.2,116.5,178.5,123 M170.2,86.7c0-0.2,0-0.3,0-0.5c0,0.1,0,0.2,0,0.3V86.7 M188.4,141.5
			c-0.4-0.9-0.8-1.7-1.4-2.5c0.6,1.3,1.2,2.7,1.8,4L188.4,141.5c0.3,0.8,0.6,1.5,0.8,2.4c0.6,1.5,1.3,2.9,2.3,4.2
			c2,2.5,3.9,5,5.8,7.6c-0.4-1.7-0.6-3.4-0.5-5.1c0.3-2.3,1.9-5.4,0.2-7.7c-1.6-2.3-5.7-4.5-8-5.8c-0.5-0.2-1-0.5-1.6-0.6l-0.5-0.1
			C187.5,138,188,139.7,188.4,141.5 M200.7,165.4c0-0.1,0-0.1-0.1-0.2c-0.4-1-0.8-1.9-1.3-2.8c-0.3,0.9-0.7,1.7-1,2.7
			c-0.1-1.9-0.5-3.8-0.7-5.6c-1.1-1.6-2.2-3.2-3.5-4.6c-1.9-2.2-3.8-4.1-5.6-6.2c0.4,1.7,1,3.4,1.6,5.1c1.4,3.4,2.5,6.8,3.8,10.1
			c0.8,1.8,1.8,3.5,3,5h4.4C201.1,167.6,200.9,166.5,200.7,165.4c0.4,1.1,0.6,2.2,0.7,3.4h2.5c0.4-4.9,0.1-9.7-0.9-14.5
			c-0.3-1.9-0.9-4.2-1.5-6.8c-0.2,3.4-0.7,6.8-1.5,10.2c-0.1,0.9-0.2,1.9-0.3,2.7c0.4,1.4,0.6,2.8,0.9,4.5L200.7,165.4 M44.2,168.8
			h0.1c0.6-0.6,1.1-1.2,1.7-1.8C45.4,167.6,44.8,168.2,44.2,168.8 M31.8,168.8h4.4v-0.9C34.7,168.1,33.2,168.4,31.8,168.8 M113.4,10
			L113.4,10c-1.5,0-3,0.1-4.5,0.3c-1.3,0.3-2.5,0.8-3.6,1.5l-0.5,0.3c-0.6,0.3-1.1,0.6-1.7,0.8c-0.8,0.3-1.7,0.7-2.4,1.2
			c-1.1-0.3-2.3-0.5-3.5-0.5c-2.4,0.1-4.7,0.4-6.9,1.1c-5,1.4-22.2,7.4-31.1,24.9c-6.5,12.6-9.8,28.8-8.8,42.3
			c0.2,3.8,0.1,7.5-0.3,11.3c-0.7-0.4-1.4-0.8-2.1-1c-7-4.1-13.6-8.9-19.6-14.4l0,0c-5.1-5.6-9.7-11.7-13.7-18.2
			c0-0.1-0.1-0.2-0.2-0.3c-0.4-0.4-0.9-0.7-1.4-0.7c-0.4,0-0.7,0.1-1,0.3C8.1,61.5,3.6,62.9-1,63c-4.5,0-8.8-1.4-12.9-2.8
			c-1.6-0.5-3.2-1.1-4.8-1.5c-0.6-0.2-1.2,0-1.6,0.3c-0.5,0.4-0.7,0.9-0.7,1.5c0,0.3,0.1,0.6,0.2,0.9c1.3,2.5,2.6,4.8,4.2,7.1
			c0.7,1.1,1.4,2.1,2,3.3c1.4,2.3,2.5,4.3,3.3,5.8c0.2,0.4,0.4,0.8,0.6,1.1c-1,0.1-1.8,1-1.8,2c0,0.5,0.3,1,0.6,1.3
			c0,0,1.1,0.9,3,2.4c2,1.9,4.1,4.7,2.7,7.1c-1.9,3.4-2.2,4.3-2.7,6.6c-0.6,2.7-1.3,5.3-2.2,7.9c-0.5,1.4-0.9,2.9-1.1,4.4
			c-0.7,2.5-0.6,5.6-0.6,8c0,0.4,0,0.9,0,1.3c0.1,1.1,0.2,2.2,0.4,3.3c0.2,1.1,0.4,2.1,0.3,3.2c-0.2,0.7-0.5,1.5-0.7,2.2
			c-0.3,0.6-0.6,1.1-0.9,1.7c-0.8,1.3-1.4,2.6-1.8,4.1c-0.2,0.9,0.2,1.8,1,2.1c3,1.4,6.6,3.8,7.1,5.2c0.5,1.2-1.2,7.1-3.6,12.6
			c-0.4,1,0.1,2.1,1,2.4c0.3,0.1,0.5,0.2,0.8,0.1c0.2,0,0.5,0,0.7-0.1l0,0c0.6-0.2,1.2-0.3,1.9-0.3c1.4-0.1,2.8,0.7,3.4,2
			c1.3,2.4,3.1,4.4,5.3,6c0,1.4,1.2,2.1,3.8,2.8h-35.7c-6.7,0-12.2,5.5-12.2,12.2v46c0,6.7,5.5,12.2,12.2,12.2l0,0H-4
			c2.8,4.1,6.2,7.9,9.9,11.2c-1.8,4.7-3,11.3-0.1,17.6c4.9,10.9,20.4,18,41.5,19c0.6,0,1.2,0,1.9,0c6.9,0,14.8-1.7,21.7-3.1
			c5.4-1.1,10.4-2.2,13.8-2.2c0.8,0,1.6,0.1,2.3,0.2c2.1,0.6,4.8,2.1,8.4,3.9c7.5,4,18.8,10,34.8,13.1c5.3,0.9,10.6,1.4,15.9,1.3
			c22.8,0,52.5-6.7,65.3-19.6c11.8-11.9,21.1-32.7,24.6-41.3l0.1-0.2h27.3c6.7,0,12.2-5.5,12.2-12.2v-46c0-6.7-5.5-12.2-12.2-12.2
			H236c-1.5-4.1-3.7-9.3-5.2-12.2c-1.6-3.2-2.9-6.3-4.2-9.6l-0.9-2.3c-0.9-2.4-2.1-4.7-3.2-7c-2.2-4.5-4.4-9.2-5.5-13.9
			c-0.3-1.5-0.8-2.9-1.2-4.4c-1.3-4.5-2.6-9.2-1.7-13.3c0.9-4.1,3.8-10.4,8-11.8c0.4,0.5,0.8,1,1.2,1.5c0.8,0.9,1.4,1.9,2.1,2.9
			c0.2,0.3,0.4,0.6,0.5,0.9c1.1,2.1,2.4,4,4,5.7c2.6,2.6,6.2,4,9.9,4c4.1,0,8.6-1.7,12.6-4.9c0.9-0.6,1.6-1.2,2.3-2
			c0,0,0.1-0.1,0.1-0.1c1.9-1.8,3.5-4,4.7-6.3c0.7-1.5,1.4-3,1.9-4.6c0.8-2.4,1.9-4.6,3.3-6.7c1.6-2.1,3.6-2.5,6.2-2.5
			c0.6,0,1.3,0,2,0c0.7,0,1.4,0.1,2.2,0.1c0.7,0,1.2,0,1.7-0.1c1-0.1,1.8-1,1.7-2c0-0.7-0.5-1.3-1.1-1.6l-0.8-0.4
			c-3.6-1.7-5.8-2.7-8-5.8c-2.6-3.6-4.3-6-8.3-8.7c-2.9-2-6.3-3.2-9.9-3.2c-2.5,0-5,0.7-7.2,1.9c-0.6,0.3-1.6,0.9-2.8,1.8
			c2-5.5,2.3-11.5,0.9-17.3c-0.9-3.8-1.4-5.8-2.5-9.7c-0.2-0.6-0.3-1.1-0.5-1.6c-0.5-1.4-0.9-2.8-0.9-4.3c0-2.1-0.2-4.2-0.6-6.3
			c-0.2-0.6-0.6-1.1-1.3-1.3c-0.2-0.1-0.4-0.1-0.5-0.1c-0.5,0-0.9,0.2-1.2,0.5c-1.1,1-2.1,2-3.1,3.1c-1.6,2-3.7,3.5-6.2,4.2
			c-2.5,0.8-5.2,1.2-7.8,1.3c-2.3,0.1-4.6,0.4-6.9,0.9c-6.8,1.6-10.8,5-12.3,10.8c-0.6,2.4-0.8,4.8-0.4,7.2
			c-0.4-0.4-0.9-0.8-1.4-1.3c-3.7-2.9-8-4.8-12.6-5.5c-0.7-0.1-1.4-0.1-2.2-0.2c-4.3,0.1-8.5,1.6-12,4.1c-0.9,0.6-1.7,1.3-2.5,2
			c-0.4,0.4-0.9,0.8-1.3,1.1c-1.1-3.3-2.5-6.6-3.9-9.7c-0.7-1.5-1.6-2.9-2.6-4.2c-5.5-10.2-11.8-16.1-22.6-21
			c-4.5-2.4-9.4-3.9-14.4-4.7C118.6,10.3,116,10.1,113.4,10z M172.8,93.3c0-5.1-0.2-9.5-0.4-13.5c0.8,2.2,2.4,4.1,4.4,5.4
			c4.3,2.6,9.1,4.2,14.1,4.5h0.5c2-0.1,4-0.5,5.9-1.2c0.4-0.1,0.8-0.3,1.2-0.4c-5.4,11.1-7.2,23.5-5.2,35.6c0.2,1,0.4,2.2,0.7,3.5
			c-0.4-0.3-0.8-0.5-1.2-0.8c-1.1-0.6-2.4-1.1-3.6-1.5c-0.7-0.3-1.5-0.5-2.3-0.7l-0.5-0.1h-0.2l-1.4-0.4l-2.5-0.7
			c0.7-2.5,0.8-5.2,0.3-7.7c-0.7-3.6-2.7-6.3-4.7-8.9c-1.4-1.7-2.5-3.5-3.4-5.5C173.8,98.5,173.1,95.9,172.8,93.3z M176.8,117.8
			c-1.3-1.8-2.5-3.7-3.6-5.7c1.1,1,2.1,2.3,2.8,3.6C176.4,116.3,176.7,117,176.8,117.8z M190.2,140.9l-0.2-0.8l-0.1-0.4
			c2,1.2,4.5,2.8,5.6,4.2c0.6,0.9,0.4,2.2-0.1,4.1c-0.1,0.5-0.3,1-0.4,1.5l-2.1-2.6c-0.8-1.1-1.4-2.3-1.9-3.6
			C190.8,142.5,190.5,141.7,190.2,140.9L190.2,140.9z M196.4,164.9c-0.3-0.5-0.6-1.1-0.9-1.7c-0.4-1.1-0.8-2.2-1.2-3.3
			c-0.4-1.1-0.8-2.2-1.2-3.3c0.9,1.1,1.8,2.3,2.7,3.5c0.1,0.6,0.2,1.2,0.3,1.8C196.2,162.9,196.3,163.9,196.4,164.9L196.4,164.9z
			 M201.6,160.3c0.1-0.5,0.1-1.1,0.2-1.7c0.2,1.4,0.3,2.8,0.3,4.1C201.9,161.9,201.8,161.1,201.6,160.3L201.6,160.3z M198.3,166.9
			c0.3,0,0.5,0,0.7-0.1v0.2h-1.3l-0.1-0.2c0.1,0,0.2,0.1,0.4,0.1L198.3,166.9z"/>
		<path class="st0" d="M170.2,128.9c7.7-2.5,18.4,0.3,25.2,4.2c9,5.1,12,12.7,14.1,22.3c1.2,5.9,4.3,17-3.1,19.6
			c-8.1,3.1-17.2,0-21.8-7.3C177.1,155.9,172.2,142.7,170.2,128.9z"/>
		<path class="st0" d="M97.3,53.6c2.6-1.2,7.3,2.3,9.2,3.8c2.7,2,5.8,3.9,8.3,6.2c2.4,2.3,5.3,8.1,3.8,11.7
			c-0.5,1.3-0.1,0.9-1.5,1.4c-1.5,0.3-3.1,0.1-4.5-0.5c-2.8-1.1-4.8-3.5-5.5-6.5c-1-3.7-3.5-6.4-5.2-9.7
			C100.8,57.9,100,54.9,97.3,53.6z"/>
	</g>
</g>
</svg>
