<?xml version="1.0" encoding="utf-8"?>
<!-- Generator: Adobe Illustrator 22.1.0, SVG Export Plug-In . SVG Version: 6.00 Build 0)  -->
<svg version="1.1" id="Calque_3" xmlns="http://www.w3.org/2000/svg" xmlns:xlink="http://www.w3.org/1999/xlink" x="0px" y="0px"
	 viewBox="0 0 250 250" style="enable-background:new 0 0 250 250;" xml:space="preserve">
<style type="text/css">
	.st0{fill:#343736;}
	.st1{clip-path:url(#SVGID_2_);}
	.st2{fill:#FFFFFF;}
	.st3{fill:#CFCDCC;}
</style>
<rect x="-1.7" class="st0" width="251.7" height="250"/>
<g>
	<defs>
		<rect id="SVGID_1_" y="-3" width="250" height="253"/>
	</defs>
	<clipPath id="SVGID_2_">
		<use xlink:href="#SVGID_1_"  style="overflow:visible;"/>
	</clipPath>
	<g class="st1">
		<g>
			<path class="st2" d="M127.7,300.1c-29.7,0-57.7-8.9-75.1-23.8c-6.9,1.5-19.6,3.9-31.5,3.9c-7.7,0-14-1-18.6-3
				c-13-5.5-22.4-14.5-25.1-23.9c-2.1-7.1-0.7-14.4,4.3-21.7c2.1-3.1,4.3-5.8,6.5-8.1v-22.3c0-6.1,4.9-11,10.9-11h13.8
				c-9-15.2-14.7-26.9-17.4-35.6c-5.9-18.8-0.5-50,11.6-66.9c11.8-16.4,40.3-28,55.6-29c1.2-0.1,2.5-0.1,3.8-0.1
				c13.1,0,27.6,4.1,30.1,4.8c1.6-1.7,3.3-3.4,5.1-5c0.1-0.1,0.3-0.2,0.4-0.4c-3.4-4.6-8.1-12-7.5-17.4c0.9-7.9,8.6-19.8,12.4-23.2
				c2.4-2.1,3.6-4.5,3.3-5.3c-0.1-0.3-0.8-0.7-2.4-0.8c-5-0.2-15.1-3.5-20.2-9.1c-2.3-2.4-3.3-5-3.2-7.7c0.1-2.2,0.2-4.4,0.2-6.5
				c0.2-6.5,0.3-11.2,1.8-13.6c0.5-0.8,0.4-2,0.2-3.1c-0.1-1.3-0.3-2.7,0.6-3.7c0.5-0.6,1.3-0.9,2.3-0.9c2.4,0,10,1.8,11,4.7
				c0.3,0.9,0.1,1.9-0.8,2.6c-1.6,1.4-3.5,10-3.8,14.4c-0.2,3,4.1,9.3,10.1,9.7c6.5,0.4,16.1,4.7,16.1,9.8c0,0.9-0.3,2.1-0.7,3.5
				c3.3-2.3,11.4-7.5,16.7-7.5c0.2,0,0.4,0,0.6,0c5.8,0.4,17.1,4.5,18.5,7.9c1,2.4,7.4,17.2,7.5,17.3c0,0,0,0.1,0.1,0.1l3.6,11
				c2.3-5.8,0.3-12.6-1.8-19.7c-0.3-1.1-0.7-2.3-1-3.4c-2.8-10.1,2.9-11.9,7.5-13.3c0.6-0.2,1.2-0.4,1.8-0.6
				c4.7-1.6,12.1-11,14.5-18.4c0.2-0.6,0.8-1,1.4-1c0.1,0,0.2,0,0.3,0l9.2,2.1c0.6,0.1,1,0.6,1.2,1.2c0.2,0.9,1.4,8.9-2.4,12.3
				c-3.3,3-13.8,11.1-20.6,15.4c-2.9,1.8-2.4,3.3-0.5,7.7c1.1,2.5,2.5,5.7,2.9,9.6c1.1,10.1-4.2,22.4-9.6,28.1
				c-1.3,1.3-2.9,2.5-4.8,3.5c0.8,1.1,1.6,2.4,2.4,3.7c4.9-4.5,13.5-11.4,24.6-15.1c6.9-2.3,13.1-3.4,19.2-3.4
				c10.7,0,21.2,3.4,33.9,10.9c17.7,10.5,27.2,27.3,29.8,53.1c1.9,18.6-1.8,57.2-11.9,75.3c-1,1.8-2.1,3.7-3.2,5.7
				c4,3.2,6.3,8.1,6.3,13.2v14.7c2.9,2.7,5.6,6,8.3,9.8c4.9,7.3,6.4,14.5,4.3,21.7c-2.8,9.4-12.2,18.4-25.1,23.9
				c-4.6,2-10.9,3-18.6,3c0,0,0,0,0,0c-13,0-27-2.8-33.1-4.2C185.9,291,157.7,300.1,127.7,300.1z M214.9,262.2c3.1,1.5,7.4,3,12.2,3
				c0.7,0,1.5,0,2.2-0.1c5.7-0.6,9.6-4.4,11.3-8.2h-23C216.8,258.7,215.9,260.4,214.9,262.2z M16.9,256.9c1.6,3.8,5.5,7.6,11.3,8.2
				c0.7,0.1,1.5,0.1,2.2,0.1c4.1,0,7.8-1.1,10.5-2.3c-1.2-2-2.2-4-3.1-6H16.9z M241.8,190.1c1.8-3,3.1-5.8,3.9-8.4
				c5.8-17.9,7.1-59,0.6-72.2c-6.7-13.8-17.9-21.4-31.6-21.4c-3.1,0-6.3,0.4-9.5,1.2c-17.6,4.1-27.9,13.8-29.6,15.6
				c-0.2,1-0.4,1.9-0.7,2.9c-1.3,4.9-1.3,10.3-1,16.2c0.1,0,0.2,0.1,0.3,0.1c4.8,2.1,4,9.5,2.4,13.7c-0.5,1.4-1.4,3.2-2.4,5.1
				c-1.2,2.5-3.3,6.6-3.3,7.7c0.9,2.4,3.3,9.1-0.7,11.7c-0.8,0.6-1.7,0.8-2.7,0.8c-0.3,0-0.5,0-0.8-0.1c-0.1,0.5-0.1,1.1-0.2,1.7
				c0,0.1,0,0.1,0,0.2c6.1,1.1,11.5,3,16.2,5.8c5.5,3.2,10.6,9.7,15.3,19.3H241.8z M81,93.4c-2,0.2-4.1,0.5-6.3,0.9
				c-1,0.2-1.9,0.3-2.8,0.5C59,97.1,50.6,98.5,35,119.5c-8.1,10.8-10.1,27.4-5.9,47.8c0.6,2.9,2.1,7.2,4.5,12.7
				c4.8-2.2,8.6-3.1,10.2-3.5c1.2-2.4,6-9.9,19.7-16.2c6.3-2.9,11-3.8,13.9-4c-0.8-1.1-1.5-2.4-2-3.7c-1.9-5,0.6-12.9,1.5-14.7
				c0.1-0.1,0.1-0.3,0.1-0.5l0-0.1c-0.1-0.3-0.2-1-0.4-2l-0.1-0.5c-0.5-2-1.3-5-2-9.9c-0.2-1.4-0.3-2.8-0.4-4l0-0.1
				c0-0.1,0-0.2,0-0.3c-0.3-5.2,0.3-7.9,1-11c0.2-0.9,0.4-1.8,0.6-2.8c0.9-4.5,3.2-6.3,4.7-7C80.3,98.5,80.4,96.5,81,93.4z"/>
			<path class="st2" d="M89.6-31.9c3.1,0,11.5,2.8,9.3,4.7c-2.2,1.9-4.1,11.5-4.3,15.5c-0.2,4,4.8,10.8,11.5,11.2
				c6.7,0.4,14.7,4.7,14.7,8.3c0,1.9-1.8,6.4-4.1,11.1c2.5-3.1,4.3-5.4,4.3-5.4s11-8.2,17.2-8.2c0.2,0,0.3,0,0.5,0
				c6.1,0.4,16.2,4.6,17.2,7c1,2.4,7.5,17.3,7.5,17.3l4.6,14.3c0,0,0.1-0.1,0.1-0.1c5.5-7.9,1.7-17.4-1-27.2
				c-2.7-9.8,2.9-10.2,8.3-12.1c5.4-1.8,13-11.8,15.4-19.3l9.2,2.1c0,0,1.4,8-1.9,10.9c-3.2,3-13.7,11-20.4,15.2
				c-6.7,4.2,0.7,9,1.7,18.7c1,9.7-4,21.5-9.2,26.8c-1.7,1.7-3.9,3-6,4c1.5,1.9,2.9,4,4.3,6.7c4.3-4.2,13.4-12.1,25.4-16.1
				c6.5-2.2,12.6-3.3,18.7-3.3c10.4,0,20.8,3.4,33.2,10.7c16.5,9.7,26.4,25.7,29.1,52c1.9,18.8-2,57.1-11.7,74.4
				c-1.2,2.1-2.5,4.4-3.9,6.8c4.1,2.8,6.8,7.5,6.8,12.8v15.4c2.9,2.7,5.8,6,8.5,10c13.3,19.6-2.7,35.9-20.2,43.3
				c-4.9,2.1-11.4,2.9-18.1,2.9c-13.5,0-28-3.1-33.5-4.4c-16.5,14.7-44,24.3-75.2,24.3c-30.9,0-58.2-9.5-74.7-23.9
				c-6.4,1.4-19.6,4-31.9,4c-6.7,0-13.1-0.8-18.1-2.9c-17.6-7.5-33.5-23.7-20.2-43.3c2.2-3.3,4.5-6,6.8-8.4v-22.9
				c0-5.2,4.2-9.5,9.4-9.5h16.4c-7.1-11.9-15.1-26.3-18.6-37.5C-9,135.5-3.5,104.8,8.2,88.5c11.7-16.3,39.9-27.4,54.5-28.4
				c1.2-0.1,2.4-0.1,3.7-0.1c14,0,30,4.9,30,4.9v0.8c1.9-2.1,3.9-4.2,6.2-6.2c0.5-0.4,1-0.8,1.5-1.2c-3-3.9-8.7-12-8.1-17.5
				c0.8-7.4,8.4-19.1,11.9-22.3c3.6-3.2,6.5-8.5,0-8.7c-6.5-0.2-22.4-6.4-22-15.3c0.4-8.9,0-16.5,1.8-19.3
				C89.5-27.7,86.5-31.9,89.6-31.9 M167.6,161.7c-0.7,0-1.5-0.2-2.1-0.5c0,0.9-0.2,2-0.4,3.4c-0.1,0.6-0.2,1.1-0.3,1.7
				c5.2,0.8,11.5,2.4,17.2,5.8c6.4,3.8,11.6,12,15.2,19.5h45.4c1.9-3.2,3.5-6.3,4.5-9.4c5.7-17.7,7.5-59.2,0.6-73.4
				c-6.5-13.3-17.8-22.2-32.9-22.2c-3.1,0-6.4,0.4-9.9,1.2c-20,4.7-30.7,16.3-30.7,16.3l0,0c-0.2,1.1-0.5,2.2-0.7,3.2
				c-1.5,5.6-1.3,11.7-1,17.8c0.3,0.1,0.7,0.2,1.2,0.3c3.6,1.6,3.1,7.9,1.6,11.8c-1.6,3.9-6.3,12.1-5.7,13.8c0.6,1.7,3,8-0.1,10.1
				C168.9,161.5,168.3,161.7,167.6,161.7 M32.7,182c6.9-3.4,12-4.1,12-4.1s3.4-8.8,19.3-16.1c7.5-3.4,12.6-4,15.1-4
				c0.8,0,1.3,0,1.5,0.1c-1.5-1.3-3.1-3.4-3.9-5.7c-1.6-4.3,0.5-11.5,1.5-13.5c0.2-0.3,0.2-0.7,0.3-1.1c0-0.1,0-0.1,0-0.2
				c0-0.1,0-0.1,0-0.2c0-0.2-0.2-1-0.4-2.1c-0.5-2-1.4-5-2.1-10.3c-0.2-1.5-0.3-2.8-0.4-4c0,0,0-0.1,0-0.1c0-0.1,0-0.2,0-0.3
				c-0.4-6.3,0.6-8.6,1.6-13.4c1.1-5.8,4.7-6.3,4.7-6.3s-0.2-2.4,1-8.9c-2.4,0.2-5.2,0.6-8.4,1.1c-14.4,2.6-23.6,2.7-40.6,25.7
				c-11.7,15.7-8.4,38.2-6.2,49C28.3,171.2,30.4,176.6,32.7,182 M227.1,266.7c0.8,0,1.6,0,2.3-0.1c7.4-0.8,12-6.4,13.2-11.2h-26.1
				c-1,2.5-2.2,5-3.8,7.4C215.9,264.4,221.1,266.7,227.1,266.7 M30.4,266.7c5,0,9.6-1.6,12.7-3.1c-1.8-2.6-3.2-5.4-4.3-8.2h-24
				c1.2,4.8,5.8,10.4,13.2,11.2C28.8,266.6,29.6,266.7,30.4,266.7 M89.6-34.9c-1.8,0-2.8,0.8-3.4,1.4c-1.3,1.5-1.1,3.4-1,4.8
				c0.1,0.7,0.2,1.8,0,2.2c-1.8,2.8-1.9,7.6-2.1,14.4C83.1-10.1,83.1-8,83-5.7c-0.1,3.1,1.1,6.1,3.6,8.8c5.5,5.9,16.1,9.4,21.3,9.6
				c0.3,0,0.6,0,0.8,0.1c-0.3,0.8-1.2,2.1-2.7,3.4c-4,3.6-12,15.9-12.9,24.2c-0.6,5.3,3.1,12.1,7,17.4c-1.4,1.3-2.7,2.6-4,3.9
				C91.9,60.5,78.5,57,66.4,57c-1.3,0-2.6,0-3.9,0.1C47.3,58.2,18.3,69.3,5.8,86.8C-6.5,103.9-12,135.8-6,155
				c2.6,8.4,8,19.4,16.2,33.6H-0.9c-6.9,0-12.4,5.6-12.4,12.5v21.7c-2.2,2.3-4.3,4.9-6.3,7.9c-5.2,7.6-6.7,15.4-4.5,22.9
				c2.9,10,12.4,19.1,26,24.8c4.8,2.1,11.3,3.1,19.2,3.1c11.6,0,23.9-2.2,31.1-3.7c17.7,14.9,45.8,23.7,75.6,23.7c30,0,58.3-9,76-24
				c6.5,1.5,20,4.1,32.7,4.1c7.9,0,14.4-1,19.2-3.1c13.6-5.8,23-14.8,26-24.8c2.2-7.6,0.7-15.3-4.5-22.9c-2.6-3.8-5.2-6.9-8-9.6V207
				c0-5.2-2.2-10.1-5.9-13.5c0.9-1.6,1.8-3.2,2.6-4.7c10.2-18.4,13.9-57.4,12-76.2c-2.7-26.3-12.4-43.5-30.6-54.2
				c-12.8-7.6-23.9-11.1-34.7-11.1c-6.2,0-12.7,1.1-19.7,3.5c-10.3,3.5-18.6,9.6-23.7,14.1c-0.2-0.3-0.4-0.6-0.6-0.9
				c1.4-0.9,2.6-1.9,3.7-2.9c5.8-6,11.2-18.6,10.1-29.3c-0.4-4.2-1.9-7.4-3.1-10.1c-2-4.6-1.8-4.7-0.1-5.8
				c6.8-4.3,17.4-12.5,20.8-15.5c4.2-3.9,3.1-12,2.8-13.6c-0.2-1.2-1.1-2.2-2.3-2.4l-9.2-2.1c-0.2,0-0.4-0.1-0.7-0.1
				c-1.3,0-2.5,0.8-2.9,2.1c-2.4,7.4-9.6,16.1-13.5,17.4c-0.6,0.2-1.2,0.4-1.7,0.6c-4.7,1.4-11.7,3.6-8.5,15.2
				c0.3,1.1,0.6,2.3,1,3.4c1.4,4.7,2.6,9,2.7,13l-1.7-5.1c0-0.1-0.1-0.2-0.1-0.3c-0.1-0.1-6.5-14.9-7.4-17.3
				c-1.8-4.4-14.1-8.5-19.8-8.9c-0.2,0-0.4,0-0.7,0c-4.4,0-10.3,3.1-14.4,5.7c0-0.1,0-0.1,0-0.2c0-6.2-10.4-10.8-17.5-11.3
				c-5.2-0.3-8.8-5.9-8.7-8.1c0.3-4.5,2.1-12.1,3.3-13.4c1.3-1.1,1.7-2.7,1.2-4.3C100.5-33.4,91.3-34.9,89.6-34.9L89.6-34.9z
				 M177,105.6c2.4-2.3,12.3-11,28.6-14.9c3.1-0.7,6.2-1.1,9.2-1.1c0,0,0,0,0,0c13,0,23.7,7.3,30.2,20.5c6.3,13,5,53.4-0.7,71.1
				c-0.7,2.2-1.9,4.7-3.4,7.3h-41.8c-4.7-9.4-9.9-15.8-15.5-19.1c-4-2.4-8.5-4.1-13.5-5.3c0.4-0.2,0.8-0.4,1.1-0.6
				c4.7-3.2,2.4-10.3,1.4-13.1c0.3-1.3,2-4.8,3.1-6.9c1-1.9,1.9-3.8,2.4-5.2c2.3-5.7,2-12.9-2.6-15.4c-0.2-5.5-0.2-10.4,1-14.9
				C176.6,107.3,176.8,106.4,177,105.6L177,105.6z M34.3,178c-2-4.7-3.3-8.4-3.8-11c-4.1-20-2.1-36.1,5.7-46.6
				c15.2-20.5,23.5-21.9,35.9-24c0.9-0.2,1.9-0.3,2.8-0.5c1.4-0.3,2.9-0.5,4.2-0.7c-0.2,1.5-0.3,2.7-0.4,3.6
				c-1.9,1.2-3.9,3.5-4.7,7.6c-0.2,1-0.4,1.9-0.6,2.8c-0.7,3.2-1.4,6-1,11.4c0,0.2,0,0.3,0,0.4l0,0.1c0.1,1.3,0.2,2.6,0.4,4.1
				c0.7,5,1.5,8.1,2,10.1l0.1,0.5c0.1,0.7,0.3,1.3,0.3,1.7c-1.1,2.4-3.5,10.4-1.5,15.7c0.2,0.7,0.5,1.3,0.9,1.9
				c-3.1,0.5-7.1,1.6-12,3.9C51,164.4,45,171.1,42.7,175.2C41,175.6,38,176.4,34.3,178L34.3,178z M218.6,258.4H238
				c-1.8,2.6-4.8,4.8-8.9,5.2c-0.7,0.1-1.4,0.1-2,0.1c-3.8,0-7.3-1-10.1-2.2C217.6,260.5,218.1,259.4,218.6,258.4L218.6,258.4z
				 M19.5,258.4h17.4c0.6,1.3,1.2,2.5,1.9,3.8c-2.4,0.8-5.3,1.5-8.3,1.5c-0.7,0-1.4,0-2-0.1C24.3,263.2,21.3,261,19.5,258.4
				L19.5,258.4z"/>
		</g>
		<g>
			<g>
				<ellipse class="st3" cx="127.4" cy="242.2" rx="91.4" ry="56.4"/>
			</g>
			<g>
				<path class="st0" d="M165.4,72.6c0,0,11.2-13.3,28.2-19c17.7-5.9,32.3-4.2,51.9,7.3c16.5,9.7,26.4,25.7,29.1,52
					c1.9,18.8-2,57.1-11.7,74.4c-9.6,17.3-27.2,45.4-36.5,52.4c-9.3,7-11.8-2.3-11.8-2.3l1.8-16.8c0,0,24.7-20.9,30.4-38.6
					s7.5-59.2,0.6-73.4c-7.8-16.1-22.8-25.7-42.8-21c-20,4.7-30.7,16.3-30.7,16.3l-21.6,21.7v-38L165.4,72.6z"/>
			</g>
			<path class="st2" d="M167.8,79.6c0,0,20.7-12.1,35.9-15.3c17.3-3.7,30.5,1.2,42.4,12.3s15.7,20.2,16.6,36.1
				c0.8,14.1,0.3,25-0.6,29.7c-3.2,16.2-8.3,26.7-8.3,26.7l0.2-15.3c0,0,5-13.9,5.7-36c0.6-20.3-5.8-31.9-9.8-36.3
				c-4-4.4-19.4-18.1-39.2-14s-42.8,17.6-42.8,17.6V79.6z"/>
			<path class="st2" d="M169,90.4c0,0,19.9-13.3,35.3-14.6c17.2-1.4,29.9,3.7,38.6,12.4c11.2,11.1,12.1,25.3,12.6,29.7
				c0.5,4.4-0.5,23.8-0.5,23.8s0.7-22.6-3.1-30.8c-3.8-8.2-6-15.3-17.2-24.5c-9.9-8.2-26.6-8.5-37.4-6.7
				c-10.4,1.8-27.6,12.8-27.6,12.8L169,90.4z"/>
			<g>
				<path class="st0" d="M96.1,64.8c0,0-19-5.8-33.7-4.8c-14.6,1-42.8,12.1-54.5,28.4s-17.2,47-11.3,65.5s23.8,45.8,30,56.2
					c6.2,10.4,16-7.6,16-7.6s-13.1-24.4-15.3-35.1s-5.5-33.3,6.2-49c17.1-23,26.2-23.1,40.6-25.7c16.1-2.9,22-0.5,22-0.5V64.8z"/>
			</g>
			<g>
				<path class="st0" d="M80.6,157.8c0,0-5.9-1.2-16.9,3.9c-16,7.3-19.3,16.1-19.3,16.1s-12.4,1.9-24.8,12.6s-22.2,30.8-24.1,36.1
					c-1.9,5.3-1.4,27.1-1.4,27.1l0,0l249.1,1.7c0,0,3.7-9-0.7-18.2c-4.4-9.2-13.8-22.4-25.2-26.3c-11.4-4-14.6-4-14.6-4
					s-7.8-26.7-21.1-34.6c-13.3-7.9-29.1-6.4-29.1-6.4L80.6,157.8z"/>
			</g>
			<g>
				<path class="st0" d="M147.8,53.8c-19.4-3.6-34.6-4.3-45.5,5.6S85.1,79.9,83.1,88.7c-2,8.8-1.6,12-1.6,12s-3.6,0.5-4.7,6.3
					c-1.1,5.8-2.4,7.9-1.1,17.8c1.3,9.9,3.3,11.9,2.3,13.8c-1,2-3.1,9.2-1.5,13.5c1.6,4.3,5.4,7.6,7.5,7.4
					c2.1-0.2,8.9,14.5,19.2,22.9c10.2,8.4,14,9.9,23.4,9.9s13.5,2,18.4,0.7c4.9-1.3,16.4-12.8,18.5-22.1c2.1-9.2,0.5-8.9,3.1-15.8
					s6.2-14,6-22.4c-0.2-8.4-1.5-17.4,0.7-25.3s2.4-18.1-1.5-29c-3.9-10.9-7.6-16.1-12.8-20.1C153.7,54.3,147.8,53.8,147.8,53.8z"/>
			</g>
			<path class="st2" d="M127.6,129.6c-1.5-0.6,1.2-0.5-1.5-0.6c-2.7-0.2-12.5-0.8-14.7-3.5c-2.2-2.7-9.2-2.2-10.4-6.1
				c-1.2-4,0-10.1,4-10.5c4-0.4,9.9,0.7,7.9-0.8c-2-1.5-8.9-5.6-9.5-9.1s4-9.7,2.3-7.9c-1.7,1.9-12.6,14.2-13.1,15.9
				c-0.5,1.7-4.5,5.5-3.5,7.5c1,2-1.5,4.3-2.7,7.9c-1.2,3.6,3.2,19.2,8.2,16.8c2.8-1.3-7-7.3-6-11c1-3.7,2.9-8.9,1.8-8.1
				s-4.6,0.4-5.1,3.5c-0.5,3.1,0.2,4.6,0.9,6.2c0.6,1.6,0.9,8.1,2.3,11.1c1.5,3,2,2.7,3.7,3.5s5.2,3.1,4,6.5
				c-1.2,3.5-6.1,5.8-6.5,7.5c-0.4,1.7,0.2,7.9,3.9,13.9c3.7,6,7.9,9.1,11.3,11.7c3.4,2.6,4.3-0.6,2.8-4c-1.6-3.3-3.8-21.2-5-26
				c-1.2-4.8-1.2-12.6-1.6-13.6s1.2,3,3.9,4.1c2.7,1.1,6.6,1.4,9.8,0.1c3.2-1.2,9.1-4.6,10.5-5.1c1.4-0.5-2.4,4.1-5.9,5.8
				c-3.5,1.7-8.9,11.5-10.3,14.7c-1.4,3.2-0.7,15.4,0.8,19.1s3.2,5.1,7,7.7c3.8,2.6,9-0.2,14.3,0.1c5.2,0.2,8.1,1.1,8.8,2.4
				c0.7,1.3,3.1,1.9,5.7,1.1c2.6-0.7,12.6-8.9,13.8-10.8c1.2-1.9,2-3.3,2-3.3s2.5-6.3,3.4-11.6c1.6-9.7-2.2-7.4-3.8-9
				c-1.7-1.6-4.7-5.8-5.3-4.9c-0.6,0.9,1,9,0.9,13.4s-0.2,10-1.7,12.4c-1.5,2.3-0.9,5.1-3,4c-2.2-1.1-4.3-8.5-6.8-10
				s3.3,0.5-5.3-0.4c-6.5-0.7-13,0-14.7,1.6c-1.7,1.6-4.9,4.2-6.8,4.8c-2,0.6-3.5-0.1-3.5-0.1s2.4,0.5,4.6-1.4c2.2-1.9,2.7-3,2.7-3
				s-2.4,1.9-5.1,1.6c-2.7-0.2-4.1-2.3-4.1-3.5c0-1.1,0.2,0.5,2,1.1c1.7,0.6,4.4,0.5,6.8-1.5c2.4-2,5.9-4.6,8.1-4.6
				c2.2,0-1.6-0.9-1.8-1.8c-0.2-1-1.9-1-3.5-2.2c-1.6-1.2-8-1-8-1s-2-3.3,0.5-4.6c2.4-1.2,5.6-4.4,8.2-7.4c2.6-3,4.7-6.7,4.7-6.7
				s-3.7-4.7-2-7.3c1.7-2.6-1.8,0.5,0,0C129.4,133.7,127.6,129.6,127.6,129.6z"/>
			<path class="st2" d="M144.8,168.4C144.8,168.4,143.3,167.3,144.8,168.4c1.6,1.1,1.2,0.9,2.6,3.3c1.5,2.5,2.6,5.9,3.7,6.5
				c1.1,0.6,3-0.7,3.7,0s1.3-6.6,1.4-7.5c0.1-0.9-3.6-5-3.6-5s-3.5,0.7-4.4,0.8c-2.4,0.4,1.3,0.6,0,0S144.8,168.4,144.8,168.4z"/>
			<path class="st2" d="M116,158c0,0-0.5-1.9,2.4-2.7c2.9-0.9,5.7-0.5,9.1-1.9c3.4-1.4,4.8-2.7,8.3-3c3.5-0.2,3.9,1.7,6,2.1
				s2.1-1.2,4.9-0.6c2.8,0.6,4.9,2.7,6.3,5.4c1.5,2.7,1.6,5.7,2.2,5.7c0.6,0,1.2,2,0,2s-3.1-3.6-5-5.7c-1.9-2.1-6-3.2-7.1-3
				c-1.1,0.2-4.3-0.4-5.5-1c-1.1-0.6-5.3-0.7-8.6,0.1c-3.3,0.9-11,3-11,3s0.1,0.8-1.2,0.7c-1.3-0.1-1.6-1.5-1.6-1.5L116,158z"/>
			<path class="st2" d="M127.6,157.8c0,0,6.4-0.9,8.1-0.9s3.7,1.2,5.9,1.5c2.2,0.2,3.3,0,5,1c1.7,1,3.9,2.3,3.6,2.7
				c-0.2,0.4,0.5,1.9-3.9,1c-4.4-0.9-6.4-1.4-8.6-1.7c-2.2-0.4-4.3,0.1-6.9-1.2S127.6,157.8,127.6,157.8z"/>
			<path class="st2" d="M132.8,143.2c0,0-3.9-2.6-2.2-5.7c1.7-3.1,3.9-3.3,5-3.3s3.2,1.7,3.9,2.6c0.6,0.9,2.7,2.7,2.3,1.9
				c-0.4-0.8-1-2,0-3.3c1.1-1.2,2.9-3.1,3.4-3.2c0.5-0.1,3.3,0.1,4,2.1c0.7,2,1.1,4,0,5.6c-1.1,1.6-2.6,3.3-2.6,3.3s3.9-1.3,4.2-2.7
				s0.3-3.5,0.3-3.5s0.2,1.4,1.3,2.3c1.1,0.9,2.4,0.5,2.1,2.2s0,3.7-2.6,4.4c-2.6,0.7-4-0.6-6.3,0c-2.3,0.6-5.1,0.7-6.8-0.7
				c-1.7-1.5-2.1-1.5-3.2-1.7C134.5,143.2,132.8,143.2,132.8,143.2z"/>
			<path class="st2" d="M88.2,145.5c0-0.9-3.6-3.1-4.4-3.3s-2.2-2.3-2.8-0.8c-0.6,1.5-3.8,7.5-3.8,7.5s4.3,5.2,5.1,3.5
				c0.9-1.7,0.4-2,2.1-1.9C86.1,150.6,86.9,148.2,88.2,145.5c3.1-6.5-7.2-4.2-10.1-22.5c-0.7-4.1-2.1-10-1.5-8.5s2.8,7,2.8,7
				s-0.4-2.5-0.4-7s-0.4-6.7,1.2-7.9c1.6-1.2,4.4-2.2,5-0.4c0.5,1.9,2.1,7.8,1.3,10.1c-0.9,2.3-1.4,1.9-1.3-1.1
				c0.2-3,0.5-6.5-1.2-6.2c-1.7,0.4-3.4,1.2-3.4,3.5c0,2.2-0.2,10.3,0.1,11c0.4,0.7,0.4,11.4,1.6,13.7c1.2,2.3,2.9-8.1,2.9-8.1
				l-3.7-7.7c0,0,2.5,2.1,5.2,0c2.7-2.1,4.6-4.8,4.3-7.9s-3.6-11.2-5.8-11.5c-2.2-0.2-5.8,1.9-6.8,4.1c-1,2.2-3.7,10.5-3.2,14.6
				s3,16.5,3,16.5s0.1,3.8-0.8,8.4c-0.8,4.6,0.4,9.1,5.7,8c5.1-1,5.2-7.2,5.2-7.2"/>
			<g>
				<path class="st0" d="M105.6,60.4c0,0-10.7-12.3-9.9-19.7s8.4-19.1,11.9-22.3c3.6-3.2,6.5-8.5,0-8.7c-6.5-0.2-22.4-6.4-22-15.3
					s0-16.5,1.8-19.3s-1.2-7,1.8-7s11.5,2.8,9.3,4.7s-4.1,11.5-4.3,15.5c-0.2,4,4.8,10.8,11.5,11.2c6.7,0.4,14.7,4.7,14.7,8.3
					s-6.6,17-10.6,22.3c-4,5.3-8,8.1-2.2,14.8c5.9,6.8,7.3,11.7,7.3,11.7L105.6,60.4z"/>
			</g>
			<g>
				<path class="st0" d="M190.4-14.8C188-7.2,180.4,2.7,175,4.6s-11,2.2-8.3,12.1c2.7,9.8,6.5,19.3,1,27.2s-15.3,14.3-15.3,14.3
					l2.7,7.4c0,0,9.6-1.2,14.8-6.5s10.3-17.1,9.2-26.8s-8.4-14.5-1.7-18.7s17.1-12.3,20.4-15.2c3.2-3,1.9-10.9,1.9-10.9L190.4-14.8z
					"/>
			</g>
			<g>
				<path class="st0" d="M111.1,57.8c0,0,8.9-11.3,17.4-17.2s18-9.4,20.8-9.4c2.7,0,5.7,5.5,7.9,11.9c2.2,6.4,3.3,12.2,3.1,17.3
					s0,7.6,0,7.6s-7.1-3.7-12.6-5.2c-5.6-1.5-23.4-5-25.6-4.8C119.9,58.2,111.1,57.8,111.1,57.8z"/>
			</g>
			<g>
				<path class="st0" d="M120.7,13.5c0,0,11.6-8.6,17.7-8.2c6.1,0.4,16.2,4.6,17.2,7s7.5,17.3,7.5,17.3l5,15.6l-2.9,11.9l-2.1,5.7
					l-5.9-1.3L151,51.2l-22.5-1.6l-19.7,7.1c0,0-3-5.5-4.8-11.4c-1.7-5.9-0.4-10.4,4.8-16.9C114,21.7,120.7,13.5,120.7,13.5z"/>
			</g>
			<path class="st2" d="M113.1,34c0,0,6.8,13.2,9.7,12.5c2.9-0.7,4.3-7.3,4.3-7.3l-3.8-8L113.1,34z"/>
			<path class="st2" d="M120.1,24.3c0,0,3.4,4.4,5,6.9s2,8.7,3.9,7.7c1.9-1,8.4-6.9,8.4-7.2c0-0.3-2.1-5.6-2.1-5.6s-9.8-2-11.8-2.5
				C121.5,23.1,120.1,24.3,120.1,24.3z"/>
			<path class="st2" d="M133.2,17.4l6.2,14.5c0,0,5.8-0.6,7.2-2.2s2.7-1.9,4.2-0.7c1.4,1.2,3.8,3.8,4,2.9c0.3-0.9-3.9-9.5-3.9-9.5
				s-3.9,0-8.5-1.6c-4.6-1.6-5.7-1.8-7.1-3.4c-1.4-1.6-3.6-3.5-3.6-3.5L133.2,17.4z"/>
			<path class="st2" d="M156.5,29.9c0,0,0,5.5,1.2,9.1c1.2,3.6,1,9.4,1.9,7.6c0.9-1.8,0.8-11.4,0.8-11.4L156.5,29.9z"/>
			<path class="st2" d="M82.9,71.2c0,0-5.5-4.2-25.1-1.3c-17.6,2.6-27.7,9.8-36.2,19.6S8.2,109.6,8.2,109.6s13.4-21.7,26.6-27.9
				c13.2-6.2,20.5-7.1,31.9-7.3S83,76.3,83,76.3L82.9,71.2z"/>
			<path class="st2" d="M84.1,83.9c0,0-23.5,0-40.3,6.4c-15,5.8-25.3,20.4-28.8,30.6s-3.2,16.4-0.3,24.3s4.9,11.9,4.9,11.9
				s-9.7-18.5-2.7-31.6s14.5-28.3,32.2-32.7c17.7-4.4,36-4.2,36-4.2L84.1,83.9z"/>
			<g>
				<path class="st0" d="M169.3,127.5c0,0,0.5-3.7,4.1-2.1s3.1,7.9,1.6,11.8c-1.6,3.9-6.3,12.1-5.7,13.8s3,8-0.1,10.1
					c-3,2.1-7-2-7-2L169.3,127.5z"/>
			</g>
			<g>
				<path class="st0" d="M256.9,255.4H-1.8c-4.9,0-8.9-4-8.9-8.9v-46.1c0-4.9,4-8.9,8.9-8.9h253.3c7.9,0,14.3,6.5,14.3,14.3v40.6
					C265.8,251.4,261.8,255.4,256.9,255.4z"/>
			</g>
			<g>
				<path class="st0" d="M32.9,211.1c-22.2,0-37.1,1.7-50.4,21.3s2.7,35.9,20.2,43.3c17.6,7.5,53.9-2.1,53.9-2.1l-9.2-12.8
					c0,0-9,6.7-19.7,5.6S12.2,254.5,15,250.1c2.1-3.5,5-8.8,17.9-9.9S32.9,211.1,32.9,211.1z"/>
			</g>
			<g>
				<path class="st0" d="M224,211.1c22.2,0,37.1,1.7,50.4,21.3s-2.7,35.9-20.2,43.3c-17.6,7.5-53.9-2.1-53.9-2.1l9.2-12.8
					c0,0,9,6.7,19.7,5.6c10.6-1.1,15.5-12.1,12.8-16.5c-2.1-3.5-5-8.8-17.9-9.9S224,211.1,224,211.1z"/>
			</g>
			<g>
				<path class="st2" d="M108.7,206.8c0.3-0.1,0.6-0.3,0.8-0.6l0.4-0.8l-3.9-1.3l-0.2,0.7c-1.7,5.2-4.6,10.3-7.5,13.4l-0.4,0.4
					l0.4,0.5c0.3,0.4,0.8,1.3,1,1.8l0.4,0.9l0.7-0.7c0.9-1,1.8-2.1,2.6-3.2v15.5h3.4v-19.7c0.4-0.2,0.5-0.5,0.6-0.8l0.1-0.6
					l-0.6-0.2C107.2,210.3,108,208.6,108.7,206.8z"/>
				<rect x="109" y="209.1" class="st2" width="17.3" height="3.4"/>
				<rect x="107.5" y="227.6" class="st2" width="20" height="3.4"/>
				<polygon class="st2" points="144.1,228.7 144.1,220.5 154,220.5 154,217.1 144.1,217.1 144.1,209.7 155,209.7 155,206.3 
					130,206.3 130,209.7 140.7,209.7 140.7,217.1 131.3,217.1 131.3,220.5 140.7,220.5 140.7,228.7 128.4,228.7 128.4,232.1 
					156.6,232.1 156.6,228.7 				"/>
			</g>
			<path class="st2" d="M92.7,106.9l13.5-5.9c0,0,15.3,6.5,18.1,7.9c2.8,1.5,16.2,5.6,17.2,7.9c1,2.4,7.5,3.6,10.6,1
				c3.1-2.6,5.1-4.4,5.1-4.4s-14.9-2.7-13.1-6.8c3.8-8.4,1.4-29-6.8-40.2c-6.6-9,29,3.5,22.8-6.1c-4.6-7-26.3-10-36.9-7.9
				c-6.3,1.2-34.1,7.9-34.1,40.7C89.2,99.1,92.7,106.9,92.7,106.9z"/>
			<g>
				<path class="st0" d="M139,151.1c0,0,1.6,1.5,1.6,2.8s-1.6,3.1-1.6,3.1s3.1,1.5,2.3,3.2c-0.8,1.8-3.7,3.2-3.7,3.2
					s-1.4,5.3-0.8,8.7c0.6,3.5,2.4,8.6-0.2,11.1s-16.7,6.1-16.7,6.1s20.8,5.4,24.9,3.6s17.6-7.9,18-20.3c0.5-13.3,3.4-22.1,3.4-22.1
					l-6.3-13.4c0,0,0,12.2-6.8,12.4c-6.8,0.2-13.6-1-13.6-1L139,151.1z"/>
			</g>
			<g>
				<path class="st0" d="M86.2,129.6c0,0,4.1,7.5,6.5-4.1c0.7-3.4,7,12.7,8.4,14.7c1.4,2.1,3.5,14.5,3.5,14.5s1.9,17.8,3.6,21
					c1.7,3.3,4.9,8.2,13.3,10.2s12.2,2.1,12.2,2.1s-6.2,2.8-12.2,2.5c-6-0.3-23.3-2.1-27-5.9c-3.6-3.8-7.6-15.6-7.4-20.6
					c0.1-5-3.2-6.6,0-8.7C90.3,153.4,86.2,129.6,86.2,129.6z"/>
			</g>
		</g>
	</g>
</g>
</svg>
