<svg id="b5cc5984-8d41-4610-baa1-26b6980f347f" data-name="Calque 1" xmlns="http://www.w3.org/2000/svg" viewBox="0 0 235 235"><title>thoth-git</title><g id="ab070f45-c182-46c3-b9b1-e28207d5ccfe" data-name="Calque 2"><g id="a7b34e1f-a884-43ed-a4af-63bde711bc0e" data-name="Calque 1-2"><rect width="235" height="235" fill="#343736"/></g></g><g id="ba62bd2f-92b7-4198-b7f3-af93ffe0d6bf" data-name="e2e7230b-1e2f-4093-9c8b-6230359e6a97"><g id="a2d52267-f836-4b9f-88fc-31a68d77e5be" data-name="a08d570a-61ca-41b1-a159-df1234adf770"><path d="M155.64,34.44S146.28,21.11,132.08,20,97.15,22.53,81.82,36.42,57.13,90.08,56.27,92.63s-13.33,17.61-10.78,21.86,5.68,9.37,2.27,11.63a54.26,54.26,0,0,0-13,10.51c-5.68,6.25-7.39,13.91-7.1,23.56A76.48,76.48,0,0,1,27,174.38l-2.84.56v19.52l2,.93s-1.42,7.09-.86,22.42,4.29,25.29,5.12,27,0,7.95.27,9.65,4,6.54,8.23,7.38,28.68-.28,28.68-.28l-3,7.64s44.28-7.39,53.16-6.2c11.22,1.52,33.59,3.43,33.59,3.43l44.46-5,16.92-15.56S198.2,236.49,194,230.59s-7.63-11.63-6.82-19.85,3.4-31.52,4-39.19-4.58-14.49-4.58-14.49.92-14.73-1.07-21.83-6.81-11.93-11.36-19-21.88-32.66-22.74-45.15,3.06-17,8.23-21S186,53.74,186,53.74s6.81,4,9.65,7.39,2.84,1.13.56-4-7.08-12.76-13.62-15.27S157,34.77,157,34.77" fill="#fff"/><path d="M74.7,43.23s-8.5,21.58-4,53.94,13.91,39.7,13.91,39.7l2.55-1.42S76.41,123,73,91.73,74.7,43.23,74.7,43.23Z" fill="#343736"/><path d="M80.92,37.66S73,60,78.31,93.15s14.92,40.47,14.92,40.47l2.52-1.53S84.64,119.54,80.48,87.56,80.92,37.66,80.92,37.66Z" fill="#343736"/><path d="M86,33.44s-6.63,23.7.67,57.85S104,132.52,104,132.52l2.42-1.72S94.55,118.38,88.45,85.35,86,33.44,86,33.44Z" fill="#343736"/><path d="M91.2,29.31s-4.74,25.35,5.28,60.76S117,132.23,117,132.23l2.29-2s-12.79-12.21-21.48-46.6S91.2,29.31,91.2,29.31Z" fill="#343736"/><path d="M95.49,27.47S92.43,53.54,104.89,89s23.37,41.69,23.37,41.69l2.15-2.07s-13.61-11.73-24.63-46.09S95.49,27.47,95.49,27.47Z" fill="#343736"/><path d="M112.19,22.24A19.23,19.23,0,0,0,102,35a68.21,68.21,0,0,0-1,30.38C103,76.17,108.62,96,108.62,96s13.06,35.12,21.85,35.12a71.58,71.58,0,0,0,12.92-.85s-14.77-14.48-18.17-19.85-18.45-39.92-19-44.5,11.63,2.12,12.21,3.54-6-9.79-9.36-16.33-5.65-12-3.56-19.16c1.24-4.4,4.89-7.76,10.63-9.29s12.36-1.13,16.33,2.55,4.4,10.08,4.4,10.08,15.47.29,26.54,3c10.69,2.6,16.32,4.83,24.84,10.69,7.3,5,9.78,6,6.95,1.85s-5.95-11.5-21-17.46-16.61-4.58-22.9-6.53-7.64-8.23-15.9-9.07S112.19,22.24,112.19,22.24Z" fill="#343736"/><path d="M77.56,138.19s13.21-6.11,22.9-6.95,31.65-.86,31.65-.86,7.19-.29,8.9-.29a9.24,9.24,0,0,1,3.27.72l10.92,30.54-13.06-28.2,7.53,28.66-10.51-28.1,5,27.4-8.07-27.32,2.26,27-5-26.83.92,26.13-3.62-26.13-2.49,24.55-.43-24.69-3.89,23.7.85-23.56-4.39,21.71L122,133.93l-5.3,21.86a75.45,75.45,0,0,1-16.47-6.39C91.33,144.72,77.56,138.19,77.56,138.19Z" fill="#343736"/><polygon points="147.96 132.51 160.74 158.48 150.23 132.23 147.96 132.51" fill="#343736"/><path d="M82.54,136.92s-2.84,1.13-5-2.57-10.36-25-10.22-37.46.29-2.13-2.55,4.68S59.25,117.46,56.38,119s8.5,9.92,11.91,12.9a74.38,74.38,0,0,0,19,11.79c2.93,1.34,17.73,9.16,29.38,12.06s-16.62-8.23-16.62-8.23Z" fill="#343736"/><path d="M147.1,130.09a19.53,19.53,0,0,0,8.1-9.92c2.41-6.81,3.69-10.94,3.55-14.91s-10.23-30.54-10.23-30.54,14.07,28.53,17,34.06,12.5,16.61,14.62,18.87,5.68,6.11,6.11,11.79.27,19.58.27,19.58l.29,2.41s-13.15,6.35-34.07,6.11c-24.55-.28-36-3.83-57.75-14.34A124.81,124.81,0,0,1,79.13,144s34.77,16.89,55,19.59,35.78-2.28,37.18-3.06a23.29,23.29,0,0,0,6.54-6c1-1.83.29-9.65-2.42-6.38s-6.67,7.64-7.8,8.09-14.2-24-14.2-24Z" fill="#343736"/><path d="M121.42,60.7S127,42.38,135.89,42.24A163.27,163.27,0,0,1,164,44.38c8.51,1.68,19.35,5,24.71,10.5,5.73,5.84-2.14.71-4.69.28s-12.63-4-25.41-2.69S147.82,67,147.91,68.37,161.53,94.91,164,99s12.49,21.15,12.49,21.15a206.51,206.51,0,0,1-17.75-27.11c-7.24-13.74-9.94-21.29-10.37-20s-4.26,6.81-5.25,20,1.28,24.44,2.84,26.54,6.38,10.08,1,7.52S140,114.06,130.5,98.73s-22-25.83-21-29.09,3.25,1.84,6.38-2.69A25.77,25.77,0,0,1,121.42,60.7Z" fill="#343736"/><path d="M126,41.43h-2.16c-7.43-.46-12.54-3.18-14.31-5.66A7.92,7.92,0,0,0,106.51,33a1.93,1.93,0,0,1-2.21-.12c-1-.84-.92-2.2.35-5.15a1.7,1.7,0,0,1,1.07-.94,1.64,1.64,0,0,1,1.42.23c1.78,1.22,4.06,2.21,4.69,2a8.61,8.61,0,0,0,1.43-.78,12.7,12.7,0,0,1,10.16-2.23c7,1.43,8.44,4.12,9.94,7a12.31,12.31,0,0,0,4.82,3.91,1.69,1.69,0,0,1,.46,2.69l-.18-.18a3.81,3.81,0,0,1-2.28.56c-2.55,0-3.14.11-3.69.11l-.29.15A12.13,12.13,0,0,1,126,41.43Z" fill="#343736"/><ellipse cx="121.92" cy="32.88" rx="2.49" ry="3.83" fill="#343736"/><path d="M133.48,35.15c4.84-.79-.11-10-2.72-10.82,1.93-.49,5.24,1.25,6.63,2.73,1.66,1.77,1.22,4.58,1.21,6.87a3.65,3.65,0,0,1-1.74,3.42,2.11,2.11,0,0,1-3.38-2.2Z" fill="#343736"/><path d="M155.76,54.73c-1.4,0-3,3.06-4,4.06-1.53,1.68-3.4,4.71-3.4,7a15.33,15.33,0,0,0,1.69,8.52,38.8,38.8,0,0,0,2.63,4.59.74.74,0,0,0,.35-.1c0-2-1.19-3.91-1.38-6s-.26-3.93-.45-5.9C150.8,62.79,153,58.58,155.76,54.73Z" fill="#343736"/><path d="M68.49,61.13c.41,3.18-2.2,5.83-3.42,8.32A53.71,53.71,0,0,0,62.2,77.7C61.14,81.07,60,84.46,59,87.87c-.56,1.92,3.36,1.89,3,3.91s.31,7.08-.29,9.16c-1.69,5.77-5.86,10.69-7.37,16.46-.66,2.54-2.68,2.37-2.55,5.93a14.16,14.16,0,0,0,4.58,8.86c2.32,2,5.77,3.05,8.27,5s6.25,3.8,7.88,6C68,143.39,65,144.3,62,147.76c-1.19,1.38-2.64,4.23-4.58,4.58-3.24.66-3-2.91-3.74-5a17.56,17.56,0,0,0-7.64-9.51c-3.6-2-5.65,1.32-8.08,3.92-1.53,1.7-3.05,3.67-4.58,5.5s-1.91,4.41-3.51,5.39a19.64,19.64,0,0,1,2.53-10.89c1-1.69,4.08-4.49,4.89-6s3.79-3.69,4.9-5.17c4.58-6.11,8.61-8.2,9.5-15.93a79.21,79.21,0,0,1,3.13-13.59" fill="#343736"/><path d="M35.32,172.2a8.71,8.71,0,0,0,4.24-.8c3.67-1.53,6.78-4,10.17-6.11s7.37-3.66,11.26-2.91a12.33,12.33,0,0,0,3,.45c4.46-.24,5.24-7.16,9.32-9a1,1,0,0,1,.88-.09,1.09,1.09,0,0,1,.49.66c1,2.74.51,5.81,1,8.68,1,5.35,5.31,9.37,9.7,12.56,1.74,1.25,3.72,2.82,3.66,5-2.92-.2-6.64,0-7.63,2.81-1.18,3.17,2.59,6.27,2.35,9.65a4.42,4.42,0,0,1-5,3.79,4.34,4.34,0,0,1-.81-.19c3.6,5.06,4.58,11.68,8.49,16.51,3.51,4.3,8.87,6.58,14,8.69l-18.75,1.52c-.33-2.19-3.66-2.38-5.42-1s-2.84,3.53-4.75,4.58-4.58.95-7,.71a206.25,206.25,0,0,0-22.64-1.1c5.19-.45,6.46-.63,11-3.24a51.74,51.74,0,0,0,6-4.34c.51-.59,3.62-4.58,4-5.31,4-8.19,4.79-14.33,1.63-22.91,1.28-1.28,4.14.5,5.07-1.05a2.44,2.44,0,0,0,.2-1.41l-.84-17.64a.91.91,0,0,0-1.1-1.05,127.36,127.36,0,0,0-32.51,3.05,13.85,13.85,0,0,0-5.53,2.19,5.12,5.12,0,0,0-2.08,5.22c-.67-2.26-.7-17.61,1.15-18.23C29,166.23,30.42,171.66,35.32,172.2Z" fill="#343736"/><path d="M33.68,191.25c8.6-.5,20-.42,28.35-2.42.52.47,1.34,2.7.73,3s-5,0-5.76,0c-5.83-.21-9.8.58-15.63.78-3.91.14-8.36.55-12.22,1.07-.5,0-4.4.73-4.9.73-.22,0-.16-11,1.71-11.91,0,.93.21,8.43-.32,9.25C25.94,191.7,29.88,191.48,33.68,191.25Z" fill="#343736"/><path d="M186.75,157.58a9.63,9.63,0,0,0,1.06,3.21c.42.69,1,1.25,1.39,2a8.14,8.14,0,0,1,.75,3.88c.48,18.24-1.63,36.41-3.74,54.52.25-1-1.22-1.53-2.26-1.53l-10.49.11a11.4,11.4,0,0,1-4.49-.55,27.87,27.87,0,0,1-4.58-2.35c-7.5-6.11-10.49-8.94-18-15.9-1.76-1.62-5.51-4.75-7.1-6.52s-3.73-4-5.38-5.68c-2.12-2.12-5-5.18-7.27-7.24a60.83,60.83,0,0,1-5.65-5.59,44.11,44.11,0,0,0-10.78-9.28c2.86-1,5.67,1.42,7.74,3.6q7.86,8.25,15.28,16.8a5,5,0,0,0,3,2.08c2.49.27,3.77-3.06,3.74-5.49s-.24-5.57,1.85-6.94c3.05,1.61,1.53,6.62,3.77,9.3a8.15,8.15,0,0,0,2.6,1.86,16.16,16.16,0,0,0,7.48,2.53,16.05,16.05,0,0,0,6.38-1.86l11.55-5.21A3.27,3.27,0,0,0,176,180l2.17-13.91,1,9.17a3.22,3.22,0,0,0,2.9,3.51,2.44,2.44,0,0,0,.38,0l5.32,1a1.66,1.66,0,0,1,1.22.64c.49.92-.85,1.68-1.88,1.8a33.58,33.58,0,0,1-6.26.25c-2.38,3.4.17,9.16-3,11.76-.61.52-1.42.88-1.73,1.62a3.77,3.77,0,0,0,.4,2.59c1.33,3.56.47,7.5.62,11.3s2.08,8.19,5.85,8.68a185.85,185.85,0,0,1,4-37.92,56.41,56.41,0,0,0,1.67-8.55c.38-5.09-.93-10.14-2.23-15.07-.58-2.19-2.21-5.62-1.53-7.84C185.68,151.93,186.18,154.76,186.75,157.58Z" fill="#343736"/><path d="M67.22,151.82a24.34,24.34,0,0,1,2.08,8,14.86,14.86,0,0,1,12.53-.66c4.91,2,8.31,6.47,11.46,10.69l5.1,6.89a2.73,2.73,0,0,1,.75,1.81c-.17,1.84-3.06,1.44-4.59,2.61a4.5,4.5,0,0,0-1,3.76c.17,4.2.6,8.95,3.88,11.58a9.85,9.85,0,0,1,2.52,2.16,5.27,5.27,0,0,1,.47,3.2,28.7,28.7,0,0,1-2.79,10.35,14.09,14.09,0,0,0-1.91,5.18,3.71,3.71,0,0,0,2.89,4.07,5.8,5.8,0,0,1,3.28-2.65,2.49,2.49,0,0,1,3,2.15c0,.41-.19.86,0,1.19a1.17,1.17,0,0,0,1,.35c11.74,0,20.6-11.07,32.07-13.74.47-.11,2.88-1.45,3.34-1.27,3.68,1.42-1.68-2.69-2.93-4.06-2.26-2.47-4.31-5.18-6.8-7.44-8.87-8.09-12.84-11.74-18.95-17a46.07,46.07,0,0,1-5.13-4.33,5.93,5.93,0,0,1-1.31-6.1,3.24,3.24,0,0,0,.47-1.3,2.39,2.39,0,0,0-.78-1.53c-2-2.24-4.37-4.58-4.58-7.64a8.51,8.51,0,0,0-.35-3.29,5,5,0,0,0-2.63-2l-18-8.33c-5.65-2.6-12-5.24-17.87-3.06a5.08,5.08,0,0,0-3.16,2.54c-1,2.4,1,2.75,2.46,3.48C64.12,148.56,65.89,149.34,67.22,151.82Z" fill="#343736"/><path d="M72.66,181.88A131.1,131.1,0,0,0,75.48,209c.72,3.05,1.73,6.32,4.09,8.46s6.11,2.89,9.53,3.37,6.6.69,10.17,1.21c1.64-8.11,3.81-15.87,5.42-24a34.2,34.2,0,0,0,1-8.95c-.29-4.48-2.31-8.62-4.28-12.63l-5.79-11.81a22.23,22.23,0,0,0-2.91-4.84c-2.55-2.91-15.82-9.79-18.85-6.3-2.24,2.58-1.14,9.77-1.2,13Q72.5,174.21,72.66,181.88Z" fill="#343736"/><path d="M27.06,198.52c-.4,7.64,2.94,11.84,4.58,11.91C48.86,211.24,29,228,29.49,233c.12,1.31,1.77,2.66,2.84,1.88.68-.49.61-1.53.85-2.34.55-1.76,2.7-2.46,4.58-2.47a15.09,15.09,0,0,0,5.48-.32,27.67,27.67,0,0,0-7.33,3.57,9.22,9.22,0,0,0-4,6.9,7.81,7.81,0,0,1-.07,2,1.53,1.53,0,0,1-1.42,1.16c-.34-1.53-.67-3-1-4.43-2.07-9.9-4.23-25.73-3.86-35.84" fill="#343736"/><path d="M72.11,241.68c.9,6.55,2.29,13.25,6.79,18.09.51-1.52-.93-3-1.74-4.58a17.15,17.15,0,0,1-1.1-4c-2.33-9.81-1.92-14.75-1.33-22.13.23-2.84,1-5.64,1.24-8.45-4.58-1.11-8.17,2.17-6.2,6.51a16.09,16.09,0,0,1,1.41,5.74C71.53,235.62,71.74,239.1,72.11,241.68Z" fill="#343736"/><path d="M78.14,238.43a43.17,43.17,0,0,0,.41,6.91A21.1,21.1,0,0,0,83,256.28a12.61,12.61,0,0,0,3.62,3.62,14.78,14.78,0,0,0,6.86,1.4l9,.4a9.79,9.79,0,0,1,3.6.59,18,18,0,0,1,1.85,1.09,13.81,13.81,0,0,0,6.11,2,2.3,2.3,0,0,0,1-.08,1.79,1.79,0,0,0,.75-2.43l0,0a5.47,5.47,0,0,0-2.08-2c-6.79-4.58-13.25-10.86-14.62-18.94l1.28,10.2a2.9,2.9,0,0,1-.29,2.14,2.73,2.73,0,0,1-1.7.81,45.81,45.81,0,0,1-6,.84,10.26,10.26,0,0,1-3.58-.21c-3.23-.95-5.94-5.29-6.85-8.52a48.43,48.43,0,0,1-1.13-13.63c.09-4.1,2.84-12.21,3.54-14.47C79.67,219,78.38,235.28,78.14,238.43Z" fill="#343736"/><path d="M104.25,225.28a35.72,35.72,0,0,0,5.5,26.57,5,5,0,0,1,1.28,3.37c-.2,1.23-2.07,2-2.67.94-.92,1.72.53,3.74,2,5.1a58.85,58.85,0,0,0,29.34,15,29.53,29.53,0,0,0,6.23.63,33.45,33.45,0,0,0,10.06-2.2c2.44-.86,4.85-1.79,7.21-2.79,6.55-2.77,12.9-6,19.25-9.24,1.53-.74,8.36-2.08,9.91-1.53,6.57,2.09,1-.46,1.15-1.15s-7.3-3.75-7.27-4.3a3.76,3.76,0,0,0-1-2.28L174,238.52c.57.88-.26,2.14-1.28,2.36a4.84,4.84,0,0,1-3.05-.61c-2.54-1.14-5-2.38-7.44-3.74a9.4,9.4,0,0,1-3.36,4.74,5.31,5.31,0,0,1-5.57.41,7.4,7.4,0,0,1,3.2,3.77c.52,1.6-5.49.09-6.78,1.19s-1.65.25-3.05-.38c-13.55-6.11-18.92,4.41-30.31,2a12.11,12.11,0,0,1-2.84-.86,12.63,12.63,0,0,1-1.82-1.14,10.07,10.07,0,0,1-3.06-2.86,9.74,9.74,0,0,1-1-4.07c-.55-5.7-1-11.69,1.23-16.94a2.28,2.28,0,0,0,.29-1.17c-.12-1.27-2.32-1.53-3.23-1C104.66,220.91,104.51,224,104.25,225.28Z" fill="#343736"/><path d="M118.84,174a147.76,147.76,0,0,0,18,16.8,5.3,5.3,0,0,0,3.79,1.52c2.09-.29,3.05-2.88,2.75-5s-1.39-4-1.65-6.1a16.5,16.5,0,0,0-.45-3.9,2.73,2.73,0,0,1-.27-1.08c0-.63.72-1,1.3-1.29,6.11-3.05,12.4-6,19.15-6.79,1.2-.15,2.69-.46,3-1.62a2,2,0,0,0-1.68-2.17,7,7,0,0,0-3.05.32,41.79,41.79,0,0,1-11.32.83,133.57,133.57,0,0,1-47.25-10.33c-4-1.66-3.68,5-3.05,7.43a4.6,4.6,0,0,0,4.46,3.65c2.59.33,5.13,0,7.63.82C113.87,168.38,116.36,171.23,118.84,174Z" fill="#343736"/><path d="M151.52,210.74l4.68,2.31,10.3,5-24.31-9.52a6.25,6.25,0,0,0-2.75-.62c-.61,0-4.23,1.52-4.29.09,0-1,2.58-1.53,3.22-1.64C142.7,205.93,147.76,208.91,151.52,210.74Z" fill="#343736"/><path d="M153.1,223.66a67.23,67.23,0,0,1,13.9,8.08l6.8,5.1c.3.23,1.92-2.12,2.12-1.79a2.71,2.71,0,0,1,.27,1.25,7.57,7.57,0,0,1-2,5.18,1.84,1.84,0,0,1-.87.63,2.17,2.17,0,0,1-1.52-.4l-5.59-3.05c-2-1.12-4.08-2.23-6-3.52-1.63-1.1-3.17-2.32-4.88-3.3a21,21,0,0,0-16.11-2,79.32,79.32,0,0,1,11.91,3.3,17.54,17.54,0,0,1,5.1,2.59,6.91,6.91,0,0,1,2.75,4.86,1.37,1.37,0,0,1-.23,1,1.55,1.55,0,0,1-1.15.36c-2.76,0-5.39-1.14-8.11-1.75a20.39,20.39,0,0,0-8.59,0,5.81,5.81,0,0,0,4.17,1.52,47.42,47.42,0,0,1,11.25,2.68c4.14,1.52,8.4,3.74,12.74,2.93A9.72,9.72,0,0,0,176.84,236a9.85,9.85,0,0,0-1-2.82c-1.53-2.87-5.68-2.18-8.4-4l-4.83-3.14a58.39,58.39,0,0,0-6.73-4,38.74,38.74,0,0,0-16.8-3.39,4.28,4.28,0,0,0-3.24,1c1.18,1.11,6.77,1.25,8.65,1.53A30.65,30.65,0,0,1,153.1,223.66Z" fill="#343736"/><path d="M170,232.94a3.55,3.55,0,0,1,.47,2.2,11.79,11.79,0,0,1-.52,3.23c-.32,1.09-1,2.3-2.17,2.29-.26,0-.64,0-.61.29a.41.41,0,0,0,.13.19,5.73,5.73,0,0,0,4.27,1.26,6.47,6.47,0,0,0,2.35-.37,5.55,5.55,0,0,0,3.06-5.3,4,4,0,0,0-.4-2,3.65,3.65,0,0,0-1.28-1.31,11,11,0,0,0-3.94-1.53c-.81-.18-3.06-1-3.7-.63A7.76,7.76,0,0,1,170,232.94Z" fill="#343736"/><path d="M176.61,233.78a2.52,2.52,0,0,0,2-1.14,5.94,5.94,0,0,1,.48-1.06,7.27,7.27,0,0,0,.55-.56,1.69,1.69,0,0,0,0-1.63,8.9,8.9,0,0,0-1.05-1.76l-4.31-6a33.42,33.42,0,0,1,4.59,4.06,7.84,7.84,0,0,1,2.09,5.6,4.59,4.59,0,0,1-3.77,4.19,7,7,0,0,1-1.53,5,1.26,1.26,0,0,1-.73.53,1,1,0,0,1-1-.62,3,3,0,0,1-.18-1.26,37.6,37.6,0,0,1,.3-4.24c0-.67,0-1.18.58-1.3S176,233.84,176.61,233.78Z" fill="#343736"/><path d="M150.61,167.65c-3.2-.11-6.55-.6-9.48.67a8.75,8.75,0,0,0-5.19,7.63,11.74,11.74,0,0,0,.4,3.06,19.85,19.85,0,0,0,23.41,14.64,4.38,4.38,0,0,0,3.05-1.79c-2.17-2.41-6.2-1.72-8.93-3.43a16.8,16.8,0,0,1-5-9.68,8.94,8.94,0,0,1,3.81-6.69c.93-.76,5.17-2.78,4.21-4.4C156.46,166.93,151.65,167.69,150.61,167.65Z" fill="#343736"/><path d="M171.67,221.28a32.05,32.05,0,0,1,4.4,4.47,14.14,14.14,0,0,1,2.28,3.15,4.83,4.83,0,0,1,.32,3.78,7.07,7.07,0,0,0,0-8.06,11.71,11.71,0,0,1-1.41-2c-.23-.49-.32-1-.55-1.53-.78-1.64-2.79-2.15-4.58-2.49-2.67-.52-5.82-1.62-8.5-1.53C166.33,218.67,169.23,219.35,171.67,221.28Z" fill="#343736"/><path d="M123.57,126.69a13.48,13.48,0,0,1,6.81,10.5c.57,4-.56,30.55-.56,30.55l-25-5.58s3.48-25.84,2-29.23-3.66-7.42-3.66-7.42,13.91,5.55,15.27,4.58a24.33,24.33,0,0,0,3.4-2.93Z" fill="#fff"/><path d="M119,34.73a3,3,0,0,0,1,.73,5.12,5.12,0,0,0,5.35-.63l-.77,1.53a1.1,1.1,0,0,1-1.13.78c-.85,0-1.69.08-2.53.08a9,9,0,0,1-2.25-.28,11.51,11.51,0,0,1-1.52-.56l-2.63-1.15a3.44,3.44,0,0,1-2-1.53,11.09,11.09,0,0,0,3.17.68c-.26-.23-.14-.69.07-1a2.12,2.12,0,0,0,.58-.88,1,1,0,0,1,0-.34c.09-.15.29-.17.46-.2a3.73,3.73,0,0,0,1.92-.91C119.49,32.36,117.86,33.37,119,34.73Z" fill="#fff"/><path d="M166.69,110.79s5.69,27.26,3.7,32.07a154.25,154.25,0,0,0-4.58,15L182,153.32l3.68-1.71s-2.55-7.1-5.39-18.16-10.91-22.66-10.91-22.66Z" fill="#fff"/><path d="M135.33,42.82s23-1.53,32.22.41,20.57,6.68,22.71,8.1a10.31,10.31,0,0,1,4.15,4.13c.37.84.32,2.16-.58,2.33a1.92,1.92,0,0,1-1.34-.54c-4.05-3-9-4.4-13.75-5.77l-8.32-2.32a39.21,39.21,0,0,0-4.31-1,37.75,37.75,0,0,0-5.31-.41l-13.65-.46a52.3,52.3,0,0,1-10.81-1.15,3,3,0,0,1-1.88-1.05C134.06,44.45,134.6,42.87,135.33,42.82Z" fill="#343736"/><path d="M176.61,162.16a8.64,8.64,0,0,0,3.77-1.52c.84-.66,1.4-1.61,2.18-2.33a2.6,2.6,0,0,1,2.92-.64,3.19,3.19,0,0,1,.94,1.06,33.27,33.27,0,0,1,5.11,14.35,61.42,61.42,0,0,1-.52,13.75,8.45,8.45,0,0,1-.51,2.21,17.88,17.88,0,0,1-1.52,2.23,14.1,14.1,0,0,0-1.53,7l-.77,15.07c-.12,2.7-.36,5.64-2.19,7.64-2.92,3.13-8.74,1.8-10.91-1.88a41.42,41.42,0,0,1-2.18-5.77c-3.06-7.64-11.38-11.3-17.78-16.4-5.6-4.48-14.55-14.25-13.54-22.19.91-7.12,12-7.64,17.33-8.69C163.81,164.8,170.21,163.45,176.61,162.16Z" fill="#343736"/><path d="M212.58,245.92s-14.47-9.37-18.73-15.27c-3.67-5.13-6.69-10.05-6.94-16.55.92-8,1.74-16,2.31-24,.78-7.49,1.53-14.79,1.79-18.49.5-6.73-3.45-12.84-4.4-14.2l-.14-.64v-1.53a118,118,0,0,0-.21-14.32,8.62,8.62,0,0,0-.09-1.53,15.67,15.67,0,0,0-.49-2.72c-.11-.53-.23-1-.37-1.53-1.91-6.81-6.43-11.54-10.81-18.2-3.06-5.12-8.86-15-10.69-18-1.39-2.35-6.38-11.57-10.43-19.3-.19-.5-.38-1-.55-1.53-.18-1.79-1.18-3.46-1.35-5.3s-.24-3.59-.41-5.39a31.32,31.32,0,0,1,.45-4.52,25.47,25.47,0,0,1,4.12-8.17,2.56,2.56,0,0,0-1.53,1,18.34,18.34,0,0,1,2.26-2.86,17.51,17.51,0,0,1,2.15-.35c12.79-1.28,22.91,2.26,25.42,2.69,2.29.38,10.29,4.34,11.63,6,2.84,3.41,1.09-6.11-.43-8.38-2.68-4-5.95-11.5-21-17.46s-16.62-4.58-22.91-6.53a12.87,12.87,0,0,1-1.71-.72A35.42,35.42,0,0,0,145,24.62c-2.41-2.22-4.89-4.48-9.58-4.93a41.5,41.5,0,0,0-7.88.1A71.15,71.15,0,0,0,91.07,29.5v0a60.47,60.47,0,0,0-9.33,6.9c-2.81,2.55-7.63,8.23-8.4,10.87C63,64.66,56.85,90.59,56.16,92.63c-.84,2.55-7.63,27.17-7.13,29.51a84.15,84.15,0,0,1-5.45,6.63,48,48,0,0,0-9,7.86c-5.71,6.25-7.39,13.91-7.1,23.56v5.39a62.71,62.71,0,0,0-.41,7.38c-.11.95-.2,1.42-.2,1.42l-2.84.56v15.18a24.2,24.2,0,0,0,0,4.34l1.95.93s-1.42,7.09-.85,22.42,4.34,25.29,5.27,27,.67,6,.94,7.63,7.39,7.11,11.66,8S67.6,261.5,67.6,261.5l-3,7.64s33.36-3.38,42.21-4.3c21.85-2.24,49.46,3.33,48.39,3.82l9.51-3.05s9.61-19.85,2.68-1.53c.3-.21,6.93,2.12,7.23,1.91l22.1-4.95Z" fill="none" stroke="#fff" stroke-miterlimit="10" stroke-width="1.5"/><path d="M173,189.35l52.86-34.55s13.74,11.68,16.26,14.22-54.69,29.3-54.69,29.3Z" fill="#343736"/></g></g><path d="M15.87,218.29s.68-9.53,17-6.46,32.21,7.51,53.56,1.37,43-2.82,48.7-5.16,20.65,5.75,28.48,9,13.26,6.34,26.88,4,41.19-20.43,41.19-20.43l14.64,46.64-15,21.79-127,25.87L30.17,284.34l-18.38-31,4.42-33" fill="#343736"/></svg>