<svg width="410" height="437" viewBox="0 0 410 437" fill="none" xmlns="http://www.w3.org/2000/svg">
<g clip-path="url(#clip0_32_3)">
<g clip-path="url(#clip1_32_3)">
<g clip-path="url(#clip2_32_3)">
<path d="M365.44 431.16H364.48V424.45H357.79V417.47H351.7H344.95H344.06V416.81L344.03 410.73H337.37V404.02H330.56V397.19H323.84V396.59L323.98 390.36H316.94V383.53H310.13V376.7H303.32V369.85L297.21 369.87C296.9 369.87 296.59 369.87 296.27 369.87C296.27 369.63 296.27 369.38 296.27 369.14V363.04H289.46V356.21H282.65V349.38H268.07H266.39C265.24 349.38 264.09 349.38 262.94 349.38H262.22C262.22 348.84 262.22 348.3 262.22 347.77C262.22 347.75 262.22 347.73 262.22 347.71C262.46 347.71 262.71 347.71 262.95 347.71L269.03 347.69V340.88H275.83V334.78C275.83 333.79 275.83 332.8 275.83 331.81C275.83 330.52 275.83 329.24 275.83 327.96C275.83 326.73 275.83 325.49 275.83 324.26C275.83 323.21 275.83 322.17 275.83 321.13C275.83 320.89 275.83 320.64 275.83 320.4H282.64V293.08C282.89 293.08 283.13 293.08 283.38 293.08H284.08H290.18H291.24C292.3 293.08 293.37 293.08 294.43 293.08C295.35 293.08 296.28 293.08 297.2 293.08L303.3 293.1V286.98C303.3 286.74 303.3 286.5 303.3 286.26H304.03H310.12V280.16V265.78H316.93V232.13C316.93 230.06 316.93 227.99 316.93 225.92C316.93 223.44 316.93 220.95 316.93 218.47V212.33L310.82 212.35C310.59 212.35 310.35 212.35 310.12 212.35V205.52H303.31V197.25H310.11V191.15C310.12 190.07 310.12 188.98 310.12 187.89C310.12 186.7 310.12 185.51 310.12 184.32C310.12 180.73 310.12 177.08 310.12 173.55C310.12 172.34 310.12 171.13 310.12 169.92H316.93V163.09H323.74V137.21H317.65H316.93C316.93 134.69 316.93 132.17 316.93 129.65C316.93 127.51 316.93 125.37 316.93 123.23C316.93 120.74 316.93 118.24 316.93 115.75L316.91 109.66H310.83H310.11V108.94V102.86L304.05 102.83C303.8 102.83 303.55 102.83 303.3 102.83V89.19H297.22C296.36 89.18 295.5 89.18 294.64 89.18C293.3 89.18 291.96 89.18 290.62 89.18C289.28 89.18 287.95 89.18 286.61 89.18C285.53 89.18 284.45 89.18 283.37 89.18C283.13 89.18 282.88 89.18 282.64 89.18V88.46V82.35H269.02C269.02 79.84 269.02 77.3 269.02 74.78C269.02 73.5 269.02 72.21 269.02 70.93C269.02 69.94 269.02 68.95 269.02 67.96V61.86H262.94H262.21V55H229.44H228.72H223.77H222.63H221.91H162.41H161.27H160.55H155.6H154.46H153.74H147.65V61.1V61.82C147.61 61.82 147.56 61.82 147.52 61.82C146.14 61.82 144.76 61.82 143.39 61.82C142.3 61.82 141.2 61.82 140.11 61.82C139.56 61.82 139 61.82 138.45 61.82H136.28H134.09H133.31H127.22V67.92V68.64C126.98 68.64 126.73 68.64 126.49 68.64C125.94 68.64 125.39 68.64 124.85 68.64H122.66H120.46H119.69H113.62L113.6 74.72C113.6 74.97 113.6 75.21 113.6 75.46C113.35 75.46 113.11 75.46 112.86 75.46L106.79 75.48V81.56C106.79 81.8 106.79 82.04 106.79 82.29C106.54 82.29 106.3 82.29 106.05 82.29L99.98 82.31V88.4C99.98 90.41 99.98 92.43 99.98 94.45C99.98 94.95 99.98 95.46 99.98 95.96H99.26H93.17V102.07C93.17 103.06 93.17 104.06 93.17 105.06C93.17 106.34 93.17 107.62 93.17 108.9C93.17 109.15 93.17 109.39 93.17 109.64H92.45H90.58H86.62H85.64H79.55V115.74C79.55 116.77 79.55 117.79 79.55 118.82C79.55 120.15 79.55 121.47 79.55 122.79C79.55 124.02 79.55 125.24 79.55 126.47C79.55 127.52 79.55 128.57 79.55 129.62C79.55 132.16 79.55 134.69 79.55 137.18H78.84H72.75V143.28C72.75 144.27 72.75 145.27 72.75 146.26C72.75 147.54 72.75 148.82 72.75 150.1C72.75 152.49 72.75 154.89 72.75 157.29C72.75 159.45 72.75 161.61 72.75 163.76V169.85L78.81 169.88C79.06 169.88 79.31 169.88 79.56 169.88V176.7H85.65H86.37C86.37 176.95 86.37 177.19 86.37 177.44C86.37 178.71 86.37 179.98 86.37 181.26C86.37 182.26 86.37 183.26 86.37 184.26V190.36H92.46H93.18V191.08C93.18 194.72 93.18 198.37 93.18 202.02C93.18 203.17 93.18 204.31 93.18 205.46H88.34H85.66H79.57V245.23H86.38V268.31C86.38 269.96 86.38 271.61 86.38 273.26V279.38H92.47H93.19C93.19 279.62 93.19 279.87 93.19 280.11V286.21H100V293.03H106.08L107.35 293.04H109.33H111.3C111.83 293.04 112.36 293.04 112.88 293.04C113.37 293.04 113.86 293.04 114.35 293.04H116.33H118.29C118.76 293.04 119.23 293.04 119.7 293.04C119.94 293.04 120.19 293.04 120.43 293.04C120.43 293.29 120.43 293.53 120.43 293.78C120.43 295 120.43 296.22 120.43 297.45C120.43 298.5 120.43 299.56 120.43 300.61V306.71H127.24C127.24 307.71 127.24 308.71 127.24 309.7C127.24 311.22 127.24 312.74 127.24 314.26V327.18L133.31 327.2C133.55 327.2 133.8 327.2 134.04 327.2V340.82L140.1 340.85C140.35 340.85 140.6 340.85 140.85 340.85C140.85 341.09 140.85 341.34 140.85 341.58C140.85 342.85 140.85 344.12 140.85 345.39C140.85 346.47 140.85 347.56 140.85 348.64C140.85 348.88 140.85 349.11 140.85 349.35H134.04V356.18H133.32H127.23V362.28C127.23 363.28 127.23 364.28 127.23 365.28C127.23 366.56 127.23 367.83 127.23 369.11C127.23 369.36 127.23 369.6 127.23 369.85H113.6V375.97C113.61 377.31 113.61 378.66 113.61 380.01V382.79V383.51H106.82L106.8 389.6C106.8 390.83 106.8 392.06 106.8 393.29C106.8 394.34 106.8 395.39 106.8 396.43C106.8 396.67 106.8 396.92 106.8 397.16H99.99V403.99C99.74 403.99 99.5 403.99 99.26 403.99C98.7 403.99 98.14 403.99 97.59 403.99H95.42H93.23H92.46H86.38V410.09C86.38 410.33 86.38 410.58 86.38 410.82C86.14 410.82 85.91 410.82 85.67 410.82H84.5H82.51H80.53C79.98 410.82 79.42 410.82 78.87 410.82L72.74 410.8L72.76 416.94C72.76 417.17 72.76 417.41 72.76 417.64C72.51 417.64 72.27 417.64 72.03 417.64C71.45 417.64 70.87 417.64 70.3 417.64H68.06H65.81H65H58.92V423.74C58.92 423.98 58.92 424.23 58.92 424.47H58.19L52.11 424.48V431.3H38.49V444.24H371.55V443.94V431.12H365.46L365.44 431.16Z" fill="white"/>
<path d="M304 211.6H288.63V233.42H304V211.6Z" fill="#43495A"/>
<path d="M310.82 232.08H283.46V259.63H310.82V232.08Z" fill="white"/>
<path d="M303.83 252.26H276.47V279.81H303.83V252.26Z" fill="white"/>
<path d="M99.2401 225.25H85.6201V239.14H99.2401V225.25Z" fill="white"/>
<path d="M112.97 239.03H92.4299V266.46H112.97V239.03Z" fill="white"/>
<path d="M242.48 61.1099V67.9399C244.75 67.9399 247.02 67.9399 249.29 67.9399V74.7699C251.56 74.7699 253.83 74.7699 256.1 74.7699H262.91C262.93 81.5999 262.9 88.4299 262.91 95.2599H269.72C269.72 92.9899 269.72 90.6999 269.72 88.4299H276.53C276.53 90.6999 276.53 92.9899 276.53 95.2599C278.8 95.2599 281.07 95.2599 283.34 95.2599C287.95 95.2699 292.58 95.2599 297.19 95.2599V108.92C299.46 108.92 301.73 108.91 304 108.92V115.75H310.81C310.82 120.38 310.81 125.02 310.81 129.64C310.81 134.26 310.81 138.75 310.81 143.3H317.62V156.96H310.81V163.79H304C303.99 170.62 304.02 177.45 304 184.28C304 186.55 304 188.84 304 191.11H297.19V211.6C294.84 211.6 292.49 211.6 290.14 211.6C290.14 213.87 290.14 216.16 290.14 218.43C290.14 220.7 290.14 222.99 290.14 225.26C290.14 227.53 290.14 229.82 290.14 232.09C292.49 232.09 294.84 232.09 297.19 232.09C297.19 234.44 297.19 236.8 297.19 239.16C297.19 241.52 297.19 243.72 297.19 245.99C294.84 245.99 292.49 245.99 290.14 245.99H283.33C283.33 239.09 283.33 232.17 283.33 225.27C283.33 218.44 283.33 211.61 283.33 204.78H276.52V184.29H269.71C269.71 175.19 269.71 166.07 269.71 156.97C267.44 156.97 265.17 156.98 262.9 156.97V150.14C267.44 150.14 271.98 150.14 276.52 150.14V143.31C271.98 143.31 267.44 143.31 262.9 143.31V136.48H269.71C269.71 134.21 269.71 131.92 269.71 129.65C274.25 129.65 278.79 129.66 283.33 129.65C285.6 129.65 287.87 129.65 290.14 129.65V122.82H297.18V115.75H283.33V108.92H276.52V102.09H269.71C269.71 106.64 269.71 111.2 269.71 115.75C269.71 118.1 269.71 120.46 269.71 122.82C267.44 122.82 265.17 122.82 262.9 122.82C258.36 122.82 253.82 122.82 249.28 122.82V108.92C253.82 108.92 258.36 108.92 262.9 108.92V102.09C260.63 102.09 258.36 102.09 256.09 102.09V95.2599H249.28C249.28 97.5299 249.28 99.8199 249.28 102.09C247.01 102.09 244.74 102.09 242.47 102.09V88.4299C244.74 88.4299 247.01 88.4299 249.28 88.4299V81.5999C240.2 81.5799 231.12 81.6199 222.04 81.5999C222.03 79.3299 222.04 77.0399 222.04 74.7699H215.23V81.5999C217.5 81.5999 219.77 81.5999 222.04 81.5999C222.05 83.8699 222.04 86.1599 222.04 88.4299C224.31 88.4299 226.58 88.4299 228.85 88.4299V95.2599C226.58 95.2599 224.31 95.2599 222.04 95.2599C219.77 95.2599 217.5 95.2599 215.23 95.2599C215.23 92.9899 215.23 90.6999 215.23 88.4299H208.42C208.42 90.6999 208.42 92.9899 208.42 95.2599C210.69 95.2599 212.96 95.2599 215.23 95.2599C215.23 97.5299 215.23 99.8199 215.23 102.09C212.96 102.09 210.69 102.09 208.42 102.09C208.42 104.36 208.42 106.65 208.42 108.92H201.61C201.61 106.65 201.61 104.36 201.61 102.09C203.88 102.09 206.15 102.09 208.42 102.09C208.42 99.8199 208.42 97.5299 208.42 95.2599C206.15 95.2599 203.88 95.2599 201.61 95.2599C201.61 92.9899 201.61 90.6999 201.61 88.4299H194.8V95.2599C197.07 95.2599 199.34 95.2599 201.61 95.2599C201.61 97.5299 201.61 99.8199 201.61 102.09C197.07 102.09 192.53 102.09 187.99 102.09V108.92H194.8V115.75C192.53 115.75 190.26 115.75 187.99 115.75V122.82C187.99 123.16 194.2 122.82 194.8 122.82V129.65H201.61C201.61 127.38 201.61 125.09 201.61 122.82C201.61 120.47 201.61 118.11 201.61 115.75C203.88 115.75 206.15 115.75 208.42 115.75C208.42 113.48 208.42 111.19 208.42 108.92H222.04C222.04 111.19 222.04 113.48 222.04 115.75C222.04 120.38 222.04 125.02 222.04 129.64H228.85V122.81H235.66V115.74C235.66 115.4 229.45 115.74 228.85 115.74V108.91C231.12 108.91 233.39 108.91 235.66 108.91C237.93 108.91 240.2 108.91 242.47 108.91V129.63H249.28C249.62 129.63 249.28 135.86 249.28 136.46H256.09C256.09 138.73 256.09 141.02 256.09 143.29C258.36 143.29 260.63 143.29 262.9 143.29V150.12C260.63 150.12 258.36 150.12 256.09 150.12C256.09 147.85 256.09 145.56 256.09 143.29C253.82 143.29 251.55 143.29 249.28 143.29V136.46C247.01 136.46 244.74 136.46 242.47 136.46C242.47 138.73 242.47 141.02 242.47 143.29C240.2 143.29 237.93 143.29 235.66 143.29V136.46H228.85C228.51 136.46 228.85 142.69 228.85 143.29C224.31 143.29 219.77 143.29 215.23 143.29C210.69 143.29 206.15 143.29 201.61 143.29C199.34 143.29 197.07 143.29 194.8 143.29C194.8 141.02 194.8 138.73 194.8 136.46C192.53 136.46 190.26 136.46 187.99 136.46C187.99 134.19 187.99 131.9 187.99 129.63H180.95V136.46C183.29 136.46 185.65 136.46 187.99 136.46C187.99 138.73 187.99 141.02 187.99 143.29C181.11 143.29 174.21 143.29 167.32 143.29V150.12C165.05 150.12 162.78 150.12 160.51 150.12C158.24 150.12 155.97 150.12 153.7 150.12C153.7 152.39 153.7 154.68 153.7 156.95C153.7 159.22 153.7 161.51 153.7 163.78C153.7 166.05 153.7 168.34 153.7 170.61C151.43 170.61 149.16 170.61 146.89 170.61V163.78H140.08C140.08 166.05 140.08 168.34 140.08 170.61C137.81 170.61 135.54 170.61 133.27 170.61V177.44C135.54 177.44 137.81 177.43 140.08 177.44C140.08 181.99 140.08 186.55 140.08 191.1C140.08 193.37 140.08 195.66 140.08 197.93H133.27V211.59C135.54 211.59 137.81 211.58 140.08 211.59C140.08 213.86 140.08 216.15 140.08 218.42C137.81 218.43 135.54 218.42 133.27 218.42V225.25H140.08C140.08 222.98 140.08 220.69 140.08 218.42C142.35 218.41 144.62 218.42 146.89 218.42V211.59C144.62 211.59 142.35 211.6 140.08 211.59C140.08 209.32 140.08 207.03 140.08 204.76H146.89C155.97 204.76 165.05 204.77 174.13 204.76C178.74 204.76 183.37 204.77 187.98 204.76C187.98 207.03 187.98 209.32 187.98 211.59C187.98 213.86 187.98 216.15 187.98 218.42H194.79V232.08H187.98C187.98 229.81 187.98 227.52 187.98 225.25H180.94C180.94 227.52 180.94 229.81 180.94 232.08C180.94 234.43 180.94 236.79 180.94 239.15C180.94 241.42 180.94 243.71 180.94 245.98H174.13C174.13 248.25 174.13 250.54 174.13 252.81C171.86 252.81 169.59 252.8 167.32 252.81V245.98H174.13C174.13 243.71 174.13 241.42 174.13 239.15V225.26H167.32V232.09C165.05 232.09 162.78 232.09 160.51 232.09C160.51 229.82 160.51 227.53 160.51 225.26H153.7C153.7 227.53 153.7 229.82 153.7 232.09C151.43 232.09 149.16 232.09 146.89 232.09C146.89 234.44 146.89 236.8 146.89 239.16H140.08C140.08 241.43 140.08 243.72 140.08 245.99C137.81 245.99 135.54 245.99 133.27 245.99V232.1C133.27 231.76 127.06 232.1 126.46 232.1C126.46 227.55 126.46 222.99 126.46 218.44H119.65C119.65 222.99 119.65 227.55 119.65 232.1C119.64 239 119.65 245.92 119.65 252.83H126.46C126.46 255.1 126.46 257.39 126.46 259.66C126.46 261.93 126.46 264.22 126.46 266.49H133.27C133.27 268.76 133.27 271.05 133.27 273.32C133.27 275.59 133.27 277.88 133.27 280.15H140.08C140.08 282.42 140.08 284.71 140.08 286.98C140.08 289.25 140.08 291.54 140.08 293.81H146.89C146.9 298.36 146.89 302.92 146.89 307.47C146.89 309.74 146.89 312.03 146.89 314.3H133.27C133.27 309.75 133.28 305.19 133.27 300.64C133.27 298.37 133.27 296.08 133.27 293.81H126.46C126.46 291.54 126.46 289.25 126.46 286.98C124.19 286.98 121.92 286.98 119.65 286.98V273.32H112.84C112.84 271.05 112.85 268.76 112.84 266.49C112.83 264.22 112.84 261.93 112.84 259.66H106.03C106.03 257.39 106.04 255.1 106.03 252.83C106.02 250.56 106.03 248.27 106.03 246H99.2202C99.2102 241.37 99.2202 236.73 99.2202 232.11C99.2202 229.84 99.2202 227.55 99.2202 225.28C96.9502 225.28 94.6802 225.28 92.4102 225.28C92.4102 223.01 92.4102 220.72 92.4102 218.45C94.6802 218.45 96.9502 218.45 99.2202 218.45C99.2202 220.72 99.2202 223.01 99.2202 225.28C101.49 225.28 103.76 225.28 106.03 225.28C106.03 227.55 106.03 229.84 106.03 232.11H112.84V225.28C110.57 225.28 108.3 225.28 106.03 225.28C106.03 223.01 106.03 220.72 106.03 218.45C108.3 218.45 110.57 218.45 112.84 218.45C112.84 216.18 112.84 213.89 112.84 211.62C112.85 207.07 112.84 202.51 112.84 197.96C112.84 193.41 112.84 188.85 112.84 184.3H106.03C106.03 182.03 106.03 179.74 106.03 177.47C103.76 177.47 101.49 177.47 99.2202 177.47C99.2202 175.2 99.2202 172.91 99.2202 170.64C99.2202 168.37 99.2202 166.08 99.2202 163.81C99.2202 161.54 99.2202 159.25 99.2202 156.98C96.9502 156.98 94.6802 156.99 92.4102 156.98V150.15H99.2202V143.32H92.4102V136.49H99.2202C99.2202 134.22 99.2202 131.93 99.2202 129.66C99.2202 127.39 99.2202 125.1 99.2202 122.83H106.03C106.03 125.1 106.03 127.39 106.03 129.66C108.3 129.66 110.57 129.66 112.84 129.66C115.11 129.66 117.38 129.66 119.65 129.66C119.65 127.39 119.65 125.1 119.65 122.83C119.65 120.48 119.65 118.12 119.65 115.76C117.38 115.76 115.11 115.76 112.84 115.76V102.1C112.84 97.5499 112.83 92.9899 112.84 88.4399C115.11 88.4299 117.38 88.4399 119.65 88.4399C119.65 86.1699 119.64 83.8799 119.65 81.6099C121.92 81.5999 124.19 81.6099 126.46 81.6099V74.7799C128.73 74.7799 131 74.7799 133.27 74.7799C135.54 74.7799 137.81 74.7799 140.08 74.7799V67.9499C144.62 67.9399 149.16 67.9499 153.7 67.9499V61.1199H242.46L242.48 61.1099ZM188.01 67.9399V74.7699H208.44V67.9399H188.01ZM167.34 74.7699H153.72V81.5999H167.34V74.7699ZM153.72 102.09V88.4299H140.1V102.09C142.37 102.09 144.64 102.09 146.91 102.09V108.92C149.18 108.92 151.45 108.92 153.72 108.92V115.75C151.45 115.76 149.18 115.75 146.91 115.75C146.91 118.1 146.91 120.46 146.91 122.82C144.64 122.83 142.37 122.82 140.1 122.82V136.48H146.91C146.91 131.93 146.9 127.37 146.91 122.82C149.18 122.81 151.45 122.82 153.72 122.82C153.72 120.47 153.72 118.11 153.72 115.75C155.99 115.74 158.26 115.75 160.53 115.75V108.92C162.79 108.92 165.07 108.92 167.34 108.92V102.09C162.8 102.09 158.26 102.1 153.72 102.09ZM167.34 88.4299V95.2599H174.15V88.4299H167.34ZM167.34 129.64V136.47H174.15V129.64H167.34ZM133.29 156.96H140.1V143.3H133.29V156.96Z" fill="#343736"/>
<path d="M153.72 314.27C153.73 318.82 153.72 323.38 153.72 327.93C155.99 327.93 158.26 327.93 160.53 327.93V334.76C160.53 339.39 160.54 344.03 160.53 348.65C158.26 348.65 155.99 348.65 153.72 348.65C153.72 350.92 153.72 353.21 153.72 355.48H160.53C160.53 353.21 160.53 350.92 160.53 348.65C162.8 348.65 165.07 348.65 167.34 348.65V355.48C169.61 355.48 171.88 355.48 174.15 355.48C174.15 357.75 174.15 360.04 174.15 362.31C176.42 362.31 178.69 362.31 180.96 362.31C180.96 364.58 180.96 366.87 180.96 369.14C183.31 369.14 185.66 369.14 188.01 369.14C199.35 369.17 210.71 369.17 222.06 369.14C224.33 369.14 226.6 369.14 228.87 369.14V362.31C231.14 362.31 233.41 362.31 235.68 362.31C235.68 360.04 235.68 357.75 235.68 355.48H242.49V341.59H249.3C249.3 337.04 249.3 332.48 249.3 327.93C253.84 327.93 258.38 327.93 262.92 327.93V341.59C260.65 341.59 258.38 341.59 256.11 341.59C256.11 346.22 256.11 350.86 256.11 355.49H249.3C249.3 357.76 249.3 360.05 249.3 362.32H242.49C242.49 364.59 242.49 366.88 242.49 369.15C242.49 371.42 242.49 373.71 242.49 375.98H235.68C235.68 378.25 235.68 380.54 235.68 382.81C233.41 382.82 231.14 382.81 228.87 382.81C228.87 385.08 228.87 387.37 228.87 389.64H215.25V396.47H201.63C201.63 401.02 201.63 405.58 201.63 410.13C199.36 410.13 197.09 410.13 194.82 410.13C192.55 410.13 190.28 410.13 188.01 410.13C183.4 410.13 178.77 410.13 174.16 410.13V403.3C171.89 403.3 169.62 403.31 167.35 403.3C167.35 401.03 167.35 398.74 167.35 396.47H160.54C160.53 394.2 160.54 391.91 160.54 389.64C158.27 389.64 156 389.65 153.73 389.64C153.73 387.37 153.73 385.08 153.73 382.81H146.92C146.91 380.54 146.92 378.25 146.92 375.98H140.11C140.11 373.71 140.11 371.42 140.11 369.15H146.92C146.92 366.88 146.92 364.59 146.92 362.32C146.92 360.05 146.92 357.76 146.92 355.49C146.92 353.22 146.92 350.93 146.92 348.66H153.73C153.73 346.31 153.73 343.95 153.73 341.59H146.92C146.92 339.32 146.92 337.03 146.92 334.76C144.65 334.76 142.38 334.77 140.11 334.76V321.1C142.38 321.1 144.65 321.1 146.92 321.1C146.92 318.83 146.92 316.54 146.92 314.27C149.19 314.27 151.46 314.27 153.73 314.27H153.72Z" fill="#343736"/>
<path d="M160.53 170.62C160.53 172.89 160.53 175.18 160.53 177.45H153.72C153.72 175.18 153.72 172.89 153.72 170.62H160.53Z" fill="#343736"/>
<path d="M310.82 218.42C310.81 222.97 310.82 227.53 310.82 232.08C308.55 232.08 306.28 232.08 304.01 232.08C301.74 232.08 299.47 232.08 297.2 232.08C297.2 229.81 297.2 227.52 297.2 225.25C299.47 225.25 301.74 225.25 304.01 225.25C304.01 222.98 304.01 220.69 304.01 218.42C306.28 218.42 308.55 218.42 310.82 218.42Z" fill="#343736"/>
<path d="M269.72 321.1C269.72 323.37 269.72 325.66 269.72 327.93H262.91C262.91 325.66 262.91 323.37 262.91 321.1H269.72Z" fill="#343736"/>
<path d="M256.1 307.44H262.91C262.91 311.99 262.91 316.55 262.91 321.1C260.64 321.1 258.37 321.1 256.1 321.1C256.1 318.83 256.1 316.54 256.1 314.27C256.1 312 256.1 309.71 256.1 307.44Z" fill="#343736"/>
<path d="M283.34 225.25C283.34 232.15 283.34 239.07 283.34 245.97C283.34 248.24 283.34 250.53 283.34 252.8H276.53C276.53 245.9 276.51 238.98 276.53 232.08C276.53 229.81 276.53 227.52 276.53 225.25H283.34Z" fill="#796C9D"/>
<path d="M119.67 396.46C119.67 398.73 119.67 401.02 119.67 403.29C117.4 403.29 115.13 403.29 112.86 403.29C112.86 401.02 112.86 398.73 112.86 396.46H119.67Z" fill="#43495A"/>
<path d="M85.6199 430.61C85.6199 432.88 85.6199 435.17 85.6199 437.44C85.6199 439.63 85.6199 442.45 85.6199 444.64H146.91C146.95 443.35 147.22 437.44 146.91 437.44H140.1C140.1 435.17 140.1 432.88 140.1 430.61C140.09 426.06 140.1 421.5 140.1 416.95H133.29V403.29H140.1C140.1 401.02 140.1 398.73 140.1 396.46H133.29C133.29 394.19 133.29 391.9 133.29 389.63C133.28 385.08 133.29 380.52 133.29 375.97H126.48C126.47 378.24 126.48 380.53 126.48 382.8C124.21 382.8 121.94 382.79 119.67 382.8C119.67 385.07 119.67 387.36 119.67 389.63C119.67 391.9 119.67 394.19 119.67 396.46C119.67 398.73 119.67 401.02 119.67 403.29C117.4 403.29 115.13 403.29 112.86 403.29C112.86 405.56 112.86 407.85 112.86 410.12C112.86 412.39 112.86 414.68 112.86 416.95C110.59 416.95 108.32 416.95 106.05 416.95C106.05 419.22 106.05 421.51 106.05 423.78H99.2399V416.95C96.9699 416.95 94.6999 416.95 92.4299 416.95C92.4299 419.22 92.4299 421.51 92.4299 423.78C92.4299 426.05 92.4299 428.34 92.4299 430.61C90.1599 430.61 87.8899 430.61 85.6199 430.61Z" fill="#343736"/>
<path d="M78.81 437.44C78.81 435.17 78.81 432.88 78.81 430.61C76.54 430.61 74.27 430.61 72 430.61C72 432.88 72 435.17 72 437.44H64.95C64.95 439.63 64.95 442.45 64.95 444.64H78.8C78.8 442.45 78.8 439.63 78.8 437.44H78.81Z" fill="#343736"/>
<path d="M256.1 67.9399V74.7699C253.83 74.7699 251.56 74.7699 249.29 74.7699V67.9399C251.56 67.9399 253.83 67.9399 256.1 67.9399Z" fill="#43495A"/>
<path d="M256.1 61.1099V67.9399C253.83 67.9399 251.56 67.9399 249.29 67.9399C247.02 67.9399 244.75 67.9399 242.48 67.9399V61.1099H256.1Z" fill="#796C9D"/>
<path d="M256.1 67.9399C258.37 67.9399 260.64 67.9399 262.91 67.9399C262.91 70.2099 262.91 72.4999 262.91 74.7699H256.1V67.9399Z" fill="#796C9D"/>
<path d="M112.86 197.94C112.86 202.49 112.87 207.05 112.86 211.6H106.05C106.05 207.05 106.05 202.49 106.05 197.94H112.86Z" fill="#796C9D"/>
<path d="M146.91 239.15C146.91 241.42 146.91 243.71 146.91 245.98C151.45 245.98 155.99 245.98 160.53 245.98H167.34V252.81C169.61 252.8 171.88 252.81 174.15 252.81C174.15 250.54 174.15 248.25 174.15 245.98H180.96C180.95 257.36 180.96 268.75 180.96 280.13V286.96H174.15V293.79C176.42 293.79 178.69 293.79 180.96 293.79C183.23 293.79 185.66 293.79 188 293.79C188 296.06 188 298.35 188 300.62C190.27 300.62 192.54 300.62 194.81 300.62C197.08 300.62 199.35 300.62 201.62 300.62V307.45C199.35 307.45 197.08 307.45 194.81 307.45V314.28C190.2 314.28 185.57 314.28 180.96 314.28C180.96 313.68 181.3 307.45 180.96 307.45H167.34V300.62H160.53V293.79H153.72V280.13H146.91V273.3C144.64 273.3 142.37 273.3 140.1 273.3C140.1 268.75 140.1 264.19 140.1 259.64H153.72C153.73 261.91 153.72 264.2 153.72 266.47H167.34C167.34 264.2 167.34 261.91 167.34 259.64C167.34 257.37 167.34 255.08 167.34 252.81C165.07 252.82 162.8 252.81 160.53 252.81V259.64H153.72C153.71 257.37 153.72 255.08 153.72 252.81C151.45 252.81 149.18 252.81 146.91 252.81C146.91 250.54 146.91 248.25 146.91 245.98C144.64 245.98 142.37 245.98 140.1 245.98C140.1 243.71 140.1 241.42 140.1 239.15H146.91Z" fill="#CECFE9"/>
<path d="M188.01 239.15H201.63C201.63 243.7 201.63 248.26 201.63 252.81C201.63 255.08 201.63 257.37 201.63 259.64C201.63 261.91 201.63 264.2 201.63 266.47C201.63 268.74 201.63 271.03 201.63 273.3C199.36 273.3 197.09 273.3 194.82 273.3C194.82 275.57 194.83 277.86 194.82 280.13H180.97C180.97 268.75 180.96 257.36 180.97 245.98C180.97 243.71 180.97 241.42 180.97 239.15H188.01Z" fill="#796C9D"/>
<path d="M119.67 232.08C119.67 227.53 119.67 222.97 119.67 218.42H126.48C126.48 222.97 126.48 227.53 126.48 232.08C127.08 232.08 133.29 231.74 133.29 232.08V245.97C135.56 245.97 137.83 245.97 140.1 245.97C140.1 248.24 140.1 250.53 140.1 252.8C140.1 255.07 140.1 257.36 140.1 259.63C140.1 264.18 140.1 268.74 140.1 273.29C142.37 273.29 144.64 273.29 146.91 273.29V280.12H153.72V293.78H160.53V300.61H167.34V307.44H180.96C181.3 307.44 180.96 313.67 180.96 314.27C176.42 314.27 171.88 314.27 167.34 314.27C167.34 316.54 167.34 318.83 167.34 321.1C165.07 321.1 162.8 321.1 160.53 321.1V314.27C158.26 314.27 155.99 314.27 153.72 314.27C153.72 312 153.72 309.71 153.72 307.44H146.91C146.91 302.89 146.92 298.33 146.91 293.78C146.91 291.51 146.91 289.22 146.91 286.95H140.1C140.1 284.68 140.1 282.39 140.1 280.12C140.1 277.85 140.1 275.56 140.1 273.29C137.83 273.29 135.56 273.29 133.29 273.29C133.29 271.02 133.29 268.73 133.29 266.46C133.29 264.19 133.29 261.9 133.29 259.63H126.48C126.48 257.36 126.48 255.07 126.48 252.8C126.47 245.9 126.49 238.98 126.48 232.08H119.67Z" fill="#796C9D"/>
<path d="M269.72 184.28H276.53V204.77H283.34C283.34 211.6 283.34 218.43 283.34 225.26H276.53C276.53 227.53 276.53 229.82 276.53 232.09C274.26 232.09 271.99 232.09 269.72 232.09V225.26H262.91V218.43H276.53V211.6H249.29V218.43H276.53V211.6H269.72V204.77C269.72 197.94 269.72 191.11 269.72 184.28Z" fill="#43495A"/>
<path d="M188.01 204.77C190.28 204.77 192.55 204.77 194.82 204.77V197.94H201.63V204.77H208.44V197.94H215.25C215.25 200.21 215.25 202.5 215.25 204.77C215.25 207.04 215.25 209.33 215.25 211.6H208.44C208.44 216.15 208.44 220.71 208.44 225.26H201.63C201.63 220.71 201.63 216.15 201.63 211.6C199.36 211.6 197.09 211.6 194.82 211.6C192.55 211.6 190.28 211.6 188.01 211.6C188.01 209.33 188.01 207.04 188.01 204.77Z" fill="#CECFE9"/>
<path d="M269.72 115.75C269.72 111.2 269.72 106.64 269.72 102.09H276.53V108.92H283.34V115.75H297.19V122.82H290.15V129.65C287.88 129.65 285.61 129.65 283.34 129.65V122.82C281.07 122.82 278.8 122.82 276.53 122.82V115.75H269.72Z" fill="#43495A"/>
<path d="M92.4299 266.47V259.64H99.2399C99.2399 261.91 99.2399 264.2 99.2399 266.47H112.86C112.87 268.74 112.86 271.03 112.86 273.3H119.67V286.96C117.4 286.96 115.13 286.96 112.86 286.96C110.59 286.96 108.32 286.96 106.05 286.96V280.13H99.2399C99.2399 277.86 99.2399 275.57 99.2399 273.3C99.2399 271.03 99.2399 268.74 99.2399 266.47H92.4299Z" fill="#43495A"/>
<path d="M222.05 102.09V108.92H228.86V115.75H222.05C222.05 113.48 222.05 111.19 222.05 108.92H215.24V102.09C217.51 102.09 219.78 102.09 222.05 102.09Z" fill="#796C9D"/>
<path d="M242.48 88.4297V102.09C244.75 102.09 247.02 102.09 249.29 102.09C249.29 99.8197 249.29 97.5297 249.29 95.2597H256.1V102.09C253.83 102.09 251.56 102.09 249.29 102.09C249.29 104.36 249.29 106.65 249.29 108.92C247.02 108.92 244.75 108.92 242.48 108.92C240.21 108.92 237.94 108.92 235.67 108.92V102.09C231.13 102.09 226.59 102.09 222.05 102.09V95.2597C224.32 95.2597 226.59 95.2597 228.86 95.2597V88.4297C233.39 88.4397 237.94 88.4397 242.48 88.4297Z" fill="#796C9D"/>
<path d="M256.1 102.09C258.37 102.09 260.64 102.09 262.91 102.09V108.92C258.37 108.92 253.83 108.92 249.29 108.92V122.82C253.83 122.82 258.37 122.82 262.91 122.82V129.65C265.18 129.65 267.45 129.65 269.72 129.65C269.72 131.92 269.72 134.21 269.72 136.48H262.91V129.65C260.64 129.65 258.37 129.65 256.1 129.65C256.1 131.92 256.1 134.21 256.1 136.48H249.29C249.29 135.88 249.63 129.65 249.29 129.65H242.48V108.93C244.75 108.93 247.02 108.93 249.29 108.93C249.29 106.66 249.29 104.37 249.29 102.1C251.56 102.1 253.83 102.1 256.1 102.1V102.09Z" fill="#43495A"/>
<path d="M146.91 102.09C144.64 102.09 142.37 102.09 140.1 102.09V88.4297H153.72V102.09C151.45 102.09 149.18 102.09 146.91 102.09Z" fill="#43495A"/>
<path d="M222.05 81.6C219.78 81.6 217.51 81.6 215.24 81.6V74.77H222.05C222.05 77.04 222.04 79.33 222.05 81.6C231.13 81.62 240.21 81.58 249.29 81.6V88.43C247.02 88.43 244.75 88.43 242.48 88.43C237.94 88.44 233.4 88.44 228.86 88.43C226.59 88.43 224.32 88.43 222.05 88.43C222.05 86.16 222.06 83.87 222.05 81.6Z" fill="#43495A"/>
<path d="M160.53 232.08C162.8 232.08 165.07 232.08 167.34 232.08V225.25H174.15V239.14C169.61 239.14 165.07 239.15 160.53 239.14C160.53 236.79 160.53 234.43 160.53 232.07V232.08Z" fill="#CECFE9"/>
<path d="M228.86 115.75C229.46 115.75 235.67 115.41 235.67 115.75V122.82H228.86V129.65H222.05C222.05 125.02 222.05 120.38 222.05 115.76H228.86V115.75Z" fill="#43495A"/>
<path d="M126.48 232.08C126.49 238.98 126.47 245.9 126.48 252.8H119.67C119.68 245.9 119.66 238.98 119.67 232.08H126.48Z" fill="#43495A"/>
<path d="M153.72 232.08C153.72 229.81 153.72 227.52 153.72 225.25H160.53C160.53 227.52 160.53 229.81 160.53 232.08C158.26 232.08 155.99 232.08 153.72 232.08C153.72 234.43 153.72 236.79 153.72 239.15C155.99 239.15 158.26 239.15 160.53 239.15V245.98C155.99 245.98 151.45 245.98 146.91 245.98C146.91 243.71 146.91 241.42 146.91 239.15C146.91 236.8 146.91 234.44 146.91 232.08C149.18 232.08 151.45 232.08 153.72 232.08Z" fill="#43495A"/>
<path d="M188.01 136.47C185.67 136.47 183.31 136.47 180.97 136.47V129.64H188.01C188.01 131.91 188.01 134.2 188.01 136.47C190.28 136.47 192.55 136.47 194.82 136.47C194.82 138.74 194.82 141.03 194.82 143.3C197.09 143.3 199.36 143.3 201.63 143.3V150.13C199.36 150.13 197.09 150.13 194.82 150.13C194.82 147.86 194.82 145.57 194.82 143.3C192.55 143.3 190.28 143.3 188.01 143.3C188.01 145.57 188.01 147.86 188.01 150.13C185.67 150.13 183.31 150.13 180.97 150.13C176.43 150.13 171.89 150.13 167.35 150.13V143.3C174.23 143.3 181.13 143.31 188.01 143.3C188.01 141.03 188.01 138.74 188.01 136.47Z" fill="#43495A"/>
<path d="M208.44 67.9399H188.01V74.7699H208.44V67.9399Z" fill="#43495A"/>
<path d="M194.82 211.59C197.09 211.59 199.36 211.59 201.63 211.59C201.63 216.14 201.63 220.7 201.63 225.25C201.63 227.52 201.63 229.81 201.63 232.08H194.82V211.59Z" fill="#796C9D"/>
<path d="M208.43 95.2598C208.43 97.5298 208.43 99.8198 208.43 102.09C206.16 102.09 203.89 102.09 201.62 102.09C201.62 99.8198 201.62 97.5298 201.62 95.2598C203.89 95.2598 206.16 95.2598 208.43 95.2598Z" fill="#796C9D"/>
<path d="M201.62 102.09C201.62 104.36 201.62 106.65 201.62 108.92C201.62 111.19 201.62 113.48 201.62 115.75C199.35 115.75 197.08 115.75 194.81 115.75V108.92H188V102.09C192.54 102.09 197.08 102.09 201.62 102.09Z" fill="#796C9D"/>
<path d="M153.72 102.09C158.26 102.1 162.8 102.09 167.34 102.09V108.92C165.07 108.92 162.8 108.92 160.53 108.92C158.26 108.92 155.99 108.92 153.72 108.92C151.45 108.92 149.18 108.92 146.91 108.92V102.09C149.18 102.09 151.45 102.09 153.72 102.09Z" fill="#796C9D"/>
<path d="M208.43 95.2597C208.43 92.9897 208.43 90.6997 208.43 88.4297H215.24C215.24 90.6997 215.24 92.9897 215.24 95.2597C217.51 95.2597 219.78 95.2597 222.05 95.2597V102.09C219.78 102.09 217.51 102.09 215.24 102.09V108.92H208.43C208.43 111.19 208.43 113.48 208.43 115.75C206.16 115.75 203.89 115.75 201.62 115.75C201.62 118.1 201.62 120.46 201.62 122.82H194.81C194.21 122.82 188 123.16 188 122.82V115.75C190.27 115.75 192.54 115.75 194.81 115.75C197.08 115.75 199.35 115.75 201.62 115.75C201.62 113.48 201.62 111.19 201.62 108.92H208.43C208.43 106.65 208.43 104.36 208.43 102.09C210.7 102.09 212.97 102.09 215.24 102.09C215.24 99.8197 215.24 97.5297 215.24 95.2597C212.97 95.2597 210.7 95.2597 208.43 95.2597Z" fill="#43495A"/>
<path d="M222.05 102.09C226.59 102.09 231.13 102.09 235.67 102.09V108.92C233.4 108.92 231.13 108.92 228.86 108.92H222.05V102.09Z" fill="#43495A"/>
<path d="M262.91 143.3C267.45 143.3 271.99 143.3 276.53 143.3V150.13C271.99 150.13 267.45 150.13 262.91 150.13V143.3Z" fill="#43495A"/>
<path d="M167.34 74.77H153.72V81.6H167.34V74.77Z" fill="#43495A"/>
<path d="M146.91 307.44H153.72C153.72 309.71 153.72 312 153.72 314.27C155.99 314.27 158.26 314.27 160.53 314.27V321.1C162.8 321.1 165.07 321.1 167.34 321.1C167.34 318.83 167.34 316.54 167.34 314.27C171.88 314.27 176.42 314.27 180.96 314.27V321.1C178.69 321.1 176.42 321.1 174.15 321.1C171.88 321.1 169.61 321.1 167.34 321.1V327.93C165.07 327.93 162.8 327.93 160.53 327.93C158.26 327.93 155.99 327.93 153.72 327.93C153.72 323.38 153.73 318.82 153.72 314.27C151.45 314.27 149.18 314.27 146.91 314.27C146.91 312 146.91 309.71 146.91 307.44Z" fill="#43495A"/>
<path d="M146.91 314.27C146.91 316.54 146.91 318.83 146.91 321.1C144.64 321.1 142.37 321.1 140.1 321.1C137.83 321.1 135.56 321.1 133.29 321.1V314.27H146.91Z" fill="#43495A"/>
<path d="M262.91 129.64V143.3C260.64 143.3 258.37 143.3 256.1 143.3C256.1 141.03 256.1 138.74 256.1 136.47C256.1 134.2 256.1 131.91 256.1 129.64C258.37 129.64 260.64 129.64 262.91 129.64Z" fill="#796C9D"/>
<path d="M140.1 170.62C140.1 168.35 140.1 166.06 140.1 163.79H146.91V170.62C144.64 170.62 142.37 170.62 140.1 170.62C140.1 172.89 140.1 175.18 140.1 177.45C142.37 177.46 144.64 177.45 146.91 177.45C146.91 179.72 146.91 182.01 146.91 184.28C146.91 186.55 146.91 188.84 146.91 191.11H140.1C140.1 186.56 140.1 182 140.1 177.45C137.83 177.44 135.56 177.45 133.29 177.45V170.62C135.56 170.62 137.83 170.62 140.1 170.62Z" fill="#43495A"/>
<path d="M160.53 232.08C160.53 234.43 160.53 236.79 160.53 239.15C165.07 239.16 169.61 239.15 174.15 239.15C174.15 241.42 174.15 243.71 174.15 245.98H160.53V239.15C158.26 239.15 155.99 239.15 153.72 239.15C153.72 236.8 153.72 234.44 153.72 232.08C155.99 232.08 158.26 232.08 160.53 232.08Z" fill="#796C9D"/>
<path d="M146.91 122.81C146.9 127.36 146.91 131.92 146.91 136.47H140.1V122.81C142.37 122.81 144.64 122.82 146.91 122.81Z" fill="#43495A"/>
<path d="M276.53 122.81C278.8 122.81 281.07 122.81 283.34 122.81V129.64C278.8 129.65 274.26 129.64 269.72 129.64C269.72 127.37 269.72 125.08 269.72 122.81C271.99 122.81 274.26 122.81 276.53 122.81Z" fill="#796C9D"/>
<path d="M146.91 191.11V204.77H140.1C140.1 202.5 140.1 200.21 140.1 197.94C140.1 195.67 140.1 193.38 140.1 191.11H146.91Z" fill="#796C9D"/>
<path d="M140.1 197.94C140.1 200.21 140.1 202.5 140.1 204.77C140.1 207.04 140.1 209.33 140.1 211.6C142.37 211.61 144.64 211.6 146.91 211.6V218.43C144.64 218.43 142.37 218.42 140.1 218.43C140.1 220.7 140.1 222.99 140.1 225.26H133.29V218.43C135.56 218.43 137.83 218.44 140.1 218.43C140.1 216.16 140.1 213.87 140.1 211.6C137.83 211.59 135.56 211.6 133.29 211.6V197.94H140.1Z" fill="#43495A"/>
<path d="M215.24 143.3V150.13C210.7 150.13 206.16 150.13 201.62 150.13V143.3C206.16 143.3 210.7 143.3 215.24 143.3Z" fill="#796C9D"/>
<path d="M228.86 143.3V150.13C224.32 150.13 219.78 150.13 215.24 150.13V143.3C219.78 143.3 224.32 143.3 228.86 143.3Z" fill="#CECFE9"/>
<path d="M249.29 136.47V143.3C247.02 143.3 244.75 143.3 242.48 143.3C242.48 145.57 242.48 147.86 242.48 150.13C240.21 150.13 237.94 150.13 235.67 150.13C233.4 150.13 231.13 150.13 228.86 150.13V143.3C231.13 143.3 233.4 143.3 235.67 143.3C237.94 143.3 240.21 143.3 242.48 143.3C242.48 141.03 242.48 138.74 242.48 136.47C244.75 136.47 247.02 136.47 249.29 136.47Z" fill="#796C9D"/>
<path d="M106.05 184.28H112.86C112.86 188.83 112.86 193.39 112.86 197.94H106.05C106.05 195.67 106.05 193.38 106.05 191.11C106.05 188.84 106.05 186.55 106.05 184.28Z" fill="#43495A"/>
<path d="M188.01 232.08C188.01 234.43 188.01 236.79 188.01 239.15H180.97C180.97 236.8 180.97 234.44 180.97 232.08H188.01Z" fill="white"/>
<path d="M153.72 115.75C153.72 118.1 153.72 120.46 153.72 122.82C151.45 122.82 149.18 122.81 146.91 122.82C146.91 120.47 146.91 118.11 146.91 115.75C149.18 115.75 151.45 115.76 153.72 115.75Z" fill="#796C9D"/>
<path d="M269.72 115.75H276.53V122.82C274.26 122.82 271.99 122.82 269.72 122.82C269.72 125.09 269.72 127.38 269.72 129.65C267.45 129.65 265.18 129.65 262.91 129.65V122.82C265.18 122.82 267.45 122.82 269.72 122.82C269.72 120.47 269.72 118.11 269.72 115.75Z" fill="#CECFE9"/>
<path d="M180.96 232.08C180.96 229.81 180.96 227.52 180.96 225.25H188C188 227.52 188 229.81 188 232.08H180.96Z" fill="#796C9D"/>
<path d="M194.82 232.08V239.15H188.01C188.01 236.8 188.01 234.44 188.01 232.08H194.82Z" fill="#43495A"/>
<path d="M140.1 67.9399V74.7699C137.83 74.7699 135.56 74.7699 133.29 74.7699V67.9399C135.56 67.9399 137.83 67.9399 140.1 67.9399Z" fill="#796C9D"/>
<path d="M160.53 61.1099V67.9399C158.26 67.9399 155.99 67.9399 153.72 67.9399V61.1099C155.99 61.1099 158.26 61.1099 160.53 61.1099Z" fill="#796C9D"/>
<path d="M167.34 61.1099V67.9399C165.07 67.9399 162.8 67.9399 160.53 67.9399V61.1099C162.8 61.1099 165.07 61.1099 167.34 61.1099Z" fill="#796C9D"/>
<path d="M235.52 61.1099V67.9399C233.25 67.9399 230.98 67.9399 228.71 67.9399V61.1099C230.98 61.1099 233.25 61.1099 235.52 61.1099Z" fill="#796C9D"/>
<path d="M228.71 61.1099V67.9399C226.44 67.9399 224.17 67.9399 221.9 67.9399V61.1099C224.17 61.1099 226.44 61.1099 228.71 61.1099Z" fill="#796C9D"/>
<path d="M126.48 74.77V81.6C124.21 81.6 121.94 81.59 119.67 81.6C119.68 79.33 119.67 77.04 119.67 74.77C121.94 74.77 124.21 74.77 126.48 74.77Z" fill="#796C9D"/>
<path d="M174.15 88.4297H167.34V95.2597H174.15V88.4297Z" fill="#43495A"/>
<path d="M201.62 95.2597C199.35 95.2597 197.08 95.2597 194.81 95.2597V88.4297H201.62C201.62 90.6997 201.62 92.9897 201.62 95.2597Z" fill="#43495A"/>
<path d="M99.24 245.98H106.05C106.05 248.25 106.04 250.54 106.05 252.81H99.24C99.24 250.54 99.24 248.25 99.24 245.98Z" fill="#43495A"/>
<path d="M99.2401 211.59C99.2401 213.86 99.2401 216.15 99.2401 218.42C101.51 218.42 103.78 218.42 106.05 218.42C106.05 220.69 106.05 222.98 106.05 225.25C108.32 225.25 110.59 225.25 112.86 225.25V232.08H106.05C106.05 229.81 106.05 227.52 106.05 225.25C103.78 225.25 101.51 225.25 99.2401 225.25C99.2401 222.98 99.2401 220.69 99.2401 218.42C96.9701 218.42 94.7001 218.42 92.4301 218.42C92.4301 220.69 92.4301 222.98 92.4301 225.25C94.7001 225.25 96.9701 225.25 99.2401 225.25C99.2401 227.52 99.2401 229.81 99.2401 232.08C96.9701 232.08 94.7001 232.08 92.4301 232.08C92.4301 234.43 92.4301 236.79 92.4301 239.15H85.6201V232.08C87.8901 232.08 90.1601 232.08 92.4301 232.08C92.4301 229.81 92.4301 227.52 92.4301 225.25C90.1601 225.25 87.8901 225.25 85.6201 225.25V211.59C90.1601 211.59 94.7001 211.59 99.2401 211.59Z" fill="#43495A"/>
<path d="M290.15 245.98V252.81C287.88 252.81 285.61 252.81 283.34 252.81C283.34 250.54 283.34 248.25 283.34 245.98H290.15Z" fill="#43495A"/>
<path d="M283.34 252.81V259.64C281.07 259.64 278.8 259.64 276.53 259.64C276.53 257.37 276.53 255.08 276.53 252.81H283.34Z" fill="#43495A"/>
<path d="M126.48 259.64H133.29C133.29 261.91 133.29 264.2 133.29 266.47H126.48C126.48 264.2 126.48 261.91 126.48 259.64Z" fill="#43495A"/>
<path d="M194.82 211.59V218.42H188.01C188.01 216.15 188.01 213.86 188.01 211.59C190.28 211.59 192.55 211.59 194.82 211.59Z" fill="#43495A"/>
<path d="M140.1 273.3C140.1 275.57 140.1 277.86 140.1 280.13H133.29C133.29 277.86 133.29 275.57 133.29 273.3C135.56 273.3 137.83 273.3 140.1 273.3Z" fill="#43495A"/>
<path d="M140.1 286.95H146.91C146.91 289.22 146.91 291.51 146.91 293.78H140.1C140.1 291.51 140.1 289.22 140.1 286.95Z" fill="#43495A"/>
<path d="M126.48 293.78H133.29C133.29 296.05 133.29 298.34 133.29 300.61H126.48C126.48 298.34 126.48 296.05 126.48 293.78Z" fill="#796C9D"/>
<path d="M140.1 150.13H133.29V156.96H140.1V150.13Z" fill="#43495A"/>
<path d="M140.1 143.3H133.29V150.13H140.1V143.3Z" fill="#CECFE9"/>
<path d="M228.86 143.3C228.86 142.7 228.52 136.47 228.86 136.47H235.67V143.3C233.4 143.3 231.13 143.3 228.86 143.3Z" fill="#43495A"/>
<path d="M174.15 129.64H167.34V136.47H174.15V129.64Z" fill="#796C9D"/>
<path d="M201.62 122.81C201.62 125.08 201.62 127.37 201.62 129.64H194.81V122.81H201.62Z" fill="#796C9D"/>
<path d="M160.53 108.92V115.75C158.26 115.75 155.99 115.74 153.72 115.75V108.92C155.99 108.92 158.26 108.92 160.53 108.92Z" fill="#43495A"/>
<path d="M283.34 259.64V286.96C281.07 286.96 278.8 286.96 276.53 286.96V314.28H269.72C269.72 309.73 269.72 305.17 269.72 300.62H262.91C262.91 298.35 262.91 296.06 262.91 293.79C265.18 293.79 267.45 293.79 269.72 293.79C269.72 289.24 269.72 284.68 269.72 280.13C271.99 280.13 274.26 280.13 276.53 280.13C276.53 275.58 276.53 271.02 276.53 266.47C276.53 264.2 276.53 261.91 276.53 259.64C278.8 259.64 281.07 259.64 283.34 259.64Z" fill="#343736"/>
<path d="M304.01 259.64V280.13C301.74 280.13 299.47 280.13 297.2 280.13C294.86 280.13 292.5 280.13 290.16 280.13H283.35V266.47H290.16V273.3H297.2C297.2 271.03 297.2 268.74 297.2 266.47C297.2 264.2 297.2 261.91 297.2 259.64C299.47 259.64 301.74 259.64 304.01 259.64Z" fill="#CECFE9"/>
<path d="M297.2 259.64C297.2 257.37 297.2 255.08 297.2 252.81H310.82V259.64C308.55 259.64 306.28 259.64 304.01 259.64C301.74 259.64 299.47 259.64 297.2 259.64C297.2 261.91 297.2 264.2 297.2 266.47H290.16C290.16 264.2 290.16 261.91 290.16 259.64C292.51 259.64 294.86 259.64 297.21 259.64H297.2Z" fill="#43495A"/>
<path d="M297.2 280.13C297.2 282.4 297.2 284.69 297.2 286.96C294.86 286.96 292.5 286.96 290.16 286.96V280.13C292.5 280.13 294.86 280.13 297.2 280.13Z" fill="#43495A"/>
<path d="M269.72 355.49V362.32H262.91C262.91 360.05 262.91 357.76 262.91 355.49C265.18 355.49 267.45 355.49 269.72 355.49Z" fill="#CECFE9"/>
<path d="M262.91 362.32C262.91 364.59 262.91 366.88 262.91 369.15H256.1C256.1 366.88 256.1 364.59 256.1 362.32H262.91Z" fill="#43495A"/>
<path d="M304.01 239.15C306.28 239.15 308.55 239.15 310.82 239.15V245.98H304.01C304.01 243.71 304.01 241.42 304.01 239.15Z" fill="#43495A"/>
<path d="M112.86 403.29C112.86 405.56 112.86 407.85 112.86 410.12H106.05C106.05 412.39 106.05 414.68 106.05 416.95C103.78 416.95 101.51 416.95 99.24 416.95C96.97 416.95 94.7 416.95 92.43 416.95C92.43 419.22 92.43 421.51 92.43 423.78H85.62C83.35 423.78 81.08 423.78 78.81 423.78C78.81 426.05 78.81 428.34 78.81 430.61C76.54 430.61 74.27 430.61 72 430.61C72 432.88 72 435.17 72 437.44H64.95C64.95 435.17 64.95 432.88 64.95 430.61C67.29 430.61 69.65 430.61 71.99 430.61C71.99 428.34 71.99 426.05 71.99 423.78C74.26 423.78 76.53 423.78 78.8 423.78C78.8 421.51 78.8 419.22 78.8 416.95C81.07 416.95 83.34 416.95 85.61 416.95C87.88 416.95 90.15 416.95 92.42 416.95C92.42 414.68 92.42 412.39 92.42 410.12C94.69 410.12 96.9599 410.12 99.2299 410.12C101.5 410.12 103.77 410.12 106.04 410.12C106.04 407.85 106.04 405.56 106.04 403.29H112.85H112.86Z" fill="#CECFE9"/>
<path d="M126.48 375.97C126.47 378.24 126.48 380.53 126.48 382.8C124.21 382.8 121.94 382.79 119.67 382.8C119.67 380.53 119.67 378.24 119.67 375.97H126.48Z" fill="#CECFE9"/>
<path d="M119.67 389.63C119.67 391.9 119.67 394.19 119.67 396.46H112.86C112.86 394.19 112.86 391.9 112.86 389.63H119.67Z" fill="#CECFE9"/>
<path d="M140.1 375.97H146.91C146.91 378.24 146.9 380.53 146.91 382.8C146.92 385.07 146.91 387.36 146.91 389.63C149.18 389.63 151.45 389.62 153.72 389.63V396.46H146.91V430.61H140.1C140.09 426.06 140.1 421.5 140.1 416.95H133.29V403.29H140.1C140.1 401.02 140.1 398.73 140.1 396.46C140.1 394.19 140.1 391.9 140.1 389.63C140.1 385.08 140.1 380.52 140.1 375.97Z" fill="#43495A"/>
<path d="M64.96 430.61C64.96 432.88 64.96 435.17 64.96 437.44C64.96 439.71 64.96 442 64.96 444.27H44.53V437.44H58.15V430.61C60.42 430.61 62.69 430.61 64.96 430.61Z" fill="#796C9D"/>
<path d="M146.91 355.49C146.91 357.76 146.91 360.05 146.91 362.32C144.64 362.32 142.37 362.32 140.1 362.32C140.1 364.59 140.1 366.88 140.1 369.15C140.1 371.42 140.1 373.71 140.1 375.98C140.1 380.53 140.1 385.09 140.1 389.64H133.29C133.28 385.09 133.29 380.53 133.29 375.98C133.29 373.71 133.29 371.42 133.29 369.15C133.29 366.88 133.29 364.59 133.29 362.32C135.56 362.32 137.83 362.32 140.1 362.32C140.1 360.05 140.1 357.76 140.1 355.49H146.91Z" fill="#CECFE9"/>
<path d="M72.01 423.78C72.01 426.05 72.01 428.34 72.01 430.61C69.67 430.61 67.31 430.61 64.97 430.61C64.97 428.34 64.97 426.05 64.97 423.78C67.32 423.78 69.67 423.78 72.02 423.78H72.01Z" fill="#43495A"/>
<path d="M140.1 389.63C140.1 391.9 140.1 394.19 140.1 396.46H133.29C133.29 394.19 133.29 391.9 133.29 389.63H140.1Z" fill="#796C9D"/>
<path d="M112.86 410.12C112.86 412.39 112.86 414.68 112.86 416.95C110.59 416.95 108.32 416.95 106.05 416.95C106.05 414.68 106.05 412.39 106.05 410.12H112.86Z" fill="#43495A"/>
<path d="M106.05 416.95C106.05 419.22 106.05 421.51 106.05 423.78H99.24V416.95C101.51 416.95 103.78 416.95 106.05 416.95Z" fill="#796C9D"/>
<path d="M92.4301 423.78C92.4301 426.05 92.4301 428.34 92.4301 430.61C90.1601 430.61 87.8901 430.61 85.6201 430.61C85.6201 432.88 85.6201 435.17 85.6201 437.44H78.8101C78.8101 435.17 78.8101 432.88 78.8101 430.61C81.0801 430.61 83.3501 430.61 85.6201 430.61V423.78H92.4301Z" fill="#796C9D"/>
<path d="M256.1 369.14C256.1 371.41 256.1 373.7 256.1 375.97C256.1 378.24 256.1 380.53 256.1 382.8H249.29C249.29 378.25 249.29 373.69 249.29 369.14H256.1Z" fill="#796C9D"/>
<path d="M262.91 430.61H269.72V437.44C267.45 437.44 265.18 437.43 262.91 437.44C262.91 439.71 262.91 442 262.91 444.27H256.1C256.1 442 256.1 439.71 256.1 437.44C258.37 437.44 260.64 437.45 262.91 437.44C262.91 435.17 262.91 432.88 262.91 430.61Z" fill="#43495A"/>
<path d="M249.29 362.32C249.29 364.59 249.29 366.88 249.29 369.15H242.48C242.48 366.88 242.48 364.59 242.48 362.32H249.29Z" fill="#43495A"/>
<path d="M262.91 369.14C262.91 371.41 262.91 373.7 262.91 375.97H256.1C256.1 373.7 256.1 371.41 256.1 369.14H262.91Z" fill="white"/>
<path d="M242.48 375.97C242.48 378.24 242.48 380.53 242.48 382.8C240.21 382.8 237.94 382.79 235.67 382.8C235.67 380.53 235.67 378.24 235.67 375.97H242.48Z" fill="#796C9D"/>
<path d="M235.67 382.8C235.67 385.07 235.67 387.36 235.67 389.63H228.86C228.86 391.9 228.86 394.19 228.86 396.46C226.59 396.46 224.32 396.46 222.05 396.46C222.05 398.73 222.06 401.02 222.05 403.29C219.78 403.3 217.51 403.29 215.24 403.29V410.12C212.97 410.12 210.7 410.12 208.43 410.12C206.16 410.12 203.89 410.12 201.62 410.12C201.62 412.39 201.62 414.68 201.62 416.95C201.62 419.22 201.62 421.51 201.62 423.78H194.81V410.12C197.08 410.12 199.35 410.12 201.62 410.12C201.62 405.57 201.62 401.01 201.62 396.46H215.24V389.63H228.86C228.86 387.36 228.86 385.07 228.86 382.8C231.13 382.8 233.4 382.81 235.67 382.8Z" fill="#43495A"/>
<path d="M235.67 389.63C235.67 391.9 235.67 394.19 235.67 396.46C233.4 396.46 231.13 396.46 228.86 396.46C228.86 398.73 228.86 401.02 228.86 403.29C226.59 403.29 224.32 403.28 222.05 403.29C222.06 401.02 222.05 398.73 222.05 396.46C224.32 396.46 226.59 396.46 228.86 396.46C228.86 394.19 228.86 391.9 228.86 389.63H235.67Z" fill="#796C9D"/>
<path d="M276.53 396.46C276.53 398.73 276.53 401.02 276.53 403.29H269.72V396.46H276.53Z" fill="#43495A"/>
<path d="M269.72 410.12C269.72 412.39 269.72 414.68 269.72 416.95H262.91V410.12H269.72Z" fill="#796C9D"/>
<path d="M283.34 430.61H290.15C290.15 432.88 290.15 435.17 290.15 437.44H283.34C283.34 435.17 283.34 432.88 283.34 430.61Z" fill="#796C9D"/>
<path d="M269.72 375.97H276.53C276.53 378.24 276.53 380.53 276.53 382.8H269.72C269.72 380.53 269.72 378.24 269.72 375.97Z" fill="#43495A"/>
<path d="M222.05 403.29C222.04 405.56 222.05 407.85 222.05 410.12C219.78 410.12 217.51 410.12 215.24 410.12V403.29C217.51 403.29 219.78 403.3 222.05 403.29Z" fill="#343736"/>
<path d="M208.43 410.12V416.95H201.62C201.62 414.68 201.62 412.39 201.62 410.12C203.89 410.12 206.16 410.12 208.43 410.12Z" fill="#CECFE9"/>
<path d="M201.62 423.78C201.62 426.05 201.62 428.34 201.62 430.61C199.35 430.61 197.08 430.61 194.81 430.61C194.81 428.34 194.81 426.05 194.81 423.78H201.62Z" fill="#CECFE9"/>
<path d="M194.82 410.12V423.78C194.82 426.05 194.82 428.34 194.82 430.61H188.01V410.12C190.28 410.12 192.55 410.12 194.82 410.12Z" fill="white"/>
<path d="M201.62 430.61C201.62 432.88 201.62 435.17 201.62 437.44H194.81C194.81 435.17 194.81 432.88 194.81 430.61C197.08 430.61 199.35 430.61 201.62 430.61Z" fill="#796C9D"/>
<path d="M99.2399 266.47C99.2399 268.74 99.2399 271.03 99.2399 273.3H92.4299C92.4299 271.03 92.4299 268.74 92.4299 266.47H99.2399Z" fill="white"/>
<path d="M228.86 204.77H269.72V211.6H276.53V218.43H269.72V211.6H249.29V218.43H262.91V225.26H269.72V232.09C267.45 232.09 265.18 232.09 262.91 232.09C262.91 234.44 262.91 236.8 262.91 239.16C260.64 239.16 258.37 239.16 256.1 239.16V225.27H249.29V232.1C247.02 232.1 244.75 232.1 242.48 232.1V225.27C240.21 225.27 237.94 225.27 235.67 225.27C233.4 225.27 231.13 225.27 228.86 225.27C226.59 225.27 224.32 225.27 222.05 225.27C222.05 227.54 222.05 229.83 222.05 232.1H208.43C208.43 229.83 208.43 227.54 208.43 225.27C210.7 225.27 212.97 225.27 215.24 225.27C215.24 223 215.24 220.71 215.24 218.44H222.05V204.78H228.86V204.77Z" fill="#343736"/>
<path d="M222.05 204.77V218.43H215.24C215.24 216.16 215.24 213.87 215.24 211.6C215.24 209.33 215.24 207.04 215.24 204.77H222.05Z" fill="#43495A"/>
<path d="M201.62 280.13C201.62 282.4 201.62 284.69 201.62 286.96C203.89 286.96 206.16 286.96 208.43 286.96C212.97 286.97 217.51 286.96 222.05 286.96V293.79C219.78 293.79 217.51 293.79 215.24 293.79C212.97 293.79 210.7 293.79 208.43 293.79C208.43 296.06 208.43 298.35 208.43 300.62C206.16 300.62 203.89 300.62 201.62 300.62C199.35 300.62 197.08 300.62 194.81 300.62V293.79C192.54 293.79 190.27 293.79 188 293.79V286.96H194.81C194.81 284.69 194.8 282.4 194.81 280.13H201.62Z" fill="#343736"/>
<path d="M194.82 280.13C194.81 282.4 194.82 284.69 194.82 286.96H188.01V293.79C185.67 293.79 183.31 293.79 180.97 293.79V280.13H194.82Z" fill="#43495A"/>
<path d="M194.82 314.27C197.09 314.27 199.36 314.27 201.63 314.27C201.63 316.54 201.63 318.83 201.63 321.1C203.9 321.1 206.17 321.1 208.44 321.1V314.27C210.71 314.27 212.98 314.27 215.25 314.27C219.79 314.27 224.33 314.27 228.87 314.27V321.1C224.33 321.1 219.79 321.1 215.25 321.1C212.98 321.1 210.71 321.1 208.44 321.1V327.93C206.17 327.93 203.9 327.93 201.63 327.93C201.63 325.66 201.63 323.37 201.63 321.1C199.36 321.1 197.09 321.1 194.82 321.1C192.55 321.1 190.28 321.1 188.01 321.1C185.67 321.1 183.31 321.1 180.97 321.1V314.27C185.58 314.27 190.21 314.27 194.82 314.27Z" fill="#343736"/>
<path d="M201.62 307.44C203.89 307.44 206.16 307.44 208.43 307.44C210.7 307.44 212.97 307.44 215.24 307.44V314.27C212.97 314.27 210.7 314.27 208.43 314.27C206.16 314.27 203.89 314.27 201.62 314.27C199.35 314.27 197.08 314.27 194.81 314.27V307.44C197.08 307.44 199.35 307.44 201.62 307.44Z" fill="white"/>
<path d="M160.53 259.64H167.34C167.34 261.91 167.34 264.2 167.34 266.47H153.72C153.72 264.2 153.73 261.91 153.72 259.64H160.53Z" fill="white"/>
<path d="M146.91 252.81V259.64H140.1C140.1 257.37 140.1 255.08 140.1 252.81C142.37 252.81 144.64 252.81 146.91 252.81Z" fill="#343736"/>
<path d="M146.91 252.81C149.18 252.81 151.45 252.81 153.72 252.81C153.72 255.08 153.71 257.37 153.72 259.64H146.91V252.81Z" fill="#796C9D"/>
<path d="M167.34 252.81C167.34 255.08 167.34 257.37 167.34 259.64H160.53V252.81C162.8 252.81 165.07 252.82 167.34 252.81Z" fill="#43495A"/>
<path d="M180.96 286.95V293.78C178.69 293.78 176.42 293.78 174.15 293.78V286.95H180.96Z" fill="white"/>
<path d="M188.01 293.78C190.28 293.78 192.55 293.78 194.82 293.78V300.61C192.55 300.61 190.27 300.61 188.01 300.61C188.01 298.34 188.01 296.05 188.01 293.78Z" fill="#796C9D"/>
<path d="M208.43 300.61V307.44C206.16 307.44 203.89 307.44 201.62 307.44V300.61C203.89 300.61 206.16 300.61 208.43 300.61Z" fill="#43495A"/>
<path d="M235.67 197.94C237.94 197.93 240.21 197.94 242.48 197.94V191.11H249.29V204.77H235.67V197.94Z" fill="#A69FB9"/>
<path d="M188.01 150.13C188.01 152.4 188.01 154.69 188.01 156.96H194.82C194.82 154.69 194.82 152.4 194.82 150.13C197.09 150.13 199.36 150.13 201.63 150.13C206.17 150.13 210.71 150.13 215.25 150.13C219.79 150.13 224.33 150.13 228.87 150.13C231.14 150.13 233.41 150.13 235.68 150.13V170.62H228.87V163.79H222.06V170.62H215.25V177.45H228.87V191.11H235.68C236.02 191.11 235.68 197.34 235.68 197.94C233.41 197.95 231.14 197.94 228.87 197.94V204.77H222.06H215.25C215.25 202.5 215.25 200.21 215.25 197.94H208.44V204.77H201.63V197.94H194.82V204.77C192.55 204.77 190.28 204.77 188.01 204.77C183.4 204.78 178.77 204.77 174.16 204.77V191.11H188.01V184.28H180.97V170.62H188.01V163.79H180.97V150.13C183.31 150.13 185.67 150.13 188.01 150.13Z" fill="#CECFE9"/>
<path d="M167.34 150.13C171.88 150.13 176.42 150.13 180.96 150.13V163.79H188V170.62H180.96V184.28H188V191.11H174.15V204.77C165.07 204.78 155.99 204.77 146.91 204.77V191.11C149.18 191.11 151.45 191.11 153.72 191.11C158.26 191.11 162.8 191.11 167.34 191.11V184.28C165.07 184.28 162.8 184.28 160.53 184.28V177.45C160.53 175.18 160.53 172.89 160.53 170.62C160.53 168.35 160.53 166.06 160.53 163.79H153.72C153.72 161.52 153.72 159.23 153.72 156.96H160.53V150.13C162.8 150.13 165.07 150.13 167.34 150.13Z" fill="#A69FB9"/>
<path d="M262.91 150.13V156.96C265.18 156.97 267.45 156.96 269.72 156.96C269.72 166.06 269.72 175.18 269.72 184.28C269.72 191.11 269.72 197.94 269.72 204.77H262.91V156.96C260.64 156.95 258.37 156.96 256.1 156.96C256.1 154.69 256.1 152.4 256.1 150.13C258.37 150.13 260.64 150.13 262.91 150.13Z" fill="#A69FB9"/>
<path d="M146.91 170.62C149.18 170.62 151.45 170.62 153.72 170.62C153.72 172.89 153.72 175.18 153.72 177.45H160.53V184.28C158.26 184.28 155.99 184.28 153.72 184.28H146.91C146.91 182.01 146.91 179.72 146.91 177.45C144.64 177.45 142.37 177.46 140.1 177.45C140.1 175.18 140.1 172.89 140.1 170.62C142.37 170.62 144.64 170.62 146.91 170.62Z" fill="#A69FB9"/>
<path d="M153.72 163.79H160.53C160.53 166.06 160.53 168.35 160.53 170.62H153.72C153.72 168.35 153.72 166.06 153.72 163.79Z" fill="#A69FB9"/>
<path d="M160.53 150.13V156.96H153.72C153.72 154.69 153.72 152.4 153.72 150.13C155.99 150.13 158.26 150.13 160.53 150.13Z" fill="#A69FB9"/>
<path d="M242.48 150.13C247.02 150.13 251.56 150.13 256.1 150.13C256.1 152.4 256.1 154.69 256.1 156.96C258.37 156.96 260.64 156.95 262.91 156.96V204.77H249.29V191.11H242.48V197.94C240.21 197.94 237.94 197.93 235.67 197.94C235.67 197.34 236.01 191.11 235.67 191.11H228.86V177.45H215.24V170.62H222.05V163.79H228.86V170.62H235.67V150.13C237.94 150.13 240.21 150.13 242.48 150.13Z" fill="#A69FB9"/>
<path d="M235.67 197.94V204.77H228.86V197.94C231.13 197.94 233.4 197.95 235.67 197.94Z" fill="#A69FB9"/>
<path d="M194.82 150.13C194.82 152.4 194.82 154.69 194.82 156.96H188.01C188.01 154.69 188.01 152.4 188.01 150.13C190.28 150.13 192.55 150.13 194.82 150.13Z" fill="#A69FB9"/>
<path d="M160.53 184.28C162.8 184.28 165.07 184.28 167.34 184.28V191.11C162.8 191.11 158.26 191.11 153.72 191.11V184.28C155.99 184.28 158.26 184.28 160.53 184.28Z" fill="#A69FB9"/>
<path d="M153.72 184.28V191.11C151.45 191.11 149.18 191.11 146.91 191.11C146.91 188.84 146.91 186.55 146.91 184.28H153.72Z" fill="#343736"/>
<path d="M208.43 225.25C208.43 227.52 208.43 229.81 208.43 232.08C208.43 238.98 208.43 245.9 208.43 252.8H201.62C201.62 248.25 201.62 243.69 201.62 239.14C201.62 236.79 201.62 234.43 201.62 232.07C201.62 229.8 201.62 227.51 201.62 225.24H208.43V225.25Z" fill="white"/>
<path d="M208.43 266.47C210.7 266.47 212.97 266.47 215.24 266.47V280.13H208.43C208.43 277.86 208.43 275.57 208.43 273.3C206.16 273.3 203.89 273.3 201.62 273.3C201.62 275.57 201.62 277.86 201.62 280.13H194.81C194.82 277.86 194.81 275.57 194.81 273.3C197.08 273.3 199.35 273.3 201.62 273.3C201.62 271.03 201.62 268.74 201.62 266.47H208.43Z" fill="#CECFE9"/>
<path d="M201.62 232.08C201.62 234.43 201.62 236.79 201.62 239.15H194.81V232.08H201.62Z" fill="#CECFE9"/>
<path d="M208.43 252.81V259.64H201.62C201.62 257.37 201.62 255.08 201.62 252.81H208.43Z" fill="#CECFE9"/>
<path d="M208.43 259.64V266.47H201.62C201.62 264.2 201.62 261.91 201.62 259.64H208.43Z" fill="white"/>
<path d="M242.48 245.98C244.75 245.98 247.02 245.98 249.29 245.98V259.64C247.02 259.64 244.75 259.64 242.48 259.64C242.47 257.37 242.48 255.08 242.48 252.81C240.21 252.81 237.94 252.82 235.67 252.81C235.67 250.54 235.67 248.25 235.67 245.98C237.94 245.98 240.21 245.98 242.48 245.98Z" fill="#CECFE9"/>
<path d="M269.72 232.08C271.99 232.08 274.26 232.08 276.53 232.08C276.51 238.98 276.53 245.9 276.53 252.8C276.53 255.07 276.53 257.36 276.53 259.63C274.26 259.63 271.99 259.63 269.72 259.63C269.72 261.9 269.72 264.19 269.72 266.46C269.72 268.73 269.72 271.02 269.72 273.29H262.91C262.91 275.56 262.91 277.85 262.91 280.12C260.64 280.12 258.37 280.12 256.1 280.12C256.1 284.67 256.1 289.23 256.1 293.78C256.1 296.05 256.1 298.34 256.1 300.61H242.48V307.44H235.67C235.67 309.71 235.67 312 235.67 314.27C233.4 314.27 231.13 314.27 228.86 314.27C224.32 314.27 219.78 314.27 215.24 314.27V307.44C212.97 307.44 210.7 307.44 208.43 307.44V300.61C210.7 300.61 212.97 300.61 215.24 300.61V293.78C217.51 293.78 219.78 293.78 222.05 293.78C224.32 293.78 226.59 293.78 228.86 293.78V273.29H222.05C222.05 264.19 222.04 255.07 222.05 245.97H228.86C228.86 248.24 228.86 250.53 228.86 252.8C231.13 252.8 233.4 252.79 235.67 252.8C235.67 255.07 235.67 257.36 235.67 259.63C237.94 259.63 240.21 259.63 242.48 259.63C242.49 261.9 242.48 264.19 242.48 266.46H256.1V259.63H262.91V252.8H269.72V239.14C267.45 239.14 265.18 239.14 262.91 239.14C262.91 236.79 262.91 234.43 262.91 232.07C265.18 232.07 267.45 232.07 269.72 232.07V232.08Z" fill="#CECFE9"/>
<path d="M269.72 211.59V218.42H249.29V211.59H276.53V218.42H262.91H256.1V211.59H269.72Z" fill="#796C9D"/>
<path d="M146.91 245.98C146.91 248.25 146.91 250.54 146.91 252.81C144.64 252.81 142.37 252.81 140.1 252.81C140.1 250.54 140.1 248.25 140.1 245.98C142.37 245.98 144.64 245.98 146.91 245.98Z" fill="white"/>
<path d="M215.24 211.59C215.24 213.86 215.24 216.15 215.24 218.42C215.24 220.69 215.24 222.98 215.24 225.25C212.97 225.25 210.7 225.25 208.43 225.25C208.43 220.7 208.43 216.14 208.43 211.59H215.24Z" fill="#796C9D"/>
<path d="M194.82 143.3C194.82 145.57 194.82 147.86 194.82 150.13C192.55 150.13 190.28 150.13 188.01 150.13C188.01 147.86 188.01 145.57 188.01 143.3C190.28 143.3 192.55 143.3 194.82 143.3Z" fill="#796C9D"/>
<path d="M249.29 143.3C251.56 143.3 253.83 143.3 256.1 143.3C256.1 145.57 256.1 147.86 256.1 150.13C251.56 150.13 247.02 150.13 242.48 150.13C242.48 147.86 242.48 145.57 242.48 143.3C244.75 143.3 247.02 143.3 249.29 143.3Z" fill="#43495A"/>
<path d="M194.82 334.76V341.59C192.55 341.59 190.28 341.59 188.01 341.59V348.66C185.67 348.66 183.31 348.66 180.97 348.66C178.63 348.66 176.43 348.66 174.16 348.66C174.16 350.93 174.16 353.22 174.16 355.49C176.43 355.49 178.7 355.49 180.97 355.49C180.97 357.76 180.97 360.05 180.97 362.32C183.32 362.32 185.67 362.32 188.02 362.32V369.15C185.67 369.15 183.32 369.15 180.97 369.15C180.97 366.88 180.97 364.59 180.97 362.32C178.7 362.32 176.43 362.32 174.16 362.32C174.16 360.05 174.16 357.76 174.16 355.49C171.89 355.49 169.62 355.49 167.35 355.49V348.66C165.08 348.66 162.81 348.66 160.54 348.66C160.55 344.03 160.54 339.39 160.54 334.77H194.82V334.76Z" fill="#43495A"/>
<path d="M256.1 314.27C256.1 316.54 256.1 318.83 256.1 321.1C258.37 321.1 260.64 321.1 262.91 321.1C262.91 323.37 262.91 325.66 262.91 327.93C258.37 327.93 253.83 327.93 249.29 327.93C249.29 332.48 249.29 337.04 249.29 341.59H242.48V355.48H235.67C235.67 353.21 235.67 350.92 235.67 348.65C233.4 348.65 231.13 348.66 228.86 348.65C226.59 348.64 224.32 348.65 222.05 348.65V341.58C219.78 341.58 217.51 341.58 215.24 341.58V334.75C219.78 334.75 224.32 334.75 228.86 334.75C231.13 334.75 233.4 334.75 235.67 334.75C237.94 334.75 240.21 334.75 242.48 334.75C242.48 332.48 242.48 330.19 242.48 327.92C244.75 327.92 247.02 327.92 249.29 327.92C249.29 323.37 249.29 318.81 249.29 314.26H256.1V314.27Z" fill="#43495A"/>
<path d="M269.72 327.93C269.72 330.2 269.72 332.49 269.72 334.76H262.91V327.93H269.72Z" fill="#43495A"/>
<path d="M276.53 266.47C276.53 271.02 276.53 275.58 276.53 280.13C274.26 280.13 271.99 280.13 269.72 280.13C269.72 284.68 269.72 289.24 269.72 293.79C267.45 293.79 265.18 293.79 262.91 293.79C262.91 296.06 262.91 298.35 262.91 300.62H269.72C269.72 305.17 269.72 309.73 269.72 314.28C269.72 316.55 269.72 318.84 269.72 321.11H262.91C262.91 316.56 262.91 312 262.91 307.45H256.1C256.1 305.18 256.1 302.89 256.1 300.62C256.1 298.35 256.1 296.06 256.1 293.79H262.91C262.9 289.24 262.9 284.68 262.91 280.13C265.18 280.13 267.45 280.13 269.72 280.13C269.72 277.86 269.72 275.57 269.72 273.3C269.72 271.03 269.72 268.74 269.72 266.47H276.53Z" fill="#43495A"/>
<path d="M146.91 341.59H153.72C153.72 343.94 153.72 346.3 153.72 348.66H146.91C146.91 346.31 146.91 343.95 146.91 341.59Z" fill="white"/>
<path d="M160.53 348.66C160.53 350.93 160.53 353.22 160.53 355.49H153.72C153.72 353.22 153.72 350.93 153.72 348.66C155.99 348.66 158.26 348.66 160.53 348.66Z" fill="#796C9D"/>
<path d="M146.91 362.32C146.91 364.59 146.91 366.88 146.91 369.15H140.1C140.1 366.88 140.1 364.59 140.1 362.32C142.37 362.32 144.64 362.32 146.91 362.32Z" fill="#CECFE9"/>
<path d="M276.53 259.64C276.53 261.91 276.53 264.2 276.53 266.47H269.72C269.72 264.2 269.72 261.91 269.72 259.64C271.99 259.64 274.26 259.64 276.53 259.64Z" fill="#796C9D"/>
<path d="M85.6201 423.78V430.61C83.3501 430.61 81.0801 430.61 78.8101 430.61C78.8101 428.34 78.8101 426.05 78.8101 423.78C81.0801 423.78 83.3501 423.78 85.6201 423.78Z" fill="#43495A"/>
<path d="M256.1 300.61C256.1 302.88 256.1 305.17 256.1 307.44C256.1 309.71 256.1 312 256.1 314.27H249.29C249.29 318.82 249.29 323.38 249.29 327.93C247.02 327.93 244.75 327.93 242.48 327.93C242.48 330.2 242.48 332.49 242.48 334.76C240.21 334.76 237.94 334.76 235.67 334.76V327.93C237.94 327.93 240.21 327.93 242.48 327.93C242.48 325.66 242.48 323.37 242.48 321.1C242.48 318.83 242.48 316.54 242.48 314.27C240.21 314.27 237.94 314.27 235.67 314.27C235.67 316.54 235.67 318.83 235.67 321.1V327.93C233.4 327.93 231.13 327.93 228.86 327.93V334.76C224.33 334.76 219.78 334.76 215.24 334.76C208.43 334.76 201.62 334.76 194.81 334.76H160.53V327.93C162.8 327.93 165.07 327.93 167.34 327.93C169.61 327.93 171.88 327.93 174.15 327.93V321.1C176.42 321.1 178.69 321.1 180.96 321.1C183.3 321.1 185.66 321.1 188 321.1V327.93H194.81V321.1C197.08 321.1 199.35 321.1 201.62 321.1C201.62 323.37 201.62 325.66 201.62 327.93C203.89 327.93 206.16 327.93 208.43 327.93C210.7 327.93 212.97 327.93 215.24 327.93V321.1C219.78 321.1 224.32 321.1 228.86 321.1V314.27C231.13 314.27 233.4 314.27 235.67 314.27C235.67 312 235.67 309.71 235.67 307.44H242.48V300.61H256.1Z" fill="#796C9D"/>
<path d="M228.86 225.25V232.08H222.05C222.04 236.71 222.05 241.35 222.05 245.97C222.04 255.07 222.05 264.19 222.05 273.29V280.12H215.24V266.46C212.97 266.46 210.7 266.46 208.43 266.46V252.8C208.43 245.9 208.43 238.98 208.43 232.08H222.05C222.05 229.81 222.05 227.52 222.05 225.25C224.32 225.25 226.59 225.25 228.86 225.25Z" fill="#796C9D"/>
<path d="M235.67 225.25V232.08C237.94 232.08 240.21 232.08 242.48 232.08C244.75 232.08 247.02 232.08 249.29 232.08V225.25H256.1V239.14C251.56 239.14 247.02 239.14 242.48 239.14C240.21 239.14 237.94 239.14 235.67 239.14V232.07C233.4 232.07 231.13 232.07 228.86 232.07V225.24C231.13 225.24 233.4 225.24 235.67 225.24V225.25Z" fill="#CECFE9"/>
<path d="M256.1 211.59H249.29V218.42H256.1V211.59Z" fill="#43495A"/>
<path d="M235.67 225.25C237.94 225.25 240.21 225.25 242.48 225.25V232.08C240.21 232.08 237.94 232.08 235.67 232.08V225.25Z" fill="#796C9D"/>
<path d="M262.91 239.15C262.91 241.42 262.91 243.71 262.91 245.98C260.64 245.98 258.37 245.98 256.1 245.98V239.15C258.37 239.15 260.64 239.15 262.91 239.15Z" fill="#796C9D"/>
<path d="M222.05 273.3H228.86V293.79C226.59 293.79 224.32 293.79 222.05 293.79V273.3Z" fill="white"/>
<path d="M215.24 280.13H222.05V286.96C217.51 286.96 212.97 286.97 208.43 286.96C208.43 284.69 208.43 282.4 208.43 280.13H215.24Z" fill="#43495A"/>
<path d="M208.43 280.13C208.43 282.4 208.43 284.69 208.43 286.96C206.16 286.96 203.89 286.96 201.62 286.96C201.62 284.69 201.62 282.4 201.62 280.13H208.43Z" fill="#796C9D"/>
<path d="M215.24 293.78V300.61C212.97 300.61 210.7 300.61 208.43 300.61C208.43 298.34 208.43 296.05 208.43 293.78C210.7 293.78 212.97 293.78 215.24 293.78Z" fill="#796C9D"/>
<path d="M208.43 314.27V321.1C206.16 321.1 203.89 321.1 201.62 321.1C201.62 318.83 201.62 316.54 201.62 314.27C203.89 314.27 206.16 314.27 208.43 314.27Z" fill="#43495A"/>
<path d="M194.82 321.1V327.93H188.01V321.1C190.28 321.1 192.55 321.1 194.82 321.1Z" fill="#CECFE9"/>
<path d="M201.62 273.3C203.89 273.3 206.16 273.3 208.43 273.3C208.43 275.57 208.43 277.86 208.43 280.13H201.62C201.62 277.86 201.62 275.57 201.62 273.3Z" fill="white"/>
<path d="M174.15 321.1V327.93C171.88 327.93 169.61 327.93 167.34 327.93V321.1C169.61 321.1 171.88 321.1 174.15 321.1Z" fill="#CECFE9"/>
<path d="M235.67 252.81C237.94 252.82 240.21 252.81 242.48 252.81C242.48 255.08 242.47 257.37 242.48 259.64C240.21 259.64 237.94 259.64 235.67 259.64C235.67 257.37 235.67 255.08 235.67 252.81Z" fill="white"/>
<path d="M262.91 239.15C265.18 239.15 267.45 239.15 269.72 239.15V252.81H262.91V259.64H256.1V266.47H242.48C242.48 264.2 242.49 261.91 242.48 259.64C244.75 259.64 247.02 259.64 249.29 259.64V245.98C251.56 245.98 253.83 245.98 256.1 245.98C258.37 245.98 260.64 245.98 262.91 245.98C262.91 243.71 262.91 241.42 262.91 239.15Z" fill="white"/>
<path d="M228.86 232.08C231.13 232.08 233.4 232.08 235.67 232.08V239.15C233.4 239.15 231.13 239.15 228.86 239.15C228.86 241.42 228.86 243.71 228.86 245.98H235.67C235.67 248.25 235.67 250.54 235.67 252.81C233.4 252.8 231.13 252.81 228.86 252.81C228.86 250.54 228.86 248.25 228.86 245.98H222.05C222.05 241.35 222.04 236.71 222.05 232.09H228.86V232.08Z" fill="white"/>
<path d="M269.72 273.3C269.72 275.57 269.72 277.86 269.72 280.13C267.45 280.13 265.18 280.13 262.91 280.13C262.9 284.68 262.9 289.24 262.91 293.79H256.1C256.1 289.24 256.1 284.68 256.1 280.13C258.37 280.13 260.64 280.13 262.91 280.13C262.91 277.86 262.91 275.57 262.91 273.3H269.72Z" fill="#796C9D"/>
<path d="M215.24 334.76V341.59C208.43 341.57 201.62 341.57 194.81 341.59V334.76C201.62 334.76 208.43 334.76 215.24 334.76Z" fill="#343736"/>
<path d="M242.48 321.1C242.48 323.37 242.48 325.66 242.48 327.93C240.21 327.93 237.94 327.93 235.67 327.93V321.1H242.48Z" fill="#CECFE9"/>
<path d="M235.67 327.93V334.76C233.4 334.76 231.13 334.76 228.86 334.76V327.93C231.13 327.93 233.4 327.93 235.67 327.93Z" fill="#CECFE9"/>
<path d="M180.96 348.66V355.49C185.57 355.49 190.2 355.49 194.81 355.49C194.81 357.76 194.81 360.05 194.81 362.32H201.62V355.49C203.89 355.49 206.16 355.49 208.43 355.49V362.32C212.97 362.32 217.51 362.32 222.05 362.32C222.05 360.05 222.05 357.76 222.05 355.49H228.86V348.66C231.13 348.67 233.4 348.66 235.67 348.66C235.67 350.93 235.67 353.22 235.67 355.49C235.67 357.76 235.67 360.05 235.67 362.32C233.4 362.32 231.13 362.32 228.86 362.32C226.59 362.32 224.32 362.32 222.05 362.32C222.05 364.59 222.05 366.88 222.05 369.15C210.71 369.18 199.35 369.18 188 369.15V362.32C185.66 362.32 183.3 362.32 180.96 362.32C180.96 360.05 180.96 357.76 180.96 355.49C178.69 355.49 176.42 355.49 174.15 355.49C174.15 353.22 174.15 350.93 174.15 348.66C176.42 348.66 178.69 348.66 180.96 348.66Z" fill="#796C9D"/>
<path d="M228.86 362.32V369.15C226.59 369.15 224.32 369.15 222.05 369.15C222.05 366.88 222.05 364.59 222.05 362.32C224.32 362.32 226.59 362.32 228.86 362.32Z" fill="#43495A"/>
<path d="M194.82 341.59C194.82 346.22 194.81 350.86 194.82 355.48C197.09 355.48 199.36 355.48 201.63 355.48V362.31H194.82C194.82 360.04 194.82 357.75 194.82 355.48C190.21 355.48 185.58 355.48 180.97 355.48V348.65C183.31 348.65 185.67 348.65 188.01 348.65V341.58C190.28 341.58 192.55 341.58 194.82 341.58V341.59Z" fill="#CECFE9"/>
<path d="M215.24 341.59C217.51 341.59 219.78 341.59 222.05 341.59V348.66C224.32 348.66 226.59 348.65 228.86 348.66V355.49H222.05C222.05 357.76 222.05 360.05 222.05 362.32C217.51 362.32 212.97 362.32 208.43 362.32V355.49C210.7 355.49 212.98 355.49 215.24 355.49C215.24 350.86 215.24 346.22 215.24 341.59Z" fill="#CECFE9"/>
<path d="M215.24 341.59C215.24 346.22 215.24 350.86 215.24 355.49C212.97 355.49 210.7 355.49 208.43 355.49C206.16 355.49 203.89 355.49 201.62 355.49C199.35 355.49 197.08 355.49 194.81 355.49C194.8 350.86 194.81 346.22 194.81 341.6C201.62 341.58 208.43 341.58 215.24 341.6V341.59Z" fill="white"/>
<path d="M235.67 314.27C237.94 314.27 240.21 314.27 242.48 314.27C242.48 316.54 242.48 318.83 242.48 321.1H235.67C235.67 318.83 235.67 316.54 235.67 314.27Z" fill="#43495A"/>
<path d="M215.24 321.1V327.93C212.97 327.93 210.7 327.93 208.43 327.93V321.1C210.7 321.1 212.97 321.1 215.24 321.1Z" fill="#CECFE9"/>
<path d="M235.67 239.15C237.94 239.15 240.21 239.15 242.48 239.15V245.98C240.21 245.98 237.94 245.98 235.67 245.98H228.86C228.86 243.71 228.86 241.42 228.86 239.15C231.13 239.15 233.4 239.15 235.67 239.15Z" fill="#796C9D"/>
<path d="M256.1 239.15V245.98C253.83 245.98 251.56 245.98 249.29 245.98C247.02 245.98 244.75 245.98 242.48 245.98V239.15C247.02 239.15 251.56 239.15 256.1 239.15Z" fill="#43495A"/>
<path d="M85.6201 150.13C85.6201 152.4 85.6201 154.69 85.6201 156.96C87.8901 156.96 90.1601 156.95 92.4301 156.96C94.7001 156.97 96.9701 156.96 99.2401 156.96C99.2401 159.23 99.2401 161.52 99.2401 163.79H92.4301C92.4301 166.06 92.4301 168.35 92.4301 170.62C94.7001 170.62 96.9701 170.62 99.2401 170.62C99.2401 172.89 99.2401 175.18 99.2401 177.45C101.51 177.45 103.78 177.45 106.05 177.45C106.05 179.72 106.05 182.01 106.05 184.28C106.05 186.55 106.05 188.84 106.05 191.11H99.2401C99.2401 188.84 99.2401 186.55 99.2401 184.28C99.2401 182.01 99.2401 179.72 99.2401 177.45C96.9701 177.45 94.7001 177.45 92.4301 177.45C92.4301 175.18 92.4301 172.89 92.4301 170.62C90.1601 170.62 87.8901 170.62 85.6201 170.62V163.79C83.3501 163.79 81.0801 163.8 78.8101 163.79C78.8101 159.24 78.8001 154.68 78.8101 150.13H85.6201Z" fill="#CECFE9"/>
<path d="M99.2402 115.75C99.2402 118.1 99.2402 120.46 99.2402 122.82C99.2402 125.09 99.2402 127.38 99.2402 129.65H92.4302V115.76C94.7002 115.76 96.9702 115.76 99.2402 115.76V115.75Z" fill="white"/>
<path d="M92.4301 129.64V156.96C90.1601 156.95 87.8901 156.96 85.6201 156.96C85.6201 154.69 85.6201 152.4 85.6201 150.13C85.6201 147.86 85.6201 145.57 85.6201 143.3C85.6201 138.75 85.6201 134.19 85.6201 129.64H92.4301Z" fill="white"/>
<path d="M112.86 115.75C115.13 115.75 117.4 115.75 119.67 115.75C119.67 118.1 119.67 120.46 119.67 122.82H106.05C106.05 120.47 106.05 118.11 106.05 115.75H112.86Z" fill="white"/>
<path d="M106.05 108.92C106.05 111.19 106.05 113.48 106.05 115.75C106.05 118.02 106.05 120.46 106.05 122.82H99.2402C99.2402 120.47 99.2402 118.11 99.2402 115.75C99.2402 113.39 99.2402 111.19 99.2402 108.92H106.05Z" fill="#CECFE9"/>
<path d="M112.86 88.4302C112.85 92.9802 112.86 97.5402 112.86 102.09C110.59 102.09 108.32 102.09 106.05 102.09C106.05 104.36 106.05 106.65 106.05 108.92H99.2402C99.2402 106.65 99.2402 104.36 99.2402 102.09C101.51 102.09 103.78 102.09 106.05 102.09C106.05 97.5402 106.05 92.9802 106.05 88.4302C108.32 88.4302 110.59 88.4402 112.86 88.4302Z" fill="white"/>
<path d="M119.67 81.6001C119.66 83.8701 119.67 86.1601 119.67 88.4301C117.4 88.4301 115.13 88.4201 112.86 88.4301C112.86 86.1601 112.86 83.8701 112.86 81.6001C115.13 81.6001 117.4 81.6101 119.67 81.6001Z" fill="#CECFE9"/>
<path d="M112.86 102.09V108.92H106.05C106.05 106.65 106.05 104.36 106.05 102.09C108.32 102.09 110.59 102.09 112.86 102.09Z" fill="#796C9D"/>
<path d="M112.86 211.59C112.86 213.86 112.86 216.15 112.86 218.42C110.59 218.42 108.32 218.42 106.05 218.42C106.05 216.15 106.05 213.86 106.05 211.59H112.86Z" fill="white"/>
<path d="M106.05 191.11C106.05 193.38 106.05 195.67 106.05 197.94C106.05 202.49 106.05 207.05 106.05 211.6C103.78 211.6 101.51 211.6 99.2402 211.6C99.2402 204.77 99.2402 197.94 99.2402 191.11H106.05Z" fill="white"/>
<path d="M99.2402 163.79C99.2402 166.06 99.2402 168.35 99.2402 170.62C96.9702 170.62 94.7002 170.62 92.4302 170.62C92.4302 168.35 92.4302 166.06 92.4302 163.79H99.2402Z" fill="white"/>
<path d="M99.2402 143.3H92.4302V150.13H99.2402V143.3Z" fill="#43495A"/>
<path d="M99.2402 129.64C99.2402 131.91 99.2402 134.2 99.2402 136.47H92.4302V129.64H99.2402Z" fill="#CECFE9"/>
<path d="M92.4301 122.81V129.64H85.6201C85.6201 127.37 85.6201 125.08 85.6201 122.81H92.4301Z" fill="#CECFE9"/>
<path d="M119.67 122.81C119.67 125.08 119.67 127.37 119.67 129.64C117.4 129.64 115.13 129.64 112.86 129.64V122.81H119.67Z" fill="#43495A"/>
<path d="M112.86 122.81V129.64C110.59 129.64 108.32 129.64 106.05 129.64C106.05 127.37 106.05 125.08 106.05 122.81H112.86Z" fill="#796C9D"/>
<path d="M112.86 108.92V115.75H106.05C106.05 113.48 106.05 111.19 106.05 108.92H112.86Z" fill="#43495A"/>
<path d="M92.4301 115.75V122.82H85.6201C85.6201 120.47 85.6201 118.11 85.6201 115.75C87.8901 115.75 90.1601 115.75 92.4301 115.75Z" fill="#343736"/>
<path d="M85.6201 143.3C85.6201 145.57 85.6201 147.86 85.6201 150.13H78.8101C78.8101 147.86 78.8101 145.57 78.8101 143.3H85.6201Z" fill="#796C9D"/>
<path d="M99.2402 177.45C99.2402 179.72 99.2402 182.01 99.2402 184.28H92.4302C92.4302 182.01 92.4302 179.72 92.4302 177.45C94.7002 177.45 96.9702 177.45 99.2402 177.45Z" fill="white"/>
<path d="M283.34 444.65C283.34 442.45 283.34 439.64 283.34 437.44C283.34 435.17 283.34 432.88 283.34 430.61C283.31 412.4 283.36 394.18 283.34 375.97C285.61 375.97 287.88 375.97 290.15 375.97C290.15 373.7 290.15 371.41 290.15 369.14H283.34V362.31H276.53V355.48H269.72V362.31C269.72 366.86 269.71 371.42 269.72 375.97H276.53C276.53 378.24 276.53 380.53 276.53 382.8C276.54 387.35 276.54 391.91 276.53 396.46C276.53 398.73 276.53 401.02 276.53 403.29H269.72C269.72 405.56 269.72 407.85 269.72 410.12C269.72 412.39 269.72 414.68 269.72 416.95C269.72 419.22 269.72 421.51 269.72 423.78H262.91C262.91 426.05 262.91 428.34 262.91 430.61H269.72V437.44C267.45 437.44 265.18 437.43 262.91 437.44C262.91 439.64 262.91 442.45 262.91 444.65H283.34Z" fill="#343736"/>
<path d="M283.34 430.61H290.15C290.15 432.88 290.15 435.17 290.15 437.44H297.19V423.78H304V416.95H297.19V410.12H304V403.29H297.19V396.46H290.15C290.14 389.63 290.17 382.8 290.15 375.97C287.88 375.97 285.61 375.97 283.34 375.97C283.36 394.18 283.31 412.4 283.34 430.61Z" fill="#43495A"/>
<path d="M256.1 444.04C256.1 441.84 256.1 439.64 256.1 437.44C258.37 437.44 260.64 437.45 262.91 437.44C262.91 435.17 262.91 432.88 262.91 430.61C262.91 428.34 262.91 426.05 262.91 423.78H269.72C269.72 421.51 269.72 419.22 269.72 416.95H262.91V410.12H269.72C269.72 407.85 269.72 405.56 269.72 403.29V396.46C267.45 396.46 265.18 396.46 262.91 396.46C262.91 389.63 262.91 382.8 262.91 375.97H256.1C256.1 378.24 256.1 380.53 256.1 382.8H249.29C249.29 378.25 249.29 373.69 249.29 369.14H242.48C242.48 371.41 242.48 373.7 242.48 375.97C242.48 378.24 242.48 380.53 242.48 382.8C240.21 382.8 237.94 382.79 235.67 382.8C235.67 385.07 235.67 387.36 235.67 389.63C235.67 391.9 235.67 394.19 235.67 396.46C235.67 398.73 235.67 401.02 235.67 403.29H242.48V410.12H235.67C235.67 414.67 235.66 419.23 235.67 423.78H242.48V430.61H235.67C235.67 428.34 235.67 426.05 235.67 423.78C233.4 423.78 231.13 423.78 228.86 423.78V444.04H256.1Z" fill="#CECFE9"/>
<path d="M256.1 362.32C256.1 360.05 256.1 357.76 256.1 355.49H249.29C249.29 357.76 249.29 360.05 249.29 362.32C249.29 364.59 249.29 366.88 249.29 369.15H256.1C256.1 366.88 256.1 364.59 256.1 362.32Z" fill="#CECFE9"/>
<path d="M208.43 444.65V430.61C206.16 430.61 203.89 430.61 201.62 430.61C201.62 432.88 201.62 435.17 201.62 437.44H194.81C194.81 435.17 194.81 432.88 194.81 430.61H188V444.65H208.43Z" fill="#343736"/>
<path d="M235.67 430.61H242.48V423.78H235.67C235.67 426.05 235.67 428.34 235.67 430.61Z" fill="white"/>
<path d="M208.43 430.61V444.03H228.86V423.77C231.13 423.77 233.4 423.77 235.67 423.77C235.66 419.22 235.67 414.66 235.67 410.11H242.48V403.28H235.67C235.67 401.01 235.67 398.72 235.67 396.45C233.4 396.45 231.13 396.45 228.86 396.45C228.86 398.72 228.86 401.01 228.86 403.28C226.59 403.28 224.32 403.27 222.05 403.28C222.04 405.55 222.05 407.84 222.05 410.11C219.78 410.11 217.51 410.11 215.24 410.11C212.97 410.11 210.7 410.11 208.43 410.11V416.94H201.62C201.62 419.21 201.62 421.5 201.62 423.77C201.62 426.04 201.62 428.33 201.62 430.6C203.89 430.6 206.16 430.6 208.43 430.6V430.61Z" fill="white"/>
<path d="M160.53 410.12V437.44H167.34V444.04H188V410.13C183.39 410.13 178.76 410.13 174.15 410.13V403.3C171.88 403.3 169.61 403.31 167.34 403.3V410.13H160.53V410.12Z" fill="#CECFE9"/>
<path d="M167.34 403.29C167.34 401.02 167.34 398.73 167.34 396.46H160.53C160.54 398.73 160.53 401.02 160.53 403.29C162.8 403.29 165.07 403.28 167.34 403.29Z" fill="#CECFE9"/>
<path d="M146.91 437.44C147.22 437.44 146.96 442.75 146.91 444.04H167.33V437.44H160.52V410.12H167.33V403.29C165.06 403.28 162.79 403.29 160.52 403.29C160.52 401.02 160.53 398.73 160.52 396.46C160.51 394.19 160.52 391.9 160.52 389.63C158.25 389.63 155.98 389.64 153.71 389.63V396.46H146.9V430.61H140.09C140.09 432.88 140.09 435.17 140.09 437.44H146.9H146.91Z" fill="#796C9D"/>
<path d="M153.72 382.8H146.91C146.92 385.07 146.91 387.36 146.91 389.63C149.18 389.63 151.45 389.62 153.72 389.63C153.72 387.36 153.72 385.07 153.72 382.8Z" fill="#796C9D"/>
<path d="M358.37 430.47V430.55H358.45L358.37 430.47Z" fill="#343736"/>
<path d="M365.41 444.58V437.26H358.36V430.55H351.67V423.57H337.96V416.86L337.93 416.83H331.24V410.12H324.43V403.29H317.62L317.76 396.46H310.82V389.63H304.01V382.8H297.2V375.97C294.86 375.97 292.5 375.97 290.16 375.97C290.18 382.8 290.15 389.63 290.16 396.46H297.2V403.29H304.01V410.12H297.2V416.95H304.01V423.78H297.2V437.44H290.16C290.16 439.63 290.16 442.45 290.16 444.65L365.42 444.59L365.41 444.58Z" fill="#343736"/>
<rect x="52" y="430" width="320" height="7" fill="white"/>
</g>
</g>
</g>
<defs>
<clipPath id="clip0_32_3">
<rect width="410" height="437" fill="white"/>
</clipPath>
<clipPath id="clip1_32_3">
<rect width="598" height="456" fill="white" transform="translate(-110 -19)"/>
</clipPath>
<clipPath id="clip2_32_3">
<rect width="480" height="528" fill="white" transform="translate(-35 53)"/>
</clipPath>
</defs>
</svg>
